<svg width="102" height="102" viewBox="0 0 102 102" fill="none" xmlns="http://www.w3.org/2000/svg">
<path d="M78.625 91.3672H23.375C21.0269 91.3672 19.125 89.4653 19.125 87.1172V61.6172H82.875V87.1172C82.875 89.4653 80.9731 91.3672 78.625 91.3672Z" fill="url(#paint0_linear_1238_5569)"/>
<path d="M78.625 85H23.375C21.0269 85 19.125 83.0981 19.125 80.75V57.375H82.875V80.75C82.875 83.0981 80.9731 85 78.625 85Z" fill="url(#paint1_linear_1238_5569)"/>
<path d="M78.625 78.625H23.375C21.0269 78.625 19.125 76.7231 19.125 74.375V17C19.125 14.6519 21.0269 12.75 23.375 12.75H78.625C80.9731 12.75 82.875 14.6519 82.875 17V74.375C82.875 76.7231 80.9731 78.625 78.625 78.625Z" fill="url(#paint2_linear_1238_5569)"/>
<path d="M73.3203 40.3828H28.6953C28.1088 40.3828 27.6328 39.9068 27.6328 39.3203V35.0703C27.6328 34.4838 28.1088 34.0078 28.6953 34.0078H73.3203C73.9068 34.0078 74.3828 34.4838 74.3828 35.0703V39.3203C74.3828 39.9068 73.9068 40.3828 73.3203 40.3828Z" fill="#057093"/>
<path d="M73.3203 53.1328H28.6953C28.1088 53.1328 27.6328 52.6568 27.6328 52.0703V47.8203C27.6328 47.2338 28.1088 46.7578 28.6953 46.7578H73.3203C73.9068 46.7578 74.3828 47.2338 74.3828 47.8203V52.0703C74.3828 52.6568 73.9068 53.1328 73.3203 53.1328Z" fill="#057093"/>
<path d="M73.3203 65.8828H28.6953C28.1088 65.8828 27.6328 65.4068 27.6328 64.8203V60.5703C27.6328 59.9838 28.1088 59.5078 28.6953 59.5078H73.3203C73.9068 59.5078 74.3828 59.9838 74.3828 60.5703V64.8203C74.3828 65.4068 73.9068 65.8828 73.3203 65.8828Z" fill="#057093"/>
<path d="M73.3125 19.1328C71.553 19.1328 70.125 17.7048 70.125 15.9453V11.6953C70.125 9.93581 71.553 8.50781 73.3125 8.50781C75.072 8.50781 76.5 9.93581 76.5 11.6953V15.9453C76.5 17.7048 75.072 19.1328 73.3125 19.1328Z" fill="#057093"/>
<path d="M58.4297 19.1328C56.6702 19.1328 55.2422 17.7048 55.2422 15.9453V11.6953C55.2422 9.93581 56.6702 8.50781 58.4297 8.50781C60.1892 8.50781 61.6172 9.93581 61.6172 11.6953V15.9453C61.6172 17.7048 60.1892 19.1328 58.4297 19.1328Z" fill="#057093"/>
<path d="M43.5703 19.1328C41.8108 19.1328 40.3828 17.7048 40.3828 15.9453V11.6953C40.3828 9.93581 41.8108 8.50781 43.5703 8.50781C45.3298 8.50781 46.7578 9.93581 46.7578 11.6953V15.9453C46.7578 17.7048 45.3298 19.1328 43.5703 19.1328Z" fill="#057093"/>
<path d="M28.6875 19.1328C26.928 19.1328 25.5 17.7048 25.5 15.9453V11.6953C25.5 9.93581 26.928 8.50781 28.6875 8.50781C30.447 8.50781 31.875 9.93581 31.875 11.6953V15.9453C31.875 17.7048 30.447 19.1328 28.6875 19.1328Z" fill="#057093"/>
<defs>
<linearGradient id="paint0_linear_1238_5569" x1="51" y1="76.3519" x2="51" y2="88.0352" gradientUnits="userSpaceOnUse">
<stop offset="0.435" stop-color="#382010"/>
<stop offset="1" stop-color="#B0622B"/>
</linearGradient>
<linearGradient id="paint1_linear_1238_5569" x1="51" y1="71.0919" x2="51" y2="81.9421" gradientUnits="userSpaceOnUse">
<stop offset="0.441" stop-color="#999998"/>
<stop offset="0.653" stop-color="#C1C1C0"/>
<stop offset="0.88" stop-color="#E5E5E5"/>
<stop offset="1" stop-color="#F3F3F3"/>
</linearGradient>
<linearGradient id="paint2_linear_1238_5569" x1="20.1854" y1="13.0008" x2="80.1869" y2="76.6509" gradientUnits="userSpaceOnUse">
<stop stop-color="#7DD8F3"/>
<stop offset="1" stop-color="#45B0D0"/>
</linearGradient>
</defs>
</svg>
