<svg width="189" height="44" viewBox="0 0 189 44" fill="none" xmlns="http://www.w3.org/2000/svg">
<rect x="0.5625" y="0.691406" width="187.874" height="42.6111" rx="7" fill="white" fill-opacity="0.1"/>
<g clip-path="url(#clip0_1363_1180)">
<path d="M37.797 15.0352L28.7231 24.1091C27.7113 25.1183 26.3406 25.685 24.9116 25.685C23.4825 25.685 22.1118 25.1183 21.1 24.1091L12.0261 15.0352C12.0111 15.2055 11.9766 15.3596 11.9766 15.5288V28.4638C11.9783 29.8927 12.5467 31.2626 13.557 32.273C14.5674 33.2833 15.9373 33.8517 17.3661 33.8534H32.457C33.8859 33.8517 35.2557 33.2833 36.2661 32.273C37.2765 31.2626 37.8449 29.8927 37.8466 28.4638V15.5288C37.8466 15.3596 37.8121 15.2055 37.797 15.0352Z" fill="white"/>
<path d="M27.1977 22.5862L37.0434 12.7395C36.5665 11.9486 35.8938 11.294 35.0902 10.8388C34.2866 10.3836 33.3793 10.1431 32.4558 10.1406H17.365C16.4414 10.1431 15.5341 10.3836 14.7306 10.8388C13.927 11.294 13.2543 11.9486 12.7773 12.7395L22.623 22.5862C23.2305 23.1913 24.053 23.531 24.9104 23.531C25.7678 23.531 26.5902 23.1913 27.1977 22.5862Z" fill="white"/>
</g>
<path d="M50.1423 27.9961L54.2295 17.3397H55.5225L59.6246 27.9961H58.2424L57.1648 25.1499H52.5501L51.532 27.9961H50.1423ZM52.9662 24.0204H56.7561L55.0321 19.3833C54.9974 19.2892 54.9702 19.2099 54.9503 19.1455C54.9305 19.0811 54.9033 18.9919 54.8686 18.878H54.8389C54.7992 18.9919 54.7695 19.0836 54.7497 19.1529C54.7299 19.2173 54.7026 19.2941 54.668 19.3833L52.9662 24.0204ZM60.442 26.5024L61.4824 26.0491C61.6508 26.4256 61.8837 26.6981 62.1809 26.8665C62.4831 27.035 62.8522 27.1192 63.2882 27.1192C63.7043 27.1192 64.0486 27.0152 64.3211 26.8071C64.5985 26.599 64.7373 26.2993 64.7373 25.9079C64.7373 25.6107 64.6159 25.3555 64.3731 25.1425C64.1353 24.9245 63.7588 24.7586 63.2436 24.6446C62.2825 24.4316 61.6285 24.1393 61.2817 23.7677C60.9399 23.3962 60.769 22.9577 60.769 22.4524C60.769 21.739 61.0167 21.1866 61.5121 20.7952C62.0125 20.4039 62.6095 20.2082 63.303 20.2082C63.8629 20.2082 64.3682 20.3246 64.819 20.5574C65.2748 20.7903 65.6141 21.1495 65.8371 21.635L64.8413 22.0957C64.6927 21.8133 64.4945 21.6052 64.2468 21.4715C63.9991 21.3328 63.6746 21.2634 63.2733 21.2634C62.8869 21.2634 62.5624 21.3575 62.2998 21.5458C62.0372 21.7341 61.906 21.9941 61.906 22.3261C61.906 22.6382 62.0125 22.8785 62.2255 23.0469C62.4385 23.2104 62.8621 23.364 63.4962 23.5076C64.3236 23.6909 64.9305 23.9733 65.3169 24.3548C65.7033 24.7313 65.8965 25.2242 65.8965 25.8336C65.8965 26.5767 65.6389 27.1539 65.1237 27.5651C64.6134 27.9713 64.0016 28.1744 63.2882 28.1744C62.55 28.1744 61.9456 28.0233 61.475 27.7211C61.0093 27.414 60.6649 27.0077 60.442 26.5024ZM73.9743 27.9961H72.3617L69.0028 24.3399H68.9731V27.9961H67.7543V16.7304H68.9731V23.8718H69.0028L72.2577 20.3865H73.7588L70.2661 24.0575L73.9743 27.9961ZM89.8548 27.9961H88.6138V20.8473C88.6138 20.555 88.6163 20.2825 88.6212 20.0298C88.6262 19.7722 88.6336 19.475 88.6435 19.1381H88.6138C88.5741 19.2669 88.537 19.3784 88.5023 19.4725C88.4676 19.5666 88.423 19.6781 88.3685 19.8069L84.7272 27.9961H84.1179L80.484 19.8663C80.4444 19.7821 80.3998 19.6806 80.3503 19.5617C80.3007 19.4428 80.2487 19.3016 80.1942 19.1381H80.1645C80.1744 19.3164 80.1818 19.5493 80.1868 19.8366C80.1917 20.119 80.1942 20.4608 80.1942 20.8621V27.9961H78.9903V17.3397H80.6401L83.9098 24.7709C84.0337 25.0533 84.1327 25.2862 84.2071 25.4695C84.2814 25.6478 84.3458 25.8212 84.4003 25.9897H84.4449C84.5291 25.7816 84.6158 25.5636 84.705 25.3357C84.7991 25.1078 84.8833 24.9097 84.9576 24.7412L88.2942 17.3397H89.8548V27.9961ZM98.5865 24.4068H93.0948C93.0948 25.3481 93.3177 26.0367 93.7636 26.4727C94.2144 26.9037 94.7495 27.1192 95.3688 27.1192C95.8344 27.1192 96.2432 27.0127 96.5949 26.7997C96.9516 26.5817 97.2464 26.2597 97.4792 25.8336L98.475 26.3389C98.2075 26.8839 97.8037 27.3273 97.2637 27.6691C96.7287 28.006 96.0698 28.1744 95.287 28.1744C94.2764 28.1744 93.4465 27.84 92.7975 27.1712C92.1535 26.5024 91.8315 25.519 91.8315 24.221C91.8315 23.0667 92.1585 22.1106 92.8124 21.3526C93.4664 20.5896 94.3036 20.2082 95.3242 20.2082C96.3596 20.2082 97.1622 20.5228 97.7319 21.1519C98.3016 21.7762 98.5865 22.6481 98.5865 23.7677V24.4068ZM97.338 23.3887C97.338 22.7298 97.1572 22.2121 96.7955 21.8356C96.4339 21.4541 95.936 21.2634 95.3019 21.2634C94.6876 21.2634 94.1847 21.4665 93.7933 21.8728C93.4069 22.279 93.1765 22.7843 93.1022 23.3887H97.338ZM102.815 27.9961L106.902 17.3397H108.195L112.297 27.9961H110.915L109.837 25.1499H105.223L104.204 27.9961H102.815ZM105.639 24.0204H109.429L107.705 19.3833C107.67 19.2892 107.643 19.2099 107.623 19.1455C107.603 19.0811 107.576 18.9919 107.541 18.878H107.511C107.472 18.9919 107.442 19.0836 107.422 19.1529C107.402 19.2173 107.375 19.2941 107.34 19.3833L105.639 24.0204ZM121.66 28.1744C120.144 28.1744 118.923 27.679 117.997 26.6882C117.07 25.6974 116.607 24.3994 116.607 22.7942C116.607 21.0851 117.09 19.7202 118.056 18.6996C119.027 17.6741 120.288 17.1614 121.839 17.1614C123.28 17.1614 124.455 17.6494 125.361 18.6253C126.273 19.5963 126.733 20.8993 126.743 22.5341C126.748 23.5696 126.565 24.5059 126.193 25.3431C125.822 26.1804 125.312 26.8269 124.663 27.2827L126.825 28.7912L126.067 29.8316L123.481 27.9144C123.218 27.9936 122.926 28.0555 122.604 28.1001C122.287 28.1497 121.973 28.1744 121.66 28.1744ZM121.75 18.3206C120.61 18.3206 119.686 18.7219 118.978 19.5245C118.269 20.3271 117.915 21.3798 117.915 22.6828C117.915 23.9708 118.259 25.0162 118.948 25.8187C119.637 26.6213 120.541 27.0226 121.66 27.0226C122.83 27.0226 123.751 26.6337 124.425 25.8559C125.099 25.0781 125.435 24.0278 125.435 22.7051C125.435 21.3724 125.094 20.3097 124.41 19.5171C123.726 18.7195 122.84 18.3206 121.75 18.3206ZM134.62 27.9961H133.402V26.9111H133.372C133.119 27.3025 132.785 27.6121 132.369 27.84C131.958 28.063 131.509 28.1744 131.024 28.1744C130.127 28.1744 129.448 27.9144 128.988 27.3942C128.532 26.874 128.304 26.0887 128.304 25.0385V20.3865H129.515V24.9047C129.515 25.6875 129.654 26.2522 129.931 26.599C130.209 26.9458 130.657 27.1192 131.276 27.1192C131.906 27.1192 132.416 26.8938 132.807 26.443C133.204 25.9872 133.402 25.4175 133.402 24.7338V20.3865H134.62V27.9961ZM143.174 24.4068H137.682C137.682 25.3481 137.905 26.0367 138.351 26.4727C138.802 26.9037 139.337 27.1192 139.956 27.1192C140.422 27.1192 140.83 27.0127 141.182 26.7997C141.539 26.5817 141.834 26.2597 142.067 25.8336L143.062 26.3389C142.795 26.8839 142.391 27.3273 141.851 27.6691C141.316 28.006 140.657 28.1744 139.874 28.1744C138.864 28.1744 138.034 27.84 137.385 27.1712C136.741 26.5024 136.419 25.519 136.419 24.221C136.419 23.0667 136.746 22.1106 137.4 21.3526C138.054 20.5896 138.891 20.2082 139.911 20.2082C140.947 20.2082 141.749 20.5228 142.319 21.1519C142.889 21.7762 143.174 22.6481 143.174 23.7677V24.4068ZM141.925 23.3887C141.925 22.7298 141.745 22.2121 141.383 21.8356C141.021 21.4541 140.523 21.2634 139.889 21.2634C139.275 21.2634 138.772 21.4665 138.381 21.8728C137.994 22.279 137.764 22.7843 137.69 23.3887H141.925ZM144.415 26.5024L145.455 26.0491C145.624 26.4256 145.856 26.6981 146.154 26.8665C146.456 27.035 146.825 27.1192 147.261 27.1192C147.677 27.1192 148.021 27.0152 148.294 26.8071C148.571 26.599 148.71 26.2993 148.71 25.9079C148.71 25.6107 148.589 25.3555 148.346 25.1425C148.108 24.9245 147.732 24.7586 147.216 24.6446C146.255 24.4316 145.601 24.1393 145.255 23.7677C144.913 23.3962 144.742 22.9577 144.742 22.4524C144.742 21.739 144.99 21.1866 145.485 20.7952C145.985 20.4039 146.582 20.2082 147.276 20.2082C147.836 20.2082 148.341 20.3246 148.792 20.5574C149.248 20.7903 149.587 21.1495 149.81 21.635L148.814 22.0957C148.665 21.8133 148.467 21.6052 148.22 21.4715C147.972 21.3328 147.647 21.2634 147.246 21.2634C146.86 21.2634 146.535 21.3575 146.273 21.5458C146.01 21.7341 145.879 21.9941 145.879 22.3261C145.879 22.6382 145.985 22.8785 146.198 23.0469C146.411 23.2104 146.835 23.364 147.469 23.5076C148.296 23.6909 148.903 23.9733 149.29 24.3548C149.676 24.7313 149.869 25.2242 149.869 25.8336C149.869 26.5767 149.612 27.1539 149.096 27.5651C148.586 27.9713 147.974 28.1744 147.261 28.1744C146.523 28.1744 145.918 28.0233 145.448 27.7211C144.982 27.414 144.638 27.0077 144.415 26.5024ZM155.681 27.5131C155.458 27.736 155.212 27.8995 154.945 28.0035C154.677 28.1076 154.363 28.1596 154.001 28.1596C153.402 28.1596 152.938 27.9936 152.611 27.6617C152.284 27.3248 152.121 26.8443 152.121 26.22V21.4269H150.813V20.3865H152.121V18.5882L153.34 18.3727V20.3865H155.376V21.4269H153.34V26.116C153.34 26.4776 153.409 26.7402 153.548 26.9037C153.687 27.0672 153.904 27.1489 154.202 27.1489C154.35 27.1489 154.492 27.1192 154.625 27.0598C154.764 27.0003 154.908 26.8864 155.056 26.7179L155.681 27.5131ZM157.813 18.6699C157.551 18.6699 157.338 18.5832 157.174 18.4098C157.011 18.2315 156.929 18.0234 156.929 17.7856C156.929 17.5478 157.011 17.3422 157.174 17.1688C157.338 16.9905 157.551 16.9013 157.813 16.9013C158.076 16.9013 158.289 16.9905 158.452 17.1688C158.616 17.3422 158.698 17.5478 158.698 17.7856C158.698 18.0234 158.616 18.2315 158.452 18.4098C158.289 18.5832 158.076 18.6699 157.813 18.6699ZM158.408 27.9961H157.189V20.3865H158.408V27.9961ZM163.966 28.1744C162.782 28.1744 161.856 27.8227 161.187 27.1192C160.518 26.4108 160.184 25.4645 160.184 24.2805C160.184 23.0568 160.555 22.0734 161.299 21.3303C162.042 20.5822 162.971 20.2082 164.085 20.2082C165.225 20.2082 166.126 20.5723 166.79 21.3006C167.459 22.0239 167.793 22.9775 167.793 24.1616C167.793 25.306 167.449 26.2621 166.761 27.03C166.077 27.793 165.145 28.1744 163.966 28.1744ZM164.033 27.1192C164.801 27.1192 165.411 26.8641 165.861 26.3538C166.317 25.8386 166.545 25.1227 166.545 24.2062C166.545 23.3342 166.317 22.6283 165.861 22.0883C165.411 21.5433 164.801 21.2708 164.033 21.2708C163.265 21.2708 162.639 21.5458 162.153 22.0957C161.673 22.6407 161.432 23.3541 161.432 24.2359C161.432 25.1623 161.673 25.8757 162.153 26.3761C162.639 26.8715 163.265 27.1192 164.033 27.1192ZM175.908 27.9961H174.69V23.4779C174.69 22.7298 174.546 22.175 174.259 21.8133C173.976 21.4467 173.548 21.2634 172.973 21.2634C172.329 21.2634 171.806 21.4913 171.405 21.9471C171.009 22.3979 170.811 22.9676 170.811 23.6563V27.9961H169.592V20.3865H170.811V21.4715H170.84C171.128 21.0504 171.479 20.7358 171.895 20.5277C172.312 20.3147 172.792 20.2082 173.337 20.2082C174.169 20.2082 174.806 20.4782 175.247 21.0182C175.688 21.5532 175.908 22.3285 175.908 23.3441V27.9961Z" fill="white"/>
<defs>
<clipPath id="clip0_1363_1180">
<rect width="25.87" height="25.87" fill="white" transform="translate(11.9766 9.0625)"/>
</clipPath>
</defs>
</svg>
