<svg width="122" height="44" viewBox="0 0 122 44" fill="none" xmlns="http://www.w3.org/2000/svg">
<rect x="0.570312" y="0.691406" width="120.992" height="42.6136" rx="7" fill="white" fill-opacity="0.1"/>
<rect x="11.9844" y="9.0625" width="25.8725" height="25.8725" rx="12.9363" fill="#5C3C6E"/>
<path d="M31.4345 27.8336C31.4095 27.9953 31.2742 28.1086 31.1323 28.0866C30.9905 28.0647 30.8958 27.9158 30.9208 27.7541C30.9458 27.5924 31.0811 27.4791 31.223 27.501C31.3648 27.523 31.4595 27.6719 31.4345 27.8336Z" fill="white"/>
<path d="M31.9717 26.8936C31.9466 27.0553 31.8113 27.1686 31.6695 27.1466C31.5276 27.1247 31.4329 26.9758 31.458 26.8141C31.483 26.6524 31.6183 26.5391 31.7601 26.561C31.902 26.583 31.9967 26.7319 31.9717 26.8936Z" fill="white"/>
<path d="M32.4193 25.9536C32.3942 26.1153 32.259 26.2286 32.1171 26.2066C31.9753 26.1847 31.8806 26.0358 31.9056 25.8741C31.9306 25.7124 32.0659 25.5991 32.2078 25.621C32.3496 25.643 32.4443 25.7919 32.4193 25.9536Z" fill="white"/>
<path d="M32.7326 24.924C32.7076 25.0858 32.5723 25.1991 32.4304 25.1771C32.2886 25.1551 32.1939 25.0062 32.2189 24.8445C32.244 24.6828 32.3792 24.5695 32.5211 24.5915C32.6629 24.6135 32.7576 24.7623 32.7326 24.924Z" fill="white"/>
<path d="M32.9564 23.8945C32.9314 24.0562 32.7961 24.1695 32.6543 24.1476C32.5124 24.1256 32.4177 23.9767 32.4427 23.815C32.4678 23.6533 32.603 23.54 32.7449 23.562C32.8867 23.5839 32.9815 23.7328 32.9564 23.8945Z" fill="white"/>
<path d="M33.0459 22.865C33.0209 23.0267 32.8856 23.14 32.7438 23.118C32.6019 23.0961 32.5072 22.9472 32.5323 22.7855C32.5573 22.6238 32.6926 22.5105 32.8344 22.5324C32.9763 22.5544 33.071 22.7033 33.0459 22.865Z" fill="white"/>
<path d="M33.0907 21.7907C33.0657 21.9524 32.9304 22.0657 32.7885 22.0437C32.6467 22.0218 32.552 21.8729 32.577 21.7112C32.602 21.5495 32.7373 21.4362 32.8792 21.4581C33.021 21.4801 33.1157 21.629 33.0907 21.7907Z" fill="white"/>
<path d="M33.0012 20.7612C32.9762 20.9229 32.8409 21.0362 32.699 21.0142C32.5572 20.9923 32.4625 20.8434 32.4875 20.6817C32.5125 20.5199 32.6478 20.4067 32.7897 20.4286C32.9315 20.4506 33.0262 20.5995 33.0012 20.7612Z" fill="white"/>
<path d="M32.7774 19.7764C32.7523 19.9381 32.6171 20.0514 32.4752 20.0294C32.3334 20.0075 32.2387 19.8586 32.2637 19.6969C32.2887 19.5352 32.424 19.4219 32.5658 19.4438C32.7077 19.4658 32.8024 19.6147 32.7774 19.7764Z" fill="white"/>
<path d="M32.464 18.7916C32.439 18.9533 32.3037 19.0666 32.1619 19.0447C32.02 19.0227 31.9253 18.8738 31.9503 18.7121C31.9754 18.5504 32.1107 18.4371 32.2525 18.4591C32.3944 18.481 32.4891 18.6299 32.464 18.7916Z" fill="white"/>
<path d="M32.0612 17.8964C32.0361 18.0581 31.9009 18.1714 31.759 18.1494C31.6172 18.1275 31.5225 17.9786 31.5475 17.8169C31.5725 17.6552 31.7078 17.5419 31.8497 17.5638C31.9915 17.5858 32.0862 17.7347 32.0612 17.8964Z" fill="white"/>
<path d="M31.5688 17.0459C31.5438 17.2076 31.4085 17.3209 31.2666 17.2989C31.1248 17.277 31.0301 17.1281 31.0551 16.9664C31.0801 16.8047 31.2154 16.6914 31.3573 16.7134C31.4991 16.7353 31.5938 16.8842 31.5688 17.0459Z" fill="white"/>
<path d="M30.9869 16.2849C30.9619 16.4467 30.8266 16.5599 30.6847 16.538C30.5429 16.516 30.4482 16.3671 30.4732 16.2054C30.4982 16.0437 30.6335 15.9304 30.7754 15.9524C30.9172 15.9743 31.0119 16.1232 30.9869 16.2849Z" fill="white"/>
<path d="M30.3155 15.6135C30.2904 15.7752 30.1551 15.8885 30.0133 15.8666C29.8714 15.8446 29.7767 15.6957 29.8018 15.534C29.8268 15.3723 29.9621 15.259 30.1039 15.281C30.2458 15.3029 30.3405 15.4518 30.3155 15.6135Z" fill="white"/>
<path d="M29.5545 15.0316C29.5295 15.1933 29.3942 15.3066 29.2523 15.2846C29.1105 15.2627 29.0158 15.1138 29.0408 14.9521C29.0658 14.7904 29.2011 14.6771 29.343 14.6991C29.4848 14.721 29.5795 14.8699 29.5545 15.0316Z" fill="white"/>
<path d="M28.7488 14.5392C28.7237 14.7009 28.5885 14.8142 28.4466 14.7923C28.3048 14.7703 28.2101 14.6214 28.2351 14.4597C28.2601 14.298 28.3954 14.1847 28.5373 14.2067C28.6791 14.2286 28.7738 14.3775 28.7488 14.5392Z" fill="white"/>
<path d="M27.8983 14.1811C27.8733 14.3428 27.738 14.4561 27.5961 14.4342C27.4543 14.4122 27.3596 14.2633 27.3846 14.1016C27.4096 13.9399 27.5449 13.8266 27.6868 13.8486C27.8286 13.8705 27.9233 14.0194 27.8983 14.1811Z" fill="white"/>
<path d="M27.0031 13.9573C26.978 14.119 26.8427 14.2323 26.7009 14.2104C26.559 14.1884 26.4643 14.0395 26.4894 13.8778C26.5144 13.7161 26.6497 13.6028 26.7915 13.6248C26.9334 13.6467 27.0281 13.7956 27.0031 13.9573Z" fill="white"/>
<path d="M26.063 13.823C26.038 13.9847 25.9027 14.098 25.7609 14.0761C25.619 14.0541 25.5243 13.9052 25.5494 13.7435C25.5744 13.5818 25.7097 13.4685 25.8515 13.4905C25.9934 13.5124 26.0881 13.6613 26.063 13.823Z" fill="white"/>
<path d="M25.123 13.823C25.098 13.9847 24.9627 14.098 24.8209 14.0761C24.679 14.0541 24.5843 13.9052 24.6093 13.7435C24.6344 13.5818 24.7697 13.4685 24.9115 13.4905C25.0534 13.5124 25.1481 13.6613 25.123 13.823Z" fill="white"/>
<path d="M24.2278 13.9126C24.2028 14.0743 24.0675 14.1876 23.9256 14.1656C23.7838 14.1436 23.6891 13.9947 23.7141 13.833C23.7391 13.6713 23.8744 13.558 24.0163 13.58C24.1581 13.602 24.2528 13.7508 24.2278 13.9126Z" fill="white"/>
<path d="M23.2878 14.1364C23.2628 14.2981 23.1275 14.4114 22.9856 14.3894C22.8438 14.3674 22.7491 14.2186 22.7741 14.0569C22.7991 13.8951 22.9344 13.7819 23.0763 13.8038C23.2181 13.8258 23.3128 13.9747 23.2878 14.1364Z" fill="white"/>
<path d="M22.3925 14.4945C22.3675 14.6562 22.2322 14.7695 22.0904 14.7475C21.9485 14.7255 21.8538 14.5767 21.8789 14.4149C21.9039 14.2532 22.0392 14.1399 22.181 14.1619C22.3229 14.1839 22.4176 14.3328 22.3925 14.4945Z" fill="white"/>
<path d="M21.5421 14.9421C21.517 15.1038 21.3817 15.2171 21.2399 15.1951C21.098 15.1732 21.0033 15.0243 21.0284 14.8626C21.0534 14.7009 21.1887 14.5876 21.3305 14.6095C21.4724 14.6315 21.5671 14.7804 21.5421 14.9421Z" fill="white"/>
<path d="M20.6916 15.524C20.6666 15.6857 20.5313 15.799 20.3894 15.777C20.2476 15.7551 20.1529 15.6062 20.1779 15.4445C20.2029 15.2828 20.3382 15.1695 20.4801 15.1914C20.6219 15.2134 20.7166 15.3623 20.6916 15.524Z" fill="white"/>
<path d="M19.9754 16.1954C19.9504 16.3571 19.8151 16.4704 19.6732 16.4485C19.5314 16.4265 19.4367 16.2776 19.4617 16.1159C19.4867 15.9542 19.622 15.8409 19.7639 15.8629C19.9057 15.8848 20.0004 16.0337 19.9754 16.1954Z" fill="white"/>
<path d="M19.2592 16.9564C19.2342 17.1181 19.0989 17.2314 18.957 17.2094C18.8152 17.1875 18.7205 17.0386 18.7455 16.8769C18.7705 16.7152 18.9058 16.6019 19.0477 16.6238C19.1895 16.6458 19.2842 16.7947 19.2592 16.9564Z" fill="white"/>
<path d="M18.6325 17.8069C18.6075 17.9686 18.4722 18.0819 18.3304 18.0599C18.1885 18.0379 18.0938 17.8891 18.1188 17.7274C18.1439 17.5656 18.2791 17.4524 18.421 17.4743C18.5628 17.4963 18.6576 17.6452 18.6325 17.8069Z" fill="white"/>
<path d="M18.1401 18.7469C18.1151 18.9086 17.9798 19.0219 17.838 18.9999C17.6961 18.978 17.6014 18.8291 17.6264 18.6674C17.6515 18.5056 17.7868 18.3924 17.9286 18.4143C18.0705 18.4363 18.1652 18.5852 18.1401 18.7469Z" fill="white"/>
<path d="M17.7373 19.6869C17.7122 19.8486 17.577 19.9619 17.4351 19.9399C17.2933 19.918 17.1986 19.7691 17.2236 19.6074C17.2486 19.4457 17.3839 19.3324 17.5258 19.3543C17.6676 19.3763 17.7623 19.5252 17.7373 19.6869Z" fill="white"/>
<path d="M17.3792 20.6716C17.3541 20.8334 17.2189 20.9466 17.077 20.9247C16.9352 20.9027 16.8405 20.7538 16.8655 20.5921C16.8905 20.4304 17.0258 20.3171 17.1677 20.3391C17.3095 20.361 17.4042 20.5099 17.3792 20.6716Z" fill="white"/>
<path d="M17.1554 21.7012C17.1303 21.8629 16.9951 21.9762 16.8532 21.9542C16.7114 21.9323 16.6166 21.7834 16.6417 21.6217C16.6667 21.46 16.802 21.3467 16.9438 21.3686C17.0857 21.3906 17.1804 21.5395 17.1554 21.7012Z" fill="white"/>
<path d="M17.0211 22.7755C16.9961 22.9372 16.8608 23.0505 16.7189 23.0285C16.5771 23.0066 16.4824 22.8577 16.5074 22.696C16.5324 22.5342 16.6677 22.421 16.8096 22.4429C16.9514 22.4649 17.0461 22.6138 17.0211 22.7755Z" fill="white"/>
<path d="M17.0211 23.8498C16.9961 24.0115 16.8608 24.1248 16.7189 24.1028C16.5771 24.0808 16.4824 23.932 16.5074 23.7702C16.5324 23.6085 16.6677 23.4952 16.8096 23.5172C16.9514 23.5392 17.0461 23.688 17.0211 23.8498Z" fill="white"/>
<path d="M17.1106 24.8793C17.0856 25.041 16.9503 25.1543 16.8084 25.1323C16.6666 25.1104 16.5719 24.9615 16.5969 24.7998C16.6219 24.6381 16.7572 24.5248 16.8991 24.5467C17.0409 24.5687 17.1356 24.7176 17.1106 24.8793Z" fill="white"/>
<path d="M17.3344 25.9088C17.3094 26.0705 17.1741 26.1838 17.0323 26.1619C16.8904 26.1399 16.7957 25.991 16.8207 25.8293C16.8458 25.6676 16.981 25.5543 17.1229 25.5763C17.2647 25.5982 17.3594 25.7471 17.3344 25.9088Z" fill="white"/>
<path d="M17.6478 26.8041C17.6227 26.9658 17.4874 27.0791 17.3456 27.0571C17.2037 27.0351 17.109 26.8863 17.1341 26.7245C17.1591 26.5628 17.2944 26.4495 17.4362 26.4715C17.5781 26.4935 17.6728 26.6424 17.6478 26.8041Z" fill="white"/>
<path d="M18.0506 27.7441C18.0256 27.9058 17.8903 28.0191 17.7484 27.9971C17.6066 27.9752 17.5119 27.8263 17.5369 27.6646C17.562 27.5028 17.6972 27.3896 17.8391 27.4115C17.9809 27.4335 18.0756 27.5824 18.0506 27.7441Z" fill="white"/>
<path d="M18.543 28.5945C18.518 28.7563 18.3827 28.8695 18.2408 28.8476C18.099 28.8256 18.0043 28.6767 18.0293 28.515C18.0543 28.3533 18.1896 28.24 18.3315 28.262C18.4733 28.2839 18.568 28.4328 18.543 28.5945Z" fill="white"/>
<path d="M19.1249 29.3555C19.0999 29.5172 18.9646 29.6305 18.8227 29.6085C18.6809 29.5866 18.5862 29.4377 18.6112 29.276C18.6362 29.1143 18.7715 29.001 18.9134 29.0229C19.0552 29.0449 19.1499 29.1938 19.1249 29.3555Z" fill="white"/>
<path d="M19.8411 30.0269C19.8161 30.1886 19.6808 30.3019 19.5389 30.28C19.3971 30.258 19.3024 30.1091 19.3274 29.9474C19.3524 29.7857 19.4877 29.6724 19.6296 29.6944C19.7714 29.7163 19.8661 29.8652 19.8411 30.0269Z" fill="white"/>
<path d="M20.5573 30.6088C20.5323 30.7706 20.397 30.8838 20.2551 30.8619C20.1133 30.8399 20.0186 30.691 20.0436 30.5293C20.0686 30.3676 20.2039 30.2543 20.3458 30.2763C20.4876 30.2982 20.5823 30.4471 20.5573 30.6088Z" fill="white"/>
<path d="M21.363 31.1012C21.338 31.2629 21.2027 31.3762 21.0608 31.3543C20.919 31.3323 20.8243 31.1834 20.8493 31.0217C20.8744 30.86 21.0096 30.7467 21.1515 30.7687C21.2933 30.7906 21.388 30.9395 21.363 31.1012Z" fill="white"/>
<path d="M22.2135 31.4593C22.1885 31.621 22.0532 31.7343 21.9113 31.7124C21.7695 31.6904 21.6748 31.5415 21.6998 31.3798C21.7248 31.2181 21.8601 31.1048 22.002 31.1268C22.1438 31.1487 22.2385 31.2976 22.2135 31.4593Z" fill="white"/>
<path d="M23.1087 31.6831C23.0837 31.8448 22.9484 31.9581 22.8066 31.9362C22.6647 31.9142 22.57 31.7653 22.5951 31.6036C22.6201 31.4419 22.7554 31.3286 22.8972 31.3506C23.0391 31.3725 23.1338 31.5214 23.1087 31.6831Z" fill="white"/>
<path d="M24.0487 31.8174C24.0237 31.9791 23.8884 32.0924 23.7466 32.0705C23.6047 32.0485 23.51 31.8996 23.5351 31.7379C23.5601 31.5762 23.6954 31.4629 23.8372 31.4849C23.9791 31.5068 24.0738 31.6557 24.0487 31.8174Z" fill="white"/>
<path d="M24.944 31.8174C24.919 31.9791 24.7837 32.0924 24.6418 32.0705C24.5 32.0485 24.4053 31.8996 24.4303 31.7379C24.4553 31.5762 24.5906 31.4629 24.7325 31.4849C24.8743 31.5068 24.969 31.6557 24.944 31.8174Z" fill="white"/>
<path d="M25.884 31.7279C25.859 31.8896 25.7237 32.0029 25.5818 31.9809C25.44 31.959 25.3453 31.8101 25.3703 31.6484C25.3953 31.4867 25.5306 31.3734 25.6725 31.3953C25.8143 31.4173 25.909 31.5662 25.884 31.7279Z" fill="white"/>
<path d="M26.824 31.5041C26.799 31.6658 26.6637 31.7791 26.5218 31.7571C26.38 31.7352 26.2853 31.5863 26.3103 31.4246C26.3353 31.2629 26.4706 31.1496 26.6125 31.1715C26.7543 31.1935 26.849 31.3424 26.824 31.5041Z" fill="white"/>
<path d="M27.7192 31.146C27.6942 31.3077 27.5589 31.421 27.4171 31.399C27.2752 31.3771 27.1805 31.2282 27.2056 31.0665C27.2306 30.9048 27.3659 30.7915 27.5077 30.8134C27.6496 30.8354 27.7443 30.9843 27.7192 31.146Z" fill="white"/>
<path d="M28.5697 30.6536C28.5447 30.8153 28.4094 30.9286 28.2676 30.9067C28.1257 30.8847 28.031 30.7358 28.056 30.5741C28.0811 30.4124 28.2164 30.2991 28.3582 30.3211C28.5001 30.343 28.5948 30.4919 28.5697 30.6536Z" fill="white"/>
<path d="M29.3754 30.0717C29.3504 30.2334 29.2151 30.3467 29.0733 30.3247C28.9314 30.3028 28.8367 30.1539 28.8618 29.9922C28.8868 29.8305 29.0221 29.7172 29.1639 29.7391C29.3058 29.7611 29.4005 29.91 29.3754 30.0717Z" fill="white"/>
<path d="M30.1364 29.4003C30.1114 29.562 29.9761 29.6753 29.8342 29.6533C29.6924 29.6314 29.5977 29.4825 29.6227 29.3208C29.6477 29.159 29.783 29.0458 29.9249 29.0677C30.0667 29.0897 30.1614 29.2386 30.1364 29.4003Z" fill="white"/>
<path d="M30.8526 28.6841C30.8276 28.8458 30.6923 28.9591 30.5504 28.9371C30.4086 28.9152 30.3139 28.7663 30.3389 28.6046C30.3639 28.4429 30.4992 28.3296 30.6411 28.3515C30.7829 28.3735 30.8776 28.5224 30.8526 28.6841Z" fill="white"/>
<path d="M22.1469 32.6313C22.1469 32.8414 21.9766 33.0118 21.7664 33.0118C21.5563 33.0118 21.386 32.8414 21.386 32.6313C21.386 32.4212 21.5563 32.2508 21.7664 32.2508C21.9766 32.2508 22.1469 32.4212 22.1469 32.6313Z" fill="white"/>
<path d="M23.4003 32.8999C23.4003 33.11 23.2299 33.2804 23.0198 33.2804C22.8096 33.2804 22.6393 33.11 22.6393 32.8999C22.6393 32.6898 22.8096 32.5194 23.0198 32.5194C23.2299 32.5194 23.4003 32.6898 23.4003 32.8999Z" fill="white"/>
<path d="M24.6536 33.0342C24.6536 33.2443 24.4833 33.4147 24.2731 33.4147C24.063 33.4147 23.8926 33.2443 23.8926 33.0342C23.8926 32.824 24.063 32.6537 24.2731 32.6537C24.4833 32.6537 24.6536 32.824 24.6536 33.0342Z" fill="white"/>
<path d="M25.9965 33.0342C25.9965 33.2443 25.8261 33.4147 25.616 33.4147C25.4059 33.4147 25.2355 33.2443 25.2355 33.0342C25.2355 32.824 25.4059 32.6537 25.616 32.6537C25.8261 32.6537 25.9965 32.824 25.9965 33.0342Z" fill="white"/>
<path d="M27.2498 32.8999C27.2498 33.11 27.0795 33.2804 26.8693 33.2804C26.6592 33.2804 26.4888 33.11 26.4888 32.8999C26.4888 32.6898 26.6592 32.5194 26.8693 32.5194C27.0795 32.5194 27.2498 32.6898 27.2498 32.8999Z" fill="white"/>
<path d="M28.5031 32.6313C28.5031 32.8414 28.3328 33.0118 28.1227 33.0118C27.9125 33.0118 27.7422 32.8414 27.7422 32.6313C27.7422 32.4212 27.9125 32.2508 28.1227 32.2508C28.3328 32.2508 28.5031 32.4212 28.5031 32.6313Z" fill="white"/>
<path d="M29.7117 32.1389C29.7117 32.3491 29.5414 32.5194 29.3312 32.5194C29.1211 32.5194 28.9508 32.3491 28.9508 32.1389C28.9508 31.9288 29.1211 31.7585 29.3312 31.7585C29.5414 31.7585 29.7117 31.9288 29.7117 32.1389Z" fill="white"/>
<path d="M30.8755 31.6018C30.8755 31.8119 30.7052 31.9823 30.4951 31.9823C30.2849 31.9823 30.1146 31.8119 30.1146 31.6018C30.1146 31.3917 30.2849 31.2213 30.4951 31.2213C30.7052 31.2213 30.8755 31.3917 30.8755 31.6018Z" fill="white"/>
<path d="M31.9498 30.8408C31.9498 31.051 31.7795 31.2213 31.5694 31.2213C31.3592 31.2213 31.1889 31.051 31.1889 30.8408C31.1889 30.6307 31.3592 30.4603 31.5694 30.4603C31.7795 30.4603 31.9498 30.6307 31.9498 30.8408Z" fill="white"/>
<path d="M32.9346 30.0799C32.9346 30.29 32.7643 30.4603 32.5541 30.4603C32.344 30.4603 32.1736 30.29 32.1736 30.0799C32.1736 29.8697 32.344 29.6994 32.5541 29.6994C32.7643 29.6994 32.9346 29.8697 32.9346 30.0799Z" fill="white"/>
<path d="M33.8298 29.0951C33.8298 29.3052 33.6595 29.4756 33.4494 29.4756C33.2392 29.4756 33.0689 29.3052 33.0689 29.0951C33.0689 28.885 33.2392 28.7146 33.4494 28.7146C33.6595 28.7146 33.8298 28.885 33.8298 29.0951Z" fill="white"/>
<path d="M34.5908 28.0656C34.5908 28.2757 34.4205 28.4461 34.2103 28.4461C34.0002 28.4461 33.8298 28.2757 33.8298 28.0656C33.8298 27.8554 34.0002 27.6851 34.2103 27.6851C34.4205 27.6851 34.5908 27.8554 34.5908 28.0656Z" fill="white"/>
<path d="M35.2175 26.9465C35.2175 27.1566 35.0471 27.327 34.837 27.327C34.6269 27.327 34.4565 27.1566 34.4565 26.9465C34.4565 26.7364 34.6269 26.566 34.837 26.566C35.0471 26.566 35.2175 26.7364 35.2175 26.9465Z" fill="white"/>
<path d="M35.7546 25.7827C35.7546 25.9928 35.5843 26.1632 35.3741 26.1632C35.164 26.1632 34.9937 25.9928 34.9937 25.7827C34.9937 25.5726 35.164 25.4022 35.3741 25.4022C35.5843 25.4022 35.7546 25.5726 35.7546 25.7827Z" fill="white"/>
<path d="M36.1127 24.5741C36.1127 24.7843 35.9424 24.9546 35.7322 24.9546C35.5221 24.9546 35.3518 24.7843 35.3518 24.5741C35.3518 24.364 35.5221 24.1936 35.7322 24.1936C35.9424 24.1936 36.1127 24.364 36.1127 24.5741Z" fill="white"/>
<path d="M36.3365 23.276C36.3365 23.4861 36.1662 23.6565 35.956 23.6565C35.7459 23.6565 35.5756 23.4861 35.5756 23.276C35.5756 23.0659 35.7459 22.8955 35.956 22.8955C36.1662 22.8955 36.3365 23.0659 36.3365 23.276Z" fill="white"/>
<path d="M36.3365 21.9779C36.3365 22.188 36.1662 22.3584 35.956 22.3584C35.7459 22.3584 35.5756 22.188 35.5756 21.9779C35.5756 21.7678 35.7459 21.5974 35.956 21.5974C36.1662 21.5974 36.3365 21.7678 36.3365 21.9779Z" fill="white"/>
<path d="M36.3365 20.6798C36.3365 20.8899 36.1662 21.0603 35.956 21.0603C35.7459 21.0603 35.5756 20.8899 35.5756 20.6798C35.5756 20.4697 35.7459 20.2993 35.956 20.2993C36.1662 20.2993 36.3365 20.4697 36.3365 20.6798Z" fill="white"/>
<path d="M36.1127 19.4712C36.1127 19.6814 35.9424 19.8517 35.7322 19.8517C35.5221 19.8517 35.3518 19.6814 35.3518 19.4712C35.3518 19.2611 35.5221 19.0908 35.7322 19.0908C35.9424 19.0908 36.1127 19.2611 36.1127 19.4712Z" fill="white"/>
<path d="M35.7546 18.1731C35.7546 18.3833 35.5843 18.5536 35.3741 18.5536C35.164 18.5536 34.9937 18.3833 34.9937 18.1731C34.9937 17.963 35.164 17.7926 35.3741 17.7926C35.5843 17.7926 35.7546 17.963 35.7546 18.1731Z" fill="white"/>
<path d="M35.2175 17.0541C35.2175 17.2642 35.0471 17.4346 34.837 17.4346C34.6269 17.4346 34.4565 17.2642 34.4565 17.0541C34.4565 16.8439 34.6269 16.6736 34.837 16.6736C35.0471 16.6736 35.2175 16.8439 35.2175 17.0541Z" fill="white"/>
<path d="M34.5908 15.935C34.5908 16.1452 34.4205 16.3155 34.2103 16.3155C34.0002 16.3155 33.8298 16.1452 33.8298 15.935C33.8298 15.7249 34.0002 15.5545 34.2103 15.5545C34.4205 15.5545 34.5908 15.7249 34.5908 15.935Z" fill="white"/>
<path d="M33.8298 14.9503C33.8298 15.1604 33.6595 15.3307 33.4494 15.3307C33.2392 15.3307 33.0689 15.1604 33.0689 14.9503C33.0689 14.7401 33.2392 14.5698 33.4494 14.5698C33.6595 14.5698 33.8298 14.7401 33.8298 14.9503Z" fill="white"/>
<path d="M32.8898 13.9207C32.8898 14.1309 32.7195 14.3012 32.5094 14.3012C32.2992 14.3012 32.1289 14.1309 32.1289 13.9207C32.1289 13.7106 32.2992 13.5402 32.5094 13.5402C32.7195 13.5402 32.8898 13.7106 32.8898 13.9207Z" fill="white"/>
<path d="M31.9498 13.1598C31.9498 13.3699 31.7795 13.5402 31.5694 13.5402C31.3592 13.5402 31.1889 13.3699 31.1889 13.1598C31.1889 12.9496 31.3592 12.7793 31.5694 12.7793C31.7795 12.7793 31.9498 12.9496 31.9498 13.1598Z" fill="white"/>
<path d="M30.8755 12.3988C30.8755 12.6089 30.7052 12.7793 30.4951 12.7793C30.2849 12.7793 30.1146 12.6089 30.1146 12.3988C30.1146 12.1887 30.2849 12.0183 30.4951 12.0183C30.7052 12.0183 30.8755 12.1887 30.8755 12.3988Z" fill="white"/>
<path d="M29.7565 11.8617C29.7565 12.0718 29.5861 12.2421 29.376 12.2421C29.1659 12.2421 28.9955 12.0718 28.9955 11.8617C28.9955 11.6515 29.1659 11.4812 29.376 11.4812C29.5861 11.4812 29.7565 11.6515 29.7565 11.8617Z" fill="white"/>
<path d="M28.5031 11.3693C28.5031 11.5794 28.3328 11.7498 28.1227 11.7498C27.9125 11.7498 27.7422 11.5794 27.7422 11.3693C27.7422 11.1591 27.9125 10.9888 28.1227 10.9888C28.3328 10.9888 28.5031 11.1591 28.5031 11.3693Z" fill="white"/>
<path d="M27.2946 11.1007C27.2946 11.3108 27.1242 11.4812 26.9141 11.4812C26.704 11.4812 26.5336 11.3108 26.5336 11.1007C26.5336 10.8906 26.704 10.7202 26.9141 10.7202C27.1242 10.7202 27.2946 10.8906 27.2946 11.1007Z" fill="white"/>
<path d="M25.9517 10.9664C25.9517 11.1765 25.7814 11.3469 25.5712 11.3469C25.3611 11.3469 25.1907 11.1765 25.1907 10.9664C25.1907 10.7563 25.3611 10.5859 25.5712 10.5859C25.7814 10.5859 25.9517 10.7563 25.9517 10.9664Z" fill="white"/>
<path d="M24.7431 10.9664C24.7431 11.1765 24.5728 11.3469 24.3626 11.3469C24.1525 11.3469 23.9822 11.1765 23.9822 10.9664C23.9822 10.7563 24.1525 10.5859 24.3626 10.5859C24.5728 10.5859 24.7431 10.7563 24.7431 10.9664Z" fill="white"/>
<path d="M23.4003 11.1007C23.4003 11.3108 23.2299 11.4812 23.0198 11.4812C22.8096 11.4812 22.6393 11.3108 22.6393 11.1007C22.6393 10.8906 22.8096 10.7202 23.0198 10.7202C23.2299 10.7202 23.4003 10.8906 23.4003 11.1007Z" fill="white"/>
<path d="M22.1469 11.3693C22.1469 11.5794 21.9766 11.7498 21.7664 11.7498C21.5563 11.7498 21.386 11.5794 21.386 11.3693C21.386 11.1591 21.5563 10.9888 21.7664 10.9888C21.9766 10.9888 22.1469 11.1591 22.1469 11.3693Z" fill="white"/>
<path d="M20.9831 11.8617C20.9831 12.0718 20.8128 12.2421 20.6026 12.2421C20.3925 12.2421 20.2221 12.0718 20.2221 11.8617C20.2221 11.6515 20.3925 11.4812 20.6026 11.4812C20.8128 11.4812 20.9831 11.6515 20.9831 11.8617Z" fill="white"/>
<path d="M19.7745 12.4436C19.7745 12.6537 19.6042 12.824 19.394 12.824C19.1839 12.824 19.0136 12.6537 19.0136 12.4436C19.0136 12.2334 19.1839 12.0631 19.394 12.0631C19.6042 12.0631 19.7745 12.2334 19.7745 12.4436Z" fill="white"/>
<path d="M18.7002 13.115C18.7002 13.3251 18.5299 13.4955 18.3197 13.4955C18.1096 13.4955 17.9393 13.3251 17.9393 13.115C17.9393 12.9049 18.1096 12.7345 18.3197 12.7345C18.5299 12.7345 18.7002 12.9049 18.7002 13.115Z" fill="white"/>
<path d="M17.7155 13.9655C17.7155 14.1756 17.5451 14.346 17.335 14.346C17.1248 14.346 16.9545 14.1756 16.9545 13.9655C16.9545 13.7554 17.1248 13.585 17.335 13.585C17.5451 13.585 17.7155 13.7554 17.7155 13.9655Z" fill="white"/>
<path d="M16.865 14.9055C16.865 15.1156 16.6946 15.286 16.4845 15.286C16.2744 15.286 16.104 15.1156 16.104 14.9055C16.104 14.6954 16.2744 14.525 16.4845 14.525C16.6946 14.525 16.865 14.6954 16.865 14.9055Z" fill="white"/>
<path d="M16.104 15.935C16.104 16.1452 15.9337 16.3155 15.7235 16.3155C15.5134 16.3155 15.3431 16.1452 15.3431 15.935C15.3431 15.7249 15.5134 15.5545 15.7235 15.5545C15.9337 15.5545 16.104 15.7249 16.104 15.935Z" fill="white"/>
<path d="M15.4326 17.0541C15.4326 17.2642 15.2622 17.4346 15.0521 17.4346C14.842 17.4346 14.6716 17.2642 14.6716 17.0541C14.6716 16.8439 14.842 16.6736 15.0521 16.6736C15.2622 16.6736 15.4326 16.8439 15.4326 17.0541Z" fill="white"/>
<path d="M14.8954 18.2179C14.8954 18.428 14.7251 18.5984 14.515 18.5984C14.3048 18.5984 14.1345 18.428 14.1345 18.2179C14.1345 18.0078 14.3048 17.8374 14.515 17.8374C14.7251 17.8374 14.8954 18.0078 14.8954 18.2179Z" fill="white"/>
<path d="M14.5373 19.4265C14.5373 19.6366 14.367 19.8069 14.1569 19.8069C13.9467 19.8069 13.7764 19.6366 13.7764 19.4265C13.7764 19.2163 13.9467 19.046 14.1569 19.046C14.367 19.046 14.5373 19.2163 14.5373 19.4265Z" fill="white"/>
<path d="M14.3583 20.7693C14.3583 20.9795 14.1879 21.1498 13.9778 21.1498C13.7677 21.1498 13.5973 20.9795 13.5973 20.7693C13.5973 20.5592 13.7677 20.3889 13.9778 20.3889C14.1879 20.3889 14.3583 20.5592 14.3583 20.7693Z" fill="white"/>
<path d="M14.2688 22.0674C14.2688 22.2776 14.0984 22.4479 13.8883 22.4479C13.6782 22.4479 13.5078 22.2776 13.5078 22.0674C13.5078 21.8573 13.6782 21.687 13.8883 21.687C14.0984 21.687 14.2688 21.8573 14.2688 22.0674Z" fill="white"/>
<path d="M14.3583 23.276C14.3583 23.4861 14.1879 23.6565 13.9778 23.6565C13.7677 23.6565 13.5973 23.4861 13.5973 23.276C13.5973 23.0659 13.7677 22.8955 13.9778 22.8955C14.1879 22.8955 14.3583 23.0659 14.3583 23.276Z" fill="white"/>
<path d="M14.5373 24.5741C14.5373 24.7843 14.367 24.9546 14.1569 24.9546C13.9467 24.9546 13.7764 24.7843 13.7764 24.5741C13.7764 24.364 13.9467 24.1936 14.1569 24.1936C14.367 24.1936 14.5373 24.364 14.5373 24.5741Z" fill="white"/>
<path d="M14.9402 25.7827C14.9402 25.9928 14.7699 26.1632 14.5597 26.1632C14.3496 26.1632 14.1792 25.9928 14.1792 25.7827C14.1792 25.5726 14.3496 25.4022 14.5597 25.4022C14.7699 25.4022 14.9402 25.5726 14.9402 25.7827Z" fill="white"/>
<path d="M15.4326 26.9465C15.4326 27.1566 15.2622 27.327 15.0521 27.327C14.842 27.327 14.6716 27.1566 14.6716 26.9465C14.6716 26.7364 14.842 26.566 15.0521 26.566C15.2622 26.566 15.4326 26.7364 15.4326 26.9465Z" fill="white"/>
<path d="M16.104 28.0656C16.104 28.2757 15.9337 28.4461 15.7235 28.4461C15.5134 28.4461 15.3431 28.2757 15.3431 28.0656C15.3431 27.8554 15.5134 27.6851 15.7235 27.6851C15.9337 27.6851 16.104 27.8554 16.104 28.0656Z" fill="white"/>
<path d="M16.865 29.0951C16.865 29.3052 16.6946 29.4756 16.4845 29.4756C16.2744 29.4756 16.104 29.3052 16.104 29.0951C16.104 28.885 16.2744 28.7146 16.4845 28.7146C16.6946 28.7146 16.865 28.885 16.865 29.0951Z" fill="white"/>
<path d="M17.7602 30.0799C17.7602 30.29 17.5899 30.4603 17.3797 30.4603C17.1696 30.4603 16.9993 30.29 16.9993 30.0799C16.9993 29.8697 17.1696 29.6994 17.3797 29.6994C17.5899 29.6994 17.7602 29.8697 17.7602 30.0799Z" fill="white"/>
<path d="M18.7002 30.8408C18.7002 31.051 18.5299 31.2213 18.3197 31.2213C18.1096 31.2213 17.9393 31.051 17.9393 30.8408C17.9393 30.6307 18.1096 30.4603 18.3197 30.4603C18.5299 30.4603 18.7002 30.6307 18.7002 30.8408Z" fill="white"/>
<path d="M19.7745 31.6018C19.7745 31.8119 19.6042 31.9823 19.394 31.9823C19.1839 31.9823 19.0136 31.8119 19.0136 31.6018C19.0136 31.3917 19.1839 31.2213 19.394 31.2213C19.6042 31.2213 19.7745 31.3917 19.7745 31.6018Z" fill="white"/>
<path d="M20.9831 32.1389C20.9831 32.3491 20.8128 32.5194 20.6026 32.5194C20.3925 32.5194 20.2221 32.3491 20.2221 32.1389C20.2221 31.9288 20.3925 31.7585 20.6026 31.7585C20.8128 31.7585 20.9831 31.9288 20.9831 32.1389Z" fill="white"/>
<path d="M19.9088 20.8589C19.9088 20.9701 19.8186 21.0603 19.7074 21.0603C19.5961 21.0603 19.5059 20.9701 19.5059 20.8589C19.5059 20.7476 19.5961 20.6574 19.7074 20.6574C19.8186 20.6574 19.9088 20.7476 19.9088 20.8589Z" fill="white"/>
<path d="M20.1774 20.2322C20.1774 20.3434 20.0872 20.4336 19.9759 20.4336C19.8647 20.4336 19.7745 20.3434 19.7745 20.2322C19.7745 20.1209 19.8647 20.0308 19.9759 20.0308C20.0872 20.0308 20.1774 20.1209 20.1774 20.2322Z" fill="white"/>
<path d="M20.5802 19.6503C20.5802 19.7615 20.4901 19.8517 20.3788 19.8517C20.2676 19.8517 20.1774 19.7615 20.1774 19.6503C20.1774 19.539 20.2676 19.4489 20.3788 19.4489C20.4901 19.4489 20.5802 19.539 20.5802 19.6503Z" fill="white"/>
<path d="M20.9831 19.1131C20.9831 19.2244 20.8929 19.3146 20.7817 19.3146C20.6704 19.3146 20.5802 19.2244 20.5802 19.1131C20.5802 19.0019 20.6704 18.9117 20.7817 18.9117C20.8929 18.9117 20.9831 19.0019 20.9831 19.1131Z" fill="white"/>
<path d="M21.4755 18.6655C21.4755 18.7768 21.3853 18.8669 21.2741 18.8669C21.1628 18.8669 21.0726 18.7768 21.0726 18.6655C21.0726 18.5543 21.1628 18.4641 21.2741 18.4641C21.3853 18.4641 21.4755 18.5543 21.4755 18.6655Z" fill="white"/>
<path d="M22.0126 18.2627C22.0126 18.3739 21.9224 18.4641 21.8112 18.4641C21.7 18.4641 21.6098 18.3739 21.6098 18.2627C21.6098 18.1514 21.7 18.0612 21.8112 18.0612C21.9224 18.0612 22.0126 18.1514 22.0126 18.2627Z" fill="white"/>
<path d="M22.6393 17.9046C22.6393 18.0158 22.5491 18.106 22.4379 18.106C22.3266 18.106 22.2364 18.0158 22.2364 17.9046C22.2364 17.7933 22.3266 17.7031 22.4379 17.7031C22.5491 17.7031 22.6393 17.7933 22.6393 17.9046Z" fill="white"/>
<path d="M23.266 17.6807C23.266 17.792 23.1758 17.8822 23.0645 17.8822C22.9533 17.8822 22.8631 17.792 22.8631 17.6807C22.8631 17.5695 22.9533 17.4793 23.0645 17.4793C23.1758 17.4793 23.266 17.5695 23.266 17.6807Z" fill="white"/>
<path d="M23.8926 17.5017C23.8926 17.6129 23.8025 17.7031 23.6912 17.7031C23.58 17.7031 23.4898 17.6129 23.4898 17.5017C23.4898 17.3904 23.58 17.3003 23.6912 17.3003C23.8025 17.3003 23.8926 17.3904 23.8926 17.5017Z" fill="white"/>
<path d="M24.6088 17.4122C24.6088 17.5234 24.5187 17.6136 24.4074 17.6136C24.2962 17.6136 24.206 17.5234 24.206 17.4122C24.206 17.3009 24.2962 17.2107 24.4074 17.2107C24.5187 17.2107 24.6088 17.3009 24.6088 17.4122Z" fill="white"/>
<path d="M25.2803 17.3674C25.2803 17.4787 25.1901 17.5688 25.0788 17.5688C24.9676 17.5688 24.8774 17.4787 24.8774 17.3674C24.8774 17.2562 24.9676 17.166 25.0788 17.166C25.1901 17.166 25.2803 17.2562 25.2803 17.3674Z" fill="white"/>
<path d="M25.9517 17.4569C25.9517 17.5682 25.8615 17.6584 25.7503 17.6584C25.639 17.6584 25.5488 17.5682 25.5488 17.4569C25.5488 17.3457 25.639 17.2555 25.7503 17.2555C25.8615 17.2555 25.9517 17.3457 25.9517 17.4569Z" fill="white"/>
<path d="M26.6231 17.5912C26.6231 17.7025 26.533 17.7926 26.4217 17.7926C26.3105 17.7926 26.2203 17.7025 26.2203 17.5912C26.2203 17.48 26.3105 17.3898 26.4217 17.3898C26.533 17.3898 26.6231 17.48 26.6231 17.5912Z" fill="white"/>
<path d="M27.2946 17.815C27.2946 17.9263 27.2044 18.0165 27.0931 18.0165C26.9819 18.0165 26.8917 17.9263 26.8917 17.815C26.8917 17.7038 26.9819 17.6136 27.0931 17.6136C27.2044 17.6136 27.2946 17.7038 27.2946 17.815Z" fill="white"/>
<path d="M27.9212 18.1731C27.9212 18.2844 27.8311 18.3746 27.7198 18.3746C27.6086 18.3746 27.5184 18.2844 27.5184 18.1731C27.5184 18.0619 27.6086 17.9717 27.7198 17.9717C27.8311 17.9717 27.9212 18.0619 27.9212 18.1731Z" fill="white"/>
<path d="M28.5031 18.5312C28.5031 18.6425 28.413 18.7327 28.3017 18.7327C28.1905 18.7327 28.1003 18.6425 28.1003 18.5312C28.1003 18.42 28.1905 18.3298 28.3017 18.3298C28.413 18.3298 28.5031 18.42 28.5031 18.5312Z" fill="white"/>
<path d="M29.0851 18.9788C29.0851 19.0901 28.9949 19.1803 28.8836 19.1803C28.7724 19.1803 28.6822 19.0901 28.6822 18.9788C28.6822 18.8676 28.7724 18.7774 28.8836 18.7774C28.9949 18.7774 29.0851 18.8676 29.0851 18.9788Z" fill="white"/>
<path d="M29.5774 19.4712C29.5774 19.5825 29.4873 19.6727 29.376 19.6727C29.2648 19.6727 29.1746 19.5825 29.1746 19.4712C29.1746 19.36 29.2648 19.2698 29.376 19.2698C29.4873 19.2698 29.5774 19.36 29.5774 19.4712Z" fill="white"/>
<path d="M30.0251 20.0531C30.0251 20.1644 29.9349 20.2546 29.8236 20.2546C29.7124 20.2546 29.6222 20.1644 29.6222 20.0531C29.6222 19.9419 29.7124 19.8517 29.8236 19.8517C29.9349 19.8517 30.0251 19.9419 30.0251 20.0531Z" fill="white"/>
<path d="M30.4279 20.6798C30.4279 20.7911 30.3377 20.8812 30.2265 20.8812C30.1152 20.8812 30.0251 20.7911 30.0251 20.6798C30.0251 20.5686 30.1152 20.4784 30.2265 20.4784C30.3377 20.4784 30.4279 20.5686 30.4279 20.6798Z" fill="white"/>
<path d="M30.7413 21.3065C30.7413 21.4177 30.6511 21.5079 30.5398 21.5079C30.4286 21.5079 30.3384 21.4177 30.3384 21.3065C30.3384 21.1952 30.4286 21.1051 30.5398 21.1051C30.6511 21.1051 30.7413 21.1952 30.7413 21.3065Z" fill="white"/>
<path d="M30.9651 21.9779C30.9651 22.0892 30.8749 22.1793 30.7636 22.1793C30.6524 22.1793 30.5622 22.0892 30.5622 21.9779C30.5622 21.8667 30.6524 21.7765 30.7636 21.7765C30.8749 21.7765 30.9651 21.8667 30.9651 21.9779Z" fill="white"/>
<path d="M31.1441 22.6941C31.1441 22.8054 31.0539 22.8955 30.9427 22.8955C30.8314 22.8955 30.7413 22.8054 30.7413 22.6941C30.7413 22.5829 30.8314 22.4927 30.9427 22.4927C31.0539 22.4927 31.1441 22.5829 31.1441 22.6941Z" fill="white"/>
<path d="M31.2336 23.4103C31.2336 23.5216 31.1435 23.6117 31.0322 23.6117C30.921 23.6117 30.8308 23.5216 30.8308 23.4103C30.8308 23.2991 30.921 23.2089 31.0322 23.2089C31.1435 23.2089 31.2336 23.2991 31.2336 23.4103Z" fill="white"/>
<path d="M31.2336 24.1265C31.2336 24.2377 31.1435 24.3279 31.0322 24.3279C30.921 24.3279 30.8308 24.2377 30.8308 24.1265C30.8308 24.0153 30.921 23.9251 31.0322 23.9251C31.1435 23.9251 31.2336 24.0153 31.2336 24.1265Z" fill="white"/>
<path d="M31.1889 24.8427C31.1889 24.9539 31.0987 25.0441 30.9874 25.0441C30.8762 25.0441 30.786 24.9539 30.786 24.8427C30.786 24.7314 30.8762 24.6413 30.9874 24.6413C31.0987 24.6413 31.1889 24.7314 31.1889 24.8427Z" fill="white"/>
<path d="M31.0098 25.5141C31.0098 25.6254 30.9196 25.7156 30.8084 25.7156C30.6972 25.7156 30.607 25.6254 30.607 25.5141C30.607 25.4029 30.6972 25.3127 30.8084 25.3127C30.9196 25.3127 31.0098 25.4029 31.0098 25.5141Z" fill="white"/>
<path d="M30.786 26.1856C30.786 26.2968 30.6958 26.387 30.5846 26.387C30.4733 26.387 30.3832 26.2968 30.3832 26.1856C30.3832 26.0743 30.4733 25.9841 30.5846 25.9841C30.6958 25.9841 30.786 26.0743 30.786 26.1856Z" fill="white"/>
<path d="M30.4727 26.8122C30.4727 26.9235 30.3825 27.0137 30.2713 27.0137C30.16 27.0137 30.0698 26.9235 30.0698 26.8122C30.0698 26.701 30.16 26.6108 30.2713 26.6108C30.3825 26.6108 30.4727 26.701 30.4727 26.8122Z" fill="white"/>
<path d="M30.1146 27.3941C30.1146 27.5054 30.0244 27.5956 29.9132 27.5956C29.8019 27.5956 29.7117 27.5054 29.7117 27.3941C29.7117 27.2829 29.8019 27.1927 29.9132 27.1927C30.0244 27.1927 30.1146 27.2829 30.1146 27.3941Z" fill="white"/>
<path d="M29.7117 27.9313C29.7117 28.0425 29.6215 28.1327 29.5103 28.1327C29.399 28.1327 29.3089 28.0425 29.3089 27.9313C29.3089 27.82 29.399 27.7299 29.5103 27.7299C29.6215 27.7299 29.7117 27.82 29.7117 27.9313Z" fill="white"/>
<path d="M29.2193 28.3789C29.2193 28.4902 29.1292 28.5803 29.0179 28.5803C28.9067 28.5803 28.8165 28.4902 28.8165 28.3789C28.8165 28.2677 28.9067 28.1775 29.0179 28.1775C29.1292 28.1775 29.2193 28.2677 29.2193 28.3789Z" fill="white"/>
<path d="M28.6822 28.7818C28.6822 28.893 28.592 28.9832 28.4808 28.9832C28.3695 28.9832 28.2793 28.893 28.2793 28.7818C28.2793 28.6705 28.3695 28.5803 28.4808 28.5803C28.592 28.5803 28.6822 28.6705 28.6822 28.7818Z" fill="white"/>
<path d="M28.0555 29.1399C28.0555 29.2511 27.9653 29.3413 27.8541 29.3413C27.7428 29.3413 27.6527 29.2511 27.6527 29.1399C27.6527 29.0286 27.7428 28.9384 27.8541 28.9384C27.9653 28.9384 28.0555 29.0286 28.0555 29.1399Z" fill="white"/>
<path d="M27.4289 29.3637C27.4289 29.4749 27.3387 29.5651 27.2274 29.5651C27.1162 29.5651 27.026 29.4749 27.026 29.3637C27.026 29.2524 27.1162 29.1622 27.2274 29.1622C27.3387 29.1622 27.4289 29.2524 27.4289 29.3637Z" fill="white"/>
<path d="M26.8022 29.5427C26.8022 29.654 26.712 29.7442 26.6008 29.7442C26.4895 29.7442 26.3993 29.654 26.3993 29.5427C26.3993 29.4315 26.4895 29.3413 26.6008 29.3413C26.712 29.3413 26.8022 29.4315 26.8022 29.5427Z" fill="white"/>
<path d="M25.4146 29.677C25.4146 29.7883 25.3244 29.8784 25.2131 29.8784C25.1019 29.8784 25.0117 29.7883 25.0117 29.677C25.0117 29.5658 25.1019 29.4756 25.2131 29.4756C25.3244 29.4756 25.4146 29.5658 25.4146 29.677Z" fill="white"/>
<path d="M24.7431 29.5875C24.7431 29.6987 24.6529 29.7889 24.5417 29.7889C24.4304 29.7889 24.3403 29.6987 24.3403 29.5875C24.3403 29.4762 24.4304 29.3861 24.5417 29.3861C24.6529 29.3861 24.7431 29.4762 24.7431 29.5875Z" fill="white"/>
<path d="M24.0717 29.4532C24.0717 29.5644 23.9815 29.6546 23.8703 29.6546C23.759 29.6546 23.6688 29.5644 23.6688 29.4532C23.6688 29.342 23.759 29.2518 23.8703 29.2518C23.9815 29.2518 24.0717 29.342 24.0717 29.4532Z" fill="white"/>
<path d="M23.4003 29.1846C23.4003 29.2959 23.3101 29.3861 23.1988 29.3861C23.0876 29.3861 22.9974 29.2959 22.9974 29.1846C22.9974 29.0734 23.0876 28.9832 23.1988 28.9832C23.3101 28.9832 23.4003 29.0734 23.4003 29.1846Z" fill="white"/>
<path d="M22.7736 28.8713C22.7736 28.9825 22.6834 29.0727 22.5722 29.0727C22.4609 29.0727 22.3707 28.9825 22.3707 28.8713C22.3707 28.76 22.4609 28.6699 22.5722 28.6699C22.6834 28.6699 22.7736 28.76 22.7736 28.8713Z" fill="white"/>
<path d="M22.1469 28.5132C22.1469 28.6244 22.0567 28.7146 21.9455 28.7146C21.8342 28.7146 21.7441 28.6244 21.7441 28.5132C21.7441 28.4019 21.8342 28.3118 21.9455 28.3118C22.0567 28.3118 22.1469 28.4019 22.1469 28.5132Z" fill="white"/>
<path d="M21.6098 28.0656C21.6098 28.1768 21.5196 28.267 21.4083 28.267C21.2971 28.267 21.2069 28.1768 21.2069 28.0656C21.2069 27.9543 21.2971 27.8641 21.4083 27.8641C21.5196 27.8641 21.6098 27.9543 21.6098 28.0656Z" fill="white"/>
<path d="M21.1174 27.5284C21.1174 27.6397 21.0272 27.7299 20.916 27.7299C20.8047 27.7299 20.7145 27.6397 20.7145 27.5284C20.7145 27.4172 20.8047 27.327 20.916 27.327C21.0272 27.327 21.1174 27.4172 21.1174 27.5284Z" fill="white"/>
<path d="M20.6698 26.9913C20.6698 27.1025 20.5796 27.1927 20.4683 27.1927C20.3571 27.1927 20.2669 27.1025 20.2669 26.9913C20.2669 26.88 20.3571 26.7898 20.4683 26.7898C20.5796 26.7898 20.6698 26.88 20.6698 26.9913Z" fill="white"/>
<path d="M20.2669 26.3646C20.2669 26.4759 20.1767 26.566 20.0655 26.566C19.9542 26.566 19.864 26.4759 19.864 26.3646C19.864 26.2534 19.9542 26.1632 20.0655 26.1632C20.1767 26.1632 20.2669 26.2534 20.2669 26.3646Z" fill="white"/>
<path d="M19.9536 25.6932C19.9536 25.8044 19.8634 25.8946 19.7521 25.8946C19.6409 25.8946 19.5507 25.8044 19.5507 25.6932C19.5507 25.5819 19.6409 25.4917 19.7521 25.4917C19.8634 25.4917 19.9536 25.5819 19.9536 25.6932Z" fill="white"/>
<path d="M19.7298 25.0217C19.7298 25.133 19.6396 25.2232 19.5283 25.2232C19.4171 25.2232 19.3269 25.133 19.3269 25.0217C19.3269 24.9105 19.4171 24.8203 19.5283 24.8203C19.6396 24.8203 19.7298 24.9105 19.7298 25.0217Z" fill="white"/>
<path d="M19.5507 24.3055C19.5507 24.4168 19.4605 24.507 19.3493 24.507C19.238 24.507 19.1478 24.4168 19.1478 24.3055C19.1478 24.1943 19.238 24.1041 19.3493 24.1041C19.4605 24.1041 19.5507 24.1943 19.5507 24.3055Z" fill="white"/>
<path d="M19.4612 23.6341C19.4612 23.7454 19.371 23.8355 19.2598 23.8355C19.1485 23.8355 19.0583 23.7454 19.0583 23.6341C19.0583 23.5229 19.1485 23.4327 19.2598 23.4327C19.371 23.4327 19.4612 23.5229 19.4612 23.6341Z" fill="white"/>
<path d="M19.4612 22.9179C19.4612 23.0292 19.371 23.1194 19.2598 23.1194C19.1485 23.1194 19.0583 23.0292 19.0583 22.9179C19.0583 22.8067 19.1485 22.7165 19.2598 22.7165C19.371 22.7165 19.4612 22.8067 19.4612 22.9179Z" fill="white"/>
<path d="M19.5059 22.2017C19.5059 22.313 19.4158 22.4032 19.3045 22.4032C19.1933 22.4032 19.1031 22.313 19.1031 22.2017C19.1031 22.0905 19.1933 22.0003 19.3045 22.0003C19.4158 22.0003 19.5059 22.0905 19.5059 22.2017Z" fill="white"/>
<path d="M19.685 21.4855C19.685 21.5968 19.5948 21.687 19.4836 21.687C19.3723 21.687 19.2821 21.5968 19.2821 21.4855C19.2821 21.3743 19.3723 21.2841 19.4836 21.2841C19.5948 21.2841 19.685 21.3743 19.685 21.4855Z" fill="white"/>
<path d="M26.1307 29.6322C26.1307 29.7435 26.0406 29.8337 25.9293 29.8337C25.8181 29.8337 25.7279 29.7435 25.7279 29.6322C25.7279 29.521 25.8181 29.4308 25.9293 29.4308C26.0406 29.4308 26.1307 29.521 26.1307 29.6322Z" fill="white"/>
<path d="M59.7736 26.8705C59.2534 27.2668 58.649 27.5839 57.9604 27.8217C57.2717 28.0594 56.5385 28.1783 55.7607 28.1783C54.22 28.1783 52.9839 27.6879 52.0525 26.707C51.1212 25.726 50.6555 24.4281 50.6555 22.813C50.6555 21.1286 51.1187 19.7662 52.0451 18.7258C52.9765 17.6855 54.2175 17.1653 55.7682 17.1653C56.7045 17.1653 57.5095 17.356 58.1833 17.7375C58.8571 18.119 59.3698 18.654 59.7216 19.3426L58.6217 19.8479C58.3493 19.3525 57.9703 18.976 57.4848 18.7184C56.9993 18.4558 56.4271 18.3245 55.7682 18.3245C54.6237 18.3245 53.7023 18.7308 53.0037 19.5433C52.3102 20.3508 51.9634 21.4085 51.9634 22.7164C51.9634 24.059 52.3126 25.1142 53.0112 25.8821C53.7147 26.645 54.646 27.0265 55.8053 27.0265C56.3156 27.0265 56.806 26.9596 57.2767 26.8259C57.7473 26.6921 58.1635 26.4939 58.5251 26.2314V23.6304H55.9762V22.5009H59.7736V26.8705ZM65.1984 28.1783C64.0143 28.1783 63.0879 27.8266 62.4191 27.1231C61.7503 26.4147 61.4159 25.4684 61.4159 24.2844C61.4159 23.0607 61.7874 22.0773 62.5306 21.3342C63.2737 20.5861 64.2026 20.2121 65.3173 20.2121C66.4567 20.2121 67.3584 20.5762 68.0222 21.3045C68.691 22.0278 69.0255 22.9814 69.0255 24.1655C69.0255 25.3099 68.6811 26.266 67.9925 27.0339C67.3088 27.7969 66.3775 28.1783 65.1984 28.1783ZM65.2653 27.1231C66.0331 27.1231 66.6425 26.868 67.0933 26.3577C67.5491 25.8425 67.777 25.1266 67.777 24.2101C67.777 23.3381 67.5491 22.6322 67.0933 22.0922C66.6425 21.5472 66.0331 21.2747 65.2653 21.2747C64.4974 21.2747 63.8707 21.5497 63.3852 22.0996C62.9046 22.6446 62.6643 23.358 62.6643 24.2398C62.6643 25.1662 62.9046 25.8796 63.3852 26.38C63.8707 26.8754 64.4974 27.1231 65.2653 27.1231ZM82.5651 28H81.3167V23.14H75.8027V28H74.5543V17.3436H75.8027V22.0179H81.3167V17.3436H82.5651V28ZM88.3095 28.1783C87.1254 28.1783 86.199 27.8266 85.5302 27.1231C84.8614 26.4147 84.527 25.4684 84.527 24.2844C84.527 23.0607 84.8985 22.0773 85.6417 21.3342C86.3848 20.5861 87.3137 20.2121 88.4284 20.2121C89.5678 20.2121 90.4695 20.5762 91.1333 21.3045C91.8021 22.0278 92.1366 22.9814 92.1366 24.1655C92.1366 25.3099 91.7922 26.266 91.1036 27.0339C90.4199 27.7969 89.4886 28.1783 88.3095 28.1783ZM88.3764 27.1231C89.1442 27.1231 89.7536 26.868 90.2044 26.3577C90.6602 25.8425 90.8881 25.1266 90.8881 24.2101C90.8881 23.3381 90.6602 22.6322 90.2044 22.0922C89.7536 21.5472 89.1442 21.2747 88.3764 21.2747C87.6085 21.2747 86.9818 21.5497 86.4963 22.0996C86.0157 22.6446 85.7754 23.358 85.7754 24.2398C85.7754 25.1662 86.0157 25.8796 86.4963 26.38C86.9818 26.8754 87.6085 27.1231 88.3764 27.1231ZM104.74 28H103.521V23.6304C103.521 22.7981 103.39 22.1962 103.127 21.8247C102.87 21.4531 102.434 21.2673 101.819 21.2673C101.299 21.2673 100.856 21.5026 100.489 21.9733C100.128 22.4439 99.9468 23.0062 99.9468 23.6602V28H98.728V23.4818C98.728 22.7436 98.5844 22.1913 98.297 21.8247C98.0097 21.4531 97.5762 21.2673 96.9966 21.2673C96.4615 21.2673 96.0206 21.4902 95.6738 21.9361C95.327 22.377 95.1536 22.9517 95.1536 23.6602V28H93.9349V20.3904H95.1536V21.4754H95.1834C95.4558 21.0543 95.7878 20.7397 96.1791 20.5316C96.5755 20.3186 97.0313 20.2121 97.5465 20.2121C98.0568 20.2121 98.5002 20.3458 98.8767 20.6134C99.2581 20.8809 99.5182 21.2326 99.657 21.6686C99.9443 21.1831 100.301 20.819 100.727 20.5762C101.158 20.3335 101.658 20.2121 102.228 20.2121C103.065 20.2121 103.692 20.4697 104.108 20.9849C104.529 21.5002 104.74 22.2755 104.74 23.3109V28ZM113.13 24.4107H107.638C107.638 25.352 107.861 26.0406 108.307 26.4766C108.758 26.9076 109.293 27.1231 109.912 27.1231C110.378 27.1231 110.786 27.0166 111.138 26.8036C111.495 26.5856 111.79 26.2636 112.023 25.8375L113.018 26.3428C112.751 26.8878 112.347 27.3312 111.807 27.673C111.272 28.0099 110.613 28.1783 109.83 28.1783C108.82 28.1783 107.99 27.8439 107.341 27.1751C106.697 26.5063 106.375 25.5229 106.375 24.2249C106.375 23.0706 106.702 22.1145 107.356 21.3565C108.01 20.5935 108.847 20.2121 109.867 20.2121C110.903 20.2121 111.705 20.5267 112.275 21.1558C112.845 21.7801 113.13 22.652 113.13 23.7716V24.4107ZM111.881 23.3926C111.881 22.7337 111.7 22.216 111.339 21.8395C110.977 21.458 110.479 21.2673 109.845 21.2673C109.231 21.2673 108.728 21.4704 108.337 21.8767C107.95 22.2829 107.72 22.7882 107.646 23.3926H111.881Z" fill="white"/>
</svg>
