<svg width="27" height="26" viewBox="0 0 27 26" fill="none" xmlns="http://www.w3.org/2000/svg">
<rect x="0.984375" y="0.0625" width="25.8725" height="25.8725" rx="12.9363" fill="#5C3C6E"/>
<path d="M20.4345 18.8336C20.4095 18.9953 20.2742 19.1086 20.1323 19.0866C19.9905 19.0647 19.8958 18.9158 19.9208 18.7541C19.9458 18.5924 20.0811 18.4791 20.223 18.501C20.3648 18.523 20.4595 18.6719 20.4345 18.8336Z" fill="white"/>
<path d="M20.9717 17.8936C20.9466 18.0553 20.8113 18.1686 20.6695 18.1466C20.5276 18.1247 20.4329 17.9758 20.458 17.8141C20.483 17.6524 20.6183 17.5391 20.7601 17.561C20.902 17.583 20.9967 17.7319 20.9717 17.8936Z" fill="white"/>
<path d="M21.4193 16.9536C21.3942 17.1153 21.259 17.2286 21.1171 17.2066C20.9753 17.1847 20.8806 17.0358 20.9056 16.8741C20.9306 16.7124 21.0659 16.5991 21.2078 16.621C21.3496 16.643 21.4443 16.7919 21.4193 16.9536Z" fill="white"/>
<path d="M21.7326 15.924C21.7076 16.0858 21.5723 16.1991 21.4304 16.1771C21.2886 16.1551 21.1939 16.0062 21.2189 15.8445C21.244 15.6828 21.3792 15.5695 21.5211 15.5915C21.6629 15.6135 21.7576 15.7623 21.7326 15.924Z" fill="white"/>
<path d="M21.9564 14.8945C21.9314 15.0562 21.7961 15.1695 21.6543 15.1476C21.5124 15.1256 21.4177 14.9767 21.4427 14.815C21.4678 14.6533 21.603 14.54 21.7449 14.562C21.8867 14.5839 21.9815 14.7328 21.9564 14.8945Z" fill="white"/>
<path d="M22.0459 13.865C22.0209 14.0267 21.8856 14.14 21.7438 14.118C21.6019 14.0961 21.5072 13.9472 21.5323 13.7855C21.5573 13.6238 21.6926 13.5105 21.8344 13.5324C21.9763 13.5544 22.071 13.7033 22.0459 13.865Z" fill="white"/>
<path d="M22.0907 12.7907C22.0657 12.9524 21.9304 13.0657 21.7885 13.0437C21.6467 13.0218 21.552 12.8729 21.577 12.7112C21.602 12.5495 21.7373 12.4362 21.8792 12.4581C22.021 12.4801 22.1157 12.629 22.0907 12.7907Z" fill="white"/>
<path d="M22.0012 11.7612C21.9762 11.9229 21.8409 12.0362 21.699 12.0142C21.5572 11.9923 21.4625 11.8434 21.4875 11.6817C21.5125 11.5199 21.6478 11.4067 21.7897 11.4286C21.9315 11.4506 22.0262 11.5995 22.0012 11.7612Z" fill="white"/>
<path d="M21.7774 10.7764C21.7523 10.9381 21.6171 11.0514 21.4752 11.0294C21.3334 11.0075 21.2387 10.8586 21.2637 10.6969C21.2887 10.5352 21.424 10.4219 21.5658 10.4438C21.7077 10.4658 21.8024 10.6147 21.7774 10.7764Z" fill="white"/>
<path d="M21.464 9.79163C21.439 9.95334 21.3037 10.0666 21.1619 10.0447C21.02 10.0227 20.9253 9.87383 20.9503 9.71212C20.9754 9.55041 21.1107 9.43712 21.2525 9.45907C21.3944 9.48103 21.4891 9.62992 21.464 9.79163Z" fill="white"/>
<path d="M21.0612 8.89639C21.0361 9.05809 20.9009 9.17139 20.759 9.14943C20.6172 9.12747 20.5225 8.97858 20.5475 8.81687C20.5725 8.65517 20.7078 8.54187 20.8497 8.56383C20.9915 8.58579 21.0862 8.73468 21.0612 8.89639Z" fill="white"/>
<path d="M20.5688 8.0459C20.5438 8.20761 20.4085 8.3209 20.2666 8.29895C20.1248 8.27699 20.0301 8.1281 20.0551 7.96639C20.0801 7.80468 20.2154 7.69139 20.3573 7.71335C20.4991 7.73531 20.5938 7.8842 20.5688 8.0459Z" fill="white"/>
<path d="M19.9869 7.28495C19.9619 7.44666 19.8266 7.55995 19.6847 7.53799C19.5429 7.51603 19.4482 7.36714 19.4732 7.20544C19.4982 7.04373 19.6335 6.93044 19.7754 6.95239C19.9172 6.97435 20.0119 7.12324 19.9869 7.28495Z" fill="white"/>
<path d="M19.3155 6.61352C19.2904 6.77522 19.1551 6.88851 19.0133 6.86656C18.8714 6.8446 18.7767 6.69571 18.8018 6.534C18.8268 6.37229 18.9621 6.259 19.1039 6.28096C19.2458 6.30292 19.3405 6.45181 19.3155 6.61352Z" fill="white"/>
<path d="M18.5545 6.03161C18.5295 6.19332 18.3942 6.30661 18.2523 6.28465C18.1105 6.26269 18.0158 6.1138 18.0408 5.95209C18.0658 5.79039 18.2011 5.67709 18.343 5.69905C18.4848 5.72101 18.5795 5.8699 18.5545 6.03161Z" fill="white"/>
<path d="M17.7488 5.53922C17.7237 5.70093 17.5885 5.81422 17.4466 5.79227C17.3048 5.77031 17.2101 5.62142 17.2351 5.45971C17.2601 5.298 17.3954 5.18471 17.5373 5.20667C17.6791 5.22862 17.7738 5.37751 17.7488 5.53922Z" fill="white"/>
<path d="M16.8983 5.18113C16.8733 5.34283 16.738 5.45612 16.5961 5.43417C16.4543 5.41221 16.3596 5.26332 16.3846 5.10161C16.4096 4.9399 16.5449 4.82661 16.6868 4.84857C16.8286 4.87053 16.9233 5.01942 16.8983 5.18113Z" fill="white"/>
<path d="M16.0031 4.95731C15.978 5.11902 15.8427 5.23231 15.7009 5.21036C15.559 5.1884 15.4643 5.03951 15.4894 4.8778C15.5144 4.71609 15.6497 4.6028 15.7915 4.62476C15.9334 4.64672 16.0281 4.79561 16.0031 4.95731Z" fill="white"/>
<path d="M15.063 4.82303C15.038 4.98474 14.9027 5.09803 14.7609 5.07607C14.619 5.05411 14.5243 4.90522 14.5494 4.74352C14.5744 4.58181 14.7097 4.46852 14.8515 4.49047C14.9934 4.51243 15.0881 4.66132 15.063 4.82303Z" fill="white"/>
<path d="M14.123 4.82303C14.098 4.98474 13.9627 5.09803 13.8209 5.07607C13.679 5.05411 13.5843 4.90522 13.6093 4.74352C13.6344 4.58181 13.7697 4.46852 13.9115 4.49047C14.0534 4.51243 14.1481 4.66132 14.123 4.82303Z" fill="white"/>
<path d="M13.2278 4.91255C13.2028 5.07426 13.0675 5.18755 12.9256 5.16559C12.7838 5.14364 12.6891 4.99475 12.7141 4.83304C12.7391 4.67133 12.8744 4.55804 13.0163 4.58C13.1581 4.60195 13.2528 4.75084 13.2278 4.91255Z" fill="white"/>
<path d="M12.2878 5.13636C12.2628 5.29807 12.1275 5.41136 11.9856 5.38941C11.8438 5.36745 11.7491 5.21856 11.7741 5.05685C11.7991 4.89514 11.9344 4.78185 12.0763 4.80381C12.2181 4.82576 12.3128 4.97465 12.2878 5.13636Z" fill="white"/>
<path d="M11.3925 5.49446C11.3675 5.65617 11.2322 5.76946 11.0904 5.7475C10.9485 5.72555 10.8538 5.57666 10.8789 5.41495C10.9039 5.25324 11.0392 5.13995 11.181 5.16191C11.3229 5.18386 11.4176 5.33275 11.3925 5.49446Z" fill="white"/>
<path d="M10.5421 5.94208C10.517 6.10379 10.3817 6.21708 10.2399 6.19512C10.098 6.17317 10.0033 6.02428 10.0284 5.86257C10.0534 5.70086 10.1887 5.58757 10.3305 5.60953C10.4724 5.63148 10.5671 5.78037 10.5421 5.94208Z" fill="white"/>
<path d="M9.69158 6.52399C9.66655 6.6857 9.53127 6.79899 9.38942 6.77703C9.24756 6.75508 9.15286 6.60619 9.17789 6.44448C9.20292 6.28277 9.33821 6.16948 9.48006 6.19144C9.62191 6.21339 9.71661 6.36228 9.69158 6.52399Z" fill="white"/>
<path d="M8.97539 7.19542C8.95036 7.35713 8.81507 7.47042 8.67322 7.44847C8.53137 7.42651 8.43667 7.27762 8.4617 7.11591C8.48673 6.9542 8.62201 6.84091 8.76386 6.86287C8.90571 6.88483 9.00042 7.03372 8.97539 7.19542Z" fill="white"/>
<path d="M8.25919 7.95638C8.23416 8.11809 8.09888 8.23138 7.95703 8.20942C7.81517 8.18747 7.72047 8.03858 7.7455 7.87687C7.77053 7.71516 7.90582 7.60187 8.04767 7.62383C8.18952 7.64578 8.28422 7.79467 8.25919 7.95638Z" fill="white"/>
<path d="M7.63252 8.80686C7.60749 8.96857 7.47221 9.08186 7.33036 9.05991C7.1885 9.03795 7.0938 8.88906 7.11883 8.72735C7.14386 8.56564 7.27915 8.45235 7.421 8.47431C7.56285 8.49626 7.65755 8.64515 7.63252 8.80686Z" fill="white"/>
<path d="M7.14014 9.74687C7.11511 9.90858 6.97982 10.0219 6.83797 9.99991C6.69612 9.97795 6.60142 9.82906 6.62645 9.66736C6.65148 9.50565 6.78676 9.39236 6.92861 9.41431C7.07047 9.43627 7.16517 9.58516 7.14014 9.74687Z" fill="white"/>
<path d="M6.73728 10.6869C6.71225 10.8486 6.57696 10.9619 6.43511 10.9399C6.29326 10.918 6.19856 10.7691 6.22359 10.6074C6.24862 10.4457 6.3839 10.3324 6.52575 10.3543C6.66761 10.3763 6.76231 10.5252 6.73728 10.6869Z" fill="white"/>
<path d="M6.37918 11.6716C6.35415 11.8334 6.21887 11.9466 6.07701 11.9247C5.93516 11.9027 5.84046 11.7538 5.86549 11.5921C5.89052 11.4304 6.02581 11.3171 6.16766 11.3391C6.30951 11.361 6.40421 11.5099 6.37918 11.6716Z" fill="white"/>
<path d="M6.15537 12.7012C6.13034 12.8629 5.99505 12.9762 5.8532 12.9542C5.71135 12.9323 5.61665 12.7834 5.64168 12.6217C5.66671 12.46 5.80199 12.3467 5.94385 12.3686C6.0857 12.3906 6.1804 12.5395 6.15537 12.7012Z" fill="white"/>
<path d="M6.02108 13.7755C5.99605 13.9372 5.86077 14.0505 5.71892 14.0285C5.57707 14.0066 5.48236 13.8577 5.50739 13.696C5.53242 13.5342 5.66771 13.421 5.80956 13.4429C5.95141 13.4649 6.04611 13.6138 6.02108 13.7755Z" fill="white"/>
<path d="M6.02108 14.8498C5.99605 15.0115 5.86077 15.1248 5.71892 15.1028C5.57707 15.0808 5.48236 14.932 5.50739 14.7702C5.53242 14.6085 5.66771 14.4952 5.80956 14.5172C5.95141 14.5392 6.04611 14.688 6.02108 14.8498Z" fill="white"/>
<path d="M6.11061 15.8793C6.08558 16.041 5.95029 16.1543 5.80844 16.1323C5.66659 16.1104 5.57189 15.9615 5.59692 15.7998C5.62195 15.6381 5.75723 15.5248 5.89908 15.5467C6.04094 15.5687 6.13564 15.7176 6.11061 15.8793Z" fill="white"/>
<path d="M6.33442 16.9088C6.30939 17.0705 6.1741 17.1838 6.03225 17.1619C5.8904 17.1399 5.7957 16.991 5.82073 16.8293C5.84576 16.6676 5.98104 16.5543 6.12289 16.5763C6.26475 16.5982 6.35945 16.7471 6.33442 16.9088Z" fill="white"/>
<path d="M6.64775 17.8041C6.62272 17.9658 6.48744 18.0791 6.34559 18.0571C6.20374 18.0351 6.10903 17.8863 6.13406 17.7245C6.15909 17.5628 6.29438 17.4495 6.43623 17.4715C6.57808 17.4935 6.67278 17.6424 6.64775 17.8041Z" fill="white"/>
<path d="M7.05061 18.7441C7.02558 18.9058 6.8903 19.0191 6.74845 18.9971C6.6066 18.9752 6.51189 18.8263 6.53692 18.6646C6.56195 18.5028 6.69724 18.3896 6.83909 18.4115C6.98094 18.4335 7.07564 18.5824 7.05061 18.7441Z" fill="white"/>
<path d="M7.543 19.5945C7.51797 19.7563 7.38268 19.8695 7.24083 19.8476C7.09898 19.8256 7.00428 19.6767 7.02931 19.515C7.05434 19.3533 7.18962 19.24 7.33147 19.262C7.47333 19.2839 7.56803 19.4328 7.543 19.5945Z" fill="white"/>
<path d="M8.12491 20.3555C8.09988 20.5172 7.96459 20.6305 7.82274 20.6085C7.68089 20.5866 7.58619 20.4377 7.61122 20.276C7.63625 20.1143 7.77153 20.001 7.91338 20.0229C8.05523 20.0449 8.14994 20.1938 8.12491 20.3555Z" fill="white"/>
<path d="M8.8411 21.0269C8.81607 21.1886 8.68079 21.3019 8.53893 21.28C8.39708 21.258 8.30238 21.1091 8.32741 20.9474C8.35244 20.7857 8.48773 20.6724 8.62958 20.6944C8.77143 20.7163 8.86613 20.8652 8.8411 21.0269Z" fill="white"/>
<path d="M9.5573 21.6088C9.53227 21.7706 9.39698 21.8838 9.25513 21.8619C9.11328 21.8399 9.01858 21.691 9.04361 21.5293C9.06864 21.3676 9.20392 21.2543 9.34577 21.2763C9.48762 21.2982 9.58233 21.4471 9.5573 21.6088Z" fill="white"/>
<path d="M10.363 22.1012C10.338 22.2629 10.2027 22.3762 10.0608 22.3543C9.919 22.3323 9.8243 22.1834 9.84933 22.0217C9.87436 21.86 10.0096 21.7467 10.1515 21.7687C10.2933 21.7906 10.388 21.9395 10.363 22.1012Z" fill="white"/>
<path d="M11.2135 22.4593C11.1885 22.621 11.0532 22.7343 10.9113 22.7124C10.7695 22.6904 10.6748 22.5415 10.6998 22.3798C10.7248 22.2181 10.8601 22.1048 11.002 22.1268C11.1438 22.1487 11.2385 22.2976 11.2135 22.4593Z" fill="white"/>
<path d="M12.1087 22.6831C12.0837 22.8448 11.9484 22.9581 11.8066 22.9362C11.6647 22.9142 11.57 22.7653 11.5951 22.6036C11.6201 22.4419 11.7554 22.3286 11.8972 22.3506C12.0391 22.3725 12.1338 22.5214 12.1087 22.6831Z" fill="white"/>
<path d="M13.0487 22.8174C13.0237 22.9791 12.8884 23.0924 12.7466 23.0705C12.6047 23.0485 12.51 22.8996 12.5351 22.7379C12.5601 22.5762 12.6954 22.4629 12.8372 22.4849C12.9791 22.5068 13.0738 22.6557 13.0487 22.8174Z" fill="white"/>
<path d="M13.944 22.8174C13.919 22.9791 13.7837 23.0924 13.6418 23.0705C13.5 23.0485 13.4053 22.8996 13.4303 22.7379C13.4553 22.5762 13.5906 22.4629 13.7325 22.4849C13.8743 22.5068 13.969 22.6557 13.944 22.8174Z" fill="white"/>
<path d="M14.884 22.7279C14.859 22.8896 14.7237 23.0029 14.5818 22.9809C14.44 22.959 14.3453 22.8101 14.3703 22.6484C14.3953 22.4867 14.5306 22.3734 14.6725 22.3953C14.8143 22.4173 14.909 22.5662 14.884 22.7279Z" fill="white"/>
<path d="M15.824 22.5041C15.799 22.6658 15.6637 22.7791 15.5218 22.7571C15.38 22.7352 15.2853 22.5863 15.3103 22.4246C15.3353 22.2629 15.4706 22.1496 15.6125 22.1715C15.7543 22.1935 15.849 22.3424 15.824 22.5041Z" fill="white"/>
<path d="M16.7192 22.146C16.6942 22.3077 16.5589 22.421 16.4171 22.399C16.2752 22.3771 16.1805 22.2282 16.2056 22.0665C16.2306 21.9048 16.3659 21.7915 16.5077 21.8134C16.6496 21.8354 16.7443 21.9843 16.7192 22.146Z" fill="white"/>
<path d="M17.5697 21.6536C17.5447 21.8153 17.4094 21.9286 17.2676 21.9067C17.1257 21.8847 17.031 21.7358 17.056 21.5741C17.0811 21.4124 17.2164 21.2991 17.3582 21.3211C17.5001 21.343 17.5948 21.4919 17.5697 21.6536Z" fill="white"/>
<path d="M18.3754 21.0717C18.3504 21.2334 18.2151 21.3467 18.0733 21.3247C17.9314 21.3028 17.8367 21.1539 17.8618 20.9922C17.8868 20.8305 18.0221 20.7172 18.1639 20.7391C18.3058 20.7611 18.4005 20.91 18.3754 21.0717Z" fill="white"/>
<path d="M19.1364 20.4003C19.1114 20.562 18.9761 20.6753 18.8342 20.6533C18.6924 20.6314 18.5977 20.4825 18.6227 20.3208C18.6477 20.159 18.783 20.0458 18.9249 20.0677C19.0667 20.0897 19.1614 20.2386 19.1364 20.4003Z" fill="white"/>
<path d="M19.8526 19.6841C19.8276 19.8458 19.6923 19.9591 19.5504 19.9371C19.4086 19.9152 19.3139 19.7663 19.3389 19.6046C19.3639 19.4429 19.4992 19.3296 19.6411 19.3515C19.7829 19.3735 19.8776 19.5224 19.8526 19.6841Z" fill="white"/>
<path d="M11.1469 23.6313C11.1469 23.8414 10.9766 24.0118 10.7664 24.0118C10.5563 24.0118 10.386 23.8414 10.386 23.6313C10.386 23.4212 10.5563 23.2508 10.7664 23.2508C10.9766 23.2508 11.1469 23.4212 11.1469 23.6313Z" fill="white"/>
<path d="M12.4003 23.8999C12.4003 24.11 12.2299 24.2804 12.0198 24.2804C11.8096 24.2804 11.6393 24.11 11.6393 23.8999C11.6393 23.6898 11.8096 23.5194 12.0198 23.5194C12.2299 23.5194 12.4003 23.6898 12.4003 23.8999Z" fill="white"/>
<path d="M13.6536 24.0342C13.6536 24.2443 13.4833 24.4147 13.2731 24.4147C13.063 24.4147 12.8926 24.2443 12.8926 24.0342C12.8926 23.824 13.063 23.6537 13.2731 23.6537C13.4833 23.6537 13.6536 23.824 13.6536 24.0342Z" fill="white"/>
<path d="M14.9965 24.0342C14.9965 24.2443 14.8261 24.4147 14.616 24.4147C14.4059 24.4147 14.2355 24.2443 14.2355 24.0342C14.2355 23.824 14.4059 23.6537 14.616 23.6537C14.8261 23.6537 14.9965 23.824 14.9965 24.0342Z" fill="white"/>
<path d="M16.2498 23.8999C16.2498 24.11 16.0795 24.2804 15.8693 24.2804C15.6592 24.2804 15.4888 24.11 15.4888 23.8999C15.4888 23.6898 15.6592 23.5194 15.8693 23.5194C16.0795 23.5194 16.2498 23.6898 16.2498 23.8999Z" fill="white"/>
<path d="M17.5031 23.6313C17.5031 23.8414 17.3328 24.0118 17.1227 24.0118C16.9125 24.0118 16.7422 23.8414 16.7422 23.6313C16.7422 23.4212 16.9125 23.2508 17.1227 23.2508C17.3328 23.2508 17.5031 23.4212 17.5031 23.6313Z" fill="white"/>
<path d="M18.7117 23.1389C18.7117 23.3491 18.5414 23.5194 18.3312 23.5194C18.1211 23.5194 17.9508 23.3491 17.9508 23.1389C17.9508 22.9288 18.1211 22.7585 18.3312 22.7585C18.5414 22.7585 18.7117 22.9288 18.7117 23.1389Z" fill="white"/>
<path d="M19.8755 22.6018C19.8755 22.8119 19.7052 22.9823 19.4951 22.9823C19.2849 22.9823 19.1146 22.8119 19.1146 22.6018C19.1146 22.3917 19.2849 22.2213 19.4951 22.2213C19.7052 22.2213 19.8755 22.3917 19.8755 22.6018Z" fill="white"/>
<path d="M20.9498 21.8408C20.9498 22.051 20.7795 22.2213 20.5694 22.2213C20.3592 22.2213 20.1889 22.051 20.1889 21.8408C20.1889 21.6307 20.3592 21.4603 20.5694 21.4603C20.7795 21.4603 20.9498 21.6307 20.9498 21.8408Z" fill="white"/>
<path d="M21.9346 21.0799C21.9346 21.29 21.7643 21.4603 21.5541 21.4603C21.344 21.4603 21.1736 21.29 21.1736 21.0799C21.1736 20.8697 21.344 20.6994 21.5541 20.6994C21.7643 20.6994 21.9346 20.8697 21.9346 21.0799Z" fill="white"/>
<path d="M22.8298 20.0951C22.8298 20.3052 22.6595 20.4756 22.4494 20.4756C22.2392 20.4756 22.0689 20.3052 22.0689 20.0951C22.0689 19.885 22.2392 19.7146 22.4494 19.7146C22.6595 19.7146 22.8298 19.885 22.8298 20.0951Z" fill="white"/>
<path d="M23.5908 19.0656C23.5908 19.2757 23.4205 19.4461 23.2103 19.4461C23.0002 19.4461 22.8298 19.2757 22.8298 19.0656C22.8298 18.8554 23.0002 18.6851 23.2103 18.6851C23.4205 18.6851 23.5908 18.8554 23.5908 19.0656Z" fill="white"/>
<path d="M24.2175 17.9465C24.2175 18.1566 24.0471 18.327 23.837 18.327C23.6269 18.327 23.4565 18.1566 23.4565 17.9465C23.4565 17.7364 23.6269 17.566 23.837 17.566C24.0471 17.566 24.2175 17.7364 24.2175 17.9465Z" fill="white"/>
<path d="M24.7546 16.7827C24.7546 16.9928 24.5843 17.1632 24.3741 17.1632C24.164 17.1632 23.9937 16.9928 23.9937 16.7827C23.9937 16.5726 24.164 16.4022 24.3741 16.4022C24.5843 16.4022 24.7546 16.5726 24.7546 16.7827Z" fill="white"/>
<path d="M25.1127 15.5741C25.1127 15.7843 24.9424 15.9546 24.7322 15.9546C24.5221 15.9546 24.3518 15.7843 24.3518 15.5741C24.3518 15.364 24.5221 15.1936 24.7322 15.1936C24.9424 15.1936 25.1127 15.364 25.1127 15.5741Z" fill="white"/>
<path d="M25.3365 14.276C25.3365 14.4861 25.1662 14.6565 24.956 14.6565C24.7459 14.6565 24.5756 14.4861 24.5756 14.276C24.5756 14.0659 24.7459 13.8955 24.956 13.8955C25.1662 13.8955 25.3365 14.0659 25.3365 14.276Z" fill="white"/>
<path d="M25.3365 12.9779C25.3365 13.188 25.1662 13.3584 24.956 13.3584C24.7459 13.3584 24.5756 13.188 24.5756 12.9779C24.5756 12.7678 24.7459 12.5974 24.956 12.5974C25.1662 12.5974 25.3365 12.7678 25.3365 12.9779Z" fill="white"/>
<path d="M25.3365 11.6798C25.3365 11.8899 25.1662 12.0603 24.956 12.0603C24.7459 12.0603 24.5756 11.8899 24.5756 11.6798C24.5756 11.4697 24.7459 11.2993 24.956 11.2993C25.1662 11.2993 25.3365 11.4697 25.3365 11.6798Z" fill="white"/>
<path d="M25.1127 10.4712C25.1127 10.6814 24.9424 10.8517 24.7322 10.8517C24.5221 10.8517 24.3518 10.6814 24.3518 10.4712C24.3518 10.2611 24.5221 10.0908 24.7322 10.0908C24.9424 10.0908 25.1127 10.2611 25.1127 10.4712Z" fill="white"/>
<path d="M24.7546 9.17313C24.7546 9.38326 24.5843 9.55361 24.3741 9.55361C24.164 9.55361 23.9937 9.38326 23.9937 9.17313C23.9937 8.963 24.164 8.79265 24.3741 8.79265C24.5843 8.79265 24.7546 8.963 24.7546 9.17313Z" fill="white"/>
<path d="M24.2175 8.05407C24.2175 8.26421 24.0471 8.43455 23.837 8.43455C23.6269 8.43455 23.4565 8.26421 23.4565 8.05407C23.4565 7.84394 23.6269 7.67359 23.837 7.67359C24.0471 7.67359 24.2175 7.84394 24.2175 8.05407Z" fill="white"/>
<path d="M23.5908 6.93502C23.5908 7.14515 23.4205 7.3155 23.2103 7.3155C23.0002 7.3155 22.8298 7.14515 22.8298 6.93502C22.8298 6.72489 23.0002 6.55454 23.2103 6.55454C23.4205 6.55454 23.5908 6.72489 23.5908 6.93502Z" fill="white"/>
<path d="M22.8298 5.95025C22.8298 6.16038 22.6595 6.33073 22.4494 6.33073C22.2392 6.33073 22.0689 6.16038 22.0689 5.95025C22.0689 5.74012 22.2392 5.56977 22.4494 5.56977C22.6595 5.56977 22.8298 5.74012 22.8298 5.95025Z" fill="white"/>
<path d="M21.8898 4.92072C21.8898 5.13085 21.7195 5.3012 21.5094 5.3012C21.2992 5.3012 21.1289 5.13085 21.1289 4.92072C21.1289 4.71059 21.2992 4.54024 21.5094 4.54024C21.7195 4.54024 21.8898 4.71059 21.8898 4.92072Z" fill="white"/>
<path d="M20.9498 4.15976C20.9498 4.3699 20.7795 4.54024 20.5694 4.54024C20.3592 4.54024 20.1889 4.3699 20.1889 4.15976C20.1889 3.94963 20.3592 3.77928 20.5694 3.77928C20.7795 3.77928 20.9498 3.94963 20.9498 4.15976Z" fill="white"/>
<path d="M19.8755 3.39881C19.8755 3.60894 19.7052 3.77928 19.4951 3.77928C19.2849 3.77928 19.1146 3.60894 19.1146 3.39881C19.1146 3.18867 19.2849 3.01833 19.4951 3.01833C19.7052 3.01833 19.8755 3.18867 19.8755 3.39881Z" fill="white"/>
<path d="M18.7565 2.86166C18.7565 3.07179 18.5861 3.24214 18.376 3.24214C18.1659 3.24214 17.9955 3.07179 17.9955 2.86166C17.9955 2.65153 18.1659 2.48118 18.376 2.48118C18.5861 2.48118 18.7565 2.65153 18.7565 2.86166Z" fill="white"/>
<path d="M17.5031 2.36928C17.5031 2.57941 17.3328 2.74975 17.1227 2.74975C16.9125 2.74975 16.7422 2.57941 16.7422 2.36928C16.7422 2.15914 16.9125 1.9888 17.1227 1.9888C17.3328 1.9888 17.5031 2.15914 17.5031 2.36928Z" fill="white"/>
<path d="M16.2946 2.1007C16.2946 2.31084 16.1242 2.48118 15.9141 2.48118C15.704 2.48118 15.5336 2.31084 15.5336 2.1007C15.5336 1.89057 15.704 1.72022 15.9141 1.72022C16.1242 1.72022 16.2946 1.89057 16.2946 2.1007Z" fill="white"/>
<path d="M14.9517 1.96642C14.9517 2.17655 14.7814 2.34689 14.5712 2.34689C14.3611 2.34689 14.1907 2.17655 14.1907 1.96642C14.1907 1.75628 14.3611 1.58594 14.5712 1.58594C14.7814 1.58594 14.9517 1.75628 14.9517 1.96642Z" fill="white"/>
<path d="M13.7431 1.96642C13.7431 2.17655 13.5728 2.34689 13.3626 2.34689C13.1525 2.34689 12.9822 2.17655 12.9822 1.96642C12.9822 1.75628 13.1525 1.58594 13.3626 1.58594C13.5728 1.58594 13.7431 1.75628 13.7431 1.96642Z" fill="white"/>
<path d="M12.4003 2.1007C12.4003 2.31084 12.2299 2.48118 12.0198 2.48118C11.8096 2.48118 11.6393 2.31084 11.6393 2.1007C11.6393 1.89057 11.8096 1.72022 12.0198 1.72022C12.2299 1.72022 12.4003 1.89057 12.4003 2.1007Z" fill="white"/>
<path d="M11.1469 2.36928C11.1469 2.57941 10.9766 2.74975 10.7664 2.74975C10.5563 2.74975 10.386 2.57941 10.386 2.36928C10.386 2.15914 10.5563 1.9888 10.7664 1.9888C10.9766 1.9888 11.1469 2.15914 11.1469 2.36928Z" fill="white"/>
<path d="M9.9831 2.86166C9.9831 3.07179 9.81275 3.24214 9.60262 3.24214C9.39249 3.24214 9.22214 3.07179 9.22214 2.86166C9.22214 2.65153 9.39249 2.48118 9.60262 2.48118C9.81275 2.48118 9.9831 2.65153 9.9831 2.86166Z" fill="white"/>
<path d="M8.77452 3.44357C8.77452 3.6537 8.60417 3.82405 8.39404 3.82405C8.18391 3.82405 8.01356 3.6537 8.01356 3.44357C8.01356 3.23344 8.18391 3.06309 8.39404 3.06309C8.60417 3.06309 8.77452 3.23344 8.77452 3.44357Z" fill="white"/>
<path d="M7.70023 4.115C7.70023 4.32513 7.52988 4.49548 7.31975 4.49548C7.10961 4.49548 6.93927 4.32513 6.93927 4.115C6.93927 3.90487 7.10961 3.73452 7.31975 3.73452C7.52988 3.73452 7.70023 3.90487 7.70023 4.115Z" fill="white"/>
<path d="M6.71546 4.96548C6.71546 5.17562 6.54511 5.34596 6.33498 5.34596C6.12485 5.34596 5.9545 5.17562 5.9545 4.96548C5.9545 4.75535 6.12485 4.585 6.33498 4.585C6.54511 4.585 6.71546 4.75535 6.71546 4.96548Z" fill="white"/>
<path d="M5.86498 5.90549C5.86498 6.11562 5.69463 6.28597 5.4845 6.28597C5.27437 6.28597 5.10402 6.11562 5.10402 5.90549C5.10402 5.69536 5.27437 5.52501 5.4845 5.52501C5.69463 5.52501 5.86498 5.69536 5.86498 5.90549Z" fill="white"/>
<path d="M5.10402 6.93502C5.10402 7.14515 4.93367 7.3155 4.72354 7.3155C4.51341 7.3155 4.34306 7.14515 4.34306 6.93502C4.34306 6.72489 4.51341 6.55454 4.72354 6.55454C4.93367 6.55454 5.10402 6.72489 5.10402 6.93502Z" fill="white"/>
<path d="M4.43259 8.05407C4.43259 8.26421 4.26224 8.43455 4.05211 8.43455C3.84198 8.43455 3.67163 8.26421 3.67163 8.05407C3.67163 7.84394 3.84198 7.67359 4.05211 7.67359C4.26224 7.67359 4.43259 7.84394 4.43259 8.05407Z" fill="white"/>
<path d="M3.89544 9.21789C3.89544 9.42802 3.72509 9.59837 3.51496 9.59837C3.30483 9.59837 3.13448 9.42802 3.13448 9.21789C3.13448 9.00776 3.30483 8.83741 3.51496 8.83741C3.72509 8.83741 3.89544 9.00776 3.89544 9.21789Z" fill="white"/>
<path d="M3.53734 10.4265C3.53734 10.6366 3.367 10.8069 3.15686 10.8069C2.94673 10.8069 2.77639 10.6366 2.77639 10.4265C2.77639 10.2163 2.94673 10.046 3.15686 10.046C3.367 10.046 3.53734 10.2163 3.53734 10.4265Z" fill="white"/>
<path d="M3.35829 11.7693C3.35829 11.9795 3.18795 12.1498 2.97782 12.1498C2.76768 12.1498 2.59734 11.9795 2.59734 11.7693C2.59734 11.5592 2.76768 11.3889 2.97782 11.3889C3.18795 11.3889 3.35829 11.5592 3.35829 11.7693Z" fill="white"/>
<path d="M3.26877 13.0674C3.26877 13.2776 3.09842 13.4479 2.88829 13.4479C2.67816 13.4479 2.50781 13.2776 2.50781 13.0674C2.50781 12.8573 2.67816 12.687 2.88829 12.687C3.09842 12.687 3.26877 12.8573 3.26877 13.0674Z" fill="white"/>
<path d="M3.35829 14.276C3.35829 14.4861 3.18795 14.6565 2.97782 14.6565C2.76768 14.6565 2.59734 14.4861 2.59734 14.276C2.59734 14.0659 2.76768 13.8955 2.97782 13.8955C3.18795 13.8955 3.35829 14.0659 3.35829 14.276Z" fill="white"/>
<path d="M3.53734 15.5741C3.53734 15.7843 3.367 15.9546 3.15686 15.9546C2.94673 15.9546 2.77639 15.7843 2.77639 15.5741C2.77639 15.364 2.94673 15.1936 3.15686 15.1936C3.367 15.1936 3.53734 15.364 3.53734 15.5741Z" fill="white"/>
<path d="M3.9402 16.7827C3.9402 16.9928 3.76986 17.1632 3.55972 17.1632C3.34959 17.1632 3.17925 16.9928 3.17925 16.7827C3.17925 16.5726 3.34959 16.4022 3.55972 16.4022C3.76986 16.4022 3.9402 16.5726 3.9402 16.7827Z" fill="white"/>
<path d="M4.43259 17.9465C4.43259 18.1566 4.26224 18.327 4.05211 18.327C3.84198 18.327 3.67163 18.1566 3.67163 17.9465C3.67163 17.7364 3.84198 17.566 4.05211 17.566C4.26224 17.566 4.43259 17.7364 4.43259 17.9465Z" fill="white"/>
<path d="M5.10402 19.0656C5.10402 19.2757 4.93367 19.4461 4.72354 19.4461C4.51341 19.4461 4.34306 19.2757 4.34306 19.0656C4.34306 18.8554 4.51341 18.6851 4.72354 18.6851C4.93367 18.6851 5.10402 18.8554 5.10402 19.0656Z" fill="white"/>
<path d="M5.86498 20.0951C5.86498 20.3052 5.69463 20.4756 5.4845 20.4756C5.27437 20.4756 5.10402 20.3052 5.10402 20.0951C5.10402 19.885 5.27437 19.7146 5.4845 19.7146C5.69463 19.7146 5.86498 19.885 5.86498 20.0951Z" fill="white"/>
<path d="M6.76022 21.0799C6.76022 21.29 6.58987 21.4603 6.37974 21.4603C6.16961 21.4603 5.99926 21.29 5.99926 21.0799C5.99926 20.8697 6.16961 20.6994 6.37974 20.6994C6.58987 20.6994 6.76022 20.8697 6.76022 21.0799Z" fill="white"/>
<path d="M7.70023 21.8408C7.70023 22.051 7.52988 22.2213 7.31975 22.2213C7.10961 22.2213 6.93927 22.051 6.93927 21.8408C6.93927 21.6307 7.10961 21.4603 7.31975 21.4603C7.52988 21.4603 7.70023 21.6307 7.70023 21.8408Z" fill="white"/>
<path d="M8.77452 22.6018C8.77452 22.8119 8.60417 22.9823 8.39404 22.9823C8.18391 22.9823 8.01356 22.8119 8.01356 22.6018C8.01356 22.3917 8.18391 22.2213 8.39404 22.2213C8.60417 22.2213 8.77452 22.3917 8.77452 22.6018Z" fill="white"/>
<path d="M9.9831 23.1389C9.9831 23.3491 9.81275 23.5194 9.60262 23.5194C9.39249 23.5194 9.22214 23.3491 9.22214 23.1389C9.22214 22.9288 9.39249 22.7585 9.60262 22.7585C9.81275 22.7585 9.9831 22.9288 9.9831 23.1389Z" fill="white"/>
<path d="M8.90881 11.8589C8.90881 11.9701 8.81862 12.0603 8.70738 12.0603C8.59613 12.0603 8.50595 11.9701 8.50595 11.8589C8.50595 11.7476 8.59613 11.6574 8.70738 11.6574C8.81862 11.6574 8.90881 11.7476 8.90881 11.8589Z" fill="white"/>
<path d="M9.17738 11.2322C9.17738 11.3434 9.08719 11.4336 8.97595 11.4336C8.8647 11.4336 8.77452 11.3434 8.77452 11.2322C8.77452 11.1209 8.8647 11.0308 8.97595 11.0308C9.08719 11.0308 9.17738 11.1209 9.17738 11.2322Z" fill="white"/>
<path d="M9.58024 10.6503C9.58024 10.7615 9.49005 10.8517 9.37881 10.8517C9.26756 10.8517 9.17738 10.7615 9.17738 10.6503C9.17738 10.539 9.26756 10.4489 9.37881 10.4489C9.49005 10.4489 9.58024 10.539 9.58024 10.6503Z" fill="white"/>
<path d="M9.9831 10.1131C9.9831 10.2244 9.89291 10.3146 9.78167 10.3146C9.67042 10.3146 9.58024 10.2244 9.58024 10.1131C9.58024 10.0019 9.67042 9.9117 9.78167 9.9117C9.89291 9.9117 9.9831 10.0019 9.9831 10.1131Z" fill="white"/>
<path d="M10.4755 9.66551C10.4755 9.77676 10.3853 9.86694 10.2741 9.86694C10.1628 9.86694 10.0726 9.77676 10.0726 9.66551C10.0726 9.55427 10.1628 9.46408 10.2741 9.46408C10.3853 9.46408 10.4755 9.55427 10.4755 9.66551Z" fill="white"/>
<path d="M11.0126 9.26265C11.0126 9.3739 10.9224 9.46408 10.8112 9.46408C10.7 9.46408 10.6098 9.3739 10.6098 9.26265C10.6098 9.15141 10.7 9.06122 10.8112 9.06122C10.9224 9.06122 11.0126 9.15141 11.0126 9.26265Z" fill="white"/>
<path d="M11.6393 8.90455C11.6393 9.0158 11.5491 9.10598 11.4379 9.10598C11.3266 9.10598 11.2364 9.0158 11.2364 8.90455C11.2364 8.79331 11.3266 8.70312 11.4379 8.70312C11.5491 8.70312 11.6393 8.79331 11.6393 8.90455Z" fill="white"/>
<path d="M12.266 8.68074C12.266 8.79199 12.1758 8.88217 12.0645 8.88217C11.9533 8.88217 11.8631 8.79199 11.8631 8.68074C11.8631 8.5695 11.9533 8.47931 12.0645 8.47931C12.1758 8.47931 12.266 8.5695 12.266 8.68074Z" fill="white"/>
<path d="M12.8926 8.5017C12.8926 8.61294 12.8025 8.70312 12.6912 8.70312C12.58 8.70312 12.4898 8.61294 12.4898 8.5017C12.4898 8.39045 12.58 8.30027 12.6912 8.30027C12.8025 8.30027 12.8926 8.39045 12.8926 8.5017Z" fill="white"/>
<path d="M13.6088 8.41217C13.6088 8.52342 13.5187 8.6136 13.4074 8.6136C13.2962 8.6136 13.206 8.52342 13.206 8.41217C13.206 8.30092 13.2962 8.21074 13.4074 8.21074C13.5187 8.21074 13.6088 8.30092 13.6088 8.41217Z" fill="white"/>
<path d="M14.2803 8.36741C14.2803 8.47866 14.1901 8.56884 14.0788 8.56884C13.9676 8.56884 13.8774 8.47866 13.8774 8.36741C13.8774 8.25616 13.9676 8.16598 14.0788 8.16598C14.1901 8.16598 14.2803 8.25616 14.2803 8.36741Z" fill="white"/>
<path d="M14.9517 8.45693C14.9517 8.56818 14.8615 8.65836 14.7503 8.65836C14.639 8.65836 14.5488 8.56818 14.5488 8.45693C14.5488 8.34569 14.639 8.2555 14.7503 8.2555C14.8615 8.2555 14.9517 8.34569 14.9517 8.45693Z" fill="white"/>
<path d="M15.6231 8.59122C15.6231 8.70247 15.533 8.79265 15.4217 8.79265C15.3105 8.79265 15.2203 8.70247 15.2203 8.59122C15.2203 8.47997 15.3105 8.38979 15.4217 8.38979C15.533 8.38979 15.6231 8.47997 15.6231 8.59122Z" fill="white"/>
<path d="M16.2946 8.81503C16.2946 8.92628 16.2044 9.01646 16.0931 9.01646C15.9819 9.01646 15.8917 8.92628 15.8917 8.81503C15.8917 8.70378 15.9819 8.6136 16.0931 8.6136C16.2044 8.6136 16.2946 8.70378 16.2946 8.81503Z" fill="white"/>
<path d="M16.9212 9.17313C16.9212 9.28437 16.8311 9.37456 16.7198 9.37456C16.6086 9.37456 16.5184 9.28437 16.5184 9.17313C16.5184 9.06188 16.6086 8.9717 16.7198 8.9717C16.8311 8.9717 16.9212 9.06188 16.9212 9.17313Z" fill="white"/>
<path d="M17.5031 9.53123C17.5031 9.64247 17.413 9.73266 17.3017 9.73266C17.1905 9.73266 17.1003 9.64247 17.1003 9.53123C17.1003 9.41998 17.1905 9.3298 17.3017 9.3298C17.413 9.3298 17.5031 9.41998 17.5031 9.53123Z" fill="white"/>
<path d="M18.0851 9.97885C18.0851 10.0901 17.9949 10.1803 17.8836 10.1803C17.7724 10.1803 17.6822 10.0901 17.6822 9.97885C17.6822 9.8676 17.7724 9.77742 17.8836 9.77742C17.9949 9.77742 18.0851 9.8676 18.0851 9.97885Z" fill="white"/>
<path d="M18.5774 10.4712C18.5774 10.5825 18.4873 10.6727 18.376 10.6727C18.2648 10.6727 18.1746 10.5825 18.1746 10.4712C18.1746 10.36 18.2648 10.2698 18.376 10.2698C18.4873 10.2698 18.5774 10.36 18.5774 10.4712Z" fill="white"/>
<path d="M19.0251 11.0531C19.0251 11.1644 18.9349 11.2546 18.8236 11.2546C18.7124 11.2546 18.6222 11.1644 18.6222 11.0531C18.6222 10.9419 18.7124 10.8517 18.8236 10.8517C18.9349 10.8517 19.0251 10.9419 19.0251 11.0531Z" fill="white"/>
<path d="M19.4279 11.6798C19.4279 11.7911 19.3377 11.8812 19.2265 11.8812C19.1152 11.8812 19.0251 11.7911 19.0251 11.6798C19.0251 11.5686 19.1152 11.4784 19.2265 11.4784C19.3377 11.4784 19.4279 11.5686 19.4279 11.6798Z" fill="white"/>
<path d="M19.7413 12.3065C19.7413 12.4177 19.6511 12.5079 19.5398 12.5079C19.4286 12.5079 19.3384 12.4177 19.3384 12.3065C19.3384 12.1952 19.4286 12.1051 19.5398 12.1051C19.6511 12.1051 19.7413 12.1952 19.7413 12.3065Z" fill="white"/>
<path d="M19.9651 12.9779C19.9651 13.0892 19.8749 13.1793 19.7636 13.1793C19.6524 13.1793 19.5622 13.0892 19.5622 12.9779C19.5622 12.8667 19.6524 12.7765 19.7636 12.7765C19.8749 12.7765 19.9651 12.8667 19.9651 12.9779Z" fill="white"/>
<path d="M20.1441 13.6941C20.1441 13.8054 20.0539 13.8955 19.9427 13.8955C19.8314 13.8955 19.7413 13.8054 19.7413 13.6941C19.7413 13.5829 19.8314 13.4927 19.9427 13.4927C20.0539 13.4927 20.1441 13.5829 20.1441 13.6941Z" fill="white"/>
<path d="M20.2336 14.4103C20.2336 14.5216 20.1435 14.6117 20.0322 14.6117C19.921 14.6117 19.8308 14.5216 19.8308 14.4103C19.8308 14.2991 19.921 14.2089 20.0322 14.2089C20.1435 14.2089 20.2336 14.2991 20.2336 14.4103Z" fill="white"/>
<path d="M20.2336 15.1265C20.2336 15.2377 20.1435 15.3279 20.0322 15.3279C19.921 15.3279 19.8308 15.2377 19.8308 15.1265C19.8308 15.0153 19.921 14.9251 20.0322 14.9251C20.1435 14.9251 20.2336 15.0153 20.2336 15.1265Z" fill="white"/>
<path d="M20.1889 15.8427C20.1889 15.9539 20.0987 16.0441 19.9874 16.0441C19.8762 16.0441 19.786 15.9539 19.786 15.8427C19.786 15.7314 19.8762 15.6413 19.9874 15.6413C20.0987 15.6413 20.1889 15.7314 20.1889 15.8427Z" fill="white"/>
<path d="M20.0098 16.5141C20.0098 16.6254 19.9196 16.7156 19.8084 16.7156C19.6972 16.7156 19.607 16.6254 19.607 16.5141C19.607 16.4029 19.6972 16.3127 19.8084 16.3127C19.9196 16.3127 20.0098 16.4029 20.0098 16.5141Z" fill="white"/>
<path d="M19.786 17.1856C19.786 17.2968 19.6958 17.387 19.5846 17.387C19.4733 17.387 19.3832 17.2968 19.3832 17.1856C19.3832 17.0743 19.4733 16.9841 19.5846 16.9841C19.6958 16.9841 19.786 17.0743 19.786 17.1856Z" fill="white"/>
<path d="M19.4727 17.8122C19.4727 17.9235 19.3825 18.0137 19.2713 18.0137C19.16 18.0137 19.0698 17.9235 19.0698 17.8122C19.0698 17.701 19.16 17.6108 19.2713 17.6108C19.3825 17.6108 19.4727 17.701 19.4727 17.8122Z" fill="white"/>
<path d="M19.1146 18.3941C19.1146 18.5054 19.0244 18.5956 18.9132 18.5956C18.8019 18.5956 18.7117 18.5054 18.7117 18.3941C18.7117 18.2829 18.8019 18.1927 18.9132 18.1927C19.0244 18.1927 19.1146 18.2829 19.1146 18.3941Z" fill="white"/>
<path d="M18.7117 18.9313C18.7117 19.0425 18.6215 19.1327 18.5103 19.1327C18.399 19.1327 18.3089 19.0425 18.3089 18.9313C18.3089 18.82 18.399 18.7299 18.5103 18.7299C18.6215 18.7299 18.7117 18.82 18.7117 18.9313Z" fill="white"/>
<path d="M18.2193 19.3789C18.2193 19.4902 18.1292 19.5803 18.0179 19.5803C17.9067 19.5803 17.8165 19.4902 17.8165 19.3789C17.8165 19.2677 17.9067 19.1775 18.0179 19.1775C18.1292 19.1775 18.2193 19.2677 18.2193 19.3789Z" fill="white"/>
<path d="M17.6822 19.7818C17.6822 19.893 17.592 19.9832 17.4808 19.9832C17.3695 19.9832 17.2793 19.893 17.2793 19.7818C17.2793 19.6705 17.3695 19.5803 17.4808 19.5803C17.592 19.5803 17.6822 19.6705 17.6822 19.7818Z" fill="white"/>
<path d="M17.0555 20.1399C17.0555 20.2511 16.9653 20.3413 16.8541 20.3413C16.7428 20.3413 16.6527 20.2511 16.6527 20.1399C16.6527 20.0286 16.7428 19.9384 16.8541 19.9384C16.9653 19.9384 17.0555 20.0286 17.0555 20.1399Z" fill="white"/>
<path d="M16.4289 20.3637C16.4289 20.4749 16.3387 20.5651 16.2274 20.5651C16.1162 20.5651 16.026 20.4749 16.026 20.3637C16.026 20.2524 16.1162 20.1622 16.2274 20.1622C16.3387 20.1622 16.4289 20.2524 16.4289 20.3637Z" fill="white"/>
<path d="M15.8022 20.5427C15.8022 20.654 15.712 20.7442 15.6008 20.7442C15.4895 20.7442 15.3993 20.654 15.3993 20.5427C15.3993 20.4315 15.4895 20.3413 15.6008 20.3413C15.712 20.3413 15.8022 20.4315 15.8022 20.5427Z" fill="white"/>
<path d="M14.4146 20.677C14.4146 20.7883 14.3244 20.8784 14.2131 20.8784C14.1019 20.8784 14.0117 20.7883 14.0117 20.677C14.0117 20.5658 14.1019 20.4756 14.2131 20.4756C14.3244 20.4756 14.4146 20.5658 14.4146 20.677Z" fill="white"/>
<path d="M13.7431 20.5875C13.7431 20.6987 13.6529 20.7889 13.5417 20.7889C13.4304 20.7889 13.3403 20.6987 13.3403 20.5875C13.3403 20.4762 13.4304 20.3861 13.5417 20.3861C13.6529 20.3861 13.7431 20.4762 13.7431 20.5875Z" fill="white"/>
<path d="M13.0717 20.4532C13.0717 20.5644 12.9815 20.6546 12.8703 20.6546C12.759 20.6546 12.6688 20.5644 12.6688 20.4532C12.6688 20.342 12.759 20.2518 12.8703 20.2518C12.9815 20.2518 13.0717 20.342 13.0717 20.4532Z" fill="white"/>
<path d="M12.4003 20.1846C12.4003 20.2959 12.3101 20.3861 12.1988 20.3861C12.0876 20.3861 11.9974 20.2959 11.9974 20.1846C11.9974 20.0734 12.0876 19.9832 12.1988 19.9832C12.3101 19.9832 12.4003 20.0734 12.4003 20.1846Z" fill="white"/>
<path d="M11.7736 19.8713C11.7736 19.9825 11.6834 20.0727 11.5722 20.0727C11.4609 20.0727 11.3707 19.9825 11.3707 19.8713C11.3707 19.76 11.4609 19.6699 11.5722 19.6699C11.6834 19.6699 11.7736 19.76 11.7736 19.8713Z" fill="white"/>
<path d="M11.1469 19.5132C11.1469 19.6244 11.0567 19.7146 10.9455 19.7146C10.8342 19.7146 10.7441 19.6244 10.7441 19.5132C10.7441 19.4019 10.8342 19.3118 10.9455 19.3118C11.0567 19.3118 11.1469 19.4019 11.1469 19.5132Z" fill="white"/>
<path d="M10.6098 19.0656C10.6098 19.1768 10.5196 19.267 10.4083 19.267C10.2971 19.267 10.2069 19.1768 10.2069 19.0656C10.2069 18.9543 10.2971 18.8641 10.4083 18.8641C10.5196 18.8641 10.6098 18.9543 10.6098 19.0656Z" fill="white"/>
<path d="M10.1174 18.5284C10.1174 18.6397 10.0272 18.7299 9.91595 18.7299C9.80471 18.7299 9.71452 18.6397 9.71452 18.5284C9.71452 18.4172 9.80471 18.327 9.91595 18.327C10.0272 18.327 10.1174 18.4172 10.1174 18.5284Z" fill="white"/>
<path d="M9.66976 17.9913C9.66976 18.1025 9.57958 18.1927 9.46833 18.1927C9.35709 18.1927 9.2669 18.1025 9.2669 17.9913C9.2669 17.88 9.35709 17.7898 9.46833 17.7898C9.57958 17.7898 9.66976 17.88 9.66976 17.9913Z" fill="white"/>
<path d="M9.2669 17.3646C9.2669 17.4759 9.17672 17.566 9.06547 17.566C8.95423 17.566 8.86404 17.4759 8.86404 17.3646C8.86404 17.2534 8.95423 17.1632 9.06547 17.1632C9.17672 17.1632 9.2669 17.2534 9.2669 17.3646Z" fill="white"/>
<path d="M8.95357 16.6932C8.95357 16.8044 8.86338 16.8946 8.75214 16.8946C8.64089 16.8946 8.55071 16.8044 8.55071 16.6932C8.55071 16.5819 8.64089 16.4917 8.75214 16.4917C8.86338 16.4917 8.95357 16.5819 8.95357 16.6932Z" fill="white"/>
<path d="M8.72976 16.0217C8.72976 16.133 8.63957 16.2232 8.52833 16.2232C8.41708 16.2232 8.3269 16.133 8.3269 16.0217C8.3269 15.9105 8.41708 15.8203 8.52833 15.8203C8.63957 15.8203 8.72976 15.9105 8.72976 16.0217Z" fill="white"/>
<path d="M8.55071 15.3055C8.55071 15.4168 8.46052 15.507 8.34928 15.507C8.23803 15.507 8.14785 15.4168 8.14785 15.3055C8.14785 15.1943 8.23803 15.1041 8.34928 15.1041C8.46052 15.1041 8.55071 15.1943 8.55071 15.3055Z" fill="white"/>
<path d="M8.46118 14.6341C8.46118 14.7454 8.371 14.8355 8.25975 14.8355C8.14851 14.8355 8.05832 14.7454 8.05832 14.6341C8.05832 14.5229 8.14851 14.4327 8.25975 14.4327C8.371 14.4327 8.46118 14.5229 8.46118 14.6341Z" fill="white"/>
<path d="M8.46118 13.9179C8.46118 14.0292 8.371 14.1194 8.25975 14.1194C8.14851 14.1194 8.05832 14.0292 8.05832 13.9179C8.05832 13.8067 8.14851 13.7165 8.25975 13.7165C8.371 13.7165 8.46118 13.8067 8.46118 13.9179Z" fill="white"/>
<path d="M8.50595 13.2017C8.50595 13.313 8.41576 13.4032 8.30452 13.4032C8.19327 13.4032 8.10309 13.313 8.10309 13.2017C8.10309 13.0905 8.19327 13.0003 8.30452 13.0003C8.41576 13.0003 8.50595 13.0905 8.50595 13.2017Z" fill="white"/>
<path d="M8.68499 12.4855C8.68499 12.5968 8.59481 12.687 8.48356 12.687C8.37232 12.687 8.28213 12.5968 8.28213 12.4855C8.28213 12.3743 8.37232 12.2841 8.48356 12.2841C8.59481 12.2841 8.68499 12.3743 8.68499 12.4855Z" fill="white"/>
<path d="M15.1307 20.6322C15.1307 20.7435 15.0406 20.8337 14.9293 20.8337C14.8181 20.8337 14.7279 20.7435 14.7279 20.6322C14.7279 20.521 14.8181 20.4308 14.9293 20.4308C15.0406 20.4308 15.1307 20.521 15.1307 20.6322Z" fill="white"/>
</svg>
