<svg width="26" height="26" viewBox="0 0 26 26" fill="none" xmlns="http://www.w3.org/2000/svg">
<g clip-path="url(#clip0_1363_1197)">
<path d="M25.8204 5.97266L16.7465 15.0466C15.7348 16.0558 14.364 16.6225 12.935 16.6225C11.506 16.6225 10.1352 16.0558 9.12349 15.0466L0.0495842 5.97266C0.0344933 6.14297 0 6.29711 0 6.46634V19.4013C0.00171158 20.8302 0.570091 22.2001 1.58046 23.2105C2.59084 24.2208 3.9607 24.7892 5.38958 24.7909H20.4804C21.9093 24.7892 23.2792 24.2208 24.2895 23.2105C25.2999 22.2001 25.8683 20.8302 25.87 19.4013V6.46634C25.87 6.29711 25.8355 6.14297 25.8204 5.97266Z" fill="#50A0D8"/>
<path d="M15.2212 13.5237L25.0668 3.67698C24.5899 2.88613 23.9172 2.23154 23.1136 1.77632C22.3101 1.32111 21.4028 1.08065 20.4792 1.07812H5.38839C4.46486 1.08065 3.55755 1.32111 2.75399 1.77632C1.95044 2.23154 1.27774 2.88613 0.800781 3.67698L10.6465 13.5237C11.254 14.1288 12.0764 14.4685 12.9338 14.4685C13.7912 14.4685 14.6137 14.1288 15.2212 13.5237Z" fill="#50A0D8"/>
</g>
<defs>
<clipPath id="clip0_1363_1197">
<rect width="25.87" height="25.87" fill="white"/>
</clipPath>
</defs>
</svg>
