<svg width="35" height="35" viewBox="0 0 35 35" fill="none" xmlns="http://www.w3.org/2000/svg">
<g clip-path="url(#clip0_1364_1201)">
<path d="M8.8127 22.5773C7.31859 21.1972 6.17895 19.4774 5.49021 17.5636C4.80148 15.6498 4.58392 13.5982 4.85595 11.5825C5.12492 9.53864 5.88549 7.59046 7.07245 5.90496C8.25941 4.21946 9.83736 2.84691 11.6711 1.90495C13.5048 0.962981 15.5396 0.479697 17.601 0.496518C19.6624 0.513339 21.689 1.02976 23.5071 2.00152C25.3252 2.97329 26.8806 4.37141 28.0399 6.07605C29.1992 7.7807 29.9278 9.74103 30.1634 11.789C30.399 13.837 30.1345 15.9116 29.3925 17.835C28.6506 19.7583 27.4533 21.4731 25.9034 22.8323C24.9053 23.6903 24.1304 24.7778 23.6452 26.0014H18.9164V15.824C19.7421 15.5321 20.4576 14.9921 20.9647 14.278C21.4719 13.5639 21.7461 12.7106 21.7497 11.8347C21.7497 11.459 21.6004 11.0986 21.3348 10.833C21.0691 10.5673 20.7088 10.418 20.333 10.418C19.9573 10.418 19.597 10.5673 19.3313 10.833C19.0656 11.0986 18.9164 11.459 18.9164 11.8347C18.9164 12.2104 18.7671 12.5707 18.5014 12.8364C18.2358 13.1021 17.8754 13.2514 17.4997 13.2514C17.124 13.2514 16.7636 13.1021 16.498 12.8364C16.2323 12.5707 16.083 12.2104 16.083 11.8347C16.083 11.459 15.9338 11.0986 15.6681 10.833C15.4024 10.5673 15.0421 10.418 14.6664 10.418C14.2906 10.418 13.9303 10.5673 13.6646 10.833C13.399 11.0986 13.2497 11.459 13.2497 11.8347C13.2533 12.7106 13.5275 13.5639 14.0347 14.278C14.5418 14.9921 15.2572 15.5321 16.083 15.824V26.0014H11.2139C10.6723 24.6988 9.85284 23.5302 8.8127 22.5773ZM11.833 28.8347V29.2739C11.8345 30.6598 12.3858 31.9886 13.3658 32.9686C14.3458 33.9486 15.6746 34.4999 17.0605 34.5014H17.9389C19.3248 34.4999 20.6536 33.9486 21.6336 32.9686C22.6136 31.9886 23.1649 30.6598 23.1664 29.2739V28.8347H11.833Z" fill="#35B2C2"/>
</g>
<defs>
<clipPath id="clip0_1364_1201">
<rect width="34" height="34" fill="white" transform="translate(0.5 0.5)"/>
</clipPath>
</defs>
</svg>
