<svg width="96" height="96" viewBox="0 0 96 96" fill="none" xmlns="http://www.w3.org/2000/svg">
<path d="M75.3859 72.5304C75.2806 73.2104 74.7117 73.6868 74.1152 73.5945C73.5187 73.5021 73.1204 72.876 73.2257 72.196C73.331 71.516 73.8998 71.0395 74.4964 71.1319C75.0929 71.2242 75.4911 71.8503 75.3859 72.5304Z" fill="white"/>
<path d="M77.6447 68.5774C77.5394 69.2574 76.9705 69.7339 76.374 69.6415C75.7775 69.5492 75.3793 68.9231 75.4845 68.2431C75.5898 67.563 76.1587 67.0866 76.7552 67.1789C77.3517 67.2713 77.75 67.8974 77.6447 68.5774Z" fill="white"/>
<path d="M79.527 64.6245C79.4218 65.3045 78.8529 65.7809 78.2564 65.6886C77.6599 65.5962 77.2616 64.9701 77.3669 64.2901C77.4721 63.6101 78.041 63.1337 78.6375 63.226C79.2341 63.3183 79.6323 63.9444 79.527 64.6245Z" fill="white"/>
<path d="M80.8447 60.2951C80.7394 60.9751 80.1705 61.4515 79.574 61.3592C78.9775 61.2668 78.5793 60.6407 78.6845 59.9607C78.7898 59.2807 79.3587 58.8043 79.9552 58.8966C80.5517 58.9889 80.95 59.615 80.8447 60.2951Z" fill="white"/>
<path d="M81.7859 55.9656C81.6806 56.6457 81.1117 57.1221 80.5152 57.0298C79.9187 56.9374 79.5204 56.3113 79.6257 55.6313C79.7309 54.9513 80.2999 54.4748 80.8964 54.5672C81.4929 54.6595 81.8911 55.2856 81.7859 55.9656Z" fill="white"/>
<path d="M82.1623 51.6362C82.0571 52.3163 81.4882 52.7927 80.8917 52.7003C80.2952 52.608 79.8969 51.9819 80.0022 51.3019C80.1074 50.6218 80.6763 50.1454 81.2728 50.2378C81.8694 50.3301 82.2676 50.9562 82.1623 51.6362Z" fill="white"/>
<path d="M82.3506 47.1186C82.2453 47.7986 81.6764 48.275 81.0799 48.1827C80.4834 48.0904 80.0851 47.4642 80.1904 46.7842C80.2957 46.1042 80.8646 45.6278 81.4611 45.7201C82.0576 45.8125 82.4558 46.4386 82.3506 47.1186Z" fill="white"/>
<path d="M81.9741 42.7892C81.8689 43.4692 81.3 43.9456 80.7034 43.8533C80.1069 43.7609 79.7087 43.1348 79.8139 42.4548C79.9192 41.7748 80.4881 41.2984 81.0846 41.3907C81.6811 41.483 82.0794 42.1092 81.9741 42.7892Z" fill="white"/>
<path d="M81.0329 38.648C80.9277 39.328 80.3588 39.8044 79.7623 39.7121C79.1657 39.6198 78.7675 38.9937 78.8728 38.3136C78.978 37.6336 79.5469 37.1572 80.1434 37.2495C80.7399 37.3419 81.1382 37.968 81.0329 38.648Z" fill="white"/>
<path d="M79.7153 34.5068C79.61 35.1868 79.0411 35.6633 78.4446 35.5709C77.8481 35.4786 77.4498 34.8525 77.5551 34.1725C77.6604 33.4924 78.2293 33.016 78.8258 33.1084C79.4223 33.2007 79.8205 33.8268 79.7153 34.5068Z" fill="white"/>
<path d="M78.0212 30.7421C77.9159 31.4221 77.347 31.8986 76.7505 31.8062C76.154 31.7139 75.7557 31.0878 75.861 30.4078C75.9662 29.7277 76.5351 29.2513 77.1317 29.3436C77.7282 29.436 78.1264 30.0621 78.0212 30.7421Z" fill="white"/>
<path d="M75.9506 27.1656C75.8453 27.8457 75.2764 28.3221 74.6799 28.2298C74.0834 28.1374 73.6851 27.5113 73.7904 26.8313C73.8957 26.1513 74.4646 25.6748 75.0611 25.7672C75.6576 25.8595 76.0558 26.4856 75.9506 27.1656Z" fill="white"/>
<path d="M73.5035 23.9657C73.3983 24.6457 72.8294 25.1221 72.2328 25.0298C71.6363 24.9374 71.2381 24.3113 71.3433 23.6313C71.4486 22.9513 72.0175 22.4748 72.614 22.5672C73.2105 22.6595 73.6088 23.2856 73.5035 23.9657Z" fill="white"/>
<path d="M70.68 21.1421C70.5747 21.8221 70.0058 22.2986 69.4093 22.2062C68.8128 22.1139 68.4146 21.4878 68.5198 20.8078C68.6251 20.1277 69.194 19.6513 69.7905 19.7436C70.387 19.836 70.7853 20.4621 70.68 21.1421Z" fill="white"/>
<path d="M67.48 18.6951C67.3747 19.3751 66.8058 19.8515 66.2093 19.7592C65.6128 19.6668 65.2146 19.0407 65.3198 18.3607C65.4251 17.6807 65.994 17.2043 66.5905 17.2966C67.187 17.3889 67.5853 18.015 67.48 18.6951Z" fill="white"/>
<path d="M64.0918 16.6245C63.9865 17.3045 63.4176 17.7809 62.8211 17.6886C62.2246 17.5962 61.8263 16.9701 61.9316 16.2901C62.0368 15.6101 62.6057 15.1337 63.2023 15.226C63.7988 15.3183 64.197 15.9445 64.0918 16.6245Z" fill="white"/>
<path d="M60.5153 15.1186C60.41 15.7986 59.8411 16.275 59.2446 16.1827C58.6481 16.0904 58.2498 15.4642 58.3551 14.7842C58.4604 14.1042 59.0293 13.6278 59.6258 13.7201C60.2223 13.8125 60.6205 14.4386 60.5153 15.1186Z" fill="white"/>
<path d="M56.7506 14.1774C56.6453 14.8574 56.0764 15.3339 55.4799 15.2415C54.8834 15.1492 54.4851 14.5231 54.5904 13.843C54.6957 13.163 55.2646 12.6866 55.8611 12.7789C56.4576 12.8713 56.8558 13.4974 56.7506 14.1774Z" fill="white"/>
<path d="M52.7976 13.6127C52.6924 14.2927 52.1235 14.7691 51.527 14.6768C50.9304 14.5845 50.5322 13.9584 50.6375 13.2783C50.7427 12.5983 51.3116 12.1219 51.9081 12.2142C52.5047 12.3066 52.9029 12.9327 52.7976 13.6127Z" fill="white"/>
<path d="M48.8447 13.6127C48.7394 14.2927 48.1705 14.7691 47.574 14.6768C46.9775 14.5845 46.5793 13.9584 46.6845 13.2783C46.7898 12.5983 47.3587 12.1219 47.9552 12.2142C48.5517 12.3066 48.95 12.9327 48.8447 13.6127Z" fill="white"/>
<path d="M45.08 13.9892C44.9747 14.6692 44.4058 15.1456 43.8093 15.0533C43.2128 14.961 42.8146 14.3348 42.9198 13.6548C43.0251 12.9748 43.594 12.4984 44.1905 12.5907C44.787 12.683 45.1852 13.3092 45.08 13.9892Z" fill="white"/>
<path d="M41.1271 14.9304C41.0218 15.6104 40.4529 16.0868 39.8564 15.9945C39.2599 15.9021 38.8616 15.276 38.9669 14.596C39.0721 13.916 39.641 13.4396 40.2375 13.5319C40.8341 13.6242 41.2323 14.2503 41.1271 14.9304Z" fill="white"/>
<path d="M37.3623 16.4362C37.2571 17.1163 36.6882 17.5927 36.0917 17.5003C35.4951 17.408 35.0969 16.7819 35.2022 16.1019C35.3074 15.4218 35.8763 14.9454 36.4728 15.0378C37.0694 15.1301 37.4676 15.7562 37.3623 16.4362Z" fill="white"/>
<path d="M33.7859 18.3186C33.6806 18.9986 33.1117 19.475 32.5152 19.3827C31.9187 19.2904 31.5204 18.6642 31.6257 17.9842C31.731 17.3042 32.2999 16.8278 32.8964 16.9201C33.4929 17.0125 33.8911 17.6386 33.7859 18.3186Z" fill="white"/>
<path d="M30.2094 20.7656C30.1041 21.4457 29.5352 21.9221 28.9387 21.8298C28.3422 21.7374 27.944 21.1113 28.0492 20.4313C28.1545 19.7513 28.7234 19.2748 29.3199 19.3672C29.9164 19.4595 30.3147 20.0856 30.2094 20.7656Z" fill="white"/>
<path d="M27.1976 23.5892C27.0924 24.2692 26.5235 24.7456 25.927 24.6533C25.3304 24.5609 24.9322 23.9348 25.0375 23.2548C25.1427 22.5748 25.7116 22.0984 26.3081 22.1907C26.9047 22.283 27.3029 22.9092 27.1976 23.5892Z" fill="white"/>
<path d="M24.1859 26.7892C24.0806 27.4692 23.5117 27.9456 22.9152 27.8533C22.3187 27.7609 21.9204 27.1348 22.0257 26.4548C22.1309 25.7748 22.6999 25.2984 23.2964 25.3907C23.8929 25.483 24.2911 26.1092 24.1859 26.7892Z" fill="white"/>
<path d="M21.5506 30.3656C21.4453 31.0457 20.8764 31.5221 20.2799 31.4298C19.6834 31.3374 19.2851 30.7113 19.3904 30.0313C19.4957 29.3513 20.0646 28.8748 20.6611 28.9672C21.2576 29.0595 21.6558 29.6856 21.5506 30.3656Z" fill="white"/>
<path d="M19.48 34.3186C19.3747 34.9986 18.8058 35.475 18.2093 35.3827C17.6128 35.2904 17.2146 34.6642 17.3198 33.9842C17.4251 33.3042 17.994 32.8278 18.5905 32.9201C19.187 33.0125 19.5852 33.6386 19.48 34.3186Z" fill="white"/>
<path d="M17.7859 38.2715C17.6806 38.9516 17.1117 39.428 16.5152 39.3356C15.9187 39.2433 15.5204 38.6172 15.6257 37.9372C15.731 37.2571 16.2999 36.7807 16.8964 36.8731C17.4929 36.9654 17.8911 37.5915 17.7859 38.2715Z" fill="white"/>
<path d="M16.28 42.4127C16.1747 43.0927 15.6058 43.5691 15.0093 43.4768C14.4128 43.3845 14.0146 42.7584 14.1198 42.0783C14.2251 41.3983 14.794 40.9219 15.3905 41.0142C15.987 41.1066 16.3852 41.7327 16.28 42.4127Z" fill="white"/>
<path d="M15.3388 46.7421C15.2336 47.4221 14.6647 47.8986 14.0681 47.8062C13.4716 47.7139 13.0734 47.0878 13.1786 46.4078C13.2839 45.7277 13.8528 45.2513 14.4493 45.3437C15.0458 45.436 15.4441 46.0621 15.3388 46.7421Z" fill="white"/>
<path d="M14.7741 51.2598C14.6689 51.9398 14.1 52.4162 13.5034 52.3239C12.9069 52.2315 12.5087 51.6054 12.6139 50.9254C12.7192 50.2454 13.2881 49.769 13.8846 49.8613C14.4811 49.9536 14.8794 50.5797 14.7741 51.2598Z" fill="white"/>
<path d="M14.7741 55.7774C14.6689 56.4574 14.1 56.9339 13.5034 56.8415C12.9069 56.7492 12.5087 56.1231 12.6139 55.4431C12.7192 54.763 13.2881 54.2866 13.8846 54.3789C14.4811 54.4713 14.8794 55.0974 14.7741 55.7774Z" fill="white"/>
<path d="M15.1506 60.1068C15.0453 60.7868 14.4764 61.2633 13.8799 61.1709C13.2834 61.0786 12.8851 60.4525 12.9904 59.7725C13.0957 59.0924 13.6646 58.616 14.2611 58.7084C14.8576 58.8007 15.2558 59.4268 15.1506 60.1068Z" fill="white"/>
<path d="M16.0918 64.4362C15.9865 65.1163 15.4176 65.5927 14.8211 65.5003C14.2246 65.408 13.8263 64.7819 13.9316 64.1019C14.0368 63.4219 14.6057 62.9454 15.2023 63.0378C15.7988 63.1301 16.197 63.7562 16.0918 64.4362Z" fill="white"/>
<path d="M17.4094 68.2009C17.3041 68.881 16.7352 69.3574 16.1387 69.265C15.5422 69.1727 15.144 68.5466 15.2492 67.8666C15.3545 67.1866 15.9234 66.7101 16.5199 66.8025C17.1164 66.8948 17.5147 67.5209 17.4094 68.2009Z" fill="white"/>
<path d="M19.1035 72.1539C18.9983 72.8339 18.4294 73.3103 17.8328 73.218C17.2363 73.1257 16.8381 72.4995 16.9433 71.8195C17.0486 71.1395 17.6175 70.6631 18.214 70.7554C18.8105 70.8477 19.2088 71.4739 19.1035 72.1539Z" fill="white"/>
<path d="M21.1741 75.7304C21.0689 76.4104 20.4999 76.8868 19.9034 76.7945C19.3069 76.7021 18.9087 76.076 19.0139 75.396C19.1192 74.716 19.6881 74.2395 20.2846 74.3319C20.8811 74.4242 21.2794 75.0503 21.1741 75.7304Z" fill="white"/>
<path d="M23.6212 78.9304C23.5159 79.6104 22.947 80.0868 22.3505 79.9945C21.754 79.9021 21.3557 79.276 21.461 78.596C21.5662 77.916 22.1351 77.4395 22.7317 77.5319C23.3282 77.6242 23.7264 78.2503 23.6212 78.9304Z" fill="white"/>
<path d="M26.6329 81.7539C26.5277 82.4339 25.9588 82.9103 25.3623 82.818C24.7657 82.7257 24.3675 82.0995 24.4728 81.4195C24.578 80.7395 25.1469 80.2631 25.7434 80.3554C26.3399 80.4477 26.7382 81.0739 26.6329 81.7539Z" fill="white"/>
<path d="M29.6447 84.2009C29.5394 84.881 28.9705 85.3574 28.374 85.265C27.7775 85.1727 27.3793 84.5466 27.4845 83.8666C27.5898 83.1866 28.1587 82.7101 28.7552 82.8025C29.3517 82.8948 29.75 83.5209 29.6447 84.2009Z" fill="white"/>
<path d="M33.0329 86.2715C32.9277 86.9516 32.3588 87.428 31.7623 87.3356C31.1657 87.2433 30.7675 86.6172 30.8728 85.9372C30.978 85.2571 31.5469 84.7807 32.1434 84.8731C32.7399 84.9654 33.1382 85.5915 33.0329 86.2715Z" fill="white"/>
<path d="M36.6094 87.7774C36.5041 88.4574 35.9352 88.9339 35.3387 88.8415C34.7422 88.7492 34.344 88.1231 34.4492 87.443C34.5545 86.763 35.1234 86.2866 35.7199 86.3789C36.3164 86.4713 36.7147 87.0974 36.6094 87.7774Z" fill="white"/>
<path d="M40.3741 88.7186C40.2689 89.3986 39.6999 89.875 39.1034 89.7827C38.5069 89.6904 38.1087 89.0642 38.2139 88.3842C38.3192 87.7042 38.8881 87.2278 39.4846 87.3201C40.0811 87.4124 40.4794 88.0386 40.3741 88.7186Z" fill="white"/>
<path d="M44.327 89.2833C44.2218 89.9633 43.6529 90.4397 43.0564 90.3474C42.4599 90.2551 42.0616 89.629 42.1669 88.9489C42.2721 88.2689 42.841 87.7925 43.4375 87.8848C44.0341 87.9772 44.4323 88.6033 44.327 89.2833Z" fill="white"/>
<path d="M48.0918 89.2833C47.9865 89.9633 47.4176 90.4397 46.8211 90.3474C46.2246 90.2551 45.8263 89.629 45.9316 88.9489C46.0368 88.2689 46.6057 87.7925 47.2023 87.8848C47.7988 87.9772 48.197 88.6033 48.0918 89.2833Z" fill="white"/>
<path d="M52.0447 88.9068C51.9394 89.5868 51.3705 90.0633 50.774 89.9709C50.1775 89.8786 49.7793 89.2525 49.8845 88.5725C49.9898 87.8924 50.5587 87.416 51.1552 87.5084C51.7517 87.6007 52.15 88.2268 52.0447 88.9068Z" fill="white"/>
<path d="M55.9976 87.9656C55.8924 88.6457 55.3235 89.1221 54.727 89.0298C54.1304 88.9374 53.7322 88.3113 53.8375 87.6313C53.9427 86.9513 54.5116 86.4748 55.1081 86.5672C55.7047 86.6595 56.1029 87.2856 55.9976 87.9656Z" fill="white"/>
<path d="M59.7623 86.4598C59.6571 87.1398 59.0882 87.6162 58.4917 87.5239C57.8952 87.4315 57.4969 86.8054 57.6022 86.1254C57.7074 85.4454 58.2763 84.969 58.8728 85.0613C59.4694 85.1536 59.8676 85.7797 59.7623 86.4598Z" fill="white"/>
<path d="M63.3388 84.3892C63.2336 85.0692 62.6647 85.5456 62.0681 85.4533C61.4716 85.361 61.0734 84.7348 61.1786 84.0548C61.2839 83.3748 61.8528 82.8984 62.4493 82.9907C63.0458 83.083 63.4441 83.7092 63.3388 84.3892Z" fill="white"/>
<path d="M66.727 81.9421C66.6218 82.6221 66.0529 83.0986 65.4564 83.0062C64.8599 82.9139 64.4616 82.2878 64.5669 81.6078C64.6721 80.9277 65.241 80.4513 65.8375 80.5436C66.4341 80.636 66.8323 81.2621 66.727 81.9421Z" fill="white"/>
<path d="M69.927 79.1186C69.8218 79.7986 69.2529 80.275 68.6564 80.1827C68.0599 80.0904 67.6616 79.4642 67.7669 78.7842C67.8721 78.1042 68.441 77.6278 69.0375 77.7201C69.6341 77.8125 70.0323 78.4386 69.927 79.1186Z" fill="white"/>
<path d="M72.9388 76.1068C72.8336 76.7868 72.2647 77.2633 71.6681 77.1709C71.0716 77.0786 70.6734 76.4525 70.7786 75.7725C70.8839 75.0924 71.4528 74.616 72.0493 74.7084C72.6458 74.8007 73.0441 75.4268 72.9388 76.1068Z" fill="white"/>
<path d="M36.3294 92.7059C36.3294 93.5895 35.6131 94.3059 34.7294 94.3059C33.8458 94.3059 33.1294 93.5895 33.1294 92.7059C33.1294 91.8222 33.8458 91.1059 34.7294 91.1059C35.6131 91.1059 36.3294 91.8222 36.3294 92.7059Z" fill="white"/>
<path d="M41.6 93.8353C41.6 94.719 40.8837 95.4353 40 95.4353C39.1163 95.4353 38.4 94.719 38.4 93.8353C38.4 92.9516 39.1163 92.2353 40 92.2353C40.8837 92.2353 41.6 92.9516 41.6 93.8353Z" fill="white"/>
<path d="M46.8706 94.4C46.8706 95.2837 46.1542 96 45.2706 96C44.3869 96 43.6706 95.2837 43.6706 94.4C43.6706 93.5163 44.3869 92.8 45.2706 92.8C46.1542 92.8 46.8706 93.5163 46.8706 94.4Z" fill="white"/>
<path d="M52.5176 94.4C52.5176 95.2837 51.8013 96 50.9176 96C50.034 96 49.3176 95.2837 49.3176 94.4C49.3176 93.5163 50.034 92.8 50.9176 92.8C51.8013 92.8 52.5176 93.5163 52.5176 94.4Z" fill="white"/>
<path d="M57.7882 93.8353C57.7882 94.719 57.0719 95.4353 56.1882 95.4353C55.3046 95.4353 54.5882 94.719 54.5882 93.8353C54.5882 92.9516 55.3046 92.2353 56.1882 92.2353C57.0719 92.2353 57.7882 92.9516 57.7882 93.8353Z" fill="white"/>
<path d="M63.0588 92.7059C63.0588 93.5895 62.3425 94.3059 61.4588 94.3059C60.5752 94.3059 59.8588 93.5895 59.8588 92.7059C59.8588 91.8222 60.5752 91.1059 61.4588 91.1059C62.3425 91.1059 63.0588 91.8222 63.0588 92.7059Z" fill="white"/>
<path d="M68.1412 90.6353C68.1412 91.5189 67.4248 92.2353 66.5412 92.2353C65.6575 92.2353 64.9412 91.5189 64.9412 90.6353C64.9412 89.7516 65.6575 89.0353 66.5412 89.0353C67.4248 89.0353 68.1412 89.7516 68.1412 90.6353Z" fill="white"/>
<path d="M73.0353 88.3765C73.0353 89.2601 72.3189 89.9765 71.4353 89.9765C70.5516 89.9765 69.8353 89.2601 69.8353 88.3765C69.8353 87.4928 70.5516 86.7765 71.4353 86.7765C72.3189 86.7765 73.0353 87.4928 73.0353 88.3765Z" fill="white"/>
<path d="M77.5529 85.1765C77.5529 86.0601 76.8366 86.7765 75.9529 86.7765C75.0693 86.7765 74.3529 86.0601 74.3529 85.1765C74.3529 84.2928 75.0693 83.5765 75.9529 83.5765C76.8366 83.5765 77.5529 84.2928 77.5529 85.1765Z" fill="white"/>
<path d="M81.6941 81.9765C81.6941 82.8601 80.9778 83.5765 80.0941 83.5765C79.2105 83.5765 78.4941 82.8601 78.4941 81.9765C78.4941 81.0928 79.2105 80.3765 80.0941 80.3765C80.9778 80.3765 81.6941 81.0928 81.6941 81.9765Z" fill="white"/>
<path d="M85.4588 77.8353C85.4588 78.719 84.7425 79.4353 83.8588 79.4353C82.9752 79.4353 82.2588 78.719 82.2588 77.8353C82.2588 76.9516 82.9752 76.2353 83.8588 76.2353C84.7425 76.2353 85.4588 76.9516 85.4588 77.8353Z" fill="white"/>
<path d="M88.6588 73.5059C88.6588 74.3895 87.9425 75.1059 87.0588 75.1059C86.1752 75.1059 85.4588 74.3895 85.4588 73.5059C85.4588 72.6222 86.1752 71.9059 87.0588 71.9059C87.9425 71.9059 88.6588 72.6222 88.6588 73.5059Z" fill="white"/>
<path d="M91.2941 68.8C91.2941 69.6837 90.5778 70.4 89.6941 70.4C88.8105 70.4 88.0941 69.6837 88.0941 68.8C88.0941 67.9163 88.8105 67.2 89.6941 67.2C90.5778 67.2 91.2941 67.9163 91.2941 68.8Z" fill="white"/>
<path d="M93.5529 63.9059C93.5529 64.7895 92.8366 65.5059 91.9529 65.5059C91.0693 65.5059 90.3529 64.7895 90.3529 63.9059C90.3529 63.0222 91.0693 62.3059 91.9529 62.3059C92.8366 62.3059 93.5529 63.0222 93.5529 63.9059Z" fill="white"/>
<path d="M95.0588 58.8235C95.0588 59.7072 94.3425 60.4235 93.4588 60.4235C92.5752 60.4235 91.8588 59.7072 91.8588 58.8235C91.8588 57.9399 92.5752 57.2235 93.4588 57.2235C94.3425 57.2235 95.0588 57.9399 95.0588 58.8235Z" fill="white"/>
<path d="M96 53.3647C96 54.2484 95.2837 54.9647 94.4 54.9647C93.5163 54.9647 92.8 54.2484 92.8 53.3647C92.8 52.481 93.5163 51.7647 94.4 51.7647C95.2837 51.7647 96 52.481 96 53.3647Z" fill="white"/>
<path d="M96 47.9059C96 48.7895 95.2837 49.5059 94.4 49.5059C93.5163 49.5059 92.8 48.7895 92.8 47.9059C92.8 47.0222 93.5163 46.3059 94.4 46.3059C95.2837 46.3059 96 47.0222 96 47.9059Z" fill="white"/>
<path d="M96 42.4471C96 43.3307 95.2837 44.0471 94.4 44.0471C93.5163 44.0471 92.8 43.3307 92.8 42.4471C92.8 41.5634 93.5163 40.8471 94.4 40.8471C95.2837 40.8471 96 41.5634 96 42.4471Z" fill="white"/>
<path d="M95.0588 37.3647C95.0588 38.2484 94.3425 38.9647 93.4588 38.9647C92.5752 38.9647 91.8588 38.2484 91.8588 37.3647C91.8588 36.4811 92.5752 35.7647 93.4588 35.7647C94.3425 35.7647 95.0588 36.4811 95.0588 37.3647Z" fill="white"/>
<path d="M93.5529 31.9059C93.5529 32.7895 92.8366 33.5059 91.9529 33.5059C91.0693 33.5059 90.3529 32.7895 90.3529 31.9059C90.3529 31.0222 91.0693 30.3059 91.9529 30.3059C92.8366 30.3059 93.5529 31.0222 93.5529 31.9059Z" fill="white"/>
<path d="M91.2941 27.2C91.2941 28.0837 90.5778 28.8 89.6941 28.8C88.8105 28.8 88.0941 28.0837 88.0941 27.2C88.0941 26.3163 88.8105 25.6 89.6941 25.6C90.5778 25.6 91.2941 26.3163 91.2941 27.2Z" fill="white"/>
<path d="M88.6588 22.4941C88.6588 23.3778 87.9425 24.0941 87.0588 24.0941C86.1752 24.0941 85.4588 23.3778 85.4588 22.4941C85.4588 21.6105 86.1752 20.8941 87.0588 20.8941C87.9425 20.8941 88.6588 21.6105 88.6588 22.4941Z" fill="white"/>
<path d="M85.4588 18.3529C85.4588 19.2366 84.7425 19.9529 83.8588 19.9529C82.9752 19.9529 82.2588 19.2366 82.2588 18.3529C82.2588 17.4693 82.9752 16.7529 83.8588 16.7529C84.7425 16.7529 85.4588 17.4693 85.4588 18.3529Z" fill="white"/>
<path d="M81.5059 14.0235C81.5059 14.9072 80.7895 15.6235 79.9059 15.6235C79.0222 15.6235 78.3059 14.9072 78.3059 14.0235C78.3059 13.1399 79.0222 12.4235 79.9059 12.4235C80.7895 12.4235 81.5059 13.1399 81.5059 14.0235Z" fill="white"/>
<path d="M77.5529 10.8235C77.5529 11.7072 76.8366 12.4235 75.9529 12.4235C75.0693 12.4235 74.3529 11.7072 74.3529 10.8235C74.3529 9.93987 75.0693 9.22353 75.9529 9.22353C76.8366 9.22353 77.5529 9.93987 77.5529 10.8235Z" fill="white"/>
<path d="M73.0353 7.62353C73.0353 8.50719 72.3189 9.22353 71.4353 9.22353C70.5516 9.22353 69.8353 8.50719 69.8353 7.62353C69.8353 6.73987 70.5516 6.02353 71.4353 6.02353C72.3189 6.02353 73.0353 6.73987 73.0353 7.62353Z" fill="white"/>
<path d="M68.3294 5.36471C68.3294 6.24836 67.6131 6.96471 66.7294 6.96471C65.8458 6.96471 65.1294 6.24836 65.1294 5.36471C65.1294 4.48105 65.8458 3.76471 66.7294 3.76471C67.6131 3.76471 68.3294 4.48105 68.3294 5.36471Z" fill="white"/>
<path d="M63.0588 3.29412C63.0588 4.17777 62.3425 4.89412 61.4588 4.89412C60.5752 4.89412 59.8588 4.17777 59.8588 3.29412C59.8588 2.41046 60.5752 1.69412 61.4588 1.69412C62.3425 1.69412 63.0588 2.41046 63.0588 3.29412Z" fill="white"/>
<path d="M57.9765 2.16471C57.9765 3.04836 57.2601 3.76471 56.3765 3.76471C55.4928 3.76471 54.7765 3.04836 54.7765 2.16471C54.7765 1.28105 55.4928 0.564706 56.3765 0.564706C57.2601 0.564706 57.9765 1.28105 57.9765 2.16471Z" fill="white"/>
<path d="M52.3294 1.6C52.3294 2.48366 51.6131 3.2 50.7294 3.2C49.8458 3.2 49.1294 2.48366 49.1294 1.6C49.1294 0.716344 49.8458 0 50.7294 0C51.6131 0 52.3294 0.716344 52.3294 1.6Z" fill="white"/>
<path d="M47.2471 1.6C47.2471 2.48366 46.5307 3.2 45.6471 3.2C44.7634 3.2 44.0471 2.48366 44.0471 1.6C44.0471 0.716344 44.7634 0 45.6471 0C46.5307 0 47.2471 0.716344 47.2471 1.6Z" fill="white"/>
<path d="M41.6 2.16471C41.6 3.04836 40.8837 3.76471 40 3.76471C39.1163 3.76471 38.4 3.04836 38.4 2.16471C38.4 1.28105 39.1163 0.564706 40 0.564706C40.8837 0.564706 41.6 1.28105 41.6 2.16471Z" fill="white"/>
<path d="M36.3294 3.29412C36.3294 4.17777 35.6131 4.89412 34.7294 4.89412C33.8458 4.89412 33.1294 4.17777 33.1294 3.29412C33.1294 2.41046 33.8458 1.69412 34.7294 1.69412C35.6131 1.69412 36.3294 2.41046 36.3294 3.29412Z" fill="white"/>
<path d="M31.4353 5.36471C31.4353 6.24836 30.719 6.96471 29.8353 6.96471C28.9516 6.96471 28.2353 6.24836 28.2353 5.36471C28.2353 4.48105 28.9516 3.76471 29.8353 3.76471C30.719 3.76471 31.4353 4.48105 31.4353 5.36471Z" fill="white"/>
<path d="M26.3529 7.81176C26.3529 8.69542 25.6366 9.41176 24.7529 9.41176C23.8693 9.41176 23.1529 8.69542 23.1529 7.81176C23.1529 6.92811 23.8693 6.21176 24.7529 6.21176C25.6366 6.21176 26.3529 6.92811 26.3529 7.81176Z" fill="white"/>
<path d="M21.8353 10.6353C21.8353 11.5189 21.1189 12.2353 20.2353 12.2353C19.3516 12.2353 18.6353 11.5189 18.6353 10.6353C18.6353 9.75164 19.3516 9.03529 20.2353 9.03529C21.1189 9.03529 21.8353 9.75164 21.8353 10.6353Z" fill="white"/>
<path d="M17.6941 14.2118C17.6941 15.0954 16.9778 15.8118 16.0941 15.8118C15.2105 15.8118 14.4941 15.0954 14.4941 14.2118C14.4941 13.3281 15.2105 12.6118 16.0941 12.6118C16.9778 12.6118 17.6941 13.3281 17.6941 14.2118Z" fill="white"/>
<path d="M14.1176 18.1647C14.1176 19.0484 13.4013 19.7647 12.5176 19.7647C11.634 19.7647 10.9176 19.0484 10.9176 18.1647C10.9176 17.2811 11.634 16.5647 12.5176 16.5647C13.4013 16.5647 14.1176 17.2811 14.1176 18.1647Z" fill="white"/>
<path d="M10.9176 22.4941C10.9176 23.3778 10.2013 24.0941 9.31765 24.0941C8.43399 24.0941 7.71765 23.3778 7.71765 22.4941C7.71765 21.6105 8.43399 20.8941 9.31765 20.8941C10.2013 20.8941 10.9176 21.6105 10.9176 22.4941Z" fill="white"/>
<path d="M8.09412 27.2C8.09412 28.0837 7.37777 28.8 6.49412 28.8C5.61046 28.8 4.89412 28.0837 4.89412 27.2C4.89412 26.3163 5.61046 25.6 6.49412 25.6C7.37777 25.6 8.09412 26.3163 8.09412 27.2Z" fill="white"/>
<path d="M5.83529 32.0941C5.83529 32.9778 5.11895 33.6941 4.23529 33.6941C3.35164 33.6941 2.63529 32.9778 2.63529 32.0941C2.63529 31.2105 3.35164 30.4941 4.23529 30.4941C5.11895 30.4941 5.83529 31.2105 5.83529 32.0941Z" fill="white"/>
<path d="M4.32941 37.1765C4.32941 38.0601 3.61307 38.7765 2.72941 38.7765C1.84576 38.7765 1.12941 38.0601 1.12941 37.1765C1.12941 36.2928 1.84576 35.5765 2.72941 35.5765C3.61307 35.5765 4.32941 36.2928 4.32941 37.1765Z" fill="white"/>
<path d="M3.57647 42.8235C3.57647 43.7072 2.86013 44.4235 1.97647 44.4235C1.09281 44.4235 0.376471 43.7072 0.376471 42.8235C0.376471 41.9399 1.09281 41.2235 1.97647 41.2235C2.86013 41.2235 3.57647 41.9399 3.57647 42.8235Z" fill="white"/>
<path d="M3.2 48.2824C3.2 49.166 2.48366 49.8824 1.6 49.8824C0.716344 49.8824 0 49.166 0 48.2824C0 47.3987 0.716344 46.6824 1.6 46.6824C2.48366 46.6824 3.2 47.3987 3.2 48.2824Z" fill="white"/>
<path d="M3.57647 53.3647C3.57647 54.2484 2.86013 54.9647 1.97647 54.9647C1.09281 54.9647 0.376471 54.2484 0.376471 53.3647C0.376471 52.481 1.09281 51.7647 1.97647 51.7647C2.86013 51.7647 3.57647 52.481 3.57647 53.3647Z" fill="white"/>
<path d="M4.32941 58.8235C4.32941 59.7072 3.61307 60.4235 2.72941 60.4235C1.84576 60.4235 1.12941 59.7072 1.12941 58.8235C1.12941 57.9399 1.84576 57.2235 2.72941 57.2235C3.61307 57.2235 4.32941 57.9399 4.32941 58.8235Z" fill="white"/>
<path d="M6.02353 63.9059C6.02353 64.7895 5.30718 65.5059 4.42353 65.5059C3.53987 65.5059 2.82353 64.7895 2.82353 63.9059C2.82353 63.0222 3.53987 62.3059 4.42353 62.3059C5.30718 62.3059 6.02353 63.0222 6.02353 63.9059Z" fill="white"/>
<path d="M8.09412 68.8C8.09412 69.6837 7.37777 70.4 6.49412 70.4C5.61046 70.4 4.89412 69.6837 4.89412 68.8C4.89412 67.9163 5.61046 67.2 6.49412 67.2C7.37777 67.2 8.09412 67.9163 8.09412 68.8Z" fill="white"/>
<path d="M10.9176 73.5059C10.9176 74.3895 10.2013 75.1059 9.31765 75.1059C8.43399 75.1059 7.71765 74.3895 7.71765 73.5059C7.71765 72.6222 8.43399 71.9059 9.31765 71.9059C10.2013 71.9059 10.9176 72.6222 10.9176 73.5059Z" fill="white"/>
<path d="M14.1176 77.8353C14.1176 78.719 13.4013 79.4353 12.5176 79.4353C11.634 79.4353 10.9176 78.719 10.9176 77.8353C10.9176 76.9516 11.634 76.2353 12.5176 76.2353C13.4013 76.2353 14.1176 76.9516 14.1176 77.8353Z" fill="white"/>
<path d="M17.8824 81.9765C17.8824 82.8601 17.166 83.5765 16.2824 83.5765C15.3987 83.5765 14.6824 82.8601 14.6824 81.9765C14.6824 81.0928 15.3987 80.3765 16.2824 80.3765C17.166 80.3765 17.8824 81.0928 17.8824 81.9765Z" fill="white"/>
<path d="M21.8353 85.1765C21.8353 86.0601 21.1189 86.7765 20.2353 86.7765C19.3516 86.7765 18.6353 86.0601 18.6353 85.1765C18.6353 84.2928 19.3516 83.5765 20.2353 83.5765C21.1189 83.5765 21.8353 84.2928 21.8353 85.1765Z" fill="white"/>
<path d="M26.3529 88.3765C26.3529 89.2601 25.6366 89.9765 24.7529 89.9765C23.8693 89.9765 23.1529 89.2601 23.1529 88.3765C23.1529 87.4928 23.8693 86.7765 24.7529 86.7765C25.6366 86.7765 26.3529 87.4928 26.3529 88.3765Z" fill="white"/>
<path d="M31.4353 90.6353C31.4353 91.5189 30.719 92.2353 29.8353 92.2353C28.9516 92.2353 28.2353 91.5189 28.2353 90.6353C28.2353 89.7516 28.9516 89.0353 29.8353 89.0353C30.719 89.0353 31.4353 89.7516 31.4353 90.6353Z" fill="white"/>
<path d="M26.9176 43.2C26.9176 43.6678 26.5384 44.0471 26.0706 44.0471C25.6028 44.0471 25.2235 43.6678 25.2235 43.2C25.2235 42.7322 25.6028 42.3529 26.0706 42.3529C26.5384 42.3529 26.9176 42.7322 26.9176 43.2Z" fill="white"/>
<path d="M28.0471 40.5647C28.0471 41.0325 27.6678 41.4118 27.2 41.4118C26.7322 41.4118 26.3529 41.0325 26.3529 40.5647C26.3529 40.0969 26.7322 39.7176 27.2 39.7176C27.6678 39.7176 28.0471 40.0969 28.0471 40.5647Z" fill="white"/>
<path d="M29.7412 38.1176C29.7412 38.5855 29.3619 38.9647 28.8941 38.9647C28.4263 38.9647 28.0471 38.5855 28.0471 38.1176C28.0471 37.6498 28.4263 37.2706 28.8941 37.2706C29.3619 37.2706 29.7412 37.6498 29.7412 38.1176Z" fill="white"/>
<path d="M31.4353 35.8588C31.4353 36.3266 31.0561 36.7059 30.5882 36.7059C30.1204 36.7059 29.7412 36.3266 29.7412 35.8588C29.7412 35.391 30.1204 35.0118 30.5882 35.0118C31.0561 35.0118 31.4353 35.391 31.4353 35.8588Z" fill="white"/>
<path d="M33.5059 33.9765C33.5059 34.4443 33.1266 34.8235 32.6588 34.8235C32.191 34.8235 31.8118 34.4443 31.8118 33.9765C31.8118 33.5087 32.191 33.1294 32.6588 33.1294C33.1266 33.1294 33.5059 33.5087 33.5059 33.9765Z" fill="white"/>
<path d="M35.7647 32.2824C35.7647 32.7502 35.3855 33.1294 34.9176 33.1294C34.4498 33.1294 34.0706 32.7502 34.0706 32.2824C34.0706 31.8145 34.4498 31.4353 34.9176 31.4353C35.3855 31.4353 35.7647 31.8145 35.7647 32.2824Z" fill="white"/>
<path d="M38.4 30.7765C38.4 31.2443 38.0208 31.6235 37.5529 31.6235C37.0851 31.6235 36.7059 31.2443 36.7059 30.7765C36.7059 30.3087 37.0851 29.9294 37.5529 29.9294C38.0208 29.9294 38.4 30.3087 38.4 30.7765Z" fill="white"/>
<path d="M41.0353 29.8353C41.0353 30.3031 40.6561 30.6824 40.1882 30.6824C39.7204 30.6824 39.3412 30.3031 39.3412 29.8353C39.3412 29.3675 39.7204 28.9882 40.1882 28.9882C40.6561 28.9882 41.0353 29.3675 41.0353 29.8353Z" fill="white"/>
<path d="M43.6706 29.0824C43.6706 29.5502 43.2913 29.9294 42.8235 29.9294C42.3557 29.9294 41.9765 29.5502 41.9765 29.0824C41.9765 28.6145 42.3557 28.2353 42.8235 28.2353C43.2913 28.2353 43.6706 28.6145 43.6706 29.0824Z" fill="white"/>
<path d="M46.6824 28.7059C46.6824 29.1737 46.3031 29.5529 45.8353 29.5529C45.3675 29.5529 44.9882 29.1737 44.9882 28.7059C44.9882 28.2381 45.3675 27.8588 45.8353 27.8588C46.3031 27.8588 46.6824 28.2381 46.6824 28.7059Z" fill="white"/>
<path d="M49.5059 28.5176C49.5059 28.9855 49.1266 29.3647 48.6588 29.3647C48.191 29.3647 47.8118 28.9855 47.8118 28.5176C47.8118 28.0498 48.191 27.6706 48.6588 27.6706C49.1266 27.6706 49.5059 28.0498 49.5059 28.5176Z" fill="white"/>
<path d="M52.3294 28.8941C52.3294 29.3619 51.9502 29.7412 51.4824 29.7412C51.0145 29.7412 50.6353 29.3619 50.6353 28.8941C50.6353 28.4263 51.0145 28.0471 51.4824 28.0471C51.9502 28.0471 52.3294 28.4263 52.3294 28.8941Z" fill="white"/>
<path d="M55.1529 29.4588C55.1529 29.9266 54.7737 30.3059 54.3059 30.3059C53.8381 30.3059 53.4588 29.9266 53.4588 29.4588C53.4588 28.991 53.8381 28.6118 54.3059 28.6118C54.7737 28.6118 55.1529 28.991 55.1529 29.4588Z" fill="white"/>
<path d="M57.9765 30.4C57.9765 30.8678 57.5972 31.2471 57.1294 31.2471C56.6616 31.2471 56.2824 30.8678 56.2824 30.4C56.2824 29.9322 56.6616 29.5529 57.1294 29.5529C57.5972 29.5529 57.9765 29.9322 57.9765 30.4Z" fill="white"/>
<path d="M60.6118 31.9059C60.6118 32.3737 60.2325 32.7529 59.7647 32.7529C59.2969 32.7529 58.9176 32.3737 58.9176 31.9059C58.9176 31.4381 59.2969 31.0588 59.7647 31.0588C60.2325 31.0588 60.6118 31.4381 60.6118 31.9059Z" fill="white"/>
<path d="M63.0588 33.4118C63.0588 33.8796 62.6796 34.2588 62.2118 34.2588C61.7439 34.2588 61.3647 33.8796 61.3647 33.4118C61.3647 32.9439 61.7439 32.5647 62.2118 32.5647C62.6796 32.5647 63.0588 32.9439 63.0588 33.4118Z" fill="white"/>
<path d="M65.5059 35.2941C65.5059 35.7619 65.1266 36.1412 64.6588 36.1412C64.191 36.1412 63.8118 35.7619 63.8118 35.2941C63.8118 34.8263 64.191 34.4471 64.6588 34.4471C65.1266 34.4471 65.5059 34.8263 65.5059 35.2941Z" fill="white"/>
<path d="M67.5765 37.3647C67.5765 37.8325 67.1972 38.2118 66.7294 38.2118C66.2616 38.2118 65.8824 37.8325 65.8824 37.3647C65.8824 36.8969 66.2616 36.5176 66.7294 36.5176C67.1972 36.5176 67.5765 36.8969 67.5765 37.3647Z" fill="white"/>
<path d="M69.4588 39.8118C69.4588 40.2796 69.0796 40.6588 68.6118 40.6588C68.1439 40.6588 67.7647 40.2796 67.7647 39.8118C67.7647 39.3439 68.1439 38.9647 68.6118 38.9647C69.0796 38.9647 69.4588 39.3439 69.4588 39.8118Z" fill="white"/>
<path d="M71.1529 42.4471C71.1529 42.9149 70.7737 43.2941 70.3059 43.2941C69.8381 43.2941 69.4588 42.9149 69.4588 42.4471C69.4588 41.9792 69.8381 41.6 70.3059 41.6C70.7737 41.6 71.1529 41.9792 71.1529 42.4471Z" fill="white"/>
<path d="M72.4706 45.0824C72.4706 45.5502 72.0913 45.9294 71.6235 45.9294C71.1557 45.9294 70.7765 45.5502 70.7765 45.0824C70.7765 44.6145 71.1557 44.2353 71.6235 44.2353C72.0913 44.2353 72.4706 44.6145 72.4706 45.0824Z" fill="white"/>
<path d="M73.4118 47.9059C73.4118 48.3737 73.0325 48.7529 72.5647 48.7529C72.0969 48.7529 71.7176 48.3737 71.7176 47.9059C71.7176 47.4381 72.0969 47.0588 72.5647 47.0588C73.0325 47.0588 73.4118 47.4381 73.4118 47.9059Z" fill="white"/>
<path d="M74.1647 50.9176C74.1647 51.3855 73.7855 51.7647 73.3176 51.7647C72.8498 51.7647 72.4706 51.3855 72.4706 50.9176C72.4706 50.4498 72.8498 50.0706 73.3176 50.0706C73.7855 50.0706 74.1647 50.4498 74.1647 50.9176Z" fill="white"/>
<path d="M74.5412 53.9294C74.5412 54.3972 74.1619 54.7765 73.6941 54.7765C73.2263 54.7765 72.8471 54.3972 72.8471 53.9294C72.8471 53.4616 73.2263 53.0824 73.6941 53.0824C74.1619 53.0824 74.5412 53.4616 74.5412 53.9294Z" fill="white"/>
<path d="M74.5412 56.9412C74.5412 57.409 74.1619 57.7882 73.6941 57.7882C73.2263 57.7882 72.8471 57.409 72.8471 56.9412C72.8471 56.4734 73.2263 56.0941 73.6941 56.0941C74.1619 56.0941 74.5412 56.4734 74.5412 56.9412Z" fill="white"/>
<path d="M74.3529 59.9529C74.3529 60.4208 73.9737 60.8 73.5059 60.8C73.0381 60.8 72.6588 60.4208 72.6588 59.9529C72.6588 59.4851 73.0381 59.1059 73.5059 59.1059C73.9737 59.1059 74.3529 59.4851 74.3529 59.9529Z" fill="white"/>
<path d="M73.6 62.7765C73.6 63.2443 73.2208 63.6235 72.7529 63.6235C72.2851 63.6235 71.9059 63.2443 71.9059 62.7765C71.9059 62.3087 72.2851 61.9294 72.7529 61.9294C73.2208 61.9294 73.6 62.3087 73.6 62.7765Z" fill="white"/>
<path d="M72.6588 65.6C72.6588 66.0678 72.2796 66.4471 71.8118 66.4471C71.3439 66.4471 70.9647 66.0678 70.9647 65.6C70.9647 65.1322 71.3439 64.7529 71.8118 64.7529C72.2796 64.7529 72.6588 65.1322 72.6588 65.6Z" fill="white"/>
<path d="M71.3412 68.2353C71.3412 68.7031 70.9619 69.0824 70.4941 69.0824C70.0263 69.0824 69.6471 68.7031 69.6471 68.2353C69.6471 67.7675 70.0263 67.3882 70.4941 67.3882C70.9619 67.3882 71.3412 67.7675 71.3412 68.2353Z" fill="white"/>
<path d="M69.8353 70.6824C69.8353 71.1502 69.456 71.5294 68.9882 71.5294C68.5204 71.5294 68.1412 71.1502 68.1412 70.6824C68.1412 70.2145 68.5204 69.8353 68.9882 69.8353C69.456 69.8353 69.8353 70.2145 69.8353 70.6824Z" fill="white"/>
<path d="M68.1412 72.9412C68.1412 73.409 67.7619 73.7882 67.2941 73.7882C66.8263 73.7882 66.4471 73.409 66.4471 72.9412C66.4471 72.4734 66.8263 72.0941 67.2941 72.0941C67.7619 72.0941 68.1412 72.4734 68.1412 72.9412Z" fill="white"/>
<path d="M66.0706 74.8235C66.0706 75.2913 65.6913 75.6706 65.2235 75.6706C64.7557 75.6706 64.3765 75.2913 64.3765 74.8235C64.3765 74.3557 64.7557 73.9765 65.2235 73.9765C65.6913 73.9765 66.0706 74.3557 66.0706 74.8235Z" fill="white"/>
<path d="M63.8118 76.5176C63.8118 76.9855 63.4325 77.3647 62.9647 77.3647C62.4969 77.3647 62.1176 76.9855 62.1176 76.5176C62.1176 76.0498 62.4969 75.6706 62.9647 75.6706C63.4325 75.6706 63.8118 76.0498 63.8118 76.5176Z" fill="white"/>
<path d="M61.1765 78.0235C61.1765 78.4913 60.7972 78.8706 60.3294 78.8706C59.8616 78.8706 59.4824 78.4913 59.4824 78.0235C59.4824 77.5557 59.8616 77.1765 60.3294 77.1765C60.7972 77.1765 61.1765 77.5557 61.1765 78.0235Z" fill="white"/>
<path d="M58.5412 78.9647C58.5412 79.4325 58.1619 79.8118 57.6941 79.8118C57.2263 79.8118 56.8471 79.4325 56.8471 78.9647C56.8471 78.4969 57.2263 78.1176 57.6941 78.1176C58.1619 78.1176 58.5412 78.4969 58.5412 78.9647Z" fill="white"/>
<path d="M55.9059 79.7176C55.9059 80.1855 55.5266 80.5647 55.0588 80.5647C54.591 80.5647 54.2118 80.1855 54.2118 79.7176C54.2118 79.2498 54.591 78.8706 55.0588 78.8706C55.5266 78.8706 55.9059 79.2498 55.9059 79.7176Z" fill="white"/>
<path d="M50.0706 80.2824C50.0706 80.7502 49.6913 81.1294 49.2235 81.1294C48.7557 81.1294 48.3765 80.7502 48.3765 80.2824C48.3765 79.8145 48.7557 79.4353 49.2235 79.4353C49.6913 79.4353 50.0706 79.8145 50.0706 80.2824Z" fill="white"/>
<path d="M47.2471 79.9059C47.2471 80.3737 46.8678 80.7529 46.4 80.7529C45.9322 80.7529 45.5529 80.3737 45.5529 79.9059C45.5529 79.4381 45.9322 79.0588 46.4 79.0588C46.8678 79.0588 47.2471 79.4381 47.2471 79.9059Z" fill="white"/>
<path d="M44.4235 79.3412C44.4235 79.809 44.0443 80.1882 43.5765 80.1882C43.1087 80.1882 42.7294 79.809 42.7294 79.3412C42.7294 78.8734 43.1087 78.4941 43.5765 78.4941C44.0443 78.4941 44.4235 78.8734 44.4235 79.3412Z" fill="white"/>
<path d="M41.6 78.2118C41.6 78.6796 41.2208 79.0588 40.7529 79.0588C40.2851 79.0588 39.9059 78.6796 39.9059 78.2118C39.9059 77.7439 40.2851 77.3647 40.7529 77.3647C41.2208 77.3647 41.6 77.7439 41.6 78.2118Z" fill="white"/>
<path d="M38.9647 76.8941C38.9647 77.3619 38.5855 77.7412 38.1176 77.7412C37.6498 77.7412 37.2706 77.3619 37.2706 76.8941C37.2706 76.4263 37.6498 76.0471 38.1176 76.0471C38.5855 76.0471 38.9647 76.4263 38.9647 76.8941Z" fill="white"/>
<path d="M36.3294 75.3882C36.3294 75.8561 35.9502 76.2353 35.4824 76.2353C35.0145 76.2353 34.6353 75.8561 34.6353 75.3882C34.6353 74.9204 35.0145 74.5412 35.4824 74.5412C35.9502 74.5412 36.3294 74.9204 36.3294 75.3882Z" fill="white"/>
<path d="M34.0706 73.5059C34.0706 73.9737 33.6913 74.3529 33.2235 74.3529C32.7557 74.3529 32.3765 73.9737 32.3765 73.5059C32.3765 73.0381 32.7557 72.6588 33.2235 72.6588C33.6913 72.6588 34.0706 73.0381 34.0706 73.5059Z" fill="white"/>
<path d="M32 71.2471C32 71.7149 31.6208 72.0941 31.1529 72.0941C30.6851 72.0941 30.3059 71.7149 30.3059 71.2471C30.3059 70.7792 30.6851 70.4 31.1529 70.4C31.6208 70.4 32 70.7792 32 71.2471Z" fill="white"/>
<path d="M30.1176 68.9882C30.1176 69.456 29.7384 69.8353 29.2706 69.8353C28.8028 69.8353 28.4235 69.456 28.4235 68.9882C28.4235 68.5204 28.8028 68.1412 29.2706 68.1412C29.7384 68.1412 30.1176 68.5204 30.1176 68.9882Z" fill="white"/>
<path d="M28.4235 66.3529C28.4235 66.8208 28.0443 67.2 27.5765 67.2C27.1087 67.2 26.7294 66.8208 26.7294 66.3529C26.7294 65.8851 27.1087 65.5059 27.5765 65.5059C28.0443 65.5059 28.4235 65.8851 28.4235 66.3529Z" fill="white"/>
<path d="M27.1059 63.5294C27.1059 63.9972 26.7266 64.3765 26.2588 64.3765C25.791 64.3765 25.4118 63.9972 25.4118 63.5294C25.4118 63.0616 25.791 62.6824 26.2588 62.6824C26.7266 62.6824 27.1059 63.0616 27.1059 63.5294Z" fill="white"/>
<path d="M26.1647 60.7059C26.1647 61.1737 25.7855 61.5529 25.3176 61.5529C24.8498 61.5529 24.4706 61.1737 24.4706 60.7059C24.4706 60.2381 24.8498 59.8588 25.3176 59.8588C25.7855 59.8588 26.1647 60.2381 26.1647 60.7059Z" fill="white"/>
<path d="M25.4118 57.6941C25.4118 58.1619 25.0325 58.5412 24.5647 58.5412C24.0969 58.5412 23.7176 58.1619 23.7176 57.6941C23.7176 57.2263 24.0969 56.8471 24.5647 56.8471C25.0325 56.8471 25.4118 57.2263 25.4118 57.6941Z" fill="white"/>
<path d="M25.0353 54.8706C25.0353 55.3384 24.6561 55.7176 24.1882 55.7176C23.7204 55.7176 23.3412 55.3384 23.3412 54.8706C23.3412 54.4028 23.7204 54.0235 24.1882 54.0235C24.6561 54.0235 25.0353 54.4028 25.0353 54.8706Z" fill="white"/>
<path d="M25.0353 51.8588C25.0353 52.3266 24.6561 52.7059 24.1882 52.7059C23.7204 52.7059 23.3412 52.3266 23.3412 51.8588C23.3412 51.391 23.7204 51.0118 24.1882 51.0118C24.6561 51.0118 25.0353 51.391 25.0353 51.8588Z" fill="white"/>
<path d="M25.2235 48.8471C25.2235 49.3149 24.8443 49.6941 24.3765 49.6941C23.9087 49.6941 23.5294 49.3149 23.5294 48.8471C23.5294 48.3792 23.9087 48 24.3765 48C24.8443 48 25.2235 48.3792 25.2235 48.8471Z" fill="white"/>
<path d="M25.9765 45.8353C25.9765 46.3031 25.5972 46.6824 25.1294 46.6824C24.6616 46.6824 24.2824 46.3031 24.2824 45.8353C24.2824 45.3675 24.6616 44.9882 25.1294 44.9882C25.5972 44.9882 25.9765 45.3675 25.9765 45.8353Z" fill="white"/>
<path d="M53.0824 80.0941C53.0824 80.5619 52.7031 80.9412 52.2353 80.9412C51.7675 80.9412 51.3882 80.5619 51.3882 80.0941C51.3882 79.6263 51.7675 79.2471 52.2353 79.2471C52.7031 79.2471 53.0824 79.6263 53.0824 80.0941Z" fill="white"/>
</svg>
