<svg width="142" height="94" viewBox="0 0 142 94" fill="none" xmlns="http://www.w3.org/2000/svg">
<rect x="1" y="1" width="140" height="92" rx="3" fill="white" fill-opacity="0.0605"/>
<rect x="0.5" y="0.5" width="141" height="93" rx="3.5" stroke="black" stroke-opacity="0.0305"/>
<g clip-path="url(#clip0_1198_1469)">
<path d="M73.5042 28.7992L77.1237 29.4832L80.1042 28.7992L73.5042 22.1992L72.5938 25.3282L73.5042 28.7992Z" fill="#F29900"/>
<path d="M73.5023 28.7992V22.1992H62.7023C61.7078 22.1992 60.9023 23.0047 60.9023 23.9992V46.7992C60.9023 47.7937 61.7078 48.5992 62.7023 48.5992H78.3023C79.2968 48.5992 80.1023 47.7937 80.1023 46.7992V28.7992H73.5023Z" fill="#FBBC04"/>
<path d="M72.6055 41.3992H68.4055V39.8992H72.6055V41.3992ZM72.583 38.3992H68.428C67.333 37.7092 66.6055 36.4897 66.6055 35.0992C66.6055 32.9452 68.3515 31.1992 70.5055 31.1992C72.6595 31.1992 74.4055 32.9452 74.4055 35.0992C74.4055 36.4897 73.678 37.7092 72.583 38.3992Z" fill="white"/>
</g>
<path d="M45.7051 63.4336C46.4082 63.4336 46.9883 63.5215 47.4453 63.6973C47.9062 63.8691 48.25 64.1328 48.4766 64.4883C48.7031 64.8438 48.8164 65.2969 48.8164 65.8477C48.8164 66.3008 48.7344 66.6797 48.5703 66.9844C48.4062 67.2852 48.1914 67.5293 47.9258 67.7168C47.6602 67.9043 47.377 68.0488 47.0762 68.1504L49.4258 72H48.2656L46.168 68.4258H44.3867V72H43.3906V63.4336H45.7051ZM45.6465 64.2949H44.3867V67.582H45.7461C46.4453 67.582 46.959 67.4395 47.2871 67.1543C47.6191 66.8691 47.7852 66.4492 47.7852 65.8945C47.7852 65.3125 47.6094 64.9004 47.2578 64.6582C46.9102 64.416 46.373 64.2949 45.6465 64.2949ZM53.123 65.4609C53.6699 65.4609 54.1387 65.582 54.5293 65.8242C54.9199 66.0664 55.2188 66.4062 55.4258 66.8438C55.6328 67.2773 55.7363 67.7852 55.7363 68.3672V68.9707H51.3008C51.3125 69.7246 51.5 70.2988 51.8633 70.6934C52.2266 71.0879 52.7383 71.2852 53.3984 71.2852C53.8047 71.2852 54.1641 71.248 54.4766 71.1738C54.7891 71.0996 55.1133 70.9902 55.4492 70.8457V71.7012C55.125 71.8457 54.8027 71.9512 54.4824 72.0176C54.166 72.084 53.791 72.1172 53.3574 72.1172C52.7402 72.1172 52.2012 71.9922 51.7402 71.7422C51.2832 71.4883 50.9277 71.1172 50.6738 70.6289C50.4199 70.1406 50.293 69.543 50.293 68.8359C50.293 68.1445 50.4082 67.5469 50.6387 67.043C50.873 66.5352 51.2012 66.1445 51.623 65.8711C52.0488 65.5977 52.5488 65.4609 53.123 65.4609ZM53.1113 66.2578C52.5918 66.2578 52.1777 66.4277 51.8691 66.7676C51.5605 67.1074 51.377 67.582 51.3184 68.1914H54.7168C54.7129 67.8086 54.6523 67.4727 54.5352 67.1836C54.4219 66.8906 54.248 66.6641 54.0137 66.5039C53.7793 66.3398 53.4785 66.2578 53.1113 66.2578ZM61.543 70.2422C61.543 70.6523 61.4395 70.998 61.2324 71.2793C61.0293 71.5566 60.7363 71.7656 60.3535 71.9062C59.9746 72.0469 59.5215 72.1172 58.9941 72.1172C58.5449 72.1172 58.1562 72.082 57.8281 72.0117C57.5 71.9414 57.2129 71.8418 56.9668 71.7129V70.8164C57.2285 70.9453 57.541 71.0625 57.9043 71.168C58.2676 71.2734 58.6387 71.3262 59.0176 71.3262C59.5723 71.3262 59.9746 71.2363 60.2246 71.0566C60.4746 70.877 60.5996 70.6328 60.5996 70.3242C60.5996 70.1484 60.5488 69.9941 60.4473 69.8613C60.3496 69.7246 60.1836 69.5938 59.9492 69.4688C59.7148 69.3398 59.3906 69.1992 58.9766 69.0469C58.5664 68.8906 58.2109 68.7363 57.9102 68.584C57.6133 68.4277 57.3828 68.2383 57.2188 68.0156C57.0586 67.793 56.9785 67.5039 56.9785 67.1484C56.9785 66.6055 57.1973 66.1895 57.6348 65.9004C58.0762 65.6074 58.6543 65.4609 59.3691 65.4609C59.7559 65.4609 60.1172 65.5 60.4531 65.5781C60.793 65.6523 61.1094 65.7539 61.4023 65.8828L61.0742 66.6621C60.8086 66.5488 60.5254 66.4531 60.2246 66.375C59.9238 66.2969 59.6172 66.2578 59.3047 66.2578C58.8555 66.2578 58.5098 66.332 58.2676 66.4805C58.0293 66.6289 57.9102 66.832 57.9102 67.0898C57.9102 67.2891 57.9648 67.4531 58.0742 67.582C58.1875 67.7109 58.3672 67.832 58.6133 67.9453C58.8594 68.0586 59.1836 68.1914 59.5859 68.3438C59.9883 68.4922 60.3359 68.6465 60.6289 68.8066C60.9219 68.9629 61.1465 69.1543 61.3027 69.3809C61.4629 69.6035 61.543 69.8906 61.543 70.2422ZM68.6445 68.7773C68.6445 69.3047 68.5762 69.7754 68.4395 70.1895C68.3027 70.6035 68.1055 70.9531 67.8477 71.2383C67.5898 71.5234 67.2773 71.7422 66.9102 71.8945C66.5469 72.043 66.1348 72.1172 65.6738 72.1172C65.2441 72.1172 64.8496 72.043 64.4902 71.8945C64.1348 71.7422 63.8262 71.5234 63.5645 71.2383C63.3066 70.9531 63.1055 70.6035 62.9609 70.1895C62.8203 69.7754 62.75 69.3047 62.75 68.7773C62.75 68.0742 62.8691 67.4766 63.1074 66.9844C63.3457 66.4883 63.6855 66.1113 64.127 65.8535C64.5723 65.5918 65.1016 65.4609 65.7148 65.4609C66.3008 65.4609 66.8125 65.5918 67.25 65.8535C67.6914 66.1152 68.0332 66.4941 68.2754 66.9902C68.5215 67.4824 68.6445 68.0781 68.6445 68.7773ZM63.7578 68.7773C63.7578 69.293 63.8262 69.7402 63.9629 70.1191C64.0996 70.498 64.3105 70.791 64.5957 70.998C64.8809 71.2051 65.248 71.3086 65.6973 71.3086C66.1426 71.3086 66.5078 71.2051 66.793 70.998C67.082 70.791 67.2949 70.498 67.4316 70.1191C67.5684 69.7402 67.6367 69.293 67.6367 68.7773C67.6367 68.2656 67.5684 67.8242 67.4316 67.4531C67.2949 67.0781 67.084 66.7891 66.7988 66.5859C66.5137 66.3828 66.1445 66.2812 65.6914 66.2812C65.0234 66.2812 64.5332 66.502 64.2207 66.9434C63.9121 67.3848 63.7578 67.9961 63.7578 68.7773ZM75.6289 65.5781V72H74.832L74.6914 71.0977H74.6387C74.5059 71.3203 74.334 71.5078 74.123 71.6602C73.9121 71.8125 73.6738 71.9258 73.4082 72C73.1465 72.0781 72.8672 72.1172 72.5703 72.1172C72.0625 72.1172 71.6367 72.0352 71.293 71.8711C70.9492 71.707 70.6895 71.4531 70.5137 71.1094C70.3418 70.7656 70.2559 70.3242 70.2559 69.7852V65.5781H71.2402V69.7148C71.2402 70.25 71.3613 70.6504 71.6035 70.916C71.8457 71.1777 72.2148 71.3086 72.7109 71.3086C73.1875 71.3086 73.5664 71.2188 73.8477 71.0391C74.1328 70.8594 74.3379 70.5957 74.4629 70.248C74.5879 69.8965 74.6504 69.4668 74.6504 68.959V65.5781H75.6289ZM80.6035 65.4609C80.7324 65.4609 80.8672 65.4688 81.0078 65.4844C81.1484 65.4961 81.2734 65.5137 81.3828 65.5371L81.2598 66.4395C81.1543 66.4121 81.0371 66.3906 80.9082 66.375C80.7793 66.3594 80.6582 66.3516 80.5449 66.3516C80.2871 66.3516 80.043 66.4043 79.8125 66.5098C79.5859 66.6113 79.3867 66.7598 79.2148 66.9551C79.043 67.1465 78.9082 67.3789 78.8105 67.6523C78.7129 67.9219 78.6641 68.2227 78.6641 68.5547V72H77.6855V65.5781H78.4941L78.5996 66.7617H78.6406C78.7734 66.5234 78.9336 66.3066 79.1211 66.1113C79.3086 65.9121 79.5254 65.7539 79.7715 65.6367C80.0215 65.5195 80.2988 65.4609 80.6035 65.4609ZM85.168 72.1172C84.5898 72.1172 84.0801 71.998 83.6387 71.7598C83.1973 71.5215 82.8535 71.1582 82.6074 70.6699C82.3613 70.1816 82.2383 69.5664 82.2383 68.8242C82.2383 68.0469 82.3672 67.4121 82.625 66.9199C82.8867 66.4238 83.2461 66.0566 83.7031 65.8184C84.1602 65.5801 84.6797 65.4609 85.2617 65.4609C85.582 65.4609 85.8906 65.4941 86.1875 65.5605C86.4883 65.623 86.7344 65.7031 86.9258 65.8008L86.6328 66.6152C86.4375 66.5371 86.2109 66.4668 85.9531 66.4043C85.6992 66.3418 85.4609 66.3105 85.2383 66.3105C84.793 66.3105 84.4219 66.4062 84.125 66.5977C83.832 66.7891 83.6113 67.0703 83.4629 67.4414C83.3184 67.8125 83.2461 68.2695 83.2461 68.8125C83.2461 69.332 83.3164 69.7754 83.457 70.1426C83.6016 70.5098 83.8145 70.791 84.0957 70.9863C84.3809 71.1777 84.7363 71.2734 85.1621 71.2734C85.502 71.2734 85.8086 71.2383 86.082 71.168C86.3555 71.0938 86.6035 71.0078 86.8262 70.9102V71.7773C86.6113 71.8867 86.3711 71.9707 86.1055 72.0293C85.8438 72.0879 85.5312 72.1172 85.168 72.1172ZM90.8223 65.4609C91.3691 65.4609 91.8379 65.582 92.2285 65.8242C92.6191 66.0664 92.918 66.4062 93.125 66.8438C93.332 67.2773 93.4355 67.7852 93.4355 68.3672V68.9707H89C89.0117 69.7246 89.1992 70.2988 89.5625 70.6934C89.9258 71.0879 90.4375 71.2852 91.0977 71.2852C91.5039 71.2852 91.8633 71.248 92.1758 71.1738C92.4883 71.0996 92.8125 70.9902 93.1484 70.8457V71.7012C92.8242 71.8457 92.502 71.9512 92.1816 72.0176C91.8652 72.084 91.4902 72.1172 91.0566 72.1172C90.4395 72.1172 89.9004 71.9922 89.4395 71.7422C88.9824 71.4883 88.627 71.1172 88.373 70.6289C88.1191 70.1406 87.9922 69.543 87.9922 68.8359C87.9922 68.1445 88.1074 67.5469 88.3379 67.043C88.5723 66.5352 88.9004 66.1445 89.3223 65.8711C89.748 65.5977 90.248 65.4609 90.8223 65.4609ZM90.8105 66.2578C90.291 66.2578 89.877 66.4277 89.5684 66.7676C89.2598 67.1074 89.0762 67.582 89.0176 68.1914H92.416C92.4121 67.8086 92.3516 67.4727 92.2344 67.1836C92.1211 66.8906 91.9473 66.6641 91.7129 66.5039C91.4785 66.3398 91.1777 66.2578 90.8105 66.2578ZM99.2422 70.2422C99.2422 70.6523 99.1387 70.998 98.9316 71.2793C98.7285 71.5566 98.4355 71.7656 98.0527 71.9062C97.6738 72.0469 97.2207 72.1172 96.6934 72.1172C96.2441 72.1172 95.8555 72.082 95.5273 72.0117C95.1992 71.9414 94.9121 71.8418 94.666 71.7129V70.8164C94.9277 70.9453 95.2402 71.0625 95.6035 71.168C95.9668 71.2734 96.3379 71.3262 96.7168 71.3262C97.2715 71.3262 97.6738 71.2363 97.9238 71.0566C98.1738 70.877 98.2988 70.6328 98.2988 70.3242C98.2988 70.1484 98.248 69.9941 98.1465 69.8613C98.0488 69.7246 97.8828 69.5938 97.6484 69.4688C97.4141 69.3398 97.0898 69.1992 96.6758 69.0469C96.2656 68.8906 95.9102 68.7363 95.6094 68.584C95.3125 68.4277 95.082 68.2383 94.918 68.0156C94.7578 67.793 94.6777 67.5039 94.6777 67.1484C94.6777 66.6055 94.8965 66.1895 95.334 65.9004C95.7754 65.6074 96.3535 65.4609 97.0684 65.4609C97.4551 65.4609 97.8164 65.5 98.1523 65.5781C98.4922 65.6523 98.8086 65.7539 99.1016 65.8828L98.7734 66.6621C98.5078 66.5488 98.2246 66.4531 97.9238 66.375C97.623 66.2969 97.3164 66.2578 97.0039 66.2578C96.5547 66.2578 96.209 66.332 95.9668 66.4805C95.7285 66.6289 95.6094 66.832 95.6094 67.0898C95.6094 67.2891 95.6641 67.4531 95.7734 67.582C95.8867 67.7109 96.0664 67.832 96.3125 67.9453C96.5586 68.0586 96.8828 68.1914 97.2852 68.3438C97.6875 68.4922 98.0352 68.6465 98.3281 68.8066C98.6211 68.9629 98.8457 69.1543 99.002 69.3809C99.1621 69.6035 99.2422 69.8906 99.2422 70.2422Z" fill="white"/>
<defs>
<clipPath id="clip0_1198_1469">
<rect width="19.2" height="26.4" fill="white" transform="translate(60.9023 22.1992)"/>
</clipPath>
</defs>
</svg>
