<svg width="142" height="94" viewBox="0 0 142 94" fill="none" xmlns="http://www.w3.org/2000/svg">
<rect x="1" y="1" width="140" height="92" rx="3" fill="white" fill-opacity="0.0605"/>
<rect x="0.5" y="0.5" width="141" height="93" rx="3.5" stroke="black" stroke-opacity="0.0305"/>
<path d="M79.6325 43.1768C79.5974 43.4035 79.4078 43.5623 79.209 43.5315C79.0101 43.5007 78.8774 43.292 78.9125 43.0653C78.9476 42.8387 79.1372 42.6798 79.336 42.7106C79.5349 42.7414 79.6676 42.9501 79.6325 43.1768Z" fill="white"/>
<path d="M80.3855 41.8591C80.3504 42.0858 80.1608 42.2446 79.9619 42.2138C79.7631 42.1831 79.6303 41.9744 79.6654 41.7477C79.7005 41.521 79.8901 41.3622 80.089 41.393C80.2878 41.4238 80.4206 41.6325 80.3855 41.8591Z" fill="white"/>
<path d="M81.0129 40.5415C80.9778 40.7682 80.7882 40.927 80.5894 40.8962C80.3905 40.8654 80.2578 40.6567 80.2929 40.43C80.328 40.2034 80.5176 40.0446 80.7164 40.0753C80.9153 40.1061 81.048 40.3148 81.0129 40.5415Z" fill="white"/>
<path d="M81.4521 39.0984C81.4171 39.325 81.2274 39.4838 81.0286 39.4531C80.8297 39.4223 80.697 39.2136 80.7321 38.9869C80.7672 38.7602 80.9568 38.6014 81.1556 38.6322C81.3545 38.663 81.4872 38.8717 81.4521 39.0984Z" fill="white"/>
<path d="M81.7659 37.6552C81.7308 37.8819 81.5411 38.0407 81.3423 38.0099C81.1435 37.9791 81.0107 37.7704 81.0458 37.5438C81.0809 37.3171 81.2705 37.1583 81.4694 37.1891C81.6682 37.2198 81.801 37.4285 81.7659 37.6552Z" fill="white"/>
<path d="M81.8914 36.2121C81.8563 36.4388 81.6666 36.5976 81.4678 36.5668C81.269 36.536 81.1362 36.3273 81.1713 36.1006C81.2064 35.8739 81.396 35.7151 81.5949 35.7459C81.7937 35.7767 81.9264 35.9854 81.8914 36.2121Z" fill="white"/>
<path d="M81.9541 34.7062C81.919 34.9329 81.7294 35.0917 81.5305 35.0609C81.3317 35.0301 81.199 34.8214 81.234 34.5947C81.2691 34.3681 81.4588 34.2093 81.6576 34.24C81.8564 34.2708 81.9892 34.4795 81.9541 34.7062Z" fill="white"/>
<path d="M81.8286 33.2631C81.7935 33.4897 81.6039 33.6485 81.4051 33.6178C81.2062 33.587 81.0735 33.3783 81.1086 33.1516C81.1436 32.9249 81.3333 32.7661 81.5321 32.7969C81.7309 32.8277 81.8637 33.0364 81.8286 33.2631Z" fill="white"/>
<path d="M81.5149 31.8827C81.4798 32.1093 81.2902 32.2681 81.0913 32.2374C80.8925 32.2066 80.7597 31.9979 80.7948 31.7712C80.8299 31.5445 81.0195 31.3857 81.2184 31.4165C81.4172 31.4473 81.55 31.656 81.5149 31.8827Z" fill="white"/>
<path d="M81.0757 30.5023C81.0406 30.7289 80.851 30.8878 80.6521 30.857C80.4533 30.8262 80.3205 30.6175 80.3556 30.3908C80.3907 30.1641 80.5803 30.0053 80.7792 30.0361C80.978 30.0669 81.1108 30.2756 81.0757 30.5023Z" fill="white"/>
<path d="M80.511 29.2474C80.4759 29.474 80.2862 29.6329 80.0874 29.6021C79.8886 29.5713 79.7558 29.3626 79.7909 29.1359C79.826 28.9092 80.0156 28.7504 80.2145 28.7812C80.4133 28.812 80.546 29.0207 80.511 29.2474Z" fill="white"/>
<path d="M79.8208 28.0552C79.7857 28.2819 79.596 28.4407 79.3972 28.4099C79.1984 28.3791 79.0656 28.1704 79.1007 27.9438C79.1358 27.7171 79.3254 27.5583 79.5243 27.5891C79.7231 27.6198 79.8559 27.8285 79.8208 28.0552Z" fill="white"/>
<path d="M79.0051 26.9886C78.97 27.2152 78.7804 27.374 78.5815 27.3433C78.3827 27.3125 78.2499 27.1038 78.285 26.8771C78.3201 26.6504 78.5097 26.4916 78.7086 26.5224C78.9074 26.5532 79.0402 26.7619 79.0051 26.9886Z" fill="white"/>
<path d="M78.0639 26.0474C78.0288 26.274 77.8392 26.4329 77.6403 26.4021C77.4415 26.3713 77.3088 26.1626 77.3438 25.9359C77.3789 25.7092 77.5686 25.5504 77.7674 25.5812C77.9662 25.612 78.099 25.8207 78.0639 26.0474Z" fill="white"/>
<path d="M76.9972 25.2317C76.9622 25.4584 76.7725 25.6172 76.5737 25.5864C76.3748 25.5556 76.2421 25.3469 76.2772 25.1202C76.3123 24.8936 76.5019 24.7348 76.7007 24.7655C76.8996 24.7963 77.0323 25.005 76.9972 25.2317Z" fill="white"/>
<path d="M75.8678 24.5415C75.8327 24.7682 75.6431 24.927 75.4443 24.8962C75.2454 24.8654 75.1127 24.6567 75.1478 24.43C75.1829 24.2034 75.3725 24.0446 75.5713 24.0753C75.7702 24.1061 75.9029 24.3148 75.8678 24.5415Z" fill="white"/>
<path d="M74.6757 24.0395C74.6406 24.2662 74.451 24.425 74.2521 24.3942C74.0533 24.3635 73.9205 24.1547 73.9556 23.9281C73.9907 23.7014 74.1803 23.5426 74.3792 23.5734C74.578 23.6042 74.7108 23.8129 74.6757 24.0395Z" fill="white"/>
<path d="M73.4208 23.7258C73.3857 23.9525 73.196 24.1113 72.9972 24.0805C72.7984 24.0497 72.6656 23.841 72.7007 23.6143C72.7358 23.3877 72.9254 23.2289 73.1243 23.2596C73.3231 23.2904 73.4559 23.4991 73.4208 23.7258Z" fill="white"/>
<path d="M72.1031 23.5376C72.068 23.7642 71.8784 23.923 71.6796 23.8923C71.4807 23.8615 71.348 23.6528 71.3831 23.4261C71.4181 23.1994 71.6078 23.0406 71.8066 23.0714C72.0055 23.1022 72.1382 23.3109 72.1031 23.5376Z" fill="white"/>
<path d="M70.7855 23.5376C70.7504 23.7642 70.5608 23.923 70.3619 23.8923C70.1631 23.8615 70.0303 23.6528 70.0654 23.4261C70.1005 23.1994 70.2901 23.0406 70.489 23.0714C70.6878 23.1022 70.8206 23.3109 70.7855 23.5376Z" fill="white"/>
<path d="M69.5306 23.6631C69.4955 23.8897 69.3059 24.0485 69.107 24.0178C68.9082 23.987 68.7754 23.7783 68.8105 23.5516C68.8456 23.3249 69.0352 23.1661 69.2341 23.1969C69.4329 23.2277 69.5657 23.4364 69.5306 23.6631Z" fill="white"/>
<path d="M68.2129 23.9768C68.1778 24.2035 67.9882 24.3623 67.7894 24.3315C67.5905 24.3007 67.4578 24.092 67.4929 23.8653C67.5279 23.6387 67.7176 23.4799 67.9164 23.5106C68.1153 23.5414 68.248 23.7501 68.2129 23.9768Z" fill="white"/>
<path d="M66.958 24.4787C66.9229 24.7054 66.7333 24.8642 66.5345 24.8334C66.3356 24.8027 66.2029 24.594 66.238 24.3673C66.273 24.1406 66.4627 23.9818 66.6615 24.0126C66.8604 24.0434 66.9931 24.2521 66.958 24.4787Z" fill="white"/>
<path d="M65.7659 25.1062C65.7308 25.3329 65.5411 25.4917 65.3423 25.4609C65.1435 25.4301 65.0107 25.2214 65.0458 24.9947C65.0809 24.7681 65.2705 24.6093 65.4694 24.64C65.6682 24.6708 65.801 24.8795 65.7659 25.1062Z" fill="white"/>
<path d="M64.5737 25.9219C64.5386 26.1486 64.349 26.3074 64.1501 26.2766C63.9513 26.2458 63.8186 26.0371 63.8536 25.8104C63.8887 25.5838 64.0784 25.4249 64.2772 25.4557C64.476 25.4865 64.6088 25.6952 64.5737 25.9219Z" fill="white"/>
<path d="M63.5698 26.8631C63.5347 27.0897 63.3451 27.2485 63.1462 27.2178C62.9474 27.187 62.8146 26.9783 62.8497 26.7516C62.8848 26.5249 63.0744 26.3661 63.2733 26.3969C63.4721 26.4277 63.6049 26.6364 63.5698 26.8631Z" fill="white"/>
<path d="M62.5659 27.9297C62.5308 28.1564 62.3411 28.3152 62.1423 28.2844C61.9435 28.2537 61.8107 28.0449 61.8458 27.8183C61.8809 27.5916 62.0705 27.4328 62.2694 27.4636C62.4682 27.4943 62.601 27.7031 62.5659 27.9297Z" fill="white"/>
<path d="M61.6874 29.1219C61.6523 29.3486 61.4627 29.5074 61.2639 29.4766C61.065 29.4458 60.9323 29.2371 60.9674 29.0104C61.0025 28.7838 61.1921 28.6249 61.3909 28.6557C61.5898 28.6865 61.7225 28.8952 61.6874 29.1219Z" fill="white"/>
<path d="M60.9972 30.4395C60.9622 30.6662 60.7725 30.825 60.5737 30.7942C60.3748 30.7635 60.2421 30.5547 60.2772 30.3281C60.3123 30.1014 60.5019 29.9426 60.7007 29.9734C60.8996 30.0042 61.0323 30.2129 60.9972 30.4395Z" fill="white"/>
<path d="M60.4325 31.7572C60.3974 31.9839 60.2078 32.1427 60.009 32.1119C59.8101 32.0811 59.6774 31.8724 59.7125 31.6457C59.7476 31.419 59.9372 31.2602 60.136 31.291C60.3349 31.3218 60.4676 31.5305 60.4325 31.7572Z" fill="white"/>
<path d="M59.9306 33.1376C59.8955 33.3642 59.7059 33.523 59.507 33.4923C59.3082 33.4615 59.1754 33.2528 59.2105 33.0261C59.2456 32.7994 59.4352 32.6406 59.6341 32.6714C59.8329 32.7022 59.9657 32.9109 59.9306 33.1376Z" fill="white"/>
<path d="M59.6168 34.5807C59.5818 34.8074 59.3921 34.9662 59.1933 34.9354C58.9944 34.9046 58.8617 34.6959 58.8968 34.4693C58.9319 34.2426 59.1215 34.0838 59.3203 34.1146C59.5192 34.1453 59.6519 34.354 59.6168 34.5807Z" fill="white"/>
<path d="M59.4286 36.0866C59.3935 36.3133 59.2039 36.4721 59.0051 36.4413C58.8062 36.4105 58.6735 36.2018 58.7085 35.9751C58.7436 35.7485 58.9333 35.5897 59.1321 35.6204C59.3309 35.6512 59.4637 35.8599 59.4286 36.0866Z" fill="white"/>
<path d="M59.4286 37.5925C59.3935 37.8191 59.2039 37.978 59.0051 37.9472C58.8062 37.9164 58.6735 37.7077 58.7085 37.481C58.7436 37.2543 58.9333 37.0955 59.1321 37.1263C59.3309 37.1571 59.4637 37.3658 59.4286 37.5925Z" fill="white"/>
<path d="M59.5541 39.0356C59.519 39.2623 59.3294 39.4211 59.1305 39.3903C58.9317 39.3595 58.799 39.1508 58.834 38.9242C58.8691 38.6975 59.0588 38.5387 59.2576 38.5695C59.4564 38.6002 59.5892 38.8089 59.5541 39.0356Z" fill="white"/>
<path d="M59.8678 40.4787C59.8327 40.7054 59.6431 40.8642 59.4443 40.8334C59.2454 40.8027 59.1127 40.594 59.1478 40.3673C59.1829 40.1406 59.3725 39.9818 59.5713 40.0126C59.7702 40.0434 59.9029 40.2521 59.8678 40.4787Z" fill="white"/>
<path d="M60.307 41.7336C60.272 41.9603 60.0823 42.1191 59.8835 42.0883C59.6846 42.0576 59.5519 41.8489 59.587 41.6222C59.6221 41.3955 59.8117 41.2367 60.0105 41.2675C60.2094 41.2983 60.3421 41.507 60.307 41.7336Z" fill="white"/>
<path d="M60.8717 43.0513C60.8367 43.278 60.647 43.4368 60.4482 43.406C60.2493 43.3752 60.1166 43.1665 60.1517 42.9398C60.1868 42.7132 60.3764 42.5544 60.5752 42.5851C60.7741 42.6159 60.9068 42.8246 60.8717 43.0513Z" fill="white"/>
<path d="M61.5619 44.2435C61.5269 44.4701 61.3372 44.6289 61.1384 44.5982C60.9395 44.5674 60.8068 44.3587 60.8419 44.132C60.877 43.9053 61.0666 43.7465 61.2654 43.7773C61.4643 43.8081 61.597 44.0168 61.5619 44.2435Z" fill="white"/>
<path d="M62.3776 45.3101C62.3425 45.5368 62.1529 45.6956 61.9541 45.6648C61.7552 45.634 61.6225 45.4253 61.6576 45.1987C61.6927 44.972 61.8823 44.8132 62.0811 44.844C62.28 44.8747 62.4127 45.0834 62.3776 45.3101Z" fill="white"/>
<path d="M63.3816 46.2513C63.3465 46.478 63.1568 46.6368 62.958 46.606C62.7592 46.5752 62.6264 46.3665 62.6615 46.1398C62.6966 45.9132 62.8862 45.7544 63.085 45.7851C63.2839 45.8159 63.4166 46.0246 63.3816 46.2513Z" fill="white"/>
<path d="M64.3855 47.067C64.3504 47.2937 64.1608 47.4525 63.9619 47.4217C63.7631 47.3909 63.6303 47.1822 63.6654 46.9555C63.7005 46.7289 63.8901 46.57 64.089 46.6008C64.2878 46.6316 64.4206 46.8403 64.3855 47.067Z" fill="white"/>
<path d="M65.5149 47.7572C65.4798 47.9839 65.2902 48.1427 65.0913 48.1119C64.8925 48.0811 64.7597 47.8724 64.7948 47.6457C64.8299 47.419 65.0195 47.2602 65.2184 47.291C65.4172 47.3218 65.55 47.5305 65.5149 47.7572Z" fill="white"/>
<path d="M66.707 48.2591C66.672 48.4858 66.4823 48.6446 66.2835 48.6138C66.0846 48.5831 65.9519 48.3744 65.987 48.1477C66.0221 47.921 66.2117 47.7622 66.4105 47.793C66.6094 47.8238 66.7421 48.0325 66.707 48.2591Z" fill="white"/>
<path d="M67.9619 48.5729C67.9269 48.7995 67.7372 48.9583 67.5384 48.9276C67.3395 48.8968 67.2068 48.6881 67.2419 48.4614C67.277 48.2347 67.4666 48.0759 67.6654 48.1067C67.8643 48.1375 67.997 48.3462 67.9619 48.5729Z" fill="white"/>
<path d="M69.2796 48.7611C69.2445 48.9878 69.0549 49.1466 68.856 49.1158C68.6572 49.085 68.5244 48.8763 68.5595 48.6496C68.5946 48.423 68.7842 48.2642 68.9831 48.2949C69.1819 48.3257 69.3147 48.5344 69.2796 48.7611Z" fill="white"/>
<path d="M70.5345 48.7611C70.4994 48.9878 70.3098 49.1466 70.1109 49.1158C69.9121 49.085 69.7793 48.8763 69.8144 48.6496C69.8495 48.423 70.0392 48.2642 70.238 48.2949C70.4368 48.3257 70.5696 48.5344 70.5345 48.7611Z" fill="white"/>
<path d="M71.8521 48.6356C71.8171 48.8623 71.6274 49.0211 71.4286 48.9903C71.2297 48.9595 71.097 48.7508 71.1321 48.5242C71.1672 48.2975 71.3568 48.1387 71.5556 48.1695C71.7545 48.2002 71.8872 48.4089 71.8521 48.6356Z" fill="white"/>
<path d="M73.1698 48.3219C73.1347 48.5486 72.9451 48.7074 72.7462 48.6766C72.5474 48.6458 72.4146 48.4371 72.4497 48.2104C72.4848 47.9838 72.6744 47.8249 72.8733 47.8557C73.0721 47.8865 73.2049 48.0952 73.1698 48.3219Z" fill="white"/>
<path d="M74.4247 47.8199C74.3896 48.0466 74.2 48.2054 74.0011 48.1746C73.8023 48.1438 73.6695 47.9351 73.7046 47.7085C73.7397 47.4818 73.9293 47.323 74.1282 47.3538C74.327 47.3845 74.4598 47.5932 74.4247 47.8199Z" fill="white"/>
<path d="M75.6168 47.1297C75.5818 47.3564 75.3921 47.5152 75.1933 47.4844C74.9944 47.4537 74.8617 47.2449 74.8968 47.0183C74.9319 46.7916 75.1215 46.6328 75.3203 46.6636C75.5192 46.6943 75.6519 46.9031 75.6168 47.1297Z" fill="white"/>
<path d="M76.7463 46.314C76.7112 46.5407 76.5215 46.6995 76.3227 46.6687C76.1239 46.638 75.9911 46.4293 76.0262 46.2026C76.0613 45.9759 76.2509 45.8171 76.4498 45.8479C76.6486 45.8787 76.7813 46.0874 76.7463 46.314Z" fill="white"/>
<path d="M77.8129 45.3729C77.7778 45.5995 77.5882 45.7583 77.3894 45.7276C77.1905 45.6968 77.0578 45.4881 77.0929 45.2614C77.128 45.0347 77.3176 44.8759 77.5164 44.9067C77.7153 44.9375 77.848 45.1462 77.8129 45.3729Z" fill="white"/>
<path d="M78.8168 44.3689C78.7818 44.5956 78.5921 44.7544 78.3933 44.7236C78.1944 44.6929 78.0617 44.4842 78.0968 44.2575C78.1319 44.0308 78.3215 43.872 78.5203 43.9028C78.7192 43.9336 78.8519 44.1423 78.8168 44.3689Z" fill="white"/>
<path d="M66.6137 49.902C66.6137 50.1965 66.3749 50.4353 66.0804 50.4353C65.7858 50.4353 65.547 50.1965 65.547 49.902C65.547 49.6074 65.7858 49.3686 66.0804 49.3686C66.3749 49.3686 66.6137 49.6074 66.6137 49.902Z" fill="white"/>
<path d="M68.3706 50.2784C68.3706 50.573 68.1318 50.8118 67.8372 50.8118C67.5427 50.8118 67.3039 50.573 67.3039 50.2784C67.3039 49.9839 67.5427 49.7451 67.8372 49.7451C68.1318 49.7451 68.3706 49.9839 68.3706 50.2784Z" fill="white"/>
<path d="M70.1274 50.4667C70.1274 50.7612 69.8887 51 69.5941 51C69.2996 51 69.0608 50.7612 69.0608 50.4667C69.0608 50.1721 69.2996 49.9333 69.5941 49.9333C69.8887 49.9333 70.1274 50.1721 70.1274 50.4667Z" fill="white"/>
<path d="M72.0098 50.4667C72.0098 50.7612 71.771 51 71.4765 51C71.1819 51 70.9431 50.7612 70.9431 50.4667C70.9431 50.1721 71.1819 49.9333 71.4765 49.9333C71.771 49.9333 72.0098 50.1721 72.0098 50.4667Z" fill="white"/>
<path d="M73.7667 50.2784C73.7667 50.573 73.5279 50.8118 73.2333 50.8118C72.9388 50.8118 72.7 50.573 72.7 50.2784C72.7 49.9839 72.9388 49.7451 73.2333 49.7451C73.5279 49.7451 73.7667 49.9839 73.7667 50.2784Z" fill="white"/>
<path d="M75.5235 49.902C75.5235 50.1965 75.2847 50.4353 74.9902 50.4353C74.6956 50.4353 74.4568 50.1965 74.4568 49.902C74.4568 49.6074 74.6956 49.3686 74.9902 49.3686C75.2847 49.3686 75.5235 49.6074 75.5235 49.902Z" fill="white"/>
<path d="M77.2176 49.2118C77.2176 49.5063 76.9789 49.7451 76.6843 49.7451C76.3897 49.7451 76.151 49.5063 76.151 49.2118C76.151 48.9172 76.3897 48.6784 76.6843 48.6784C76.9789 48.6784 77.2176 48.9172 77.2176 49.2118Z" fill="white"/>
<path d="M78.849 48.4588C78.849 48.7534 78.6102 48.9922 78.3157 48.9922C78.0211 48.9922 77.7823 48.7534 77.7823 48.4588C77.7823 48.1643 78.0211 47.9255 78.3157 47.9255C78.6102 47.9255 78.849 48.1643 78.849 48.4588Z" fill="white"/>
<path d="M80.3549 47.3922C80.3549 47.6867 80.1161 47.9255 79.8216 47.9255C79.527 47.9255 79.2882 47.6867 79.2882 47.3922C79.2882 47.0976 79.527 46.8588 79.8216 46.8588C80.1161 46.8588 80.3549 47.0976 80.3549 47.3922Z" fill="white"/>
<path d="M81.7353 46.3255C81.7353 46.62 81.4965 46.8588 81.2019 46.8588C80.9074 46.8588 80.6686 46.62 80.6686 46.3255C80.6686 46.0309 80.9074 45.7922 81.2019 45.7922C81.4965 45.7922 81.7353 46.0309 81.7353 46.3255Z" fill="white"/>
<path d="M82.9902 44.9451C82.9902 45.2397 82.7514 45.4784 82.4568 45.4784C82.1623 45.4784 81.9235 45.2397 81.9235 44.9451C81.9235 44.6505 82.1623 44.4118 82.4568 44.4118C82.7514 44.4118 82.9902 44.6505 82.9902 44.9451Z" fill="white"/>
<path d="M84.0568 43.502C84.0568 43.7965 83.8181 44.0353 83.5235 44.0353C83.229 44.0353 82.9902 43.7965 82.9902 43.502C82.9902 43.2074 83.229 42.9686 83.5235 42.9686C83.8181 42.9686 84.0568 43.2074 84.0568 43.502Z" fill="white"/>
<path d="M84.9353 41.9333C84.9353 42.2279 84.6965 42.4667 84.4019 42.4667C84.1074 42.4667 83.8686 42.2279 83.8686 41.9333C83.8686 41.6388 84.1074 41.4 84.4019 41.4C84.6965 41.4 84.9353 41.6388 84.9353 41.9333Z" fill="white"/>
<path d="M85.6882 40.302C85.6882 40.5965 85.4494 40.8353 85.1549 40.8353C84.8603 40.8353 84.6216 40.5965 84.6216 40.302C84.6216 40.0074 84.8603 39.7686 85.1549 39.7686C85.4494 39.7686 85.6882 40.0074 85.6882 40.302Z" fill="white"/>
<path d="M86.1902 38.6078C86.1902 38.9024 85.9514 39.1412 85.6568 39.1412C85.3623 39.1412 85.1235 38.9024 85.1235 38.6078C85.1235 38.3133 85.3623 38.0745 85.6568 38.0745C85.9514 38.0745 86.1902 38.3133 86.1902 38.6078Z" fill="white"/>
<path d="M86.5039 36.7882C86.5039 37.0828 86.2651 37.3216 85.9706 37.3216C85.676 37.3216 85.4372 37.0828 85.4372 36.7882C85.4372 36.4937 85.676 36.2549 85.9706 36.2549C86.2651 36.2549 86.5039 36.4937 86.5039 36.7882Z" fill="white"/>
<path d="M86.5039 34.9686C86.5039 35.2632 86.2651 35.502 85.9706 35.502C85.676 35.502 85.4372 35.2632 85.4372 34.9686C85.4372 34.6741 85.676 34.4353 85.9706 34.4353C86.2651 34.4353 86.5039 34.6741 86.5039 34.9686Z" fill="white"/>
<path d="M86.5039 33.149C86.5039 33.4436 86.2651 33.6824 85.9706 33.6824C85.676 33.6824 85.4372 33.4436 85.4372 33.149C85.4372 32.8545 85.676 32.6157 85.9706 32.6157C86.2651 32.6157 86.5039 32.8545 86.5039 33.149Z" fill="white"/>
<path d="M86.1902 31.4549C86.1902 31.7495 85.9514 31.9882 85.6568 31.9882C85.3623 31.9882 85.1235 31.7495 85.1235 31.4549C85.1235 31.1604 85.3623 30.9216 85.6568 30.9216C85.9514 30.9216 86.1902 31.1604 86.1902 31.4549Z" fill="white"/>
<path d="M85.6882 29.6353C85.6882 29.9298 85.4494 30.1686 85.1549 30.1686C84.8603 30.1686 84.6216 29.9298 84.6216 29.6353C84.6216 29.3407 84.8603 29.102 85.1549 29.102C85.4494 29.102 85.6882 29.3407 85.6882 29.6353Z" fill="white"/>
<path d="M84.9353 28.0667C84.9353 28.3612 84.6965 28.6 84.4019 28.6C84.1074 28.6 83.8686 28.3612 83.8686 28.0667C83.8686 27.7721 84.1074 27.5333 84.4019 27.5333C84.6965 27.5333 84.9353 27.7721 84.9353 28.0667Z" fill="white"/>
<path d="M84.0568 26.498C84.0568 26.7926 83.8181 27.0314 83.5235 27.0314C83.229 27.0314 82.9902 26.7926 82.9902 26.498C82.9902 26.2035 83.229 25.9647 83.5235 25.9647C83.8181 25.9647 84.0568 26.2035 84.0568 26.498Z" fill="white"/>
<path d="M82.9902 25.1176C82.9902 25.4122 82.7514 25.651 82.4568 25.651C82.1623 25.651 81.9235 25.4122 81.9235 25.1176C81.9235 24.8231 82.1623 24.5843 82.4568 24.5843C82.7514 24.5843 82.9902 24.8231 82.9902 25.1176Z" fill="white"/>
<path d="M81.6725 23.6745C81.6725 23.9691 81.4338 24.2078 81.1392 24.2078C80.8447 24.2078 80.6059 23.9691 80.6059 23.6745C80.6059 23.38 80.8447 23.1412 81.1392 23.1412C81.4338 23.1412 81.6725 23.38 81.6725 23.6745Z" fill="white"/>
<path d="M80.3549 22.6078C80.3549 22.9024 80.1161 23.1412 79.8216 23.1412C79.527 23.1412 79.2882 22.9024 79.2882 22.6078C79.2882 22.3133 79.527 22.0745 79.8216 22.0745C80.1161 22.0745 80.3549 22.3133 80.3549 22.6078Z" fill="white"/>
<path d="M78.849 21.5412C78.849 21.8357 78.6102 22.0745 78.3157 22.0745C78.0211 22.0745 77.7823 21.8357 77.7823 21.5412C77.7823 21.2466 78.0211 21.0078 78.3157 21.0078C78.6102 21.0078 78.849 21.2466 78.849 21.5412Z" fill="white"/>
<path d="M77.2804 20.7882C77.2804 21.0828 77.0416 21.3216 76.747 21.3216C76.4525 21.3216 76.2137 21.0828 76.2137 20.7882C76.2137 20.4937 76.4525 20.2549 76.747 20.2549C77.0416 20.2549 77.2804 20.4937 77.2804 20.7882Z" fill="white"/>
<path d="M75.5235 20.098C75.5235 20.3926 75.2847 20.6314 74.9902 20.6314C74.6956 20.6314 74.4568 20.3926 74.4568 20.098C74.4568 19.8035 74.6956 19.5647 74.9902 19.5647C75.2847 19.5647 75.5235 19.8035 75.5235 20.098Z" fill="white"/>
<path d="M73.8294 19.7216C73.8294 20.0161 73.5906 20.2549 73.2961 20.2549C73.0015 20.2549 72.7627 20.0161 72.7627 19.7216C72.7627 19.427 73.0015 19.1882 73.2961 19.1882C73.5906 19.1882 73.8294 19.427 73.8294 19.7216Z" fill="white"/>
<path d="M71.947 19.5333C71.947 19.8279 71.7083 20.0667 71.4137 20.0667C71.1192 20.0667 70.8804 19.8279 70.8804 19.5333C70.8804 19.2388 71.1192 19 71.4137 19C71.7083 19 71.947 19.2388 71.947 19.5333Z" fill="white"/>
<path d="M70.2529 19.5333C70.2529 19.8279 70.0141 20.0667 69.7196 20.0667C69.425 20.0667 69.1863 19.8279 69.1863 19.5333C69.1863 19.2388 69.425 19 69.7196 19C70.0141 19 70.2529 19.2388 70.2529 19.5333Z" fill="white"/>
<path d="M68.3706 19.7216C68.3706 20.0161 68.1318 20.2549 67.8372 20.2549C67.5427 20.2549 67.3039 20.0161 67.3039 19.7216C67.3039 19.427 67.5427 19.1882 67.8372 19.1882C68.1318 19.1882 68.3706 19.427 68.3706 19.7216Z" fill="white"/>
<path d="M66.6137 20.098C66.6137 20.3926 66.3749 20.6314 66.0804 20.6314C65.7858 20.6314 65.547 20.3926 65.547 20.098C65.547 19.8035 65.7858 19.5647 66.0804 19.5647C66.3749 19.5647 66.6137 19.8035 66.6137 20.098Z" fill="white"/>
<path d="M64.9823 20.7882C64.9823 21.0828 64.7436 21.3216 64.449 21.3216C64.1545 21.3216 63.9157 21.0828 63.9157 20.7882C63.9157 20.4937 64.1545 20.2549 64.449 20.2549C64.7436 20.2549 64.9823 20.4937 64.9823 20.7882Z" fill="white"/>
<path d="M63.2882 21.6039C63.2882 21.8985 63.0494 22.1373 62.7549 22.1373C62.4603 22.1373 62.2216 21.8985 62.2216 21.6039C62.2216 21.3094 62.4603 21.0706 62.7549 21.0706C63.0494 21.0706 63.2882 21.3094 63.2882 21.6039Z" fill="white"/>
<path d="M61.7823 22.5451C61.7823 22.8396 61.5436 23.0784 61.249 23.0784C60.9545 23.0784 60.7157 22.8396 60.7157 22.5451C60.7157 22.2505 60.9545 22.0118 61.249 22.0118C61.5436 22.0118 61.7823 22.2505 61.7823 22.5451Z" fill="white"/>
<path d="M60.4019 23.7373C60.4019 24.0318 60.1632 24.2706 59.8686 24.2706C59.5741 24.2706 59.3353 24.0318 59.3353 23.7373C59.3353 23.4427 59.5741 23.2039 59.8686 23.2039C60.1632 23.2039 60.4019 23.4427 60.4019 23.7373Z" fill="white"/>
<path d="M59.2098 25.0549C59.2098 25.3495 58.971 25.5882 58.6765 25.5882C58.3819 25.5882 58.1431 25.3495 58.1431 25.0549C58.1431 24.7604 58.3819 24.5216 58.6765 24.5216C58.971 24.5216 59.2098 24.7604 59.2098 25.0549Z" fill="white"/>
<path d="M58.1431 26.498C58.1431 26.7926 57.9043 27.0314 57.6098 27.0314C57.3152 27.0314 57.0765 26.7926 57.0765 26.498C57.0765 26.2035 57.3152 25.9647 57.6098 25.9647C57.9043 25.9647 58.1431 26.2035 58.1431 26.498Z" fill="white"/>
<path d="M57.2019 28.0667C57.2019 28.3612 56.9632 28.6 56.6686 28.6C56.3741 28.6 56.1353 28.3612 56.1353 28.0667C56.1353 27.7721 56.3741 27.5333 56.6686 27.5333C56.9632 27.5333 57.2019 27.7721 57.2019 28.0667Z" fill="white"/>
<path d="M56.449 29.698C56.449 29.9926 56.2102 30.2314 55.9157 30.2314C55.6211 30.2314 55.3823 29.9926 55.3823 29.698C55.3823 29.4035 55.6211 29.1647 55.9157 29.1647C56.2102 29.1647 56.449 29.4035 56.449 29.698Z" fill="white"/>
<path d="M55.947 31.3922C55.947 31.6867 55.7083 31.9255 55.4137 31.9255C55.1192 31.9255 54.8804 31.6867 54.8804 31.3922C54.8804 31.0976 55.1192 30.8588 55.4137 30.8588C55.7083 30.8588 55.947 31.0976 55.947 31.3922Z" fill="white"/>
<path d="M55.6961 33.2745C55.6961 33.5691 55.4573 33.8078 55.1627 33.8078C54.8682 33.8078 54.6294 33.5691 54.6294 33.2745C54.6294 32.98 54.8682 32.7412 55.1627 32.7412C55.4573 32.7412 55.6961 32.98 55.6961 33.2745Z" fill="white"/>
<path d="M55.5706 35.0941C55.5706 35.3887 55.3318 35.6275 55.0372 35.6275C54.7427 35.6275 54.5039 35.3887 54.5039 35.0941C54.5039 34.7996 54.7427 34.5608 55.0372 34.5608C55.3318 34.5608 55.5706 34.7996 55.5706 35.0941Z" fill="white"/>
<path d="M55.6961 36.7882C55.6961 37.0828 55.4573 37.3216 55.1627 37.3216C54.8682 37.3216 54.6294 37.0828 54.6294 36.7882C54.6294 36.4937 54.8682 36.2549 55.1627 36.2549C55.4573 36.2549 55.6961 36.4937 55.6961 36.7882Z" fill="white"/>
<path d="M55.947 38.6078C55.947 38.9024 55.7083 39.1412 55.4137 39.1412C55.1192 39.1412 54.8804 38.9024 54.8804 38.6078C54.8804 38.3133 55.1192 38.0745 55.4137 38.0745C55.7083 38.0745 55.947 38.3133 55.947 38.6078Z" fill="white"/>
<path d="M56.5117 40.302C56.5117 40.5965 56.273 40.8353 55.9784 40.8353C55.6839 40.8353 55.4451 40.5965 55.4451 40.302C55.4451 40.0074 55.6839 39.7686 55.9784 39.7686C56.273 39.7686 56.5117 40.0074 56.5117 40.302Z" fill="white"/>
<path d="M57.2019 41.9333C57.2019 42.2279 56.9632 42.4667 56.6686 42.4667C56.3741 42.4667 56.1353 42.2279 56.1353 41.9333C56.1353 41.6388 56.3741 41.4 56.6686 41.4C56.9632 41.4 57.2019 41.6388 57.2019 41.9333Z" fill="white"/>
<path d="M58.1431 43.502C58.1431 43.7965 57.9043 44.0353 57.6098 44.0353C57.3152 44.0353 57.0765 43.7965 57.0765 43.502C57.0765 43.2074 57.3152 42.9686 57.6098 42.9686C57.9043 42.9686 58.1431 43.2074 58.1431 43.502Z" fill="white"/>
<path d="M59.2098 44.9451C59.2098 45.2397 58.971 45.4784 58.6765 45.4784C58.3819 45.4784 58.1431 45.2397 58.1431 44.9451C58.1431 44.6505 58.3819 44.4118 58.6765 44.4118C58.971 44.4118 59.2098 44.6505 59.2098 44.9451Z" fill="white"/>
<path d="M60.4647 46.3255C60.4647 46.62 60.2259 46.8588 59.9314 46.8588C59.6368 46.8588 59.398 46.62 59.398 46.3255C59.398 46.0309 59.6368 45.7922 59.9314 45.7922C60.2259 45.7922 60.4647 46.0309 60.4647 46.3255Z" fill="white"/>
<path d="M61.7823 47.3922C61.7823 47.6867 61.5436 47.9255 61.249 47.9255C60.9545 47.9255 60.7157 47.6867 60.7157 47.3922C60.7157 47.0976 60.9545 46.8588 61.249 46.8588C61.5436 46.8588 61.7823 47.0976 61.7823 47.3922Z" fill="white"/>
<path d="M63.2882 48.4588C63.2882 48.7534 63.0494 48.9922 62.7549 48.9922C62.4603 48.9922 62.2216 48.7534 62.2216 48.4588C62.2216 48.1643 62.4603 47.9255 62.7549 47.9255C63.0494 47.9255 63.2882 48.1643 63.2882 48.4588Z" fill="white"/>
<path d="M64.9823 49.2118C64.9823 49.5063 64.7436 49.7451 64.449 49.7451C64.1545 49.7451 63.9157 49.5063 63.9157 49.2118C63.9157 48.9172 64.1545 48.6784 64.449 48.6784C64.7436 48.6784 64.9823 48.9172 64.9823 49.2118Z" fill="white"/>
<path d="M63.4765 33.4C63.4765 33.5559 63.35 33.6824 63.1941 33.6824C63.0382 33.6824 62.9117 33.5559 62.9117 33.4C62.9117 33.2441 63.0382 33.1176 63.1941 33.1176C63.35 33.1176 63.4765 33.2441 63.4765 33.4Z" fill="white"/>
<path d="M63.8529 32.5216C63.8529 32.6775 63.7265 32.8039 63.5706 32.8039C63.4146 32.8039 63.2882 32.6775 63.2882 32.5216C63.2882 32.3656 63.4146 32.2392 63.5706 32.2392C63.7265 32.2392 63.8529 32.3656 63.8529 32.5216Z" fill="white"/>
<path d="M64.4176 31.7059C64.4176 31.8618 64.2912 31.9882 64.1353 31.9882C63.9793 31.9882 63.8529 31.8618 63.8529 31.7059C63.8529 31.5499 63.9793 31.4235 64.1353 31.4235C64.2912 31.4235 64.4176 31.5499 64.4176 31.7059Z" fill="white"/>
<path d="M64.9823 30.9529C64.9823 31.1089 64.8559 31.2353 64.7 31.2353C64.544 31.2353 64.4176 31.1089 64.4176 30.9529C64.4176 30.797 64.544 30.6706 64.7 30.6706C64.8559 30.6706 64.9823 30.797 64.9823 30.9529Z" fill="white"/>
<path d="M65.6725 30.3255C65.6725 30.4814 65.5461 30.6078 65.3902 30.6078C65.2342 30.6078 65.1078 30.4814 65.1078 30.3255C65.1078 30.1696 65.2342 30.0431 65.3902 30.0431C65.5461 30.0431 65.6725 30.1696 65.6725 30.3255Z" fill="white"/>
<path d="M66.4255 29.7608C66.4255 29.9167 66.2991 30.0431 66.1431 30.0431C65.9872 30.0431 65.8608 29.9167 65.8608 29.7608C65.8608 29.6048 65.9872 29.4784 66.1431 29.4784C66.2991 29.4784 66.4255 29.6048 66.4255 29.7608Z" fill="white"/>
<path d="M67.3039 29.2588C67.3039 29.4148 67.1775 29.5412 67.0216 29.5412C66.8656 29.5412 66.7392 29.4148 66.7392 29.2588C66.7392 29.1029 66.8656 28.9765 67.0216 28.9765C67.1775 28.9765 67.3039 29.1029 67.3039 29.2588Z" fill="white"/>
<path d="M68.1823 28.9451C68.1823 29.101 68.0559 29.2275 67.9 29.2275C67.744 29.2275 67.6176 29.101 67.6176 28.9451C67.6176 28.7892 67.744 28.6627 67.9 28.6627C68.0559 28.6627 68.1823 28.7892 68.1823 28.9451Z" fill="white"/>
<path d="M69.0608 28.6941C69.0608 28.8501 68.9344 28.9765 68.7784 28.9765C68.6225 28.9765 68.4961 28.8501 68.4961 28.6941C68.4961 28.5382 68.6225 28.4118 68.7784 28.4118C68.9344 28.4118 69.0608 28.5382 69.0608 28.6941Z" fill="white"/>
<path d="M70.0647 28.5686C70.0647 28.7246 69.9383 28.851 69.7823 28.851C69.6264 28.851 69.5 28.7246 69.5 28.5686C69.5 28.4127 69.6264 28.2863 69.7823 28.2863C69.9383 28.2863 70.0647 28.4127 70.0647 28.5686Z" fill="white"/>
<path d="M71.0059 28.5059C71.0059 28.6618 70.8795 28.7882 70.7235 28.7882C70.5676 28.7882 70.4412 28.6618 70.4412 28.5059C70.4412 28.3499 70.5676 28.2235 70.7235 28.2235C70.8795 28.2235 71.0059 28.3499 71.0059 28.5059Z" fill="white"/>
<path d="M71.947 28.6314C71.947 28.7873 71.8206 28.9137 71.6647 28.9137C71.5088 28.9137 71.3823 28.7873 71.3823 28.6314C71.3823 28.4754 71.5088 28.349 71.6647 28.349C71.8206 28.349 71.947 28.4754 71.947 28.6314Z" fill="white"/>
<path d="M72.8882 28.8196C72.8882 28.9755 72.7618 29.102 72.6059 29.102C72.4499 29.102 72.3235 28.9755 72.3235 28.8196C72.3235 28.6637 72.4499 28.5373 72.6059 28.5373C72.7618 28.5373 72.8882 28.6637 72.8882 28.8196Z" fill="white"/>
<path d="M73.8294 29.1333C73.8294 29.2893 73.703 29.4157 73.547 29.4157C73.3911 29.4157 73.2647 29.2893 73.2647 29.1333C73.2647 28.9774 73.3911 28.851 73.547 28.851C73.703 28.851 73.8294 28.9774 73.8294 29.1333Z" fill="white"/>
<path d="M74.7078 29.6353C74.7078 29.7912 74.5814 29.9176 74.4255 29.9176C74.2695 29.9176 74.1431 29.7912 74.1431 29.6353C74.1431 29.4794 74.2695 29.3529 74.4255 29.3529C74.5814 29.3529 74.7078 29.4794 74.7078 29.6353Z" fill="white"/>
<path d="M75.5235 30.1373C75.5235 30.2932 75.3971 30.4196 75.2412 30.4196C75.0852 30.4196 74.9588 30.2932 74.9588 30.1373C74.9588 29.9813 75.0852 29.8549 75.2412 29.8549C75.3971 29.8549 75.5235 29.9813 75.5235 30.1373Z" fill="white"/>
<path d="M76.3392 30.7647C76.3392 30.9206 76.2128 31.0471 76.0568 31.0471C75.9009 31.0471 75.7745 30.9206 75.7745 30.7647C75.7745 30.6088 75.9009 30.4824 76.0568 30.4824C76.2128 30.4824 76.3392 30.6088 76.3392 30.7647Z" fill="white"/>
<path d="M77.0294 31.4549C77.0294 31.6108 76.903 31.7373 76.747 31.7373C76.5911 31.7373 76.4647 31.6108 76.4647 31.4549C76.4647 31.299 76.5911 31.1726 76.747 31.1726C76.903 31.1726 77.0294 31.299 77.0294 31.4549Z" fill="white"/>
<path d="M77.6568 32.2706C77.6568 32.4265 77.5304 32.5529 77.3745 32.5529C77.2186 32.5529 77.0921 32.4265 77.0921 32.2706C77.0921 32.1146 77.2186 31.9882 77.3745 31.9882C77.5304 31.9882 77.6568 32.1146 77.6568 32.2706Z" fill="white"/>
<path d="M78.2216 33.149C78.2216 33.305 78.0951 33.4314 77.9392 33.4314C77.7833 33.4314 77.6568 33.305 77.6568 33.149C77.6568 32.9931 77.7833 32.8667 77.9392 32.8667C78.0951 32.8667 78.2216 32.9931 78.2216 33.149Z" fill="white"/>
<path d="M78.6608 34.0275C78.6608 34.1834 78.5344 34.3098 78.3784 34.3098C78.2225 34.3098 78.0961 34.1834 78.0961 34.0275C78.0961 33.8715 78.2225 33.7451 78.3784 33.7451C78.5344 33.7451 78.6608 33.8715 78.6608 34.0275Z" fill="white"/>
<path d="M78.9745 34.9686C78.9745 35.1246 78.8481 35.251 78.6921 35.251C78.5362 35.251 78.4098 35.1246 78.4098 34.9686C78.4098 34.8127 78.5362 34.6863 78.6921 34.6863C78.8481 34.6863 78.9745 34.8127 78.9745 34.9686Z" fill="white"/>
<path d="M79.2255 35.9726C79.2255 36.1285 79.0991 36.2549 78.9431 36.2549C78.7872 36.2549 78.6608 36.1285 78.6608 35.9726C78.6608 35.8166 78.7872 35.6902 78.9431 35.6902C79.0991 35.6902 79.2255 35.8166 79.2255 35.9726Z" fill="white"/>
<path d="M79.351 36.9765C79.351 37.1324 79.2246 37.2588 79.0686 37.2588C78.9127 37.2588 78.7863 37.1324 78.7863 36.9765C78.7863 36.8205 78.9127 36.6941 79.0686 36.6941C79.2246 36.6941 79.351 36.8205 79.351 36.9765Z" fill="white"/>
<path d="M79.351 37.9804C79.351 38.1363 79.2246 38.2627 79.0686 38.2627C78.9127 38.2627 78.7863 38.1363 78.7863 37.9804C78.7863 37.8245 78.9127 37.698 79.0686 37.698C79.2246 37.698 79.351 37.8245 79.351 37.9804Z" fill="white"/>
<path d="M79.2882 38.9843C79.2882 39.1403 79.1618 39.2667 79.0059 39.2667C78.8499 39.2667 78.7235 39.1403 78.7235 38.9843C78.7235 38.8284 78.8499 38.702 79.0059 38.702C79.1618 38.702 79.2882 38.8284 79.2882 38.9843Z" fill="white"/>
<path d="M79.0372 39.9255C79.0372 40.0814 78.9108 40.2078 78.7549 40.2078C78.5989 40.2078 78.4725 40.0814 78.4725 39.9255C78.4725 39.7696 78.5989 39.6431 78.7549 39.6431C78.9108 39.6431 79.0372 39.7696 79.0372 39.9255Z" fill="white"/>
<path d="M78.7235 40.8667C78.7235 41.0226 78.5971 41.149 78.4412 41.149C78.2852 41.149 78.1588 41.0226 78.1588 40.8667C78.1588 40.7107 78.2852 40.5843 78.4412 40.5843C78.5971 40.5843 78.7235 40.7107 78.7235 40.8667Z" fill="white"/>
<path d="M78.2843 41.7451C78.2843 41.901 78.1579 42.0275 78.0019 42.0275C77.846 42.0275 77.7196 41.901 77.7196 41.7451C77.7196 41.5892 77.846 41.4627 78.0019 41.4627C78.1579 41.4627 78.2843 41.5892 78.2843 41.7451Z" fill="white"/>
<path d="M77.7823 42.5608C77.7823 42.7167 77.6559 42.8431 77.5 42.8431C77.344 42.8431 77.2176 42.7167 77.2176 42.5608C77.2176 42.4048 77.344 42.2784 77.5 42.2784C77.6559 42.2784 77.7823 42.4048 77.7823 42.5608Z" fill="white"/>
<path d="M77.2176 43.3137C77.2176 43.4697 77.0912 43.5961 76.9353 43.5961C76.7793 43.5961 76.6529 43.4697 76.6529 43.3137C76.6529 43.1578 76.7793 43.0314 76.9353 43.0314C77.0912 43.0314 77.2176 43.1578 77.2176 43.3137Z" fill="white"/>
<path d="M76.5274 43.9412C76.5274 44.0971 76.401 44.2235 76.2451 44.2235C76.0891 44.2235 75.9627 44.0971 75.9627 43.9412C75.9627 43.7852 76.0891 43.6588 76.2451 43.6588C76.401 43.6588 76.5274 43.7852 76.5274 43.9412Z" fill="white"/>
<path d="M75.7745 44.5059C75.7745 44.6618 75.6481 44.7882 75.4921 44.7882C75.3362 44.7882 75.2098 44.6618 75.2098 44.5059C75.2098 44.3499 75.3362 44.2235 75.4921 44.2235C75.6481 44.2235 75.7745 44.3499 75.7745 44.5059Z" fill="white"/>
<path d="M74.8961 45.0078C74.8961 45.1638 74.7697 45.2902 74.6137 45.2902C74.4578 45.2902 74.3314 45.1638 74.3314 45.0078C74.3314 44.8519 74.4578 44.7255 74.6137 44.7255C74.7697 44.7255 74.8961 44.8519 74.8961 45.0078Z" fill="white"/>
<path d="M74.0176 45.3216C74.0176 45.4775 73.8912 45.6039 73.7353 45.6039C73.5793 45.6039 73.4529 45.4775 73.4529 45.3216C73.4529 45.1656 73.5793 45.0392 73.7353 45.0392C73.8912 45.0392 74.0176 45.1656 74.0176 45.3216Z" fill="white"/>
<path d="M73.1392 45.5725C73.1392 45.7285 73.0128 45.8549 72.8568 45.8549C72.7009 45.8549 72.5745 45.7285 72.5745 45.5725C72.5745 45.4166 72.7009 45.2902 72.8568 45.2902C73.0128 45.2902 73.1392 45.4166 73.1392 45.5725Z" fill="white"/>
<path d="M71.1941 45.7608C71.1941 45.9167 71.0677 46.0431 70.9118 46.0431C70.7558 46.0431 70.6294 45.9167 70.6294 45.7608C70.6294 45.6048 70.7558 45.4784 70.9118 45.4784C71.0677 45.4784 71.1941 45.6048 71.1941 45.7608Z" fill="white"/>
<path d="M70.2529 45.6353C70.2529 45.7912 70.1265 45.9176 69.9706 45.9176C69.8146 45.9176 69.6882 45.7912 69.6882 45.6353C69.6882 45.4794 69.8146 45.3529 69.9706 45.3529C70.1265 45.3529 70.2529 45.4794 70.2529 45.6353Z" fill="white"/>
<path d="M69.3118 45.4471C69.3118 45.603 69.1853 45.7294 69.0294 45.7294C68.8735 45.7294 68.747 45.603 68.747 45.4471C68.747 45.2911 68.8735 45.1647 69.0294 45.1647C69.1853 45.1647 69.3118 45.2911 69.3118 45.4471Z" fill="white"/>
<path d="M68.3706 45.0706C68.3706 45.2265 68.2442 45.3529 68.0882 45.3529C67.9323 45.3529 67.8059 45.2265 67.8059 45.0706C67.8059 44.9146 67.9323 44.7882 68.0882 44.7882C68.2442 44.7882 68.3706 44.9146 68.3706 45.0706Z" fill="white"/>
<path d="M67.4921 44.6314C67.4921 44.7873 67.3657 44.9137 67.2098 44.9137C67.0539 44.9137 66.9274 44.7873 66.9274 44.6314C66.9274 44.4754 67.0539 44.349 67.2098 44.349C67.3657 44.349 67.4921 44.4754 67.4921 44.6314Z" fill="white"/>
<path d="M66.6137 44.1294C66.6137 44.2854 66.4873 44.4118 66.3314 44.4118C66.1754 44.4118 66.049 44.2854 66.049 44.1294C66.049 43.9735 66.1754 43.8471 66.3314 43.8471C66.4873 43.8471 66.6137 43.9735 66.6137 44.1294Z" fill="white"/>
<path d="M65.8608 43.502C65.8608 43.6579 65.7344 43.7843 65.5784 43.7843C65.4225 43.7843 65.2961 43.6579 65.2961 43.502C65.2961 43.346 65.4225 43.2196 65.5784 43.2196C65.7344 43.2196 65.8608 43.346 65.8608 43.502Z" fill="white"/>
<path d="M65.1706 42.749C65.1706 42.905 65.0442 43.0314 64.8882 43.0314C64.7323 43.0314 64.6059 42.905 64.6059 42.749C64.6059 42.5931 64.7323 42.4667 64.8882 42.4667C65.0442 42.4667 65.1706 42.5931 65.1706 42.749Z" fill="white"/>
<path d="M64.5431 41.9961C64.5431 42.152 64.4167 42.2784 64.2608 42.2784C64.1048 42.2784 63.9784 42.152 63.9784 41.9961C63.9784 41.8401 64.1048 41.7137 64.2608 41.7137C64.4167 41.7137 64.5431 41.8401 64.5431 41.9961Z" fill="white"/>
<path d="M63.9784 41.1176C63.9784 41.2736 63.852 41.4 63.6961 41.4C63.5401 41.4 63.4137 41.2736 63.4137 41.1176C63.4137 40.9617 63.5401 40.8353 63.6961 40.8353C63.852 40.8353 63.9784 40.9617 63.9784 41.1176Z" fill="white"/>
<path d="M63.5392 40.1765C63.5392 40.3324 63.4128 40.4588 63.2568 40.4588C63.1009 40.4588 62.9745 40.3324 62.9745 40.1765C62.9745 40.0205 63.1009 39.8941 63.2568 39.8941C63.4128 39.8941 63.5392 40.0205 63.5392 40.1765Z" fill="white"/>
<path d="M63.2255 39.2353C63.2255 39.3912 63.0991 39.5176 62.9431 39.5176C62.7872 39.5176 62.6608 39.3912 62.6608 39.2353C62.6608 39.0794 62.7872 38.9529 62.9431 38.9529C63.0991 38.9529 63.2255 39.0794 63.2255 39.2353Z" fill="white"/>
<path d="M62.9745 38.2314C62.9745 38.3873 62.8481 38.5137 62.6921 38.5137C62.5362 38.5137 62.4098 38.3873 62.4098 38.2314C62.4098 38.0754 62.5362 37.949 62.6921 37.949C62.8481 37.949 62.9745 38.0754 62.9745 38.2314Z" fill="white"/>
<path d="M62.849 37.2902C62.849 37.4461 62.7226 37.5725 62.5667 37.5725C62.4107 37.5725 62.2843 37.4461 62.2843 37.2902C62.2843 37.1343 62.4107 37.0078 62.5667 37.0078C62.7226 37.0078 62.849 37.1343 62.849 37.2902Z" fill="white"/>
<path d="M62.849 36.2863C62.849 36.4422 62.7226 36.5686 62.5667 36.5686C62.4107 36.5686 62.2843 36.4422 62.2843 36.2863C62.2843 36.1303 62.4107 36.0039 62.5667 36.0039C62.7226 36.0039 62.849 36.1303 62.849 36.2863Z" fill="white"/>
<path d="M62.9117 35.2824C62.9117 35.4383 62.7853 35.5647 62.6294 35.5647C62.4735 35.5647 62.347 35.4383 62.347 35.2824C62.347 35.1264 62.4735 35 62.6294 35C62.7853 35 62.9117 35.1264 62.9117 35.2824Z" fill="white"/>
<path d="M63.1627 34.2784C63.1627 34.4344 63.0363 34.5608 62.8804 34.5608C62.7244 34.5608 62.598 34.4344 62.598 34.2784C62.598 34.1225 62.7244 33.9961 62.8804 33.9961C63.0363 33.9961 63.1627 34.1225 63.1627 34.2784Z" fill="white"/>
<path d="M72.198 45.698C72.198 45.854 72.0716 45.9804 71.9157 45.9804C71.7597 45.9804 71.6333 45.854 71.6333 45.698C71.6333 45.5421 71.7597 45.4157 71.9157 45.4157C72.0716 45.4157 72.198 45.5421 72.198 45.698Z" fill="white"/>
<path d="M35.043 67.5117H38.0371V71.666C37.5879 71.8184 37.125 71.9316 36.6484 72.0059C36.1758 72.0801 35.6465 72.1172 35.0605 72.1172C34.1699 72.1172 33.418 71.9395 32.8047 71.584C32.1953 71.2285 31.7324 70.7227 31.416 70.0664C31.0996 69.4062 30.9414 68.623 30.9414 67.7168C30.9414 66.8301 31.1152 66.0566 31.4629 65.3965C31.8145 64.7363 32.3203 64.2246 32.9805 63.8613C33.6445 63.4941 34.4414 63.3105 35.3711 63.3105C35.8477 63.3105 36.2988 63.3555 36.7246 63.4453C37.1543 63.5312 37.5527 63.6543 37.9199 63.8145L37.5391 64.6816C37.2227 64.5449 36.873 64.4277 36.4902 64.3301C36.1113 64.2324 35.7188 64.1836 35.3125 64.1836C34.6133 64.1836 34.0137 64.3281 33.5137 64.6172C33.0176 64.9062 32.6367 65.3145 32.3711 65.8418C32.1094 66.3691 31.9785 66.9941 31.9785 67.7168C31.9785 68.4316 32.0938 69.0547 32.3242 69.5859C32.5547 70.1133 32.9141 70.5234 33.4023 70.8164C33.8906 71.1094 34.5195 71.2559 35.2891 71.2559C35.6758 71.2559 36.0078 71.2344 36.2852 71.1914C36.5625 71.1445 36.8145 71.0898 37.041 71.0273V68.4023H35.043V67.5117ZM45.502 68.7773C45.502 69.3047 45.4336 69.7754 45.2969 70.1895C45.1602 70.6035 44.9629 70.9531 44.7051 71.2383C44.4473 71.5234 44.1348 71.7422 43.7676 71.8945C43.4043 72.043 42.9922 72.1172 42.5312 72.1172C42.1016 72.1172 41.707 72.043 41.3477 71.8945C40.9922 71.7422 40.6836 71.5234 40.4219 71.2383C40.1641 70.9531 39.9629 70.6035 39.8184 70.1895C39.6777 69.7754 39.6074 69.3047 39.6074 68.7773C39.6074 68.0742 39.7266 67.4766 39.9648 66.9844C40.2031 66.4883 40.543 66.1113 40.9844 65.8535C41.4297 65.5918 41.959 65.4609 42.5723 65.4609C43.1582 65.4609 43.6699 65.5918 44.1074 65.8535C44.5488 66.1152 44.8906 66.4941 45.1328 66.9902C45.3789 67.4824 45.502 68.0781 45.502 68.7773ZM40.6152 68.7773C40.6152 69.293 40.6836 69.7402 40.8203 70.1191C40.957 70.498 41.168 70.791 41.4531 70.998C41.7383 71.2051 42.1055 71.3086 42.5547 71.3086C43 71.3086 43.3652 71.2051 43.6504 70.998C43.9395 70.791 44.1523 70.498 44.2891 70.1191C44.4258 69.7402 44.4941 69.293 44.4941 68.7773C44.4941 68.2656 44.4258 67.8242 44.2891 67.4531C44.1523 67.0781 43.9414 66.7891 43.6562 66.5859C43.3711 66.3828 43.002 66.2812 42.5488 66.2812C41.8809 66.2812 41.3906 66.502 41.0781 66.9434C40.7695 67.3848 40.6152 67.9961 40.6152 68.7773ZM50.4473 63.4336H52.873C53.9434 63.4336 54.748 63.5938 55.2871 63.9141C55.8262 64.2344 56.0957 64.7793 56.0957 65.5488C56.0957 65.8809 56.0312 66.1797 55.9023 66.4453C55.7773 66.707 55.5938 66.9238 55.3516 67.0957C55.1094 67.2676 54.8105 67.3867 54.4551 67.4531V67.5117C54.8301 67.5703 55.1621 67.6777 55.4512 67.834C55.7402 67.9902 55.9668 68.209 56.1309 68.4902C56.2949 68.7715 56.377 69.1289 56.377 69.5625C56.377 70.0898 56.2539 70.5352 56.0078 70.8984C55.7656 71.2617 55.4219 71.5371 54.9766 71.7246C54.5312 71.9082 54.0039 72 53.3945 72H50.4473V63.4336ZM51.4434 67.1074H53.084C53.8301 67.1074 54.3457 66.9844 54.6309 66.7383C54.9199 66.4922 55.0645 66.1328 55.0645 65.6602C55.0645 65.1719 54.8926 64.8203 54.5488 64.6055C54.209 64.3906 53.666 64.2832 52.9199 64.2832H51.4434V67.1074ZM51.4434 67.9453V71.1504H53.2246C53.9863 71.1504 54.5254 71.002 54.8418 70.7051C55.1582 70.4043 55.3164 70 55.3164 69.4922C55.3164 69.168 55.2441 68.8906 55.0996 68.6602C54.959 68.4297 54.7285 68.2539 54.4082 68.1328C54.0918 68.0078 53.668 67.9453 53.1367 67.9453H51.4434ZM60.4609 65.4727C61.2266 65.4727 61.7949 65.6445 62.166 65.9883C62.5371 66.332 62.7227 66.8809 62.7227 67.6348V72H62.0137L61.8262 71.0508H61.7793C61.5996 71.2852 61.4121 71.4824 61.2168 71.6426C61.0215 71.7988 60.7949 71.918 60.5371 72C60.2832 72.0781 59.9707 72.1172 59.5996 72.1172C59.209 72.1172 58.8613 72.0488 58.5566 71.9121C58.2559 71.7754 58.0176 71.5684 57.8418 71.291C57.6699 71.0137 57.584 70.6621 57.584 70.2363C57.584 69.5957 57.8379 69.1035 58.3457 68.7598C58.8535 68.416 59.627 68.2285 60.666 68.1973L61.7734 68.1504V67.7578C61.7734 67.2031 61.6543 66.8145 61.416 66.5918C61.1777 66.3691 60.8418 66.2578 60.4082 66.2578C60.0723 66.2578 59.752 66.3066 59.4473 66.4043C59.1426 66.502 58.8535 66.6172 58.5801 66.75L58.2812 66.0117C58.5703 65.8633 58.9023 65.7363 59.2773 65.6309C59.6523 65.5254 60.0469 65.4727 60.4609 65.4727ZM61.7617 68.8359L60.7832 68.877C59.9824 68.9082 59.418 69.0391 59.0898 69.2695C58.7617 69.5 58.5977 69.8262 58.5977 70.248C58.5977 70.6152 58.709 70.8867 58.9316 71.0625C59.1543 71.2383 59.4492 71.3262 59.8164 71.3262C60.3867 71.3262 60.8535 71.168 61.2168 70.8516C61.5801 70.5352 61.7617 70.0605 61.7617 69.4277V68.8359ZM67.2988 72.1172C66.7207 72.1172 66.2109 71.998 65.7695 71.7598C65.3281 71.5215 64.9844 71.1582 64.7383 70.6699C64.4922 70.1816 64.3691 69.5664 64.3691 68.8242C64.3691 68.0469 64.498 67.4121 64.7559 66.9199C65.0176 66.4238 65.377 66.0566 65.834 65.8184C66.291 65.5801 66.8105 65.4609 67.3926 65.4609C67.7129 65.4609 68.0215 65.4941 68.3184 65.5605C68.6191 65.623 68.8652 65.7031 69.0566 65.8008L68.7637 66.6152C68.5684 66.5371 68.3418 66.4668 68.084 66.4043C67.8301 66.3418 67.5918 66.3105 67.3691 66.3105C66.9238 66.3105 66.5527 66.4062 66.2559 66.5977C65.9629 66.7891 65.7422 67.0703 65.5938 67.4414C65.4492 67.8125 65.377 68.2695 65.377 68.8125C65.377 69.332 65.4473 69.7754 65.5879 70.1426C65.7324 70.5098 65.9453 70.791 66.2266 70.9863C66.5117 71.1777 66.8672 71.2734 67.293 71.2734C67.6328 71.2734 67.9395 71.2383 68.2129 71.168C68.4863 71.0938 68.7344 71.0078 68.957 70.9102V71.7773C68.7422 71.8867 68.502 71.9707 68.2363 72.0293C67.9746 72.0879 67.6621 72.1172 67.2988 72.1172ZM71.4473 62.8828V67.6172C71.4473 67.7734 71.4414 67.9648 71.4297 68.1914C71.418 68.4141 71.4082 68.6113 71.4004 68.7832H71.4414C71.5234 68.6816 71.6426 68.5312 71.7988 68.332C71.959 68.1328 72.0938 67.9727 72.2031 67.8516L74.3359 65.5781H75.4785L72.8945 68.3203L75.666 72H74.4941L72.2266 68.959L71.4473 69.6738V72H70.4805V62.8828H71.4473ZM86.541 72H85.5449V67.9629H81.0449V72H80.0488V63.4336H81.0449V67.084H85.5449V63.4336H86.541V72ZM94.2871 68.7773C94.2871 69.3047 94.2188 69.7754 94.082 70.1895C93.9453 70.6035 93.748 70.9531 93.4902 71.2383C93.2324 71.5234 92.9199 71.7422 92.5527 71.8945C92.1895 72.043 91.7773 72.1172 91.3164 72.1172C90.8867 72.1172 90.4922 72.043 90.1328 71.8945C89.7773 71.7422 89.4688 71.5234 89.207 71.2383C88.9492 70.9531 88.748 70.6035 88.6035 70.1895C88.4629 69.7754 88.3926 69.3047 88.3926 68.7773C88.3926 68.0742 88.5117 67.4766 88.75 66.9844C88.9883 66.4883 89.3281 66.1113 89.7695 65.8535C90.2148 65.5918 90.7441 65.4609 91.3574 65.4609C91.9434 65.4609 92.4551 65.5918 92.8926 65.8535C93.334 66.1152 93.6758 66.4941 93.918 66.9902C94.1641 67.4824 94.2871 68.0781 94.2871 68.7773ZM89.4004 68.7773C89.4004 69.293 89.4688 69.7402 89.6055 70.1191C89.7422 70.498 89.9531 70.791 90.2383 70.998C90.5234 71.2051 90.8906 71.3086 91.3398 71.3086C91.7852 71.3086 92.1504 71.2051 92.4355 70.998C92.7246 70.791 92.9375 70.498 93.0742 70.1191C93.2109 69.7402 93.2793 69.293 93.2793 68.7773C93.2793 68.2656 93.2109 67.8242 93.0742 67.4531C92.9375 67.0781 92.7266 66.7891 92.4414 66.5859C92.1562 66.3828 91.7871 66.2812 91.334 66.2812C90.666 66.2812 90.1758 66.502 89.8633 66.9434C89.5547 67.3848 89.4004 67.9961 89.4004 68.7773ZM102.941 65.4609C103.648 65.4609 104.182 65.6465 104.541 66.0176C104.9 66.3848 105.08 66.9766 105.08 67.793V72H104.119V67.8398C104.119 67.3203 104.006 66.9316 103.779 66.6738C103.557 66.4121 103.225 66.2812 102.783 66.2812C102.162 66.2812 101.711 66.4609 101.43 66.8203C101.148 67.1797 101.008 67.709 101.008 68.4082V72H100.041V67.8398C100.041 67.4922 99.9902 67.2031 99.8887 66.9727C99.791 66.7422 99.6426 66.5703 99.4434 66.457C99.248 66.3398 99 66.2812 98.6992 66.2812C98.2734 66.2812 97.9316 66.3691 97.6738 66.5449C97.416 66.7207 97.2285 66.9824 97.1113 67.3301C96.998 67.6738 96.9414 68.0977 96.9414 68.6016V72H95.9688V65.5781H96.7539L96.9004 66.4863H96.9531C97.082 66.2637 97.2441 66.0762 97.4395 65.9238C97.6348 65.7715 97.8535 65.6562 98.0957 65.5781C98.3379 65.5 98.5957 65.4609 98.8691 65.4609C99.3574 65.4609 99.7656 65.5527 100.094 65.7363C100.426 65.916 100.666 66.1914 100.814 66.5625H100.867C101.078 66.1914 101.367 65.916 101.734 65.7363C102.102 65.5527 102.504 65.4609 102.941 65.4609ZM109.551 65.4609C110.098 65.4609 110.566 65.582 110.957 65.8242C111.348 66.0664 111.646 66.4062 111.854 66.8438C112.061 67.2773 112.164 67.7852 112.164 68.3672V68.9707H107.729C107.74 69.7246 107.928 70.2988 108.291 70.6934C108.654 71.0879 109.166 71.2852 109.826 71.2852C110.232 71.2852 110.592 71.248 110.904 71.1738C111.217 71.0996 111.541 70.9902 111.877 70.8457V71.7012C111.553 71.8457 111.23 71.9512 110.91 72.0176C110.594 72.084 110.219 72.1172 109.785 72.1172C109.168 72.1172 108.629 71.9922 108.168 71.7422C107.711 71.4883 107.355 71.1172 107.102 70.6289C106.848 70.1406 106.721 69.543 106.721 68.8359C106.721 68.1445 106.836 67.5469 107.066 67.043C107.301 66.5352 107.629 66.1445 108.051 65.8711C108.477 65.5977 108.977 65.4609 109.551 65.4609ZM109.539 66.2578C109.02 66.2578 108.605 66.4277 108.297 66.7676C107.988 67.1074 107.805 67.582 107.746 68.1914H111.145C111.141 67.8086 111.08 67.4727 110.963 67.1836C110.85 66.8906 110.676 66.6641 110.441 66.5039C110.207 66.3398 109.906 66.2578 109.539 66.2578Z" fill="white"/>
</svg>
