<svg width="142" height="94" viewBox="0 0 142 94" fill="none" xmlns="http://www.w3.org/2000/svg">
<rect x="1" y="1" width="140" height="92" rx="3" fill="white" fill-opacity="0.0605"/>
<rect x="0.5" y="0.5" width="141" height="93" rx="3.5" stroke="black" stroke-opacity="0.0305"/>
<path d="M84.5026 29.8008L81.1693 31.6341L77.8359 34.8008V45.6674H82.5026C83.6073 45.6674 84.5026 44.7721 84.5026 43.6674V29.8008Z" fill="#4CAF50"/>
<path d="M56.5039 29.8008L58.9132 30.9408L63.1706 34.8008V45.6674H58.5039C57.3992 45.6674 56.5039 44.7721 56.5039 43.6674V29.8008Z" fill="#1E88E5"/>
<path d="M77.8372 26.4648L70.5039 31.9648L63.1706 26.4648L62.5039 30.3315L63.1706 34.7982L70.5039 40.2982L77.8372 34.7982L78.5039 30.3315L77.8372 26.4648Z" fill="#E53935"/>
<path d="M56.5039 27.1974V29.7987L63.1706 34.7987V26.4654L61.0879 24.9047C60.5919 24.5327 59.9892 24.332 59.3692 24.332C57.7866 24.332 56.5039 25.6147 56.5039 27.1974Z" fill="#C62828"/>
<path d="M84.5026 27.1974V29.7987L77.8359 34.7987V26.4654L79.9186 24.9047C80.4146 24.5327 81.0173 24.332 81.6373 24.332C83.2199 24.332 84.5026 25.6147 84.5026 27.1974Z" fill="#FBC02D"/>
<path d="M24.9746 72L23.9199 69.2812H20.4863L19.4375 72H18.4297L21.7812 63.3984H22.6777L26.0059 72H24.9746ZM23.6211 68.3965L22.6191 65.6953C22.5957 65.625 22.5566 65.5098 22.502 65.3496C22.4512 65.1895 22.3984 65.0234 22.3438 64.8516C22.2891 64.6797 22.2441 64.541 22.209 64.4355C22.1699 64.5957 22.127 64.7559 22.0801 64.916C22.0371 65.0723 21.9941 65.2188 21.9512 65.3555C21.9082 65.4883 21.8711 65.6016 21.8398 65.6953L20.8203 68.3965H23.6211ZM31.2031 70.2422C31.2031 70.6523 31.0996 70.998 30.8926 71.2793C30.6895 71.5566 30.3965 71.7656 30.0137 71.9062C29.6348 72.0469 29.1816 72.1172 28.6543 72.1172C28.2051 72.1172 27.8164 72.082 27.4883 72.0117C27.1602 71.9414 26.873 71.8418 26.627 71.7129V70.8164C26.8887 70.9453 27.2012 71.0625 27.5645 71.168C27.9277 71.2734 28.2988 71.3262 28.6777 71.3262C29.2324 71.3262 29.6348 71.2363 29.8848 71.0566C30.1348 70.877 30.2598 70.6328 30.2598 70.3242C30.2598 70.1484 30.209 69.9941 30.1074 69.8613C30.0098 69.7246 29.8438 69.5938 29.6094 69.4688C29.375 69.3398 29.0508 69.1992 28.6367 69.0469C28.2266 68.8906 27.8711 68.7363 27.5703 68.584C27.2734 68.4277 27.043 68.2383 26.8789 68.0156C26.7188 67.793 26.6387 67.5039 26.6387 67.1484C26.6387 66.6055 26.8574 66.1895 27.2949 65.9004C27.7363 65.6074 28.3145 65.4609 29.0293 65.4609C29.416 65.4609 29.7773 65.5 30.1133 65.5781C30.4531 65.6523 30.7695 65.7539 31.0625 65.8828L30.7344 66.6621C30.4688 66.5488 30.1855 66.4531 29.8848 66.375C29.584 66.2969 29.2773 66.2578 28.9648 66.2578C28.5156 66.2578 28.1699 66.332 27.9277 66.4805C27.6895 66.6289 27.5703 66.832 27.5703 67.0898C27.5703 67.2891 27.625 67.4531 27.7344 67.582C27.8477 67.7109 28.0273 67.832 28.2734 67.9453C28.5195 68.0586 28.8438 68.1914 29.2461 68.3438C29.6484 68.4922 29.9961 68.6465 30.2891 68.8066C30.582 68.9629 30.8066 69.1543 30.9629 69.3809C31.123 69.6035 31.2031 69.8906 31.2031 70.2422ZM33.7344 62.8828V67.6172C33.7344 67.7734 33.7285 67.9648 33.7168 68.1914C33.7051 68.4141 33.6953 68.6113 33.6875 68.7832H33.7285C33.8105 68.6816 33.9297 68.5312 34.0859 68.332C34.2461 68.1328 34.3809 67.9727 34.4902 67.8516L36.623 65.5781H37.7656L35.1816 68.3203L37.9531 72H36.7812L34.5137 68.959L33.7344 69.6738V72H32.7676V62.8828H33.7344ZM46.1035 72L43.2266 64.418H43.1797C43.1953 64.5781 43.209 64.7734 43.2207 65.0039C43.2324 65.2344 43.2422 65.4863 43.25 65.7598C43.2578 66.0293 43.2617 66.3047 43.2617 66.5859V72H42.3359V63.4336H43.8125L46.5254 70.5586H46.5664L49.3203 63.4336H50.7852V72H49.8008V66.5156C49.8008 66.2617 49.8047 66.0078 49.8125 65.7539C49.8203 65.4961 49.8301 65.2539 49.8418 65.0273C49.8535 64.7969 49.8652 64.5977 49.877 64.4297H49.8301L46.918 72H46.1035ZM55.4551 65.4609C56.002 65.4609 56.4707 65.582 56.8613 65.8242C57.252 66.0664 57.5508 66.4062 57.7578 66.8438C57.9648 67.2773 58.0684 67.7852 58.0684 68.3672V68.9707H53.6328C53.6445 69.7246 53.832 70.2988 54.1953 70.6934C54.5586 71.0879 55.0703 71.2852 55.7305 71.2852C56.1367 71.2852 56.4961 71.248 56.8086 71.1738C57.1211 71.0996 57.4453 70.9902 57.7812 70.8457V71.7012C57.457 71.8457 57.1348 71.9512 56.8145 72.0176C56.498 72.084 56.123 72.1172 55.6895 72.1172C55.0723 72.1172 54.5332 71.9922 54.0723 71.7422C53.6152 71.4883 53.2598 71.1172 53.0059 70.6289C52.752 70.1406 52.625 69.543 52.625 68.8359C52.625 68.1445 52.7402 67.5469 52.9707 67.043C53.2051 66.5352 53.5332 66.1445 53.9551 65.8711C54.3809 65.5977 54.8809 65.4609 55.4551 65.4609ZM55.4434 66.2578C54.9238 66.2578 54.5098 66.4277 54.2012 66.7676C53.8926 67.1074 53.709 67.582 53.6504 68.1914H57.0488C57.0449 67.8086 56.9844 67.4727 56.8672 67.1836C56.7539 66.8906 56.5801 66.6641 56.3457 66.5039C56.1113 66.3398 55.8105 66.2578 55.4434 66.2578ZM68.3574 72L67.3027 69.2812H63.8691L62.8203 72H61.8125L65.1641 63.3984H66.0605L69.3887 72H68.3574ZM67.0039 68.3965L66.002 65.6953C65.9785 65.625 65.9395 65.5098 65.8848 65.3496C65.834 65.1895 65.7812 65.0234 65.7266 64.8516C65.6719 64.6797 65.627 64.541 65.5918 64.4355C65.5527 64.5957 65.5098 64.7559 65.4629 64.916C65.4199 65.0723 65.377 65.2188 65.334 65.3555C65.291 65.4883 65.2539 65.6016 65.2227 65.6953L64.2031 68.3965H67.0039ZM81.125 67.7051C81.125 68.4082 81.0293 69.0449 80.8379 69.6152C80.6465 70.1855 80.3613 70.668 79.9824 71.0625C79.6074 71.457 79.1387 71.7441 78.5762 71.9238L80.5918 74.0391H79.168L77.5098 72.1055C77.459 72.1055 77.4062 72.1074 77.3516 72.1113C77.3008 72.1152 77.25 72.1172 77.1992 72.1172C76.5352 72.1172 75.9551 72.0117 75.459 71.8008C74.9668 71.5898 74.5566 71.2891 74.2285 70.8984C73.9043 70.5078 73.6602 70.041 73.4961 69.498C73.3359 68.9551 73.2559 68.3535 73.2559 67.6934C73.2559 66.8184 73.4004 66.0508 73.6895 65.3906C73.9785 64.7305 74.416 64.2168 75.002 63.8496C75.5918 63.4824 76.3301 63.2988 77.2168 63.2988C78.0645 63.2988 78.7773 63.4805 79.3555 63.8438C79.9375 64.207 80.377 64.7188 80.6738 65.3789C80.9746 66.0352 81.125 66.8105 81.125 67.7051ZM74.3047 67.7051C74.3047 68.4316 74.4082 69.0605 74.6152 69.5918C74.8223 70.123 75.1387 70.5332 75.5645 70.8223C75.9941 71.1113 76.5391 71.2559 77.1992 71.2559C77.8633 71.2559 78.4062 71.1113 78.8281 70.8223C79.2539 70.5332 79.5684 70.123 79.7715 69.5918C79.9746 69.0605 80.0762 68.4316 80.0762 67.7051C80.0762 66.5996 79.8438 65.7363 79.3789 65.1152C78.918 64.4902 78.1973 64.1777 77.2168 64.1777C76.5527 64.1777 76.0059 64.3203 75.5762 64.6055C75.1465 64.8906 74.8262 65.2969 74.6152 65.8242C74.4082 66.3477 74.3047 66.9746 74.3047 67.7051ZM88.1914 65.5781V72H87.3945L87.2539 71.0977H87.2012C87.0684 71.3203 86.8965 71.5078 86.6855 71.6602C86.4746 71.8125 86.2363 71.9258 85.9707 72C85.709 72.0781 85.4297 72.1172 85.1328 72.1172C84.625 72.1172 84.1992 72.0352 83.8555 71.8711C83.5117 71.707 83.252 71.4531 83.0762 71.1094C82.9043 70.7656 82.8184 70.3242 82.8184 69.7852V65.5781H83.8027V69.7148C83.8027 70.25 83.9238 70.6504 84.166 70.916C84.4082 71.1777 84.7773 71.3086 85.2734 71.3086C85.75 71.3086 86.1289 71.2188 86.4102 71.0391C86.6953 70.8594 86.9004 70.5957 87.0254 70.248C87.1504 69.8965 87.2129 69.4668 87.2129 68.959V65.5781H88.1914ZM92.7207 65.4609C93.2676 65.4609 93.7363 65.582 94.127 65.8242C94.5176 66.0664 94.8164 66.4062 95.0234 66.8438C95.2305 67.2773 95.334 67.7852 95.334 68.3672V68.9707H90.8984C90.9102 69.7246 91.0977 70.2988 91.4609 70.6934C91.8242 71.0879 92.3359 71.2852 92.9961 71.2852C93.4023 71.2852 93.7617 71.248 94.0742 71.1738C94.3867 71.0996 94.7109 70.9902 95.0469 70.8457V71.7012C94.7227 71.8457 94.4004 71.9512 94.0801 72.0176C93.7637 72.084 93.3887 72.1172 92.9551 72.1172C92.3379 72.1172 91.7988 71.9922 91.3379 71.7422C90.8809 71.4883 90.5254 71.1172 90.2715 70.6289C90.0176 70.1406 89.8906 69.543 89.8906 68.8359C89.8906 68.1445 90.0059 67.5469 90.2363 67.043C90.4707 66.5352 90.7988 66.1445 91.2207 65.8711C91.6465 65.5977 92.1465 65.4609 92.7207 65.4609ZM92.709 66.2578C92.1895 66.2578 91.7754 66.4277 91.4668 66.7676C91.1582 67.1074 90.9746 67.582 90.916 68.1914H94.3145C94.3105 67.8086 94.25 67.4727 94.1328 67.1836C94.0195 66.8906 93.8457 66.6641 93.6113 66.5039C93.377 66.3398 93.0762 66.2578 92.709 66.2578ZM101.141 70.2422C101.141 70.6523 101.037 70.998 100.83 71.2793C100.627 71.5566 100.334 71.7656 99.9512 71.9062C99.5723 72.0469 99.1191 72.1172 98.5918 72.1172C98.1426 72.1172 97.7539 72.082 97.4258 72.0117C97.0977 71.9414 96.8105 71.8418 96.5645 71.7129V70.8164C96.8262 70.9453 97.1387 71.0625 97.502 71.168C97.8652 71.2734 98.2363 71.3262 98.6152 71.3262C99.1699 71.3262 99.5723 71.2363 99.8223 71.0566C100.072 70.877 100.197 70.6328 100.197 70.3242C100.197 70.1484 100.146 69.9941 100.045 69.8613C99.9473 69.7246 99.7812 69.5938 99.5469 69.4688C99.3125 69.3398 98.9883 69.1992 98.5742 69.0469C98.1641 68.8906 97.8086 68.7363 97.5078 68.584C97.2109 68.4277 96.9805 68.2383 96.8164 68.0156C96.6562 67.793 96.5762 67.5039 96.5762 67.1484C96.5762 66.6055 96.7949 66.1895 97.2324 65.9004C97.6738 65.6074 98.252 65.4609 98.9668 65.4609C99.3535 65.4609 99.7148 65.5 100.051 65.5781C100.391 65.6523 100.707 65.7539 101 65.8828L100.672 66.6621C100.406 66.5488 100.123 66.4531 99.8223 66.375C99.5215 66.2969 99.2148 66.2578 98.9023 66.2578C98.4531 66.2578 98.1074 66.332 97.8652 66.4805C97.627 66.6289 97.5078 66.832 97.5078 67.0898C97.5078 67.2891 97.5625 67.4531 97.6719 67.582C97.7852 67.7109 97.9648 67.832 98.2109 67.9453C98.457 68.0586 98.7812 68.1914 99.1836 68.3438C99.5859 68.4922 99.9336 68.6465 100.227 68.8066C100.52 68.9629 100.744 69.1543 100.9 69.3809C101.061 69.6035 101.141 69.8906 101.141 70.2422ZM104.779 71.3203C104.939 71.3203 105.104 71.3066 105.271 71.2793C105.439 71.252 105.576 71.2188 105.682 71.1797V71.9355C105.568 71.9863 105.41 72.0293 105.207 72.0645C105.008 72.0996 104.812 72.1172 104.621 72.1172C104.281 72.1172 103.973 72.0586 103.695 71.9414C103.418 71.8203 103.195 71.6172 103.027 71.332C102.863 71.0469 102.781 70.6523 102.781 70.1484V66.3398H101.867V65.8652L102.787 65.4844L103.174 64.0898H103.76V65.5781H105.641V66.3398H103.76V70.1191C103.76 70.5215 103.852 70.8223 104.035 71.0215C104.223 71.2207 104.471 71.3203 104.779 71.3203ZM107.955 65.5781V72H106.982V65.5781H107.955ZM107.48 63.1758C107.641 63.1758 107.777 63.2285 107.891 63.334C108.008 63.4355 108.066 63.5957 108.066 63.8145C108.066 64.0293 108.008 64.1895 107.891 64.2949C107.777 64.4004 107.641 64.4531 107.48 64.4531C107.312 64.4531 107.172 64.4004 107.059 64.2949C106.949 64.1895 106.895 64.0293 106.895 63.8145C106.895 63.5957 106.949 63.4355 107.059 63.334C107.172 63.2285 107.312 63.1758 107.48 63.1758ZM115.555 68.7773C115.555 69.3047 115.486 69.7754 115.35 70.1895C115.213 70.6035 115.016 70.9531 114.758 71.2383C114.5 71.5234 114.188 71.7422 113.82 71.8945C113.457 72.043 113.045 72.1172 112.584 72.1172C112.154 72.1172 111.76 72.043 111.4 71.8945C111.045 71.7422 110.736 71.5234 110.475 71.2383C110.217 70.9531 110.016 70.6035 109.871 70.1895C109.73 69.7754 109.66 69.3047 109.66 68.7773C109.66 68.0742 109.779 67.4766 110.018 66.9844C110.256 66.4883 110.596 66.1113 111.037 65.8535C111.482 65.5918 112.012 65.4609 112.625 65.4609C113.211 65.4609 113.723 65.5918 114.16 65.8535C114.602 66.1152 114.943 66.4941 115.186 66.9902C115.432 67.4824 115.555 68.0781 115.555 68.7773ZM110.668 68.7773C110.668 69.293 110.736 69.7402 110.873 70.1191C111.01 70.498 111.221 70.791 111.506 70.998C111.791 71.2051 112.158 71.3086 112.607 71.3086C113.053 71.3086 113.418 71.2051 113.703 70.998C113.992 70.791 114.205 70.498 114.342 70.1191C114.479 69.7402 114.547 69.293 114.547 68.7773C114.547 68.2656 114.479 67.8242 114.342 67.4531C114.205 67.0781 113.994 66.7891 113.709 66.5859C113.424 66.3828 113.055 66.2812 112.602 66.2812C111.934 66.2812 111.443 66.502 111.131 66.9434C110.822 67.3848 110.668 67.9961 110.668 68.7773ZM120.277 65.4609C121.039 65.4609 121.615 65.6484 122.006 66.0234C122.396 66.3945 122.592 66.9922 122.592 67.8164V72H121.631V67.8809C121.631 67.3457 121.508 66.9453 121.262 66.6797C121.02 66.4141 120.646 66.2812 120.143 66.2812C119.432 66.2812 118.932 66.4824 118.643 66.8848C118.354 67.2871 118.209 67.8711 118.209 68.6367V72H117.236V65.5781H118.021L118.168 66.5039H118.221C118.357 66.2773 118.531 66.0879 118.742 65.9355C118.953 65.7793 119.189 65.6621 119.451 65.584C119.713 65.502 119.988 65.4609 120.277 65.4609Z" fill="white"/>
</svg>
