<svg width="80" height="41" viewBox="0 0 80 41" fill="none" xmlns="http://www.w3.org/2000/svg">
<g clip-path="url(#clip0_1189_1166)">
<path d="M16 15.5C15.4375 15.5 14.8802 15.5573 14.3281 15.6719C13.7812 15.7812 13.25 15.9453 12.7344 16.1641C12.2188 16.3776 11.7266 16.6406 11.2578 16.9531C10.7891 17.2656 10.3568 17.6224 9.96094 18.0234C9.76302 18.2214 9.58594 18.4297 9.42969 18.6484C9.27344 18.862 9.10677 19.0729 8.92969 19.2812C8.86719 19.3542 8.80729 19.4089 8.75 19.4453C8.69271 19.4818 8.61458 19.5 8.51562 19.5C8.375 19.5 8.25521 19.4531 8.15625 19.3594C8.0625 19.2604 8.01562 19.1406 8.01562 19C8.01562 18.901 8.04427 18.8073 8.10156 18.7188C8.51302 18.0625 9.01042 17.474 9.59375 16.9531C10.1823 16.4323 10.8229 15.9896 11.5156 15.625C12.2083 15.2604 12.9349 14.9818 13.6953 14.7891C14.4609 14.5964 15.2292 14.5 16 14.5C16.7656 14.5 17.5312 14.5964 18.2969 14.7891C19.0625 14.9818 19.7891 15.2604 20.4766 15.625C21.1693 15.9896 21.8073 16.4323 22.3906 16.9531C22.9792 17.474 23.4818 18.0625 23.8984 18.7188C23.9557 18.8073 23.9844 18.901 23.9844 19C23.9844 19.1406 23.9349 19.2604 23.8359 19.3594C23.7422 19.4531 23.625 19.5 23.4844 19.5C23.3958 19.5 23.3177 19.4818 23.25 19.4453C23.1875 19.4036 23.1276 19.349 23.0703 19.2812C23.013 19.2083 22.9583 19.1354 22.9062 19.0625C22.8594 18.9844 22.8073 18.9089 22.75 18.8359C22.6406 18.6901 22.526 18.5521 22.4062 18.4219C22.2865 18.2865 22.1641 18.1536 22.0391 18.0234C21.638 17.6224 21.2031 17.2656 20.7344 16.9531C20.2708 16.6406 19.7812 16.3776 19.2656 16.1641C18.7552 15.9453 18.224 15.7812 17.6719 15.6719C17.1198 15.5573 16.5625 15.5 16 15.5ZM16 18.5C15.6146 18.5 15.2318 18.5417 14.8516 18.625C14.4714 18.7083 14.1042 18.8307 13.75 18.9922C13.401 19.1484 13.0677 19.3411 12.75 19.5703C12.4375 19.7995 12.1536 20.0573 11.8984 20.3438C11.7734 20.4844 11.6589 20.6328 11.5547 20.7891C11.4557 20.9453 11.349 21.099 11.2344 21.25C11.1719 21.3281 11.1094 21.3906 11.0469 21.4375C10.9896 21.4792 10.9089 21.5 10.8047 21.5C10.6693 21.5 10.5521 21.4505 10.4531 21.3516C10.3542 21.2526 10.3047 21.1354 10.3047 21C10.3047 20.9167 10.3255 20.8333 10.3672 20.75C10.6328 20.2552 10.9714 19.8073 11.3828 19.4062C11.7943 19.0052 12.25 18.6641 12.75 18.3828C13.25 18.1016 13.776 17.8854 14.3281 17.7344C14.8854 17.5781 15.4427 17.5 16 17.5C16.5521 17.5 17.1068 17.5781 17.6641 17.7344C18.2214 17.8854 18.75 18.1016 19.25 18.3828C19.75 18.6641 20.2057 19.0052 20.6172 19.4062C21.0286 19.8073 21.3672 20.2552 21.6328 20.75C21.6745 20.8333 21.6953 20.9167 21.6953 21C21.6953 21.1354 21.6458 21.2526 21.5469 21.3516C21.4479 21.4505 21.3307 21.5 21.1953 21.5C21.0911 21.5 21.0078 21.4792 20.9453 21.4375C20.888 21.3906 20.8281 21.3281 20.7656 21.25C20.651 21.099 20.5417 20.9453 20.4375 20.7891C20.3385 20.6328 20.2266 20.4844 20.1016 20.3438C19.8464 20.0573 19.5599 19.7995 19.2422 19.5703C18.9297 19.3411 18.5964 19.1484 18.2422 18.9922C17.8932 18.8307 17.5286 18.7083 17.1484 18.625C16.7682 18.5417 16.3854 18.5 16 18.5ZM16 21.5C15.7083 21.5 15.4297 21.5417 15.1641 21.625C14.8984 21.7031 14.6406 21.8177 14.3906 21.9688C14.25 22.0573 14.1276 22.1458 14.0234 22.2344C13.9245 22.3229 13.8333 22.4167 13.75 22.5156C13.6719 22.6146 13.5964 22.7214 13.5234 22.8359C13.4505 22.9453 13.3724 23.0703 13.2891 23.2109C13.237 23.2995 13.1745 23.3698 13.1016 23.4219C13.0286 23.474 12.9401 23.5 12.8359 23.5C12.6953 23.5 12.5755 23.4505 12.4766 23.3516C12.3828 23.2526 12.3359 23.1328 12.3359 22.9922C12.3359 22.9245 12.3516 22.8542 12.3828 22.7812C12.5339 22.4479 12.7396 22.1406 13 21.8594C13.2604 21.5781 13.5521 21.3385 13.875 21.1406C14.1979 20.9375 14.5417 20.7812 14.9062 20.6719C15.2708 20.5573 15.6354 20.5 16 20.5C16.375 20.5 16.7448 20.5547 17.1094 20.6641C17.474 20.7734 17.8151 20.9271 18.1328 21.125C18.4557 21.3229 18.7448 21.5625 19 21.8438C19.2552 22.125 19.4609 22.4375 19.6172 22.7812C19.6484 22.8542 19.6641 22.9245 19.6641 22.9922C19.6641 23.1276 19.6146 23.2474 19.5156 23.3516C19.4167 23.4505 19.2995 23.5 19.1641 23.5C19.0599 23.5 18.9714 23.474 18.8984 23.4219C18.8255 23.3698 18.763 23.2995 18.7109 23.2109C18.6276 23.0703 18.5495 22.9453 18.4766 22.8359C18.4036 22.7214 18.3255 22.6146 18.2422 22.5156C18.1589 22.4167 18.0651 22.3229 17.9609 22.2344C17.862 22.1458 17.7422 22.0573 17.6016 21.9688C17.3568 21.8177 17.099 21.7031 16.8281 21.625C16.5625 21.5417 16.2865 21.5 16 21.5ZM14.75 24.5C14.75 24.3281 14.7839 24.1667 14.8516 24.0156C14.9193 23.8646 15.0078 23.7344 15.1172 23.625C15.2318 23.5104 15.3646 23.4193 15.5156 23.3516C15.6667 23.2839 15.8281 23.25 16 23.25C16.1719 23.25 16.3333 23.2839 16.4844 23.3516C16.6354 23.4193 16.7656 23.5104 16.875 23.625C16.9896 23.7344 17.0807 23.8646 17.1484 24.0156C17.2161 24.1667 17.25 24.3281 17.25 24.5C17.25 24.6719 17.2161 24.8333 17.1484 24.9844C17.0807 25.1354 16.9896 25.2682 16.875 25.3828C16.7656 25.4922 16.6354 25.5807 16.4844 25.6484C16.3333 25.7161 16.1719 25.75 16 25.75C15.8281 25.75 15.6667 25.7161 15.5156 25.6484C15.3646 25.5807 15.2318 25.4922 15.1172 25.3828C15.0078 25.2682 14.9193 25.1354 14.8516 24.9844C14.7839 24.8333 14.75 24.6719 14.75 24.5Z" fill="white"/>
</g>
<g clip-path="url(#clip1_1189_1166)">
<path d="M44 26.7422C44 26.6536 44.0156 26.5833 44.0469 26.5312C44.0833 26.474 44.1302 26.4141 44.1875 26.3516C44.2604 26.2786 44.3385 26.2109 44.4219 26.1484C44.5052 26.0807 44.5859 26.0104 44.6641 25.9375C45.0391 25.5938 45.3724 25.2135 45.6641 24.7969C45.9557 24.375 46.2005 23.9297 46.3984 23.4609C46.5964 22.9922 46.7448 22.5078 46.8438 22.0078C46.9479 21.5078 47 21.0052 47 20.5C47 20 46.9479 19.5 46.8438 19C46.7448 18.4948 46.5938 18.0078 46.3906 17.5391C46.1927 17.0651 45.9479 16.6172 45.6562 16.1953C45.3698 15.7734 45.0391 15.3932 44.6641 15.0547C44.5859 14.9818 44.5052 14.9141 44.4219 14.8516C44.3385 14.7839 44.2604 14.7135 44.1875 14.6406C44.125 14.5781 44.0781 14.5208 44.0469 14.4688C44.0156 14.4167 44 14.3438 44 14.25C44 14.1094 44.0469 13.9922 44.1406 13.8984C44.2396 13.8047 44.3594 13.7578 44.5 13.7578C44.5625 13.7578 44.6172 13.7682 44.6641 13.7891C44.7109 13.8047 44.7604 13.8307 44.8125 13.8672C45.0469 14.0182 45.2786 14.2109 45.5078 14.4453C45.737 14.6797 45.9531 14.9323 46.1562 15.2031C46.3646 15.4688 46.5547 15.7422 46.7266 16.0234C46.8984 16.3047 47.0443 16.5703 47.1641 16.8203C47.4401 17.3984 47.6484 17.9974 47.7891 18.6172C47.9297 19.2318 48 19.8594 48 20.5C48 21.1354 47.9297 21.7656 47.7891 22.3906C47.6484 23.0104 47.4401 23.6068 47.1641 24.1797C47.0443 24.4245 46.8984 24.6901 46.7266 24.9766C46.5547 25.2578 46.3646 25.5339 46.1562 25.8047C45.9479 26.0703 45.7292 26.3203 45.5 26.5547C45.2708 26.7891 45.0417 26.9818 44.8125 27.1328C44.7552 27.1693 44.7031 27.1979 44.6562 27.2188C44.6146 27.2344 44.5625 27.2422 44.5 27.2422C44.3646 27.2422 44.2474 27.1927 44.1484 27.0938C44.0495 26.9948 44 26.8776 44 26.7422ZM35.2969 23.5H33.5C33.2969 23.5 33.1042 23.4609 32.9219 23.3828C32.7396 23.3047 32.5781 23.1979 32.4375 23.0625C32.3021 22.9219 32.1953 22.7604 32.1172 22.5781C32.0391 22.3958 32 22.2031 32 22V19C32 18.7969 32.0391 18.6042 32.1172 18.4219C32.1953 18.2396 32.3021 18.0807 32.4375 17.9453C32.5781 17.8047 32.7396 17.6953 32.9219 17.6172C33.1042 17.5391 33.2969 17.5 33.5 17.5H35.2969L37.7188 15.0703C37.7917 14.9974 37.8724 14.9453 37.9609 14.9141C38.0547 14.8776 38.151 14.8594 38.25 14.8594C38.4635 14.8594 38.6406 14.9297 38.7812 15.0703C38.9271 15.2109 39 15.388 39 15.6016V25.3984C39 25.5026 38.9792 25.599 38.9375 25.6875C38.901 25.776 38.8464 25.8568 38.7734 25.9297C38.7057 25.9974 38.625 26.0521 38.5312 26.0938C38.4427 26.1302 38.349 26.1484 38.25 26.1484C38.0417 26.1484 37.8646 26.0755 37.7188 25.9297L35.2969 23.5ZM42.0312 24.9453C42.0312 24.8568 42.0443 24.7891 42.0703 24.7422C42.1016 24.6953 42.1458 24.638 42.2031 24.5703C42.4896 24.2474 42.7448 23.9375 42.9688 23.6406C43.1927 23.3438 43.3802 23.0391 43.5312 22.7266C43.6823 22.4089 43.7969 22.0703 43.875 21.7109C43.9583 21.3516 44 20.9479 44 20.5C44 20.0521 43.9583 19.6484 43.875 19.2891C43.7969 18.9297 43.6823 18.5938 43.5312 18.2812C43.3802 17.9635 43.1927 17.6562 42.9688 17.3594C42.7448 17.0625 42.4896 16.7526 42.2031 16.4297C42.1458 16.362 42.1016 16.3047 42.0703 16.2578C42.0443 16.2109 42.0312 16.1432 42.0312 16.0547C42.0312 15.9193 42.0807 15.8047 42.1797 15.7109C42.2839 15.612 42.4036 15.5625 42.5391 15.5625C42.6172 15.5625 42.6771 15.5729 42.7188 15.5938C42.7604 15.6094 42.8125 15.6406 42.875 15.6875C43.0312 15.8073 43.1849 15.9557 43.3359 16.1328C43.4922 16.3047 43.638 16.4896 43.7734 16.6875C43.9141 16.8854 44.0417 17.0885 44.1562 17.2969C44.2708 17.5 44.3672 17.6927 44.4453 17.875C44.8151 18.7083 45 19.5833 45 20.5C45 21.4167 44.8151 22.2917 44.4453 23.125C44.3724 23.2917 44.276 23.4818 44.1562 23.6953C44.0417 23.9036 43.9141 24.112 43.7734 24.3203C43.6328 24.5234 43.4844 24.7135 43.3281 24.8906C43.1771 25.0677 43.026 25.2083 42.875 25.3125C42.8177 25.349 42.763 25.3802 42.7109 25.4062C42.6641 25.4271 42.6068 25.4375 42.5391 25.4375C42.4036 25.4375 42.2839 25.3906 42.1797 25.2969C42.0807 25.1979 42.0312 25.0807 42.0312 24.9453ZM38 24.7891V16.2031L35.8516 18.3516C35.7526 18.4505 35.6354 18.5 35.5 18.5H33.5C33.3646 18.5 33.2474 18.5495 33.1484 18.6484C33.0495 18.7474 33 18.8646 33 19V22C33 22.1354 33.0495 22.2526 33.1484 22.3516C33.2474 22.4505 33.3646 22.5 33.5 22.5H35.5C35.6354 22.5 35.7526 22.5495 35.8516 22.6484L38 24.7891ZM40.0938 23.0391C40.0938 22.9661 40.1016 22.9089 40.1172 22.8672C40.138 22.8255 40.1693 22.776 40.2109 22.7188C40.3307 22.5365 40.4401 22.362 40.5391 22.1953C40.638 22.0234 40.7214 21.8516 40.7891 21.6797C40.8568 21.5026 40.9089 21.3203 40.9453 21.1328C40.9818 20.9401 41 20.7292 41 20.5C41 20.276 40.9818 20.0677 40.9453 19.875C40.9089 19.6823 40.8568 19.5 40.7891 19.3281C40.7214 19.151 40.638 18.9792 40.5391 18.8125C40.4401 18.6406 40.3307 18.4635 40.2109 18.2812C40.1693 18.224 40.138 18.1745 40.1172 18.1328C40.1016 18.0911 40.0938 18.0339 40.0938 17.9609C40.0938 17.8255 40.1432 17.7083 40.2422 17.6094C40.3411 17.5104 40.4583 17.4609 40.5938 17.4609C40.6823 17.4609 40.7552 17.4766 40.8125 17.5078C40.8698 17.5391 40.9271 17.5859 40.9844 17.6484C41.151 17.8307 41.2969 18.0365 41.4219 18.2656C41.5469 18.4896 41.651 18.7292 41.7344 18.9844C41.8229 19.2344 41.888 19.4896 41.9297 19.75C41.9766 20.0104 42 20.2604 42 20.5C42 20.7292 41.9766 20.9766 41.9297 21.2422C41.888 21.5026 41.8229 21.763 41.7344 22.0234C41.651 22.2786 41.5443 22.5234 41.4141 22.7578C41.2891 22.987 41.1458 23.1849 40.9844 23.3516C40.875 23.4714 40.7448 23.5312 40.5938 23.5312C40.4583 23.5312 40.3411 23.4844 40.2422 23.3906C40.1432 23.2917 40.0938 23.1745 40.0938 23.0391Z" fill="white"/>
</g>
<g clip-path="url(#clip2_1189_1166)">
<path d="M72 21C72 21.276 71.901 21.513 71.7031 21.7109C71.5104 21.9036 71.276 22 71 22H70V23.0547C70 23.3828 69.9323 23.6953 69.7969 23.9922C69.6667 24.2891 69.4896 24.5495 69.2656 24.7734C69.0469 24.9922 68.7891 25.1693 68.4922 25.3047C68.1953 25.4349 67.8828 25.5 67.5547 25.5H58.4453C58.1172 25.5 57.8047 25.4349 57.5078 25.3047C57.2109 25.1693 56.9505 24.9922 56.7266 24.7734C56.5078 24.5495 56.3307 24.2891 56.1953 23.9922C56.0651 23.6953 56 23.3828 56 23.0547V17.9453C56 17.6172 56.0651 17.3047 56.1953 17.0078C56.3307 16.7109 56.5078 16.4531 56.7266 16.2344C56.9505 16.0104 57.2109 15.8333 57.5078 15.7031C57.8047 15.5677 58.1172 15.5 58.4453 15.5H67.5547C67.888 15.5 68.2005 15.5677 68.4922 15.7031C68.7891 15.8333 69.0469 16.0104 69.2656 16.2344C69.4896 16.4531 69.6667 16.7109 69.7969 17.0078C69.9271 17.3047 69.9948 17.6172 70 17.9453V18.2969V19H71C71.1354 19 71.263 19.026 71.3828 19.0781C71.5026 19.1302 71.6094 19.2031 71.7031 19.2969C71.7969 19.3906 71.8698 19.4974 71.9219 19.6172C71.974 19.737 72 19.8646 72 20V21ZM69 18C69 17.7969 68.9609 17.6042 68.8828 17.4219C68.8047 17.2396 68.6953 17.0807 68.5547 16.9453C68.4193 16.8047 68.2604 16.6953 68.0781 16.6172C67.8958 16.5391 67.7031 16.5 67.5 16.5H58.5C58.2969 16.5 58.1042 16.5391 57.9219 16.6172C57.7396 16.6953 57.5781 16.8047 57.4375 16.9453C57.3021 17.0807 57.1953 17.2396 57.1172 17.4219C57.0391 17.6042 57 17.7969 57 18V23C57 23.2031 57.0391 23.3958 57.1172 23.5781C57.1953 23.7604 57.3021 23.9219 57.4375 24.0625C57.5781 24.1979 57.7396 24.3047 57.9219 24.3828C58.1042 24.4609 58.2969 24.5 58.5 24.5H67.5C67.7031 24.5 67.8958 24.4609 68.0781 24.3828C68.2604 24.3047 68.4193 24.1979 68.5547 24.0625C68.6953 23.9219 68.8047 23.7604 68.8828 23.5781C68.9609 23.3958 69 23.2031 69 23V18ZM66.25 17.5C66.4583 17.5 66.6354 17.5729 66.7812 17.7188C66.9271 17.8646 67 18.0417 67 18.25V22.75C67 22.9583 66.9271 23.1354 66.7812 23.2812C66.6354 23.4271 66.4583 23.5 66.25 23.5H58.75C58.5417 23.5 58.3646 23.4271 58.2188 23.2812C58.0729 23.1354 58 22.9583 58 22.75V18.25C58 18.0417 58.0729 17.8646 58.2188 17.7188C58.3646 17.5729 58.5417 17.5 58.75 17.5H66.25Z" fill="white"/>
</g>
<defs>
<clipPath id="clip0_1189_1166">
<rect width="20" height="20" fill="white" transform="translate(6 10.5)"/>
</clipPath>
<clipPath id="clip1_1189_1166">
<rect width="20" height="20" fill="white" transform="translate(30 10.5)"/>
</clipPath>
<clipPath id="clip2_1189_1166">
<rect width="20" height="20" fill="white" transform="translate(54 10.5)"/>
</clipPath>
</defs>
</svg>
