<svg width="172" height="44" viewBox="0 0 172 44" fill="none" xmlns="http://www.w3.org/2000/svg">
<rect x="0.4375" y="0.691406" width="171" height="42.61" rx="7" fill="white" fill-opacity="0.1"/>
<g clip-path="url(#clip0_1189_1158)">
<path d="M35.6276 15.407L39.4733 16.1338L42.6401 15.407L35.6276 8.39453L34.6602 11.7191L35.6276 15.407Z" fill="#F29900"/>
<path d="M35.6258 15.407V8.39453H24.1508C23.0941 8.39453 22.2383 9.25037 22.2383 10.307V34.532C22.2383 35.5887 23.0941 36.4445 24.1508 36.4445H40.7258C41.7824 36.4445 42.6383 35.5887 42.6383 34.532V15.407H35.6258Z" fill="#FBBC04"/>
<path d="M34.668 28.7945H30.2055V27.2008H34.668V28.7945ZM34.6441 25.607H30.2294C29.0659 24.8739 28.293 23.5782 28.293 22.1008C28.293 19.8122 30.1481 17.957 32.4367 17.957C34.7253 17.957 36.5805 19.8122 36.5805 22.1008C36.5805 23.5782 35.8075 24.8739 34.6441 25.607Z" fill="white"/>
</g>
<path d="M77.0977 30.4961H75.1445L72.7422 26.5215C72.2409 25.6947 71.8372 25.1966 71.5312 25.0273C71.2318 24.8581 70.8639 24.7734 70.4277 24.7734H68.8164V30.4961H67.1758V16.4922H71.2676C72.5111 16.4922 73.5462 16.8145 74.373 17.459C75.1999 18.1035 75.6133 19.054 75.6133 20.3105C75.6133 21.222 75.3626 22.0228 74.8613 22.7129C74.3665 23.3965 73.7057 23.8848 72.8789 24.1777V24.2168C73.1393 24.3991 73.3607 24.6042 73.543 24.832C73.7253 25.0534 73.9434 25.3724 74.1973 25.7891L77.0977 30.4961ZM68.8164 17.9766V23.2891H71.043C71.8568 23.2891 72.5339 23.0254 73.0742 22.498C73.6211 21.9707 73.8945 21.2871 73.8945 20.4473C73.8945 19.6986 73.6569 19.0996 73.1816 18.6504C72.7129 18.2012 72.0326 17.9766 71.1406 17.9766H68.8164ZM86.3262 25.7793H79.1094C79.1094 27.0163 79.4023 27.9212 79.9883 28.4941C80.5807 29.0605 81.2839 29.3438 82.0977 29.3438C82.7096 29.3438 83.2467 29.2038 83.709 28.9238C84.1777 28.6374 84.5651 28.2142 84.8711 27.6543L86.1797 28.3184C85.8281 29.0345 85.2975 29.6172 84.5879 30.0664C83.8848 30.5091 83.0189 30.7305 81.9902 30.7305C80.6621 30.7305 79.5716 30.291 78.7188 29.4121C77.8724 28.5332 77.4492 27.2409 77.4492 25.5352C77.4492 24.0182 77.8789 22.7617 78.7383 21.7656C79.5977 20.763 80.6979 20.2617 82.0391 20.2617C83.3997 20.2617 84.4544 20.6751 85.2031 21.502C85.9518 22.3223 86.3262 23.4681 86.3262 24.9395V25.7793ZM84.6855 24.4414C84.6855 23.5755 84.4479 22.8952 83.9727 22.4004C83.4974 21.8991 82.8431 21.6484 82.0098 21.6484C81.2025 21.6484 80.5417 21.9154 80.0273 22.4492C79.5195 22.9831 79.2168 23.6471 79.1191 24.4414H84.6855ZM87.957 28.5332L89.3242 27.9375C89.5456 28.4323 89.8516 28.7904 90.2422 29.0117C90.6393 29.2331 91.1243 29.3438 91.6973 29.3438C92.2441 29.3438 92.6966 29.207 93.0547 28.9336C93.4193 28.6602 93.6016 28.2663 93.6016 27.752C93.6016 27.3613 93.4421 27.026 93.123 26.7461C92.8105 26.4596 92.3158 26.2415 91.6387 26.0918C90.3757 25.8118 89.5163 25.4277 89.0605 24.9395C88.6113 24.4512 88.3867 23.875 88.3867 23.2109C88.3867 22.2734 88.7122 21.5475 89.3633 21.0332C90.0208 20.5189 90.8053 20.2617 91.7168 20.2617C92.4525 20.2617 93.1165 20.4147 93.709 20.7207C94.3079 21.0267 94.7539 21.4987 95.0469 22.1367L93.7383 22.7422C93.543 22.3711 93.2826 22.0977 92.957 21.9219C92.6315 21.7396 92.2051 21.6484 91.6777 21.6484C91.1699 21.6484 90.7435 21.7721 90.3984 22.0195C90.0534 22.2669 89.8809 22.6087 89.8809 23.0449C89.8809 23.4551 90.0208 23.7708 90.3008 23.9922C90.5807 24.207 91.1374 24.4089 91.9707 24.5977C93.0579 24.8385 93.8555 25.2096 94.3633 25.7109C94.8711 26.2057 95.125 26.8535 95.125 27.6543C95.125 28.6309 94.7865 29.3893 94.1094 29.9297C93.4388 30.4635 92.6348 30.7305 91.6973 30.7305C90.7272 30.7305 89.9329 30.5319 89.3145 30.1348C88.7025 29.7311 88.25 29.1973 87.957 28.5332ZM101.854 30.7305C100.298 30.7305 99.0801 30.2682 98.2012 29.3438C97.3223 28.4128 96.8828 27.1693 96.8828 25.6133C96.8828 24.0052 97.3711 22.7129 98.3477 21.7363C99.3242 20.7533 100.545 20.2617 102.01 20.2617C103.507 20.2617 104.692 20.7402 105.564 21.6973C106.443 22.6478 106.883 23.901 106.883 25.457C106.883 26.9609 106.43 28.2174 105.525 29.2266C104.627 30.2292 103.403 30.7305 101.854 30.7305ZM101.941 29.3438C102.951 29.3438 103.751 29.0085 104.344 28.3379C104.943 27.6608 105.242 26.7201 105.242 25.5156C105.242 24.3698 104.943 23.4421 104.344 22.7324C103.751 22.0163 102.951 21.6582 101.941 21.6582C100.932 21.6582 100.109 22.0195 99.4707 22.7422C98.8392 23.4583 98.5234 24.3958 98.5234 25.5547C98.5234 26.7721 98.8392 27.7096 99.4707 28.3672C100.109 29.0182 100.932 29.3438 101.941 29.3438ZM117.332 30.4961H115.73V29.0703H115.691C115.359 29.5846 114.92 29.9915 114.373 30.291C113.833 30.584 113.243 30.7305 112.605 30.7305C111.427 30.7305 110.535 30.3887 109.93 29.7051C109.331 29.0215 109.031 27.9896 109.031 26.6094V20.4961H110.623V26.4336C110.623 27.4622 110.805 28.2044 111.17 28.6602C111.535 29.1159 112.124 29.3438 112.938 29.3438C113.764 29.3438 114.435 29.0475 114.949 28.4551C115.47 27.8561 115.73 27.1074 115.73 26.209V20.4961H117.332V30.4961ZM125.496 22C125.34 21.9284 125.171 21.8698 124.988 21.8242C124.812 21.7786 124.614 21.7559 124.393 21.7559C123.676 21.7559 123.094 22.0977 122.645 22.7812C122.202 23.4648 121.98 24.3372 121.98 25.3984V30.4961H120.379V20.4961H121.98V22.3223H122.02C122.247 21.6973 122.596 21.209 123.064 20.8574C123.533 20.4993 124.057 20.3203 124.637 20.3203C124.904 20.3203 125.145 20.3431 125.359 20.3887C125.574 20.4277 125.818 20.5124 126.092 20.6426L125.496 22ZM135.77 28.9922C135.327 29.5911 134.786 30.0306 134.148 30.3105C133.51 30.584 132.827 30.7207 132.098 30.7207C130.477 30.7207 129.214 30.2552 128.309 29.3242C127.41 28.3932 126.961 27.1595 126.961 25.623C126.961 23.9629 127.426 22.6543 128.357 21.6973C129.288 20.7402 130.496 20.2617 131.98 20.2617C132.755 20.2617 133.468 20.4082 134.119 20.7012C134.77 20.9876 135.317 21.4238 135.76 22.0098L134.568 22.8887C134.165 22.4199 133.751 22.0977 133.328 21.9219C132.911 21.7396 132.443 21.6484 131.922 21.6484C130.952 21.6484 130.154 22.0065 129.529 22.7227C128.911 23.4323 128.602 24.36 128.602 25.5059C128.602 26.6647 128.914 27.5924 129.539 28.2891C130.171 28.9857 131.036 29.334 132.137 29.334C132.566 29.334 132.996 29.2461 133.426 29.0703C133.862 28.888 134.246 28.569 134.578 28.1133L135.77 28.9922ZM146.17 25.7793H138.953C138.953 27.0163 139.246 27.9212 139.832 28.4941C140.424 29.0605 141.128 29.3438 141.941 29.3438C142.553 29.3438 143.09 29.2038 143.553 28.9238C144.021 28.6374 144.409 28.2142 144.715 27.6543L146.023 28.3184C145.672 29.0345 145.141 29.6172 144.432 30.0664C143.729 30.5091 142.863 30.7305 141.834 30.7305C140.506 30.7305 139.415 30.291 138.562 29.4121C137.716 28.5332 137.293 27.2409 137.293 25.5352C137.293 24.0182 137.723 22.7617 138.582 21.7656C139.441 20.763 140.542 20.2617 141.883 20.2617C143.243 20.2617 144.298 20.6751 145.047 21.502C145.796 22.3223 146.17 23.4681 146.17 24.9395V25.7793ZM144.529 24.4414C144.529 23.5755 144.292 22.8952 143.816 22.4004C143.341 21.8991 142.687 21.6484 141.854 21.6484C141.046 21.6484 140.385 21.9154 139.871 22.4492C139.363 22.9831 139.061 23.6471 138.963 24.4414H144.529ZM147.801 28.5332L149.168 27.9375C149.389 28.4323 149.695 28.7904 150.086 29.0117C150.483 29.2331 150.968 29.3438 151.541 29.3438C152.088 29.3438 152.54 29.207 152.898 28.9336C153.263 28.6602 153.445 28.2663 153.445 27.752C153.445 27.3613 153.286 27.026 152.967 26.7461C152.654 26.4596 152.16 26.2415 151.482 26.0918C150.219 25.8118 149.36 25.4277 148.904 24.9395C148.455 24.4512 148.23 23.875 148.23 23.2109C148.23 22.2734 148.556 21.5475 149.207 21.0332C149.865 20.5189 150.649 20.2617 151.561 20.2617C152.296 20.2617 152.96 20.4147 153.553 20.7207C154.152 21.0267 154.598 21.4987 154.891 22.1367L153.582 22.7422C153.387 22.3711 153.126 22.0977 152.801 21.9219C152.475 21.7396 152.049 21.6484 151.521 21.6484C151.014 21.6484 150.587 21.7721 150.242 22.0195C149.897 22.2669 149.725 22.6087 149.725 23.0449C149.725 23.4551 149.865 23.7708 150.145 23.9922C150.424 24.207 150.981 24.4089 151.814 24.5977C152.902 24.8385 153.699 25.2096 154.207 25.7109C154.715 26.2057 154.969 26.8535 154.969 27.6543C154.969 28.6309 154.63 29.3893 153.953 29.9297C153.283 30.4635 152.479 30.7305 151.541 30.7305C150.571 30.7305 149.777 30.5319 149.158 30.1348C148.546 29.7311 148.094 29.1973 147.801 28.5332Z" fill="white"/>
<defs>
<clipPath id="clip0_1189_1158">
<rect width="20.4" height="28.05" fill="white" transform="translate(22.2383 8.39453)"/>
</clipPath>
</defs>
</svg>
