<svg width="726" height="40" viewBox="0 0 726 40" fill="none" xmlns="http://www.w3.org/2000/svg">
<rect x="1" y="1" width="724" height="39" rx="3" fill="#1E1E1E" fill-opacity="0.7"/>
<path d="M48.4365 25H47.2676V16.0312H44.123V15.0059H51.5674V16.0312H48.4365V25ZM51.7246 17.5078H52.9414L54.5957 21.8555C54.6914 22.1107 54.7803 22.3568 54.8623 22.5938C54.9443 22.8262 55.0173 23.0495 55.0811 23.2637C55.1449 23.4779 55.195 23.6852 55.2314 23.8857H55.2793C55.3431 23.6579 55.4342 23.3594 55.5527 22.9902C55.6712 22.6165 55.7988 22.236 55.9355 21.8486L57.501 17.5078H58.7246L55.4639 26.1006C55.2907 26.5609 55.0879 26.9619 54.8555 27.3037C54.6276 27.6455 54.3496 27.9076 54.0215 28.0898C53.6934 28.2767 53.2969 28.3701 52.832 28.3701C52.6178 28.3701 52.4287 28.3564 52.2646 28.3291C52.1006 28.3063 51.9593 28.279 51.8408 28.2471V27.3379C51.9411 27.3607 52.0618 27.3812 52.2031 27.3994C52.349 27.4176 52.4993 27.4268 52.6543 27.4268C52.9368 27.4268 53.1807 27.3721 53.3857 27.2627C53.5954 27.1579 53.7754 27.0029 53.9258 26.7979C54.0762 26.5928 54.2061 26.349 54.3154 26.0664L54.7256 25.0137L51.7246 17.5078ZM63.4414 17.3711C64.3757 17.3711 65.1208 17.6924 65.6768 18.335C66.2327 18.9775 66.5107 19.9437 66.5107 21.2334C66.5107 22.0856 66.3831 22.8011 66.1279 23.3799C65.8727 23.9587 65.5127 24.3962 65.0479 24.6924C64.5876 24.9886 64.043 25.1367 63.4141 25.1367C63.0176 25.1367 62.6689 25.0843 62.3682 24.9795C62.0674 24.8747 61.8099 24.7334 61.5957 24.5557C61.3815 24.3779 61.2038 24.1842 61.0625 23.9746H60.9805C60.9941 24.1523 61.0101 24.3665 61.0283 24.6172C61.0511 24.8678 61.0625 25.0866 61.0625 25.2734V28.3496H59.9209V17.5078H60.8574L61.0078 18.6152H61.0625C61.2083 18.3874 61.3861 18.18 61.5957 17.9932C61.8053 17.8018 62.0605 17.6514 62.3613 17.542C62.6667 17.4281 63.0267 17.3711 63.4414 17.3711ZM63.2432 18.3281C62.7236 18.3281 62.3044 18.4284 61.9854 18.6289C61.6709 18.8294 61.4408 19.1302 61.2949 19.5312C61.1491 19.9277 61.0716 20.4268 61.0625 21.0283V21.2471C61.0625 21.8805 61.1309 22.416 61.2676 22.8535C61.4089 23.291 61.639 23.6237 61.958 23.8516C62.2816 24.0794 62.7145 24.1934 63.2568 24.1934C63.7217 24.1934 64.109 24.068 64.4189 23.8174C64.7288 23.5667 64.959 23.2181 65.1094 22.7715C65.2643 22.3203 65.3418 21.8031 65.3418 21.2197C65.3418 20.3356 65.1686 19.6338 64.8223 19.1143C64.4805 18.5902 63.9541 18.3281 63.2432 18.3281ZM71.3779 17.3711C72.016 17.3711 72.5628 17.5124 73.0186 17.7949C73.4743 18.0775 73.8229 18.474 74.0645 18.9844C74.306 19.4902 74.4268 20.0827 74.4268 20.7617V21.4658H69.252C69.2656 22.3454 69.4844 23.0153 69.9082 23.4756C70.332 23.9359 70.929 24.166 71.6992 24.166C72.1732 24.166 72.5924 24.1227 72.957 24.0361C73.3216 23.9495 73.6999 23.8219 74.0918 23.6533V24.6514C73.7135 24.82 73.3376 24.943 72.9639 25.0205C72.5947 25.098 72.1572 25.1367 71.6514 25.1367C70.9313 25.1367 70.3024 24.9909 69.7646 24.6992C69.2314 24.403 68.8167 23.9701 68.5205 23.4004C68.2243 22.8307 68.0762 22.1335 68.0762 21.3086C68.0762 20.502 68.2106 19.8047 68.4795 19.2168C68.7529 18.6243 69.1357 18.1686 69.6279 17.8496C70.1247 17.5306 70.708 17.3711 71.3779 17.3711ZM71.3643 18.3008C70.7581 18.3008 70.2751 18.499 69.915 18.8955C69.555 19.292 69.3408 19.8457 69.2725 20.5566H73.2373C73.2327 20.11 73.1621 19.7181 73.0254 19.3809C72.8932 19.0391 72.6904 18.7747 72.417 18.5879C72.1436 18.3965 71.7926 18.3008 71.3643 18.3008ZM81.126 14.3633V17.542C81.126 17.7243 81.1214 17.9089 81.1123 18.0957C81.1032 18.278 81.0872 18.4466 81.0645 18.6016H81.1396C81.2946 18.3372 81.4906 18.1162 81.7275 17.9385C81.9691 17.7562 82.2425 17.6195 82.5479 17.5283C82.8532 17.4326 83.1768 17.3848 83.5186 17.3848C84.1201 17.3848 84.6214 17.4805 85.0225 17.6719C85.4281 17.8633 85.7311 18.1595 85.9316 18.5605C86.1367 18.9616 86.2393 19.4811 86.2393 20.1191V25H85.1182V20.1943C85.1182 19.57 84.9746 19.1029 84.6875 18.793C84.4049 18.4831 83.9697 18.3281 83.3818 18.3281C82.8258 18.3281 82.3815 18.4352 82.0488 18.6494C81.7207 18.859 81.4837 19.1689 81.3379 19.5791C81.1966 19.9893 81.126 20.4906 81.126 21.083V25H79.9912V14.3633H81.126ZM91.4619 17.3711C92.0999 17.3711 92.6468 17.5124 93.1025 17.7949C93.5583 18.0775 93.9069 18.474 94.1484 18.9844C94.39 19.4902 94.5107 20.0827 94.5107 20.7617V21.4658H89.3359C89.3496 22.3454 89.5684 23.0153 89.9922 23.4756C90.416 23.9359 91.013 24.166 91.7832 24.166C92.2572 24.166 92.6764 24.1227 93.041 24.0361C93.4056 23.9495 93.7839 23.8219 94.1758 23.6533V24.6514C93.7975 24.82 93.4215 24.943 93.0479 25.0205C92.6787 25.098 92.2412 25.1367 91.7354 25.1367C91.0153 25.1367 90.3864 24.9909 89.8486 24.6992C89.3154 24.403 88.9007 23.9701 88.6045 23.4004C88.3083 22.8307 88.1602 22.1335 88.1602 21.3086C88.1602 20.502 88.2946 19.8047 88.5635 19.2168C88.8369 18.6243 89.2197 18.1686 89.7119 17.8496C90.2087 17.5306 90.792 17.3711 91.4619 17.3711ZM91.4482 18.3008C90.8421 18.3008 90.359 18.499 89.999 18.8955C89.639 19.292 89.4248 19.8457 89.3564 20.5566H93.3213C93.3167 20.11 93.2461 19.7181 93.1094 19.3809C92.9772 19.0391 92.7744 18.7747 92.501 18.5879C92.2275 18.3965 91.8766 18.3008 91.4482 18.3008ZM99.8428 17.3711C99.9932 17.3711 100.15 17.3802 100.314 17.3984C100.479 17.4121 100.624 17.4326 100.752 17.46L100.608 18.5127C100.485 18.4808 100.349 18.4557 100.198 18.4375C100.048 18.4193 99.9066 18.4102 99.7744 18.4102C99.4736 18.4102 99.1888 18.4717 98.9199 18.5947C98.6556 18.7132 98.4232 18.8864 98.2227 19.1143C98.0221 19.3376 97.8649 19.6087 97.751 19.9277C97.637 20.2422 97.5801 20.5931 97.5801 20.9805V25H96.4385V17.5078H97.3818L97.5049 18.8887H97.5527C97.7077 18.6107 97.8945 18.3577 98.1133 18.1299C98.332 17.8975 98.585 17.7129 98.8721 17.5762C99.1637 17.4395 99.4873 17.3711 99.8428 17.3711ZM105.052 17.3711C105.69 17.3711 106.237 17.5124 106.692 17.7949C107.148 18.0775 107.497 18.474 107.738 18.9844C107.98 19.4902 108.101 20.0827 108.101 20.7617V21.4658H102.926C102.939 22.3454 103.158 23.0153 103.582 23.4756C104.006 23.9359 104.603 24.166 105.373 24.166C105.847 24.166 106.266 24.1227 106.631 24.0361C106.995 23.9495 107.374 23.8219 107.766 23.6533V24.6514C107.387 24.82 107.011 24.943 106.638 25.0205C106.269 25.098 105.831 25.1367 105.325 25.1367C104.605 25.1367 103.976 24.9909 103.438 24.6992C102.905 24.403 102.491 23.9701 102.194 23.4004C101.898 22.8307 101.75 22.1335 101.75 21.3086C101.75 20.502 101.884 19.8047 102.153 19.2168C102.427 18.6243 102.81 18.1686 103.302 17.8496C103.799 17.5306 104.382 17.3711 105.052 17.3711ZM105.038 18.3008C104.432 18.3008 103.949 18.499 103.589 18.8955C103.229 19.292 103.015 19.8457 102.946 20.5566H106.911C106.907 20.11 106.836 19.7181 106.699 19.3809C106.567 19.0391 106.364 18.7747 106.091 18.5879C105.817 18.3965 105.466 18.3008 105.038 18.3008ZM116.085 24.207C116.272 24.207 116.463 24.1911 116.659 24.1592C116.855 24.1273 117.015 24.0885 117.138 24.043V24.9248C117.006 24.984 116.821 25.0342 116.584 25.0752C116.352 25.1162 116.124 25.1367 115.9 25.1367C115.504 25.1367 115.144 25.0684 114.82 24.9316C114.497 24.7904 114.237 24.5534 114.041 24.2207C113.85 23.888 113.754 23.4277 113.754 22.8398V18.3965H112.688V17.8428L113.761 17.3984L114.212 15.7715H114.896V17.5078H117.09V18.3965H114.896V22.8057C114.896 23.2751 115.003 23.626 115.217 23.8584C115.436 24.0908 115.725 24.207 116.085 24.207ZM125.115 21.2402C125.115 21.8555 125.035 22.4046 124.876 22.8877C124.716 23.3708 124.486 23.7786 124.186 24.1113C123.885 24.444 123.52 24.6992 123.092 24.877C122.668 25.0501 122.187 25.1367 121.649 25.1367C121.148 25.1367 120.688 25.0501 120.269 24.877C119.854 24.6992 119.494 24.444 119.188 24.1113C118.888 23.7786 118.653 23.3708 118.484 22.8877C118.32 22.4046 118.238 21.8555 118.238 21.2402C118.238 20.4199 118.377 19.7227 118.655 19.1484C118.933 18.5697 119.33 18.1299 119.845 17.8291C120.364 17.5238 120.982 17.3711 121.697 17.3711C122.381 17.3711 122.978 17.5238 123.488 17.8291C124.003 18.1344 124.402 18.5765 124.685 19.1553C124.972 19.7295 125.115 20.4245 125.115 21.2402ZM119.414 21.2402C119.414 21.8418 119.494 22.3636 119.653 22.8057C119.813 23.2477 120.059 23.5895 120.392 23.8311C120.724 24.0726 121.153 24.1934 121.677 24.1934C122.196 24.1934 122.622 24.0726 122.955 23.8311C123.292 23.5895 123.541 23.2477 123.7 22.8057C123.86 22.3636 123.939 21.8418 123.939 21.2402C123.939 20.6432 123.86 20.1283 123.7 19.6953C123.541 19.2578 123.295 18.9206 122.962 18.6836C122.629 18.4466 122.199 18.3281 121.67 18.3281C120.891 18.3281 120.319 18.5856 119.954 19.1006C119.594 19.6156 119.414 20.3288 119.414 21.2402ZM135.561 22.9492C135.561 23.4277 135.44 23.8311 135.198 24.1592C134.961 24.4827 134.619 24.7266 134.173 24.8906C133.731 25.0547 133.202 25.1367 132.587 25.1367C132.063 25.1367 131.609 25.0957 131.227 25.0137C130.844 24.9316 130.509 24.8154 130.222 24.665V23.6191C130.527 23.7695 130.892 23.9062 131.315 24.0293C131.739 24.1523 132.172 24.2139 132.614 24.2139C133.261 24.2139 133.731 24.109 134.022 23.8994C134.314 23.6898 134.46 23.4049 134.46 23.0449C134.46 22.8398 134.401 22.6598 134.282 22.5049C134.168 22.3454 133.975 22.1927 133.701 22.0469C133.428 21.8965 133.049 21.7324 132.566 21.5547C132.088 21.3724 131.673 21.1924 131.322 21.0146C130.976 20.8324 130.707 20.6113 130.516 20.3516C130.329 20.0918 130.235 19.7546 130.235 19.3398C130.235 18.7064 130.491 18.221 131.001 17.8838C131.516 17.542 132.19 17.3711 133.024 17.3711C133.476 17.3711 133.897 17.4167 134.289 17.5078C134.686 17.5944 135.055 17.7129 135.396 17.8633L135.014 18.7725C134.704 18.6403 134.373 18.5286 134.022 18.4375C133.672 18.3464 133.314 18.3008 132.949 18.3008C132.425 18.3008 132.022 18.3874 131.739 18.5605C131.461 18.7337 131.322 18.9707 131.322 19.2715C131.322 19.5039 131.386 19.6953 131.514 19.8457C131.646 19.9961 131.855 20.1374 132.143 20.2695C132.43 20.4017 132.808 20.5566 133.277 20.7344C133.747 20.9076 134.152 21.0876 134.494 21.2744C134.836 21.4567 135.098 21.68 135.28 21.9443C135.467 22.2041 135.561 22.5391 135.561 22.9492ZM140.271 17.3711C140.909 17.3711 141.455 17.5124 141.911 17.7949C142.367 18.0775 142.715 18.474 142.957 18.9844C143.199 19.4902 143.319 20.0827 143.319 20.7617V21.4658H138.145C138.158 22.3454 138.377 23.0153 138.801 23.4756C139.225 23.9359 139.822 24.166 140.592 24.166C141.066 24.166 141.485 24.1227 141.85 24.0361C142.214 23.9495 142.592 23.8219 142.984 23.6533V24.6514C142.606 24.82 142.23 24.943 141.856 25.0205C141.487 25.098 141.05 25.1367 140.544 25.1367C139.824 25.1367 139.195 24.9909 138.657 24.6992C138.124 24.403 137.709 23.9701 137.413 23.4004C137.117 22.8307 136.969 22.1335 136.969 21.3086C136.969 20.502 137.103 19.8047 137.372 19.2168C137.646 18.6243 138.028 18.1686 138.521 17.8496C139.017 17.5306 139.601 17.3711 140.271 17.3711ZM140.257 18.3008C139.651 18.3008 139.168 18.499 138.808 18.8955C138.448 19.292 138.233 19.8457 138.165 20.5566H142.13C142.125 20.11 142.055 19.7181 141.918 19.3809C141.786 19.0391 141.583 18.7747 141.31 18.5879C141.036 18.3965 140.685 18.3008 140.257 18.3008ZM148.05 17.3848C148.943 17.3848 149.606 17.5853 150.039 17.9863C150.472 18.3874 150.688 19.0277 150.688 19.9072V25H149.861L149.643 23.8926H149.588C149.378 24.166 149.16 24.3962 148.932 24.583C148.704 24.7653 148.439 24.9043 148.139 25C147.842 25.0911 147.478 25.1367 147.045 25.1367C146.589 25.1367 146.184 25.057 145.828 24.8975C145.477 24.738 145.199 24.4964 144.994 24.1729C144.794 23.8493 144.693 23.4391 144.693 22.9424C144.693 22.195 144.99 21.6208 145.582 21.2197C146.174 20.8187 147.077 20.5999 148.289 20.5635L149.581 20.5088V20.0508C149.581 19.4036 149.442 18.9502 149.164 18.6904C148.886 18.4307 148.494 18.3008 147.988 18.3008C147.596 18.3008 147.223 18.3577 146.867 18.4717C146.512 18.5856 146.174 18.7201 145.855 18.875L145.507 18.0137C145.844 17.8405 146.231 17.6924 146.669 17.5693C147.106 17.4463 147.567 17.3848 148.05 17.3848ZM149.567 21.3086L148.426 21.3564C147.492 21.3929 146.833 21.5456 146.45 21.8145C146.067 22.0833 145.876 22.4639 145.876 22.9561C145.876 23.3844 146.006 23.7012 146.266 23.9062C146.525 24.1113 146.869 24.2139 147.298 24.2139C147.963 24.2139 148.508 24.0293 148.932 23.6602C149.355 23.291 149.567 22.7373 149.567 21.999V21.3086ZM156.431 17.3711C156.581 17.3711 156.738 17.3802 156.902 17.3984C157.066 17.4121 157.212 17.4326 157.34 17.46L157.196 18.5127C157.073 18.4808 156.937 18.4557 156.786 18.4375C156.636 18.4193 156.494 18.4102 156.362 18.4102C156.062 18.4102 155.777 18.4717 155.508 18.5947C155.243 18.7132 155.011 18.8864 154.811 19.1143C154.61 19.3376 154.453 19.6087 154.339 19.9277C154.225 20.2422 154.168 20.5931 154.168 20.9805V25H153.026V17.5078H153.97L154.093 18.8887H154.141C154.296 18.6107 154.482 18.3577 154.701 18.1299C154.92 17.8975 155.173 17.7129 155.46 17.5762C155.752 17.4395 156.075 17.3711 156.431 17.3711ZM161.756 25.1367C161.081 25.1367 160.487 24.9977 159.972 24.7197C159.457 24.4417 159.056 24.0179 158.769 23.4482C158.481 22.8786 158.338 22.1608 158.338 21.2949C158.338 20.388 158.488 19.6475 158.789 19.0732C159.094 18.4945 159.514 18.0661 160.047 17.7881C160.58 17.5101 161.186 17.3711 161.865 17.3711C162.239 17.3711 162.599 17.4098 162.945 17.4873C163.296 17.5602 163.583 17.6536 163.807 17.7676L163.465 18.7178C163.237 18.6266 162.973 18.5446 162.672 18.4717C162.376 18.3988 162.098 18.3623 161.838 18.3623C161.318 18.3623 160.885 18.474 160.539 18.6973C160.197 18.9206 159.94 19.2487 159.767 19.6816C159.598 20.1146 159.514 20.6478 159.514 21.2812C159.514 21.8874 159.596 22.4046 159.76 22.833C159.928 23.2614 160.177 23.5895 160.505 23.8174C160.838 24.0407 161.252 24.1523 161.749 24.1523C162.146 24.1523 162.503 24.1113 162.822 24.0293C163.141 23.9427 163.431 23.8424 163.69 23.7285V24.7402C163.44 24.8678 163.16 24.9658 162.85 25.0342C162.544 25.1025 162.18 25.1367 161.756 25.1367ZM166.603 14.3633V17.542C166.603 17.7243 166.598 17.9089 166.589 18.0957C166.58 18.278 166.564 18.4466 166.541 18.6016H166.616C166.771 18.3372 166.967 18.1162 167.204 17.9385C167.446 17.7562 167.719 17.6195 168.024 17.5283C168.33 17.4326 168.653 17.3848 168.995 17.3848C169.597 17.3848 170.098 17.4805 170.499 17.6719C170.905 17.8633 171.208 18.1595 171.408 18.5605C171.613 18.9616 171.716 19.4811 171.716 20.1191V25H170.595V20.1943C170.595 19.57 170.451 19.1029 170.164 18.793C169.882 18.4831 169.446 18.3281 168.858 18.3281C168.302 18.3281 167.858 18.4352 167.525 18.6494C167.197 18.859 166.96 19.1689 166.814 19.5791C166.673 19.9893 166.603 20.4906 166.603 21.083V25H165.468V14.3633H166.603Z" fill="white" fill-opacity="0.786"/>
<g clip-path="url(#clip0_1195_1415)">
<rect x="0.5" y="0.5" width="725" height="39" rx="3.5" stroke="white" stroke-opacity="0.0698"/>
<mask id="mask0_1195_1415" style="mask-type:alpha" maskUnits="userSpaceOnUse" x="-2" y="-2" width="730" height="42">
<rect x="-1" y="-1" width="728" height="40" stroke="url(#paint0_linear_1195_1415)" stroke-width="2"/>
</mask>
<g mask="url(#mask0_1195_1415)">
<rect x="1" y="1" width="724" height="38" rx="3" stroke="#60CDFF" stroke-width="2"/>
</g>
</g>
<defs>
<linearGradient id="paint0_linear_1195_1415" x1="363" y1="0" x2="363" y2="38" gradientUnits="userSpaceOnUse">
<stop offset="0.939453" stop-color="white" stop-opacity="0"/>
<stop offset="0.941406" stop-color="white"/>
</linearGradient>
<clipPath id="clip0_1195_1415">
<rect width="726" height="40" fill="white"/>
</clipPath>
</defs>
</svg>
