<svg width="211" height="35" viewBox="0 0 211 35" fill="none" xmlns="http://www.w3.org/2000/svg">
<rect x="1.29811" y="1.29811" width="208.404" height="32.4038" rx="4.91326" fill="white" fill-opacity="0.0605"/>
<rect x="1.29811" y="1.29811" width="208.404" height="32.4038" rx="4.91326" stroke="url(#paint0_linear_1184_926)" stroke-width="1.40379"/>
<path d="M20.4254 23.3996C19.8551 23.6792 19.2958 23.8821 18.7474 24.0082C18.1991 24.1343 17.6041 24.1974 16.9626 24.1974C15.1749 24.1974 13.7821 23.66 12.7841 22.5852C11.7916 21.5105 11.2953 20.0875 11.2953 18.3163C11.2953 16.4025 11.8491 14.8726 12.9568 13.7266C14.07 12.5805 15.5176 12.0075 17.2998 12.0075C17.8701 12.0075 18.402 12.0596 18.8955 12.1637C19.389 12.2679 19.8908 12.4352 20.4007 12.6655L19.8496 13.8993C19.4274 13.7074 19.0134 13.5703 18.6076 13.488C18.2018 13.4003 17.7659 13.3564 17.2998 13.3564C15.9563 13.3564 14.8815 13.7924 14.0755 14.6643C13.2749 15.5361 12.8746 16.7233 12.8746 18.2258C12.8746 19.6461 13.2557 20.7729 14.0179 21.6064C14.7801 22.4399 15.8 22.8567 17.0777 22.8567C17.5438 22.8567 18.0017 22.8046 18.4513 22.7004C18.9065 22.5907 19.3643 22.418 19.825 22.1822L20.4254 23.3996ZM22.5393 24V11.5304H24.0034V24H22.5393ZM27.5979 13.5456C27.3073 13.5456 27.066 13.4496 26.8741 13.2577C26.6821 13.0658 26.5862 12.8327 26.5862 12.5586C26.5862 12.2734 26.6821 12.0376 26.8741 11.8512C27.066 11.6593 27.3073 11.5633 27.5979 11.5633C27.8885 11.5633 28.1298 11.6593 28.3217 11.8512C28.5191 12.0376 28.6178 12.2734 28.6178 12.5586C28.6178 12.8327 28.5191 13.0658 28.3217 13.2577C28.1298 13.4496 27.8885 13.5456 27.5979 13.5456ZM28.3135 24H26.8494V15.3716H28.3135V24ZM37.4354 23.4571C37.0241 23.7203 36.6129 23.9095 36.2016 24.0247C35.7903 24.1453 35.3489 24.2056 34.8773 24.2056C33.6435 24.2056 32.6373 23.8273 31.8586 23.0705C31.08 22.3083 30.6906 21.2445 30.6906 19.8791C30.6906 18.4644 31.0854 17.3265 31.8751 16.4656C32.6702 15.5992 33.7559 15.166 35.1323 15.166C35.5765 15.166 35.9987 15.2208 36.399 15.3305C36.7993 15.4347 37.2023 15.6047 37.6081 15.8405L36.9912 16.9098C36.6787 16.7233 36.3716 16.5917 36.07 16.5149C35.7684 16.4327 35.4449 16.3916 35.0994 16.3916C34.1617 16.3916 33.4406 16.7041 32.9361 17.3293C32.4371 17.9489 32.1876 18.7468 32.1876 19.7228C32.1876 20.7757 32.4481 21.5818 32.969 22.1411C33.4955 22.7004 34.1727 22.9801 35.0007 22.9801C35.2804 22.9801 35.5682 22.9389 35.8644 22.8567C36.166 22.7689 36.4758 22.6236 36.7938 22.4207L37.4354 23.4571ZM46.6724 24H44.6655L40.9312 19.838H40.8983V24H39.4342V11.5304H40.8983V19.328H40.9312L44.4763 15.3716H46.3681L42.4446 19.5254L46.6724 24ZM60.0468 24H58.5827V19.0237C58.5827 18.1408 58.4182 17.4801 58.0892 17.0414C57.7602 16.6027 57.2694 16.3833 56.6169 16.3833C55.9534 16.3833 55.3968 16.6383 54.9471 17.1483C54.4975 17.6528 54.2726 18.3081 54.2726 19.1142V24H52.8085V11.5304H54.2726V16.7946H54.3055C54.6346 16.2517 55.0349 15.846 55.5064 15.5773C55.978 15.3031 56.5182 15.166 57.1268 15.166C58.0974 15.166 58.8267 15.4594 59.3148 16.0461C59.8028 16.6328 60.0468 17.513 60.0468 18.6864V24ZM69.7116 20.0189H63.6413C63.6687 20.9731 63.9237 21.7079 64.4063 22.2233C64.8888 22.7333 65.566 22.9883 66.4379 22.9883C66.8163 22.9883 67.2029 22.9307 67.5977 22.8156C67.998 22.6949 68.3983 22.5002 68.7986 22.2316L69.4648 23.2515C68.9658 23.5805 68.4641 23.8218 67.9596 23.9753C67.4551 24.1289 66.9013 24.2056 66.2981 24.2056C64.993 24.2056 63.9758 23.819 63.2465 23.0459C62.5172 22.2672 62.1498 21.1815 62.1443 19.7886C62.1388 18.4013 62.5062 17.2854 63.2465 16.4409C63.9922 15.591 64.9573 15.166 66.1418 15.166C67.2714 15.166 68.1488 15.5334 68.7739 16.2682C69.399 16.9975 69.7116 18.0147 69.7116 19.3198V20.0189ZM68.2393 18.8674C68.2338 18.0723 68.0418 17.4554 67.6635 17.0167C67.2906 16.578 66.7751 16.3587 66.1171 16.3587C65.4701 16.3587 64.9217 16.5862 64.4721 17.0414C64.0279 17.491 63.7565 18.0997 63.6577 18.8674H68.2393ZM76.2261 16.6219C76.1164 16.589 76.0149 16.5643 75.9217 16.5479C75.8285 16.5314 75.7161 16.5232 75.5845 16.5232C74.8881 16.5232 74.3397 16.8193 73.9394 17.4115C73.5391 17.9983 73.339 18.7413 73.339 19.6406V24H71.8749V15.3716H73.339V17.0825H73.3719C73.5693 16.4738 73.8681 16.0132 74.2684 15.7006C74.6742 15.3826 75.143 15.2236 75.675 15.2236C75.8449 15.2236 75.9903 15.2318 76.1109 15.2482C76.237 15.2647 76.3522 15.2894 76.4564 15.3223L76.2261 16.6219ZM85.0765 20.0189H79.0062C79.0336 20.9731 79.2886 21.7079 79.7712 22.2233C80.2537 22.7333 80.9309 22.9883 81.8028 22.9883C82.1812 22.9883 82.5678 22.9307 82.9626 22.8156C83.3629 22.6949 83.7632 22.5002 84.1635 22.2316L84.8297 23.2515C84.3307 23.5805 83.829 23.8218 83.3245 23.9753C82.82 24.1289 82.2662 24.2056 81.663 24.2056C80.3579 24.2056 79.3407 23.819 78.6114 23.0459C77.8821 22.2672 77.5147 21.1815 77.5092 19.7886C77.5037 18.4013 77.8711 17.2854 78.6114 16.4409C79.3572 15.591 80.3223 15.166 81.5067 15.166C82.6363 15.166 83.5137 15.5334 84.1388 16.2682C84.7639 16.9975 85.0765 18.0147 85.0765 19.3198V20.0189ZM83.6042 18.8674C83.5987 18.0723 83.4068 17.4554 83.0284 17.0167C82.6555 16.578 82.1401 16.3587 81.482 16.3587C80.835 16.3587 80.2866 16.5862 79.837 17.0414C79.3928 17.491 79.1214 18.0997 79.0227 18.8674H83.6042ZM96.0902 23.8931C95.8544 23.9918 95.6186 24.0631 95.3828 24.1069C95.1525 24.1563 94.8921 24.181 94.6014 24.181C93.8941 24.181 93.3402 23.9781 92.9399 23.5723C92.5451 23.1665 92.3477 22.5661 92.3477 21.7709V16.589H90.8754V15.3716H92.3477V13.3975L93.82 12.9287V15.3716H95.9751V16.589H93.82V21.6147C93.82 22.1027 93.9078 22.4536 94.0832 22.6675C94.2587 22.8814 94.5219 22.9883 94.8729 22.9883C95.0374 22.9883 95.1964 22.9691 95.3499 22.9307C95.5035 22.8923 95.6351 22.8457 95.7448 22.7909L96.0902 23.8931ZM101.593 24.2056C100.304 24.2056 99.2762 23.8026 98.5085 22.9965C97.7463 22.1849 97.3652 21.1102 97.3652 19.7722C97.3652 18.33 97.76 17.2031 98.5496 16.3916C99.3392 15.58 100.417 15.1715 101.782 15.166C103.076 15.1605 104.088 15.5581 104.817 16.3587C105.552 17.1538 105.919 18.2478 105.919 19.6406C105.919 21.0279 105.527 22.1356 104.743 22.9636C103.959 23.7916 102.909 24.2056 101.593 24.2056ZM101.692 22.9883C102.569 22.9883 103.241 22.7031 103.707 22.1329C104.178 21.5571 104.414 20.7428 104.414 19.6899C104.414 18.6261 104.178 17.8091 103.707 17.2388C103.235 16.6685 102.564 16.3833 101.692 16.3833C100.82 16.3833 100.129 16.6822 99.6189 17.2799C99.1144 17.8721 98.8622 18.6892 98.8622 19.7311C98.8622 20.7455 99.1171 21.5434 99.6271 22.1246C100.137 22.7004 100.825 22.9883 101.692 22.9883ZM119.82 20.0189H113.75C113.777 20.9731 114.032 21.7079 114.515 22.2233C114.998 22.7333 115.675 22.9883 116.547 22.9883C116.925 22.9883 117.312 22.9307 117.706 22.8156C118.107 22.6949 118.507 22.5002 118.907 22.2316L119.574 23.2515C119.075 23.5805 118.573 23.8218 118.068 23.9753C117.564 24.1289 117.01 24.2056 116.407 24.2056C115.102 24.2056 114.085 23.819 113.355 23.0459C112.626 22.2672 112.258 21.1815 112.253 19.7886C112.248 18.4013 112.615 17.2854 113.355 16.4409C114.101 15.591 115.066 15.166 116.251 15.166C117.38 15.166 118.257 15.5334 118.883 16.2682C119.508 16.9975 119.82 18.0147 119.82 19.3198V20.0189ZM118.348 18.8674C118.342 18.0723 118.151 17.4554 117.772 17.0167C117.399 16.578 116.884 16.3587 116.226 16.3587C115.579 16.3587 115.03 16.5862 114.581 17.0414C114.137 17.491 113.865 18.0997 113.766 18.8674H118.348ZM129.222 24H127.758V19.0813C127.758 18.1819 127.593 17.5075 127.264 17.0578C126.935 16.6082 126.444 16.3833 125.792 16.3833C125.112 16.3833 124.55 16.6383 124.106 17.1483C123.667 17.6528 123.448 18.2944 123.448 19.073V24H121.984V15.3716H123.448V16.8028H123.481C123.804 16.2545 124.202 15.846 124.673 15.5773C125.145 15.3031 125.69 15.166 126.31 15.166C127.253 15.166 127.974 15.4703 128.473 16.079C128.972 16.6877 129.222 17.5678 129.222 18.7193V24ZM136.115 23.8931C135.879 23.9918 135.643 24.0631 135.407 24.1069C135.177 24.1563 134.917 24.181 134.626 24.181C133.919 24.181 133.365 23.9781 132.964 23.5723C132.57 23.1665 132.372 22.5661 132.372 21.7709V16.589H130.9V15.3716H132.372V13.3975L133.844 12.9287V15.3716H136V16.589H133.844V21.6147C133.844 22.1027 133.932 22.4536 134.108 22.6675C134.283 22.8814 134.546 22.9883 134.897 22.9883C135.062 22.9883 135.221 22.9691 135.374 22.9307C135.528 22.8923 135.66 22.8457 135.769 22.7909L136.115 23.8931ZM144.957 20.0189H138.887C138.914 20.9731 139.169 21.7079 139.652 22.2233C140.134 22.7333 140.811 22.9883 141.683 22.9883C142.062 22.9883 142.448 22.9307 142.843 22.8156C143.243 22.6949 143.644 22.5002 144.044 22.2316L144.71 23.2515C144.211 23.5805 143.709 23.8218 143.205 23.9753C142.7 24.1289 142.147 24.2056 141.543 24.2056C140.238 24.2056 139.221 23.819 138.492 23.0459C137.762 22.2672 137.395 21.1815 137.39 19.7886C137.384 18.4013 137.752 17.2854 138.492 16.4409C139.238 15.591 140.203 15.166 141.387 15.166C142.517 15.166 143.394 15.5334 144.019 16.2682C144.644 16.9975 144.957 18.0147 144.957 19.3198V20.0189ZM143.485 18.8674C143.479 18.0723 143.287 17.4554 142.909 17.0167C142.536 16.578 142.02 16.3587 141.362 16.3587C140.715 16.3587 140.167 16.5862 139.717 17.0414C139.273 17.491 139.002 18.0997 138.903 18.8674H143.485ZM151.471 16.6219C151.362 16.589 151.26 16.5643 151.167 16.5479C151.074 16.5314 150.961 16.5232 150.83 16.5232C150.133 16.5232 149.585 16.8193 149.185 17.4115C148.784 17.9983 148.584 18.7413 148.584 19.6406V24H147.12V15.3716H148.584V17.0825H148.617C148.815 16.4738 149.113 16.0132 149.514 15.7006C149.92 15.3826 150.388 15.2236 150.92 15.2236C151.09 15.2236 151.236 15.2318 151.356 15.2482C151.482 15.2647 151.597 15.2894 151.702 15.3223L151.471 16.6219ZM157.18 23.3584L157.862 22.2562C158.224 22.4975 158.584 22.6812 158.94 22.8073C159.296 22.9334 159.688 22.9965 160.116 22.9965C160.692 22.9965 161.131 22.8923 161.432 22.6839C161.734 22.4701 161.885 22.152 161.885 21.7298C161.885 21.3789 161.75 21.0882 161.482 20.8579C161.218 20.6221 160.802 20.4302 160.231 20.2822C159.162 20.0135 158.427 19.6707 158.027 19.254C157.627 18.8318 157.427 18.3081 157.427 17.6829C157.427 16.9591 157.701 16.3587 158.249 15.8816C158.803 15.4045 159.557 15.166 160.511 15.166C160.972 15.166 161.408 15.2263 161.819 15.347C162.236 15.4621 162.655 15.6568 163.077 15.931L162.444 17.0167C162.06 16.7754 161.715 16.6082 161.408 16.5149C161.1 16.4162 160.788 16.3669 160.47 16.3669C159.927 16.3669 159.51 16.4683 159.22 16.6712C158.929 16.8741 158.784 17.1675 158.784 17.5513C158.784 17.9242 158.926 18.2094 159.211 18.4068C159.497 18.5987 159.971 18.7797 160.634 18.9496C161.517 19.1854 162.175 19.5145 162.608 19.9367C163.047 20.3534 163.266 20.91 163.266 21.6064C163.266 22.4015 162.979 23.0349 162.403 23.5065C161.833 23.9726 161.054 24.2056 160.067 24.2056C159.529 24.2056 159.017 24.1343 158.529 23.9918C158.046 23.8437 157.597 23.6326 157.18 23.3584ZM166.91 22.758H166.877V27.8741H165.413V15.3716H166.877V16.8769H166.91C167.25 16.3066 167.67 15.8789 168.169 15.5937C168.668 15.3086 169.241 15.166 169.888 15.166C171.001 15.166 171.867 15.5526 172.487 16.3258C173.112 17.0989 173.425 18.1326 173.425 19.4267C173.425 20.8744 173.071 22.0341 172.364 22.906C171.662 23.7724 170.705 24.2056 169.493 24.2056C168.934 24.2056 168.437 24.085 168.004 23.8437C167.577 23.6024 167.212 23.2405 166.91 22.758ZM166.869 19.2869V20.4384C166.869 21.1513 167.097 21.7545 167.552 22.248C168.007 22.7415 168.588 22.9883 169.296 22.9883C170.113 22.9883 170.754 22.673 171.22 22.0424C171.686 21.4118 171.92 20.5344 171.92 19.4103C171.92 18.4616 171.703 17.7213 171.27 17.1894C170.837 16.652 170.247 16.3833 169.501 16.3833C168.706 16.3833 168.067 16.6603 167.585 17.2141C167.108 17.7625 166.869 18.4534 166.869 19.2869ZM181.905 24H180.449V22.6428H180.416C180.12 23.1583 179.753 23.5476 179.314 23.8108C178.875 24.074 178.365 24.2056 177.784 24.2056C176.973 24.2056 176.317 23.9698 175.818 23.4983C175.319 23.0267 175.07 22.4043 175.07 21.6311C175.07 20.8799 175.322 20.263 175.827 19.7804C176.331 19.2979 177.058 18.988 178.006 18.8509L180.457 18.5219V18.3245C180.457 17.6281 180.29 17.1264 179.956 16.8193C179.627 16.5122 179.183 16.3587 178.623 16.3587C178.179 16.3587 177.746 16.4437 177.324 16.6137C176.901 16.7836 176.501 17.0386 176.123 17.3786L175.325 16.4903C175.813 16.0406 176.334 15.7089 176.888 15.495C177.447 15.2757 178.058 15.166 178.722 15.166C179.775 15.166 180.567 15.4374 181.099 15.9803C181.636 16.5232 181.905 17.3375 181.905 18.4232V24ZM180.457 20.4796V19.6488L178.401 19.9285C177.77 20.0162 177.299 20.1752 176.986 20.4055C176.674 20.6358 176.518 20.9978 176.518 21.4913C176.518 21.9793 176.663 22.3577 176.953 22.6264C177.25 22.8951 177.617 23.0294 178.056 23.0294C178.779 23.0294 179.361 22.7909 179.799 22.3138C180.238 21.8313 180.457 21.2198 180.457 20.4796ZM190.805 23.4571C190.394 23.7203 189.982 23.9095 189.571 24.0247C189.16 24.1453 188.718 24.2056 188.247 24.2056C187.013 24.2056 186.007 23.8273 185.228 23.0705C184.449 22.3083 184.06 21.2445 184.06 19.8791C184.06 18.4644 184.455 17.3265 185.245 16.4656C186.04 15.5992 187.125 15.166 188.502 15.166C188.946 15.166 189.368 15.2208 189.769 15.3305C190.169 15.4347 190.572 15.6047 190.978 15.8405L190.361 16.9098C190.048 16.7233 189.741 16.5917 189.439 16.5149C189.138 16.4327 188.814 16.3916 188.469 16.3916C187.531 16.3916 186.81 16.7041 186.306 17.3293C185.807 17.9489 185.557 18.7468 185.557 19.7228C185.557 20.7757 185.818 21.5818 186.339 22.1411C186.865 22.7004 187.542 22.9801 188.37 22.9801C188.65 22.9801 188.938 22.9389 189.234 22.8567C189.535 22.7689 189.845 22.6236 190.163 22.4207L190.805 23.4571ZM199.803 20.0189H193.733C193.761 20.9731 194.016 21.7079 194.498 22.2233C194.981 22.7333 195.658 22.9883 196.53 22.9883C196.908 22.9883 197.295 22.9307 197.69 22.8156C198.09 22.6949 198.49 22.5002 198.89 22.2316L199.557 23.2515C199.058 23.5805 198.556 23.8218 198.051 23.9753C197.547 24.1289 196.993 24.2056 196.39 24.2056C195.085 24.2056 194.068 23.819 193.338 23.0459C192.609 22.2672 192.242 21.1815 192.236 19.7886C192.231 18.4013 192.598 17.2854 193.338 16.4409C194.084 15.591 195.049 15.166 196.234 15.166C197.363 15.166 198.241 15.5334 198.866 16.2682C199.491 16.9975 199.803 18.0147 199.803 19.3198V20.0189ZM198.331 18.8674C198.326 18.0723 198.134 17.4554 197.755 17.0167C197.382 16.578 196.867 16.3587 196.209 16.3587C195.562 16.3587 195.014 16.5862 194.564 17.0414C194.12 17.491 193.848 18.0997 193.75 18.8674H198.331Z" fill="white"/>
<defs>
<linearGradient id="paint0_linear_1184_926" x1="105.5" y1="2" x2="105.5" y2="33" gradientUnits="userSpaceOnUse">
<stop stop-color="white" stop-opacity="0.093"/>
<stop offset="0.5" stop-color="white" stop-opacity="0.0698"/>
</linearGradient>
</defs>
</svg>
