<svg width="180" height="50" viewBox="0 0 180 50" fill="none" xmlns="http://www.w3.org/2000/svg">
<circle cx="20" cy="21.25" r="7" fill="url(#paint0_linear_1189_1191)"/>
<g filter="url(#filter0_i_1189_1191)">
<path d="M24 16.25C26.3171 16.25 28.3255 17.5644 29.3252 19.4873C29.8568 19.3331 30.4187 19.25 31 19.25C34.3137 19.25 37 21.9363 37 25.25C37 28.5637 34.3137 31.25 31 31.25H17V31.2207C14.7501 30.9719 13 29.0662 13 26.75C13 24.2647 15.0147 22.25 17.5 22.25C17.669 22.25 17.8358 22.2602 18 22.2783C18 22.2689 18 22.2594 18 22.25C18 18.9363 20.6863 16.25 24 16.25Z" fill="url(#paint1_linear_1189_1191)"/>
</g>
<path d="M55.5606 15.562C55.5606 16.1174 55.43 16.587 55.1686 16.9709C54.9113 17.3507 54.5581 17.6386 54.1088 17.8346C53.6637 18.0265 53.1573 18.1225 52.5897 18.1225C52.0261 18.1225 51.5177 18.0265 51.0644 17.8346C50.6151 17.6386 50.2578 17.3507 49.9924 16.9709C49.731 16.587 49.6003 16.1174 49.6003 15.562C49.6003 15.1903 49.6738 14.8534 49.8208 14.5512C49.9719 14.249 50.1802 13.9897 50.4457 13.7733C50.7111 13.5527 51.0256 13.3853 51.389 13.271C51.7525 13.1525 52.1486 13.0933 52.5774 13.0933C53.1491 13.0933 53.6596 13.1974 54.1088 13.4057C54.5621 13.6099 54.9174 13.8978 55.1747 14.2694C55.432 14.637 55.5606 15.0678 55.5606 15.562ZM53.9312 15.464C53.9312 15.1781 53.874 14.931 53.7597 14.7227C53.6494 14.5104 53.4922 14.347 53.288 14.2327C53.0838 14.1183 52.8469 14.0612 52.5774 14.0612C52.3038 14.0612 52.0649 14.1183 51.8607 14.2327C51.6606 14.347 51.5034 14.5104 51.389 14.7227C51.2788 14.931 51.2236 15.1781 51.2236 15.464C51.2236 15.7539 51.2788 16.003 51.389 16.2113C51.5034 16.4155 51.6626 16.5727 51.8668 16.683C52.071 16.7932 52.312 16.8484 52.5897 16.8484C52.8674 16.8484 53.1063 16.7932 53.3064 16.683C53.5065 16.5727 53.6596 16.4155 53.7658 16.2113C53.8761 16.003 53.9312 15.7539 53.9312 15.464ZM55.3646 11.4332C55.3646 11.8825 55.2462 12.2827 55.0093 12.6339C54.7725 12.981 54.4437 13.2526 54.0231 13.4486C53.6065 13.6446 53.1287 13.7426 52.5897 13.7426C52.0506 13.7426 51.5687 13.6446 51.144 13.4486C50.7234 13.2526 50.3926 12.981 50.1516 12.6339C49.9148 12.2827 49.7963 11.8825 49.7963 11.4332C49.7963 10.9023 49.9168 10.4531 50.1578 10.0856C50.3987 9.71396 50.7275 9.43217 51.144 9.24023C51.5646 9.04829 52.0424 8.95232 52.5774 8.95232C53.1206 8.95232 53.6025 9.04829 54.0231 9.24023C54.4437 9.43217 54.7725 9.71396 55.0093 10.0856C55.2462 10.4531 55.3646 10.9023 55.3646 11.4332ZM53.7474 11.5006C53.7474 11.2474 53.7005 11.0269 53.6065 10.839C53.5126 10.6471 53.3778 10.498 53.2022 10.3919C53.0307 10.2857 52.8224 10.2326 52.5774 10.2326C52.3406 10.2326 52.1364 10.2836 51.9648 10.3857C51.7933 10.4878 51.6606 10.6349 51.5667 10.8268C51.4727 11.0146 51.4258 11.2393 51.4258 11.5006C51.4258 11.7579 51.4727 11.9825 51.5667 12.1744C51.6606 12.3664 51.7933 12.5175 51.9648 12.6278C52.1404 12.7339 52.3487 12.787 52.5897 12.787C52.8306 12.787 53.0368 12.7339 53.2084 12.6278C53.3799 12.5175 53.5126 12.3664 53.6065 12.1744C53.7005 11.9825 53.7474 11.7579 53.7474 11.5006ZM68.4859 15.0658H70.1705C70.1255 15.662 69.9601 16.1909 69.6743 16.6523C69.3884 17.1097 68.9902 17.4691 68.4798 17.7305C67.9693 17.9918 67.3506 18.1225 66.6237 18.1225C66.0642 18.1225 65.5598 18.0245 65.1106 17.8285C64.6655 17.6284 64.2836 17.3445 63.9651 16.977C63.6507 16.6054 63.4097 16.1602 63.2423 15.6416C63.0748 15.1189 62.9911 14.5328 62.9911 13.8835V13.2036C62.9911 12.5542 63.0769 11.9682 63.2484 11.4455C63.4199 10.9228 63.665 10.4776 63.9835 10.1101C64.3061 9.73846 64.692 9.45259 65.1412 9.25248C65.5946 9.05238 66.1009 8.95232 66.6604 8.95232C67.3873 8.95232 68.002 9.08709 68.5043 9.35662C69.0066 9.62207 69.3966 9.98757 69.6743 10.4531C69.952 10.9187 70.1194 11.4537 70.1766 12.0581H68.492C68.4593 11.6824 68.3777 11.3638 68.247 11.1024C68.1204 10.8411 67.9284 10.643 67.6712 10.5083C67.418 10.3694 67.0811 10.3 66.6604 10.3C66.3337 10.3 66.0458 10.3612 65.7967 10.4838C65.5517 10.6063 65.3475 10.79 65.1841 11.0351C65.0208 11.276 64.8983 11.5782 64.8166 11.9417C64.7349 12.301 64.6941 12.7176 64.6941 13.1913V13.8835C64.6941 14.3368 64.7308 14.7432 64.8043 15.1025C64.8778 15.4619 64.9922 15.7662 65.1474 16.0153C65.3026 16.2644 65.5027 16.4543 65.7477 16.585C65.9927 16.7156 66.2847 16.781 66.6237 16.781C67.0361 16.781 67.371 16.7156 67.6283 16.585C67.8897 16.4543 68.0877 16.2623 68.2225 16.0091C68.3613 15.7559 68.4491 15.4415 68.4859 15.0658Z" fill="white"/>
<circle cx="60" cy="11.25" r="1.5" stroke="white"/>
<path d="M52.7008 35.1434H50.1107V34.098H52.7008C53.2024 34.098 53.6086 34.0181 53.9193 33.8583C54.23 33.6985 54.4564 33.4766 54.5985 33.1925C54.7449 32.9084 54.8182 32.5843 54.8182 32.2203C54.8182 31.8874 54.7449 31.5745 54.5985 31.2815C54.4564 30.9885 54.23 30.7533 53.9193 30.5757C53.6086 30.3937 53.2024 30.3027 52.7008 30.3027H50.4103V38.9453H49.1253V29.2507H52.7008C53.4332 29.2507 54.0525 29.3772 54.5585 29.6302C55.0645 29.8833 55.4485 30.2339 55.7104 30.6823C55.9723 31.1262 56.1033 31.6344 56.1033 32.207C56.1033 32.8285 55.9723 33.3589 55.7104 33.7984C55.4485 34.2378 55.0645 34.573 54.5585 34.8038C54.0525 35.0302 53.4332 35.1434 52.7008 35.1434ZM61.7096 37.7135V34.0048C61.7096 33.7207 61.6519 33.4743 61.5365 33.2657C61.4255 33.0526 61.2568 32.8884 61.0305 32.773C60.8041 32.6576 60.5244 32.5999 60.1915 32.5999C59.8808 32.5999 59.6078 32.6531 59.3725 32.7597C59.1417 32.8662 58.9597 33.006 58.8265 33.1792C58.6978 33.3523 58.6334 33.5387 58.6334 33.7385H57.4016C57.4016 33.481 57.4682 33.2258 57.6014 32.9727C57.7346 32.7197 57.9254 32.4911 58.174 32.2869C58.427 32.0783 58.7289 31.9141 59.0795 31.7942C59.4347 31.6699 59.8297 31.6078 60.2647 31.6078C60.7885 31.6078 61.2502 31.6966 61.6497 31.8741C62.0536 32.0517 62.3688 32.3202 62.5952 32.6798C62.826 33.0349 62.9414 33.481 62.9414 34.0181V37.3739C62.9414 37.6136 62.9614 37.8689 63.0013 38.1396C63.0457 38.4104 63.1101 38.6435 63.1944 38.8388V38.9453H61.9094C61.8472 38.8033 61.7984 38.6146 61.7629 38.3794C61.7274 38.1396 61.7096 37.9177 61.7096 37.7135ZM61.9227 34.5774L61.936 35.443H60.6909C60.3402 35.443 60.0273 35.4719 59.752 35.5296C59.4768 35.5828 59.246 35.6649 59.0596 35.7759C58.8731 35.8869 58.7311 36.0267 58.6334 36.1954C58.5358 36.3596 58.487 36.5527 58.487 36.7747C58.487 37.0011 58.538 37.2075 58.6401 37.3939C58.7422 37.5803 58.8953 37.729 59.0995 37.84C59.3082 37.9466 59.5634 37.9998 59.8652 37.9998C60.2425 37.9998 60.5755 37.9199 60.864 37.7601C61.1525 37.6003 61.3811 37.405 61.5498 37.1742C61.7229 36.9434 61.8161 36.7192 61.8295 36.5017L62.3555 37.0943C62.3244 37.2807 62.2401 37.4871 62.1025 37.7135C61.9648 37.9399 61.7806 38.1574 61.5498 38.366C61.3234 38.5702 61.0526 38.7411 60.7375 38.8787C60.4268 39.0119 60.0761 39.0785 59.6855 39.0785C59.1972 39.0785 58.7688 38.983 58.4004 38.7922C58.0364 38.6013 57.7523 38.3461 57.5481 38.0265C57.3484 37.7024 57.2485 37.3406 57.2485 36.9411C57.2485 36.555 57.324 36.2154 57.4749 35.9224C57.6258 35.625 57.8433 35.3786 58.1274 35.1833C58.4115 34.9836 58.7533 34.8327 59.1528 34.7306C59.5523 34.6285 59.9984 34.5774 60.4911 34.5774H61.9227ZM66.1108 32.8729V38.9453H64.879V31.7409H66.0775L66.1108 32.8729ZM68.3613 31.701L68.3547 32.8462C68.2526 32.824 68.1549 32.8107 68.0617 32.8063C67.9729 32.7974 67.8708 32.793 67.7554 32.793C67.4713 32.793 67.2205 32.8374 67.003 32.9261C66.7855 33.0149 66.6013 33.1392 66.4504 33.299C66.2995 33.4588 66.1796 33.6497 66.0908 33.8716C66.0065 34.0891 65.951 34.3288 65.9244 34.5907L65.5781 34.7905C65.5781 34.3555 65.6203 33.9471 65.7046 33.5653C65.7934 33.1836 65.9288 32.8462 66.1108 32.5533C66.2928 32.2559 66.5236 32.025 66.8033 31.8608C67.0874 31.6921 67.4247 31.6078 67.8153 31.6078C67.9041 31.6078 68.0062 31.6189 68.1216 31.6411C68.237 31.6588 68.3169 31.6788 68.3613 31.701ZM72.8491 31.7409V32.6864H68.9539V31.7409H72.8491ZM70.2723 29.9898H71.5041V37.1609C71.5041 37.405 71.5418 37.5892 71.6173 37.7135C71.6927 37.8378 71.7904 37.9199 71.9102 37.9599C72.0301 37.9998 72.1588 38.0198 72.2964 38.0198C72.3985 38.0198 72.5051 38.0109 72.616 37.9932C72.7314 37.971 72.818 37.9532 72.8757 37.9399L72.8824 38.9453C72.7847 38.9764 72.656 39.0052 72.4962 39.0319C72.3408 39.0629 72.1522 39.0785 71.9302 39.0785C71.6284 39.0785 71.3509 39.0186 71.0979 38.8987C70.8449 38.7789 70.6429 38.5791 70.492 38.2994C70.3455 38.0154 70.2723 37.6336 70.2723 37.1542V29.9898ZM75.6323 28.718V38.9453H74.3938V28.718H75.6323ZM79.634 38.1996L81.6381 31.7409H82.9565L80.0668 40.0573C80.0002 40.2348 79.9114 40.4257 79.8004 40.6299C79.6939 40.8385 79.5563 41.036 79.3876 41.2225C79.2189 41.4089 79.0147 41.5598 78.775 41.6752C78.5398 41.7951 78.2579 41.855 77.9294 41.855C77.8318 41.855 77.7075 41.8417 77.5566 41.8151C77.4056 41.7884 77.2991 41.7662 77.237 41.7485L77.2303 40.7497C77.2658 40.7542 77.3213 40.7586 77.3968 40.7631C77.4767 40.7719 77.5321 40.7764 77.5632 40.7764C77.8429 40.7764 78.0803 40.7386 78.2757 40.6632C78.471 40.5922 78.6352 40.4701 78.7684 40.297C78.906 40.1283 79.0236 39.8952 79.1213 39.5978L79.634 38.1996ZM78.1625 31.7409L80.0335 37.334L80.3531 38.6324L79.4675 39.0851L76.8175 31.7409H78.1625ZM91.6457 37.0344C91.6457 36.8568 91.6057 36.6926 91.5258 36.5416C91.4504 36.3863 91.2928 36.2464 91.0531 36.1222C90.8178 35.9934 90.4627 35.8825 89.9878 35.7892C89.5882 35.7049 89.2265 35.605 88.9024 35.4896C88.5828 35.3742 88.3098 35.2344 88.0835 35.0701C87.8615 34.9059 87.6906 34.7128 87.5708 34.4909C87.4509 34.2689 87.391 34.0092 87.391 33.7118C87.391 33.4277 87.4531 33.1592 87.5774 32.9062C87.7061 32.6531 87.8859 32.429 88.1167 32.2337C88.352 32.0384 88.6339 31.8852 88.9624 31.7742C89.2908 31.6633 89.6571 31.6078 90.061 31.6078C90.6381 31.6078 91.1308 31.7099 91.5392 31.9141C91.9475 32.1183 92.2605 32.3912 92.478 32.733C92.6955 33.0704 92.8042 33.4455 92.8042 33.8583H91.5724C91.5724 33.6586 91.5125 33.4655 91.3927 33.279C91.2773 33.0882 91.1064 32.9306 90.88 32.8063C90.658 32.682 90.385 32.6199 90.061 32.6199C89.7192 32.6199 89.4418 32.6731 89.2287 32.7797C89.0201 32.8817 88.8669 33.0127 88.7693 33.1725C88.6761 33.3323 88.6294 33.501 88.6294 33.6785C88.6294 33.8117 88.6516 33.9316 88.696 34.0381C88.7449 34.1402 88.8292 34.2356 88.949 34.3244C89.0689 34.4087 89.2376 34.4886 89.4551 34.5641C89.6726 34.6396 89.95 34.715 90.2874 34.7905C90.8778 34.9237 91.3638 35.0835 91.7456 35.2699C92.1273 35.4563 92.4114 35.6849 92.5978 35.9557C92.7843 36.2265 92.8775 36.555 92.8775 36.9411C92.8775 37.2563 92.8109 37.5448 92.6777 37.8067C92.549 38.0686 92.3604 38.295 92.1118 38.4859C91.8676 38.6723 91.5747 38.8188 91.2329 38.9253C90.8955 39.0274 90.516 39.0785 90.0943 39.0785C89.4595 39.0785 88.9224 38.9653 88.483 38.7389C88.0435 38.5125 87.7106 38.2195 87.4842 37.86C87.2578 37.5004 87.1446 37.1209 87.1446 36.7214H88.3831C88.4008 37.0588 88.4985 37.3273 88.6761 37.5271C88.8536 37.7224 89.0711 37.8622 89.3286 37.9466C89.586 38.0265 89.8413 38.0664 90.0943 38.0664C90.4316 38.0664 90.7135 38.022 90.9399 37.9332C91.1707 37.8445 91.3461 37.7224 91.4659 37.567C91.5858 37.4117 91.6457 37.2341 91.6457 37.0344ZM98.9033 37.2807V31.7409H100.142V38.9453H98.9633L98.9033 37.2807ZM99.1364 35.7626L99.6491 35.7493C99.6491 36.2287 99.598 36.6726 99.4959 37.081C99.3983 37.4849 99.2385 37.8356 99.0165 38.133C98.7946 38.4304 98.5038 38.6634 98.1443 38.8321C97.7847 38.9964 97.3475 39.0785 96.8326 39.0785C96.4819 39.0785 96.1601 39.0274 95.8671 38.9253C95.5786 38.8232 95.33 38.6657 95.1214 38.4526C94.9127 38.2395 94.7507 37.9621 94.6353 37.6203C94.5243 37.2785 94.4688 36.8679 94.4688 36.3885V31.7409H95.7006V36.4018C95.7006 36.7259 95.7362 36.9944 95.8072 37.2075C95.8826 37.4161 95.9825 37.5826 96.1068 37.7069C96.2355 37.8267 96.3776 37.911 96.5329 37.9599C96.6927 38.0087 96.857 38.0331 97.0257 38.0331C97.5495 38.0331 97.9645 37.9332 98.2708 37.7335C98.5771 37.5293 98.7968 37.2563 98.93 36.9145C99.0676 36.5683 99.1364 36.1843 99.1364 35.7626ZM103.251 33.279V38.9453H102.019V31.7409H103.185L103.251 33.279ZM102.958 35.0701L102.446 35.0502C102.45 34.5574 102.523 34.1024 102.665 33.6852C102.807 33.2635 103.007 32.8973 103.265 32.5866C103.522 32.2758 103.828 32.0361 104.183 31.8675C104.543 31.6943 104.94 31.6078 105.375 31.6078C105.73 31.6078 106.05 31.6566 106.334 31.7543C106.618 31.8475 106.86 31.9984 107.06 32.207C107.264 32.4157 107.419 32.6864 107.526 33.0194C107.632 33.3478 107.686 33.7496 107.686 34.2245V38.9453H106.447V34.2112C106.447 33.8339 106.392 33.532 106.281 33.3057C106.17 33.0748 106.008 32.9084 105.795 32.8063C105.582 32.6998 105.32 32.6465 105.009 32.6465C104.703 32.6465 104.423 32.7108 104.17 32.8396C103.922 32.9683 103.706 33.1459 103.524 33.3722C103.347 33.5986 103.207 33.8583 103.105 34.1513C103.007 34.4398 102.958 34.7461 102.958 35.0701ZM110.789 33.279V38.9453H109.557V31.7409H110.722L110.789 33.279ZM110.496 35.0701L109.983 35.0502C109.987 34.5574 110.061 34.1024 110.203 33.6852C110.345 33.2635 110.544 32.8973 110.802 32.5866C111.059 32.2758 111.366 32.0361 111.721 31.8675C112.08 31.6943 112.478 31.6078 112.913 31.6078C113.268 31.6078 113.587 31.6566 113.871 31.7543C114.155 31.8475 114.397 31.9984 114.597 32.207C114.801 32.4157 114.957 32.6864 115.063 33.0194C115.17 33.3478 115.223 33.7496 115.223 34.2245V38.9453H113.985V34.2112C113.985 33.8339 113.929 33.532 113.818 33.3057C113.707 33.0748 113.545 32.9084 113.332 32.8063C113.119 32.6998 112.857 32.6465 112.546 32.6465C112.24 32.6465 111.96 32.7108 111.707 32.8396C111.459 32.9683 111.244 33.1459 111.062 33.3722C110.884 33.5986 110.744 33.8583 110.642 34.1513C110.544 34.4398 110.496 34.7461 110.496 35.0701ZM119.118 38.1996L121.122 31.7409H122.441L119.551 40.0573C119.484 40.2348 119.396 40.4257 119.285 40.6299C119.178 40.8385 119.04 41.036 118.872 41.2225C118.703 41.4089 118.499 41.5598 118.259 41.6752C118.024 41.7951 117.742 41.855 117.414 41.855C117.316 41.855 117.192 41.8417 117.041 41.8151C116.89 41.7884 116.783 41.7662 116.721 41.7485L116.714 40.7497C116.75 40.7542 116.805 40.7586 116.881 40.7631C116.961 40.7719 117.016 40.7764 117.047 40.7764C117.327 40.7764 117.565 40.7386 117.76 40.6632C117.955 40.5922 118.119 40.4701 118.253 40.297C118.39 40.1283 118.508 39.8952 118.605 39.5978L119.118 38.1996ZM117.647 31.7409L119.518 37.334L119.837 38.6324L118.952 39.0851L116.302 31.7409H117.647Z" fill="white"/>
<defs>
<filter id="filter0_i_1189_1191" x="13" y="16.25" width="25" height="16" filterUnits="userSpaceOnUse" color-interpolation-filters="sRGB">
<feFlood flood-opacity="0" result="BackgroundImageFix"/>
<feBlend mode="normal" in="SourceGraphic" in2="BackgroundImageFix" result="shape"/>
<feColorMatrix in="SourceAlpha" type="matrix" values="0 0 0 0 0 0 0 0 0 0 0 0 0 0 0 0 0 0 127 0" result="hardAlpha"/>
<feOffset dx="2" dy="2"/>
<feGaussianBlur stdDeviation="0.5"/>
<feComposite in2="hardAlpha" operator="arithmetic" k2="-1" k3="1"/>
<feColorMatrix type="matrix" values="0 0 0 0 1 0 0 0 0 1 0 0 0 0 1 0 0 0 1 0"/>
<feBlend mode="normal" in2="shape" result="effect1_innerShadow_1189_1191"/>
</filter>
<linearGradient id="paint0_linear_1189_1191" x1="13" y1="14.25" x2="19.5" y2="20.75" gradientUnits="userSpaceOnUse">
<stop stop-color="#FAE26F"/>
<stop offset="1" stop-color="#F7BC3D"/>
</linearGradient>
<linearGradient id="paint1_linear_1189_1191" x1="19.0417" y1="25.45" x2="25.9522" y2="34.0882" gradientUnits="userSpaceOnUse">
<stop stop-color="white"/>
<stop offset="1" stop-color="#BDE0F5"/>
</linearGradient>
</defs>
</svg>
