<svg width="1536" height="45" viewBox="0 0 1536 45" fill="none" xmlns="http://www.w3.org/2000/svg">
<g filter="url(#filter0_d_1364_1212)">
<rect width="1536" height="44" fill="white"/>
<path d="M35.0005 22.9988H23.8305L28.7105 18.1188C29.1005 17.7288 29.1005 17.0887 28.7105 16.6987C28.3205 16.3088 27.6905 16.3088 27.3005 16.6987L20.7105 23.2888C20.3205 23.6788 20.3205 24.3087 20.7105 24.6987L27.3005 31.2888C27.6905 31.6788 28.3205 31.6788 28.7105 31.2888C29.1005 30.8988 29.1005 30.2687 28.7105 29.8787L23.8305 24.9987H35.0005C35.5505 24.9987 36.0005 24.5488 36.0005 23.9988C36.0005 23.4488 35.5505 22.9988 35.0005 22.9988Z" fill="#535353"/>
<path d="M72.7617 24.9987H83.9317L79.0517 29.8787C78.6617 30.2687 78.6617 30.9087 79.0517 31.2987C79.4417 31.6887 80.0717 31.6887 80.4617 31.2987L87.0517 24.7087C87.4417 24.3187 87.4417 23.6888 87.0517 23.2988L80.4717 16.6987C80.0817 16.3088 79.4517 16.3088 79.0617 16.6987C78.6717 17.0887 78.6717 17.7188 79.0617 18.1088L83.9317 22.9988H72.7617C72.2117 22.9988 71.7617 23.4488 71.7617 23.9988C71.7617 24.5488 72.2117 24.9987 72.7617 24.9987V24.9987Z" fill="#535353"/>
<path d="M138.335 17.6466C136.502 15.8131 133.903 14.7558 131.046 15.0483C126.918 15.4645 123.522 18.8163 123.06 22.9443C122.442 28.3996 126.66 33 131.98 33C135.568 33 138.65 30.8966 140.09 27.8709C140.45 27.1173 139.91 26.2512 139.077 26.2512C138.661 26.2512 138.268 26.4762 138.088 26.8474C136.817 29.5806 133.768 31.3128 130.439 30.5704C127.942 30.0193 125.929 27.9834 125.4 25.4864C124.455 21.1222 127.773 17.2529 131.98 17.2529C133.847 17.2529 135.512 18.029 136.727 19.255L135.028 20.9535C134.32 21.6621 134.814 22.8768 135.816 22.8768H139.854C140.472 22.8768 140.978 22.3707 140.978 21.7521V17.714C140.978 16.713 139.764 16.2068 139.055 16.9154L138.335 17.6466V17.6466Z" fill="#535353"/>
<rect x="160" y="8" width="1284" height="32" rx="16" fill="#F1F3F4"/>
<path d="M180.211 20.5137C181.586 20.6532 182.659 21.8153 182.659 23.2275V24.1367L182.658 24.1396C183.169 24.1847 183.569 24.6134 183.569 25.1357V29.499C183.569 30.0513 183.122 30.499 182.569 30.499H177.297C176.745 30.499 176.297 30.0513 176.297 29.499V25.1357C176.297 24.6143 176.696 24.1858 177.205 24.1396V23.2275C177.205 21.7214 178.427 20.5002 179.933 20.5L180.211 20.5137ZM179.933 21.5C179.038 21.5002 178.302 22.1798 178.214 23.0508L178.205 23.2275V24.1357H181.659V23.2275C181.659 22.2737 180.886 21.5001 179.933 21.5Z" fill="#202124"/>
<path d="M202.609 25.7266H204.945C204.898 26.4922 204.688 27.1719 204.312 27.7656C203.943 28.3594 203.424 28.8229 202.758 29.1562C202.096 29.4896 201.299 29.6562 200.367 29.6562C199.638 29.6562 198.984 29.5312 198.406 29.2812C197.828 29.026 197.333 28.6615 196.922 28.1875C196.516 27.7135 196.206 27.1406 195.992 26.4688C195.779 25.7969 195.672 25.0443 195.672 24.2109V23.4219C195.672 22.5885 195.781 21.8359 196 21.1641C196.224 20.487 196.542 19.9115 196.953 19.4375C197.37 18.9635 197.867 18.599 198.445 18.3438C199.023 18.0885 199.669 17.9609 200.383 17.9609C201.331 17.9609 202.13 18.1328 202.781 18.4766C203.438 18.8203 203.945 19.2943 204.305 19.8984C204.669 20.5026 204.888 21.1901 204.961 21.9609H202.617C202.591 21.5026 202.5 21.1146 202.344 20.7969C202.188 20.474 201.951 20.2318 201.633 20.0703C201.32 19.9036 200.904 19.8203 200.383 19.8203C199.992 19.8203 199.651 19.8932 199.359 20.0391C199.068 20.1849 198.823 20.4062 198.625 20.7031C198.427 21 198.279 21.375 198.18 21.8281C198.086 22.276 198.039 22.8021 198.039 23.4062V24.2109C198.039 24.7995 198.083 25.3177 198.172 25.7656C198.26 26.2083 198.396 26.5833 198.578 26.8906C198.766 27.1927 199.005 27.4219 199.297 27.5781C199.594 27.7292 199.951 27.8047 200.367 27.8047C200.857 27.8047 201.26 27.7266 201.578 27.5703C201.896 27.4141 202.138 27.1823 202.305 26.875C202.477 26.5677 202.578 26.1849 202.609 25.7266ZM205.984 25.3594V25.1953C205.984 24.5755 206.073 24.0052 206.25 23.4844C206.427 22.9583 206.685 22.5026 207.023 22.1172C207.362 21.7318 207.779 21.4323 208.273 21.2188C208.768 21 209.336 20.8906 209.977 20.8906C210.617 20.8906 211.188 21 211.688 21.2188C212.188 21.4323 212.607 21.7318 212.945 22.1172C213.289 22.5026 213.549 22.9583 213.727 23.4844C213.904 24.0052 213.992 24.5755 213.992 25.1953V25.3594C213.992 25.974 213.904 26.5443 213.727 27.0703C213.549 27.5911 213.289 28.0469 212.945 28.4375C212.607 28.8229 212.19 29.1224 211.695 29.3359C211.201 29.5495 210.633 29.6562 209.992 29.6562C209.352 29.6562 208.781 29.5495 208.281 29.3359C207.786 29.1224 207.367 28.8229 207.023 28.4375C206.685 28.0469 206.427 27.5911 206.25 27.0703C206.073 26.5443 205.984 25.974 205.984 25.3594ZM208.234 25.1953V25.3594C208.234 25.7135 208.266 26.0443 208.328 26.3516C208.391 26.6589 208.49 26.9297 208.625 27.1641C208.766 27.3932 208.948 27.5729 209.172 27.7031C209.396 27.8333 209.669 27.8984 209.992 27.8984C210.305 27.8984 210.573 27.8333 210.797 27.7031C211.021 27.5729 211.201 27.3932 211.336 27.1641C211.471 26.9297 211.57 26.6589 211.633 26.3516C211.701 26.0443 211.734 25.7135 211.734 25.3594V25.1953C211.734 24.8516 211.701 24.5286 211.633 24.2266C211.57 23.9193 211.469 23.6484 211.328 23.4141C211.193 23.1745 211.013 22.987 210.789 22.8516C210.565 22.7161 210.294 22.6484 209.977 22.6484C209.659 22.6484 209.388 22.7161 209.164 22.8516C208.945 22.987 208.766 23.1745 208.625 23.4141C208.49 23.6484 208.391 23.9193 208.328 24.2266C208.266 24.5286 208.234 24.8516 208.234 25.1953ZM215.016 25.3594V25.1953C215.016 24.5755 215.104 24.0052 215.281 23.4844C215.458 22.9583 215.716 22.5026 216.055 22.1172C216.393 21.7318 216.81 21.4323 217.305 21.2188C217.799 21 218.367 20.8906 219.008 20.8906C219.648 20.8906 220.219 21 220.719 21.2188C221.219 21.4323 221.638 21.7318 221.977 22.1172C222.32 22.5026 222.581 22.9583 222.758 23.4844C222.935 24.0052 223.023 24.5755 223.023 25.1953V25.3594C223.023 25.974 222.935 26.5443 222.758 27.0703C222.581 27.5911 222.32 28.0469 221.977 28.4375C221.638 28.8229 221.221 29.1224 220.727 29.3359C220.232 29.5495 219.664 29.6562 219.023 29.6562C218.383 29.6562 217.812 29.5495 217.312 29.3359C216.818 29.1224 216.398 28.8229 216.055 28.4375C215.716 28.0469 215.458 27.5911 215.281 27.0703C215.104 26.5443 215.016 25.974 215.016 25.3594ZM217.266 25.1953V25.3594C217.266 25.7135 217.297 26.0443 217.359 26.3516C217.422 26.6589 217.521 26.9297 217.656 27.1641C217.797 27.3932 217.979 27.5729 218.203 27.7031C218.427 27.8333 218.701 27.8984 219.023 27.8984C219.336 27.8984 219.604 27.8333 219.828 27.7031C220.052 27.5729 220.232 27.3932 220.367 27.1641C220.503 26.9297 220.602 26.6589 220.664 26.3516C220.732 26.0443 220.766 25.7135 220.766 25.3594V25.1953C220.766 24.8516 220.732 24.5286 220.664 24.2266C220.602 23.9193 220.5 23.6484 220.359 23.4141C220.224 23.1745 220.044 22.987 219.82 22.8516C219.596 22.7161 219.326 22.6484 219.008 22.6484C218.69 22.6484 218.419 22.7161 218.195 22.8516C217.977 22.987 217.797 23.1745 217.656 23.4141C217.521 23.6484 217.422 23.9193 217.359 24.2266C217.297 24.5286 217.266 24.8516 217.266 25.1953ZM226.656 22.8906V29.5H224.406V21.0469H226.523L226.656 22.8906ZM229.203 20.9922L229.164 23.0781C229.055 23.0625 228.922 23.0495 228.766 23.0391C228.615 23.0234 228.477 23.0156 228.352 23.0156C228.034 23.0156 227.758 23.0573 227.523 23.1406C227.294 23.2188 227.102 23.3359 226.945 23.4922C226.794 23.6484 226.68 23.8385 226.602 24.0625C226.529 24.2865 226.487 24.5417 226.477 24.8281L226.023 24.6875C226.023 24.1406 226.078 23.638 226.188 23.1797C226.297 22.7161 226.456 22.3125 226.664 21.9688C226.878 21.625 227.138 21.3594 227.445 21.1719C227.753 20.9844 228.104 20.8906 228.5 20.8906C228.625 20.8906 228.753 20.901 228.883 20.9219C229.013 20.9375 229.12 20.9609 229.203 20.9922ZM235.102 27.6562V17.5H237.367V29.5H235.328L235.102 27.6562ZM229.758 25.375V25.2109C229.758 24.5651 229.831 23.9792 229.977 23.4531C230.122 22.9219 230.336 22.4661 230.617 22.0859C230.898 21.7057 231.245 21.4115 231.656 21.2031C232.068 20.9948 232.536 20.8906 233.062 20.8906C233.557 20.8906 233.99 20.9948 234.359 21.2031C234.734 21.4115 235.052 21.7083 235.312 22.0938C235.578 22.474 235.792 22.9245 235.953 23.4453C236.115 23.9609 236.232 24.526 236.305 25.1406V25.5C236.232 26.0885 236.115 26.6354 235.953 27.1406C235.792 27.6458 235.578 28.0885 235.312 28.4688C235.052 28.8438 234.734 29.1354 234.359 29.3438C233.984 29.5521 233.547 29.6562 233.047 29.6562C232.521 29.6562 232.052 29.5495 231.641 29.3359C231.234 29.1224 230.891 28.8229 230.609 28.4375C230.333 28.0521 230.122 27.599 229.977 27.0781C229.831 26.5573 229.758 25.9896 229.758 25.375ZM232.008 25.2109V25.375C232.008 25.724 232.034 26.0495 232.086 26.3516C232.143 26.6536 232.234 26.9219 232.359 27.1562C232.49 27.3854 232.656 27.5651 232.859 27.6953C233.068 27.8203 233.32 27.8828 233.617 27.8828C234.003 27.8828 234.32 27.7969 234.57 27.625C234.82 27.4479 235.01 27.2057 235.141 26.8984C235.276 26.5911 235.354 26.237 235.375 25.8359V24.8125C235.359 24.4844 235.312 24.1901 235.234 23.9297C235.161 23.6641 235.052 23.4375 234.906 23.25C234.766 23.0625 234.589 22.9167 234.375 22.8125C234.167 22.7083 233.919 22.6562 233.633 22.6562C233.341 22.6562 233.091 22.724 232.883 22.8594C232.674 22.9896 232.505 23.1693 232.375 23.3984C232.25 23.6276 232.156 23.8984 232.094 24.2109C232.036 24.5182 232.008 24.8516 232.008 25.2109ZM241.5 21.0469V29.5H239.242V21.0469H241.5ZM239.102 18.8438C239.102 18.5156 239.216 18.2448 239.445 18.0312C239.674 17.8177 239.982 17.7109 240.367 17.7109C240.747 17.7109 241.052 17.8177 241.281 18.0312C241.516 18.2448 241.633 18.5156 241.633 18.8438C241.633 19.1719 241.516 19.4427 241.281 19.6562C241.052 19.8698 240.747 19.9766 240.367 19.9766C239.982 19.9766 239.674 19.8698 239.445 19.6562C239.216 19.4427 239.102 19.1719 239.102 18.8438ZM245.562 22.8516V29.5H243.312V21.0469H245.422L245.562 22.8516ZM245.234 24.9766H244.625C244.625 24.3516 244.706 23.7891 244.867 23.2891C245.029 22.7839 245.255 22.3542 245.547 22C245.839 21.6406 246.185 21.3672 246.586 21.1797C246.992 20.987 247.445 20.8906 247.945 20.8906C248.341 20.8906 248.703 20.9479 249.031 21.0625C249.359 21.1771 249.641 21.3594 249.875 21.6094C250.115 21.8594 250.297 22.1901 250.422 22.6016C250.552 23.013 250.617 23.5156 250.617 24.1094V29.5H248.352V24.1016C248.352 23.7266 248.299 23.4349 248.195 23.2266C248.091 23.0182 247.938 22.8724 247.734 22.7891C247.536 22.7005 247.292 22.6562 247 22.6562C246.698 22.6562 246.435 22.7161 246.211 22.8359C245.992 22.9557 245.81 23.1224 245.664 23.3359C245.523 23.5443 245.417 23.7891 245.344 24.0703C245.271 24.3516 245.234 24.6536 245.234 24.9766ZM256.891 27.5938V23.8281C256.891 23.5573 256.846 23.3255 256.758 23.1328C256.669 22.9349 256.531 22.7812 256.344 22.6719C256.161 22.5625 255.924 22.5078 255.633 22.5078C255.383 22.5078 255.167 22.5521 254.984 22.6406C254.802 22.724 254.661 22.8464 254.562 23.0078C254.464 23.1641 254.414 23.349 254.414 23.5625H252.164C252.164 23.2031 252.247 22.862 252.414 22.5391C252.581 22.2161 252.823 21.9323 253.141 21.6875C253.458 21.4375 253.836 21.2422 254.273 21.1016C254.716 20.9609 255.211 20.8906 255.758 20.8906C256.414 20.8906 256.997 21 257.508 21.2188C258.018 21.4375 258.419 21.7656 258.711 22.2031C259.008 22.6406 259.156 23.1875 259.156 23.8438V27.4609C259.156 27.9245 259.185 28.3047 259.242 28.6016C259.299 28.8932 259.383 29.1484 259.492 29.3672V29.5H257.219C257.109 29.2708 257.026 28.9844 256.969 28.6406C256.917 28.2917 256.891 27.9427 256.891 27.5938ZM257.188 24.3516L257.203 25.625H255.945C255.648 25.625 255.391 25.6589 255.172 25.7266C254.953 25.7943 254.773 25.8906 254.633 26.0156C254.492 26.1354 254.388 26.276 254.32 26.4375C254.258 26.599 254.227 26.776 254.227 26.9688C254.227 27.1615 254.271 27.3359 254.359 27.4922C254.448 27.6432 254.576 27.763 254.742 27.8516C254.909 27.9349 255.104 27.9766 255.328 27.9766C255.667 27.9766 255.961 27.9089 256.211 27.7734C256.461 27.638 256.654 27.4714 256.789 27.2734C256.93 27.0755 257.003 26.888 257.008 26.7109L257.602 27.6641C257.518 27.8776 257.404 28.099 257.258 28.3281C257.117 28.5573 256.938 28.7734 256.719 28.9766C256.5 29.1745 256.237 29.3385 255.93 29.4688C255.622 29.5938 255.258 29.6562 254.836 29.6562C254.299 29.6562 253.812 29.5495 253.375 29.3359C252.943 29.1172 252.599 28.8177 252.344 28.4375C252.094 28.0521 251.969 27.6146 251.969 27.125C251.969 26.6823 252.052 26.2891 252.219 25.9453C252.385 25.6016 252.63 25.3125 252.953 25.0781C253.281 24.8385 253.69 24.6589 254.18 24.5391C254.669 24.4141 255.237 24.3516 255.883 24.3516H257.188ZM265.031 21.0469V22.6406H260.109V21.0469H265.031ZM261.328 18.9609H263.578V26.9531C263.578 27.1979 263.609 27.3854 263.672 27.5156C263.74 27.6458 263.839 27.737 263.969 27.7891C264.099 27.8359 264.263 27.8594 264.461 27.8594C264.602 27.8594 264.727 27.8542 264.836 27.8438C264.951 27.8281 265.047 27.8125 265.125 27.7969L265.133 29.4531C264.94 29.5156 264.732 29.5651 264.508 29.6016C264.284 29.638 264.036 29.6562 263.766 29.6562C263.271 29.6562 262.839 29.5755 262.469 29.4141C262.104 29.2474 261.823 28.9818 261.625 28.6172C261.427 28.2526 261.328 27.7734 261.328 27.1797V18.9609ZM270.203 29.6562C269.547 29.6562 268.958 29.5521 268.438 29.3438C267.917 29.1302 267.474 28.8359 267.109 28.4609C266.75 28.0859 266.474 27.651 266.281 27.1562C266.089 26.6562 265.992 26.125 265.992 25.5625V25.25C265.992 24.6094 266.083 24.0234 266.266 23.4922C266.448 22.9609 266.708 22.5 267.047 22.1094C267.391 21.7188 267.807 21.4193 268.297 21.2109C268.786 20.9974 269.339 20.8906 269.953 20.8906C270.552 20.8906 271.083 20.9896 271.547 21.1875C272.01 21.3854 272.398 21.6667 272.711 22.0312C273.029 22.3958 273.268 22.8333 273.43 23.3438C273.591 23.849 273.672 24.4115 273.672 25.0312V25.9688H266.953V24.4688H271.461V24.2969C271.461 23.9844 271.404 23.7057 271.289 23.4609C271.18 23.2109 271.013 23.013 270.789 22.8672C270.565 22.7214 270.279 22.6484 269.93 22.6484C269.633 22.6484 269.378 22.7135 269.164 22.8438C268.951 22.974 268.776 23.1562 268.641 23.3906C268.51 23.625 268.411 23.901 268.344 24.2188C268.281 24.5312 268.25 24.875 268.25 25.25V25.5625C268.25 25.901 268.297 26.2135 268.391 26.5C268.49 26.7865 268.628 27.0339 268.805 27.2422C268.987 27.4505 269.206 27.612 269.461 27.7266C269.721 27.8411 270.016 27.8984 270.344 27.8984C270.75 27.8984 271.128 27.8203 271.477 27.6641C271.831 27.5026 272.135 27.2604 272.391 26.9375L273.484 28.125C273.307 28.3802 273.065 28.625 272.758 28.8594C272.456 29.0938 272.091 29.2865 271.664 29.4375C271.237 29.5833 270.75 29.6562 270.203 29.6562ZM279.945 27.6562V17.5H282.211V29.5H280.172L279.945 27.6562ZM274.602 25.375V25.2109C274.602 24.5651 274.674 23.9792 274.82 23.4531C274.966 22.9219 275.18 22.4661 275.461 22.0859C275.742 21.7057 276.089 21.4115 276.5 21.2031C276.911 20.9948 277.38 20.8906 277.906 20.8906C278.401 20.8906 278.833 20.9948 279.203 21.2031C279.578 21.4115 279.896 21.7083 280.156 22.0938C280.422 22.474 280.635 22.9245 280.797 23.4453C280.958 23.9609 281.076 24.526 281.148 25.1406V25.5C281.076 26.0885 280.958 26.6354 280.797 27.1406C280.635 27.6458 280.422 28.0885 280.156 28.4688C279.896 28.8438 279.578 29.1354 279.203 29.3438C278.828 29.5521 278.391 29.6562 277.891 29.6562C277.365 29.6562 276.896 29.5495 276.484 29.3359C276.078 29.1224 275.734 28.8229 275.453 28.4375C275.177 28.0521 274.966 27.599 274.82 27.0781C274.674 26.5573 274.602 25.9896 274.602 25.375ZM276.852 25.2109V25.375C276.852 25.724 276.878 26.0495 276.93 26.3516C276.987 26.6536 277.078 26.9219 277.203 27.1562C277.333 27.3854 277.5 27.5651 277.703 27.6953C277.911 27.8203 278.164 27.8828 278.461 27.8828C278.846 27.8828 279.164 27.7969 279.414 27.625C279.664 27.4479 279.854 27.2057 279.984 26.8984C280.12 26.5911 280.198 26.237 280.219 25.8359V24.8125C280.203 24.4844 280.156 24.1901 280.078 23.9297C280.005 23.6641 279.896 23.4375 279.75 23.25C279.609 23.0625 279.432 22.9167 279.219 22.8125C279.01 22.7083 278.763 22.6562 278.477 22.6562C278.185 22.6562 277.935 22.724 277.727 22.8594C277.518 22.9896 277.349 23.1693 277.219 23.3984C277.094 23.6276 277 23.8984 276.938 24.2109C276.88 24.5182 276.852 24.8516 276.852 25.2109ZM288.406 23.7344V25.5H283.992V23.7344H288.406ZM297.734 27.6719V29.5H292.008V27.6719H297.734ZM292.766 18.125V29.5H290.422V18.125H292.766ZM301.312 21.0469V29.5H299.055V21.0469H301.312ZM298.914 18.8438C298.914 18.5156 299.029 18.2448 299.258 18.0312C299.487 17.8177 299.794 17.7109 300.18 17.7109C300.56 17.7109 300.865 17.8177 301.094 18.0312C301.328 18.2448 301.445 18.5156 301.445 18.8438C301.445 19.1719 301.328 19.4427 301.094 19.6562C300.865 19.8698 300.56 19.9766 300.18 19.9766C299.794 19.9766 299.487 19.8698 299.258 19.6562C299.029 19.4427 298.914 19.1719 298.914 18.8438ZM306.047 27.8594L307.922 21.0469H310.273L307.422 29.5H306L306.047 27.8594ZM304.758 21.0469L306.641 27.8672L306.68 29.5H305.25L302.398 21.0469H304.758ZM313.656 21.0469V29.5H311.398V21.0469H313.656ZM311.258 18.8438C311.258 18.5156 311.372 18.2448 311.602 18.0312C311.831 17.8177 312.138 17.7109 312.523 17.7109C312.904 17.7109 313.208 17.8177 313.438 18.0312C313.672 18.2448 313.789 18.5156 313.789 18.8438C313.789 19.1719 313.672 19.4427 313.438 19.6562C313.208 19.8698 312.904 19.9766 312.523 19.9766C312.138 19.9766 311.831 19.8698 311.602 19.6562C311.372 19.4427 311.258 19.1719 311.258 18.8438ZM317.719 22.8516V29.5H315.469V21.0469H317.578L317.719 22.8516ZM317.391 24.9766H316.781C316.781 24.3516 316.862 23.7891 317.023 23.2891C317.185 22.7839 317.411 22.3542 317.703 22C317.995 21.6406 318.341 21.3672 318.742 21.1797C319.148 20.987 319.602 20.8906 320.102 20.8906C320.497 20.8906 320.859 20.9479 321.188 21.0625C321.516 21.1771 321.797 21.3594 322.031 21.6094C322.271 21.8594 322.453 22.1901 322.578 22.6016C322.708 23.013 322.773 23.5156 322.773 24.1094V29.5H320.508V24.1016C320.508 23.7266 320.456 23.4349 320.352 23.2266C320.247 23.0182 320.094 22.8724 319.891 22.7891C319.693 22.7005 319.448 22.6562 319.156 22.6562C318.854 22.6562 318.591 22.7161 318.367 22.8359C318.148 22.9557 317.966 23.1224 317.82 23.3359C317.68 23.5443 317.573 23.7891 317.5 24.0703C317.427 24.3516 317.391 24.6536 317.391 24.9766ZM329.836 21.0469H331.875V29.2188C331.875 29.9896 331.703 30.6432 331.359 31.1797C331.021 31.7214 330.547 32.1302 329.938 32.4062C329.328 32.6875 328.62 32.8281 327.812 32.8281C327.458 32.8281 327.083 32.7812 326.688 32.6875C326.297 32.5938 325.922 32.4479 325.562 32.25C325.208 32.0521 324.911 31.8021 324.672 31.5L325.664 30.1719C325.924 30.474 326.227 30.7083 326.57 30.875C326.914 31.0469 327.294 31.1328 327.711 31.1328C328.117 31.1328 328.461 31.0573 328.742 30.9062C329.023 30.7604 329.24 30.5443 329.391 30.2578C329.542 29.9766 329.617 29.6354 329.617 29.2344V23L329.836 21.0469ZM324.148 25.375V25.2109C324.148 24.5651 324.227 23.9792 324.383 23.4531C324.544 22.9219 324.771 22.4661 325.062 22.0859C325.359 21.7057 325.719 21.4115 326.141 21.2031C326.562 20.9948 327.039 20.8906 327.57 20.8906C328.133 20.8906 328.604 20.9948 328.984 21.2031C329.365 21.4115 329.677 21.7083 329.922 22.0938C330.167 22.474 330.357 22.9245 330.492 23.4453C330.633 23.9609 330.742 24.526 330.82 25.1406V25.5C330.742 26.0885 330.625 26.6354 330.469 27.1406C330.312 27.6458 330.107 28.0885 329.852 28.4688C329.596 28.8438 329.279 29.1354 328.898 29.3438C328.523 29.5521 328.076 29.6562 327.555 29.6562C327.034 29.6562 326.562 29.5495 326.141 29.3359C325.724 29.1224 325.367 28.8229 325.07 28.4375C324.773 28.0521 324.544 27.599 324.383 27.0781C324.227 26.5573 324.148 25.9896 324.148 25.375ZM326.398 25.2109V25.375C326.398 25.724 326.432 26.0495 326.5 26.3516C326.568 26.6536 326.672 26.9219 326.812 27.1562C326.958 27.3854 327.138 27.5651 327.352 27.6953C327.57 27.8203 327.828 27.8828 328.125 27.8828C328.536 27.8828 328.872 27.7969 329.133 27.625C329.393 27.4479 329.589 27.2057 329.719 26.8984C329.849 26.5911 329.924 26.237 329.945 25.8359V24.8125C329.935 24.4844 329.891 24.1901 329.812 23.9297C329.734 23.6641 329.625 23.4375 329.484 23.25C329.344 23.0625 329.161 22.9167 328.938 22.8125C328.714 22.7083 328.448 22.6562 328.141 22.6562C327.844 22.6562 327.586 22.724 327.367 22.8594C327.154 22.9896 326.974 23.1693 326.828 23.3984C326.688 23.6276 326.581 23.8984 326.508 24.2109C326.435 24.5182 326.398 24.8516 326.398 25.2109Z" fill="#202124"/>
<path d="M1428.89 21.4657L1424.46 21.0807L1422.73 17.0021C1422.41 16.2597 1421.35 16.2597 1421.04 17.0021L1419.31 21.0899L1414.88 21.4657C1414.07 21.5298 1413.74 22.538 1414.36 23.0696L1417.72 25.9843L1416.71 30.3103C1416.53 31.0986 1417.38 31.7218 1418.08 31.3002L1421.88 29.0088L1425.69 31.3094C1426.38 31.731 1427.23 31.1077 1427.05 30.3195L1426.04 25.9843L1429.41 23.0696C1430.02 22.538 1429.7 21.5298 1428.89 21.4657V21.4657ZM1421.88 27.2949L1418.44 29.3755L1419.35 25.4527L1416.31 22.813L1420.32 22.4647L1421.88 18.771L1423.45 22.4739L1427.46 22.8222L1424.42 25.4618L1425.34 29.3846L1421.88 27.2949Z" fill="#535353"/>
<path d="M1478.92 22.8584H1477.86V18.1448H1473.14V17.0763C1473.14 16.0472 1472.4 15.1123 1471.38 15.0102C1470.2 14.8924 1469.21 15.8115 1469.21 16.9663V18.1448H1464.51V22.7012H1465.6C1466.63 22.7012 1467.56 23.3926 1467.76 24.3982C1468.02 25.7494 1466.99 26.9435 1465.68 26.9435H1464.5V31.5H1469.06V30.4002C1469.06 29.371 1469.75 28.4361 1470.75 28.2397C1472.1 27.9805 1473.3 29.0096 1473.3 30.3216V31.5H1477.86V26.7864H1479.03C1480.19 26.7864 1481.11 25.7965 1480.99 24.6181C1480.89 23.5968 1479.94 22.8584 1478.92 22.8584V22.8584Z" fill="#535353"/>
<path d="M1508.38 20C1509.48 20 1510.38 19.1 1510.38 18C1510.38 16.9 1509.48 16 1508.38 16C1507.27 16 1506.38 16.9 1506.38 18C1506.38 19.1 1507.27 20 1508.38 20ZM1508.38 22C1507.27 22 1506.38 22.9 1506.38 24C1506.38 25.1 1507.27 26 1508.38 26C1509.48 26 1510.38 25.1 1510.38 24C1510.38 22.9 1509.48 22 1508.38 22ZM1508.38 28C1507.27 28 1506.38 28.9 1506.38 30C1506.38 31.1 1507.27 32 1508.38 32C1509.48 32 1510.38 31.1 1510.38 30C1510.38 28.9 1509.48 28 1508.38 28Z" fill="#535353"/>
</g>
<defs>
<filter id="filter0_d_1364_1212" x="0" y="0" width="1536" height="44.4" filterUnits="userSpaceOnUse" color-interpolation-filters="sRGB">
<feFlood flood-opacity="0" result="BackgroundImageFix"/>
<feColorMatrix in="SourceAlpha" type="matrix" values="0 0 0 0 0 0 0 0 0 0 0 0 0 0 0 0 0 0 127 0" result="hardAlpha"/>
<feOffset dy="0.4"/>
<feColorMatrix type="matrix" values="0 0 0 0 0.756863 0 0 0 0 0.756863 0 0 0 0 0.756863 0 0 0 1 0"/>
<feBlend mode="normal" in2="BackgroundImageFix" result="effect1_dropShadow_1364_1212"/>
<feBlend mode="normal" in="SourceGraphic" in2="effect1_dropShadow_1364_1212" result="shape"/>
</filter>
</defs>
</svg>
