<svg width="39" height="39" viewBox="0 0 39 39" fill="none" xmlns="http://www.w3.org/2000/svg">
<path d="M32.8648 8.96644L30.6408 6.27844C30.2088 5.73444 29.5528 5.39844 28.8008 5.39844H9.60078C8.84878 5.39844 8.19278 5.73444 7.74478 6.27844L5.53678 8.96644C5.07278 9.51044 4.80078 10.2304 4.80078 10.9984V30.9984C4.80078 32.7584 6.24078 34.1984 8.00078 34.1984H30.4008C32.1608 34.1984 33.6008 32.7584 33.6008 30.9984V10.9984C33.6008 10.2304 33.3288 9.51044 32.8648 8.96644ZM9.98478 8.59844H28.4168L29.7448 10.1984H8.67278L9.98478 8.59844ZM8.00078 30.9984V13.3984H30.4008V30.9984H8.00078ZM25.6008 22.1984L19.2008 28.5984L12.8008 22.1984L15.0568 19.9424L17.6008 22.4704V16.5984H20.8008V22.4704L23.3448 19.9264L25.6008 22.1984Z" fill="#5F6368"/>
</svg>
