<svg width="26" height="26" viewBox="0 0 26 26" fill="none" xmlns="http://www.w3.org/2000/svg">
<g clip-path="url(#clip0_1227_929)">
<path d="M18.1328 0H7.46615C4.52535 0 2.13281 2.39253 2.13281 5.33333V21.3333C2.13281 23.6864 4.04641 25.6 6.39948 25.6H18.1328C21.0736 25.6 23.4661 23.2075 23.4661 20.2667V5.33333C23.4661 2.39253 21.0736 0 18.1328 0ZM21.3328 5.33333V17.0667H8.53281V2.13333H12.7995V11.0368C12.7995 11.7013 13.6432 11.9861 14.0464 11.4581L15.4661 9.59893L16.8859 11.4581C17.2891 11.9861 18.1328 11.7013 18.1328 11.0368V2.13333C19.8971 2.13333 21.3328 3.56907 21.3328 5.33333ZM6.39948 2.3296V17.0667C5.61868 17.0667 4.89655 17.2928 4.26615 17.6597V5.33333C4.26615 3.94453 5.16108 2.7712 6.39948 2.3296ZM18.1328 23.4667H6.39948C3.59521 23.4165 3.59735 19.2491 6.39948 19.2H21.3328V20.2667C21.3328 22.0309 19.8971 23.4667 18.1328 23.4667Z" fill="#5F6368"/>
</g>
<defs>
<clipPath id="clip0_1227_929">
<rect width="25.6" height="25.6" fill="white"/>
</clipPath>
</defs>
</svg>
