<svg width="1536" height="52" viewBox="0 0 1536 52" fill="none" xmlns="http://www.w3.org/2000/svg">
<g filter="url(#filter0_i_1364_1236)">
<rect width="1536" height="51.2" fill="white"/>
<path d="M21.6016 30.4008H36.0016V28.8008H21.6016V30.4008ZM21.6016 26.4008H36.0016V24.8008H21.6016V26.4008ZM21.6016 20.8008V22.4008H36.0016V20.8008H21.6016Z" fill="#5F6368"/>
<g clip-path="url(#clip0_1364_1236)">
<g clip-path="url(#clip1_1364_1236)">
<path d="M61.9945 31.5713C60.7376 30.4103 59.7789 28.9636 59.1996 27.3537C58.6202 25.7437 58.4372 24.0179 58.666 22.3222C58.8923 20.6029 59.5321 18.964 60.5306 17.5462C61.5291 16.1283 62.8565 14.9737 64.399 14.1813C65.9416 13.3888 67.6533 12.9823 69.3874 12.9965C71.1215 13.0106 72.8264 13.445 74.3558 14.2625C75.8852 15.08 77.1936 16.2561 78.1688 17.6901C79.1441 19.1241 79.757 20.7731 79.9552 22.496C80.1534 24.2188 79.9309 25.964 79.3067 27.5819C78.6826 29.1999 77.6754 30.6424 76.3716 31.7858C75.532 32.5076 74.8801 33.4224 74.4719 34.4517H70.4939V25.8903C71.1886 25.6447 71.7904 25.1905 72.2171 24.5898C72.6437 23.989 72.8744 23.2712 72.8774 22.5344C72.8774 22.2183 72.7519 21.9152 72.5284 21.6917C72.3049 21.4682 72.0017 21.3426 71.6857 21.3426C71.3696 21.3426 71.0665 21.4682 70.843 21.6917C70.6195 21.9152 70.4939 22.2183 70.4939 22.5344C70.4939 22.8504 70.3684 23.1536 70.1449 23.3771C69.9214 23.6005 69.6183 23.7261 69.3022 23.7261C68.9861 23.7261 68.683 23.6005 68.4595 23.3771C68.236 23.1536 68.1105 22.8504 68.1105 22.5344C68.1105 22.2183 67.9849 21.9152 67.7614 21.6917C67.5379 21.4682 67.2348 21.3426 66.9188 21.3426C66.6027 21.3426 66.2996 21.4682 66.0761 21.6917C65.8526 21.9152 65.727 22.2183 65.727 22.5344C65.7301 23.2712 65.9607 23.989 66.3873 24.5898C66.814 25.1905 67.4158 25.6447 68.1105 25.8903V34.4517H64.0145C63.5589 33.3559 62.8695 32.3729 61.9945 31.5713ZM64.5353 36.8352V37.2046C64.5365 38.3705 65.0003 39.4883 65.8247 40.3127C66.6491 41.1371 67.7669 41.6008 68.9328 41.6021H69.6717C70.8376 41.6008 71.9553 41.1371 72.7798 40.3127C73.6042 39.4883 74.0679 38.3705 74.0691 37.2046V36.8352H64.5353Z" fill="#35B2C2"/>
</g>
<g clip-path="url(#clip2_1364_1236)">
<path d="M91.3295 32V19.8937H96.6973C97.7763 19.8937 98.5966 20.0038 99.1582 20.224C99.7197 20.4387 100.168 20.8213 100.504 21.3719C100.84 21.9224 101.008 22.5308 101.008 23.1969C101.008 24.0557 100.73 24.7797 100.174 25.3688C99.6179 25.9579 98.759 26.3322 97.5974 26.4919C98.0213 26.6956 98.3434 26.8965 98.5636 27.0947C99.0316 27.5241 99.4747 28.0609 99.8932 28.705L101.999 32H99.984L98.3819 29.4813C97.914 28.7546 97.5286 28.1985 97.2258 27.8132C96.923 27.4278 96.6505 27.158 96.4083 27.0039C96.1715 26.8497 95.9293 26.7424 95.6815 26.6818C95.4999 26.6433 95.2026 26.624 94.7897 26.624H92.9316V32H91.3295ZM92.9316 25.2367H96.3752C97.1074 25.2367 97.68 25.1623 98.0929 25.0137C98.5058 24.8595 98.8196 24.6173 99.0343 24.287C99.249 23.9511 99.3564 23.5878 99.3564 23.1969C99.3564 22.6244 99.1472 22.1536 98.7288 21.7848C98.3159 21.4159 97.6607 21.2315 96.7633 21.2315H92.9316V25.2367ZM109.34 29.1757L110.876 29.3657C110.634 30.2631 110.185 30.9595 109.53 31.455C108.875 31.9505 108.038 32.1982 107.02 32.1982C105.737 32.1982 104.719 31.8046 103.964 31.0173C103.216 30.2245 102.841 29.1152 102.841 27.6893C102.841 26.2139 103.221 25.0687 103.981 24.2539C104.741 23.4391 105.726 23.0318 106.937 23.0318C108.11 23.0318 109.068 23.4309 109.811 24.2292C110.554 25.0274 110.926 26.1505 110.926 27.5985C110.926 27.6865 110.923 27.8187 110.918 27.9948H104.377C104.432 28.9583 104.705 29.696 105.195 30.208C105.685 30.72 106.296 30.976 107.028 30.976C107.573 30.976 108.038 30.8329 108.424 30.5466C108.809 30.2603 109.115 29.8034 109.34 29.1757ZM104.46 26.7727H109.357C109.291 26.0349 109.104 25.4816 108.795 25.1128C108.322 24.5402 107.708 24.2539 106.954 24.2539C106.271 24.2539 105.696 24.4824 105.228 24.9394C104.765 25.3963 104.509 26.0074 104.46 26.7727ZM112.156 29.3822L113.626 29.151C113.709 29.74 113.937 30.1915 114.312 30.5053C114.692 30.8191 115.22 30.976 115.897 30.976C116.58 30.976 117.086 30.8384 117.417 30.5631C117.747 30.2823 117.912 29.9548 117.912 29.5804C117.912 29.2446 117.766 28.9803 117.475 28.7876C117.271 28.6555 116.764 28.4876 115.955 28.2839C114.865 28.0086 114.108 27.7719 113.684 27.5737C113.266 27.37 112.946 27.092 112.726 26.7396C112.511 26.3818 112.404 25.9881 112.404 25.5587C112.404 25.1678 112.492 24.8072 112.668 24.4769C112.85 24.1411 113.095 23.8631 113.403 23.6428C113.635 23.4722 113.948 23.329 114.345 23.2134C114.747 23.0923 115.176 23.0318 115.633 23.0318C116.321 23.0318 116.924 23.1308 117.442 23.329C117.965 23.5272 118.35 23.797 118.598 24.1383C118.845 24.4742 119.016 24.9256 119.11 25.4927L117.656 25.6908C117.59 25.2394 117.397 24.8871 117.078 24.6338C116.764 24.3806 116.318 24.2539 115.74 24.2539C115.058 24.2539 114.57 24.3668 114.279 24.5925C113.987 24.8182 113.841 25.0825 113.841 25.3853C113.841 25.578 113.902 25.7514 114.023 25.9056C114.144 26.0652 114.334 26.1973 114.592 26.3019C114.741 26.357 115.179 26.4836 115.906 26.6818C116.957 26.9626 117.689 27.1938 118.102 27.3755C118.521 27.5517 118.848 27.8104 119.085 28.1517C119.322 28.4931 119.44 28.917 119.44 29.4235C119.44 29.919 119.294 30.3869 119.002 30.8274C118.716 31.2623 118.3 31.6009 117.755 31.8431C117.21 32.0798 116.594 32.1982 115.906 32.1982C114.766 32.1982 113.896 31.9615 113.296 31.488C112.701 31.0145 112.322 30.3126 112.156 29.3822ZM120.654 27.615C120.654 25.9909 121.105 24.788 122.008 24.0062C122.762 23.3566 123.682 23.0318 124.766 23.0318C125.972 23.0318 126.958 23.4281 127.723 24.2209C128.488 25.0082 128.871 26.0982 128.871 27.4911C128.871 28.6197 128.7 29.5088 128.359 30.1585C128.023 30.8026 127.53 31.3036 126.88 31.6614C126.236 32.0193 125.532 32.1982 124.766 32.1982C123.539 32.1982 122.545 31.8046 121.785 31.0173C121.031 30.23 120.654 29.0959 120.654 27.615ZM122.182 27.615C122.182 28.7381 122.427 29.5804 122.917 30.1419C123.407 30.698 124.023 30.976 124.766 30.976C125.504 30.976 126.118 30.6952 126.608 30.1337C127.098 29.5721 127.343 28.716 127.343 27.5654C127.343 26.4809 127.095 25.6606 126.6 25.1045C126.11 24.543 125.499 24.2622 124.766 24.2622C124.023 24.2622 123.407 24.5402 122.917 25.0963C122.427 25.6523 122.182 26.4919 122.182 27.615ZM136.369 32V30.7117C135.686 31.7027 134.759 32.1982 133.586 32.1982C133.069 32.1982 132.584 32.0991 132.133 31.9009C131.687 31.7027 131.354 31.455 131.133 31.1577C130.919 30.8549 130.767 30.486 130.679 30.0511C130.619 29.7593 130.588 29.2969 130.588 28.6637V23.2299H132.075V28.0939C132.075 28.8702 132.105 29.3932 132.166 29.663C132.259 30.0539 132.457 30.3622 132.76 30.5879C133.063 30.8081 133.437 30.9182 133.883 30.9182C134.329 30.9182 134.748 30.8053 135.139 30.5796C135.529 30.3484 135.805 30.0373 135.964 29.6465C136.13 29.2501 136.212 28.6775 136.212 27.9288V23.2299H137.699V32H136.369ZM140.019 32V23.2299H141.357V24.5595C141.698 23.9374 142.012 23.5272 142.298 23.329C142.59 23.1308 142.909 23.0318 143.256 23.0318C143.757 23.0318 144.266 23.1914 144.784 23.5107L144.272 24.8898C143.909 24.6751 143.545 24.5677 143.182 24.5677C142.857 24.5677 142.565 24.6668 142.307 24.865C142.048 25.0577 141.863 25.3275 141.753 25.6743C141.588 26.2028 141.505 26.7809 141.505 27.4085V32H140.019ZM151.39 28.7876L152.852 28.9776C152.692 29.985 152.282 30.7751 151.622 31.3476C150.966 31.9147 150.16 32.1982 149.202 32.1982C148.002 32.1982 147.036 31.8073 146.303 31.0255C145.577 30.2383 145.213 29.1124 145.213 27.648C145.213 26.7011 145.37 25.8725 145.684 25.1623C145.998 24.4521 146.474 23.9209 147.113 23.5685C147.757 23.2107 148.456 23.0318 149.21 23.0318C150.163 23.0318 150.942 23.274 151.547 23.7585C152.153 24.2374 152.541 24.9201 152.712 25.8065L151.267 26.0294C151.129 25.4404 150.884 24.9972 150.532 24.6999C150.185 24.4026 149.764 24.2539 149.268 24.2539C148.519 24.2539 147.911 24.5237 147.443 25.0632C146.975 25.5973 146.741 26.4451 146.741 27.6067C146.741 28.7849 146.967 29.6409 147.418 30.175C147.87 30.709 148.459 30.976 149.185 30.976C149.769 30.976 150.256 30.7971 150.647 30.4392C151.038 30.0814 151.286 29.5308 151.39 28.7876ZM160.127 29.1757L161.663 29.3657C161.421 30.2631 160.972 30.9595 160.317 31.455C159.662 31.9505 158.825 32.1982 157.807 32.1982C156.524 32.1982 155.506 31.8046 154.751 31.0173C154.003 30.2245 153.628 29.1152 153.628 27.6893C153.628 26.2139 154.008 25.0687 154.768 24.2539C155.528 23.4391 156.513 23.0318 157.724 23.0318C158.897 23.0318 159.855 23.4309 160.598 24.2292C161.341 25.0274 161.713 26.1505 161.713 27.5985C161.713 27.6865 161.71 27.8187 161.705 27.9948H155.164C155.219 28.9583 155.492 29.696 155.982 30.208C156.472 30.72 157.083 30.976 157.815 30.976C158.36 30.976 158.825 30.8329 159.211 30.5466C159.596 30.2603 159.902 29.8034 160.127 29.1757ZM155.247 26.7727H160.144C160.078 26.0349 159.891 25.4816 159.582 25.1128C159.109 24.5402 158.495 24.2539 157.741 24.2539C157.058 24.2539 156.483 24.4824 156.015 24.9394C155.552 25.3963 155.296 26.0074 155.247 26.7727ZM162.943 29.3822L164.413 29.151C164.496 29.74 164.724 30.1915 165.099 30.5053C165.479 30.8191 166.007 30.976 166.684 30.976C167.367 30.976 167.873 30.8384 168.204 30.5631C168.534 30.2823 168.699 29.9548 168.699 29.5804C168.699 29.2446 168.553 28.9803 168.262 28.7876C168.058 28.6555 167.551 28.4876 166.742 28.2839C165.652 28.0086 164.895 27.7719 164.471 27.5737C164.053 27.37 163.733 27.092 163.513 26.7396C163.299 26.3818 163.191 25.9881 163.191 25.5587C163.191 25.1678 163.279 24.8072 163.455 24.4769C163.637 24.1411 163.882 23.8631 164.19 23.6428C164.422 23.4722 164.735 23.329 165.132 23.2134C165.534 23.0923 165.963 23.0318 166.42 23.0318C167.108 23.0318 167.711 23.1308 168.229 23.329C168.752 23.5272 169.137 23.797 169.385 24.1383C169.632 24.4742 169.803 24.9256 169.897 25.4927L168.443 25.6908C168.377 25.2394 168.185 24.8871 167.865 24.6338C167.551 24.3806 167.105 24.2539 166.527 24.2539C165.845 24.2539 165.358 24.3668 165.066 24.5925C164.774 24.8182 164.628 25.0825 164.628 25.3853C164.628 25.578 164.689 25.7514 164.81 25.9056C164.931 26.0652 165.121 26.1973 165.38 26.3019C165.528 26.357 165.966 26.4836 166.693 26.6818C167.744 26.9626 168.476 27.1938 168.889 27.3755C169.308 27.5517 169.635 27.8104 169.872 28.1517C170.109 28.4931 170.227 28.917 170.227 29.4235C170.227 29.919 170.081 30.3869 169.789 30.8274C169.503 31.2623 169.087 31.6009 168.542 31.8431C167.997 32.0798 167.381 32.1982 166.693 32.1982C165.553 32.1982 164.683 31.9615 164.083 31.488C163.488 31.0145 163.109 30.3126 162.943 29.3822Z" fill="#5F6368"/>
</g>
</g>
<rect x="200" y="6.39844" width="577.6" height="38.4" rx="6.4" fill="#F1F3F4"/>
<g clip-path="url(#clip3_1364_1236)">
<path d="M251.508 27.2977C251.508 27.0852 251.474 26.8977 251.408 26.7352C251.345 26.5685 251.233 26.4185 251.07 26.2852C250.912 26.1518 250.691 26.0247 250.408 25.9039C250.129 25.7831 249.774 25.6602 249.345 25.5352C248.895 25.4018 248.489 25.2539 248.127 25.0914C247.764 24.9247 247.454 24.7352 247.195 24.5227C246.937 24.3102 246.739 24.0664 246.602 23.7914C246.464 23.5164 246.395 23.2018 246.395 22.8477C246.395 22.4935 246.468 22.1664 246.614 21.8664C246.76 21.5664 246.968 21.306 247.239 21.0852C247.514 20.8602 247.841 20.6852 248.22 20.5602C248.599 20.4352 249.022 20.3727 249.489 20.3727C250.172 20.3727 250.752 20.5039 251.227 20.7664C251.706 21.0247 252.07 21.3643 252.32 21.7852C252.57 22.2018 252.695 22.6477 252.695 23.1227H251.495C251.495 22.781 251.422 22.4789 251.277 22.2164C251.131 21.9497 250.91 21.7414 250.614 21.5914C250.318 21.4372 249.943 21.3602 249.489 21.3602C249.06 21.3602 248.706 21.4247 248.427 21.5539C248.147 21.6831 247.939 21.8581 247.802 22.0789C247.668 22.2997 247.602 22.5518 247.602 22.8352C247.602 23.0268 247.641 23.2018 247.72 23.3602C247.804 23.5143 247.931 23.6581 248.102 23.7914C248.277 23.9247 248.497 24.0477 248.764 24.1602C249.035 24.2727 249.358 24.381 249.733 24.4852C250.249 24.631 250.695 24.7935 251.07 24.9727C251.445 25.1518 251.754 25.3539 251.995 25.5789C252.241 25.7997 252.422 26.0518 252.539 26.3352C252.66 26.6143 252.72 26.931 252.72 27.2852C252.72 27.656 252.645 27.9914 252.495 28.2914C252.345 28.5914 252.131 28.8477 251.852 29.0602C251.572 29.2727 251.237 29.4372 250.845 29.5539C250.458 29.6664 250.024 29.7227 249.545 29.7227C249.124 29.7227 248.71 29.6643 248.302 29.5477C247.897 29.431 247.529 29.256 247.195 29.0227C246.866 28.7893 246.602 28.5018 246.402 28.1602C246.206 27.8143 246.108 27.4143 246.108 26.9602H247.308C247.308 27.2727 247.368 27.5414 247.489 27.7664C247.61 27.9872 247.774 28.1706 247.983 28.3164C248.195 28.4622 248.435 28.5706 248.702 28.6414C248.972 28.7081 249.254 28.7414 249.545 28.7414C249.966 28.7414 250.322 28.6831 250.614 28.5664C250.906 28.4497 251.127 28.2831 251.277 28.0664C251.431 27.8497 251.508 27.5935 251.508 27.2977ZM256.889 29.7227C256.418 29.7227 255.991 29.6435 255.608 29.4852C255.229 29.3227 254.902 29.0956 254.627 28.8039C254.356 28.5122 254.147 28.1664 254.002 27.7664C253.856 27.3664 253.783 26.9289 253.783 26.4539V26.1914C253.783 25.6414 253.864 25.1518 254.027 24.7227C254.189 24.2893 254.41 23.9227 254.689 23.6227C254.968 23.3227 255.285 23.0956 255.639 22.9414C255.993 22.7872 256.36 22.7102 256.739 22.7102C257.222 22.7102 257.639 22.7935 257.989 22.9602C258.343 23.1268 258.633 23.3602 258.858 23.6602C259.083 23.956 259.249 24.306 259.358 24.7102C259.466 25.1102 259.52 25.5477 259.52 26.0227V26.5414H254.47V25.5977H258.364V25.5102C258.347 25.2102 258.285 24.9185 258.177 24.6352C258.072 24.3518 257.906 24.1185 257.677 23.9352C257.447 23.7518 257.135 23.6602 256.739 23.6602C256.477 23.6602 256.235 23.7164 256.014 23.8289C255.793 23.9372 255.604 24.0997 255.445 24.3164C255.287 24.5331 255.164 24.7977 255.077 25.1102C254.989 25.4227 254.945 25.7831 254.945 26.1914V26.4539C254.945 26.7747 254.989 27.0768 255.077 27.3602C255.168 27.6393 255.299 27.8852 255.47 28.0977C255.645 28.3102 255.856 28.4768 256.102 28.5977C256.352 28.7185 256.635 28.7789 256.952 28.7789C257.36 28.7789 257.706 28.6956 257.989 28.5289C258.272 28.3622 258.52 28.1393 258.733 27.8602L259.433 28.4164C259.287 28.6372 259.102 28.8477 258.877 29.0477C258.652 29.2477 258.374 29.4102 258.045 29.5352C257.72 29.6602 257.335 29.7227 256.889 29.7227ZM264.858 28.4414V24.9602C264.858 24.6935 264.804 24.4622 264.695 24.2664C264.591 24.0664 264.433 23.9122 264.22 23.8039C264.008 23.6956 263.745 23.6414 263.433 23.6414C263.141 23.6414 262.885 23.6914 262.664 23.7914C262.447 23.8914 262.277 24.0227 262.152 24.1852C262.031 24.3477 261.97 24.5227 261.97 24.7102H260.814C260.814 24.4685 260.877 24.2289 261.002 23.9914C261.127 23.7539 261.306 23.5393 261.539 23.3477C261.777 23.1518 262.06 22.9977 262.389 22.8852C262.722 22.7685 263.093 22.7102 263.502 22.7102C263.993 22.7102 264.427 22.7935 264.802 22.9602C265.181 23.1268 265.477 23.3789 265.689 23.7164C265.906 24.0497 266.014 24.4685 266.014 24.9727V28.1227C266.014 28.3477 266.033 28.5872 266.07 28.8414C266.112 29.0956 266.172 29.3143 266.252 29.4977V29.5977H265.045C264.987 29.4643 264.941 29.2872 264.908 29.0664C264.874 28.8414 264.858 28.6331 264.858 28.4414ZM265.058 25.4977L265.07 26.3102H263.902C263.572 26.3102 263.279 26.3372 263.02 26.3914C262.762 26.4414 262.545 26.5185 262.37 26.6227C262.195 26.7268 262.062 26.8581 261.97 27.0164C261.879 27.1706 261.833 27.3518 261.833 27.5602C261.833 27.7727 261.881 27.9664 261.977 28.1414C262.072 28.3164 262.216 28.456 262.408 28.5602C262.604 28.6602 262.843 28.7102 263.127 28.7102C263.481 28.7102 263.793 28.6352 264.064 28.4852C264.335 28.3352 264.549 28.1518 264.708 27.9352C264.87 27.7185 264.958 27.5081 264.97 27.3039L265.464 27.8602C265.435 28.0352 265.356 28.2289 265.227 28.4414C265.097 28.6539 264.924 28.8581 264.708 29.0539C264.495 29.2456 264.241 29.406 263.945 29.5352C263.654 29.6602 263.324 29.7227 262.958 29.7227C262.499 29.7227 262.097 29.6331 261.752 29.4539C261.41 29.2747 261.143 29.0352 260.952 28.7352C260.764 28.431 260.67 28.0914 260.67 27.7164C260.67 27.3539 260.741 27.0352 260.883 26.7602C261.024 26.481 261.229 26.2497 261.495 26.0664C261.762 25.8789 262.083 25.7372 262.458 25.6414C262.833 25.5456 263.252 25.4977 263.714 25.4977H265.058ZM268.989 23.8977V29.5977H267.833V22.8352H268.958L268.989 23.8977ZM271.102 22.7977L271.095 23.8727C270.999 23.8518 270.908 23.8393 270.82 23.8352C270.737 23.8268 270.641 23.8227 270.533 23.8227C270.266 23.8227 270.031 23.8643 269.827 23.9477C269.622 24.031 269.449 24.1477 269.308 24.2977C269.166 24.4477 269.054 24.6268 268.97 24.8352C268.891 25.0393 268.839 25.2643 268.814 25.5102L268.489 25.6977C268.489 25.2893 268.529 24.906 268.608 24.5477C268.691 24.1893 268.818 23.8727 268.989 23.5977C269.16 23.3185 269.377 23.1018 269.639 22.9477C269.906 22.7893 270.222 22.7102 270.589 22.7102C270.672 22.7102 270.768 22.7206 270.877 22.7414C270.985 22.7581 271.06 22.7768 271.102 22.7977ZM274.752 28.7727C275.027 28.7727 275.281 28.7164 275.514 28.6039C275.747 28.4914 275.939 28.3372 276.089 28.1414C276.239 27.9414 276.324 27.7143 276.345 27.4602H277.445C277.424 27.8602 277.289 28.2331 277.039 28.5789C276.793 28.9206 276.47 29.1977 276.07 29.4102C275.67 29.6185 275.231 29.7227 274.752 29.7227C274.243 29.7227 273.799 29.6331 273.42 29.4539C273.045 29.2747 272.733 29.0289 272.483 28.7164C272.237 28.4039 272.052 28.0456 271.927 27.6414C271.806 27.2331 271.745 26.8018 271.745 26.3477V26.0852C271.745 25.631 271.806 25.2018 271.927 24.7977C272.052 24.3893 272.237 24.0289 272.483 23.7164C272.733 23.4039 273.045 23.1581 273.42 22.9789C273.799 22.7997 274.243 22.7102 274.752 22.7102C275.281 22.7102 275.743 22.8185 276.139 23.0352C276.535 23.2477 276.845 23.5393 277.07 23.9102C277.299 24.2768 277.424 24.6935 277.445 25.1602H276.345C276.324 24.881 276.245 24.6289 276.108 24.4039C275.974 24.1789 275.791 23.9997 275.558 23.8664C275.329 23.7289 275.06 23.6602 274.752 23.6602C274.397 23.6602 274.099 23.731 273.858 23.8727C273.62 24.0102 273.431 24.1977 273.289 24.4352C273.152 24.6685 273.052 24.9289 272.989 25.2164C272.931 25.4997 272.902 25.7893 272.902 26.0852V26.3477C272.902 26.6435 272.931 26.9352 272.989 27.2227C273.047 27.5102 273.145 27.7706 273.283 28.0039C273.424 28.2372 273.614 28.4247 273.852 28.5664C274.093 28.7039 274.393 28.7727 274.752 28.7727ZM279.902 19.9977V29.5977H278.745V19.9977H279.902ZM279.627 25.9602L279.145 25.9414C279.149 25.4789 279.218 25.0518 279.352 24.6602C279.485 24.2643 279.672 23.9206 279.914 23.6289C280.156 23.3372 280.443 23.1122 280.777 22.9539C281.114 22.7914 281.487 22.7102 281.895 22.7102C282.229 22.7102 282.529 22.756 282.795 22.8477C283.062 22.9352 283.289 23.0768 283.477 23.2727C283.668 23.4685 283.814 23.7227 283.914 24.0352C284.014 24.3435 284.064 24.7206 284.064 25.1664V29.5977H282.902V25.1539C282.902 24.7997 282.849 24.5164 282.745 24.3039C282.641 24.0872 282.489 23.931 282.289 23.8352C282.089 23.7352 281.843 23.6852 281.552 23.6852C281.264 23.6852 281.002 23.7456 280.764 23.8664C280.531 23.9872 280.329 24.1539 280.158 24.3664C279.991 24.5789 279.86 24.8227 279.764 25.0977C279.672 25.3685 279.627 25.656 279.627 25.9602Z" fill="black" fill-opacity="0.54"/>
</g>
<g clip-path="url(#clip4_1364_1236)">
<path d="M234.519 34.931L226.879 27.291C227.906 25.8643 228.533 24.1443 228.533 22.2643C228.533 17.4777 224.653 13.5977 219.866 13.5977C215.079 13.5977 211.199 17.4777 211.199 22.2643C211.199 27.051 215.079 30.931 219.866 30.931C221.746 30.931 223.466 30.3043 224.893 29.2777L232.533 36.9177L234.519 34.931ZM213.866 22.2643C213.866 18.9443 216.546 16.2643 219.866 16.2643C223.186 16.2643 225.866 18.9443 225.866 22.2643C225.866 25.5843 223.186 28.2643 219.866 28.2643C216.546 28.2643 213.866 25.5843 213.866 22.2643Z" fill="#5F6368"/>
</g>
<g clip-path="url(#clip5_1364_1236)">
<g opacity="0.54">
<path d="M1335.2 23.1992V24.7992H1340.8V19.1992H1339.2V21.3912C1338.02 20.0552 1336.32 19.1992 1334.4 19.1992C1332.63 19.1992 1331.03 19.9192 1329.87 21.0712C1328.71 22.2232 1328 23.8312 1328 25.5992C1328 29.1352 1330.86 31.9992 1334.4 31.9992C1336.17 31.9992 1337.77 31.2792 1338.93 30.1272L1337.79 28.9912C1337.35 29.4378 1336.82 29.7921 1336.24 30.0337C1335.65 30.2753 1335.03 30.3995 1334.4 30.3992C1331.75 30.3992 1329.6 28.2472 1329.6 25.5992C1329.6 24.2792 1330.14 23.0792 1331.01 22.2072C1331.45 21.7607 1331.98 21.4064 1332.56 21.1648C1333.15 20.9231 1333.77 20.7989 1334.4 20.7992C1335.24 20.8009 1336.07 21.0234 1336.8 21.4446C1337.53 21.8658 1338.13 22.4708 1338.55 23.1992H1335.2Z" fill="black"/>
</g>
</g>
<g opacity="0.54">
<g clip-path="url(#clip6_1364_1236)">
<path d="M1379.2 23.1984H1366.4V19.9984H1379.2V23.1984ZM1379.2 31.1984H1366.4V27.9984H1379.2V31.1984ZM1365.6 18.3984C1365.16 18.3984 1364.8 18.7584 1364.8 19.1984V23.9984C1364.8 24.4384 1365.16 24.7984 1365.6 24.7984H1380C1380.44 24.7984 1380.8 24.4384 1380.8 23.9984V19.1984C1380.8 18.7584 1380.44 18.3984 1380 18.3984H1365.6ZM1365.6 26.3984C1365.16 26.3984 1364.8 26.7584 1364.8 27.1984V31.9984C1364.8 32.4384 1365.16 32.7984 1365.6 32.7984H1380C1380.44 32.7984 1380.8 32.4384 1380.8 31.9984V27.1984C1380.8 26.7584 1380.44 26.3984 1380 26.3984H1365.6Z" fill="black"/>
</g>
</g>
<g opacity="0.54">
<path d="M1412.68 33.8022H1409.72C1409.13 33.8022 1408.63 33.3702 1408.56 32.7862L1408.34 31.2742C1408.13 31.1622 1407.92 31.0422 1407.71 30.9062L1406.27 31.4822C1405.71 31.6902 1405.1 31.4582 1404.82 30.9622L1403.36 28.4262C1403.08 27.8982 1403.2 27.2742 1403.65 26.9222L1404.87 25.9702C1404.86 25.8502 1404.86 25.7302 1404.86 25.6022C1404.86 25.4822 1404.86 25.3542 1404.87 25.2342L1403.66 24.2822C1403.18 23.9222 1403.06 23.2742 1403.36 22.7782L1404.84 20.2262C1405.11 19.7302 1405.73 19.5062 1406.27 19.7222L1407.72 20.3062C1407.93 20.1702 1408.14 20.0502 1408.34 19.9382L1408.56 18.4102C1408.63 17.8502 1409.13 17.4102 1409.71 17.4102H1412.67C1413.26 17.4102 1413.76 17.8422 1413.83 18.4262L1414.05 19.9382C1414.26 20.0502 1414.47 20.1702 1414.68 20.3062L1416.12 19.7302C1416.69 19.5222 1417.3 19.7542 1417.58 20.2502L1419.05 22.7942C1419.34 23.3222 1419.21 23.9462 1418.76 24.2982L1417.54 25.2502C1417.55 25.3702 1417.56 25.4902 1417.56 25.6182C1417.56 25.7462 1417.55 25.8662 1417.54 25.9862L1418.76 26.9382C1419.21 27.2982 1419.34 27.9222 1419.06 28.4262L1417.57 31.0022C1417.3 31.4982 1416.68 31.7222 1416.13 31.5062L1414.69 30.9302C1414.48 31.0662 1414.27 31.1862 1414.06 31.2982L1413.85 32.8262C1413.77 33.3702 1413.27 33.8022 1412.68 33.8022ZM1410.1 32.2022H1412.3L1412.6 30.1622L1413.02 29.9862C1413.38 29.8422 1413.73 29.6342 1414.1 29.3622L1414.46 29.0902L1416.36 29.8582L1417.46 27.9382L1415.84 26.6742L1415.9 26.2262C1415.92 26.0182 1415.94 25.8182 1415.94 25.6022C1415.94 25.3862 1415.92 25.1782 1415.9 24.9782L1415.84 24.5302L1417.46 23.2662L1416.35 21.3462L1414.44 22.1142L1414.08 21.8342C1413.74 21.5782 1413.38 21.3702 1413.02 21.2182L1412.6 21.0422L1412.3 19.0022H1410.1L1409.8 21.0422L1409.38 21.2102C1409.02 21.3622 1408.67 21.5622 1408.3 21.8422L1407.94 22.1062L1406.04 21.3462L1404.93 23.2582L1406.55 24.5222L1406.5 24.9702C1406.47 25.1797 1406.45 25.3908 1406.45 25.6022C1406.45 25.8102 1406.46 26.0262 1406.5 26.2262L1406.55 26.6742L1404.93 27.9382L1406.03 29.8582L1407.94 29.0902L1408.3 29.3702C1408.65 29.6342 1408.99 29.8342 1409.37 29.9862L1409.79 30.1622L1410.1 32.2022Z" fill="black"/>
<path d="M1411.2 28.4008C1412.74 28.4008 1414 27.1472 1414 25.6008C1414 24.0544 1412.74 22.8008 1411.2 22.8008C1409.65 22.8008 1408.4 24.0544 1408.4 25.6008C1408.4 27.1472 1409.65 28.4008 1411.2 28.4008Z" fill="black"/>
</g>
<path d="M1465.6 22.3992C1466.48 22.3992 1467.2 21.6792 1467.2 20.7992C1467.2 19.9192 1466.48 19.1992 1465.6 19.1992C1464.72 19.1992 1464 19.9192 1464 20.7992C1464 21.6792 1464.72 22.3992 1465.6 22.3992ZM1470.4 31.9992C1471.28 31.9992 1472 31.2792 1472 30.3992C1472 29.5192 1471.28 28.7992 1470.4 28.7992C1469.52 28.7992 1468.8 29.5192 1468.8 30.3992C1468.8 31.2792 1469.52 31.9992 1470.4 31.9992ZM1465.6 31.9992C1466.48 31.9992 1467.2 31.2792 1467.2 30.3992C1467.2 29.5192 1466.48 28.7992 1465.6 28.7992C1464.72 28.7992 1464 29.5192 1464 30.3992C1464 31.2792 1464.72 31.9992 1465.6 31.9992ZM1465.6 27.1992C1466.48 27.1992 1467.2 26.4792 1467.2 25.5992C1467.2 24.7192 1466.48 23.9992 1465.6 23.9992C1464.72 23.9992 1464 24.7192 1464 25.5992C1464 26.4792 1464.72 27.1992 1465.6 27.1992ZM1470.4 27.1992C1471.28 27.1992 1472 26.4792 1472 25.5992C1472 24.7192 1471.28 23.9992 1470.4 23.9992C1469.52 23.9992 1468.8 24.7192 1468.8 25.5992C1468.8 26.4792 1469.52 27.1992 1470.4 27.1992ZM1473.6 20.7992C1473.6 21.6792 1474.32 22.3992 1475.2 22.3992C1476.08 22.3992 1476.8 21.6792 1476.8 20.7992C1476.8 19.9192 1476.08 19.1992 1475.2 19.1992C1474.32 19.1992 1473.6 19.9192 1473.6 20.7992ZM1470.4 22.3992C1471.28 22.3992 1472 21.6792 1472 20.7992C1472 19.9192 1471.28 19.1992 1470.4 19.1992C1469.52 19.1992 1468.8 19.9192 1468.8 20.7992C1468.8 21.6792 1469.52 22.3992 1470.4 22.3992ZM1475.2 27.1992C1476.08 27.1992 1476.8 26.4792 1476.8 25.5992C1476.8 24.7192 1476.08 23.9992 1475.2 23.9992C1474.32 23.9992 1473.6 24.7192 1473.6 25.5992C1473.6 26.4792 1474.32 27.1992 1475.2 27.1992ZM1475.2 31.9992C1476.08 31.9992 1476.8 31.2792 1476.8 30.3992C1476.8 29.5192 1476.08 28.7992 1475.2 28.7992C1474.32 28.7992 1473.6 29.5192 1473.6 30.3992C1473.6 31.2792 1474.32 31.9992 1475.2 31.9992Z" fill="#5F6368"/>
<rect x="1496" y="12.8008" width="25.6" height="25.6" rx="12.8" fill="#5C3C6E"/>
</g>
<defs>
<filter id="filter0_i_1364_1236" x="0" y="0" width="1536" height="51.1992" filterUnits="userSpaceOnUse" color-interpolation-filters="sRGB">
<feFlood flood-opacity="0" result="BackgroundImageFix"/>
<feBlend mode="normal" in="SourceGraphic" in2="BackgroundImageFix" result="shape"/>
<feColorMatrix in="SourceAlpha" type="matrix" values="0 0 0 0 0 0 0 0 0 0 0 0 0 0 0 0 0 0 127 0" result="hardAlpha"/>
<feOffset dy="-0.8"/>
<feComposite in2="hardAlpha" operator="arithmetic" k2="-1" k3="1"/>
<feColorMatrix type="matrix" values="0 0 0 0 0.854902 0 0 0 0 0.862745 0 0 0 0 0.878431 0 0 0 1 0"/>
<feBlend mode="normal" in2="shape" result="effect1_innerShadow_1364_1236"/>
</filter>
<clipPath id="clip0_1364_1236">
<rect width="132" height="38" fill="white" transform="translate(51 8)"/>
</clipPath>
<clipPath id="clip1_1364_1236">
<rect width="28.6016" height="28.6016" fill="white" transform="translate(55 13)"/>
</clipPath>
<clipPath id="clip2_1364_1236">
<rect width="90" height="38" fill="white" transform="translate(86 7)"/>
</clipPath>
<clipPath id="clip3_1364_1236">
<rect width="492" height="36.8" fill="white" transform="translate(245.602 7.19922)"/>
</clipPath>
<clipPath id="clip4_1364_1236">
<rect x="207.199" y="9.59766" width="32" height="32" rx="16" fill="white"/>
</clipPath>
<clipPath id="clip5_1364_1236">
<rect width="38.4" height="38.4" fill="white" transform="translate(1315.2 6.39844)"/>
</clipPath>
<clipPath id="clip6_1364_1236">
<rect width="19.2" height="19.2" fill="white" transform="translate(1363.2 16)"/>
</clipPath>
</defs>
</svg>
