<svg width="39" height="39" viewBox="0 0 39 39" fill="none" xmlns="http://www.w3.org/2000/svg">
<path d="M14.4 33.5992C14.4 34.4792 15.12 35.1992 16 35.1992H22.4C23.28 35.1992 24 34.4792 24 33.5992V31.9992H14.4V33.5992ZM19.2 3.19922C13.024 3.19922 8 8.22322 8 14.3992C8 18.2072 9.904 21.5512 12.8 23.5832V27.1992C12.8 28.0792 13.52 28.7992 14.4 28.7992H24C24.88 28.7992 25.6 28.0792 25.6 27.1992V23.5832C28.496 21.5512 30.4 18.2072 30.4 14.3992C30.4 8.22322 25.376 3.19922 19.2 3.19922ZM23.76 20.9592L22.4 21.9192V25.5992H16V21.9192L14.64 20.9592C13.58 20.2243 12.7135 19.2439 12.1145 18.1016C11.5155 16.9593 11.2017 15.6891 11.2 14.3992C11.2 9.98322 14.784 6.39922 19.2 6.39922C23.616 6.39922 27.2 9.98322 27.2 14.3992C27.2 17.0072 25.92 19.4552 23.76 20.9592Z" fill="#202124"/>
</svg>
