<svg width="224" height="909" viewBox="0 0 224 909" fill="none" xmlns="http://www.w3.org/2000/svg">
<rect width="224" height="908.8" transform="translate(0 0.199219)" fill="white"/>
<path d="M29.2461 888.372V888.803C29.2461 889.316 29.182 889.775 29.0539 890.181C28.9258 890.587 28.7414 890.933 28.5008 891.217C28.2602 891.502 27.9711 891.719 27.6336 891.869C27.2992 892.019 26.9242 892.094 26.5086 892.094C26.1055 892.094 25.7352 892.019 25.3977 891.869C25.0633 891.719 24.7727 891.502 24.5258 891.217C24.282 890.933 24.093 890.587 23.9586 890.181C23.8242 889.775 23.757 889.316 23.757 888.803V888.372C23.757 887.859 23.8227 887.402 23.9539 886.998C24.0883 886.592 24.2773 886.247 24.5211 885.962C24.7648 885.675 25.0539 885.456 25.3883 885.306C25.7258 885.156 26.0961 885.081 26.4992 885.081C26.9148 885.081 27.2898 885.156 27.6242 885.306C27.9617 885.456 28.2508 885.675 28.4914 885.962C28.7352 886.247 28.9211 886.592 29.0492 886.998C29.1805 887.402 29.2461 887.859 29.2461 888.372ZM28.3508 888.803V888.362C28.3508 887.956 28.3086 887.597 28.2242 887.284C28.143 886.972 28.0227 886.709 27.8633 886.497C27.7039 886.284 27.5086 886.123 27.2773 886.014C27.0492 885.905 26.7898 885.85 26.4992 885.85C26.218 885.85 25.9633 885.905 25.7352 886.014C25.5102 886.123 25.3164 886.284 25.1539 886.497C24.9945 886.709 24.8711 886.972 24.7836 887.284C24.6961 887.597 24.6523 887.956 24.6523 888.362V888.803C24.6523 889.212 24.6961 889.575 24.7836 889.891C24.8711 890.203 24.9961 890.467 25.1586 890.683C25.3242 890.895 25.5195 891.056 25.7445 891.166C25.9727 891.275 26.2273 891.33 26.5086 891.33C26.8023 891.33 27.0633 891.275 27.2914 891.166C27.5195 891.056 27.7117 890.895 27.868 890.683C28.0273 890.467 28.1477 890.203 28.2289 889.891C28.3102 889.575 28.3508 889.212 28.3508 888.803ZM31.3367 887.903V893.95H30.4648V886.928H31.2617L31.3367 887.903ZM34.7539 889.422V889.52C34.7539 889.889 34.7102 890.231 34.6227 890.547C34.5352 890.859 34.407 891.131 34.2383 891.362C34.0727 891.594 33.868 891.773 33.6242 891.902C33.3805 892.03 33.1008 892.094 32.7852 892.094C32.4633 892.094 32.1789 892.041 31.932 891.934C31.6852 891.828 31.4758 891.673 31.3039 891.47C31.132 891.267 30.9945 891.023 30.8914 890.739C30.7914 890.455 30.7227 890.134 30.6852 889.778V889.253C30.7227 888.878 30.793 888.542 30.8961 888.245C30.9992 887.948 31.1352 887.695 31.3039 887.486C31.4758 887.273 31.6836 887.112 31.9273 887.003C32.1711 886.891 32.4523 886.834 32.7711 886.834C33.0898 886.834 33.3727 886.897 33.6195 887.022C33.8664 887.144 34.0742 887.319 34.243 887.547C34.4117 887.775 34.5383 888.048 34.6227 888.367C34.7102 888.683 34.7539 889.034 34.7539 889.422ZM33.882 889.52V889.422C33.882 889.169 33.8555 888.931 33.8023 888.709C33.7492 888.484 33.6664 888.287 33.5539 888.119C33.4445 887.947 33.3039 887.812 33.132 887.716C32.9602 887.616 32.7555 887.566 32.518 887.566C32.2992 887.566 32.1086 887.603 31.9461 887.678C31.7867 887.753 31.6508 887.855 31.5383 887.983C31.4258 888.108 31.3336 888.252 31.2617 888.414C31.193 888.573 31.1414 888.739 31.107 888.911V890.125C31.1695 890.344 31.257 890.55 31.3695 890.744C31.482 890.934 31.632 891.089 31.8195 891.208C32.007 891.323 32.243 891.381 32.5273 891.381C32.7617 891.381 32.9633 891.333 33.132 891.236C33.3039 891.136 33.4445 891 33.5539 890.828C33.6664 890.656 33.7492 890.459 33.8023 890.237C33.8555 890.012 33.882 889.773 33.882 889.52ZM37.9648 892.094C37.6117 892.094 37.2914 892.034 37.0039 891.916C36.7195 891.794 36.4742 891.623 36.268 891.405C36.0648 891.186 35.9086 890.927 35.7992 890.627C35.6898 890.327 35.6352 889.998 35.6352 889.642V889.445C35.6352 889.033 35.6961 888.666 35.818 888.344C35.9398 888.019 36.1055 887.744 36.3148 887.519C36.5242 887.294 36.7617 887.123 37.0273 887.008C37.293 886.892 37.568 886.834 37.8523 886.834C38.2148 886.834 38.5273 886.897 38.7898 887.022C39.0555 887.147 39.2727 887.322 39.4414 887.547C39.6102 887.769 39.7352 888.031 39.8164 888.334C39.8977 888.634 39.9383 888.962 39.9383 889.319V889.708H36.1508V889H39.0711V888.934C39.0586 888.709 39.0117 888.491 38.9305 888.278C38.8523 888.066 38.7273 887.891 38.5555 887.753C38.3836 887.616 38.1492 887.547 37.8523 887.547C37.6555 887.547 37.4742 887.589 37.3086 887.673C37.143 887.755 37.0008 887.877 36.882 888.039C36.7633 888.202 36.6711 888.4 36.6055 888.634C36.5398 888.869 36.507 889.139 36.507 889.445V889.642C36.507 889.883 36.5398 890.109 36.6055 890.322C36.6742 890.531 36.7727 890.716 36.9008 890.875C37.032 891.034 37.1898 891.159 37.3742 891.25C37.5617 891.341 37.7742 891.386 38.0117 891.386C38.318 891.386 38.5773 891.323 38.7898 891.198C39.0023 891.073 39.1883 890.906 39.3477 890.697L39.8727 891.114C39.7633 891.28 39.6242 891.437 39.4555 891.587C39.2867 891.737 39.0789 891.859 38.832 891.953C38.5883 892.047 38.2992 892.094 37.9648 892.094ZM41.818 888.011V892H40.9508V886.928H41.7711L41.818 888.011ZM41.6117 889.272L41.2508 889.258C41.2539 888.911 41.3055 888.591 41.4055 888.297C41.5055 888 41.6461 887.742 41.8273 887.523C42.0086 887.305 42.2242 887.136 42.4742 887.017C42.7273 886.895 43.007 886.834 43.3133 886.834C43.5633 886.834 43.7883 886.869 43.9883 886.937C44.1883 887.003 44.3586 887.109 44.4992 887.256C44.643 887.403 44.7523 887.594 44.8273 887.828C44.9023 888.059 44.9398 888.342 44.9398 888.677V892H44.068V888.667C44.068 888.402 44.0289 888.189 43.9508 888.03C43.8727 887.867 43.7586 887.75 43.6086 887.678C43.4586 887.603 43.2742 887.566 43.0555 887.566C42.8398 887.566 42.643 887.611 42.4648 887.702C42.2898 887.792 42.1383 887.917 42.0102 888.077C41.8852 888.236 41.7867 888.419 41.7148 888.625C41.6461 888.828 41.6117 889.044 41.6117 889.272ZM48.0617 888.742V889.455H45.7742V888.742H48.0617ZM51.8633 890.655C51.8633 890.53 51.8352 890.414 51.7789 890.308C51.7258 890.198 51.6148 890.1 51.4461 890.012C51.2805 889.922 51.0305 889.844 50.6961 889.778C50.4148 889.719 50.1602 889.648 49.932 889.567C49.707 889.486 49.5148 889.387 49.3555 889.272C49.1992 889.156 49.0789 889.02 48.9945 888.864C48.9102 888.708 48.868 888.525 48.868 888.316C48.868 888.116 48.9117 887.927 48.9992 887.748C49.0898 887.57 49.2164 887.412 49.3789 887.275C49.5445 887.137 49.743 887.03 49.9742 886.952C50.2055 886.873 50.4633 886.834 50.7477 886.834C51.1539 886.834 51.5008 886.906 51.7883 887.05C52.0758 887.194 52.2961 887.386 52.4492 887.627C52.6023 887.864 52.6789 888.128 52.6789 888.419H51.8117C51.8117 888.278 51.7695 888.142 51.6852 888.011C51.6039 887.877 51.4836 887.766 51.3242 887.678C51.168 887.591 50.9758 887.547 50.7477 887.547C50.507 887.547 50.3117 887.584 50.1617 887.659C50.0148 887.731 49.907 887.823 49.8383 887.936C49.7727 888.048 49.7398 888.167 49.7398 888.292C49.7398 888.386 49.7555 888.47 49.7867 888.545C49.8211 888.617 49.8805 888.684 49.9648 888.747C50.0492 888.806 50.168 888.862 50.3211 888.916C50.4742 888.969 50.6695 889.022 50.907 889.075C51.3227 889.169 51.6648 889.281 51.9336 889.412C52.2023 889.544 52.4023 889.705 52.5336 889.895C52.6648 890.086 52.7305 890.317 52.7305 890.589C52.7305 890.811 52.6836 891.014 52.5898 891.198C52.4992 891.383 52.3664 891.542 52.1914 891.677C52.0195 891.808 51.8133 891.911 51.5727 891.986C51.3352 892.058 51.068 892.094 50.7711 892.094C50.3242 892.094 49.9461 892.014 49.6367 891.855C49.3273 891.695 49.093 891.489 48.9336 891.236C48.7742 890.983 48.6945 890.716 48.6945 890.434H49.5664C49.5789 890.672 49.6477 890.861 49.7727 891.002C49.8977 891.139 50.0508 891.237 50.232 891.297C50.4133 891.353 50.593 891.381 50.7711 891.381C51.0086 891.381 51.207 891.35 51.3664 891.287C51.5289 891.225 51.6523 891.139 51.7367 891.03C51.8211 890.92 51.8633 890.795 51.8633 890.655ZM53.6398 889.52V889.412C53.6398 889.047 53.693 888.708 53.7992 888.395C53.9055 888.08 54.0586 887.806 54.2586 887.575C54.4586 887.341 54.7008 887.159 54.9852 887.031C55.2695 886.9 55.5883 886.834 55.9414 886.834C56.2977 886.834 56.618 886.9 56.9023 887.031C57.1898 887.159 57.4336 887.341 57.6336 887.575C57.8367 887.806 57.9914 888.08 58.0977 888.395C58.2039 888.708 58.257 889.047 58.257 889.412V889.52C58.257 889.886 58.2039 890.225 58.0977 890.537C57.9914 890.85 57.8367 891.123 57.6336 891.358C57.4336 891.589 57.1914 891.77 56.907 891.902C56.6258 892.03 56.307 892.094 55.9508 892.094C55.5945 892.094 55.2742 892.03 54.9898 891.902C54.7055 891.77 54.4617 891.589 54.2586 891.358C54.0586 891.123 53.9055 890.85 53.7992 890.537C53.693 890.225 53.6398 889.886 53.6398 889.52ZM54.507 889.412V889.52C54.507 889.773 54.5367 890.012 54.5961 890.237C54.6555 890.459 54.7445 890.656 54.8633 890.828C54.9852 891 55.1367 891.136 55.318 891.236C55.4992 891.333 55.7102 891.381 55.9508 891.381C56.1883 891.381 56.3961 891.333 56.5742 891.236C56.7555 891.136 56.9055 891 57.0242 890.828C57.143 890.656 57.232 890.459 57.2914 890.237C57.3539 890.012 57.3852 889.773 57.3852 889.52V889.412C57.3852 889.162 57.3539 888.927 57.2914 888.705C57.232 888.48 57.1414 888.281 57.0195 888.109C56.9008 887.934 56.7508 887.797 56.5695 887.697C56.3914 887.597 56.182 887.547 55.9414 887.547C55.7039 887.547 55.4945 887.597 55.3133 887.697C55.1352 887.797 54.9852 887.934 54.8633 888.109C54.7445 888.281 54.6555 888.48 54.5961 888.705C54.5367 888.927 54.507 889.162 54.507 889.412ZM62.4477 890.828V886.928H63.3195V892H62.4898L62.4477 890.828ZM62.6117 889.759L62.9727 889.75C62.9727 890.087 62.9367 890.4 62.8648 890.687C62.7961 890.972 62.6836 891.219 62.5273 891.428C62.3711 891.637 62.1664 891.802 61.9133 891.92C61.6602 892.036 61.3523 892.094 60.9898 892.094C60.743 892.094 60.5164 892.058 60.3102 891.986C60.107 891.914 59.932 891.803 59.7852 891.653C59.6383 891.503 59.5242 891.308 59.443 891.067C59.3648 890.827 59.3258 890.537 59.3258 890.2V886.928H60.193V890.209C60.193 890.437 60.218 890.627 60.268 890.777C60.3211 890.923 60.3914 891.041 60.4789 891.128C60.5695 891.212 60.6695 891.272 60.7789 891.306C60.8914 891.341 61.007 891.358 61.1258 891.358C61.4945 891.358 61.7867 891.287 62.0023 891.147C62.218 891.003 62.3727 890.811 62.4664 890.57C62.5633 890.327 62.6117 890.056 62.6117 889.759ZM65.5086 887.725V892H64.6414V886.928H65.4852L65.5086 887.725ZM67.093 886.9L67.0883 887.706C67.0164 887.691 66.9477 887.681 66.882 887.678C66.8195 887.672 66.7477 887.669 66.6664 887.669C66.4664 887.669 66.2898 887.7 66.1367 887.762C65.9836 887.825 65.8539 887.912 65.7477 888.025C65.6414 888.137 65.557 888.272 65.4945 888.428C65.4352 888.581 65.3961 888.75 65.3773 888.934L65.1336 889.075C65.1336 888.769 65.1633 888.481 65.2227 888.212C65.2852 887.944 65.3805 887.706 65.5086 887.5C65.6367 887.291 65.7992 887.128 65.9961 887.012C66.1961 886.894 66.4336 886.834 66.7086 886.834C66.7711 886.834 66.843 886.842 66.9242 886.858C67.0055 886.87 67.0617 886.884 67.093 886.9ZM69.8305 891.381C70.0367 891.381 70.2273 891.339 70.4023 891.255C70.5773 891.17 70.7211 891.055 70.8336 890.908C70.9461 890.758 71.0102 890.587 71.0258 890.397H71.8508C71.8352 890.697 71.7336 890.977 71.5461 891.236C71.3617 891.492 71.1195 891.7 70.8195 891.859C70.5195 892.016 70.1898 892.094 69.8305 892.094C69.4492 892.094 69.1164 892.027 68.832 891.892C68.5508 891.758 68.3164 891.573 68.1289 891.339C67.9445 891.105 67.8055 890.836 67.7117 890.533C67.6211 890.227 67.5758 889.903 67.5758 889.562V889.366C67.5758 889.025 67.6211 888.703 67.7117 888.4C67.8055 888.094 67.9445 887.823 68.1289 887.589C68.3164 887.355 68.5508 887.17 68.832 887.036C69.1164 886.902 69.4492 886.834 69.8305 886.834C70.2273 886.834 70.5742 886.916 70.8711 887.078C71.168 887.237 71.4008 887.456 71.5695 887.734C71.7414 888.009 71.8352 888.322 71.8508 888.672H71.0258C71.0102 888.462 70.9508 888.273 70.8477 888.105C70.7477 887.936 70.6102 887.802 70.4352 887.702C70.2633 887.598 70.0617 887.547 69.8305 887.547C69.5648 887.547 69.3414 887.6 69.1602 887.706C68.982 887.809 68.8398 887.95 68.7336 888.128C68.6305 888.303 68.5555 888.498 68.5086 888.714C68.4648 888.927 68.443 889.144 68.443 889.366V889.562C68.443 889.784 68.4648 890.003 68.5086 890.219C68.5523 890.434 68.6258 890.63 68.7289 890.805C68.8352 890.98 68.9773 891.12 69.1555 891.227C69.3367 891.33 69.5617 891.381 69.8305 891.381ZM74.9305 892.094C74.5773 892.094 74.257 892.034 73.9695 891.916C73.6852 891.794 73.4398 891.623 73.2336 891.405C73.0305 891.186 72.8742 890.927 72.7648 890.627C72.6555 890.327 72.6008 889.998 72.6008 889.642V889.445C72.6008 889.033 72.6617 888.666 72.7836 888.344C72.9055 888.019 73.0711 887.744 73.2805 887.519C73.4898 887.294 73.7273 887.123 73.993 887.008C74.2586 886.892 74.5336 886.834 74.818 886.834C75.1805 886.834 75.493 886.897 75.7555 887.022C76.0211 887.147 76.2383 887.322 76.407 887.547C76.5758 887.769 76.7008 888.031 76.782 888.334C76.8633 888.634 76.9039 888.962 76.9039 889.319V889.708H73.1164V889H76.0367V888.934C76.0242 888.709 75.9773 888.491 75.8961 888.278C75.818 888.066 75.693 887.891 75.5211 887.753C75.3492 887.616 75.1148 887.547 74.818 887.547C74.6211 887.547 74.4398 887.589 74.2742 887.673C74.1086 887.755 73.9664 887.877 73.8477 888.039C73.7289 888.202 73.6367 888.4 73.5711 888.634C73.5055 888.869 73.4727 889.139 73.4727 889.445V889.642C73.4727 889.883 73.5055 890.109 73.5711 890.322C73.6398 890.531 73.7383 890.716 73.8664 890.875C73.9977 891.034 74.1555 891.159 74.3398 891.25C74.5273 891.341 74.7398 891.386 74.9773 891.386C75.2836 891.386 75.543 891.323 75.7555 891.198C75.968 891.073 76.1539 890.906 76.3133 890.697L76.8383 891.114C76.7289 891.28 76.5898 891.437 76.4211 891.587C76.2523 891.737 76.0445 891.859 75.7977 891.953C75.5539 892.047 75.2648 892.094 74.9305 892.094ZM81.2398 884.8V892H80.368V884.8H81.2398ZM83.5742 886.928V892H82.7023V886.928H83.5742ZM82.6367 885.583C82.6367 885.442 82.6789 885.323 82.7633 885.227C82.8508 885.13 82.9789 885.081 83.1477 885.081C83.3133 885.081 83.4398 885.13 83.5273 885.227C83.618 885.323 83.6633 885.442 83.6633 885.583C83.6633 885.717 83.618 885.833 83.5273 885.93C83.4398 886.023 83.3133 886.07 83.1477 886.07C82.9789 886.07 82.8508 886.023 82.7633 885.93C82.6789 885.833 82.6367 885.717 82.6367 885.583ZM86.9961 891.381C87.2023 891.381 87.393 891.339 87.568 891.255C87.743 891.17 87.8867 891.055 87.9992 890.908C88.1117 890.758 88.1758 890.587 88.1914 890.397H89.0164C89.0008 890.697 88.8992 890.977 88.7117 891.236C88.5273 891.492 88.2852 891.7 87.9852 891.859C87.6852 892.016 87.3555 892.094 86.9961 892.094C86.6148 892.094 86.282 892.027 85.9977 891.892C85.7164 891.758 85.482 891.573 85.2945 891.339C85.1102 891.105 84.9711 890.836 84.8773 890.533C84.7867 890.227 84.7414 889.903 84.7414 889.562V889.366C84.7414 889.025 84.7867 888.703 84.8773 888.4C84.9711 888.094 85.1102 887.823 85.2945 887.589C85.482 887.355 85.7164 887.17 85.9977 887.036C86.282 886.902 86.6148 886.834 86.9961 886.834C87.393 886.834 87.7398 886.916 88.0367 887.078C88.3336 887.237 88.5664 887.456 88.7352 887.734C88.907 888.009 89.0008 888.322 89.0164 888.672H88.1914C88.1758 888.462 88.1164 888.273 88.0133 888.105C87.9133 887.936 87.7758 887.802 87.6008 887.702C87.4289 887.598 87.2273 887.547 86.9961 887.547C86.7305 887.547 86.507 887.6 86.3258 887.706C86.1477 887.809 86.0055 887.95 85.8992 888.128C85.7961 888.303 85.7211 888.498 85.6742 888.714C85.6305 888.927 85.6086 889.144 85.6086 889.366V889.562C85.6086 889.784 85.6305 890.003 85.6742 890.219C85.718 890.434 85.7914 890.63 85.8945 890.805C86.0008 890.98 86.143 891.12 86.3211 891.227C86.5023 891.33 86.7273 891.381 86.9961 891.381ZM92.0961 892.094C91.743 892.094 91.4227 892.034 91.1352 891.916C90.8508 891.794 90.6055 891.623 90.3992 891.405C90.1961 891.186 90.0398 890.927 89.9305 890.627C89.8211 890.327 89.7664 889.998 89.7664 889.642V889.445C89.7664 889.033 89.8273 888.666 89.9492 888.344C90.0711 888.019 90.2367 887.744 90.4461 887.519C90.6555 887.294 90.893 887.123 91.1586 887.008C91.4242 886.892 91.6992 886.834 91.9836 886.834C92.3461 886.834 92.6586 886.897 92.9211 887.022C93.1867 887.147 93.4039 887.322 93.5727 887.547C93.7414 887.769 93.8664 888.031 93.9477 888.334C94.0289 888.634 94.0695 888.962 94.0695 889.319V889.708H90.282V889H93.2024V888.934C93.1899 888.709 93.143 888.491 93.0617 888.278C92.9836 888.066 92.8586 887.891 92.6867 887.753C92.5148 887.616 92.2805 887.547 91.9836 887.547C91.7867 887.547 91.6055 887.589 91.4398 887.673C91.2742 887.755 91.132 887.877 91.0133 888.039C90.8945 888.202 90.8023 888.4 90.7367 888.634C90.6711 888.869 90.6383 889.139 90.6383 889.445V889.642C90.6383 889.883 90.6711 890.109 90.7367 890.322C90.8055 890.531 90.9039 890.716 91.032 890.875C91.1633 891.034 91.3211 891.159 91.5055 891.25C91.693 891.341 91.9055 891.386 92.143 891.386C92.4492 891.386 92.7086 891.323 92.9211 891.198C93.1336 891.073 93.3195 890.906 93.4789 890.697L94.0039 891.114C93.8945 891.28 93.7555 891.437 93.5867 891.587C93.418 891.737 93.2102 891.859 92.9633 891.953C92.7195 892.047 92.4305 892.094 92.0961 892.094ZM95.9492 888.011V892H95.082V886.928H95.9023L95.9492 888.011ZM95.743 889.272L95.382 889.258C95.3852 888.911 95.4367 888.591 95.5367 888.297C95.6367 888 95.7773 887.742 95.9586 887.523C96.1398 887.305 96.3555 887.136 96.6055 887.017C96.8586 886.895 97.1383 886.834 97.4445 886.834C97.6945 886.834 97.9195 886.869 98.1195 886.937C98.3195 887.003 98.4898 887.109 98.6305 887.256C98.7742 887.403 98.8836 887.594 98.9586 887.828C99.0336 888.059 99.0711 888.342 99.0711 888.677V892H98.1992V888.667C98.1992 888.402 98.1602 888.189 98.082 888.03C98.0039 887.867 97.8898 887.75 97.7398 887.678C97.5898 887.603 97.4055 887.566 97.1867 887.566C96.9711 887.566 96.7742 887.611 96.5961 887.702C96.4211 887.792 96.2695 887.917 96.1414 888.077C96.0164 888.236 95.918 888.419 95.8461 888.625C95.7773 888.828 95.743 889.044 95.743 889.272ZM102.418 891.381C102.624 891.381 102.815 891.339 102.99 891.255C103.165 891.17 103.309 891.055 103.421 890.908C103.534 890.758 103.598 890.587 103.613 890.397H104.438C104.423 890.697 104.321 890.977 104.134 891.236C103.949 891.492 103.707 891.7 103.407 891.859C103.107 892.016 102.777 892.094 102.418 892.094C102.037 892.094 101.704 892.027 101.42 891.892C101.138 891.758 100.904 891.573 100.716 891.339C100.532 891.105 100.393 890.836 100.299 890.533C100.209 890.227 100.163 889.903 100.163 889.562V889.366C100.163 889.025 100.209 888.703 100.299 888.4C100.393 888.094 100.532 887.823 100.716 887.589C100.904 887.355 101.138 887.17 101.42 887.036C101.704 886.902 102.037 886.834 102.418 886.834C102.815 886.834 103.162 886.916 103.459 887.078C103.755 887.237 103.988 887.456 104.157 887.734C104.329 888.009 104.423 888.322 104.438 888.672H103.613C103.598 888.462 103.538 888.273 103.435 888.105C103.335 887.936 103.198 887.802 103.023 887.702C102.851 887.598 102.649 887.547 102.418 887.547C102.152 887.547 101.929 887.6 101.748 887.706C101.57 887.809 101.427 887.95 101.321 888.128C101.218 888.303 101.143 888.498 101.096 888.714C101.052 888.927 101.03 889.144 101.03 889.366V889.562C101.03 889.784 101.052 890.003 101.096 890.219C101.14 890.434 101.213 890.63 101.316 890.805C101.423 890.98 101.565 891.12 101.743 891.227C101.924 891.33 102.149 891.381 102.418 891.381ZM107.518 892.094C107.165 892.094 106.845 892.034 106.557 891.916C106.273 891.794 106.027 891.623 105.821 891.405C105.618 891.186 105.462 890.927 105.352 890.627C105.243 890.327 105.188 889.998 105.188 889.642V889.445C105.188 889.033 105.249 888.666 105.371 888.344C105.493 888.019 105.659 887.744 105.868 887.519C106.077 887.294 106.315 887.123 106.58 887.008C106.846 886.892 107.121 886.834 107.405 886.834C107.768 886.834 108.08 886.897 108.343 887.022C108.609 887.147 108.826 887.322 108.995 887.547C109.163 887.769 109.288 888.031 109.37 888.334C109.451 888.634 109.491 888.962 109.491 889.319V889.708H105.704V889H108.624V888.934C108.612 888.709 108.565 888.491 108.484 888.278C108.405 888.066 108.28 887.891 108.109 887.753C107.937 887.616 107.702 887.547 107.405 887.547C107.209 887.547 107.027 887.589 106.862 887.673C106.696 887.755 106.554 887.877 106.435 888.039C106.316 888.202 106.224 888.4 106.159 888.634C106.093 888.869 106.06 889.139 106.06 889.445V889.642C106.06 889.883 106.093 890.109 106.159 890.322C106.227 890.531 106.326 890.716 106.454 890.875C106.585 891.034 106.743 891.159 106.927 891.25C107.115 891.341 107.327 891.386 107.565 891.386C107.871 891.386 108.13 891.323 108.343 891.198C108.555 891.073 108.741 890.906 108.901 890.697L109.426 891.114C109.316 891.28 109.177 891.437 109.009 891.587C108.84 891.737 108.632 891.859 108.385 891.953C108.141 892.047 107.852 892.094 107.518 892.094ZM113.457 890.655C113.457 890.53 113.429 890.414 113.373 890.308C113.32 890.198 113.209 890.1 113.04 890.012C112.874 889.922 112.624 889.844 112.29 889.778C112.009 889.719 111.754 889.648 111.526 889.567C111.301 889.486 111.109 889.387 110.949 889.272C110.793 889.156 110.673 889.02 110.588 888.864C110.504 888.708 110.462 888.525 110.462 888.316C110.462 888.116 110.505 887.927 110.593 887.748C110.684 887.57 110.81 887.412 110.973 887.275C111.138 887.137 111.337 887.03 111.568 886.952C111.799 886.873 112.057 886.834 112.341 886.834C112.748 886.834 113.095 886.906 113.382 887.05C113.67 887.194 113.89 887.386 114.043 887.627C114.196 887.864 114.273 888.128 114.273 888.419H113.405C113.405 888.278 113.363 888.142 113.279 888.011C113.198 887.877 113.077 887.766 112.918 887.678C112.762 887.591 112.57 887.547 112.341 887.547C112.101 887.547 111.905 887.584 111.755 887.659C111.609 887.731 111.501 887.823 111.432 887.936C111.366 888.048 111.334 888.167 111.334 888.292C111.334 888.386 111.349 888.47 111.38 888.545C111.415 888.617 111.474 888.684 111.559 888.747C111.643 888.806 111.762 888.862 111.915 888.916C112.068 888.969 112.263 889.022 112.501 889.075C112.916 889.169 113.259 889.281 113.527 889.412C113.796 889.544 113.996 889.705 114.127 889.895C114.259 890.086 114.324 890.317 114.324 890.589C114.324 890.811 114.277 891.014 114.184 891.198C114.093 891.383 113.96 891.542 113.785 891.677C113.613 891.808 113.407 891.911 113.166 891.986C112.929 892.058 112.662 892.094 112.365 892.094C111.918 892.094 111.54 892.014 111.23 891.855C110.921 891.695 110.687 891.489 110.527 891.236C110.368 890.983 110.288 890.716 110.288 890.434H111.16C111.173 890.672 111.241 890.861 111.366 891.002C111.491 891.139 111.645 891.237 111.826 891.297C112.007 891.353 112.187 891.381 112.365 891.381C112.602 891.381 112.801 891.35 112.96 891.287C113.123 891.225 113.246 891.139 113.33 891.03C113.415 890.92 113.457 890.795 113.457 890.655Z" fill="#5F6368"/>
</svg>
