<svg width="509" height="509" viewBox="0 0 509 509" fill="none" xmlns="http://www.w3.org/2000/svg">
<path d="M399.527 384.1C398.97 387.702 395.957 390.225 392.798 389.736C389.639 389.247 387.53 385.931 388.087 382.33C388.645 378.729 391.658 376.206 394.817 376.695C397.976 377.184 400.085 380.499 399.527 384.1Z" fill="#22B5CB"/>
<path d="M411.489 363.167C410.932 366.768 407.919 369.291 404.76 368.802C401.601 368.313 399.492 364.997 400.05 361.396C400.607 357.795 403.62 355.272 406.779 355.761C409.938 356.25 412.047 359.566 411.489 363.167Z" fill="#22B5CB"/>
<path d="M421.458 342.233C420.9 345.834 417.888 348.357 414.729 347.868C411.57 347.379 409.461 344.064 410.018 340.462C410.575 336.861 413.588 334.338 416.747 334.827C419.906 335.316 422.015 338.632 421.458 342.233Z" fill="#22B5CB"/>
<path d="M428.436 319.306C427.878 322.907 424.865 325.43 421.706 324.941C418.547 324.452 416.438 321.136 416.996 317.535C417.553 313.934 420.566 311.411 423.725 311.9C426.884 312.389 428.993 315.705 428.436 319.306Z" fill="#22B5CB"/>
<path d="M433.42 296.378C432.862 299.98 429.85 302.503 426.691 302.014C423.532 301.525 421.423 298.209 421.98 294.608C422.537 291.007 425.55 288.484 428.709 288.973C431.868 289.461 433.977 292.777 433.42 296.378Z" fill="#22B5CB"/>
<path d="M435.413 273.451C434.856 277.052 431.843 279.575 428.684 279.086C425.525 278.597 423.416 275.282 423.974 271.68C424.531 268.079 427.544 265.556 430.703 266.045C433.862 266.534 435.971 269.85 435.413 273.451Z" fill="#22B5CB"/>
<path d="M436.41 249.527C435.853 253.128 432.84 255.651 429.681 255.162C426.522 254.673 424.413 251.357 424.971 247.756C425.528 244.155 428.541 241.632 431.7 242.121C434.859 242.61 436.968 245.926 436.41 249.527Z" fill="#22B5CB"/>
<path d="M434.417 226.6C433.859 230.201 430.847 232.724 427.688 232.235C424.529 231.746 422.42 228.43 422.977 224.829C423.534 221.228 426.547 218.705 429.706 219.194C432.865 219.683 434.974 222.998 434.417 226.6Z" fill="#22B5CB"/>
<path d="M429.432 204.669C428.875 208.27 425.862 210.793 422.703 210.304C419.544 209.815 417.435 206.499 417.993 202.898C418.55 199.297 421.563 196.774 424.722 197.263C427.881 197.752 429.99 201.068 429.432 204.669Z" fill="#22B5CB"/>
<path d="M422.455 182.738C421.897 186.34 418.884 188.863 415.725 188.374C412.566 187.885 410.457 184.569 411.015 180.968C411.572 177.367 414.585 174.844 417.744 175.333C420.903 175.822 423.012 179.137 422.455 182.738Z" fill="#22B5CB"/>
<path d="M413.483 162.802C412.926 166.403 409.913 168.926 406.754 168.437C403.595 167.948 401.486 164.632 402.043 161.031C402.601 157.43 405.613 154.907 408.772 155.396C411.931 155.885 414.04 159.2 413.483 162.802Z" fill="#22B5CB"/>
<path d="M402.518 143.862C401.96 147.463 398.948 149.986 395.789 149.497C392.63 149.008 390.521 145.692 391.078 142.091C391.635 138.49 394.648 135.967 397.807 136.456C400.966 136.945 403.075 140.26 402.518 143.862Z" fill="#22B5CB"/>
<path d="M389.559 126.915C389.001 130.517 385.989 133.04 382.83 132.551C379.671 132.062 377.562 128.746 378.119 125.145C378.676 121.543 381.689 119.021 384.848 119.509C388.007 119.998 390.116 123.314 389.559 126.915Z" fill="#22B5CB"/>
<path d="M374.606 111.963C374.049 115.564 371.036 118.087 367.877 117.598C364.718 117.109 362.609 113.793 363.166 110.192C363.724 106.591 366.737 104.068 369.896 104.557C373.055 105.046 375.164 108.362 374.606 111.963Z" fill="#22B5CB"/>
<path d="M357.66 99.0038C357.102 102.605 354.09 105.128 350.931 104.639C347.772 104.15 345.663 100.834 346.22 97.2331C346.778 93.6319 349.79 91.1089 352.949 91.5979C356.108 92.0869 358.217 95.4026 357.66 99.0038Z" fill="#22B5CB"/>
<path d="M339.717 88.0386C339.159 91.6398 336.147 94.1627 332.988 93.6738C329.829 93.1848 327.72 89.8691 328.277 86.2678C328.834 82.6666 331.847 80.1437 335.006 80.6326C338.165 81.1216 340.274 84.4374 339.717 88.0386Z" fill="#22B5CB"/>
<path d="M320.777 80.0638C320.219 83.665 317.207 86.188 314.048 85.699C310.889 85.2101 308.78 81.8943 309.337 78.2931C309.894 74.6919 312.907 72.1689 316.066 72.6579C319.225 73.1469 321.334 76.4626 320.777 80.0638Z" fill="#22B5CB"/>
<path d="M300.84 75.0796C300.282 78.6808 297.27 81.2038 294.111 80.7148C290.952 80.2259 288.843 76.9101 289.4 73.3089C289.958 69.7077 292.97 67.1847 296.129 67.6737C299.288 68.1627 301.397 71.4784 300.84 75.0796Z" fill="#22B5CB"/>
<path d="M279.906 72.0891C279.349 75.6903 276.336 78.2133 273.177 77.7243C270.018 77.2353 267.909 73.9196 268.466 70.3184C269.024 66.7172 272.037 64.1942 275.196 64.6832C278.355 65.1722 280.464 68.4879 279.906 72.0891Z" fill="#22B5CB"/>
<path d="M258.973 72.0891C258.415 75.6903 255.402 78.2133 252.243 77.7243C249.084 77.2353 246.975 73.9196 247.533 70.3184C248.09 66.7172 251.103 64.1942 254.262 64.6832C257.421 65.1722 259.53 68.4879 258.973 72.0891Z" fill="#22B5CB"/>
<path d="M239.036 74.0828C238.478 77.684 235.466 80.2069 232.307 79.718C229.148 79.229 227.039 75.9133 227.596 72.3121C228.153 68.7109 231.166 66.1879 234.325 66.6769C237.484 67.1658 239.593 70.4816 239.036 74.0828Z" fill="#22B5CB"/>
<path d="M218.102 79.067C217.545 82.6682 214.532 85.1912 211.373 84.7022C208.214 84.2132 206.105 80.8975 206.662 77.2963C207.22 73.6951 210.232 71.1721 213.391 71.6611C216.55 72.15 218.659 75.4658 218.102 79.067Z" fill="#22B5CB"/>
<path d="M198.165 87.0417C197.608 90.6429 194.595 93.1659 191.436 92.6769C188.277 92.1879 186.168 88.8722 186.726 85.271C187.283 81.6698 190.296 79.1468 193.455 79.6358C196.614 80.1248 198.723 83.4405 198.165 87.0417Z" fill="#22B5CB"/>
<path d="M179.225 97.0101C178.668 100.611 175.655 103.134 172.496 102.645C169.337 102.156 167.228 98.8406 167.786 95.2394C168.343 91.6382 171.356 89.1153 174.515 89.6042C177.674 90.0932 179.783 93.4089 179.225 97.0101Z" fill="#22B5CB"/>
<path d="M160.285 109.969C159.728 113.57 156.715 116.093 153.556 115.604C150.397 115.115 148.288 111.8 148.846 108.198C149.403 104.597 152.416 102.074 155.575 102.563C158.734 103.052 160.843 106.368 160.285 109.969Z" fill="#22B5CB"/>
<path d="M144.336 124.922C143.778 128.523 140.766 131.046 137.607 130.557C134.448 130.068 132.339 126.752 132.896 123.151C133.453 119.55 136.466 117.027 139.625 117.516C142.784 118.005 144.893 121.32 144.336 124.922Z" fill="#22B5CB"/>
<path d="M128.386 141.868C127.829 145.469 124.816 147.992 121.657 147.503C118.498 147.014 116.389 143.698 116.947 140.097C117.504 136.496 120.517 133.973 123.676 134.462C126.835 134.951 128.944 138.267 128.386 141.868Z" fill="#22B5CB"/>
<path d="M114.431 160.808C113.873 164.409 110.86 166.932 107.701 166.443C104.542 165.954 102.433 162.638 102.991 159.037C103.548 155.436 106.561 152.913 109.72 153.402C112.879 153.891 114.988 157.207 114.431 160.808Z" fill="#22B5CB"/>
<path d="M103.465 181.742C102.908 185.343 99.8951 187.866 96.7361 187.377C93.5771 186.888 91.4681 183.572 92.0256 179.971C92.583 176.37 95.5957 173.847 98.7547 174.336C101.914 174.825 104.023 178.14 103.465 181.742Z" fill="#22B5CB"/>
<path d="M94.4937 202.675C93.9363 206.277 90.9235 208.8 87.7646 208.311C84.6056 207.822 82.4966 204.506 83.054 200.905C83.6114 197.303 86.6242 194.78 89.7831 195.269C92.9421 195.758 95.0511 199.074 94.4937 202.675Z" fill="#22B5CB"/>
<path d="M86.519 224.606C85.9616 228.207 82.9488 230.73 79.7898 230.241C76.6308 229.752 74.5218 226.436 75.0793 222.835C75.6367 219.234 78.6494 216.711 81.8084 217.2C84.9674 217.689 87.0764 221.005 86.519 224.606Z" fill="#22B5CB"/>
<path d="M81.5348 247.533C80.9773 251.134 77.9646 253.657 74.8056 253.168C71.6466 252.679 69.5376 249.364 70.0951 245.762C70.6525 242.161 73.6652 239.638 76.8242 240.127C79.9832 240.616 82.0922 243.932 81.5348 247.533Z" fill="#22B5CB"/>
<path d="M78.5442 271.457C77.9868 275.059 74.9741 277.582 71.8151 277.093C68.6561 276.604 66.5471 273.288 67.1045 269.687C67.6619 266.085 70.6747 263.563 73.8337 264.051C76.9927 264.54 79.1017 267.856 78.5442 271.457Z" fill="#22B5CB"/>
<path d="M78.5442 295.382C77.9868 298.983 74.9741 301.506 71.8151 301.017C68.6561 300.528 66.5471 297.212 67.1045 293.611C67.6619 290.01 70.6747 287.487 73.8337 287.976C76.9927 288.465 79.1017 291.78 78.5442 295.382Z" fill="#22B5CB"/>
<path d="M80.5379 318.309C79.9805 321.91 76.9678 324.433 73.8088 323.944C70.6498 323.455 68.5408 320.139 69.0982 316.538C69.6556 312.937 72.6684 310.414 75.8274 310.903C78.9864 311.392 81.0953 314.708 80.5379 318.309Z" fill="#22B5CB"/>
<path d="M85.5221 341.236C84.9647 344.837 81.952 347.36 78.793 346.872C75.634 346.383 73.525 343.067 74.0824 339.466C74.6398 335.864 77.6526 333.341 80.8116 333.83C83.9706 334.319 86.0796 337.635 85.5221 341.236Z" fill="#22B5CB"/>
<path d="M92.5 361.173C91.9426 364.774 88.9299 367.297 85.7709 366.808C82.6119 366.319 80.5029 363.004 81.0603 359.402C81.6177 355.801 84.6305 353.278 87.7895 353.767C90.9485 354.256 93.0574 357.572 92.5 361.173Z" fill="#22B5CB"/>
<path d="M101.472 382.107C100.914 385.708 97.9014 388.231 94.7424 387.742C91.5835 387.253 89.4745 383.937 90.0319 380.336C90.5893 376.735 93.602 374.212 96.761 374.701C99.92 375.19 102.029 378.506 101.472 382.107Z" fill="#22B5CB"/>
<path d="M112.437 401.047C111.879 404.648 108.867 407.171 105.708 406.682C102.549 406.193 100.44 402.877 100.997 399.276C101.555 395.675 104.567 393.152 107.726 393.641C110.885 394.13 112.994 397.446 112.437 401.047Z" fill="#22B5CB"/>
<path d="M125.396 417.993C124.838 421.594 121.826 424.117 118.667 423.628C115.508 423.139 113.399 419.824 113.956 416.222C114.513 412.621 117.526 410.098 120.685 410.587C123.844 411.076 125.953 414.392 125.396 417.993Z" fill="#22B5CB"/>
<path d="M141.345 432.946C140.788 436.547 137.775 439.07 134.616 438.581C131.457 438.092 129.348 434.776 129.906 431.175C130.463 427.574 133.476 425.051 136.635 425.54C139.794 426.029 141.903 429.344 141.345 432.946Z" fill="#22B5CB"/>
<path d="M157.295 445.905C156.737 449.506 153.725 452.029 150.566 451.54C147.407 451.051 145.298 447.735 145.855 444.134C146.412 440.533 149.425 438.01 152.584 438.499C155.743 438.988 157.852 442.303 157.295 445.905Z" fill="#22B5CB"/>
<path d="M175.238 456.87C174.68 460.471 171.668 462.994 168.509 462.505C165.35 462.016 163.241 458.7 163.798 455.099C164.356 451.498 167.368 448.975 170.527 449.464C173.686 449.953 175.795 453.269 175.238 456.87Z" fill="#22B5CB"/>
<path d="M194.178 464.845C193.62 468.446 190.608 470.969 187.449 470.48C184.29 469.991 182.181 466.675 182.738 463.074C183.296 459.473 186.308 456.95 189.467 457.439C192.626 457.928 194.735 461.243 194.178 464.845Z" fill="#22B5CB"/>
<path d="M214.115 469.829C213.557 473.43 210.545 475.953 207.386 475.464C204.227 474.975 202.118 471.659 202.675 468.058C203.232 464.457 206.245 461.934 209.404 462.423C212.563 462.912 214.672 466.228 214.115 469.829Z" fill="#22B5CB"/>
<path d="M235.048 472.819C234.491 476.421 231.478 478.944 228.319 478.455C225.16 477.966 223.051 474.65 223.609 471.049C224.166 467.447 227.179 464.924 230.338 465.413C233.497 465.902 235.606 469.218 235.048 472.819Z" fill="#22B5CB"/>
<path d="M254.985 472.819C254.428 476.421 251.415 478.944 248.256 478.455C245.097 477.966 242.988 474.65 243.545 471.049C244.103 467.447 247.116 464.924 250.275 465.413C253.434 465.902 255.543 469.218 254.985 472.819Z" fill="#22B5CB"/>
<path d="M275.919 470.826C275.361 474.427 272.349 476.95 269.19 476.461C266.031 475.972 263.922 472.656 264.479 469.055C265.037 465.454 268.049 462.931 271.208 463.42C274.367 463.909 276.476 467.224 275.919 470.826Z" fill="#22B5CB"/>
<path d="M296.853 465.841C296.295 469.443 293.282 471.966 290.123 471.477C286.964 470.988 284.855 467.672 285.413 464.071C285.97 460.47 288.983 457.947 292.142 458.436C295.301 458.925 297.41 462.24 296.853 465.841Z" fill="#22B5CB"/>
<path d="M316.789 457.867C316.232 461.468 313.219 463.991 310.06 463.502C306.901 463.013 304.792 459.697 305.35 456.096C305.907 452.495 308.92 449.972 312.079 450.461C315.238 450.95 317.347 454.266 316.789 457.867Z" fill="#22B5CB"/>
<path d="M335.729 446.901C335.172 450.503 332.159 453.026 329 452.537C325.841 452.048 323.732 448.732 324.29 445.131C324.847 441.53 327.86 439.007 331.019 439.496C334.178 439.985 336.287 443.3 335.729 446.901Z" fill="#22B5CB"/>
<path d="M353.672 433.943C353.115 437.544 350.102 440.067 346.943 439.578C343.784 439.089 341.675 435.773 342.233 432.172C342.79 428.571 345.803 426.048 348.962 426.537C352.121 427.026 354.23 430.341 353.672 433.943Z" fill="#22B5CB"/>
<path d="M370.619 418.99C370.061 422.591 367.049 425.114 363.89 424.625C360.731 424.136 358.622 420.82 359.179 417.219C359.736 413.618 362.749 411.095 365.908 411.584C369.067 412.073 371.176 415.389 370.619 418.99Z" fill="#22B5CB"/>
<path d="M386.568 403.04C386.011 406.642 382.998 409.165 379.839 408.676C376.68 408.187 374.571 404.871 375.129 401.27C375.686 397.669 378.699 395.146 381.858 395.635C385.017 396.124 387.126 399.439 386.568 403.04Z" fill="#22B5CB"/>
<path d="M192.695 490.944C192.695 495.624 188.902 499.418 184.222 499.418C179.542 499.418 175.749 495.624 175.749 490.944C175.749 486.265 179.542 482.471 184.222 482.471C188.902 482.471 192.695 486.265 192.695 490.944Z" fill="#22B5CB"/>
<path d="M220.607 496.925C220.607 501.605 216.813 505.399 212.133 505.399C207.454 505.399 203.66 501.605 203.66 496.925C203.66 492.246 207.454 488.452 212.133 488.452C216.813 488.452 220.607 492.246 220.607 496.925Z" fill="#22B5CB"/>
<path d="M248.518 499.916C248.518 504.596 244.725 508.389 240.045 508.389C235.365 508.389 231.572 504.596 231.572 499.916C231.572 495.236 235.365 491.443 240.045 491.443C244.725 491.443 248.518 495.236 248.518 499.916Z" fill="#22B5CB"/>
<path d="M278.423 499.916C278.423 504.596 274.63 508.389 269.95 508.389C265.271 508.389 261.477 504.596 261.477 499.916C261.477 495.236 265.271 491.443 269.95 491.443C274.63 491.443 278.423 495.236 278.423 499.916Z" fill="#22B5CB"/>
<path d="M306.335 496.925C306.335 501.605 302.541 505.399 297.862 505.399C293.182 505.399 289.389 501.605 289.389 496.925C289.389 492.246 293.182 488.452 297.862 488.452C302.541 488.452 306.335 492.246 306.335 496.925Z" fill="#22B5CB"/>
<path d="M334.247 490.944C334.247 495.624 330.453 499.418 325.773 499.418C321.094 499.418 317.3 495.624 317.3 490.944C317.3 486.265 321.094 482.471 325.773 482.471C330.453 482.471 334.247 486.265 334.247 490.944Z" fill="#22B5CB"/>
<path d="M361.161 479.979C361.161 484.659 357.368 488.452 352.688 488.452C348.009 488.452 344.215 484.659 344.215 479.979C344.215 475.3 348.009 471.506 352.688 471.506C357.368 471.506 361.161 475.3 361.161 479.979Z" fill="#22B5CB"/>
<path d="M387.079 468.017C387.079 472.697 383.286 476.49 378.606 476.49C373.926 476.49 370.133 472.697 370.133 468.017C370.133 463.337 373.926 459.544 378.606 459.544C383.286 459.544 387.079 463.337 387.079 468.017Z" fill="#22B5CB"/>
<path d="M411.003 451.071C411.003 455.75 407.21 459.544 402.53 459.544C397.851 459.544 394.057 455.75 394.057 451.071C394.057 446.391 397.851 442.598 402.53 442.598C407.21 442.598 411.003 446.391 411.003 451.071Z" fill="#22B5CB"/>
<path d="M432.934 434.124C432.934 438.804 429.14 442.598 424.461 442.598C419.781 442.598 415.988 438.804 415.988 434.124C415.988 429.445 419.781 425.651 424.461 425.651C429.14 425.651 432.934 429.445 432.934 434.124Z" fill="#22B5CB"/>
<path d="M452.871 412.194C452.871 416.874 449.077 420.667 444.398 420.667C439.718 420.667 435.924 416.874 435.924 412.194C435.924 407.514 439.718 403.721 444.398 403.721C449.077 403.721 452.871 407.514 452.871 412.194Z" fill="#22B5CB"/>
<path d="M469.817 389.267C469.817 393.946 466.023 397.74 461.344 397.74C456.664 397.74 452.871 393.946 452.871 389.267C452.871 384.587 456.664 380.793 461.344 380.793C466.023 380.793 469.817 384.587 469.817 389.267Z" fill="#22B5CB"/>
<path d="M483.773 364.346C483.773 369.025 479.979 372.819 475.3 372.819C470.62 372.819 466.826 369.025 466.826 364.346C466.826 359.666 470.62 355.872 475.3 355.872C479.979 355.872 483.773 359.666 483.773 364.346Z" fill="#22B5CB"/>
<path d="M495.735 338.428C495.735 343.107 491.941 346.901 487.262 346.901C482.582 346.901 478.789 343.107 478.789 338.428C478.789 333.748 482.582 329.955 487.262 329.955C491.941 329.955 495.735 333.748 495.735 338.428Z" fill="#22B5CB"/>
<path d="M503.71 311.513C503.71 316.193 499.916 319.986 495.236 319.986C490.557 319.986 486.763 316.193 486.763 311.513C486.763 306.833 490.557 303.04 495.236 303.04C499.916 303.04 503.71 306.833 503.71 311.513Z" fill="#22B5CB"/>
<path d="M508.694 282.605C508.694 287.284 504.9 291.078 500.221 291.078C495.541 291.078 491.748 287.284 491.748 282.605C491.748 277.925 495.541 274.131 500.221 274.131C504.9 274.131 508.694 277.925 508.694 282.605Z" fill="#22B5CB"/>
<path d="M508.694 253.696C508.694 258.376 504.9 262.169 500.221 262.169C495.541 262.169 491.748 258.376 491.748 253.696C491.748 249.017 495.541 245.223 500.221 245.223C504.9 245.223 508.694 249.017 508.694 253.696Z" fill="#22B5CB"/>
<path d="M508.694 224.788C508.694 229.467 504.9 233.261 500.221 233.261C495.541 233.261 491.748 229.467 491.748 224.788C491.748 220.108 495.541 216.315 500.221 216.315C504.9 216.315 508.694 220.108 508.694 224.788Z" fill="#22B5CB"/>
<path d="M503.71 197.873C503.71 202.553 499.916 206.346 495.236 206.346C490.557 206.346 486.763 202.553 486.763 197.873C486.763 193.193 490.557 189.4 495.236 189.4C499.916 189.4 503.71 193.193 503.71 197.873Z" fill="#22B5CB"/>
<path d="M495.735 168.965C495.735 173.644 491.941 177.438 487.262 177.438C482.582 177.438 478.789 173.644 478.789 168.965C478.789 164.285 482.582 160.491 487.262 160.491C491.941 160.491 495.735 164.285 495.735 168.965Z" fill="#22B5CB"/>
<path d="M483.773 144.044C483.773 148.723 479.979 152.517 475.3 152.517C470.62 152.517 466.826 148.723 466.826 144.044C466.826 139.364 470.62 135.57 475.3 135.57C479.979 135.57 483.773 139.364 483.773 144.044Z" fill="#22B5CB"/>
<path d="M469.817 119.123C469.817 123.802 466.023 127.596 461.344 127.596C456.664 127.596 452.871 123.802 452.871 119.123C452.871 114.443 456.664 110.649 461.344 110.649C466.023 110.649 469.817 114.443 469.817 119.123Z" fill="#22B5CB"/>
<path d="M452.871 97.192C452.871 101.872 449.077 105.665 444.398 105.665C439.718 105.665 435.924 101.872 435.924 97.192C435.924 92.5124 439.718 88.7189 444.398 88.7189C449.077 88.7189 452.871 92.5124 452.871 97.192Z" fill="#22B5CB"/>
<path d="M431.937 74.2647C431.937 78.9443 428.144 82.7378 423.464 82.7378C418.784 82.7378 414.991 78.9443 414.991 74.2647C414.991 69.5851 418.784 65.7915 423.464 65.7915C428.144 65.7915 431.937 69.5851 431.937 74.2647Z" fill="#22B5CB"/>
<path d="M411.003 57.3184C411.003 61.998 407.21 65.7915 402.53 65.7915C397.851 65.7915 394.057 61.998 394.057 57.3184C394.057 52.6388 397.851 48.8452 402.53 48.8452C407.21 48.8452 411.003 52.6388 411.003 57.3184Z" fill="#22B5CB"/>
<path d="M387.079 40.3721C387.079 45.0517 383.286 48.8452 378.606 48.8452C373.926 48.8452 370.133 45.0517 370.133 40.3721C370.133 35.6925 373.926 31.8989 378.606 31.8989C383.286 31.8989 387.079 35.6925 387.079 40.3721Z" fill="#22B5CB"/>
<path d="M362.158 28.41C362.158 33.0896 358.365 36.8831 353.685 36.8831C349.005 36.8831 345.212 33.0896 345.212 28.41C345.212 23.7304 349.005 19.9368 353.685 19.9368C358.365 19.9368 362.158 23.7304 362.158 28.41Z" fill="#22B5CB"/>
<path d="M334.247 17.4447C334.247 22.1243 330.453 25.9179 325.773 25.9179C321.094 25.9179 317.3 22.1243 317.3 17.4447C317.3 12.7651 321.094 8.97157 325.773 8.97157C330.453 8.97157 334.247 12.7651 334.247 17.4447Z" fill="#22B5CB"/>
<path d="M307.332 11.4637C307.332 16.1433 303.538 19.9368 298.859 19.9368C294.179 19.9368 290.386 16.1433 290.386 11.4637C290.386 6.78408 294.179 2.99052 298.859 2.99052C303.538 2.99052 307.332 6.78408 307.332 11.4637Z" fill="#22B5CB"/>
<path d="M277.427 8.47315C277.427 13.1527 273.633 16.9463 268.953 16.9463C264.274 16.9463 260.48 13.1527 260.48 8.47315C260.48 3.79356 264.274 0 268.953 0C273.633 0 277.427 3.79356 277.427 8.47315Z" fill="#22B5CB"/>
<path d="M250.512 8.47315C250.512 13.1527 246.718 16.9463 242.039 16.9463C237.359 16.9463 233.566 13.1527 233.566 8.47315C233.566 3.79356 237.359 0 242.039 0C246.718 0 250.512 3.79356 250.512 8.47315Z" fill="#22B5CB"/>
<path d="M220.607 11.4637C220.607 16.1433 216.813 19.9368 212.133 19.9368C207.454 19.9368 203.66 16.1433 203.66 11.4637C203.66 6.78408 207.454 2.99052 212.133 2.99052C216.813 2.99052 220.607 6.78408 220.607 11.4637Z" fill="#22B5CB"/>
<path d="M192.695 17.4447C192.695 22.1243 188.902 25.9179 184.222 25.9179C179.542 25.9179 175.749 22.1243 175.749 17.4447C175.749 12.7651 179.542 8.97157 184.222 8.97157C188.902 8.97157 192.695 12.7651 192.695 17.4447Z" fill="#22B5CB"/>
<path d="M166.777 28.41C166.777 33.0896 162.984 36.8831 158.304 36.8831C153.624 36.8831 149.831 33.0896 149.831 28.41C149.831 23.7304 153.624 19.9368 158.304 19.9368C162.984 19.9368 166.777 23.7304 166.777 28.41Z" fill="#22B5CB"/>
<path d="M139.862 41.3689C139.862 46.0485 136.069 49.8421 131.389 49.8421C126.71 49.8421 122.916 46.0485 122.916 41.3689C122.916 36.6893 126.71 32.8958 131.389 32.8958C136.069 32.8958 139.862 36.6893 139.862 41.3689Z" fill="#22B5CB"/>
<path d="M115.938 56.3215C115.938 61.0011 112.145 64.7947 107.465 64.7947C102.786 64.7947 98.992 61.0011 98.992 56.3215C98.992 51.6419 102.786 47.8484 107.465 47.8484C112.145 47.8484 115.938 51.6419 115.938 56.3215Z" fill="#22B5CB"/>
<path d="M94.0078 75.2615C94.0078 79.9411 90.2142 83.7347 85.5346 83.7347C80.855 83.7347 77.0615 79.9411 77.0615 75.2615C77.0615 70.5819 80.855 66.7884 85.5346 66.7884C90.2142 66.7884 94.0078 70.5819 94.0078 75.2615Z" fill="#22B5CB"/>
<path d="M75.0678 96.1952C75.0678 100.875 71.2742 104.668 66.5946 104.668C61.9151 104.668 58.1215 100.875 58.1215 96.1952C58.1215 91.5156 61.9151 87.7221 66.5946 87.7221C71.2742 87.7221 75.0678 91.5156 75.0678 96.1952Z" fill="#22B5CB"/>
<path d="M58.1215 119.123C58.1215 123.802 54.3279 127.596 49.6483 127.596C44.9687 127.596 41.1752 123.802 41.1752 119.123C41.1752 114.443 44.9687 110.649 49.6483 110.649C54.3279 110.649 58.1215 114.443 58.1215 119.123Z" fill="#22B5CB"/>
<path d="M43.1689 144.044C43.1689 148.723 39.3753 152.517 34.6957 152.517C30.0161 152.517 26.2226 148.723 26.2226 144.044C26.2226 139.364 30.0161 135.57 34.6957 135.57C39.3753 135.57 43.1689 139.364 43.1689 144.044Z" fill="#22B5CB"/>
<path d="M31.2068 169.961C31.2068 174.641 27.4132 178.435 22.7336 178.435C18.054 178.435 14.2605 174.641 14.2605 169.961C14.2605 165.282 18.054 161.488 22.7336 161.488C27.4132 161.488 31.2068 165.282 31.2068 169.961Z" fill="#22B5CB"/>
<path d="M23.232 196.876C23.232 201.556 19.4385 205.349 14.7589 205.349C10.0793 205.349 6.28574 201.556 6.28574 196.876C6.28574 192.197 10.0793 188.403 14.7589 188.403C19.4385 188.403 23.232 192.197 23.232 196.876Z" fill="#22B5CB"/>
<path d="M19.2447 226.781C19.2447 231.461 15.4511 235.255 10.7715 235.255C6.09193 235.255 2.29837 231.461 2.29837 226.781C2.29837 222.102 6.09193 218.308 10.7715 218.308C15.4511 218.308 19.2447 222.102 19.2447 226.781Z" fill="#22B5CB"/>
<path d="M17.251 255.69C17.251 260.369 13.4574 264.163 8.77784 264.163C4.09825 264.163 0.304688 260.369 0.304688 255.69C0.304688 251.01 4.09825 247.217 8.77784 247.217C13.4574 247.217 17.251 251.01 17.251 255.69Z" fill="#22B5CB"/>
<path d="M19.2447 282.605C19.2447 287.284 15.4511 291.078 10.7715 291.078C6.09193 291.078 2.29837 287.284 2.29837 282.605C2.29837 277.925 6.09193 274.131 10.7715 274.131C15.4511 274.131 19.2447 277.925 19.2447 282.605Z" fill="#22B5CB"/>
<path d="M23.232 311.513C23.232 316.193 19.4385 319.986 14.7589 319.986C10.0793 319.986 6.28574 316.193 6.28574 311.513C6.28574 306.833 10.0793 303.04 14.7589 303.04C19.4385 303.04 23.232 306.833 23.232 311.513Z" fill="#22B5CB"/>
<path d="M32.2036 338.428C32.2036 343.107 28.4101 346.901 23.7305 346.901C19.0509 346.901 15.2573 343.107 15.2573 338.428C15.2573 333.748 19.0509 329.955 23.7305 329.955C28.4101 329.955 32.2036 333.748 32.2036 338.428Z" fill="#22B5CB"/>
<path d="M43.1689 364.346C43.1689 369.025 39.3753 372.819 34.6957 372.819C30.0161 372.819 26.2226 369.025 26.2226 364.346C26.2226 359.666 30.0161 355.872 34.6957 355.872C39.3753 355.872 43.1689 359.666 43.1689 364.346Z" fill="#22B5CB"/>
<path d="M58.1215 389.267C58.1215 393.946 54.3279 397.74 49.6483 397.74C44.9687 397.74 41.1752 393.946 41.1752 389.267C41.1752 384.587 44.9687 380.793 49.6483 380.793C54.3279 380.793 58.1215 384.587 58.1215 389.267Z" fill="#22B5CB"/>
<path d="M75.0678 412.194C75.0678 416.874 71.2742 420.667 66.5946 420.667C61.9151 420.667 58.1215 416.874 58.1215 412.194C58.1215 407.514 61.9151 403.721 66.5946 403.721C71.2742 403.721 75.0678 407.514 75.0678 412.194Z" fill="#22B5CB"/>
<path d="M95.0046 434.124C95.0046 438.804 91.2111 442.598 86.5315 442.598C81.8519 442.598 78.0583 438.804 78.0583 434.124C78.0583 429.445 81.8519 425.651 86.5315 425.651C91.2111 425.651 95.0046 429.445 95.0046 434.124Z" fill="#22B5CB"/>
<path d="M115.938 451.071C115.938 455.75 112.145 459.544 107.465 459.544C102.786 459.544 98.992 455.75 98.992 451.071C98.992 446.391 102.786 442.598 107.465 442.598C112.145 442.598 115.938 446.391 115.938 451.071Z" fill="#22B5CB"/>
<path d="M139.862 468.017C139.862 472.697 136.069 476.49 131.389 476.49C126.71 476.49 122.916 472.697 122.916 468.017C122.916 463.337 126.71 459.544 131.389 459.544C136.069 459.544 139.862 463.337 139.862 468.017Z" fill="#22B5CB"/>
<path d="M166.777 479.979C166.777 484.659 162.984 488.452 158.304 488.452C153.624 488.452 149.831 484.659 149.831 479.979C149.831 475.3 153.624 471.506 158.304 471.506C162.984 471.506 166.777 475.3 166.777 479.979Z" fill="#22B5CB"/>
<path d="M142.853 228.775C142.853 231.253 140.845 233.261 138.367 233.261C135.89 233.261 133.881 231.253 133.881 228.775C133.881 226.298 135.89 224.289 138.367 224.289C140.845 224.289 142.853 226.298 142.853 228.775Z" fill="#22B5CB"/>
<path d="M148.834 214.819C148.834 217.297 146.826 219.305 144.348 219.305C141.871 219.305 139.862 217.297 139.862 214.819C139.862 212.342 141.871 210.334 144.348 210.334C146.826 210.334 148.834 212.342 148.834 214.819Z" fill="#22B5CB"/>
<path d="M157.806 201.86C157.806 204.338 155.797 206.346 153.32 206.346C150.842 206.346 148.834 204.338 148.834 201.86C148.834 199.383 150.842 197.375 153.32 197.375C155.797 197.375 157.806 199.383 157.806 201.86Z" fill="#22B5CB"/>
<path d="M166.777 189.898C166.777 192.376 164.769 194.384 162.291 194.384C159.814 194.384 157.806 192.376 157.806 189.898C157.806 187.421 159.814 185.413 162.291 185.413C164.769 185.413 166.777 187.421 166.777 189.898Z" fill="#22B5CB"/>
<path d="M177.742 179.93C177.742 182.407 175.734 184.416 173.257 184.416C170.779 184.416 168.771 182.407 168.771 179.93C168.771 177.452 170.779 175.444 173.257 175.444C175.734 175.444 177.742 177.452 177.742 179.93Z" fill="#22B5CB"/>
<path d="M189.705 170.958C189.705 173.436 187.696 175.444 185.219 175.444C182.741 175.444 180.733 173.436 180.733 170.958C180.733 168.481 182.741 166.473 185.219 166.473C187.696 166.473 189.705 168.481 189.705 170.958Z" fill="#22B5CB"/>
<path d="M203.66 162.984C203.66 165.461 201.652 167.469 199.175 167.469C196.697 167.469 194.689 165.461 194.689 162.984C194.689 160.506 196.697 158.498 199.175 158.498C201.652 158.498 203.66 160.506 203.66 162.984Z" fill="#22B5CB"/>
<path d="M217.616 157.999C217.616 160.477 215.608 162.485 213.13 162.485C210.653 162.485 208.645 160.477 208.645 157.999C208.645 155.522 210.653 153.514 213.13 153.514C215.608 153.514 217.616 155.522 217.616 157.999Z" fill="#22B5CB"/>
<path d="M231.572 154.012C231.572 156.489 229.564 158.498 227.086 158.498C224.609 158.498 222.6 156.489 222.6 154.012C222.6 151.535 224.609 149.526 227.086 149.526C229.564 149.526 231.572 151.535 231.572 154.012Z" fill="#22B5CB"/>
<path d="M247.521 152.018C247.521 154.496 245.513 156.504 243.036 156.504C240.558 156.504 238.55 154.496 238.55 152.018C238.55 149.541 240.558 147.533 243.036 147.533C245.513 147.533 247.521 149.541 247.521 152.018Z" fill="#22B5CB"/>
<path d="M262.474 151.021C262.474 153.499 260.466 155.507 257.988 155.507C255.511 155.507 253.502 153.499 253.502 151.021C253.502 148.544 255.511 146.536 257.988 146.536C260.466 146.536 262.474 148.544 262.474 151.021Z" fill="#22B5CB"/>
<path d="M277.427 153.015C277.427 155.493 275.418 157.501 272.941 157.501C270.463 157.501 268.455 155.493 268.455 153.015C268.455 150.538 270.463 148.529 272.941 148.529C275.418 148.529 277.427 150.538 277.427 153.015Z" fill="#22B5CB"/>
<path d="M292.379 156.006C292.379 158.483 290.371 160.491 287.893 160.491C285.416 160.491 283.408 158.483 283.408 156.006C283.408 153.528 285.416 151.52 287.893 151.52C290.371 151.52 292.379 153.528 292.379 156.006Z" fill="#22B5CB"/>
<path d="M307.332 160.99C307.332 163.467 305.324 165.476 302.846 165.476C300.369 165.476 298.36 163.467 298.36 160.99C298.36 158.512 300.369 156.504 302.846 156.504C305.324 156.504 307.332 158.512 307.332 160.99Z" fill="#22B5CB"/>
<path d="M321.288 168.965C321.288 171.442 319.279 173.45 316.802 173.45C314.324 173.45 312.316 171.442 312.316 168.965C312.316 166.487 314.324 164.479 316.802 164.479C319.279 164.479 321.288 166.487 321.288 168.965Z" fill="#22B5CB"/>
<path d="M334.247 176.939C334.247 179.417 332.238 181.425 329.761 181.425C327.283 181.425 325.275 179.417 325.275 176.939C325.275 174.462 327.283 172.454 329.761 172.454C332.238 172.454 334.247 174.462 334.247 176.939Z" fill="#22B5CB"/>
<path d="M347.206 186.908C347.206 189.385 345.197 191.394 342.72 191.394C340.242 191.394 338.234 189.385 338.234 186.908C338.234 184.43 340.242 182.422 342.72 182.422C345.197 182.422 347.206 184.43 347.206 186.908Z" fill="#22B5CB"/>
<path d="M358.171 197.873C358.171 200.35 356.162 202.359 353.685 202.359C351.208 202.359 349.199 200.35 349.199 197.873C349.199 195.396 351.208 193.387 353.685 193.387C356.162 193.387 358.171 195.396 358.171 197.873Z" fill="#22B5CB"/>
<path d="M368.139 210.832C368.139 213.309 366.131 215.318 363.653 215.318C361.176 215.318 359.168 213.309 359.168 210.832C359.168 208.355 361.176 206.346 363.653 206.346C366.131 206.346 368.139 208.355 368.139 210.832Z" fill="#22B5CB"/>
<path d="M377.111 224.788C377.111 227.265 375.102 229.274 372.625 229.274C370.148 229.274 368.139 227.265 368.139 224.788C368.139 222.31 370.148 220.302 372.625 220.302C375.102 220.302 377.111 222.31 377.111 224.788Z" fill="#22B5CB"/>
<path d="M384.089 238.744C384.089 241.221 382.08 243.229 379.603 243.229C377.125 243.229 375.117 241.221 375.117 238.744C375.117 236.266 377.125 234.258 379.603 234.258C382.08 234.258 384.089 236.266 384.089 238.744Z" fill="#22B5CB"/>
<path d="M389.073 253.696C389.073 256.174 387.064 258.182 384.587 258.182C382.11 258.182 380.101 256.174 380.101 253.696C380.101 251.219 382.11 249.21 384.587 249.21C387.064 249.21 389.073 251.219 389.073 253.696Z" fill="#22B5CB"/>
<path d="M393.06 269.646C393.06 272.123 391.052 274.131 388.574 274.131C386.097 274.131 384.089 272.123 384.089 269.646C384.089 267.168 386.097 265.16 388.574 265.16C391.052 265.16 393.06 267.168 393.06 269.646Z" fill="#22B5CB"/>
<path d="M395.054 285.595C395.054 288.073 393.046 290.081 390.568 290.081C388.091 290.081 386.082 288.073 386.082 285.595C386.082 283.118 388.091 281.109 390.568 281.109C393.046 281.109 395.054 283.118 395.054 285.595Z" fill="#22B5CB"/>
<path d="M395.054 301.545C395.054 304.022 393.046 306.03 390.568 306.03C388.091 306.03 386.082 304.022 386.082 301.545C386.082 299.067 388.091 297.059 390.568 297.059C393.046 297.059 395.054 299.067 395.054 301.545Z" fill="#22B5CB"/>
<path d="M394.057 317.494C394.057 319.971 392.049 321.98 389.571 321.98C387.094 321.98 385.085 319.971 385.085 317.494C385.085 315.017 387.094 313.008 389.571 313.008C392.049 313.008 394.057 315.017 394.057 317.494Z" fill="#22B5CB"/>
<path d="M390.07 332.447C390.07 334.924 388.061 336.932 385.584 336.932C383.106 336.932 381.098 334.924 381.098 332.447C381.098 329.969 383.106 327.961 385.584 327.961C388.061 327.961 390.07 329.969 390.07 332.447Z" fill="#22B5CB"/>
<path d="M385.085 347.399C385.085 349.877 383.077 351.885 380.6 351.885C378.122 351.885 376.114 349.877 376.114 347.399C376.114 344.922 378.122 342.913 380.6 342.913C383.077 342.913 385.085 344.922 385.085 347.399Z" fill="#22B5CB"/>
<path d="M378.108 361.355C378.108 363.832 376.099 365.841 373.622 365.841C371.144 365.841 369.136 363.832 369.136 361.355C369.136 358.878 371.144 356.869 373.622 356.869C376.099 356.869 378.108 358.878 378.108 361.355Z" fill="#22B5CB"/>
<path d="M370.133 374.314C370.133 376.791 368.125 378.8 365.647 378.8C363.17 378.8 361.161 376.791 361.161 374.314C361.161 371.837 363.17 369.828 365.647 369.828C368.125 369.828 370.133 371.837 370.133 374.314Z" fill="#22B5CB"/>
<path d="M361.161 386.276C361.161 388.753 359.153 390.762 356.676 390.762C354.198 390.762 352.19 388.753 352.19 386.276C352.19 383.799 354.198 381.79 356.676 381.79C359.153 381.79 361.161 383.799 361.161 386.276Z" fill="#22B5CB"/>
<path d="M350.196 396.244C350.196 398.722 348.188 400.73 345.71 400.73C343.233 400.73 341.224 398.722 341.224 396.244C341.224 393.767 343.233 391.759 345.71 391.759C348.188 391.759 350.196 393.767 350.196 396.244Z" fill="#22B5CB"/>
<path d="M338.234 405.216C338.234 407.693 336.226 409.702 333.748 409.702C331.271 409.702 329.262 407.693 329.262 405.216C329.262 402.739 331.271 400.73 333.748 400.73C336.226 400.73 338.234 402.739 338.234 405.216Z" fill="#22B5CB"/>
<path d="M324.278 413.191C324.278 415.668 322.27 417.677 319.792 417.677C317.315 417.677 315.307 415.668 315.307 413.191C315.307 410.713 317.315 408.705 319.792 408.705C322.27 408.705 324.278 410.713 324.278 413.191Z" fill="#22B5CB"/>
<path d="M310.322 418.175C310.322 420.652 308.314 422.661 305.837 422.661C303.359 422.661 301.351 420.652 301.351 418.175C301.351 415.698 303.359 413.689 305.837 413.689C308.314 413.689 310.322 415.698 310.322 418.175Z" fill="#22B5CB"/>
<path d="M296.367 422.162C296.367 424.64 294.358 426.648 291.881 426.648C289.403 426.648 287.395 424.64 287.395 422.162C287.395 419.685 289.403 417.677 291.881 417.677C294.358 417.677 296.367 419.685 296.367 422.162Z" fill="#22B5CB"/>
<path d="M265.465 425.153C265.465 427.63 263.456 429.639 260.979 429.639C258.501 429.639 256.493 427.63 256.493 425.153C256.493 422.675 258.501 420.667 260.979 420.667C263.456 420.667 265.465 422.675 265.465 425.153Z" fill="#22B5CB"/>
<path d="M250.512 423.159C250.512 425.637 248.504 427.645 246.026 427.645C243.549 427.645 241.54 425.637 241.54 423.159C241.54 420.682 243.549 418.673 246.026 418.673C248.504 418.673 250.512 420.682 250.512 423.159Z" fill="#22B5CB"/>
<path d="M235.559 420.169C235.559 422.646 233.551 424.654 231.073 424.654C228.596 424.654 226.588 422.646 226.588 420.169C226.588 417.691 228.596 415.683 231.073 415.683C233.551 415.683 235.559 417.691 235.559 420.169Z" fill="#22B5CB"/>
<path d="M220.607 414.188C220.607 416.665 218.598 418.673 216.121 418.673C213.643 418.673 211.635 416.665 211.635 414.188C211.635 411.71 213.643 409.702 216.121 409.702C218.598 409.702 220.607 411.71 220.607 414.188Z" fill="#22B5CB"/>
<path d="M206.651 407.21C206.651 409.687 204.643 411.696 202.165 411.696C199.688 411.696 197.679 409.687 197.679 407.21C197.679 404.732 199.688 402.724 202.165 402.724C204.643 402.724 206.651 404.732 206.651 407.21Z" fill="#22B5CB"/>
<path d="M192.695 399.235C192.695 401.712 190.687 403.721 188.209 403.721C185.732 403.721 183.724 401.712 183.724 399.235C183.724 396.758 185.732 394.749 188.209 394.749C190.687 394.749 192.695 396.758 192.695 399.235Z" fill="#22B5CB"/>
<path d="M180.733 389.267C180.733 391.744 178.725 393.752 176.247 393.752C173.77 393.752 171.761 391.744 171.761 389.267C171.761 386.789 173.77 384.781 176.247 384.781C178.725 384.781 180.733 386.789 180.733 389.267Z" fill="#22B5CB"/>
<path d="M169.768 377.305C169.768 379.782 167.759 381.79 165.282 381.79C162.805 381.79 160.796 379.782 160.796 377.305C160.796 374.827 162.805 372.819 165.282 372.819C167.759 372.819 169.768 374.827 169.768 377.305Z" fill="#22B5CB"/>
<path d="M159.799 365.342C159.799 367.82 157.791 369.828 155.314 369.828C152.836 369.828 150.828 367.82 150.828 365.342C150.828 362.865 152.836 360.857 155.314 360.857C157.791 360.857 159.799 362.865 159.799 365.342Z" fill="#22B5CB"/>
<path d="M150.828 351.387C150.828 353.864 148.819 355.872 146.342 355.872C143.865 355.872 141.856 353.864 141.856 351.387C141.856 348.909 143.865 346.901 146.342 346.901C148.819 346.901 150.828 348.909 150.828 351.387Z" fill="#22B5CB"/>
<path d="M143.85 336.434C143.85 338.911 141.842 340.92 139.364 340.92C136.887 340.92 134.878 338.911 134.878 336.434C134.878 333.957 136.887 331.948 139.364 331.948C141.842 331.948 143.85 333.957 143.85 336.434Z" fill="#22B5CB"/>
<path d="M138.866 321.481C138.866 323.959 136.857 325.967 134.38 325.967C131.902 325.967 129.894 323.959 129.894 321.481C129.894 319.004 131.902 316.996 134.38 316.996C136.857 316.996 138.866 319.004 138.866 321.481Z" fill="#22B5CB"/>
<path d="M134.878 305.532C134.878 308.009 132.87 310.018 130.393 310.018C127.915 310.018 125.907 308.009 125.907 305.532C125.907 303.054 127.915 301.046 130.393 301.046C132.87 301.046 134.878 303.054 134.878 305.532Z" fill="#22B5CB"/>
<path d="M132.885 290.579C132.885 293.057 130.876 295.065 128.399 295.065C125.921 295.065 123.913 293.057 123.913 290.579C123.913 288.102 125.921 286.094 128.399 286.094C130.876 286.094 132.885 288.102 132.885 290.579Z" fill="#22B5CB"/>
<path d="M132.885 274.63C132.885 277.107 130.876 279.116 128.399 279.116C125.921 279.116 123.913 277.107 123.913 274.63C123.913 272.152 125.921 270.144 128.399 270.144C130.876 270.144 132.885 272.152 132.885 274.63Z" fill="#22B5CB"/>
<path d="M133.881 258.68C133.881 261.158 131.873 263.166 129.396 263.166C126.918 263.166 124.91 261.158 124.91 258.68C124.91 256.203 126.918 254.195 129.396 254.195C131.873 254.195 133.881 256.203 133.881 258.68Z" fill="#22B5CB"/>
<path d="M137.869 242.731C137.869 245.208 135.86 247.217 133.383 247.217C130.906 247.217 128.897 245.208 128.897 242.731C128.897 240.253 130.906 238.245 133.383 238.245C135.86 238.245 137.869 240.253 137.869 242.731Z" fill="#22B5CB"/>
<path d="M281.414 424.156C281.414 426.633 279.406 428.642 276.928 428.642C274.451 428.642 272.442 426.633 272.442 424.156C272.442 421.679 274.451 419.67 276.928 419.67C279.406 419.67 281.414 421.679 281.414 424.156Z" fill="#22B5CB"/>
</svg>
