<svg width="40" height="50" viewBox="0 0 40 50" fill="none" xmlns="http://www.w3.org/2000/svg">
<path d="M22.7737 18.9629C25.5514 20.3083 27.6671 22.3013 28.8531 24.4119C30.0398 26.5243 30.2758 28.7083 29.4041 30.5079C28.5324 32.3076 26.6724 33.4764 24.2792 33.8547C21.8879 34.2326 19.0124 33.808 16.2348 32.4626C13.4572 31.1172 11.3414 29.1241 10.1555 27.0135C8.96874 24.9011 8.73279 22.7171 9.60449 20.9175C10.4762 19.1179 12.3361 17.9491 14.7293 17.5707C17.1207 17.1929 19.9961 17.6175 22.7737 18.9629Z" fill="#92DEFD" stroke="#16A6E1"/>
<ellipse cx="16.3543" cy="24.187" rx="7" ry="6" transform="rotate(25.8444 16.3543 24.187)" fill="#92DEFD"/>
<mask id="path-3-inside-1_4_304" fill="white">
<path fill-rule="evenodd" clip-rule="evenodd" d="M28.8135 19.1105L18.9137 14.3153L14.6634 23.0901L14.461 23.508L14.5111 23.5323C14.1676 25.1159 15.7028 27.2048 18.1965 28.4127C20.6902 29.6205 23.2809 29.5302 24.3106 28.2789L24.3608 28.3032L24.5632 27.8853L28.8135 19.1105Z"/>
</mask>
<path fill-rule="evenodd" clip-rule="evenodd" d="M28.8135 19.1105L18.9137 14.3153L14.6634 23.0901L14.461 23.508L14.5111 23.5323C14.1676 25.1159 15.7028 27.2048 18.1965 28.4127C20.6902 29.6205 23.2809 29.5302 24.3106 28.2789L24.3608 28.3032L24.5632 27.8853L28.8135 19.1105Z" fill="#1ABCFE"/>
<path d="M18.9137 14.3153L19.3496 13.4153L18.4496 12.9794L18.0137 13.8794L18.9137 14.3153ZM28.8135 19.1105L29.7134 19.5464L30.1494 18.6465L29.2494 18.2105L28.8135 19.1105ZM14.461 23.508L13.561 23.072L13.1251 23.972L14.025 24.408L14.461 23.508ZM14.5111 23.5323L15.4884 23.7442L15.6551 22.9753L14.947 22.6323L14.5111 23.5323ZM24.3106 28.2789L24.7466 27.3789L24.0384 27.0359L23.5385 27.6435L24.3106 28.2789ZM24.3608 28.3032L23.9248 29.2032L24.8248 29.6391L25.2607 28.7391L24.3608 28.3032ZM18.4777 15.2153L28.3775 20.0105L29.2494 18.2105L19.3496 13.4153L18.4777 15.2153ZM15.5633 23.5261L19.8137 14.7512L18.0137 13.8794L13.7634 22.6542L15.5633 23.5261ZM15.361 23.9439L15.5633 23.5261L13.7634 22.6542L13.561 23.072L15.361 23.9439ZM14.947 22.6323L14.8969 22.608L14.025 24.408L14.0752 24.4322L14.947 22.6323ZM18.6324 27.5127C17.509 26.9685 16.6344 26.2403 16.0902 25.5139C15.5311 24.7675 15.4017 24.1438 15.4884 23.7442L13.5338 23.3203C13.277 24.5044 13.7435 25.7169 14.4895 26.7129C15.2505 27.7288 16.3903 28.6489 17.7606 29.3127L18.6324 27.5127ZM23.5385 27.6435C23.2787 27.9592 22.709 28.2443 21.7768 28.2683C20.8695 28.2917 19.7558 28.0568 18.6324 27.5127L17.7606 29.3127C19.1308 29.9764 20.5594 30.3003 21.8283 30.2676C23.0723 30.2356 24.3129 29.8499 25.0828 28.9143L23.5385 27.6435ZM24.7967 27.4032L24.7466 27.3789L23.8747 29.1789L23.9248 29.2032L24.7967 27.4032ZM23.6632 27.4494L23.4608 27.8673L25.2607 28.7391L25.4631 28.3213L23.6632 27.4494ZM27.9135 18.6746L23.6632 27.4494L25.4631 28.3213L29.7134 19.5464L27.9135 18.6746Z" fill="#16A6E1" mask="url(#path-3-inside-1_4_304)"/>
<rect x="19.3777" y="15.6512" width="2" height="7" transform="rotate(25.8444 19.3777 15.6512)" fill="#92DEFD"/>
<path d="M29.3127 5.4632C33.891 7.68084 36.0011 12.3004 34.361 15.6864C32.7209 19.0724 27.788 20.2806 23.2097 18.0629C18.6313 15.8453 16.5213 11.2257 18.1613 7.83971C19.8014 4.45372 24.7343 3.24555 29.3127 5.4632Z" fill="#1ABCFE" stroke="#16A6E1"/>
<ellipse cx="23.5472" cy="9.33731" rx="4" ry="3.5" transform="rotate(25.8444 23.5472 9.33731)" fill="#92DEFD"/>
<rect x="14.6669" y="32.2587" width="2" height="13" transform="rotate(25.8444 14.6669 32.2587)" fill="#DDDADA"/>
</svg>
