<svg width="170" height="142" viewBox="0 0 170 142" fill="none" xmlns="http://www.w3.org/2000/svg">
<g filter="url(#filter0_dddd_3_63)">
<rect width="144" height="96" rx="8" transform="matrix(1 0 0 -1 13 99)" fill="#E29B00"/>
<rect x="-0.5" y="0.5" width="145" height="97" rx="8.5" transform="matrix(1 0 0 -1 13 100)" stroke="#E49C00"/>
</g>
<mask id="mask0_3_63" style="mask-type:alpha" maskUnits="userSpaceOnUse" x="13" y="3" width="144" height="96">
<rect x="13" y="3" width="144" height="96" rx="8" fill="black"/>
</mask>
<g mask="url(#mask0_3_63)">
<g opacity="0.4">
<g filter="url(#filter1_f_3_63)">
<path d="M16 99L154 99L93.5551 44.6872C90.5309 41.9698 89.0187 40.611 87.3091 40.0956C85.8032 39.6416 84.1968 39.6416 82.6909 40.0956C80.9813 40.611 79.4691 41.9698 76.4449 44.6872L16 99Z" fill="#334155" fill-opacity="0.4"/>
</g>
<g filter="url(#filter2_f_3_63)">
<path d="M24 99L146 99L94.5281 41.6215C91.2296 37.9444 89.5803 36.1059 87.6365 35.4274C85.9294 34.8315 84.0706 34.8315 82.3635 35.4274C80.4197 36.1059 78.7704 37.9444 75.4719 41.6215L24 99Z" fill="#334155" fill-opacity="0.2"/>
</g>
<g filter="url(#filter3_f_3_63)">
<path d="M16 99L154 99L94.3617 35.0401C91.1077 31.5502 89.4806 29.8053 87.5783 29.1576C85.9065 28.5885 84.0935 28.5885 82.4217 29.1576C80.5194 29.8053 78.8924 31.5502 75.6383 35.0401L16 99Z" fill="#334155" fill-opacity="0.1"/>
</g>
</g>
<g filter="url(#filter4_i_3_63)">
<path d="M13 99.0002L157 99.0002L93.3523 44.1923C90.389 41.6405 88.9073 40.3647 87.2444 39.8786C85.7788 39.4502 84.2212 39.4502 82.7556 39.8786C81.0927 40.3647 79.611 41.6405 76.6477 44.1923L13 99.0002Z" fill="#E49C00"/>
</g>
<path d="M14.5 97L76.6546 43.6617C79.616 41.1203 81.0967 39.8496 82.7575 39.3661C84.2211 38.9399 85.7761 38.9408 87.2393 39.3686C88.8994 39.8541 90.3787 41.1264 93.3373 43.6712L156.5 98" stroke="#475569" stroke-opacity="0.06"/>
<g style="mix-blend-mode:multiply" opacity="0.7">
<g filter="url(#filter5_f_3_63)">
<path d="M16 3L154 3L93.5551 57.3128C90.5309 60.0302 89.0187 61.389 87.3091 61.9044C85.8032 62.3584 84.1968 62.3584 82.6909 61.9044C80.9813 61.389 79.4691 60.0302 76.4449 57.3128L16 3Z" fill="#334155" fill-opacity="0.4"/>
</g>
<g filter="url(#filter6_f_3_63)">
<path d="M24 3L146 3L94.5281 60.3785C91.2296 64.0556 89.5803 65.8941 87.6365 66.5726C85.9294 67.1685 84.0706 67.1685 82.3635 66.5726C80.4197 65.8941 78.7704 64.0556 75.4719 60.3785L24 3Z" fill="#334155" fill-opacity="0.2"/>
</g>
<g filter="url(#filter7_f_3_63)">
<path d="M16 3L154 3L94.3617 66.9599C91.1077 70.4498 89.4806 72.1947 87.5783 72.8424C85.9065 73.4115 84.0935 73.4115 82.4217 72.8424C80.5194 72.1947 78.8924 70.4498 75.6383 66.9599L16 3Z" fill="#334155" fill-opacity="0.1"/>
</g>
<g filter="url(#filter8_f_3_63)">
<path d="M21 3L149 3L89.4282 68.1567C87.0493 70.7585 82.9507 70.7585 80.5718 68.1567L21 3Z" fill="#334155" fill-opacity="0.05"/>
</g>
<g filter="url(#filter9_f_3_63)">
<path d="M15 2L155 2L89.0827 63.2089C86.7806 65.3466 83.2194 65.3466 80.9173 63.2089L15 2Z" fill="#334155" fill-opacity="0.1"/>
</g>
</g>
<path d="M14.5 5L76.6546 58.3383C79.616 60.8797 81.0967 62.1504 82.7575 62.6339C84.2211 63.0601 85.7761 63.0592 87.2393 62.6314C88.8994 62.1459 90.3787 60.8736 93.3373 58.3288L156.5 4" stroke="#475569" stroke-opacity="0.06"/>
<g filter="url(#filter10_i_3_63)">
<path d="M13 3L157 3L93.3523 57.8077C90.389 60.3595 88.9073 61.6354 87.2444 62.1214C85.7788 62.5498 84.2212 62.5498 82.7556 62.1214C81.0927 61.6354 79.611 60.3595 76.6477 57.8077L13 3Z" fill="#E49C00"/>
</g>
<g filter="url(#filter11_f_3_63)">
<rect x="13" y="3" width="144" height="96" stroke="#DB9803" stroke-width="16"/>
</g>
<rect x="13.5" y="3.5" width="143" height="95" rx="7.5" stroke="white" stroke-opacity="0.4"/>
</g>
<defs>
<filter id="filter0_dddd_3_63" x="0" y="0" width="170" height="142" filterUnits="userSpaceOnUse" color-interpolation-filters="sRGB">
<feFlood flood-opacity="0" result="BackgroundImageFix"/>
<feColorMatrix in="SourceAlpha" type="matrix" values="0 0 0 0 0 0 0 0 0 0 0 0 0 0 0 0 0 0 127 0" result="hardAlpha"/>
<feOffset dy="2"/>
<feGaussianBlur stdDeviation="2"/>
<feColorMatrix type="matrix" values="0 0 0 0 0.117647 0 0 0 0 0.160784 0 0 0 0 0.231373 0 0 0 0.08 0"/>
<feBlend mode="normal" in2="BackgroundImageFix" result="effect1_dropShadow_3_63"/>
<feColorMatrix in="SourceAlpha" type="matrix" values="0 0 0 0 0 0 0 0 0 0 0 0 0 0 0 0 0 0 127 0" result="hardAlpha"/>
<feOffset dy="8"/>
<feGaussianBlur stdDeviation="4"/>
<feColorMatrix type="matrix" values="0 0 0 0 0.117647 0 0 0 0 0.160784 0 0 0 0 0.231373 0 0 0 0.07 0"/>
<feBlend mode="normal" in2="effect1_dropShadow_3_63" result="effect2_dropShadow_3_63"/>
<feColorMatrix in="SourceAlpha" type="matrix" values="0 0 0 0 0 0 0 0 0 0 0 0 0 0 0 0 0 0 127 0" result="hardAlpha"/>
<feOffset dy="17"/>
<feGaussianBlur stdDeviation="5"/>
<feColorMatrix type="matrix" values="0 0 0 0 0.117647 0 0 0 0 0.160784 0 0 0 0 0.231373 0 0 0 0.04 0"/>
<feBlend mode="normal" in2="effect2_dropShadow_3_63" result="effect3_dropShadow_3_63"/>
<feColorMatrix in="SourceAlpha" type="matrix" values="0 0 0 0 0 0 0 0 0 0 0 0 0 0 0 0 0 0 127 0" result="hardAlpha"/>
<feOffset dy="30"/>
<feGaussianBlur stdDeviation="6"/>
<feColorMatrix type="matrix" values="0 0 0 0 0.117647 0 0 0 0 0.160784 0 0 0 0 0.231373 0 0 0 0.01 0"/>
<feBlend mode="normal" in2="effect3_dropShadow_3_63" result="effect4_dropShadow_3_63"/>
<feBlend mode="normal" in="SourceGraphic" in2="effect4_dropShadow_3_63" result="shape"/>
</filter>
<filter id="filter1_f_3_63" x="12" y="35.7552" width="146" height="67.2448" filterUnits="userSpaceOnUse" color-interpolation-filters="sRGB">
<feFlood flood-opacity="0" result="BackgroundImageFix"/>
<feBlend mode="normal" in="SourceGraphic" in2="BackgroundImageFix" result="shape"/>
<feGaussianBlur stdDeviation="2" result="effect1_foregroundBlur_3_63"/>
</filter>
<filter id="filter2_f_3_63" x="12" y="22.9805" width="146" height="88.0195" filterUnits="userSpaceOnUse" color-interpolation-filters="sRGB">
<feFlood flood-opacity="0" result="BackgroundImageFix"/>
<feBlend mode="normal" in="SourceGraphic" in2="BackgroundImageFix" result="shape"/>
<feGaussianBlur stdDeviation="6" result="effect1_foregroundBlur_3_63"/>
</filter>
<filter id="filter3_f_3_63" x="-8" y="4.7308" width="186" height="118.269" filterUnits="userSpaceOnUse" color-interpolation-filters="sRGB">
<feFlood flood-opacity="0" result="BackgroundImageFix"/>
<feBlend mode="normal" in="SourceGraphic" in2="BackgroundImageFix" result="shape"/>
<feGaussianBlur stdDeviation="12" result="effect1_foregroundBlur_3_63"/>
</filter>
<filter id="filter4_i_3_63" x="13" y="39.5573" width="144" height="59.4429" filterUnits="userSpaceOnUse" color-interpolation-filters="sRGB">
<feFlood flood-opacity="0" result="BackgroundImageFix"/>
<feBlend mode="normal" in="SourceGraphic" in2="BackgroundImageFix" result="shape"/>
<feColorMatrix in="SourceAlpha" type="matrix" values="0 0 0 0 0 0 0 0 0 0 0 0 0 0 0 0 0 0 127 0" result="hardAlpha"/>
<feOffset dy="1"/>
<feComposite in2="hardAlpha" operator="arithmetic" k2="-1" k3="1"/>
<feColorMatrix type="matrix" values="0 0 0 0 1 0 0 0 0 1 0 0 0 0 1 0 0 0 0.6 0"/>
<feBlend mode="normal" in2="shape" result="effect1_innerShadow_3_63"/>
</filter>
<filter id="filter5_f_3_63" x="12" y="-1" width="146" height="67.2448" filterUnits="userSpaceOnUse" color-interpolation-filters="sRGB">
<feFlood flood-opacity="0" result="BackgroundImageFix"/>
<feBlend mode="normal" in="SourceGraphic" in2="BackgroundImageFix" result="shape"/>
<feGaussianBlur stdDeviation="2" result="effect1_foregroundBlur_3_63"/>
</filter>
<filter id="filter6_f_3_63" x="12" y="-9" width="146" height="88.0195" filterUnits="userSpaceOnUse" color-interpolation-filters="sRGB">
<feFlood flood-opacity="0" result="BackgroundImageFix"/>
<feBlend mode="normal" in="SourceGraphic" in2="BackgroundImageFix" result="shape"/>
<feGaussianBlur stdDeviation="6" result="effect1_foregroundBlur_3_63"/>
</filter>
<filter id="filter7_f_3_63" x="-8" y="-21" width="186" height="118.269" filterUnits="userSpaceOnUse" color-interpolation-filters="sRGB">
<feFlood flood-opacity="0" result="BackgroundImageFix"/>
<feBlend mode="normal" in="SourceGraphic" in2="BackgroundImageFix" result="shape"/>
<feGaussianBlur stdDeviation="12" result="effect1_foregroundBlur_3_63"/>
</filter>
<filter id="filter8_f_3_63" x="11" y="-7" width="148" height="87.1081" filterUnits="userSpaceOnUse" color-interpolation-filters="sRGB">
<feFlood flood-opacity="0" result="BackgroundImageFix"/>
<feBlend mode="normal" in="SourceGraphic" in2="BackgroundImageFix" result="shape"/>
<feGaussianBlur stdDeviation="5" result="effect1_foregroundBlur_3_63"/>
</filter>
<filter id="filter9_f_3_63" x="11" y="-2" width="148" height="70.8122" filterUnits="userSpaceOnUse" color-interpolation-filters="sRGB">
<feFlood flood-opacity="0" result="BackgroundImageFix"/>
<feBlend mode="normal" in="SourceGraphic" in2="BackgroundImageFix" result="shape"/>
<feGaussianBlur stdDeviation="2" result="effect1_foregroundBlur_3_63"/>
</filter>
<filter id="filter10_i_3_63" x="13" y="3" width="144" height="59.4427" filterUnits="userSpaceOnUse" color-interpolation-filters="sRGB">
<feFlood flood-opacity="0" result="BackgroundImageFix"/>
<feBlend mode="normal" in="SourceGraphic" in2="BackgroundImageFix" result="shape"/>
<feColorMatrix in="SourceAlpha" type="matrix" values="0 0 0 0 0 0 0 0 0 0 0 0 0 0 0 0 0 0 127 0" result="hardAlpha"/>
<feOffset dy="-1"/>
<feComposite in2="hardAlpha" operator="arithmetic" k2="-1" k3="1"/>
<feColorMatrix type="matrix" values="0 0 0 0 1 0 0 0 0 1 0 0 0 0 1 0 0 0 0.5 0"/>
<feBlend mode="normal" in2="shape" result="effect1_innerShadow_3_63"/>
</filter>
<filter id="filter11_f_3_63" x="-3" y="-13" width="176" height="128" filterUnits="userSpaceOnUse" color-interpolation-filters="sRGB">
<feFlood flood-opacity="0" result="BackgroundImageFix"/>
<feBlend mode="normal" in="SourceGraphic" in2="BackgroundImageFix" result="shape"/>
<feGaussianBlur stdDeviation="4" result="effect1_foregroundBlur_3_63"/>
</filter>
</defs>
</svg>
