<svg width="195" height="54" viewBox="0 0 195 54" fill="none" xmlns="http://www.w3.org/2000/svg">
<rect width="194.17" height="53.0578" rx="10.4775" fill="white"/>
<path d="M19.0921 34.5273V17.9602H24.69C25.9843 17.9602 27.0467 18.1813 27.8772 18.6235C28.7078 19.0604 29.3225 19.6617 29.7216 20.4275C30.1207 21.1933 30.3202 22.0642 30.3202 23.0404C30.3202 24.0165 30.1207 24.882 29.7216 25.6371C29.3225 26.3921 28.7104 26.9853 27.8853 27.4167C27.0602 27.8428 26.0059 28.0558 24.7224 28.0558H20.1923V26.2438H24.6576C25.5421 26.2438 26.254 26.1143 26.7933 25.8555C27.3379 25.5966 27.7316 25.2299 27.9743 24.7553C28.2224 24.2753 28.3464 23.7037 28.3464 23.0404C28.3464 22.377 28.2224 21.7973 27.9743 21.3011C27.7262 20.805 27.3299 20.4221 26.7852 20.1524C26.2405 19.8774 25.5205 19.7399 24.6253 19.7399H21.0983V34.5273H19.0921ZM26.8903 27.0851L30.9674 34.5273H28.6376L24.6253 27.0851H26.8903ZM38.4805 34.7862C37.2832 34.7862 36.2505 34.522 35.3822 33.9934C34.5193 33.4595 33.8533 32.7153 33.3841 31.7608C32.9203 30.8008 32.6884 29.6845 32.6884 28.4117C32.6884 27.139 32.9203 26.0173 33.3841 25.0465C33.8533 24.0704 34.5058 23.31 35.3418 22.7653C36.1831 22.2152 37.1646 21.9402 38.2863 21.9402C38.9335 21.9402 39.5725 22.0481 40.2035 22.2638C40.8345 22.4795 41.4088 22.83 41.9266 23.3154C42.4443 23.7954 42.8568 24.4317 43.1642 25.2245C43.4716 26.0173 43.6253 26.9934 43.6253 28.1529V28.9618H34.0474V27.3116H41.6839C41.6839 26.6105 41.5437 25.9849 41.2632 25.4348C40.9882 24.8847 40.5945 24.4506 40.0822 24.1324C39.5752 23.8142 38.9766 23.6552 38.2863 23.6552C37.5259 23.6552 36.868 23.8439 36.3125 24.2214C35.7624 24.5935 35.3391 25.0789 35.0424 25.6775C34.7458 26.2761 34.5975 26.9179 34.5975 27.6028V28.703C34.5975 29.6413 34.7593 30.4368 35.0829 31.0893C35.4119 31.7365 35.8676 32.2299 36.45 32.5697C37.0324 32.9041 37.7093 33.0712 38.4805 33.0712C38.982 33.0712 39.435 33.0011 39.8395 32.8609C40.2493 32.7153 40.6026 32.4996 40.8992 32.2138C41.1958 31.9225 41.425 31.5612 41.5868 31.1298L43.4312 31.6475C43.237 32.2731 42.9108 32.8232 42.4524 33.2978C41.994 33.7669 41.4277 34.1337 40.7536 34.3979C40.0795 34.6568 39.3218 34.7862 38.4805 34.7862ZM51.9332 22.102V23.7199H45.494V22.102H51.9332ZM47.3707 19.1251H49.2798V30.968C49.2798 31.5073 49.358 31.9118 49.5144 32.1814C49.6762 32.4457 49.8812 32.6236 50.1292 32.7153C50.3827 32.8016 50.6497 32.8447 50.9301 32.8447C51.1404 32.8447 51.313 32.834 51.4478 32.8124C51.5826 32.7854 51.6905 32.7638 51.7714 32.7477L52.1597 34.4626C52.0302 34.5112 51.8496 34.5597 51.6177 34.6082C51.3858 34.6622 51.0919 34.6891 50.7359 34.6891C50.1966 34.6891 49.6681 34.5732 49.1504 34.3413C48.6381 34.1094 48.212 33.7562 47.8723 33.2816C47.5379 32.807 47.3707 32.2084 47.3707 31.4857V19.1251ZM62.6355 29.4472V22.102H64.5446V34.5273H62.6355V32.4241H62.5061C62.2148 33.0551 61.7618 33.5917 61.147 34.0339C60.5322 34.4707 59.7556 34.6891 58.8173 34.6891C58.0407 34.6891 57.3504 34.5193 56.7464 34.1795C56.1424 33.8343 55.6678 33.3166 55.3226 32.6263C54.9775 31.9306 54.8049 31.0543 54.8049 29.9973V22.102H56.714V29.8678C56.714 30.7738 56.9675 31.4965 57.4744 32.0358C57.9868 32.5751 58.6393 32.8447 59.4321 32.8447C59.9067 32.8447 60.3893 32.7234 60.8801 32.4807C61.3762 32.238 61.7915 31.8659 62.1259 31.3644C62.4656 30.8628 62.6355 30.2238 62.6355 29.4472ZM68.0412 34.5273V22.102H69.8856V23.9787H70.0151C70.2416 23.3639 70.6514 22.8651 71.2447 22.4822C71.8379 22.0993 72.5066 21.9078 73.2508 21.9078C73.3911 21.9078 73.5663 21.9105 73.7767 21.9159C73.987 21.9213 74.1461 21.9294 74.2539 21.9402V23.8817C74.1892 23.8655 74.0409 23.8412 73.809 23.8089C73.5825 23.7711 73.3425 23.7522 73.0891 23.7522C72.485 23.7522 71.9457 23.879 71.4712 24.1324C71.002 24.3805 70.6299 24.7257 70.3548 25.1679C70.0852 25.6047 69.9504 26.1036 69.9504 26.6644V34.5273H68.0412ZM78.4261 27.0527V34.5273H76.5169V22.102H78.3613V24.0434H78.5231C78.8143 23.4125 79.2566 22.9055 79.8498 22.5226C80.443 22.1343 81.2088 21.9402 82.1472 21.9402C82.9885 21.9402 83.7246 22.1128 84.3556 22.4579C84.9866 22.7977 85.4773 23.3154 85.8279 24.0111C86.1784 24.7014 86.3537 25.575 86.3537 26.6321V34.5273H84.4446V26.7615C84.4446 25.7854 84.1911 25.025 83.6842 24.4803C83.1772 23.9302 82.4816 23.6552 81.5971 23.6552C80.9877 23.6552 80.443 23.7873 79.963 24.0515C79.4885 24.3158 79.1137 24.7014 78.8386 25.2083C78.5636 25.7153 78.4261 26.3301 78.4261 27.0527ZM101.653 22.102V23.7199H95.2136V22.102H101.653ZM97.0904 19.1251H98.9995V30.968C98.9995 31.5073 99.0777 31.9118 99.2341 32.1814C99.3959 32.4457 99.6008 32.6236 99.8489 32.7153C100.102 32.8016 100.369 32.8447 100.65 32.8447C100.86 32.8447 101.033 32.834 101.167 32.8124C101.302 32.7854 101.41 32.7638 101.491 32.7477L101.879 34.4626C101.75 34.5112 101.569 34.5597 101.337 34.6082C101.105 34.6622 100.812 34.6891 100.456 34.6891C99.9163 34.6891 99.3878 34.5732 98.8701 34.3413C98.3577 34.1094 97.9317 33.7562 97.5919 33.2816C97.2576 32.807 97.0904 32.2084 97.0904 31.4857V19.1251ZM109.439 34.7862C108.317 34.7862 107.333 34.5193 106.486 33.9854C105.645 33.4514 104.987 32.7045 104.512 31.7446C104.043 30.7846 103.809 29.6629 103.809 28.3794C103.809 27.0851 104.043 25.9552 104.512 24.9899C104.987 24.0246 105.645 23.2749 106.486 22.741C107.333 22.2071 108.317 21.9402 109.439 21.9402C110.561 21.9402 111.542 22.2071 112.383 22.741C113.23 23.2749 113.888 24.0246 114.357 24.9899C114.832 25.9552 115.069 27.0851 115.069 28.3794C115.069 29.6629 114.832 30.7846 114.357 31.7446C113.888 32.7045 113.23 33.4514 112.383 33.9854C111.542 34.5193 110.561 34.7862 109.439 34.7862ZM109.439 33.0712C110.291 33.0712 110.992 32.8528 111.542 32.416C112.092 31.9792 112.499 31.4048 112.764 30.693C113.028 29.9811 113.16 29.2099 113.16 28.3794C113.16 27.5489 113.028 26.775 112.764 26.0577C112.499 25.3404 112.092 24.7607 111.542 24.3185C110.992 23.8763 110.291 23.6552 109.439 23.6552C108.587 23.6552 107.886 23.8763 107.336 24.3185C106.786 24.7607 106.378 25.3404 106.114 26.0577C105.85 26.775 105.718 27.5489 105.718 28.3794C105.718 29.2099 105.85 29.9811 106.114 30.693C106.378 31.4048 106.786 31.9792 107.336 32.416C107.886 32.8528 108.587 33.0712 109.439 33.0712ZM129.762 34.5273H124.649V17.9602H129.988C131.595 17.9602 132.97 18.2919 134.114 18.9552C135.257 19.6131 136.133 20.5596 136.743 21.7946C137.352 23.0242 137.657 24.4965 137.657 26.2114C137.657 27.9372 137.349 29.4229 136.735 30.6687C136.12 31.9091 135.225 32.8636 134.049 33.5323C132.873 34.1957 131.444 34.5273 129.762 34.5273ZM126.655 32.7477H129.632C131.002 32.7477 132.137 32.4834 133.038 31.9549C133.938 31.4264 134.61 30.6741 135.052 29.698C135.494 28.7218 135.715 27.5596 135.715 26.2114C135.715 24.874 135.497 23.7226 135.06 22.7572C134.623 21.7865 133.971 21.0423 133.102 20.5245C132.234 20.0014 131.153 19.7399 129.859 19.7399H126.655V32.7477ZM145.973 34.7862C144.776 34.7862 143.743 34.522 142.875 33.9934C142.012 33.4595 141.346 32.7153 140.876 31.7608C140.413 30.8008 140.181 29.6845 140.181 28.4117C140.181 27.139 140.413 26.0173 140.876 25.0465C141.346 24.0704 141.998 23.31 142.834 22.7653C143.675 22.2152 144.657 21.9402 145.779 21.9402C146.426 21.9402 147.065 22.0481 147.696 22.2638C148.327 22.4795 148.901 22.83 149.419 23.3154C149.937 23.7954 150.349 24.4317 150.657 25.2245C150.964 26.0173 151.118 26.9934 151.118 28.1529V28.9618H141.54V27.3116H149.176C149.176 26.6105 149.036 25.9849 148.756 25.4348C148.481 24.8847 148.087 24.4506 147.574 24.1324C147.068 23.8142 146.469 23.6552 145.779 23.6552C145.018 23.6552 144.36 23.8439 143.805 24.2214C143.255 24.5935 142.831 25.0789 142.535 25.6775C142.238 26.2761 142.09 26.9179 142.09 27.6028V28.703C142.09 29.6413 142.252 30.4368 142.575 31.0893C142.904 31.7365 143.36 32.2299 143.942 32.5697C144.525 32.9041 145.202 33.0712 145.973 33.0712C146.474 33.0712 146.927 33.0011 147.332 32.8609C147.742 32.7153 148.095 32.4996 148.392 32.2138C148.688 31.9225 148.917 31.5612 149.079 31.1298L150.924 31.6475C150.729 32.2731 150.403 32.8232 149.945 33.2978C149.486 33.7669 148.92 34.1337 148.246 34.3979C147.572 34.6568 146.814 34.7862 145.973 34.7862ZM162.823 24.8847L161.108 25.3701C161 25.0843 160.841 24.8065 160.631 24.5369C160.426 24.2619 160.145 24.0354 159.79 23.8574C159.434 23.6794 158.978 23.5904 158.422 23.5904C157.662 23.5904 157.028 23.7657 156.521 24.1162C156.02 24.4614 155.769 24.9009 155.769 25.4348C155.769 25.9094 155.942 26.2842 156.287 26.5593C156.632 26.8343 157.171 27.0635 157.905 27.2469L159.749 27.6999C160.86 27.9695 161.688 28.3821 162.233 28.9375C162.777 29.4876 163.05 30.1968 163.05 31.0651C163.05 31.7769 162.845 32.4133 162.435 32.9742C162.03 33.535 161.464 33.9773 160.736 34.3008C160.008 34.6244 159.161 34.7862 158.196 34.7862C156.929 34.7862 155.88 34.5112 155.049 33.9611C154.219 33.411 153.693 32.6075 153.472 31.5504L155.284 31.0974C155.456 31.7662 155.783 32.2677 156.263 32.6021C156.748 32.9364 157.382 33.1036 158.164 33.1036C159.053 33.1036 159.76 32.9149 160.283 32.5373C160.811 32.1544 161.076 31.696 161.076 31.1621C161.076 30.7307 160.925 30.3694 160.623 30.0782C160.321 29.7815 159.857 29.5604 159.231 29.4148L157.16 28.9295C156.023 28.6598 155.187 28.2419 154.653 27.6756C154.124 27.1039 153.86 26.3894 153.86 25.5319C153.86 24.8308 154.057 24.2106 154.451 23.6713C154.85 23.132 155.392 22.7087 156.076 22.4013C156.767 22.0939 157.549 21.9402 158.422 21.9402C159.652 21.9402 160.617 22.2098 161.318 22.7491C162.025 23.2884 162.526 24.0003 162.823 24.8847ZM167.703 29.9973L167.671 27.6352H168.059L173.495 22.102H175.857L170.065 27.9587H169.903L167.703 29.9973ZM165.923 34.5273V17.9602H167.832V34.5273H165.923ZM173.819 34.5273L168.965 28.3794L170.324 27.0527L176.245 34.5273H173.819Z" fill="black"/>
</svg>
