<svg width="287" height="81" viewBox="0 0 287 81" fill="none" xmlns="http://www.w3.org/2000/svg">
<rect y="0.371094" width="286.697" height="79.6838" rx="39.8419" fill="white"/>
<path d="M63.3179 22.625C53.3414 22.625 45.2224 30.4451 45.2188 40.0557C45.2165 43.1291 46.0514 46.1286 47.6344 48.7705L45.0664 57.803L54.6618 55.3792C57.3309 56.7754 60.2987 57.5037 63.3109 57.5016H63.3179C73.2944 57.5016 81.4135 49.6804 81.417 40.0698C81.4194 35.4145 79.5385 31.0325 76.1204 27.7387C72.7034 24.4437 68.1596 22.6262 63.3179 22.625ZM63.3179 54.5572H63.3121C60.6127 54.5572 57.965 53.8584 55.655 52.538L55.1039 52.2238L49.4121 53.6614L50.9318 48.3143L50.5741 47.7667C49.0719 45.4756 48.2722 42.7954 48.2735 40.0557C48.277 32.0668 55.0265 25.5694 63.3238 25.5694C67.3411 25.5706 71.1181 27.0797 73.9593 29.8177C76.8005 32.5558 78.3636 36.1967 78.3612 40.0686C78.3577 48.0575 71.6094 54.5572 63.3168 54.5572H63.3179ZM71.5695 43.7048C71.1169 43.4879 68.8936 42.4337 68.4785 42.2872C68.0646 42.1429 67.7633 42.0679 67.4619 42.5041C67.1617 42.9403 66.294 43.9218 66.0313 44.2114C65.7663 44.5022 65.5025 44.5374 65.0499 44.3204C64.5972 44.1023 63.1397 43.6427 61.4136 42.1582C60.0687 41.0043 59.1611 39.5785 58.8972 39.1411C58.6334 38.706 58.8691 38.4703 59.0954 38.2534C59.2983 38.0599 59.548 37.7457 59.7732 37.4912C59.9983 37.2368 60.0733 37.055 60.2258 36.7642C60.3759 36.4746 60.3008 36.219 60.1871 36.002C60.0733 35.7827 59.1704 33.6392 58.7917 32.768C58.4258 31.919 58.053 32.0328 57.775 32.0187C57.5112 32.007 57.211 32.0035 56.9073 32.0035C56.6083 32.0035 56.117 32.1125 55.7019 32.5487C55.288 32.9849 54.1189 34.0379 54.1189 36.1814C54.1189 38.3261 55.7394 40.3969 55.9657 40.6877C56.192 40.9774 59.1552 45.3781 63.692 47.266C64.7708 47.7128 65.6127 47.9813 66.2705 48.183C67.354 48.5148 68.3402 48.4668 69.1188 48.3554C69.9865 48.2299 71.7947 47.3024 72.1699 46.2857C72.5475 45.2691 72.5475 44.3967 72.4349 44.2149C72.3247 44.0332 72.0221 43.9241 71.5695 43.7048V43.7048Z" fill="#5C3C6E"/>
<path d="M104.121 31.9172H107.736V43.9782C107.736 45.0931 107.485 46.0616 106.984 46.8837C106.488 47.7058 105.799 48.3393 104.915 48.7841C104.031 49.2289 103.003 49.4513 101.832 49.4513C100.79 49.4513 99.8441 49.2683 98.9938 48.9023C98.1492 48.5307 97.4792 47.9676 96.9837 47.2131C96.4882 46.453 96.2432 45.4985 96.2489 44.3499H99.8891C99.9004 44.806 99.9933 45.1973 100.168 45.5239C100.348 45.8448 100.593 46.0926 100.903 46.2671C101.218 46.4361 101.59 46.5205 102.018 46.5205C102.468 46.5205 102.848 46.4248 103.158 46.2334C103.473 46.0363 103.712 45.7491 103.876 45.3719C104.039 44.9946 104.121 44.5301 104.121 43.9782V31.9172ZM116.553 49.4682C115.241 49.4682 114.107 49.1895 113.15 48.6321C112.198 48.069 111.463 47.2863 110.945 46.284C110.427 45.2761 110.168 44.1078 110.168 42.7789C110.168 41.4388 110.427 40.2676 110.945 39.2653C111.463 38.2574 112.198 37.4747 113.15 36.9173C114.107 36.3542 115.241 36.0727 116.553 36.0727C117.865 36.0727 118.997 36.3542 119.949 36.9173C120.906 37.4747 121.644 38.2574 122.162 39.2653C122.68 40.2676 122.939 41.4388 122.939 42.7789C122.939 44.1078 122.68 45.2761 122.162 46.284C121.644 47.2863 120.906 48.069 119.949 48.6321C118.997 49.1895 117.865 49.4682 116.553 49.4682ZM116.57 46.681C117.167 46.681 117.665 46.5121 118.065 46.1742C118.465 45.8308 118.766 45.3634 118.969 44.7722C119.177 44.181 119.281 43.5081 119.281 42.7536C119.281 41.999 119.177 41.3262 118.969 40.7349C118.766 40.1437 118.465 39.6764 118.065 39.3329C117.665 38.9894 117.167 38.8177 116.57 38.8177C115.968 38.8177 115.461 38.9894 115.05 39.3329C114.645 39.6764 114.338 40.1437 114.129 40.7349C113.927 41.3262 113.825 41.999 113.825 42.7536C113.825 43.5081 113.927 44.181 114.129 44.7722C114.338 45.3634 114.645 45.8308 115.05 46.1742C115.461 46.5121 115.968 46.681 116.57 46.681ZM125.278 49.2148V36.2416H128.876V49.2148H125.278ZM127.086 34.5693C126.551 34.5693 126.092 34.3919 125.709 34.0372C125.332 33.6768 125.143 33.246 125.143 32.7449C125.143 32.2494 125.332 31.8243 125.709 31.4695C126.092 31.1092 126.551 30.929 127.086 30.929C127.621 30.929 128.077 31.1092 128.454 31.4695C128.837 31.8243 129.028 32.2494 129.028 32.7449C129.028 33.246 128.837 33.6768 128.454 34.0372C128.077 34.3919 127.621 34.5693 127.086 34.5693ZM135.357 41.7147V49.2148H131.758V36.2416H135.188V38.5305H135.34C135.627 37.776 136.108 37.1791 136.784 36.7399C137.46 36.2951 138.279 36.0727 139.242 36.0727C140.143 36.0727 140.928 36.2698 141.598 36.6639C142.268 37.0581 142.789 37.6211 143.161 38.3531C143.532 39.0795 143.718 39.9466 143.718 40.9545V49.2148H140.12V41.5964C140.126 40.8025 139.923 40.1831 139.512 39.7383C139.101 39.2878 138.535 39.0626 137.814 39.0626C137.33 39.0626 136.902 39.1668 136.531 39.3751C136.165 39.5834 135.877 39.8875 135.669 40.2873C135.466 40.6814 135.362 41.1572 135.357 41.7147ZM167.388 37.9731H163.689C163.621 37.4944 163.484 37.0693 163.275 36.6977C163.067 36.3204 162.799 35.9995 162.473 35.7348C162.146 35.4702 161.769 35.2675 161.341 35.1267C160.919 34.9859 160.46 34.9156 159.964 34.9156C159.069 34.9156 158.289 35.138 157.625 35.5828C156.96 36.022 156.445 36.6639 156.079 37.5085C155.713 38.3475 155.53 39.3667 155.53 40.566C155.53 41.7991 155.713 42.8352 156.079 43.6742C156.451 44.5132 156.969 45.1466 157.633 45.5746C158.298 46.0025 159.066 46.2165 159.939 46.2165C160.429 46.2165 160.882 46.1517 161.299 46.0222C161.721 45.8927 162.096 45.7041 162.422 45.4563C162.749 45.2029 163.019 44.8961 163.233 44.5357C163.453 44.1753 163.605 43.7643 163.689 43.3026L167.388 43.3194C167.293 44.1134 167.053 44.8792 166.671 45.6168C166.293 46.3488 165.784 47.0048 165.142 47.5847C164.505 48.1591 163.745 48.6152 162.861 48.953C161.983 49.2852 160.989 49.4513 159.88 49.4513C158.337 49.4513 156.957 49.1022 155.741 48.404C154.531 47.7058 153.573 46.6951 152.87 45.3719C152.171 44.0486 151.822 42.4467 151.822 40.566C151.822 38.6797 152.177 37.0749 152.886 35.7517C153.596 34.4285 154.559 33.4206 155.775 32.728C156.991 32.0298 158.36 31.6807 159.88 31.6807C160.882 31.6807 161.811 31.8215 162.667 32.103C163.529 32.3845 164.292 32.7956 164.956 33.3361C165.62 33.8711 166.161 34.527 166.578 35.3041C167 36.0811 167.27 36.9708 167.388 37.9731ZM173.541 41.7147V49.2148H169.943V31.9172H173.44V38.5305H173.592C173.885 37.7647 174.358 37.165 175.011 36.7315C175.664 36.2923 176.484 36.0727 177.469 36.0727C178.37 36.0727 179.155 36.2698 179.825 36.6639C180.501 37.0524 181.025 37.6127 181.396 38.3447C181.774 39.071 181.959 39.941 181.954 40.9545V49.2148H178.356V41.5964C178.361 40.7969 178.159 40.1747 177.748 39.7298C177.342 39.285 176.773 39.0626 176.041 39.0626C175.552 39.0626 175.118 39.1668 174.741 39.3751C174.369 39.5834 174.076 39.8875 173.862 40.2873C173.654 40.6814 173.547 41.1572 173.541 41.7147ZM188.485 49.4598C187.657 49.4598 186.919 49.3162 186.272 49.029C185.624 48.7362 185.112 48.3055 184.735 47.7368C184.363 47.1624 184.177 46.4473 184.177 45.5915C184.177 44.8707 184.31 44.2654 184.574 43.7755C184.839 43.2857 185.199 42.8915 185.655 42.5931C186.111 42.2947 186.629 42.0694 187.209 41.9174C187.795 41.7654 188.409 41.6584 189.051 41.5964C189.805 41.5176 190.413 41.4444 190.875 41.3768C191.337 41.3036 191.672 41.1967 191.88 41.0559C192.088 40.9151 192.193 40.7068 192.193 40.4309V40.3802C192.193 39.8453 192.024 39.4314 191.686 39.1386C191.354 38.8458 190.881 38.6994 190.267 38.6994C189.619 38.6994 189.104 38.843 188.721 39.1302C188.338 39.4117 188.085 39.7664 187.961 40.1944L184.633 39.9241C184.802 39.1358 185.134 38.4545 185.63 37.8801C186.125 37.3002 186.765 36.8553 187.547 36.5457C188.336 36.2303 189.248 36.0727 190.284 36.0727C191.004 36.0727 191.694 36.1571 192.353 36.3261C193.017 36.495 193.606 36.7568 194.118 37.1115C194.636 37.4663 195.045 37.9224 195.343 38.4798C195.641 39.0316 195.791 39.6932 195.791 40.4647V49.2148H192.378V47.4158H192.277C192.069 47.8212 191.79 48.1788 191.441 48.4885C191.092 48.7925 190.672 49.0318 190.182 49.2064C189.693 49.3753 189.127 49.4598 188.485 49.4598ZM189.515 46.9766C190.044 46.9766 190.512 46.8725 190.917 46.6641C191.323 46.4501 191.641 46.163 191.872 45.8026C192.102 45.4422 192.218 45.034 192.218 44.5779V43.2012C192.105 43.2744 191.95 43.342 191.753 43.4039C191.562 43.4602 191.345 43.5137 191.103 43.5644C190.861 43.6094 190.619 43.6517 190.377 43.6911C190.135 43.7249 189.915 43.7558 189.718 43.784C189.296 43.8459 188.927 43.9445 188.611 44.0796C188.296 44.2147 188.051 44.3977 187.877 44.6286C187.702 44.8538 187.615 45.1354 187.615 45.4732C187.615 45.9631 187.792 46.3375 188.147 46.5965C188.507 46.8499 188.963 46.9766 189.515 46.9766ZM202.18 41.7147V49.2148H198.582V36.2416H202.011V38.5305H202.163C202.45 37.776 202.932 37.1791 203.608 36.7399C204.283 36.2951 205.102 36.0727 206.065 36.0727C206.966 36.0727 207.752 36.2698 208.422 36.6639C209.092 37.0581 209.613 37.6211 209.984 38.3531C210.356 39.0795 210.542 39.9466 210.542 40.9545V49.2148H206.944V41.5964C206.949 40.8025 206.747 40.1831 206.336 39.7383C205.925 39.2878 205.359 39.0626 204.638 39.0626C204.154 39.0626 203.726 39.1668 203.354 39.3751C202.988 39.5834 202.701 39.8875 202.493 40.2873C202.29 40.6814 202.186 41.1572 202.18 41.7147ZM216.976 41.7147V49.2148H213.378V36.2416H216.807V38.5305H216.959C217.246 37.776 217.727 37.1791 218.403 36.7399C219.079 36.2951 219.898 36.0727 220.861 36.0727C221.762 36.0727 222.547 36.2698 223.217 36.6639C223.887 37.0581 224.408 37.6211 224.78 38.3531C225.151 39.0795 225.337 39.9466 225.337 40.9545V49.2148H221.739V41.5964C221.745 40.8025 221.542 40.1831 221.131 39.7383C220.72 39.2878 220.154 39.0626 219.433 39.0626C218.949 39.0626 218.521 39.1668 218.15 39.3751C217.784 39.5834 217.496 39.8875 217.288 40.2873C217.085 40.6814 216.981 41.1572 216.976 41.7147ZM234.085 49.4682C232.751 49.4682 231.602 49.198 230.639 48.6574C229.682 48.1112 228.944 47.3398 228.426 46.3432C227.908 45.3409 227.649 44.1556 227.649 42.7873C227.649 41.4529 227.908 40.2817 228.426 39.2738C228.944 38.2659 229.674 37.4804 230.614 36.9173C231.56 36.3542 232.669 36.0727 233.942 36.0727C234.798 36.0727 235.594 36.2106 236.332 36.4865C237.075 36.7568 237.723 37.165 238.275 37.7112C238.832 38.2574 239.266 38.9444 239.575 39.7721C239.885 40.5942 240.04 41.557 240.04 42.6607V43.6488H229.085V41.4191H236.653C236.653 40.901 236.54 40.4421 236.315 40.0424C236.09 39.6426 235.777 39.3301 235.378 39.1048C234.983 38.874 234.525 38.7585 234.001 38.7585C233.455 38.7585 232.97 38.8852 232.548 39.1386C232.131 39.3864 231.805 39.7214 231.568 40.1437C231.332 40.5604 231.211 41.0249 231.205 41.5373V43.6573C231.205 44.2992 231.323 44.8538 231.56 45.3212C231.802 45.7885 232.143 46.1489 232.582 46.4023C233.021 46.6557 233.542 46.7824 234.144 46.7824C234.544 46.7824 234.91 46.7261 235.242 46.6134C235.575 46.5008 235.859 46.3319 236.096 46.1067C236.332 45.8814 236.512 45.6055 236.636 45.279L239.964 45.4985C239.795 46.2981 239.449 46.9963 238.925 47.5932C238.407 48.1844 237.737 48.6461 236.915 48.9784C236.098 49.3049 235.155 49.4682 234.085 49.4682ZM245.986 31.9172V49.2148H242.388V31.9172H245.986Z" fill="#5C3C6E"/>
</svg>
