<svg width="349" height="97" viewBox="0 0 349 97" fill="none" xmlns="http://www.w3.org/2000/svg">
<rect width="349" height="97" rx="48.5" fill="white"/>
<path d="M77.0928 27.0898C64.9483 27.0898 55.0648 36.6093 55.0606 48.3084C55.0577 52.0497 56.074 55.701 58.001 58.917L54.875 69.9124L66.5556 66.962C69.8047 68.6615 73.4174 69.5481 77.0842 69.5456H77.0928C89.2373 69.5456 99.1207 60.0247 99.125 48.3256C99.1279 42.6587 96.8383 37.3244 92.6773 33.3148C88.5178 29.3038 82.9866 27.0913 77.0928 27.0898ZM77.0928 65.9613H77.0856C73.7997 65.9613 70.5766 65.1106 67.7646 63.5033L67.0937 63.1208L60.165 64.8708L62.015 58.3617L61.5796 57.6951C59.7509 54.9062 58.7775 51.6435 58.779 48.3084C58.7833 38.5834 66.9995 30.6741 77.0999 30.6741C81.9903 30.6755 86.588 32.5126 90.0466 35.8456C93.5052 39.1787 95.408 43.6108 95.4051 48.3241C95.4009 58.0491 87.1861 65.9613 77.0914 65.9613H77.0928ZM87.1375 52.7506C86.5865 52.4865 83.8802 51.2032 83.3749 51.0248C82.871 50.8492 82.5041 50.7579 82.1373 51.2889C81.7719 51.8199 80.7156 53.0146 80.3958 53.3672C80.0732 53.7212 79.7521 53.764 79.2011 53.5C78.6501 53.2345 76.8758 52.6749 74.7747 50.8678C73.1374 49.4632 72.0326 47.7275 71.7114 47.195C71.3902 46.6655 71.6772 46.3786 71.9526 46.1145C72.1996 45.879 72.5036 45.4964 72.7777 45.1867C73.0518 44.8769 73.1431 44.6557 73.3287 44.3017C73.5114 43.9491 73.42 43.6379 73.2816 43.3738C73.1431 43.1069 72.044 40.4976 71.5829 39.437C71.1376 38.4036 70.6837 38.542 70.3454 38.5249C70.0242 38.5106 69.6588 38.5063 69.2891 38.5063C68.9251 38.5063 68.327 38.6391 67.8217 39.1701C67.3178 39.7011 65.8947 40.9829 65.8947 43.5922C65.8947 46.203 67.8674 48.7238 68.1429 49.0778C68.4184 49.4304 72.0254 54.7875 77.5481 57.0856C78.8614 57.6295 79.8862 57.9564 80.687 58.2019C82.006 58.6058 83.2064 58.5473 84.1542 58.4117C85.2105 58.259 87.4116 57.1299 87.8684 55.8923C88.328 54.6547 88.328 53.5927 88.191 53.3715C88.0568 53.1502 87.6885 53.0175 87.1375 52.7506V52.7506Z" fill="#5C3C6E"/>
<path d="M126.761 37.9434H131.162V52.6254C131.162 53.9826 130.856 55.1616 130.246 56.1623C129.643 57.163 128.804 57.9341 127.727 58.4756C126.651 59.0171 125.4 59.2879 123.975 59.2879C122.707 59.2879 121.555 59.0651 120.52 58.6196C119.492 58.1672 118.676 57.4818 118.073 56.5633C117.47 55.6379 117.172 54.4761 117.179 53.0778H121.61C121.624 53.633 121.737 54.1094 121.949 54.507C122.169 54.8977 122.467 55.1992 122.844 55.4117C123.228 55.6174 123.68 55.7202 124.201 55.7202C124.749 55.7202 125.212 55.6037 125.589 55.3706C125.973 55.1307 126.264 54.7811 126.463 54.3219C126.662 53.8626 126.761 53.2972 126.761 52.6254V37.9434ZM141.895 59.3084C140.298 59.3084 138.917 58.9692 137.752 58.2906C136.594 57.6051 135.699 56.6524 135.068 55.4323C134.438 54.2054 134.123 52.7831 134.123 51.1655C134.123 49.5341 134.438 48.1084 135.068 46.8883C135.699 45.6614 136.594 44.7086 137.752 44.03C138.917 43.3446 140.298 43.0019 141.895 43.0019C143.493 43.0019 144.87 43.3446 146.029 44.03C147.194 44.7086 148.092 45.6614 148.722 46.8883C149.353 48.1084 149.668 49.5341 149.668 51.1655C149.668 52.7831 149.353 54.2054 148.722 55.4323C148.092 56.6524 147.194 57.6051 146.029 58.2906C144.87 58.9692 143.493 59.3084 141.895 59.3084ZM141.916 55.9155C142.643 55.9155 143.249 55.7099 143.736 55.2986C144.223 54.8805 144.589 54.3116 144.836 53.5919C145.09 52.8722 145.216 52.0531 145.216 51.1346C145.216 50.2161 145.09 49.397 144.836 48.6773C144.589 47.9576 144.223 47.3887 143.736 46.9706C143.249 46.5525 142.643 46.3434 141.916 46.3434C141.183 46.3434 140.566 46.5525 140.065 46.9706C139.572 47.3887 139.198 47.9576 138.945 48.6773C138.698 49.397 138.575 50.2161 138.575 51.1346C138.575 52.0531 138.698 52.8722 138.945 53.5919C139.198 54.3116 139.572 54.8805 140.065 55.2986C140.566 55.7099 141.183 55.9155 141.916 55.9155ZM152.516 59V43.2075H156.896V59H152.516ZM154.717 41.1718C154.065 41.1718 153.507 40.9559 153.041 40.524C152.581 40.0854 152.352 39.561 152.352 38.951C152.352 38.3478 152.581 37.8303 153.041 37.3984C153.507 36.9598 154.065 36.7404 154.717 36.7404C155.368 36.7404 155.923 36.9598 156.382 37.3984C156.848 37.8303 157.081 38.3478 157.081 38.951C157.081 39.561 156.848 40.0854 156.382 40.524C155.923 40.9559 155.368 41.1718 154.717 41.1718ZM164.785 49.87V59H160.405V43.2075H164.579V45.9938H164.764C165.114 45.0753 165.7 44.3488 166.522 43.8141C167.345 43.2726 168.342 43.0019 169.514 43.0019C170.611 43.0019 171.567 43.2418 172.383 43.7216C173.199 44.2014 173.833 44.8868 174.285 45.7779C174.737 46.6621 174.964 47.7177 174.964 48.9446V59H170.584V49.726C170.59 48.7596 170.344 48.0056 169.843 47.4641C169.343 46.9157 168.654 46.6416 167.777 46.6416C167.187 46.6416 166.666 46.7684 166.214 47.022C165.768 47.2756 165.419 47.6457 165.165 48.1324C164.918 48.6122 164.792 49.1914 164.785 49.87ZM203.778 45.3152H199.274C199.192 44.7326 199.024 44.2151 198.77 43.7627C198.517 43.3035 198.191 42.9128 197.794 42.5906C197.396 42.2685 196.937 42.0217 196.416 41.8504C195.902 41.679 195.343 41.5933 194.74 41.5933C193.65 41.5933 192.701 41.8641 191.892 42.4056C191.083 42.9402 190.456 43.7216 190.011 44.7498C189.565 45.7711 189.342 47.0117 189.342 48.4717C189.342 49.9728 189.565 51.234 190.011 52.2553C190.463 53.2766 191.094 54.0477 191.902 54.5686C192.711 55.0896 193.647 55.35 194.709 55.35C195.306 55.35 195.857 55.2712 196.365 55.1136C196.879 54.9559 197.334 54.7263 197.732 54.4247C198.13 54.1163 198.459 53.7427 198.719 53.304C198.986 52.8653 199.171 52.365 199.274 51.8029L203.778 51.8235C203.661 52.7899 203.37 53.7221 202.904 54.6201C202.444 55.5111 201.824 56.3097 201.043 57.0157C200.268 57.7148 199.343 58.27 198.267 58.6813C197.197 59.0857 195.988 59.2879 194.637 59.2879C192.759 59.2879 191.08 58.8629 189.599 58.013C188.126 57.163 186.96 55.9327 186.104 54.3219C185.254 52.7111 184.829 50.761 184.829 48.4717C184.829 46.1755 185.261 44.222 186.124 42.6112C186.988 41.0004 188.16 39.7735 189.64 38.9304C191.121 38.0805 192.787 37.6555 194.637 37.6555C195.857 37.6555 196.988 37.8268 198.03 38.1696C199.079 38.5123 200.008 39.0126 200.817 39.6707C201.625 40.3218 202.283 41.1204 202.791 42.0663C203.305 43.0122 203.634 44.0952 203.778 45.3152ZM211.268 49.87V59H206.888V37.9434H211.144V45.9938H211.329C211.686 45.0616 212.262 44.3316 213.057 43.8039C213.852 43.2692 214.849 43.0019 216.049 43.0019C217.145 43.0019 218.102 43.2418 218.917 43.7216C219.74 44.1946 220.377 44.8766 220.83 45.7676C221.289 46.6518 221.515 47.7108 221.508 48.9446V59H217.128V49.726C217.135 48.7527 216.888 47.9953 216.388 47.4538C215.894 46.9123 215.202 46.6416 214.311 46.6416C213.715 46.6416 213.187 46.7684 212.728 47.022C212.275 47.2756 211.919 47.6457 211.658 48.1324C211.405 48.6122 211.275 49.1914 211.268 49.87ZM229.458 59.2982C228.451 59.2982 227.553 59.1234 226.765 58.7738C225.976 58.4174 225.353 57.893 224.893 57.2007C224.441 56.5016 224.215 55.6311 224.215 54.5892C224.215 53.7119 224.376 52.975 224.698 52.3787C225.02 51.7823 225.459 51.3025 226.014 50.9393C226.569 50.576 227.2 50.3018 227.906 50.1167C228.619 49.9317 229.366 49.8014 230.147 49.726C231.066 49.6301 231.806 49.541 232.368 49.4587C232.93 49.3696 233.338 49.2394 233.592 49.068C233.845 48.8967 233.972 48.643 233.972 48.3072V48.2455C233.972 47.5943 233.766 47.0905 233.355 46.7341C232.951 46.3777 232.375 46.1995 231.628 46.1995C230.84 46.1995 230.212 46.3742 229.746 46.7238C229.28 47.0665 228.972 47.4984 228.821 48.0193L224.77 47.6903C224.976 46.7307 225.38 45.9013 225.983 45.2021C226.586 44.4961 227.364 43.9546 228.317 43.5777C229.277 43.1938 230.387 43.0019 231.648 43.0019C232.526 43.0019 233.365 43.1047 234.167 43.3103C234.976 43.516 235.692 43.8347 236.316 44.2665C236.947 44.6983 237.444 45.2536 237.807 45.9321C238.17 46.6039 238.352 47.4093 238.352 48.3483V59H234.198V56.81H234.075C233.821 57.3035 233.482 57.7388 233.057 58.1158C232.632 58.4859 232.121 58.7772 231.525 58.9897C230.929 59.1953 230.24 59.2982 229.458 59.2982ZM230.713 56.2754C231.357 56.2754 231.926 56.1486 232.419 55.895C232.913 55.6345 233.3 55.2849 233.581 54.8462C233.862 54.4076 234.003 53.9106 234.003 53.3554V51.6795C233.866 51.7686 233.677 51.8509 233.437 51.9263C233.204 51.9948 232.94 52.0599 232.646 52.1216C232.351 52.1765 232.056 52.2279 231.761 52.2759C231.467 52.317 231.199 52.3547 230.959 52.389C230.445 52.4644 229.996 52.5843 229.613 52.7488C229.229 52.9133 228.931 53.1361 228.718 53.4171C228.506 53.6913 228.399 54.034 228.399 54.4453C228.399 55.0416 228.615 55.4974 229.047 55.8127C229.486 56.1212 230.041 56.2754 230.713 56.2754ZM246.13 49.87V59H241.75V43.2075H245.924V45.9938H246.109C246.459 45.0753 247.045 44.3488 247.867 43.8141C248.69 43.2726 249.687 43.0019 250.859 43.0019C251.956 43.0019 252.912 43.2418 253.728 43.7216C254.544 44.2014 255.178 44.8868 255.63 45.7779C256.082 46.6621 256.309 47.7177 256.309 48.9446V59H251.929V49.726C251.936 48.7596 251.689 48.0056 251.188 47.4641C250.688 46.9157 249.999 46.6416 249.122 46.6416C248.532 46.6416 248.011 46.7684 247.559 47.022C247.114 47.2756 246.764 47.6457 246.51 48.1324C246.264 48.6122 246.137 49.1914 246.13 49.87ZM264.141 49.87V59H259.761V43.2075H263.935V45.9938H264.12C264.47 45.0753 265.056 44.3488 265.878 43.8141C266.701 43.2726 267.698 43.0019 268.87 43.0019C269.967 43.0019 270.923 43.2418 271.739 43.7216C272.554 44.2014 273.188 44.8868 273.641 45.7779C274.093 46.6621 274.319 47.7177 274.319 48.9446V59H269.939V49.726C269.946 48.7596 269.7 48.0056 269.199 47.4641C268.699 46.9157 268.01 46.6416 267.133 46.6416C266.543 46.6416 266.022 46.7684 265.57 47.022C265.124 47.2756 264.775 47.6457 264.521 48.1324C264.274 48.6122 264.147 49.1914 264.141 49.87ZM284.969 59.3084C283.344 59.3084 281.946 58.9794 280.774 58.3214C279.608 57.6565 278.71 56.7175 278.08 55.5043C277.449 54.2842 277.134 52.8413 277.134 51.1757C277.134 49.5512 277.449 48.1255 278.08 46.8986C278.71 45.6717 279.598 44.7155 280.743 44.03C281.894 43.3446 283.245 43.0019 284.794 43.0019C285.836 43.0019 286.805 43.1698 287.703 43.5057C288.608 43.8347 289.396 44.3316 290.068 44.9965C290.747 45.6614 291.275 46.4976 291.652 47.5052C292.029 48.506 292.217 49.6781 292.217 51.0215V52.2245H278.882V49.5101H288.094C288.094 48.8795 287.957 48.3209 287.683 47.8342C287.409 47.3476 287.028 46.9671 286.542 46.693C286.062 46.4119 285.503 46.2714 284.866 46.2714C284.201 46.2714 283.611 46.4257 283.097 46.7341C282.59 47.0357 282.192 47.4435 281.905 47.9576C281.617 48.4648 281.469 49.0303 281.463 49.6541V52.2347C281.463 53.0161 281.606 53.6913 281.894 54.2602C282.189 54.8291 282.604 55.2678 283.138 55.5762C283.673 55.8847 284.307 56.0389 285.04 56.0389C285.527 56.0389 285.973 55.9704 286.377 55.8333C286.781 55.6962 287.128 55.4906 287.416 55.2164C287.703 54.9422 287.923 54.6063 288.074 54.2088L292.124 54.4761C291.919 55.4494 291.497 56.2994 290.86 57.0259C290.229 57.7456 289.414 58.3077 288.413 58.7121C287.419 59.1097 286.271 59.3084 284.969 59.3084ZM299.455 37.9434V59H295.075V37.9434H299.455Z" fill="#5C3C6E"/>
</svg>
