<svg width="356" height="148" viewBox="0 0 356 148" fill="none" xmlns="http://www.w3.org/2000/svg">
<g filter="url(#filter0_dn_1393_1180)">
<path d="M137.189 129L12 22.7143L210.299 5L344 102.95L137.189 129Z" fill="#D9D9D9"/>
</g>
<path d="M196.747 75.0117C196.967 75.2274 196.867 75.3786 196.524 75.3493C196.182 75.32 195.726 75.1214 195.507 74.9056C195.287 74.6899 195.387 74.5387 195.73 74.568C196.072 74.5973 196.528 74.7959 196.747 75.0117Z" fill="#5C3262"/>
<path d="M196.315 73.7575C196.535 73.9733 196.435 74.1244 196.092 74.0952C195.75 74.0659 195.294 73.8672 195.075 73.6515C194.855 73.4357 194.955 73.2846 195.298 73.3139C195.64 73.3431 196.096 73.5418 196.315 73.7575Z" fill="#5C3262"/>
<path d="M195.69 72.5034C195.91 72.7191 195.81 72.8703 195.467 72.841C195.125 72.8117 194.669 72.6131 194.45 72.3973C194.231 72.1816 194.33 72.0304 194.673 72.0597C195.015 72.089 195.471 72.2876 195.69 72.5034Z" fill="#5C3262"/>
<path d="M194.625 71.1298C194.845 71.3456 194.745 71.4967 194.402 71.4674C194.06 71.4381 193.604 71.2395 193.385 71.0237C193.165 70.808 193.265 70.6568 193.608 70.6861C193.95 70.7154 194.406 70.9141 194.625 71.1298Z" fill="#5C3262"/>
<path d="M193.367 69.7562C193.587 69.972 193.487 70.1231 193.144 70.0938C192.802 70.0645 192.346 69.8659 192.127 69.6501C191.907 69.4344 192.007 69.2832 192.35 69.3125C192.692 69.3418 193.148 69.5405 193.367 69.7562Z" fill="#5C3262"/>
<path d="M191.82 68.3826C192.039 68.5984 191.94 68.7495 191.597 68.7202C191.255 68.6909 190.799 68.4923 190.58 68.2765C190.36 68.0608 190.46 67.9096 190.803 67.9389C191.145 67.9682 191.601 68.1669 191.82 68.3826Z" fill="#5C3262"/>
<path d="M190.101 66.9493C190.32 67.1651 190.22 67.3162 189.878 67.2869C189.535 67.2576 189.08 67.059 188.86 66.8432C188.641 66.6275 188.741 66.4763 189.083 66.5056C189.426 66.5349 189.881 66.7336 190.101 66.9493Z" fill="#5C3262"/>
<path d="M188.168 65.5757C188.388 65.7915 188.288 65.9426 187.945 65.9133C187.603 65.884 187.147 65.6854 186.928 65.4696C186.708 65.2539 186.808 65.1027 187.151 65.132C187.493 65.1613 187.949 65.36 188.168 65.5757Z" fill="#5C3262"/>
<path d="M186.022 64.2618C186.241 64.4776 186.142 64.6287 185.799 64.5995C185.457 64.5702 185.001 64.3715 184.782 64.1558C184.562 63.94 184.662 63.7889 185.005 63.8182C185.347 63.8474 185.803 64.0461 186.022 64.2618Z" fill="#5C3262"/>
<path d="M183.683 62.948C183.903 63.1637 183.803 63.3149 183.46 63.2856C183.118 63.2563 182.662 63.0576 182.443 62.8419C182.223 62.6261 182.323 62.475 182.666 62.5043C183.008 62.5336 183.464 62.7322 183.683 62.948Z" fill="#5C3262"/>
<path d="M181.303 61.7535C181.522 61.9693 181.422 62.1205 181.08 62.0912C180.737 62.0619 180.282 61.8632 180.062 61.6475C179.843 61.4317 179.943 61.2806 180.285 61.3099C180.628 61.3391 181.083 61.5378 181.303 61.7535Z" fill="#5C3262"/>
<path d="M178.805 60.6188C179.025 60.8346 178.925 60.9857 178.582 60.9564C178.24 60.9272 177.784 60.7285 177.565 60.5128C177.346 60.297 177.445 60.1459 177.788 60.1751C178.13 60.2044 178.586 60.4031 178.805 60.6188Z" fill="#5C3262"/>
<path d="M176.266 59.6036C176.486 59.8193 176.386 59.9705 176.043 59.9412C175.701 59.9119 175.245 59.7132 175.026 59.4975C174.807 59.2817 174.906 59.1306 175.249 59.1599C175.592 59.1892 176.047 59.3878 176.266 59.6036Z" fill="#5C3262"/>
<path d="M173.686 58.7078C173.905 58.9235 173.806 59.0747 173.463 59.0454C173.121 59.0161 172.665 58.8174 172.446 58.6017C172.226 58.3859 172.326 58.2348 172.669 58.2641C173.011 58.2934 173.467 58.492 173.686 58.7078Z" fill="#5C3262"/>
<path d="M171.064 57.9314C171.284 58.1471 171.184 58.2983 170.841 58.269C170.499 58.2397 170.043 58.041 169.824 57.8253C169.604 57.6095 169.704 57.4584 170.047 57.4877C170.389 57.517 170.845 57.7156 171.064 57.9314Z" fill="#5C3262"/>
<path d="M168.497 57.2744C168.717 57.4902 168.617 57.6413 168.274 57.6121C167.932 57.5828 167.476 57.3841 167.257 57.1684C167.037 56.9526 167.137 56.8015 167.48 56.8308C167.822 56.86 168.278 57.0587 168.497 57.2744Z" fill="#5C3262"/>
<path d="M166.061 56.7967C166.28 57.0124 166.18 57.1636 165.838 57.1343C165.495 57.105 165.04 56.9063 164.82 56.6906C164.601 56.4748 164.701 56.3237 165.043 56.353C165.386 56.3823 165.841 56.5809 166.061 56.7967Z" fill="#5C3262"/>
<path d="M163.755 56.4981C163.974 56.7138 163.875 56.865 163.532 56.8357C163.189 56.8064 162.734 56.6077 162.515 56.392C162.295 56.1762 162.395 56.0251 162.737 56.0544C163.08 56.0837 163.536 56.2823 163.755 56.4981Z" fill="#5C3262"/>
<path d="M161.504 56.3189C161.723 56.5347 161.624 56.6858 161.281 56.6565C160.939 56.6272 160.483 56.4286 160.264 56.2128C160.044 55.9971 160.144 55.8459 160.487 55.8752C160.829 55.9045 161.285 56.1032 161.504 56.3189Z" fill="#5C3262"/>
<path d="M159.48 56.3189C159.699 56.5347 159.6 56.6858 159.257 56.6565C158.915 56.6272 158.459 56.4286 158.24 56.2128C158.02 55.9971 158.12 55.8459 158.463 55.8752C158.805 55.9045 159.261 56.1032 159.48 56.3189Z" fill="#5C3262"/>
<path d="M157.704 56.4383C157.923 56.6541 157.823 56.8052 157.481 56.776C157.138 56.7467 156.683 56.548 156.463 56.3323C156.244 56.1165 156.344 55.9654 156.686 55.9947C157.029 56.0239 157.484 56.2226 157.704 56.4383Z" fill="#5C3262"/>
<path d="M156.058 56.737C156.277 56.9527 156.178 57.1039 155.835 57.0746C155.492 57.0453 155.037 56.8466 154.818 56.6309C154.598 56.4151 154.698 56.264 155.041 56.2933C155.383 56.3226 155.839 56.5212 156.058 56.737Z" fill="#5C3262"/>
<path d="M154.736 57.2147C154.955 57.4305 154.855 57.5816 154.513 57.5523C154.17 57.523 153.715 57.3244 153.495 57.1086C153.276 56.8929 153.376 56.7417 153.718 56.771C154.061 56.8003 154.516 56.999 154.736 57.2147Z" fill="#5C3262"/>
<path d="M153.661 57.8119C153.88 58.0277 153.78 58.1788 153.438 58.1495C153.095 58.1202 152.64 57.9216 152.42 57.7059C152.201 57.4901 152.301 57.3389 152.643 57.3682C152.986 57.3975 153.441 57.5962 153.661 57.8119Z" fill="#5C3262"/>
<path d="M152.813 58.5883C153.032 58.8041 152.933 58.9552 152.59 58.9259C152.247 58.8966 151.792 58.698 151.573 58.4822C151.353 58.2665 151.453 58.1153 151.796 58.1446C152.138 58.1739 152.594 58.3726 152.813 58.5883Z" fill="#5C3262"/>
<path d="M152.406 59.4841C152.625 59.6999 152.525 59.851 152.183 59.8217C151.84 59.7924 151.385 59.5938 151.165 59.3781C150.946 59.1623 151.046 59.0111 151.388 59.0404C151.731 59.0697 152.186 59.2684 152.406 59.4841Z" fill="#5C3262"/>
<path d="M152.15 60.4994C152.369 60.7151 152.269 60.8663 151.927 60.837C151.584 60.8077 151.128 60.6091 150.909 60.3933C150.69 60.1776 150.79 60.0264 151.132 60.0557C151.475 60.085 151.93 60.2836 152.15 60.4994Z" fill="#5C3262"/>
<path d="M152.238 61.6341C152.457 61.8499 152.357 62.001 152.015 61.9717C151.672 61.9424 151.216 61.7438 150.997 61.528C150.778 61.3123 150.878 61.1611 151.22 61.1904C151.563 61.2197 152.018 61.4184 152.238 61.6341Z" fill="#5C3262"/>
<path d="M152.766 62.8883C152.985 63.104 152.885 63.2552 152.543 63.2259C152.2 63.1966 151.745 62.9979 151.525 62.7822C151.306 62.5664 151.406 62.4153 151.748 62.4446C152.091 62.4739 152.547 62.6725 152.766 62.8883Z" fill="#5C3262"/>
<path d="M153.487 64.1424C153.706 64.3582 153.607 64.5093 153.264 64.48C152.922 64.4507 152.466 64.2521 152.247 64.0363C152.027 63.8206 152.127 63.6694 152.47 63.6987C152.812 63.728 153.268 63.9267 153.487 64.1424Z" fill="#5C3262"/>
<path d="M154.38 65.4563C154.6 65.672 154.5 65.8232 154.157 65.7939C153.815 65.7646 153.359 65.5659 153.14 65.3502C152.92 65.1344 153.02 64.9833 153.363 65.0126C153.705 65.0419 154.161 65.2405 154.38 65.4563Z" fill="#5C3262"/>
<path d="M155.638 66.8299C155.858 67.0456 155.758 67.1968 155.415 67.1675C155.073 67.1382 154.617 66.9395 154.398 66.7238C154.178 66.508 154.278 66.3569 154.621 66.3862C154.963 66.4155 155.419 66.6141 155.638 66.8299Z" fill="#5C3262"/>
<path d="M157.165 68.2632C157.384 68.4789 157.284 68.6301 156.942 68.6008C156.599 68.5715 156.144 68.3728 155.924 68.1571C155.705 67.9413 155.805 67.7902 156.147 67.8195C156.49 67.8488 156.945 68.0474 157.165 68.2632Z" fill="#5C3262"/>
<path d="M158.98 69.6965C159.2 69.9122 159.1 70.0634 158.757 70.0341C158.415 70.0048 157.959 69.8062 157.74 69.5904C157.52 69.3747 157.62 69.2235 157.963 69.2528C158.305 69.2821 158.761 69.4807 158.98 69.6965Z" fill="#5C3262"/>
<path d="M160.913 71.0701C161.132 71.2858 161.032 71.437 160.69 71.4077C160.347 71.3784 159.892 71.1797 159.672 70.964C159.453 70.7482 159.553 70.5971 159.895 70.6264C160.238 70.6557 160.693 70.8543 160.913 71.0701Z" fill="#5C3262"/>
<path d="M163.135 72.4437C163.354 72.6594 163.254 72.8106 162.912 72.7813C162.569 72.752 162.114 72.5533 161.894 72.3376C161.675 72.1218 161.775 71.9707 162.117 72C162.46 72.0293 162.915 72.2279 163.135 72.4437Z" fill="#5C3262"/>
<path d="M165.322 73.6381C165.542 73.8539 165.442 74.005 165.099 73.9757C164.757 73.9464 164.301 73.7478 164.082 73.532C163.862 73.3163 163.962 73.1651 164.305 73.1944C164.647 73.2237 165.103 73.4224 165.322 73.6381Z" fill="#5C3262"/>
<path d="M167.778 74.8923C167.998 75.108 167.898 75.2592 167.555 75.2299C167.213 75.2006 166.757 75.0019 166.538 74.7862C166.318 74.5704 166.418 74.4193 166.761 74.4486C167.103 74.4779 167.559 74.6765 167.778 74.8923Z" fill="#5C3262"/>
<path d="M170.276 76.027C170.495 76.2427 170.395 76.3939 170.053 76.3646C169.71 76.3353 169.255 76.1366 169.035 75.9209C168.816 75.7051 168.916 75.554 169.258 75.5833C169.601 75.6126 170.056 75.8112 170.276 76.027Z" fill="#5C3262"/>
<path d="M172.815 77.0422C173.034 77.258 172.934 77.4091 172.592 77.3798C172.249 77.3505 171.794 77.1519 171.574 76.9361C171.355 76.7204 171.455 76.5692 171.797 76.5985C172.14 76.6278 172.595 76.8265 172.815 77.0422Z" fill="#5C3262"/>
<path d="M175.491 77.938C175.711 78.1538 175.611 78.3049 175.268 78.2757C174.926 78.2464 174.47 78.0477 174.251 77.832C174.032 77.6162 174.131 77.4651 174.474 77.4943C174.817 77.5236 175.272 77.7223 175.491 77.938Z" fill="#5C3262"/>
<path d="M178.017 78.7144C178.236 78.9302 178.136 79.0813 177.794 79.052C177.451 79.0227 176.996 78.8241 176.776 78.6083C176.557 78.3926 176.657 78.2414 176.999 78.2707C177.342 78.3 177.798 78.4987 178.017 78.7144Z" fill="#5C3262"/>
<path d="M180.584 79.3714C180.803 79.5871 180.703 79.7383 180.361 79.709C180.018 79.6797 179.563 79.481 179.343 79.2653C179.124 79.0495 179.224 78.8984 179.566 78.9277C179.909 78.957 180.364 79.1556 180.584 79.3714Z" fill="#5C3262"/>
<path d="M183.02 79.8491C183.24 80.0649 183.14 80.216 182.797 80.1867C182.455 80.1574 181.999 79.9588 181.78 79.743C181.56 79.5273 181.66 79.3761 182.003 79.4054C182.345 79.4347 182.801 79.6334 183.02 79.8491Z" fill="#5C3262"/>
<path d="M185.326 80.1477C185.546 80.3635 185.446 80.5146 185.103 80.4853C184.761 80.456 184.305 80.2574 184.086 80.0417C183.866 79.8259 183.966 79.6747 184.309 79.704C184.651 79.7333 185.107 79.932 185.326 80.1477Z" fill="#5C3262"/>
<path d="M187.577 80.3269C187.796 80.5426 187.697 80.6938 187.354 80.6645C187.012 80.6352 186.556 80.4366 186.337 80.2208C186.117 80.0051 186.217 79.8539 186.56 79.8832C186.902 79.9125 187.358 80.1111 187.577 80.3269Z" fill="#5C3262"/>
<path d="M189.505 80.3269C189.724 80.5426 189.624 80.6938 189.282 80.6645C188.939 80.6352 188.484 80.4366 188.264 80.2208C188.045 80.0051 188.145 79.8539 188.487 79.8832C188.83 79.9125 189.285 80.1111 189.505 80.3269Z" fill="#5C3262"/>
<path d="M191.377 80.2075C191.597 80.4232 191.497 80.5744 191.154 80.5451C190.812 80.5158 190.356 80.3171 190.137 80.1014C189.918 79.8856 190.017 79.7345 190.36 79.7638C190.702 79.7931 191.158 79.9917 191.377 80.2075Z" fill="#5C3262"/>
<path d="M193.023 79.9088C193.242 80.1246 193.143 80.2758 192.8 80.2465C192.458 80.2172 192.002 80.0185 191.783 79.8028C191.563 79.587 191.663 79.4359 192.006 79.4652C192.348 79.4944 192.804 79.6931 193.023 79.9088Z" fill="#5C3262"/>
<path d="M194.345 79.4311C194.565 79.6468 194.465 79.798 194.123 79.7687C193.78 79.7394 193.324 79.5407 193.105 79.325C192.886 79.1092 192.986 78.9581 193.328 78.9874C193.671 79.0167 194.126 79.2153 194.345 79.4311Z" fill="#5C3262"/>
<path d="M195.345 78.7741C195.564 78.9899 195.464 79.141 195.122 79.1118C194.779 79.0825 194.324 78.8838 194.104 78.6681C193.885 78.4523 193.985 78.3012 194.327 78.3304C194.67 78.3597 195.125 78.5584 195.345 78.7741Z" fill="#5C3262"/>
<path d="M196.096 77.9978C196.315 78.2135 196.216 78.3647 195.873 78.3354C195.531 78.3061 195.075 78.1074 194.856 77.8917C194.636 77.6759 194.736 77.5248 195.079 77.5541C195.421 77.5834 195.877 77.782 196.096 77.9978Z" fill="#5C3262"/>
<path d="M196.6 77.1019C196.819 77.3177 196.719 77.4688 196.377 77.4396C196.034 77.4103 195.579 77.2116 195.359 76.9959C195.14 76.7801 195.24 76.629 195.582 76.6583C195.925 76.6875 196.38 76.8862 196.6 77.1019Z" fill="#5C3262"/>
<path d="M196.932 76.1464C197.151 76.3622 197.051 76.5133 196.709 76.484C196.366 76.4547 195.91 76.2561 195.691 76.0403C195.472 75.8246 195.572 75.6734 195.914 75.7027C196.257 75.732 196.712 75.9306 196.932 76.1464Z" fill="#5C3262"/>
<path d="M184.858 81.4128C185.213 81.6931 185.134 81.9204 184.681 81.9204C184.229 81.9204 183.574 81.6931 183.219 81.4128C182.864 81.1324 182.943 80.9052 183.395 80.9052C183.848 80.9052 184.502 81.1324 184.858 81.4128Z" fill="#5C3262"/>
<path d="M188.01 81.7711C188.365 82.0515 188.286 82.2787 187.834 82.2787C187.381 82.2787 186.727 82.0515 186.372 81.7711C186.016 81.4908 186.095 81.2635 186.548 81.2635C187 81.2635 187.655 81.4908 188.01 81.7711Z" fill="#5C3262"/>
<path d="M190.936 81.9503C191.291 82.2306 191.212 82.4579 190.759 82.4579C190.307 82.4579 189.652 82.2306 189.297 81.9503C188.942 81.6699 189.021 81.4426 189.473 81.4426C189.926 81.4426 190.581 81.6699 190.936 81.9503Z" fill="#5C3262"/>
<path d="M193.827 81.9503C194.182 82.2306 194.103 82.4579 193.651 82.4579C193.198 82.4579 192.544 82.2306 192.189 81.9503C191.833 81.6699 191.912 81.4426 192.365 81.4426C192.817 81.4426 193.472 81.6699 193.827 81.9503Z" fill="#5C3262"/>
<path d="M196.299 81.7711C196.654 82.0515 196.575 82.2787 196.123 82.2787C195.67 82.2787 195.015 82.0515 194.66 81.7711C194.305 81.4908 194.384 81.2635 194.837 81.2635C195.289 81.2635 195.944 81.4908 196.299 81.7711Z" fill="#5C3262"/>
<path d="M198.544 81.4128C198.899 81.6931 198.82 81.9204 198.367 81.9204C197.915 81.9204 197.26 81.6931 196.905 81.4128C196.55 81.1324 196.629 80.9052 197.081 80.9052C197.534 80.9052 198.188 81.1324 198.544 81.4128Z" fill="#5C3262"/>
<path d="M200.314 80.7558C200.669 81.0362 200.59 81.2635 200.137 81.2635C199.685 81.2635 199.03 81.0362 198.675 80.7558C198.32 80.4755 198.399 80.2482 198.851 80.2482C199.304 80.2482 199.959 80.4755 200.314 80.7558Z" fill="#5C3262"/>
<path d="M201.912 80.0392C202.267 80.3195 202.188 80.5468 201.736 80.5468C201.283 80.5468 200.628 80.3195 200.273 80.0392C199.918 79.7588 199.997 79.5316 200.45 79.5316C200.902 79.5316 201.557 79.7588 201.912 80.0392Z" fill="#5C3262"/>
<path d="M202.939 79.0239C203.294 79.3043 203.215 79.5316 202.763 79.5316C202.31 79.5316 201.656 79.3043 201.3 79.0239C200.945 78.7436 201.024 78.5163 201.477 78.5163C201.929 78.5163 202.584 78.7436 202.939 79.0239Z" fill="#5C3262"/>
<path d="M203.773 78.0087C204.128 78.289 204.049 78.5163 203.597 78.5163C203.145 78.5163 202.49 78.289 202.135 78.0087C201.78 77.7283 201.859 77.501 202.311 77.501C202.763 77.501 203.418 77.7283 203.773 78.0087Z" fill="#5C3262"/>
<path d="M204.037 76.6948C204.392 76.9752 204.313 77.2024 203.86 77.2024C203.408 77.2024 202.753 76.9752 202.398 76.6948C202.043 76.4144 202.122 76.1872 202.574 76.1872C203.027 76.1872 203.682 76.4144 204.037 76.6948Z" fill="#5C3262"/>
<path d="M203.935 75.3212C204.29 75.6016 204.211 75.8288 203.759 75.8288C203.307 75.8288 202.652 75.6016 202.297 75.3212C201.942 75.0408 202.021 74.8136 202.473 74.8136C202.925 74.8136 203.58 75.0408 203.935 75.3212Z" fill="#5C3262"/>
<path d="M203.393 73.8282C203.748 74.1085 203.67 74.3358 203.217 74.3358C202.765 74.3358 202.11 74.1085 201.755 73.8282C201.4 73.5478 201.479 73.3205 201.931 73.3205C202.384 73.3205 203.038 73.5478 203.393 73.8282Z" fill="#5C3262"/>
<path d="M202.583 72.2754C202.938 72.5558 202.859 72.783 202.407 72.783C201.954 72.783 201.3 72.5558 200.945 72.2754C200.59 71.9951 200.668 71.7678 201.121 71.7678C201.573 71.7678 202.228 71.9951 202.583 72.2754Z" fill="#5C3262"/>
<path d="M201.312 70.6629C201.667 70.9433 201.588 71.1706 201.135 71.1706C200.683 71.1706 200.028 70.9433 199.673 70.6629C199.318 70.3826 199.397 70.1553 199.849 70.1553C200.302 70.1553 200.957 70.3826 201.312 70.6629Z" fill="#5C3262"/>
<path d="M199.6 68.931C199.955 69.2114 199.876 69.4386 199.424 69.4386C198.971 69.4386 198.316 69.2114 197.961 68.931C197.606 68.6507 197.685 68.4234 198.138 68.4234C198.59 68.4234 199.245 68.6507 199.6 68.931Z" fill="#5C3262"/>
<path d="M197.406 67.1991C197.761 67.4794 197.682 67.7067 197.23 67.7067C196.777 67.7067 196.123 67.4794 195.768 67.1991C195.412 66.9187 195.491 66.6915 195.944 66.6915C196.396 66.6915 197.051 66.9187 197.406 67.1991Z" fill="#5C3262"/>
<path d="M195.212 65.4672C195.567 65.7475 195.488 65.9748 195.036 65.9748C194.584 65.9748 193.929 65.7475 193.574 65.4672C193.219 65.1868 193.298 64.9595 193.75 64.9595C194.202 64.9595 194.857 65.1868 195.212 65.4672Z" fill="#5C3262"/>
<path d="M192.688 63.8547C193.043 64.1351 192.964 64.3623 192.512 64.3623C192.059 64.3623 191.405 64.1351 191.049 63.8547C190.694 63.5743 190.773 63.3471 191.226 63.3471C191.678 63.3471 192.333 63.5743 192.688 63.8547Z" fill="#5C3262"/>
<path d="M189.723 62.1228C190.078 62.4031 189.999 62.6304 189.547 62.6304C189.094 62.6304 188.44 62.4031 188.085 62.1228C187.73 61.8424 187.808 61.6151 188.261 61.6151C188.713 61.6151 189.368 61.8424 189.723 62.1228Z" fill="#5C3262"/>
<path d="M186.675 60.6297C187.03 60.9101 186.952 61.1374 186.499 61.1374C186.047 61.1374 185.392 60.9101 185.037 60.6297C184.682 60.3494 184.761 60.1221 185.213 60.1221C185.666 60.1221 186.32 60.3494 186.675 60.6297Z" fill="#5C3262"/>
<path d="M183.435 59.1367C183.79 59.4171 183.711 59.6443 183.259 59.6443C182.806 59.6443 182.152 59.4171 181.796 59.1367C181.441 58.8563 181.52 58.6291 181.973 58.6291C182.425 58.6291 183.08 58.8563 183.435 59.1367Z" fill="#5C3262"/>
<path d="M180.132 57.8228C180.487 58.1032 180.408 58.3305 179.956 58.3305C179.503 58.3305 178.849 58.1032 178.494 57.8228C178.139 57.5425 178.217 57.3152 178.67 57.3152C179.122 57.3152 179.777 57.5425 180.132 57.8228Z" fill="#5C3262"/>
<path d="M176.368 56.4492C176.723 56.7296 176.645 56.9569 176.192 56.9569C175.74 56.9569 175.085 56.7296 174.73 56.4492C174.375 56.1689 174.454 55.9416 174.906 55.9416C175.359 55.9416 176.013 56.1689 176.368 56.4492Z" fill="#5C3262"/>
<path d="M173.058 55.434C173.413 55.7143 173.335 55.9416 172.882 55.9416C172.43 55.9416 171.775 55.7143 171.42 55.434C171.065 55.1536 171.144 54.9263 171.596 54.9263C172.049 54.9263 172.703 55.1536 173.058 55.434Z" fill="#5C3262"/>
<path d="M169.459 54.4187C169.814 54.6991 169.735 54.9263 169.283 54.9263C168.831 54.9263 168.176 54.6991 167.821 54.4187C167.466 54.1384 167.545 53.9111 167.997 53.9111C168.449 53.9111 169.104 54.1384 169.459 54.4187Z" fill="#5C3262"/>
<path d="M166.142 53.7021C166.497 53.9824 166.418 54.2097 165.966 54.2097C165.513 54.2097 164.859 53.9824 164.503 53.7021C164.148 53.4217 164.227 53.1944 164.68 53.1944C165.132 53.1944 165.787 53.4217 166.142 53.7021Z" fill="#5C3262"/>
<path d="M162.611 53.0451C162.966 53.3255 162.887 53.5528 162.435 53.5528C161.982 53.5528 161.328 53.3255 160.973 53.0451C160.618 52.7648 160.696 52.5375 161.149 52.5375C161.601 52.5375 162.256 52.7648 162.611 53.0451Z" fill="#5C3262"/>
<path d="M159.555 52.6868C159.91 52.9672 159.831 53.1944 159.379 53.1944C158.926 53.1944 158.272 52.9672 157.917 52.6868C157.561 52.4064 157.64 52.1792 158.093 52.1792C158.545 52.1792 159.2 52.4064 159.555 52.6868Z" fill="#5C3262"/>
<path d="M156.437 52.5076C156.792 52.788 156.713 53.0153 156.26 53.0153C155.808 53.0153 155.153 52.788 154.798 52.5076C154.443 52.2273 154.522 52 154.974 52C155.427 52 156.082 52.2273 156.437 52.5076Z" fill="#5C3262"/>
<path d="M153.834 52.5076C154.19 52.788 154.111 53.0153 153.658 53.0153C153.206 53.0153 152.551 52.788 152.196 52.5076C151.841 52.2273 151.92 52 152.372 52C152.825 52 153.479 52.2273 153.834 52.5076Z" fill="#5C3262"/>
<path d="M151.17 52.6868C151.525 52.9672 151.446 53.1944 150.994 53.1944C150.541 53.1944 149.887 52.9672 149.531 52.6868C149.176 52.4064 149.255 52.1792 149.708 52.1792C150.16 52.1792 150.815 52.4064 151.17 52.6868Z" fill="#5C3262"/>
<path d="M148.925 53.0451C149.28 53.3255 149.201 53.5528 148.749 53.5528C148.297 53.5528 147.642 53.3255 147.287 53.0451C146.932 52.7648 147.011 52.5375 147.463 52.5375C147.915 52.5375 148.57 52.7648 148.925 53.0451Z" fill="#5C3262"/>
<path d="M147.251 53.7021C147.607 53.9824 147.528 54.2097 147.075 54.2097C146.623 54.2097 145.968 53.9824 145.613 53.7021C145.258 53.4217 145.337 53.1944 145.789 53.1944C146.242 53.1944 146.896 53.4217 147.251 53.7021Z" fill="#5C3262"/>
<path d="M145.633 54.4784C145.988 54.7588 145.909 54.9861 145.456 54.9861C145.004 54.9861 144.349 54.7588 143.994 54.4784C143.639 54.1981 143.718 53.9708 144.17 53.9708C144.623 53.9708 145.277 54.1981 145.633 54.4784Z" fill="#5C3262"/>
<path d="M144.454 55.3743C144.809 55.6546 144.73 55.8819 144.278 55.8819C143.825 55.8819 143.171 55.6546 142.816 55.3743C142.461 55.0939 142.539 54.8666 142.992 54.8666C143.444 54.8666 144.099 55.0939 144.454 55.3743Z" fill="#5C3262"/>
<path d="M143.771 56.509C144.126 56.7893 144.047 57.0166 143.595 57.0166C143.142 57.0166 142.488 56.7893 142.133 56.509C141.778 56.2286 141.856 56.0013 142.309 56.0013C142.761 56.0013 143.416 56.2286 143.771 56.509Z" fill="#5C3262"/>
<path d="M143.528 57.7631C143.884 58.0435 143.805 58.2707 143.352 58.2707C142.9 58.2707 142.245 58.0435 141.89 57.7631C141.535 57.4828 141.614 57.2555 142.066 57.2555C142.519 57.2555 143.173 57.4828 143.528 57.7631Z" fill="#5C3262"/>
<path d="M143.63 59.1367C143.985 59.4171 143.906 59.6443 143.454 59.6443C143.001 59.6443 142.347 59.4171 141.991 59.1367C141.636 58.8563 141.715 58.6291 142.168 58.6291C142.62 58.6291 143.275 58.8563 143.63 59.1367Z" fill="#5C3262"/>
<path d="M144.075 60.6297C144.43 60.9101 144.352 61.1374 143.899 61.1374C143.447 61.1374 142.792 60.9101 142.437 60.6297C142.082 60.3494 142.161 60.1221 142.613 60.1221C143.066 60.1221 143.72 60.3494 144.075 60.6297Z" fill="#5C3262"/>
<path d="M144.886 62.1825C145.241 62.4629 145.162 62.6901 144.709 62.6901C144.257 62.6901 143.602 62.4629 143.247 62.1825C142.892 61.9021 142.971 61.6749 143.423 61.6749C143.876 61.6749 144.53 61.9021 144.886 62.1825Z" fill="#5C3262"/>
<path d="M146.157 63.795C146.512 64.0753 146.433 64.3026 145.981 64.3026C145.528 64.3026 144.874 64.0753 144.519 63.795C144.163 63.5146 144.242 63.2873 144.695 63.2873C145.147 63.2873 145.802 63.5146 146.157 63.795Z" fill="#5C3262"/>
<path d="M148.041 65.5866C148.396 65.867 148.317 66.0942 147.865 66.0942C147.412 66.0942 146.758 65.867 146.402 65.5866C146.047 65.3063 146.126 65.079 146.579 65.079C147.031 65.079 147.686 65.3063 148.041 65.5866Z" fill="#5C3262"/>
<path d="M150.042 67.3185C150.397 67.5989 150.318 67.8262 149.866 67.8262C149.413 67.8262 148.759 67.5989 148.403 67.3185C148.048 67.0382 148.127 66.8109 148.58 66.8109C149.032 66.8109 149.687 67.0382 150.042 67.3185Z" fill="#5C3262"/>
<path d="M152.277 68.931C152.632 69.2114 152.553 69.4386 152.101 69.4386C151.648 69.4386 150.994 69.2114 150.639 68.931C150.284 68.6507 150.362 68.4234 150.815 68.4234C151.267 68.4234 151.922 68.6507 152.277 68.931Z" fill="#5C3262"/>
<path d="M154.856 70.6629C155.212 70.9433 155.133 71.1706 154.68 71.1706C154.228 71.1706 153.573 70.9433 153.218 70.6629C152.863 70.3826 152.942 70.1553 153.394 70.1553C153.847 70.1553 154.501 70.3826 154.856 70.6629Z" fill="#5C3262"/>
<path d="M157.766 72.2754C158.121 72.5558 158.043 72.783 157.59 72.783C157.138 72.783 156.483 72.5558 156.128 72.2754C155.773 71.9951 155.852 71.7678 156.304 71.7678C156.757 71.7678 157.411 71.9951 157.766 72.2754Z" fill="#5C3262"/>
<path d="M160.793 73.8282C161.148 74.1085 161.07 74.3358 160.617 74.3358C160.165 74.3358 159.51 74.1085 159.155 73.8282C158.8 73.5478 158.879 73.3205 159.331 73.3205C159.784 73.3205 160.438 73.5478 160.793 73.8282Z" fill="#5C3262"/>
<path d="M164.13 75.3212C164.485 75.6016 164.406 75.8288 163.954 75.8288C163.502 75.8288 162.847 75.6016 162.492 75.3212C162.137 75.0408 162.216 74.8136 162.668 74.8136C163.12 74.8136 163.775 75.0408 164.13 75.3212Z" fill="#5C3262"/>
<path d="M167.509 76.6948C167.864 76.9752 167.785 77.2024 167.332 77.2024C166.88 77.2024 166.225 76.9752 165.87 76.6948C165.515 76.4144 165.594 76.1872 166.046 76.1872C166.499 76.1872 167.153 76.4144 167.509 76.6948Z" fill="#5C3262"/>
<path d="M171.1 78.0087C171.456 78.289 171.377 78.5163 170.924 78.5163C170.472 78.5163 169.817 78.289 169.462 78.0087C169.107 77.7283 169.186 77.501 169.638 77.501C170.091 77.501 170.745 77.7283 171.1 78.0087Z" fill="#5C3262"/>
<path d="M174.41 79.0239C174.766 79.3043 174.687 79.5316 174.234 79.5316C173.782 79.5316 173.127 79.3043 172.772 79.0239C172.417 78.7436 172.496 78.5163 172.948 78.5163C173.401 78.5163 174.055 78.7436 174.41 79.0239Z" fill="#5C3262"/>
<path d="M178.01 80.0392C178.365 80.3195 178.286 80.5468 177.833 80.5468C177.381 80.5468 176.726 80.3195 176.371 80.0392C176.016 79.7588 176.095 79.5316 176.547 79.5316C177 79.5316 177.654 79.7588 178.01 80.0392Z" fill="#5C3262"/>
<path d="M181.52 80.7558C181.875 81.0362 181.796 81.2635 181.343 81.2635C180.891 81.2635 180.236 81.0362 179.881 80.7558C179.526 80.4755 179.605 80.2482 180.057 80.2482C180.51 80.2482 181.164 80.4755 181.52 80.7558Z" fill="#5C3262"/>
<path d="M160.143 65.7061C160.331 65.8545 160.29 65.9748 160.05 65.9748C159.811 65.9748 159.464 65.8545 159.276 65.7061C159.088 65.5576 159.13 65.4373 159.369 65.4373C159.609 65.4373 159.955 65.5576 160.143 65.7061Z" fill="#5C3262"/>
<path d="M159.663 64.87C159.851 65.0184 159.809 65.1387 159.569 65.1387C159.33 65.1387 158.983 65.0184 158.795 64.87C158.607 64.7215 158.649 64.6012 158.888 64.6012C159.128 64.6012 159.475 64.7215 159.663 64.87Z" fill="#5C3262"/>
<path d="M159.547 64.0936C159.735 64.242 159.693 64.3623 159.453 64.3623C159.214 64.3623 158.867 64.242 158.679 64.0936C158.491 63.9452 158.533 63.8248 158.772 63.8248C159.012 63.8248 159.359 63.9452 159.547 64.0936Z" fill="#5C3262"/>
<path d="M159.506 63.3769C159.694 63.5253 159.652 63.6457 159.413 63.6457C159.173 63.6457 158.827 63.5253 158.639 63.3769C158.451 63.2285 158.493 63.1082 158.732 63.1082C158.972 63.1082 159.318 63.2285 159.506 63.3769Z" fill="#5C3262"/>
<path d="M159.81 62.7797C159.998 62.9281 159.956 63.0485 159.717 63.0485C159.477 63.0485 159.131 62.9281 158.943 62.7797C158.755 62.6313 158.796 62.511 159.036 62.511C159.275 62.511 159.622 62.6313 159.81 62.7797Z" fill="#5C3262"/>
<path d="M160.286 62.2422C160.474 62.3906 160.432 62.511 160.192 62.511C159.953 62.511 159.606 62.3906 159.418 62.2422C159.23 62.0938 159.272 61.9735 159.512 61.9735C159.751 61.9735 160.098 62.0938 160.286 62.2422Z" fill="#5C3262"/>
<path d="M161.03 61.7644C161.218 61.9129 161.176 62.0332 160.937 62.0332C160.697 62.0332 160.35 61.9129 160.162 61.7644C159.974 61.616 160.016 61.4957 160.256 61.4957C160.495 61.4957 160.842 61.616 161.03 61.7644Z" fill="#5C3262"/>
<path d="M162.001 61.4658C162.189 61.6143 162.147 61.7346 161.908 61.7346C161.668 61.7346 161.322 61.6143 161.134 61.4658C160.946 61.3174 160.987 61.1971 161.227 61.1971C161.466 61.1971 161.813 61.3174 162.001 61.4658Z" fill="#5C3262"/>
<path d="M163.048 61.227C163.236 61.3754 163.194 61.4957 162.954 61.4957C162.715 61.4957 162.368 61.3754 162.18 61.227C161.992 61.0785 162.034 60.9582 162.274 60.9582C162.513 60.9582 162.86 61.0785 163.048 61.227Z" fill="#5C3262"/>
<path d="M164.438 61.1075C164.626 61.2559 164.585 61.3763 164.345 61.3763C164.106 61.3763 163.759 61.2559 163.571 61.1075C163.383 60.9591 163.425 60.8388 163.664 60.8388C163.904 60.8388 164.25 60.9591 164.438 61.1075Z" fill="#5C3262"/>
<path d="M165.808 61.0478C165.997 61.1962 165.955 61.3165 165.715 61.3165C165.476 61.3165 165.129 61.1962 164.941 61.0478C164.753 60.8994 164.795 60.779 165.034 60.779C165.274 60.779 165.62 60.8994 165.808 61.0478Z" fill="#5C3262"/>
<path d="M167.405 61.1672C167.593 61.3157 167.552 61.436 167.312 61.436C167.073 61.436 166.726 61.3157 166.538 61.1672C166.35 61.0188 166.392 60.8985 166.631 60.8985C166.871 60.8985 167.217 61.0188 167.405 61.1672Z" fill="#5C3262"/>
<path d="M169.078 61.3464C169.266 61.4948 169.224 61.6151 168.985 61.6151C168.745 61.6151 168.399 61.4948 168.211 61.3464C168.023 61.198 168.064 61.0777 168.304 61.0777C168.544 61.0777 168.89 61.198 169.078 61.3464Z" fill="#5C3262"/>
<path d="M170.902 61.645C171.09 61.7934 171.048 61.9138 170.809 61.9138C170.569 61.9138 170.223 61.7934 170.035 61.645C169.847 61.4966 169.888 61.3763 170.128 61.3763C170.367 61.3763 170.714 61.4966 170.902 61.645Z" fill="#5C3262"/>
<path d="M172.857 62.1228C173.045 62.2712 173.003 62.3915 172.763 62.3915C172.524 62.3915 172.177 62.2712 171.989 62.1228C171.801 61.9744 171.843 61.854 172.082 61.854C172.322 61.854 172.669 61.9744 172.857 62.1228Z" fill="#5C3262"/>
<path d="M174.715 62.6005C174.903 62.749 174.861 62.8693 174.621 62.8693C174.382 62.8693 174.035 62.749 173.847 62.6005C173.659 62.4521 173.701 62.3318 173.941 62.3318C174.18 62.3318 174.527 62.4521 174.715 62.6005Z" fill="#5C3262"/>
<path d="M176.724 63.1978C176.912 63.3462 176.87 63.4665 176.631 63.4665C176.391 63.4665 176.045 63.3462 175.857 63.1978C175.669 63.0493 175.71 62.929 175.95 62.929C176.19 62.929 176.536 63.0493 176.724 63.1978Z" fill="#5C3262"/>
<path d="M178.616 63.8547C178.804 64.0031 178.763 64.1234 178.523 64.1234C178.284 64.1234 177.937 64.0031 177.749 63.8547C177.561 63.7063 177.603 63.5859 177.842 63.5859C178.082 63.5859 178.428 63.7063 178.616 63.8547Z" fill="#5C3262"/>
<path d="M180.564 64.6311C180.752 64.7795 180.71 64.8998 180.47 64.8998C180.231 64.8998 179.884 64.7795 179.696 64.6311C179.508 64.4826 179.55 64.3623 179.789 64.3623C180.029 64.3623 180.376 64.4826 180.564 64.6311Z" fill="#5C3262"/>
<path d="M182.49 65.4672C182.678 65.6156 182.636 65.7359 182.397 65.7359C182.157 65.7359 181.811 65.6156 181.623 65.4672C181.435 65.3187 181.476 65.1984 181.716 65.1984C181.956 65.1984 182.302 65.3187 182.49 65.4672Z" fill="#5C3262"/>
<path d="M184.224 66.3033C184.412 66.4517 184.37 66.572 184.131 66.572C183.891 66.572 183.544 66.4517 183.356 66.3033C183.168 66.1548 183.21 66.0345 183.45 66.0345C183.689 66.0345 184.036 66.1548 184.224 66.3033Z" fill="#5C3262"/>
<path d="M185.84 67.1991C186.028 67.3475 185.987 67.4678 185.747 67.4678C185.508 67.4678 185.161 67.3475 184.973 67.1991C184.785 67.0507 184.827 66.9303 185.066 66.9303C185.306 66.9303 185.652 67.0507 185.84 67.1991Z" fill="#5C3262"/>
<path d="M187.436 68.1546C187.624 68.3031 187.583 68.4234 187.343 68.4234C187.103 68.4234 186.757 68.3031 186.569 68.1546C186.381 68.0062 186.423 67.8859 186.662 67.8859C186.902 67.8859 187.248 68.0062 187.436 68.1546Z" fill="#5C3262"/>
<path d="M188.839 69.1102C189.027 69.2586 188.986 69.3789 188.746 69.3789C188.507 69.3789 188.16 69.2586 187.972 69.1102C187.784 68.9618 187.826 68.8414 188.065 68.8414C188.305 68.8414 188.651 68.9618 188.839 69.1102Z" fill="#5C3262"/>
<path d="M190.05 70.0657C190.238 70.2141 190.196 70.3345 189.956 70.3345C189.717 70.3345 189.37 70.2141 189.182 70.0657C188.994 69.9173 189.036 69.797 189.276 69.797C189.515 69.797 189.862 69.9173 190.05 70.0657Z" fill="#5C3262"/>
<path d="M191.164 71.0213C191.352 71.1697 191.31 71.29 191.07 71.29C190.831 71.29 190.484 71.1697 190.296 71.0213C190.108 70.8728 190.15 70.7525 190.39 70.7525C190.629 70.7525 190.976 70.8728 191.164 71.0213Z" fill="#5C3262"/>
<path d="M191.913 71.9171C192.101 72.0655 192.059 72.1858 191.82 72.1858C191.58 72.1858 191.234 72.0655 191.046 71.9171C190.857 71.7687 190.899 71.6483 191.139 71.6483C191.378 71.6483 191.725 71.7687 191.913 71.9171Z" fill="#5C3262"/>
<path d="M192.566 72.8129C192.754 72.9613 192.712 73.0816 192.472 73.0816C192.233 73.0816 191.886 72.9613 191.698 72.8129C191.51 72.6645 191.552 72.5442 191.792 72.5442C192.031 72.5442 192.378 72.6645 192.566 72.8129Z" fill="#5C3262"/>
<path d="M192.95 73.649C193.138 73.7974 193.096 73.9177 192.857 73.9177C192.617 73.9177 192.271 73.7974 192.083 73.649C191.895 73.5006 191.936 73.3803 192.176 73.3803C192.416 73.3803 192.762 73.5006 192.95 73.649Z" fill="#5C3262"/>
<path d="M193.162 74.4254C193.351 74.5738 193.309 74.6941 193.069 74.6941C192.83 74.6941 192.483 74.5738 192.295 74.4254C192.107 74.277 192.149 74.1566 192.388 74.1566C192.628 74.1566 192.974 74.277 193.162 74.4254Z" fill="#5C3262"/>
<path d="M193.203 75.142C193.391 75.2905 193.349 75.4108 193.11 75.4108C192.87 75.4108 192.523 75.2905 192.335 75.142C192.147 74.9936 192.189 74.8733 192.429 74.8733C192.668 74.8733 193.015 74.9936 193.203 75.142Z" fill="#5C3262"/>
<path d="M192.899 75.7393C193.087 75.8877 193.045 76.008 192.806 76.008C192.566 76.008 192.22 75.8877 192.032 75.7393C191.844 75.5908 191.885 75.4705 192.125 75.4705C192.365 75.4705 192.711 75.5908 192.899 75.7393Z" fill="#5C3262"/>
<path d="M192.423 76.2767C192.611 76.4252 192.57 76.5455 192.33 76.5455C192.091 76.5455 191.744 76.4252 191.556 76.2767C191.368 76.1283 191.41 76.008 191.649 76.008C191.889 76.008 192.235 76.1283 192.423 76.2767Z" fill="#5C3262"/>
<path d="M191.679 76.7545C191.867 76.9029 191.825 77.0233 191.586 77.0233C191.346 77.0233 191 76.9029 190.812 76.7545C190.624 76.6061 190.666 76.4858 190.905 76.4858C191.145 76.4858 191.491 76.6061 191.679 76.7545Z" fill="#5C3262"/>
<path d="M190.708 77.0531C190.896 77.2015 190.854 77.3219 190.615 77.3219C190.375 77.3219 190.029 77.2015 189.841 77.0531C189.653 76.9047 189.695 76.7844 189.934 76.7844C190.174 76.7844 190.52 76.9047 190.708 77.0531Z" fill="#5C3262"/>
<path d="M189.661 77.292C189.849 77.4404 189.808 77.5608 189.568 77.5608C189.329 77.5608 188.982 77.4404 188.794 77.292C188.606 77.1436 188.648 77.0233 188.887 77.0233C189.127 77.0233 189.473 77.1436 189.661 77.292Z" fill="#5C3262"/>
<path d="M186.901 77.4712C187.089 77.6196 187.047 77.7399 186.807 77.7399C186.568 77.7399 186.221 77.6196 186.033 77.4712C185.845 77.3227 185.887 77.2024 186.126 77.2024C186.366 77.2024 186.713 77.3227 186.901 77.4712Z" fill="#5C3262"/>
<path d="M185.304 77.3517C185.492 77.5002 185.45 77.6205 185.21 77.6205C184.971 77.6205 184.624 77.5002 184.436 77.3517C184.248 77.2033 184.29 77.083 184.529 77.083C184.769 77.083 185.116 77.2033 185.304 77.3517Z" fill="#5C3262"/>
<path d="M183.631 77.1726C183.819 77.321 183.777 77.4413 183.538 77.4413C183.298 77.4413 182.952 77.321 182.764 77.1726C182.576 77.0241 182.617 76.9038 182.857 76.9038C183.096 76.9038 183.443 77.0241 183.631 77.1726Z" fill="#5C3262"/>
<path d="M181.731 76.8142C181.919 76.9627 181.878 77.083 181.638 77.083C181.399 77.083 181.052 76.9627 180.864 76.8142C180.676 76.6658 180.718 76.5455 180.957 76.5455C181.197 76.5455 181.543 76.6658 181.731 76.8142Z" fill="#5C3262"/>
<path d="M179.853 76.3962C180.041 76.5446 179.999 76.6649 179.759 76.6649C179.52 76.6649 179.173 76.5446 178.985 76.3962C178.797 76.2478 178.839 76.1274 179.078 76.1274C179.318 76.1274 179.665 76.2478 179.853 76.3962Z" fill="#5C3262"/>
<path d="M177.898 75.9184C178.086 76.0668 178.044 76.1872 177.805 76.1872C177.565 76.1872 177.219 76.0668 177.031 75.9184C176.843 75.77 176.884 75.6497 177.124 75.6497C177.363 75.6497 177.71 75.77 177.898 75.9184Z" fill="#5C3262"/>
<path d="M175.985 75.3212C176.173 75.4696 176.131 75.5899 175.892 75.5899C175.652 75.5899 175.306 75.4696 175.118 75.3212C174.93 75.1728 174.971 75.0525 175.211 75.0525C175.45 75.0525 175.797 75.1728 175.985 75.3212Z" fill="#5C3262"/>
<path d="M174.017 74.6045C174.205 74.753 174.163 74.8733 173.924 74.8733C173.684 74.8733 173.338 74.753 173.15 74.6045C172.962 74.4561 173.003 74.3358 173.243 74.3358C173.482 74.3358 173.829 74.4561 174.017 74.6045Z" fill="#5C3262"/>
<path d="M172.145 73.8879C172.333 74.0363 172.292 74.1566 172.052 74.1566C171.813 74.1566 171.466 74.0363 171.278 73.8879C171.09 73.7395 171.132 73.6191 171.371 73.6191C171.611 73.6191 171.957 73.7395 172.145 73.8879Z" fill="#5C3262"/>
<path d="M170.219 73.0518C170.407 73.2002 170.365 73.3205 170.126 73.3205C169.886 73.3205 169.54 73.2002 169.352 73.0518C169.164 72.9034 169.205 72.783 169.445 72.783C169.684 72.783 170.031 72.9034 170.219 73.0518Z" fill="#5C3262"/>
<path d="M168.41 72.156C168.598 72.3044 168.556 72.4247 168.316 72.4247C168.077 72.4247 167.73 72.3044 167.542 72.156C167.354 72.0075 167.396 71.8872 167.636 71.8872C167.875 71.8872 168.222 72.0075 168.41 72.156Z" fill="#5C3262"/>
<path d="M166.793 71.2601C166.981 71.4086 166.939 71.5289 166.7 71.5289C166.46 71.5289 166.114 71.4086 165.926 71.2601C165.738 71.1117 165.779 70.9914 166.019 70.9914C166.258 70.9914 166.605 71.1117 166.793 71.2601Z" fill="#5C3262"/>
<path d="M165.197 70.3046C165.385 70.453 165.343 70.5734 165.104 70.5734C164.864 70.5734 164.518 70.453 164.33 70.3046C164.142 70.1562 164.183 70.0359 164.423 70.0359C164.663 70.0359 165.009 70.1562 165.197 70.3046Z" fill="#5C3262"/>
<path d="M163.87 69.4088C164.058 69.5572 164.016 69.6775 163.776 69.6775C163.537 69.6775 163.19 69.5572 163.002 69.4088C162.814 69.2604 162.856 69.14 163.096 69.14C163.335 69.14 163.682 69.2604 163.87 69.4088Z" fill="#5C3262"/>
<path d="M162.659 68.4532C162.847 68.6017 162.806 68.722 162.566 68.722C162.326 68.722 161.98 68.6017 161.792 68.4532C161.604 68.3048 161.646 68.1845 161.885 68.1845C162.125 68.1845 162.471 68.3048 162.659 68.4532Z" fill="#5C3262"/>
<path d="M161.545 67.4977C161.733 67.6461 161.692 67.7664 161.452 67.7664C161.213 67.7664 160.866 67.6461 160.678 67.4977C160.49 67.3493 160.532 67.229 160.771 67.229C161.011 67.229 161.357 67.3493 161.545 67.4977Z" fill="#5C3262"/>
<path d="M160.721 66.5422C160.909 66.6906 160.867 66.8109 160.627 66.8109C160.388 66.8109 160.041 66.6906 159.853 66.5422C159.665 66.3937 159.707 66.2734 159.946 66.2734C160.186 66.2734 160.533 66.3937 160.721 66.5422Z" fill="#5C3262"/>
<path d="M188.367 77.4114C188.555 77.5599 188.513 77.6802 188.274 77.6802C188.034 77.6802 187.688 77.5599 187.5 77.4114C187.312 77.263 187.353 77.1427 187.593 77.1427C187.832 77.1427 188.179 77.263 188.367 77.4114Z" fill="#5C3262"/>
<defs>
<filter id="filter0_dn_1393_1180" x="0.2" y="0.2" width="355.6" height="147.6" filterUnits="userSpaceOnUse" color-interpolation-filters="sRGB">
<feFlood flood-opacity="0" result="BackgroundImageFix"/>
<feColorMatrix in="SourceAlpha" type="matrix" values="0 0 0 0 0 0 0 0 0 0 0 0 0 0 0 0 0 0 127 0" result="hardAlpha"/>
<feOffset dy="7"/>
<feGaussianBlur stdDeviation="5.9"/>
<feComposite in2="hardAlpha" operator="out"/>
<feColorMatrix type="matrix" values="0 0 0 0 0 0 0 0 0 0 0 0 0 0 0 0 0 0 0.25 0"/>
<feBlend mode="normal" in2="BackgroundImageFix" result="effect1_dropShadow_1393_1180"/>
<feBlend mode="normal" in="SourceGraphic" in2="BackgroundImageFix" result="shape"/>
<feTurbulence type="fractalNoise" baseFrequency="2 2" stitchTiles="stitch" numOctaves="3" result="noise" seed="8129" />
<feColorMatrix in="noise" type="luminanceToAlpha" result="alphaNoise" />
<feComponentTransfer in="alphaNoise" result="coloredNoise1">
<feFuncA type="discrete" tableValues="0 0 0 0 0 0 0 0 0 0 0 0 0 0 0 0 0 1 1 1 1 1 1 1 1 1 1 1 1 1 1 1 1 1 0 0 0 0 0 0 0 0 0 0 0 0 0 0 0 0 0 0 0 0 0 0 0 0 0 0 0 0 0 0 0 0 0 0 0 0 0 0 0 0 0 0 0 0 0 0 0 0 0 0 0 0 0 0 0 0 0 0 0 0 0 0 0 0 0 0 "/>
</feComponentTransfer>
<feComposite operator="in" in2="shape" in="coloredNoise1" result="noise1Clipped" />
<feFlood flood-color="rgba(0, 0, 0, 0.25)" result="color1Flood" />
<feComposite operator="in" in2="noise1Clipped" in="color1Flood" result="color1" />
<feMerge result="effect2_noise_1393_1180">
<feMergeNode in="shape" />
<feMergeNode in="color1" />
</feMerge>
<feBlend mode="normal" in="effect2_noise_1393_1180" in2="effect1_dropShadow_1393_1180" result="effect2_noise_1393_1180"/>
</filter>
</defs>
</svg>
