<svg width="175" height="146" viewBox="0 0 175 146" fill="none" xmlns="http://www.w3.org/2000/svg">
<g filter="url(#filter0_dddd_1269_1285)">
<rect width="147" height="98" rx="8.16667" transform="matrix(1 0 0 -1 14 101.992)" fill="url(#paint0_linear_1269_1285)"/>
<rect x="-0.510417" y="0.510417" width="148.021" height="99.0208" rx="8.67708" transform="matrix(1 0 0 -1 14 103.013)" stroke="url(#paint1_linear_1269_1285)" stroke-width="1.02083"/>
</g>
<mask id="mask0_1269_1285" style="mask-type:alpha" maskUnits="userSpaceOnUse" x="14" y="4" width="147" height="98">
<rect x="14" y="4" width="147" height="98" rx="8.16667" fill="black"/>
</mask>
<g mask="url(#mask0_1269_1285)">
<g opacity="0.4">
<g filter="url(#filter1_f_1269_1285)">
<path d="M17.0586 102.004L157.934 102.004L96.2294 46.5596C93.1422 43.7855 91.5986 42.3985 89.8533 41.8724C88.316 41.4089 86.6762 41.4089 85.1389 41.8724C83.3936 42.3985 81.85 43.7855 78.7627 46.5596L17.0586 102.004Z" fill="#334155" fill-opacity="0.4"/>
</g>
<g filter="url(#filter2_f_1269_1285)">
<path d="M25.2305 102.004L149.772 102.004L97.2279 43.43C93.8606 39.6763 92.177 37.7995 90.1928 37.1069C88.45 36.4985 86.5526 36.4985 84.8099 37.1069C82.8256 37.7995 81.142 39.6763 77.7747 43.43L25.2305 102.004Z" fill="#334155" fill-opacity="0.2"/>
</g>
<g filter="url(#filter3_f_1269_1285)">
<path d="M17.0586 102.004L157.934 102.004L97.0528 36.7115C93.731 33.1489 92.07 31.3676 90.1281 30.7065C88.4215 30.1255 86.5707 30.1255 84.8641 30.7065C82.9221 31.3676 81.2612 33.1489 77.9393 36.7115L17.0586 102.004Z" fill="#334155" fill-opacity="0.1"/>
</g>
</g>
<g filter="url(#filter4_i_1269_1285)">
<path d="M14 101.992L161 101.992L96.0263 46.0424C93.0013 43.4375 91.4887 42.135 89.7911 41.6388C88.295 41.2016 86.705 41.2016 85.2089 41.6388C83.5113 42.135 81.9987 43.4375 78.9737 46.0424L14 101.992Z" fill="url(#paint2_linear_1269_1285)"/>
</g>
<path d="M15.5352 99.9557L78.9846 45.5062C82.0077 42.9119 83.5193 41.6147 85.2146 41.1211C86.7088 40.686 88.2962 40.6869 89.7898 41.1237C91.4846 41.6193 92.9947 42.9181 96.0148 45.5159L160.493 100.977" stroke="#475569" stroke-opacity="0.06" stroke-width="1.02083"/>
<g style="mix-blend-mode:multiply" opacity="0.7">
<g filter="url(#filter5_f_1269_1285)">
<path d="M17.0586 4L157.934 4L96.2294 59.4443C93.1422 62.2184 91.5986 63.6054 89.8533 64.1315C88.316 64.595 86.6762 64.595 85.1389 64.1315C83.3936 63.6054 81.85 62.2184 78.7627 59.4443L17.0586 4Z" fill="#334155" fill-opacity="0.4"/>
</g>
<g filter="url(#filter6_f_1269_1285)">
<path d="M25.2305 4L149.772 4L97.2279 62.5739C93.8606 66.3276 92.177 68.2044 90.1928 68.897C88.45 69.5054 86.5526 69.5054 84.8099 68.897C82.8256 68.2044 81.142 66.3276 77.7747 62.5739L25.2305 4Z" fill="#334155" fill-opacity="0.2"/>
</g>
<g filter="url(#filter7_f_1269_1285)">
<path d="M17.0586 4L157.934 4L97.0528 69.2924C93.731 72.855 92.07 74.6363 90.1281 75.2974C88.4215 75.8784 86.5707 75.8784 84.8641 75.2974C82.9221 74.6363 81.2612 72.855 77.9393 69.2924L17.0586 4Z" fill="#334155" fill-opacity="0.1"/>
</g>
<g filter="url(#filter8_f_1269_1285)">
<path d="M22.168 4L152.835 4L92.0217 70.5141C89.5933 73.1702 85.4093 73.1702 82.9809 70.5141L22.168 4Z" fill="#334155" fill-opacity="0.05"/>
</g>
<g filter="url(#filter9_f_1269_1285)">
<path d="M16.043 2.97656L158.96 2.97656L91.6691 65.4607C89.319 67.6429 85.6836 67.6429 83.3335 65.4607L16.043 2.97656Z" fill="#334155" fill-opacity="0.1"/>
</g>
</g>
<path d="M15.5352 6.03646L78.9846 60.486C82.0077 63.0803 83.5193 64.3775 85.2146 64.8711C86.7088 65.3062 88.2962 65.3053 89.7898 64.8685C91.4846 64.3729 92.9947 63.074 96.0148 60.4763L160.493 5.01562" stroke="#475569" stroke-opacity="0.06" stroke-width="1.02083"/>
<g filter="url(#filter10_i_1269_1285)">
<path d="M14 4L161 4L96.0263 59.9496C93.0013 62.5545 91.4887 63.8569 89.7911 64.3531C88.295 64.7904 86.705 64.7904 85.2089 64.3531C83.5113 63.8569 81.9987 62.5545 78.9737 59.9496L14 4Z" fill="url(#paint3_linear_1269_1285)"/>
</g>
<g filter="url(#filter11_f_1269_1285)">
<rect x="14" y="4" width="144" height="96" stroke="url(#paint4_linear_1269_1285)" stroke-width="16"/>
</g>
<rect x="14.5" y="4.5" width="143" height="95" rx="7.5" stroke="white" stroke-opacity="0.4"/>
<path d="M97.1817 40.9383C97.1445 41.1786 96.9435 41.347 96.7327 41.3143C96.5219 41.2817 96.3812 41.0605 96.4184 40.8202C96.4556 40.5799 96.6566 40.4115 96.8674 40.4441C97.0782 40.4768 97.2189 40.698 97.1817 40.9383Z" fill="#22B5CB"/>
<path d="M97.9799 39.5415C97.9427 39.7818 97.7417 39.9501 97.5309 39.9175C97.3201 39.8849 97.1794 39.6636 97.2166 39.4233C97.2538 39.183 97.4548 39.0147 97.6656 39.0473C97.8764 39.0799 98.0171 39.3012 97.9799 39.5415Z" fill="#22B5CB"/>
<path d="M98.6451 38.1446C98.6079 38.3849 98.4069 38.5533 98.1961 38.5207C97.9853 38.488 97.8446 38.2668 97.8817 38.0265C97.9189 37.7862 98.12 37.6178 98.3308 37.6505C98.5415 37.6831 98.6823 37.9044 98.6451 38.1446Z" fill="#22B5CB"/>
<path d="M99.1107 36.6148C99.0735 36.8551 98.8725 37.0234 98.6617 36.9908C98.4509 36.9582 98.3102 36.7369 98.3474 36.4966C98.3846 36.2563 98.5856 36.088 98.7964 36.1206C99.0072 36.1532 99.1479 36.3745 99.1107 36.6148Z" fill="#22B5CB"/>
<path d="M99.4433 35.0849C99.4061 35.3252 99.205 35.4936 98.9943 35.4609C98.7835 35.4283 98.6427 35.2071 98.6799 34.9668C98.7171 34.7265 98.9182 34.5581 99.1289 34.5907C99.3397 34.6234 99.4805 34.8446 99.4433 35.0849Z" fill="#22B5CB"/>
<path d="M99.5763 33.5551C99.5391 33.7954 99.3381 33.9637 99.1273 33.9311C98.9165 33.8984 98.7758 33.6772 98.813 33.4369C98.8502 33.1966 99.0512 33.0283 99.262 33.0609C99.4728 33.0935 99.6135 33.3148 99.5763 33.5551Z" fill="#22B5CB"/>
<path d="M99.6428 31.9587C99.6056 32.199 99.4046 32.3673 99.1938 32.3347C98.983 32.3021 98.8423 32.0808 98.8795 31.8405C98.9167 31.6002 99.1177 31.4319 99.3285 31.4645C99.5393 31.4971 99.68 31.7184 99.6428 31.9587Z" fill="#22B5CB"/>
<path d="M99.5098 30.4288C99.4726 30.6691 99.2716 30.8375 99.0608 30.8048C98.85 30.7722 98.7093 30.551 98.7465 30.3107C98.7836 30.0704 98.9847 29.902 99.1955 29.9346C99.4063 29.9673 99.547 30.1885 99.5098 30.4288Z" fill="#22B5CB"/>
<path d="M99.1772 28.9655C99.14 29.2058 98.939 29.3741 98.7282 29.3415C98.5174 29.3089 98.3767 29.0876 98.4139 28.8473C98.4511 28.607 98.6521 28.4387 98.8629 28.4713C99.0737 28.5039 99.2144 28.7252 99.1772 28.9655Z" fill="#22B5CB"/>
<path d="M98.7116 27.5021C98.6744 27.7424 98.4734 27.9108 98.2626 27.8781C98.0518 27.8455 97.9111 27.6243 97.9483 27.384C97.9855 27.1437 98.1865 26.9753 98.3973 27.0079C98.6081 27.0406 98.7488 27.2618 98.7116 27.5021Z" fill="#22B5CB"/>
<path d="M98.113 26.1718C98.0758 26.4121 97.8747 26.5804 97.6639 26.5478C97.4532 26.5152 97.3124 26.2939 97.3496 26.0536C97.3868 25.8133 97.5878 25.645 97.7986 25.6776C98.0094 25.7103 98.1501 25.9315 98.113 26.1718Z" fill="#22B5CB"/>
<path d="M97.3813 24.908C97.3441 25.1483 97.1431 25.3166 96.9323 25.284C96.7215 25.2514 96.5808 25.0301 96.6179 24.7898C96.6551 24.5495 96.8562 24.3812 97.067 24.4138C97.2777 24.4465 97.4185 24.6677 97.3813 24.908Z" fill="#22B5CB"/>
<path d="M96.5166 23.7772C96.4794 24.0175 96.2783 24.1859 96.0676 24.1532C95.8568 24.1206 95.716 23.8994 95.7532 23.6591C95.7904 23.4188 95.9915 23.2504 96.2023 23.2831C96.413 23.3157 96.5538 23.5369 96.5166 23.7772Z" fill="#22B5CB"/>
<path d="M95.5188 22.7795C95.4816 23.0198 95.2806 23.1881 95.0698 23.1555C94.859 23.1229 94.7183 22.9016 94.7555 22.6613C94.7927 22.421 94.9937 22.2527 95.2045 22.2853C95.4153 22.3179 95.556 22.5392 95.5188 22.7795Z" fill="#22B5CB"/>
<path d="M94.3881 21.9148C94.3509 22.1551 94.1498 22.3234 93.9391 22.2908C93.7283 22.2582 93.5875 22.0369 93.6247 21.7966C93.6619 21.5563 93.863 21.388 94.0737 21.4206C94.2845 21.4532 94.4253 21.6745 94.3881 21.9148Z" fill="#22B5CB"/>
<path d="M93.1908 21.1831C93.1536 21.4234 92.9526 21.5918 92.7418 21.5591C92.531 21.5265 92.3903 21.3053 92.4274 21.065C92.4646 20.8247 92.6657 20.6563 92.8765 20.6889C93.0872 20.7216 93.228 20.9428 93.1908 21.1831Z" fill="#22B5CB"/>
<path d="M91.927 20.651C91.8898 20.8913 91.6888 21.0596 91.478 21.027C91.2672 20.9944 91.1264 20.7731 91.1636 20.5328C91.2008 20.2925 91.4019 20.1242 91.6127 20.1568C91.8234 20.1894 91.9642 20.4107 91.927 20.651Z" fill="#22B5CB"/>
<path d="M90.5967 20.3184C90.5595 20.5587 90.3584 20.727 90.1476 20.6944C89.9369 20.6618 89.7961 20.4405 89.8333 20.2002C89.8705 19.96 90.0716 19.7916 90.2823 19.8242C90.4931 19.8569 90.6339 20.0781 90.5967 20.3184Z" fill="#22B5CB"/>
<path d="M89.1998 20.1189C89.1626 20.3592 88.9616 20.5275 88.7508 20.4949C88.54 20.4622 88.3993 20.241 88.4365 20.0007C88.4737 19.7604 88.6747 19.5921 88.8855 19.6247C89.0963 19.6573 89.237 19.8786 89.1998 20.1189Z" fill="#22B5CB"/>
<path d="M87.803 20.1189C87.7658 20.3592 87.5648 20.5275 87.354 20.4949C87.1432 20.4622 87.0025 20.241 87.0397 20.0007C87.0769 19.7604 87.2779 19.5921 87.4887 19.6247C87.6995 19.6573 87.8402 19.8786 87.803 20.1189Z" fill="#22B5CB"/>
<path d="M86.4727 20.2519C86.4355 20.4922 86.2345 20.6605 86.0237 20.6279C85.8129 20.5953 85.6722 20.374 85.7093 20.1337C85.7465 19.8934 85.9476 19.7251 86.1584 19.7577C86.3691 19.7903 86.5099 20.0116 86.4727 20.2519Z" fill="#22B5CB"/>
<path d="M85.0758 20.5845C85.0387 20.8248 84.8376 20.9931 84.6268 20.9605C84.416 20.9279 84.2753 20.7066 84.3125 20.4663C84.3497 20.226 84.5507 20.0577 84.7615 20.0903C84.9723 20.1229 85.113 20.3442 85.0758 20.5845Z" fill="#22B5CB"/>
<path d="M83.7455 21.1166C83.7083 21.3569 83.5073 21.5252 83.2965 21.4926C83.0857 21.46 82.945 21.2387 82.9822 20.9984C83.0194 20.7581 83.2204 20.5898 83.4312 20.6224C83.642 20.655 83.7827 20.8763 83.7455 21.1166Z" fill="#22B5CB"/>
<path d="M82.4817 21.7818C82.4445 22.022 82.2435 22.1904 82.0327 22.1578C81.8219 22.1251 81.6812 21.9039 81.7184 21.6636C81.7556 21.4233 81.9566 21.255 82.1674 21.2876C82.3782 21.3202 82.5189 21.5415 82.4817 21.7818Z" fill="#22B5CB"/>
<path d="M81.2179 22.6465C81.1807 22.8868 80.9797 23.0551 80.7689 23.0225C80.5581 22.9898 80.4174 22.7686 80.4546 22.5283C80.4918 22.288 80.6928 22.1197 80.9036 22.1523C81.1144 22.1849 81.2551 22.4062 81.2179 22.6465Z" fill="#22B5CB"/>
<path d="M80.1537 23.6442C80.1165 23.8845 79.9154 24.0528 79.7047 24.0202C79.4939 23.9876 79.3531 23.7663 79.3903 23.526C79.4275 23.2857 79.6286 23.1174 79.8394 23.15C80.0501 23.1827 80.1909 23.4039 80.1537 23.6442Z" fill="#22B5CB"/>
<path d="M79.0894 24.775C79.0522 25.0153 78.8512 25.1836 78.6404 25.151C78.4296 25.1184 78.2889 24.8971 78.3261 24.6568C78.3633 24.4165 78.5643 24.2482 78.7751 24.2808C78.9859 24.3134 79.1266 24.5347 79.0894 24.775Z" fill="#22B5CB"/>
<path d="M78.1582 26.0388C78.121 26.2791 77.92 26.4474 77.7092 26.4148C77.4984 26.3822 77.3577 26.1609 77.3949 25.9206C77.4321 25.6803 77.6331 25.512 77.8439 25.5446C78.0547 25.5772 78.1954 25.7985 78.1582 26.0388Z" fill="#22B5CB"/>
<path d="M77.4265 27.4356C77.3893 27.6759 77.1883 27.8442 76.9775 27.8116C76.7667 27.779 76.626 27.5577 76.6632 27.3174C76.7004 27.0771 76.9014 26.9088 77.1122 26.9414C77.323 26.9741 77.4637 27.1953 77.4265 27.4356Z" fill="#22B5CB"/>
<path d="M76.8279 28.8324C76.7907 29.0727 76.5897 29.2411 76.3789 29.2084C76.1681 29.1758 76.0274 28.9546 76.0645 28.7143C76.1017 28.474 76.3028 28.3056 76.5136 28.3383C76.7244 28.3709 76.8651 28.5921 76.8279 28.8324Z" fill="#22B5CB"/>
<path d="M76.2958 30.2958C76.2586 30.5361 76.0575 30.7044 75.8467 30.6718C75.636 30.6392 75.4952 30.4179 75.5324 30.1776C75.5696 29.9373 75.7706 29.769 75.9814 29.8016C76.1922 29.8342 76.3329 30.0555 76.2958 30.2958Z" fill="#22B5CB"/>
<path d="M75.9632 31.8256C75.926 32.0659 75.725 32.2343 75.5142 32.2017C75.3034 32.169 75.1626 31.9478 75.1998 31.7075C75.237 31.4672 75.4381 31.2988 75.6489 31.3315C75.8596 31.3641 76.0004 31.5853 75.9632 31.8256Z" fill="#22B5CB"/>
<path d="M75.7636 33.422C75.7264 33.6623 75.5254 33.8307 75.3146 33.798C75.1038 33.7654 74.9631 33.5442 75.0003 33.3039C75.0375 33.0636 75.2385 32.8952 75.4493 32.9279C75.6601 32.9605 75.8008 33.1817 75.7636 33.422Z" fill="#22B5CB"/>
<path d="M75.7636 35.0184C75.7264 35.2587 75.5254 35.427 75.3146 35.3944C75.1038 35.3618 74.9631 35.1405 75.0003 34.9003C75.0375 34.66 75.2385 34.4916 75.4493 34.5242C75.6601 34.5569 75.8008 34.7781 75.7636 35.0184Z" fill="#22B5CB"/>
<path d="M75.8967 36.5483C75.8595 36.7886 75.6584 36.9569 75.4476 36.9243C75.2369 36.8917 75.0961 36.6704 75.1333 36.4301C75.1705 36.1898 75.3716 36.0215 75.5823 36.0541C75.7931 36.0867 75.9339 36.308 75.8967 36.5483Z" fill="#22B5CB"/>
<path d="M76.2292 38.0781C76.192 38.3184 75.991 38.4868 75.7802 38.4542C75.5694 38.4215 75.4287 38.2003 75.4659 37.96C75.5031 37.7197 75.7041 37.5513 75.9149 37.584C76.1257 37.6166 76.2664 37.8378 76.2292 38.0781Z" fill="#22B5CB"/>
<path d="M76.6949 39.4084C76.6577 39.6487 76.4566 39.8171 76.2458 39.7845C76.035 39.7518 75.8943 39.5306 75.9315 39.2903C75.9687 39.05 76.1697 38.8817 76.3805 38.9143C76.5913 38.9469 76.732 39.1682 76.6949 39.4084Z" fill="#22B5CB"/>
<path d="M77.2935 40.8053C77.2563 41.0456 77.0553 41.2139 76.8445 41.1813C76.6337 41.1487 76.493 40.9274 76.5302 40.6871C76.5674 40.4468 76.7684 40.2785 76.9792 40.3111C77.19 40.3437 77.3307 40.565 77.2935 40.8053Z" fill="#22B5CB"/>
<path d="M78.0252 42.0691C77.988 42.3094 77.7869 42.4777 77.5762 42.4451C77.3654 42.4125 77.2246 42.1912 77.2618 41.9509C77.299 41.7106 77.5001 41.5423 77.7108 41.5749C77.9216 41.6075 78.0624 41.8288 78.0252 42.0691Z" fill="#22B5CB"/>
<path d="M78.8899 43.1999C78.8527 43.4401 78.6516 43.6085 78.4409 43.5759C78.2301 43.5432 78.0893 43.322 78.1265 43.0817C78.1637 42.8414 78.3648 42.6731 78.5756 42.7057C78.7863 42.7383 78.9271 42.9596 78.8899 43.1999Z" fill="#22B5CB"/>
<path d="M79.9541 44.1976C79.9169 44.4379 79.7159 44.6062 79.5051 44.5736C79.2943 44.541 79.1536 44.3197 79.1908 44.0794C79.228 43.8391 79.429 43.6708 79.6398 43.7034C79.8506 43.736 79.9913 43.9573 79.9541 44.1976Z" fill="#22B5CB"/>
<path d="M81.0184 45.0623C80.9812 45.3026 80.7802 45.4709 80.5694 45.4383C80.3586 45.4057 80.2179 45.1844 80.255 44.9441C80.2922 44.7038 80.4933 44.5355 80.7041 44.5681C80.9148 44.6008 81.0556 44.822 81.0184 45.0623Z" fill="#22B5CB"/>
<path d="M82.2157 45.794C82.1785 46.0343 81.9774 46.2026 81.7667 46.17C81.5559 46.1374 81.4151 45.9161 81.4523 45.6758C81.4895 45.4355 81.6906 45.2672 81.9013 45.2998C82.1121 45.3324 82.2529 45.5537 82.2157 45.794Z" fill="#22B5CB"/>
<path d="M83.4795 46.3261C83.4423 46.5664 83.2412 46.7347 83.0305 46.7021C82.8197 46.6695 82.6789 46.4482 82.7161 46.2079C82.7533 45.9676 82.9544 45.7993 83.1651 45.8319C83.3759 45.8646 83.5167 46.0858 83.4795 46.3261Z" fill="#22B5CB"/>
<path d="M84.8098 46.6587C84.7726 46.899 84.5716 47.0673 84.3608 47.0347C84.15 47.0021 84.0093 46.7808 84.0465 46.5405C84.0836 46.3002 84.2847 46.1319 84.4955 46.1645C84.7063 46.1971 84.847 46.4184 84.8098 46.6587Z" fill="#22B5CB"/>
<path d="M86.2066 46.8582C86.1694 47.0985 85.9684 47.2669 85.7576 47.2342C85.5468 47.2016 85.4061 46.9804 85.4433 46.7401C85.4805 46.4998 85.6815 46.3314 85.8923 46.3641C86.1031 46.3967 86.2438 46.6179 86.2066 46.8582Z" fill="#22B5CB"/>
<path d="M87.5369 46.8582C87.4997 47.0985 87.2987 47.2669 87.0879 47.2342C86.8771 47.2016 86.7364 46.9804 86.7736 46.7401C86.8108 46.4998 87.0118 46.3314 87.2226 46.3641C87.4334 46.3967 87.5741 46.6179 87.5369 46.8582Z" fill="#22B5CB"/>
<path d="M88.9338 46.7252C88.8966 46.9655 88.6955 47.1338 88.4848 47.1012C88.274 47.0686 88.1332 46.8473 88.1704 46.607C88.2076 46.3667 88.4087 46.1984 88.6194 46.231C88.8302 46.2636 88.971 46.4849 88.9338 46.7252Z" fill="#22B5CB"/>
<path d="M90.3306 46.3926C90.2934 46.6329 90.0924 46.8013 89.8816 46.7686C89.6708 46.736 89.5301 46.5148 89.5673 46.2745C89.6045 46.0342 89.8055 45.8658 90.0163 45.8984C90.2271 45.9311 90.3678 46.1523 90.3306 46.3926Z" fill="#22B5CB"/>
<path d="M91.6609 45.8605C91.6237 46.1008 91.4227 46.2691 91.2119 46.2365C91.0011 46.2039 90.8604 45.9826 90.8976 45.7423C90.9348 45.502 91.1358 45.3337 91.3466 45.3663C91.5574 45.3989 91.6981 45.6202 91.6609 45.8605Z" fill="#22B5CB"/>
<path d="M92.9247 45.1288C92.8875 45.3691 92.6865 45.5375 92.4757 45.5048C92.2649 45.4722 92.1242 45.251 92.1614 45.0107C92.1986 44.7704 92.3996 44.602 92.6104 44.6346C92.8212 44.6673 92.9619 44.8885 92.9247 45.1288Z" fill="#22B5CB"/>
<path d="M94.122 44.2641C94.0848 44.5044 93.8838 44.6728 93.673 44.6401C93.4622 44.6075 93.3215 44.3863 93.3587 44.146C93.3959 43.9057 93.5969 43.7373 93.8077 43.7699C94.0185 43.8026 94.1592 44.0238 94.122 44.2641Z" fill="#22B5CB"/>
<path d="M95.2528 43.2664C95.2156 43.5067 95.0145 43.675 94.8038 43.6424C94.593 43.6098 94.4522 43.3885 94.4894 43.1482C94.5266 42.9079 94.7277 42.7396 94.9385 42.7722C95.1492 42.8048 95.29 43.0261 95.2528 43.2664Z" fill="#22B5CB"/>
<path d="M96.317 42.2021C96.2798 42.4424 96.0788 42.6108 95.868 42.5781C95.6572 42.5455 95.5165 42.3243 95.5537 42.084C95.5909 41.8437 95.7919 41.6753 96.0027 41.7079C96.2135 41.7406 96.3542 41.9618 96.317 42.2021Z" fill="#22B5CB"/>
<path d="M83.3805 48.0676C83.3805 48.3799 83.1274 48.633 82.8151 48.633C82.5029 48.633 82.2498 48.3799 82.2498 48.0676C82.2498 47.7554 82.5029 47.5023 82.8151 47.5023C83.1274 47.5023 83.3805 47.7554 83.3805 48.0676Z" fill="#22B5CB"/>
<path d="M85.243 48.4667C85.243 48.779 84.9898 49.0321 84.6776 49.0321C84.3653 49.0321 84.1122 48.779 84.1122 48.4667C84.1122 48.1545 84.3653 47.9014 84.6776 47.9014C84.9898 47.9014 85.243 48.1545 85.243 48.4667Z" fill="#22B5CB"/>
<path d="M87.1054 48.6663C87.1054 48.9785 86.8523 49.2317 86.54 49.2317C86.2278 49.2317 85.9746 48.9785 85.9746 48.6663C85.9746 48.354 86.2278 48.1009 86.54 48.1009C86.8523 48.1009 87.1054 48.354 87.1054 48.6663Z" fill="#22B5CB"/>
<path d="M89.1009 48.6663C89.1009 48.9785 88.8478 49.2317 88.5355 49.2317C88.2233 49.2317 87.9701 48.9785 87.9701 48.6663C87.9701 48.354 88.2233 48.1009 88.5355 48.1009C88.8478 48.1009 89.1009 48.354 89.1009 48.6663Z" fill="#22B5CB"/>
<path d="M90.9633 48.4667C90.9633 48.779 90.7102 49.0321 90.3979 49.0321C90.0857 49.0321 89.8326 48.779 89.8326 48.4667C89.8326 48.1545 90.0857 47.9014 90.3979 47.9014C90.7102 47.9014 90.9633 48.1545 90.9633 48.4667Z" fill="#22B5CB"/>
<path d="M92.8258 48.0676C92.8258 48.3799 92.5726 48.633 92.2604 48.633C91.9481 48.633 91.695 48.3799 91.695 48.0676C91.695 47.7554 91.9481 47.5023 92.2604 47.5023C92.5726 47.5023 92.8258 47.7554 92.8258 48.0676Z" fill="#22B5CB"/>
<path d="M94.6217 47.336C94.6217 47.6482 94.3686 47.9014 94.0563 47.9014C93.7441 47.9014 93.4909 47.6482 93.4909 47.336C93.4909 47.0237 93.7441 46.7706 94.0563 46.7706C94.3686 46.7706 94.6217 47.0237 94.6217 47.336Z" fill="#22B5CB"/>
<path d="M96.3511 46.5378C96.3511 46.85 96.098 47.1032 95.7857 47.1032C95.4735 47.1032 95.2203 46.85 95.2203 46.5378C95.2203 46.2255 95.4735 45.9724 95.7857 45.9724C96.098 45.9724 96.3511 46.2255 96.3511 46.5378Z" fill="#22B5CB"/>
<path d="M97.9475 45.407C97.9475 45.7193 97.6944 45.9724 97.3821 45.9724C97.0699 45.9724 96.8167 45.7193 96.8167 45.407C96.8167 45.0948 97.0699 44.8416 97.3821 44.8416C97.6944 44.8416 97.9475 45.0948 97.9475 45.407Z" fill="#22B5CB"/>
<path d="M99.4108 44.2762C99.4108 44.5885 99.1577 44.8416 98.8455 44.8416C98.5332 44.8416 98.2801 44.5885 98.2801 44.2762C98.2801 43.964 98.5332 43.7109 98.8455 43.7109C99.1577 43.7109 99.4108 43.964 99.4108 44.2762Z" fill="#22B5CB"/>
<path d="M100.741 42.8129C100.741 43.1252 100.488 43.3783 100.176 43.3783C99.8635 43.3783 99.6104 43.1252 99.6104 42.8129C99.6104 42.5006 99.8635 42.2475 100.176 42.2475C100.488 42.2475 100.741 42.5006 100.741 42.8129Z" fill="#22B5CB"/>
<path d="M101.872 41.283C101.872 41.5953 101.619 41.8484 101.307 41.8484C100.994 41.8484 100.741 41.5953 100.741 41.283C100.741 40.9708 100.994 40.7176 101.307 40.7176C101.619 40.7176 101.872 40.9708 101.872 41.283Z" fill="#22B5CB"/>
<path d="M102.803 39.6201C102.803 39.9324 102.55 40.1855 102.238 40.1855C101.926 40.1855 101.672 39.9324 101.672 39.6201C101.672 39.3079 101.926 39.0547 102.238 39.0547C102.55 39.0547 102.803 39.3079 102.803 39.6201Z" fill="#22B5CB"/>
<path d="M103.601 37.8907C103.601 38.203 103.348 38.4561 103.036 38.4561C102.724 38.4561 102.471 38.203 102.471 37.8907C102.471 37.5785 102.724 37.3253 103.036 37.3253C103.348 37.3253 103.601 37.5785 103.601 37.8907Z" fill="#22B5CB"/>
<path d="M104.133 36.0948C104.133 36.407 103.88 36.6602 103.568 36.6602C103.256 36.6602 103.003 36.407 103.003 36.0948C103.003 35.7825 103.256 35.5294 103.568 35.5294C103.88 35.5294 104.133 35.7825 104.133 36.0948Z" fill="#22B5CB"/>
<path d="M104.466 34.1658C104.466 34.4781 104.213 34.7312 103.901 34.7312C103.588 34.7312 103.335 34.4781 103.335 34.1658C103.335 33.8536 103.588 33.6005 103.901 33.6005C104.213 33.6005 104.466 33.8536 104.466 34.1658Z" fill="#22B5CB"/>
<path d="M104.466 32.2369C104.466 32.5491 104.213 32.8023 103.901 32.8023C103.588 32.8023 103.335 32.5491 103.335 32.2369C103.335 31.9246 103.588 31.6715 103.901 31.6715C104.213 31.6715 104.466 31.9246 104.466 32.2369Z" fill="#22B5CB"/>
<path d="M104.466 30.3079C104.466 30.6202 104.213 30.8733 103.901 30.8733C103.588 30.8733 103.335 30.6202 103.335 30.3079C103.335 29.9957 103.588 29.7425 103.901 29.7425C104.213 29.7425 104.466 29.9957 104.466 30.3079Z" fill="#22B5CB"/>
<path d="M104.133 28.512C104.133 28.8242 103.88 29.0774 103.568 29.0774C103.256 29.0774 103.003 28.8242 103.003 28.512C103.003 28.1997 103.256 27.9466 103.568 27.9466C103.88 27.9466 104.133 28.1997 104.133 28.512Z" fill="#22B5CB"/>
<path d="M103.601 26.583C103.601 26.8953 103.348 27.1484 103.036 27.1484C102.724 27.1484 102.471 26.8953 102.471 26.583C102.471 26.2708 102.724 26.0176 103.036 26.0176C103.348 26.0176 103.601 26.2708 103.601 26.583Z" fill="#22B5CB"/>
<path d="M102.803 24.9201C102.803 25.2324 102.55 25.4855 102.238 25.4855C101.926 25.4855 101.672 25.2324 101.672 24.9201C101.672 24.6079 101.926 24.3547 102.238 24.3547C102.55 24.3547 102.803 24.6079 102.803 24.9201Z" fill="#22B5CB"/>
<path d="M101.872 23.2572C101.872 23.5695 101.619 23.8226 101.307 23.8226C100.994 23.8226 100.741 23.5695 100.741 23.2572C100.741 22.945 100.994 22.6919 101.307 22.6919C101.619 22.6919 101.872 22.945 101.872 23.2572Z" fill="#22B5CB"/>
<path d="M100.741 21.7939C100.741 22.1061 100.488 22.3593 100.176 22.3593C99.8635 22.3593 99.6104 22.1061 99.6104 21.7939C99.6104 21.4816 99.8635 21.2285 100.176 21.2285C100.488 21.2285 100.741 21.4816 100.741 21.7939Z" fill="#22B5CB"/>
<path d="M99.3443 20.264C99.3443 20.5763 99.0912 20.8294 98.7789 20.8294C98.4667 20.8294 98.2136 20.5763 98.2136 20.264C98.2136 19.9518 98.4667 19.6986 98.7789 19.6986C99.0912 19.6986 99.3443 19.9518 99.3443 20.264Z" fill="#22B5CB"/>
<path d="M97.9475 19.1333C97.9475 19.4455 97.6944 19.6986 97.3821 19.6986C97.0699 19.6986 96.8167 19.4455 96.8167 19.1333C96.8167 18.821 97.0699 18.5679 97.3821 18.5679C97.6944 18.5679 97.9475 18.821 97.9475 19.1333Z" fill="#22B5CB"/>
<path d="M96.3511 18.0025C96.3511 18.3147 96.098 18.5679 95.7857 18.5679C95.4735 18.5679 95.2203 18.3147 95.2203 18.0025C95.2203 17.6902 95.4735 17.4371 95.7857 17.4371C96.098 17.4371 96.3511 17.6902 96.3511 18.0025Z" fill="#22B5CB"/>
<path d="M94.6882 17.2043C94.6882 17.5165 94.4351 17.7697 94.1228 17.7697C93.8106 17.7697 93.5575 17.5165 93.5575 17.2043C93.5575 16.892 93.8106 16.6389 94.1228 16.6389C94.4351 16.6389 94.6882 16.892 94.6882 17.2043Z" fill="#22B5CB"/>
<path d="M92.8258 16.4726C92.8258 16.7849 92.5726 17.038 92.2604 17.038C91.9481 17.038 91.695 16.7849 91.695 16.4726C91.695 16.1604 91.9481 15.9072 92.2604 15.9072C92.5726 15.9072 92.8258 16.1604 92.8258 16.4726Z" fill="#22B5CB"/>
<path d="M91.0298 16.0735C91.0298 16.3858 90.7767 16.6389 90.4645 16.6389C90.1522 16.6389 89.8991 16.3858 89.8991 16.0735C89.8991 15.7613 90.1522 15.5081 90.4645 15.5081C90.7767 15.5081 91.0298 15.7613 91.0298 16.0735Z" fill="#22B5CB"/>
<path d="M89.0344 15.874C89.0344 16.1862 88.7812 16.4394 88.469 16.4394C88.1567 16.4394 87.9036 16.1862 87.9036 15.874C87.9036 15.5617 88.1567 15.3086 88.469 15.3086C88.7812 15.3086 89.0344 15.5617 89.0344 15.874Z" fill="#22B5CB"/>
<path d="M87.2384 15.874C87.2384 16.1862 86.9853 16.4394 86.6731 16.4394C86.3608 16.4394 86.1077 16.1862 86.1077 15.874C86.1077 15.5617 86.3608 15.3086 86.6731 15.3086C86.9853 15.3086 87.2384 15.5617 87.2384 15.874Z" fill="#22B5CB"/>
<path d="M85.243 16.0735C85.243 16.3858 84.9898 16.6389 84.6776 16.6389C84.3653 16.6389 84.1122 16.3858 84.1122 16.0735C84.1122 15.7613 84.3653 15.5081 84.6776 15.5081C84.9898 15.5081 85.243 15.7613 85.243 16.0735Z" fill="#22B5CB"/>
<path d="M83.3805 16.4726C83.3805 16.7849 83.1274 17.038 82.8151 17.038C82.5029 17.038 82.2498 16.7849 82.2498 16.4726C82.2498 16.1604 82.5029 15.9072 82.8151 15.9072C83.1274 15.9072 83.3805 16.1604 83.3805 16.4726Z" fill="#22B5CB"/>
<path d="M81.6511 17.2043C81.6511 17.5165 81.398 17.7697 81.0857 17.7697C80.7735 17.7697 80.5203 17.5165 80.5203 17.2043C80.5203 16.892 80.7735 16.6389 81.0857 16.6389C81.398 16.6389 81.6511 16.892 81.6511 17.2043Z" fill="#22B5CB"/>
<path d="M79.8552 18.069C79.8552 18.3813 79.6021 18.6344 79.2898 18.6344C78.9775 18.6344 78.7244 18.3813 78.7244 18.069C78.7244 17.7567 78.9775 17.5036 79.2898 17.5036C79.6021 17.5036 79.8552 17.7567 79.8552 18.069Z" fill="#22B5CB"/>
<path d="M78.2588 19.0667C78.2588 19.379 78.0057 19.6321 77.6934 19.6321C77.3812 19.6321 77.128 19.379 77.128 19.0667C77.128 18.7545 77.3812 18.5014 77.6934 18.5014C78.0057 18.5014 78.2588 18.7545 78.2588 19.0667Z" fill="#22B5CB"/>
<path d="M76.7955 20.3305C76.7955 20.6428 76.5423 20.8959 76.2301 20.8959C75.9178 20.8959 75.6647 20.6428 75.6647 20.3305C75.6647 20.0183 75.9178 19.7652 76.2301 19.7652C76.5423 19.7652 76.7955 20.0183 76.7955 20.3305Z" fill="#22B5CB"/>
<path d="M75.5317 21.7274C75.5317 22.0396 75.2785 22.2928 74.9663 22.2928C74.654 22.2928 74.4009 22.0396 74.4009 21.7274C74.4009 21.4151 74.654 21.162 74.9663 21.162C75.2785 21.162 75.5317 21.4151 75.5317 21.7274Z" fill="#22B5CB"/>
<path d="M74.4009 23.2572C74.4009 23.5695 74.1478 23.8226 73.8355 23.8226C73.5232 23.8226 73.2701 23.5695 73.2701 23.2572C73.2701 22.945 73.5232 22.6919 73.8355 22.6919C74.1478 22.6919 74.4009 22.945 74.4009 23.2572Z" fill="#22B5CB"/>
<path d="M73.4032 24.9201C73.4032 25.2324 73.15 25.4855 72.8378 25.4855C72.5255 25.4855 72.2724 25.2324 72.2724 24.9201C72.2724 24.6079 72.5255 24.3547 72.8378 24.3547C73.15 24.3547 73.4032 24.6079 73.4032 24.9201Z" fill="#22B5CB"/>
<path d="M72.605 26.6495C72.605 26.9618 72.3518 27.2149 72.0396 27.2149C71.7273 27.2149 71.4742 26.9618 71.4742 26.6495C71.4742 26.3373 71.7273 26.0842 72.0396 26.0842C72.3518 26.0842 72.605 26.3373 72.605 26.6495Z" fill="#22B5CB"/>
<path d="M72.0728 28.4455C72.0728 28.7577 71.8197 29.0109 71.5074 29.0109C71.1952 29.0109 70.9421 28.7577 70.9421 28.4455C70.9421 28.1332 71.1952 27.8801 71.5074 27.8801C71.8197 27.8801 72.0728 28.1332 72.0728 28.4455Z" fill="#22B5CB"/>
<path d="M71.8068 30.4409C71.8068 30.7532 71.5536 31.0063 71.2414 31.0063C70.9291 31.0063 70.676 30.7532 70.676 30.4409C70.676 30.1287 70.9291 29.8756 71.2414 29.8756C71.5536 29.8756 71.8068 30.1287 71.8068 30.4409Z" fill="#22B5CB"/>
<path d="M71.6737 32.3699C71.6737 32.6822 71.4206 32.9353 71.1084 32.9353C70.7961 32.9353 70.543 32.6822 70.543 32.3699C70.543 32.0577 70.7961 31.8045 71.1084 31.8045C71.4206 31.8045 71.6737 32.0577 71.6737 32.3699Z" fill="#22B5CB"/>
<path d="M71.8068 34.1658C71.8068 34.4781 71.5536 34.7312 71.2414 34.7312C70.9291 34.7312 70.676 34.4781 70.676 34.1658C70.676 33.8536 70.9291 33.6005 71.2414 33.6005C71.5536 33.6005 71.8068 33.8536 71.8068 34.1658Z" fill="#22B5CB"/>
<path d="M72.0728 36.0948C72.0728 36.407 71.8197 36.6602 71.5074 36.6602C71.1952 36.6602 70.9421 36.407 70.9421 36.0948C70.9421 35.7825 71.1952 35.5294 71.5074 35.5294C71.8197 35.5294 72.0728 35.7825 72.0728 36.0948Z" fill="#22B5CB"/>
<path d="M72.6715 37.8907C72.6715 38.203 72.4183 38.4561 72.1061 38.4561C71.7938 38.4561 71.5407 38.203 71.5407 37.8907C71.5407 37.5785 71.7938 37.3253 72.1061 37.3253C72.4183 37.3253 72.6715 37.5785 72.6715 37.8907Z" fill="#22B5CB"/>
<path d="M73.4032 39.6201C73.4032 39.9324 73.15 40.1855 72.8378 40.1855C72.5255 40.1855 72.2724 39.9324 72.2724 39.6201C72.2724 39.3079 72.5255 39.0547 72.8378 39.0547C73.15 39.0547 73.4032 39.3079 73.4032 39.6201Z" fill="#22B5CB"/>
<path d="M74.4009 41.283C74.4009 41.5953 74.1478 41.8484 73.8355 41.8484C73.5232 41.8484 73.2701 41.5953 73.2701 41.283C73.2701 40.9708 73.5232 40.7176 73.8355 40.7176C74.1478 40.7176 74.4009 40.9708 74.4009 41.283Z" fill="#22B5CB"/>
<path d="M75.5317 42.8129C75.5317 43.1252 75.2785 43.3783 74.9663 43.3783C74.654 43.3783 74.4009 43.1252 74.4009 42.8129C74.4009 42.5006 74.654 42.2475 74.9663 42.2475C75.2785 42.2475 75.5317 42.5006 75.5317 42.8129Z" fill="#22B5CB"/>
<path d="M76.862 44.2762C76.862 44.5885 76.6088 44.8416 76.2966 44.8416C75.9843 44.8416 75.7312 44.5885 75.7312 44.2762C75.7312 43.964 75.9843 43.7109 76.2966 43.7109C76.6088 43.7109 76.862 43.964 76.862 44.2762Z" fill="#22B5CB"/>
<path d="M78.2588 45.407C78.2588 45.7193 78.0057 45.9724 77.6934 45.9724C77.3812 45.9724 77.128 45.7193 77.128 45.407C77.128 45.0948 77.3812 44.8416 77.6934 44.8416C78.0057 44.8416 78.2588 45.0948 78.2588 45.407Z" fill="#22B5CB"/>
<path d="M79.8552 46.5378C79.8552 46.85 79.6021 47.1032 79.2898 47.1032C78.9775 47.1032 78.7244 46.85 78.7244 46.5378C78.7244 46.2255 78.9775 45.9724 79.2898 45.9724C79.6021 45.9724 79.8552 46.2255 79.8552 46.5378Z" fill="#22B5CB"/>
<path d="M81.6511 47.336C81.6511 47.6482 81.398 47.9014 81.0857 47.9014C80.7735 47.9014 80.5203 47.6482 80.5203 47.336C80.5203 47.0237 80.7735 46.7706 81.0857 46.7706C81.398 46.7706 81.6511 47.0237 81.6511 47.336Z" fill="#22B5CB"/>
<path d="M80.0547 30.574C80.0547 30.7393 79.9207 30.8733 79.7554 30.8733C79.5901 30.8733 79.4561 30.7393 79.4561 30.574C79.4561 30.4087 79.5901 30.2747 79.7554 30.2747C79.9207 30.2747 80.0547 30.4087 80.0547 30.574Z" fill="#22B5CB"/>
<path d="M80.4538 29.6428C80.4538 29.8081 80.3198 29.9421 80.1545 29.9421C79.9892 29.9421 79.8552 29.8081 79.8552 29.6428C79.8552 29.4774 79.9892 29.3434 80.1545 29.3434C80.3198 29.3434 80.4538 29.4774 80.4538 29.6428Z" fill="#22B5CB"/>
<path d="M81.0525 28.7781C81.0525 28.9434 80.9185 29.0774 80.7532 29.0774C80.5878 29.0774 80.4538 28.9434 80.4538 28.7781C80.4538 28.6127 80.5878 28.4787 80.7532 28.4787C80.9185 28.4787 81.0525 28.6127 81.0525 28.7781Z" fill="#22B5CB"/>
<path d="M81.6511 27.9799C81.6511 28.1452 81.5171 28.2792 81.3518 28.2792C81.1865 28.2792 81.0525 28.1452 81.0525 27.9799C81.0525 27.8146 81.1865 27.6805 81.3518 27.6805C81.5171 27.6805 81.6511 27.8146 81.6511 27.9799Z" fill="#22B5CB"/>
<path d="M82.3828 27.3147C82.3828 27.48 82.2488 27.614 82.0835 27.614C81.9182 27.614 81.7841 27.48 81.7841 27.3147C81.7841 27.1494 81.9182 27.0154 82.0835 27.0154C82.2488 27.0154 82.3828 27.1494 82.3828 27.3147Z" fill="#22B5CB"/>
<path d="M83.181 26.7161C83.181 26.8814 83.047 27.0154 82.8817 27.0154C82.7163 27.0154 82.5823 26.8814 82.5823 26.7161C82.5823 26.5508 82.7163 26.4167 82.8817 26.4167C83.047 26.4167 83.181 26.5508 83.181 26.7161Z" fill="#22B5CB"/>
<path d="M84.1122 26.1839C84.1122 26.3492 83.9782 26.4833 83.8129 26.4833C83.6476 26.4833 83.5136 26.3492 83.5136 26.1839C83.5136 26.0186 83.6476 25.8846 83.8129 25.8846C83.9782 25.8846 84.1122 26.0186 84.1122 26.1839Z" fill="#22B5CB"/>
<path d="M85.0434 25.8514C85.0434 26.0167 84.9094 26.1507 84.7441 26.1507C84.5788 26.1507 84.4448 26.0167 84.4448 25.8514C84.4448 25.686 84.5788 25.552 84.7441 25.552C84.9094 25.552 85.0434 25.686 85.0434 25.8514Z" fill="#22B5CB"/>
<path d="M85.9746 25.5853C85.9746 25.7506 85.8406 25.8846 85.6753 25.8846C85.51 25.8846 85.376 25.7506 85.376 25.5853C85.376 25.42 85.51 25.286 85.6753 25.286C85.8406 25.286 85.9746 25.42 85.9746 25.5853Z" fill="#22B5CB"/>
<path d="M87.0389 25.4523C87.0389 25.6176 86.9049 25.7516 86.7396 25.7516C86.5743 25.7516 86.4403 25.6176 86.4403 25.4523C86.4403 25.2869 86.5743 25.1529 86.7396 25.1529C86.9049 25.1529 87.0389 25.2869 87.0389 25.4523Z" fill="#22B5CB"/>
<path d="M88.0366 25.3857C88.0366 25.5511 87.9026 25.6851 87.7373 25.6851C87.572 25.6851 87.438 25.5511 87.438 25.3857C87.438 25.2204 87.572 25.0864 87.7373 25.0864C87.9026 25.0864 88.0366 25.2204 88.0366 25.3857Z" fill="#22B5CB"/>
<path d="M89.0344 25.5188C89.0344 25.6841 88.9004 25.8181 88.7351 25.8181C88.5697 25.8181 88.4357 25.6841 88.4357 25.5188C88.4357 25.3535 88.5697 25.2195 88.7351 25.2195C88.9004 25.2195 89.0344 25.3535 89.0344 25.5188Z" fill="#22B5CB"/>
<path d="M90.0321 25.7183C90.0321 25.8836 89.8981 26.0176 89.7328 26.0176C89.5675 26.0176 89.4335 25.8836 89.4335 25.7183C89.4335 25.553 89.5675 25.419 89.7328 25.419C89.8981 25.419 90.0321 25.553 90.0321 25.7183Z" fill="#22B5CB"/>
<path d="M91.0298 26.0509C91.0298 26.2162 90.8958 26.3502 90.7305 26.3502C90.5652 26.3502 90.4312 26.2162 90.4312 26.0509C90.4312 25.8856 90.5652 25.7516 90.7305 25.7516C90.8958 25.7516 91.0298 25.8856 91.0298 26.0509Z" fill="#22B5CB"/>
<path d="M91.9611 26.583C91.9611 26.7483 91.8271 26.8824 91.6617 26.8824C91.4964 26.8824 91.3624 26.7483 91.3624 26.583C91.3624 26.4177 91.4964 26.2837 91.6617 26.2837C91.8271 26.2837 91.9611 26.4177 91.9611 26.583Z" fill="#22B5CB"/>
<path d="M92.8258 27.1152C92.8258 27.2805 92.6918 27.4145 92.5265 27.4145C92.3611 27.4145 92.2271 27.2805 92.2271 27.1152C92.2271 26.9498 92.3611 26.8158 92.5265 26.8158C92.6918 26.8158 92.8258 26.9498 92.8258 27.1152Z" fill="#22B5CB"/>
<path d="M93.6905 27.7803C93.6905 27.9456 93.5565 28.0796 93.3912 28.0796C93.2259 28.0796 93.0918 27.9456 93.0918 27.7803C93.0918 27.615 93.2259 27.481 93.3912 27.481C93.5565 27.481 93.6905 27.615 93.6905 27.7803Z" fill="#22B5CB"/>
<path d="M94.4222 28.512C94.4222 28.6773 94.2881 28.8113 94.1228 28.8113C93.9575 28.8113 93.8235 28.6773 93.8235 28.512C93.8235 28.3467 93.9575 28.2127 94.1228 28.2127C94.2881 28.2127 94.4222 28.3467 94.4222 28.512Z" fill="#22B5CB"/>
<path d="M95.0873 29.3767C95.0873 29.542 94.9533 29.676 94.788 29.676C94.6227 29.676 94.4887 29.542 94.4887 29.3767C94.4887 29.2114 94.6227 29.0774 94.788 29.0774C94.9533 29.0774 95.0873 29.2114 95.0873 29.3767Z" fill="#22B5CB"/>
<path d="M95.686 30.3079C95.686 30.4732 95.5519 30.6072 95.3866 30.6072C95.2213 30.6072 95.0873 30.4732 95.0873 30.3079C95.0873 30.1426 95.2213 30.0086 95.3866 30.0086C95.5519 30.0086 95.686 30.1426 95.686 30.3079Z" fill="#22B5CB"/>
<path d="M96.1516 31.2391C96.1516 31.4044 96.0176 31.5385 95.8522 31.5385C95.6869 31.5385 95.5529 31.4044 95.5529 31.2391C95.5529 31.0738 95.6869 30.9398 95.8522 30.9398C96.0176 30.9398 96.1516 31.0738 96.1516 31.2391Z" fill="#22B5CB"/>
<path d="M96.4841 32.2369C96.4841 32.4022 96.3501 32.5362 96.1848 32.5362C96.0195 32.5362 95.8855 32.4022 95.8855 32.2369C95.8855 32.0716 96.0195 31.9376 96.1848 31.9376C96.3501 31.9376 96.4841 32.0716 96.4841 32.2369Z" fill="#22B5CB"/>
<path d="M96.7502 33.3011C96.7502 33.4664 96.6162 33.6005 96.4509 33.6005C96.2856 33.6005 96.1516 33.4664 96.1516 33.3011C96.1516 33.1358 96.2856 33.0018 96.4509 33.0018C96.6162 33.0018 96.7502 33.1358 96.7502 33.3011Z" fill="#22B5CB"/>
<path d="M96.8832 34.3654C96.8832 34.5307 96.7492 34.6647 96.5839 34.6647C96.4186 34.6647 96.2846 34.5307 96.2846 34.3654C96.2846 34.2001 96.4186 34.0661 96.5839 34.0661C96.7492 34.0661 96.8832 34.2001 96.8832 34.3654Z" fill="#22B5CB"/>
<path d="M96.8832 35.4296C96.8832 35.5949 96.7492 35.729 96.5839 35.729C96.4186 35.729 96.2846 35.5949 96.2846 35.4296C96.2846 35.2643 96.4186 35.1303 96.5839 35.1303C96.7492 35.1303 96.8832 35.2643 96.8832 35.4296Z" fill="#22B5CB"/>
<path d="M96.8167 36.4939C96.8167 36.6592 96.6827 36.7932 96.5174 36.7932C96.3521 36.7932 96.2181 36.6592 96.2181 36.4939C96.2181 36.3286 96.3521 36.1946 96.5174 36.1946C96.6827 36.1946 96.8167 36.3286 96.8167 36.4939Z" fill="#22B5CB"/>
<path d="M96.5507 37.4916C96.5507 37.6569 96.4167 37.7909 96.2513 37.7909C96.086 37.7909 95.952 37.6569 95.952 37.4916C95.952 37.3263 96.086 37.1923 96.2513 37.1923C96.4167 37.1923 96.5507 37.3263 96.5507 37.4916Z" fill="#22B5CB"/>
<path d="M96.2181 38.4894C96.2181 38.6547 96.0841 38.7887 95.9188 38.7887C95.7535 38.7887 95.6194 38.6547 95.6194 38.4894C95.6194 38.3241 95.7535 38.19 95.9188 38.19C96.0841 38.19 96.2181 38.3241 96.2181 38.4894Z" fill="#22B5CB"/>
<path d="M95.7525 39.4206C95.7525 39.5859 95.6185 39.7199 95.4532 39.7199C95.2878 39.7199 95.1538 39.5859 95.1538 39.4206C95.1538 39.2553 95.2878 39.1213 95.4532 39.1213C95.6185 39.1213 95.7525 39.2553 95.7525 39.4206Z" fill="#22B5CB"/>
<path d="M95.2203 40.2853C95.2203 40.4506 95.0863 40.5846 94.921 40.5846C94.7557 40.5846 94.6217 40.4506 94.6217 40.2853C94.6217 40.12 94.7557 39.986 94.921 39.986C95.0863 39.986 95.2203 40.12 95.2203 40.2853Z" fill="#22B5CB"/>
<path d="M94.6217 41.0835C94.6217 41.2488 94.4877 41.3828 94.3224 41.3828C94.1571 41.3828 94.0231 41.2488 94.0231 41.0835C94.0231 40.9182 94.1571 40.7842 94.3224 40.7842C94.4877 40.7842 94.6217 40.9182 94.6217 41.0835Z" fill="#22B5CB"/>
<path d="M93.89 41.7486C93.89 41.914 93.756 42.048 93.5907 42.048C93.4254 42.048 93.2914 41.914 93.2914 41.7486C93.2914 41.5833 93.4254 41.4493 93.5907 41.4493C93.756 41.4493 93.89 41.5833 93.89 41.7486Z" fill="#22B5CB"/>
<path d="M93.0918 42.3473C93.0918 42.5126 92.9578 42.6466 92.7925 42.6466C92.6272 42.6466 92.4932 42.5126 92.4932 42.3473C92.4932 42.182 92.6272 42.048 92.7925 42.048C92.9578 42.048 93.0918 42.182 93.0918 42.3473Z" fill="#22B5CB"/>
<path d="M92.1606 42.8794C92.1606 43.0447 92.0266 43.1787 91.8613 43.1787C91.696 43.1787 91.562 43.0447 91.562 42.8794C91.562 42.7141 91.696 42.5801 91.8613 42.5801C92.0266 42.5801 92.1606 42.7141 92.1606 42.8794Z" fill="#22B5CB"/>
<path d="M91.2294 43.212C91.2294 43.3773 91.0954 43.5113 90.9301 43.5113C90.7648 43.5113 90.6308 43.3773 90.6308 43.212C90.6308 43.0467 90.7648 42.9127 90.9301 42.9127C91.0954 42.9127 91.2294 43.0467 91.2294 43.212Z" fill="#22B5CB"/>
<path d="M90.2982 43.4781C90.2982 43.6434 90.1642 43.7774 89.9989 43.7774C89.8335 43.7774 89.6995 43.6434 89.6995 43.4781C89.6995 43.3127 89.8335 43.1787 89.9989 43.1787C90.1642 43.1787 90.2982 43.3127 90.2982 43.4781Z" fill="#22B5CB"/>
<path d="M88.2362 43.6776C88.2362 43.8429 88.1022 43.9769 87.9369 43.9769C87.7716 43.9769 87.6375 43.8429 87.6375 43.6776C87.6375 43.5123 87.7716 43.3783 87.9369 43.3783C88.1022 43.3783 88.2362 43.5123 88.2362 43.6776Z" fill="#22B5CB"/>
<path d="M87.2384 43.5446C87.2384 43.7099 87.1044 43.8439 86.9391 43.8439C86.7738 43.8439 86.6398 43.7099 86.6398 43.5446C86.6398 43.3793 86.7738 43.2452 86.9391 43.2452C87.1044 43.2452 87.2384 43.3793 87.2384 43.5446Z" fill="#22B5CB"/>
<path d="M86.2407 43.345C86.2407 43.5103 86.1067 43.6443 85.9414 43.6443C85.7761 43.6443 85.6421 43.5103 85.6421 43.345C85.6421 43.1797 85.7761 43.0457 85.9414 43.0457C86.1067 43.0457 86.2407 43.1797 86.2407 43.345Z" fill="#22B5CB"/>
<path d="M85.243 42.9459C85.243 43.1112 85.109 43.2452 84.9436 43.2452C84.7783 43.2452 84.6443 43.1112 84.6443 42.9459C84.6443 42.7806 84.7783 42.6466 84.9436 42.6466C85.109 42.6466 85.243 42.7806 85.243 42.9459Z" fill="#22B5CB"/>
<path d="M84.3117 42.4803C84.3117 42.6456 84.1777 42.7796 84.0124 42.7796C83.8471 42.7796 83.7131 42.6456 83.7131 42.4803C83.7131 42.315 83.8471 42.181 84.0124 42.181C84.1777 42.181 84.3117 42.315 84.3117 42.4803Z" fill="#22B5CB"/>
<path d="M83.3805 41.9482C83.3805 42.1135 83.2465 42.2475 83.0812 42.2475C82.9159 42.2475 82.7819 42.1135 82.7819 41.9482C82.7819 41.7829 82.9159 41.6489 83.0812 41.6489C83.2465 41.6489 83.3805 41.7829 83.3805 41.9482Z" fill="#22B5CB"/>
<path d="M82.5823 41.283C82.5823 41.4483 82.4483 41.5824 82.283 41.5824C82.1177 41.5824 81.9837 41.4483 81.9837 41.283C81.9837 41.1177 82.1177 40.9837 82.283 40.9837C82.4483 40.9837 82.5823 41.1177 82.5823 41.283Z" fill="#22B5CB"/>
<path d="M81.8507 40.4848C81.8507 40.6502 81.7167 40.7842 81.5513 40.7842C81.386 40.7842 81.252 40.6502 81.252 40.4848C81.252 40.3195 81.386 40.1855 81.5513 40.1855C81.7167 40.1855 81.8507 40.3195 81.8507 40.4848Z" fill="#22B5CB"/>
<path d="M81.1855 39.6866C81.1855 39.852 81.0515 39.986 80.8862 39.986C80.7209 39.986 80.5869 39.852 80.5869 39.6866C80.5869 39.5213 80.7209 39.3873 80.8862 39.3873C81.0515 39.3873 81.1855 39.5213 81.1855 39.6866Z" fill="#22B5CB"/>
<path d="M80.5869 38.7554C80.5869 38.9207 80.4529 39.0547 80.2875 39.0547C80.1222 39.0547 79.9882 38.9207 79.9882 38.7554C79.9882 38.5901 80.1222 38.4561 80.2875 38.4561C80.4529 38.4561 80.5869 38.5901 80.5869 38.7554Z" fill="#22B5CB"/>
<path d="M80.1213 37.7577C80.1213 37.923 79.9872 38.057 79.8219 38.057C79.6566 38.057 79.5226 37.923 79.5226 37.7577C79.5226 37.5924 79.6566 37.4584 79.8219 37.4584C79.9872 37.4584 80.1213 37.5924 80.1213 37.7577Z" fill="#22B5CB"/>
<path d="M79.7887 36.76C79.7887 36.9253 79.6547 37.0593 79.4893 37.0593C79.324 37.0593 79.19 36.9253 79.19 36.76C79.19 36.5946 79.324 36.4606 79.4893 36.4606C79.6547 36.4606 79.7887 36.5946 79.7887 36.76Z" fill="#22B5CB"/>
<path d="M79.5226 35.6957C79.5226 35.861 79.3886 35.995 79.2233 35.995C79.058 35.995 78.924 35.861 78.924 35.6957C78.924 35.5304 79.058 35.3964 79.2233 35.3964C79.3886 35.3964 79.5226 35.5304 79.5226 35.6957Z" fill="#22B5CB"/>
<path d="M79.3896 34.698C79.3896 34.8633 79.2556 34.9973 79.0903 34.9973C78.9249 34.9973 78.7909 34.8633 78.7909 34.698C78.7909 34.5327 78.9249 34.3986 79.0903 34.3986C79.2556 34.3986 79.3896 34.5327 79.3896 34.698Z" fill="#22B5CB"/>
<path d="M79.3896 33.6337C79.3896 33.799 79.2556 33.933 79.0903 33.933C78.9249 33.933 78.7909 33.799 78.7909 33.6337C78.7909 33.4684 78.9249 33.3344 79.0903 33.3344C79.2556 33.3344 79.3896 33.4684 79.3896 33.6337Z" fill="#22B5CB"/>
<path d="M79.4561 32.5695C79.4561 32.7348 79.3221 32.8688 79.1568 32.8688C78.9915 32.8688 78.8574 32.7348 78.8574 32.5695C78.8574 32.4041 78.9915 32.2701 79.1568 32.2701C79.3221 32.2701 79.4561 32.4041 79.4561 32.5695Z" fill="#22B5CB"/>
<path d="M79.7222 31.5052C79.7222 31.6705 79.5881 31.8045 79.4228 31.8045C79.2575 31.8045 79.1235 31.6705 79.1235 31.5052C79.1235 31.3399 79.2575 31.2059 79.4228 31.2059C79.5881 31.2059 79.7222 31.3399 79.7222 31.5052Z" fill="#22B5CB"/>
<path d="M89.3004 43.6111C89.3004 43.7764 89.1664 43.9104 89.0011 43.9104C88.8358 43.9104 88.7018 43.7764 88.7018 43.6111C88.7018 43.4458 88.8358 43.3118 89.0011 43.3118C89.1664 43.3118 89.3004 43.4458 89.3004 43.6111Z" fill="#22B5CB"/>
</g>
<defs>
<filter id="filter0_dddd_1269_1285" x="0.73047" y="0.93099" width="173.539" height="144.956" filterUnits="userSpaceOnUse" color-interpolation-filters="sRGB">
<feFlood flood-opacity="0" result="BackgroundImageFix"/>
<feColorMatrix in="SourceAlpha" type="matrix" values="0 0 0 0 0 0 0 0 0 0 0 0 0 0 0 0 0 0 127 0" result="hardAlpha"/>
<feOffset dy="2.04167"/>
<feGaussianBlur stdDeviation="2.04167"/>
<feColorMatrix type="matrix" values="0 0 0 0 0.117647 0 0 0 0 0.160784 0 0 0 0 0.231373 0 0 0 0.08 0"/>
<feBlend mode="normal" in2="BackgroundImageFix" result="effect1_dropShadow_1269_1285"/>
<feColorMatrix in="SourceAlpha" type="matrix" values="0 0 0 0 0 0 0 0 0 0 0 0 0 0 0 0 0 0 127 0" result="hardAlpha"/>
<feOffset dy="8.16667"/>
<feGaussianBlur stdDeviation="4.08333"/>
<feColorMatrix type="matrix" values="0 0 0 0 0.117647 0 0 0 0 0.160784 0 0 0 0 0.231373 0 0 0 0.07 0"/>
<feBlend mode="normal" in2="effect1_dropShadow_1269_1285" result="effect2_dropShadow_1269_1285"/>
<feColorMatrix in="SourceAlpha" type="matrix" values="0 0 0 0 0 0 0 0 0 0 0 0 0 0 0 0 0 0 127 0" result="hardAlpha"/>
<feOffset dy="17.3542"/>
<feGaussianBlur stdDeviation="5.10417"/>
<feColorMatrix type="matrix" values="0 0 0 0 0.117647 0 0 0 0 0.160784 0 0 0 0 0.231373 0 0 0 0.04 0"/>
<feBlend mode="normal" in2="effect2_dropShadow_1269_1285" result="effect3_dropShadow_1269_1285"/>
<feColorMatrix in="SourceAlpha" type="matrix" values="0 0 0 0 0 0 0 0 0 0 0 0 0 0 0 0 0 0 127 0" result="hardAlpha"/>
<feOffset dy="30.625"/>
<feGaussianBlur stdDeviation="6.125"/>
<feColorMatrix type="matrix" values="0 0 0 0 0.117647 0 0 0 0 0.160784 0 0 0 0 0.231373 0 0 0 0.01 0"/>
<feBlend mode="normal" in2="effect3_dropShadow_1269_1285" result="effect4_dropShadow_1269_1285"/>
<feBlend mode="normal" in="SourceGraphic" in2="effect4_dropShadow_1269_1285" result="shape"/>
</filter>
<filter id="filter1_f_1269_1285" x="12.9753" y="37.4401" width="149.042" height="68.6471" filterUnits="userSpaceOnUse" color-interpolation-filters="sRGB">
<feFlood flood-opacity="0" result="BackgroundImageFix"/>
<feBlend mode="normal" in="SourceGraphic" in2="BackgroundImageFix" result="shape"/>
<feGaussianBlur stdDeviation="2.04167" result="effect1_foregroundBlur_1269_1285"/>
</filter>
<filter id="filter2_f_1269_1285" x="12.9805" y="24.4023" width="149.043" height="89.8516" filterUnits="userSpaceOnUse" color-interpolation-filters="sRGB">
<feFlood flood-opacity="0" result="BackgroundImageFix"/>
<feBlend mode="normal" in="SourceGraphic" in2="BackgroundImageFix" result="shape"/>
<feGaussianBlur stdDeviation="6.125" result="effect1_foregroundBlur_1269_1285"/>
</filter>
<filter id="filter3_f_1269_1285" x="-7.4414" y="5.76953" width="189.875" height="120.734" filterUnits="userSpaceOnUse" color-interpolation-filters="sRGB">
<feFlood flood-opacity="0" result="BackgroundImageFix"/>
<feBlend mode="normal" in="SourceGraphic" in2="BackgroundImageFix" result="shape"/>
<feGaussianBlur stdDeviation="12.25" result="effect1_foregroundBlur_1269_1285"/>
</filter>
<filter id="filter4_i_1269_1285" x="14" y="41.3125" width="147" height="60.6797" filterUnits="userSpaceOnUse" color-interpolation-filters="sRGB">
<feFlood flood-opacity="0" result="BackgroundImageFix"/>
<feBlend mode="normal" in="SourceGraphic" in2="BackgroundImageFix" result="shape"/>
<feColorMatrix in="SourceAlpha" type="matrix" values="0 0 0 0 0 0 0 0 0 0 0 0 0 0 0 0 0 0 127 0" result="hardAlpha"/>
<feOffset dy="1.02083"/>
<feComposite in2="hardAlpha" operator="arithmetic" k2="-1" k3="1"/>
<feColorMatrix type="matrix" values="0 0 0 0 1 0 0 0 0 1 0 0 0 0 1 0 0 0 0.6 0"/>
<feBlend mode="normal" in2="shape" result="effect1_innerShadow_1269_1285"/>
</filter>
<filter id="filter5_f_1269_1285" x="12.9753" y="-0.0833335" width="149.042" height="68.6471" filterUnits="userSpaceOnUse" color-interpolation-filters="sRGB">
<feFlood flood-opacity="0" result="BackgroundImageFix"/>
<feBlend mode="normal" in="SourceGraphic" in2="BackgroundImageFix" result="shape"/>
<feGaussianBlur stdDeviation="2.04167" result="effect1_foregroundBlur_1269_1285"/>
</filter>
<filter id="filter6_f_1269_1285" x="12.9805" y="-8.25" width="149.043" height="89.8516" filterUnits="userSpaceOnUse" color-interpolation-filters="sRGB">
<feFlood flood-opacity="0" result="BackgroundImageFix"/>
<feBlend mode="normal" in="SourceGraphic" in2="BackgroundImageFix" result="shape"/>
<feGaussianBlur stdDeviation="6.125" result="effect1_foregroundBlur_1269_1285"/>
</filter>
<filter id="filter7_f_1269_1285" x="-7.4414" y="-20.5" width="189.875" height="120.734" filterUnits="userSpaceOnUse" color-interpolation-filters="sRGB">
<feFlood flood-opacity="0" result="BackgroundImageFix"/>
<feBlend mode="normal" in="SourceGraphic" in2="BackgroundImageFix" result="shape"/>
<feGaussianBlur stdDeviation="12.25" result="effect1_foregroundBlur_1269_1285"/>
</filter>
<filter id="filter8_f_1269_1285" x="11.9596" y="-6.20833" width="151.085" height="88.9245" filterUnits="userSpaceOnUse" color-interpolation-filters="sRGB">
<feFlood flood-opacity="0" result="BackgroundImageFix"/>
<feBlend mode="normal" in="SourceGraphic" in2="BackgroundImageFix" result="shape"/>
<feGaussianBlur stdDeviation="5.10417" result="effect1_foregroundBlur_1269_1285"/>
</filter>
<filter id="filter9_f_1269_1285" x="11.9596" y="-1.10677" width="151.085" height="72.2878" filterUnits="userSpaceOnUse" color-interpolation-filters="sRGB">
<feFlood flood-opacity="0" result="BackgroundImageFix"/>
<feBlend mode="normal" in="SourceGraphic" in2="BackgroundImageFix" result="shape"/>
<feGaussianBlur stdDeviation="2.04167" result="effect1_foregroundBlur_1269_1285"/>
</filter>
<filter id="filter10_i_1269_1285" x="14" y="4" width="147" height="60.6797" filterUnits="userSpaceOnUse" color-interpolation-filters="sRGB">
<feFlood flood-opacity="0" result="BackgroundImageFix"/>
<feBlend mode="normal" in="SourceGraphic" in2="BackgroundImageFix" result="shape"/>
<feColorMatrix in="SourceAlpha" type="matrix" values="0 0 0 0 0 0 0 0 0 0 0 0 0 0 0 0 0 0 127 0" result="hardAlpha"/>
<feOffset dy="-1.02083"/>
<feComposite in2="hardAlpha" operator="arithmetic" k2="-1" k3="1"/>
<feColorMatrix type="matrix" values="0 0 0 0 1 0 0 0 0 1 0 0 0 0 1 0 0 0 0.5 0"/>
<feBlend mode="normal" in2="shape" result="effect1_innerShadow_1269_1285"/>
</filter>
<filter id="filter11_f_1269_1285" x="-2" y="-12" width="176" height="128" filterUnits="userSpaceOnUse" color-interpolation-filters="sRGB">
<feFlood flood-opacity="0" result="BackgroundImageFix"/>
<feBlend mode="normal" in="SourceGraphic" in2="BackgroundImageFix" result="shape"/>
<feGaussianBlur stdDeviation="4" result="effect1_foregroundBlur_1269_1285"/>
</filter>
<linearGradient id="paint0_linear_1269_1285" x1="73.5" y1="0" x2="73.5" y2="98" gradientUnits="userSpaceOnUse">
<stop offset="0.130208" stop-color="#EEF0F1"/>
<stop offset="0.848958" stop-color="#F9FAFA"/>
</linearGradient>
<linearGradient id="paint1_linear_1269_1285" x1="73.5" y1="0" x2="73.5" y2="98" gradientUnits="userSpaceOnUse">
<stop stop-color="#475569" stop-opacity="0.06"/>
<stop offset="1" stop-color="#475569" stop-opacity="0.04"/>
</linearGradient>
<linearGradient id="paint2_linear_1269_1285" x1="87.5" y1="38.7003" x2="87.5" y2="101.992" gradientUnits="userSpaceOnUse">
<stop offset="0.524194" stop-color="#F4F5F6"/>
<stop offset="1" stop-color="#EEF0F1"/>
</linearGradient>
<linearGradient id="paint3_linear_1269_1285" x1="87.5" y1="4" x2="87.5" y2="67.2917" gradientUnits="userSpaceOnUse">
<stop offset="0.25" stop-color="#FAFAFB"/>
<stop offset="1" stop-color="#F4F5F6"/>
</linearGradient>
<linearGradient id="paint4_linear_1269_1285" x1="86" y1="4.89719" x2="86" y2="100" gradientUnits="userSpaceOnUse">
<stop stop-color="#F9FAFA"/>
<stop offset="0.693396" stop-color="#EEF0F1"/>
</linearGradient>
</defs>
</svg>
