<svg width="164" height="164" viewBox="0 0 164 164" fill="none" xmlns="http://www.w3.org/2000/svg">
<path d="M128.98 123.602C128.802 124.757 127.835 125.567 126.822 125.41C125.808 125.253 125.132 124.189 125.311 123.034C125.49 121.879 126.456 121.07 127.469 121.226C128.483 121.383 129.159 122.447 128.98 123.602Z" fill="#22B5CB"/>
<path d="M132.818 116.887C132.639 118.042 131.673 118.851 130.659 118.695C129.646 118.538 128.969 117.474 129.148 116.319C129.327 115.164 130.293 114.354 131.307 114.511C132.32 114.668 132.997 115.732 132.818 116.887Z" fill="#22B5CB"/>
<path d="M136.016 110.172C135.837 111.327 134.87 112.136 133.857 111.979C132.844 111.822 132.167 110.759 132.346 109.604C132.525 108.448 133.491 107.639 134.504 107.796C135.518 107.953 136.194 109.016 136.016 110.172Z" fill="#22B5CB"/>
<path d="M138.254 102.817C138.075 103.972 137.109 104.781 136.095 104.624C135.082 104.468 134.405 103.404 134.584 102.249C134.763 101.093 135.73 100.284 136.743 100.441C137.756 100.598 138.433 101.661 138.254 102.817Z" fill="#22B5CB"/>
<path d="M139.853 95.4618C139.674 96.6171 138.708 97.4264 137.694 97.2695C136.681 97.1127 136.004 96.049 136.183 94.8938C136.362 93.7386 137.328 92.9292 138.342 93.0861C139.355 93.2429 140.032 94.3066 139.853 95.4618Z" fill="#22B5CB"/>
<path d="M140.492 88.107C140.314 89.2622 139.347 90.0715 138.334 89.9147C137.32 89.7578 136.644 88.6942 136.823 87.5389C137.002 86.3837 137.968 85.5744 138.981 85.7312C139.995 85.8881 140.671 86.9517 140.492 88.107Z" fill="#22B5CB"/>
<path d="M140.812 80.4323C140.633 81.5876 139.667 82.3969 138.654 82.2401C137.64 82.0832 136.964 81.0195 137.142 79.8643C137.321 78.7091 138.288 77.8997 139.301 78.0566C140.314 78.2135 140.991 79.2771 140.812 80.4323Z" fill="#22B5CB"/>
<path d="M140.173 73.0775C139.994 74.2327 139.027 75.0421 138.014 74.8852C137.001 74.7283 136.324 73.6647 136.503 72.5095C136.682 71.3542 137.648 70.5449 138.662 70.7017C139.675 70.8586 140.351 71.9223 140.173 73.0775Z" fill="#22B5CB"/>
<path d="M138.574 66.0424C138.395 67.1976 137.429 68.007 136.415 67.8501C135.402 67.6933 134.725 66.6296 134.904 65.4744C135.083 64.3191 136.049 63.5098 137.063 63.6667C138.076 63.8235 138.753 64.8872 138.574 66.0424Z" fill="#22B5CB"/>
<path d="M136.335 59.0073C136.157 60.1626 135.19 60.9719 134.177 60.815C133.163 60.6582 132.487 59.5945 132.666 58.4393C132.844 57.2841 133.811 56.4747 134.824 56.6316C135.838 56.7884 136.514 57.8521 136.335 59.0073Z" fill="#22B5CB"/>
<path d="M133.457 52.6118C133.279 53.767 132.312 54.5764 131.299 54.4195C130.285 54.2627 129.609 53.199 129.788 52.0438C129.966 50.8885 130.933 50.0792 131.946 50.2361C132.96 50.3929 133.636 51.4566 133.457 52.6118Z" fill="#22B5CB"/>
<path d="M129.94 46.536C129.761 47.6913 128.795 48.5006 127.781 48.3438C126.768 48.1869 126.091 47.1233 126.27 45.968C126.449 44.8128 127.415 44.0035 128.429 44.1603C129.442 44.3172 130.119 45.3808 129.94 46.536Z" fill="#22B5CB"/>
<path d="M125.783 41.0999C125.604 42.2551 124.637 43.0644 123.624 42.9076C122.611 42.7507 121.934 41.6871 122.113 40.5318C122.292 39.3766 123.258 38.5673 124.272 38.7241C125.285 38.881 125.962 39.9446 125.783 41.0999Z" fill="#22B5CB"/>
<path d="M120.986 36.3032C120.807 37.4584 119.841 38.2678 118.827 38.1109C117.814 37.9541 117.138 36.8904 117.316 35.7352C117.495 34.58 118.462 33.7706 119.475 33.9275C120.488 34.0843 121.165 35.148 120.986 36.3032Z" fill="#22B5CB"/>
<path d="M115.55 32.1461C115.371 33.3013 114.405 34.1107 113.391 33.9538C112.378 33.797 111.701 32.7333 111.88 31.5781C112.059 30.4229 113.025 29.6135 114.039 29.7704C115.052 29.9272 115.729 30.9909 115.55 32.1461Z" fill="#22B5CB"/>
<path d="M109.794 28.6286C109.615 29.7838 108.649 30.5931 107.635 30.4363C106.622 30.2794 105.945 29.2158 106.124 28.0605C106.303 26.9053 107.269 26.096 108.283 26.2528C109.296 26.4097 109.973 27.4733 109.794 28.6286Z" fill="#22B5CB"/>
<path d="M103.718 26.0704C103.539 27.2256 102.573 28.0349 101.56 27.8781C100.546 27.7212 99.8696 26.6576 100.048 25.5023C100.227 24.3471 101.194 23.5378 102.207 23.6946C103.22 23.8515 103.897 24.9151 103.718 26.0704Z" fill="#22B5CB"/>
<path d="M97.3226 24.4715C97.1438 25.6267 96.1774 26.436 95.164 26.2792C94.1506 26.1223 93.4741 25.0587 93.6529 23.9035C93.8317 22.7482 94.7982 21.9389 95.8115 22.0957C96.8249 22.2526 97.5014 23.3163 97.3226 24.4715Z" fill="#22B5CB"/>
<path d="M90.6073 23.5121C90.4285 24.6674 89.4621 25.4767 88.4487 25.3199C87.4353 25.163 86.7588 24.0994 86.9376 22.9441C87.1164 21.7889 88.0829 20.9796 89.0962 21.1364C90.1096 21.2933 90.7861 22.3569 90.6073 23.5121Z" fill="#22B5CB"/>
<path d="M83.892 23.5121C83.7132 24.6674 82.7467 25.4767 81.7334 25.3199C80.72 25.163 80.0435 24.0994 80.2223 22.9441C80.4011 21.7889 81.3675 20.9796 82.3809 21.1364C83.3943 21.2933 84.0708 22.3569 83.892 23.5121Z" fill="#22B5CB"/>
<path d="M77.4965 24.1517C77.3177 25.3069 76.3512 26.1163 75.3378 25.9594C74.3245 25.8026 73.6479 24.7389 73.8267 23.5837C74.0056 22.4284 74.972 21.6191 75.9854 21.776C76.9988 21.9328 77.6753 22.9965 77.4965 24.1517Z" fill="#22B5CB"/>
<path d="M70.7812 25.7506C70.6024 26.9058 69.6359 27.7152 68.6225 27.5583C67.6092 27.4014 66.9326 26.3378 67.1114 25.1826C67.2903 24.0273 68.2567 23.218 69.2701 23.3748C70.2835 23.5317 70.96 24.5954 70.7812 25.7506Z" fill="#22B5CB"/>
<path d="M64.3857 28.3088C64.2068 29.464 63.2404 30.2734 62.227 30.1165C61.2136 29.9597 60.5371 28.896 60.7159 27.7408C60.8947 26.5855 61.8612 25.7762 62.8746 25.9331C63.8879 26.0899 64.5645 27.1536 64.3857 28.3088Z" fill="#22B5CB"/>
<path d="M58.3099 31.5066C58.1311 32.6618 57.1646 33.4711 56.1513 33.3143C55.1379 33.1574 54.4614 32.0938 54.6402 30.9385C54.819 29.7833 55.7854 28.974 56.7988 29.1308C57.8122 29.2877 58.4887 30.3513 58.3099 31.5066Z" fill="#22B5CB"/>
<path d="M52.2342 35.6637C52.0553 36.8189 51.0889 37.6282 50.0755 37.4714C49.0621 37.3145 48.3856 36.2509 48.5644 35.0956C48.7432 33.9404 49.7097 33.1311 50.7231 33.2879C51.7364 33.4448 52.413 34.5084 52.2342 35.6637Z" fill="#22B5CB"/>
<path d="M47.1177 40.4603C46.9389 41.6155 45.9725 42.4249 44.9591 42.268C43.9457 42.1112 43.2692 41.0475 43.448 39.8923C43.6268 38.737 44.5933 37.9277 45.6066 38.0846C46.62 38.2414 47.2966 39.3051 47.1177 40.4603Z" fill="#22B5CB"/>
<path d="M42.0013 45.8965C41.8225 47.0517 40.856 47.8611 39.8427 47.7042C38.8293 47.5474 38.1528 46.4837 38.3316 45.3285C38.5104 44.1732 39.4768 43.3639 40.4902 43.5208C41.5036 43.6776 42.1801 44.7413 42.0013 45.8965Z" fill="#22B5CB"/>
<path d="M37.5244 51.9722C37.3456 53.1275 36.3792 53.9368 35.3658 53.78C34.3524 53.6231 33.6759 52.5595 33.8547 51.4042C34.0335 50.249 35 49.4397 36.0133 49.5965C37.0267 49.7534 37.7033 50.817 37.5244 51.9722Z" fill="#22B5CB"/>
<path d="M34.0069 58.6876C33.8281 59.8428 32.8616 60.6521 31.8483 60.4953C30.8349 60.3384 30.1584 59.2748 30.3372 58.1195C30.516 56.9643 31.4824 56.155 32.4958 56.3118C33.5092 56.4687 34.1857 57.5323 34.0069 58.6876Z" fill="#22B5CB"/>
<path d="M31.1289 65.4029C30.9501 66.5581 29.9836 67.3674 28.9703 67.2106C27.9569 67.0537 27.2804 65.9901 27.4592 64.8348C27.638 63.6796 28.6044 62.8703 29.6178 63.0271C30.6312 63.184 31.3077 64.2476 31.1289 65.4029Z" fill="#22B5CB"/>
<path d="M28.5707 72.4379C28.3919 73.5932 27.4254 74.4025 26.4121 74.2456C25.3987 74.0888 24.7222 73.0251 24.901 71.8699C25.0798 70.7147 26.0462 69.9053 27.0596 70.0622C28.073 70.2191 28.7495 71.2827 28.5707 72.4379Z" fill="#22B5CB"/>
<path d="M26.9718 79.7928C26.793 80.948 25.8266 81.7574 24.8132 81.6005C23.7998 81.4436 23.1233 80.38 23.3021 79.2248C23.4809 78.0695 24.4474 77.2602 25.4607 77.4171C26.4741 77.5739 27.1506 78.6376 26.9718 79.7928Z" fill="#22B5CB"/>
<path d="M26.0125 87.4674C25.8337 88.6226 24.8672 89.432 23.8539 89.2751C22.8405 89.1183 22.1639 88.0546 22.3428 86.8994C22.5216 85.7442 23.488 84.9348 24.5014 85.0917C25.5148 85.2485 26.1913 86.3122 26.0125 87.4674Z" fill="#22B5CB"/>
<path d="M26.0125 95.1421C25.8337 96.2973 24.8672 97.1066 23.8539 96.9498C22.8405 96.7929 22.1639 95.7293 22.3428 94.574C22.5216 93.4188 23.488 92.6095 24.5014 92.7663C25.5148 92.9232 26.1913 93.9868 26.0125 95.1421Z" fill="#22B5CB"/>
<path d="M26.652 102.497C26.4732 103.652 25.5068 104.461 24.4934 104.305C23.48 104.148 22.8035 103.084 22.9823 101.929C23.1611 100.774 24.1276 99.9643 25.1409 100.121C26.1543 100.278 26.8309 101.342 26.652 102.497Z" fill="#22B5CB"/>
<path d="M28.2509 109.852C28.0721 111.007 27.1057 111.816 26.0923 111.659C25.0789 111.503 24.4024 110.439 24.5812 109.284C24.76 108.129 25.7265 107.319 26.7398 107.476C27.7532 107.633 28.4297 108.697 28.2509 109.852Z" fill="#22B5CB"/>
<path d="M30.4894 116.247C30.3106 117.403 29.3441 118.212 28.3307 118.055C27.3174 117.898 26.6408 116.835 26.8196 115.679C26.9984 114.524 27.9649 113.715 28.9783 113.872C29.9916 114.028 30.6682 115.092 30.4894 116.247Z" fill="#22B5CB"/>
<path d="M33.3674 122.963C33.1885 124.118 32.2221 124.927 31.2087 124.77C30.1953 124.613 29.5188 123.55 29.6976 122.395C29.8764 121.239 30.8429 120.43 31.8563 120.587C32.8696 120.744 33.5462 121.807 33.3674 122.963Z" fill="#22B5CB"/>
<path d="M36.8849 129.038C36.7061 130.194 35.7396 131.003 34.7263 130.846C33.7129 130.689 33.0363 129.626 33.2151 128.47C33.394 127.315 34.3604 126.506 35.3738 126.663C36.3872 126.819 37.0637 127.883 36.8849 129.038Z" fill="#22B5CB"/>
<path d="M41.042 134.475C40.8632 135.63 39.8967 136.439 38.8833 136.282C37.87 136.125 37.1934 135.062 37.3722 133.907C37.5511 132.751 38.5175 131.942 39.5309 132.099C40.5443 132.256 41.2208 133.319 41.042 134.475Z" fill="#22B5CB"/>
<path d="M46.1584 139.271C45.9796 140.426 45.0131 141.236 43.9998 141.079C42.9864 140.922 42.3098 139.858 42.4887 138.703C42.6675 137.548 43.6339 136.739 44.6473 136.895C45.6607 137.052 46.3372 138.116 46.1584 139.271Z" fill="#22B5CB"/>
<path d="M51.2748 143.428C51.096 144.584 50.1296 145.393 49.1162 145.236C48.1028 145.079 47.4263 144.015 47.6051 142.86C47.7839 141.705 48.7504 140.896 49.7637 141.053C50.7771 141.209 51.4536 142.273 51.2748 143.428Z" fill="#22B5CB"/>
<path d="M57.0308 146.946C56.852 148.101 55.8855 148.91 54.8722 148.754C53.8588 148.597 53.1823 147.533 53.3611 146.378C53.5399 145.223 54.5063 144.413 55.5197 144.57C56.5331 144.727 57.2096 145.791 57.0308 146.946Z" fill="#22B5CB"/>
<path d="M63.1066 149.504C62.9277 150.659 61.9613 151.469 60.9479 151.312C59.9345 151.155 59.258 150.091 59.4368 148.936C59.6156 147.781 60.5821 146.971 61.5955 147.128C62.6088 147.285 63.2854 148.349 63.1066 149.504Z" fill="#22B5CB"/>
<path d="M69.5021 151.103C69.3233 152.258 68.3568 153.067 67.3434 152.911C66.3301 152.754 65.6535 151.69 65.8323 150.535C66.0112 149.38 66.9776 148.57 67.991 148.727C69.0044 148.884 69.6809 149.948 69.5021 151.103Z" fill="#22B5CB"/>
<path d="M76.2174 152.062C76.0386 153.217 75.0721 154.027 74.0587 153.87C73.0454 153.713 72.3688 152.649 72.5476 151.494C72.7265 150.339 73.6929 149.53 74.7063 149.687C75.7197 149.843 76.3962 150.907 76.2174 152.062Z" fill="#22B5CB"/>
<path d="M82.6129 152.062C82.4341 153.217 81.4676 154.027 80.4543 153.87C79.4409 153.713 78.7644 152.649 78.9432 151.494C79.122 150.339 80.0884 149.53 81.1018 149.687C82.1152 149.843 82.7917 150.907 82.6129 152.062Z" fill="#22B5CB"/>
<path d="M89.3282 151.423C89.1494 152.578 88.183 153.387 87.1696 153.23C86.1562 153.074 85.4797 152.01 85.6585 150.855C85.8373 149.699 86.8037 148.89 87.8171 149.047C88.8305 149.204 89.507 150.267 89.3282 151.423Z" fill="#22B5CB"/>
<path d="M96.0435 149.824C95.8647 150.979 94.8983 151.788 93.8849 151.632C92.8715 151.475 92.195 150.411 92.3738 149.256C92.5526 148.101 93.519 147.291 94.5324 147.448C95.5458 147.605 96.2223 148.669 96.0435 149.824Z" fill="#22B5CB"/>
<path d="M102.439 147.266C102.26 148.421 101.294 149.23 100.28 149.073C99.267 148.916 98.5905 147.853 98.7693 146.698C98.9481 145.542 99.9146 144.733 100.928 144.89C101.941 145.047 102.618 146.11 102.439 147.266Z" fill="#22B5CB"/>
<path d="M108.515 143.748C108.336 144.903 107.37 145.713 106.356 145.556C105.343 145.399 104.666 144.335 104.845 143.18C105.024 142.025 105.99 141.215 107.004 141.372C108.017 141.529 108.694 142.593 108.515 143.748Z" fill="#22B5CB"/>
<path d="M114.271 139.591C114.092 140.746 113.126 141.556 112.112 141.399C111.099 141.242 110.422 140.178 110.601 139.023C110.78 137.868 111.746 137.058 112.76 137.215C113.773 137.372 114.45 138.436 114.271 139.591Z" fill="#22B5CB"/>
<path d="M119.707 134.794C119.528 135.95 118.562 136.759 117.548 136.602C116.535 136.445 115.858 135.382 116.037 134.226C116.216 133.071 117.183 132.262 118.196 132.419C119.209 132.575 119.886 133.639 119.707 134.794Z" fill="#22B5CB"/>
<path d="M124.823 129.678C124.645 130.833 123.678 131.642 122.665 131.486C121.651 131.329 120.975 130.265 121.154 129.11C121.332 127.955 122.299 127.145 123.312 127.302C124.326 127.459 125.002 128.523 124.823 129.678Z" fill="#22B5CB"/>
<path d="M62.6309 157.877C62.6309 159.378 61.414 160.595 59.9128 160.595C58.4116 160.595 57.1947 159.378 57.1947 157.877C57.1947 156.375 58.4116 155.158 59.9128 155.158C61.414 155.158 62.6309 156.375 62.6309 157.877Z" fill="#22B5CB"/>
<path d="M71.5846 159.795C71.5846 161.296 70.3677 162.513 68.8665 162.513C67.3654 162.513 66.1484 161.296 66.1484 159.795C66.1484 158.294 67.3654 157.077 68.8665 157.077C70.3677 157.077 71.5846 158.294 71.5846 159.795Z" fill="#22B5CB"/>
<path d="M80.5384 160.755C80.5384 162.256 79.3214 163.473 77.8203 163.473C76.3191 163.473 75.1022 162.256 75.1022 160.755C75.1022 159.253 76.3191 158.036 77.8203 158.036C79.3214 158.036 80.5384 159.253 80.5384 160.755Z" fill="#22B5CB"/>
<path d="M90.1317 160.755C90.1317 162.256 88.9147 163.473 87.4136 163.473C85.9124 163.473 84.6955 162.256 84.6955 160.755C84.6955 159.253 85.9124 158.036 87.4136 158.036C88.9147 158.036 90.1317 159.253 90.1317 160.755Z" fill="#22B5CB"/>
<path d="M99.0854 159.795C99.0854 161.296 97.8685 162.513 96.3673 162.513C94.8661 162.513 93.6492 161.296 93.6492 159.795C93.6492 158.294 94.8661 157.077 96.3673 157.077C97.8685 157.077 99.0854 158.294 99.0854 159.795Z" fill="#22B5CB"/>
<path d="M108.039 157.877C108.039 159.378 106.822 160.595 105.321 160.595C103.82 160.595 102.603 159.378 102.603 157.877C102.603 156.375 103.82 155.158 105.321 155.158C106.822 155.158 108.039 156.375 108.039 157.877Z" fill="#22B5CB"/>
<path d="M116.673 154.359C116.673 155.86 115.456 157.077 113.955 157.077C112.454 157.077 111.237 155.86 111.237 154.359C111.237 152.858 112.454 151.641 113.955 151.641C115.456 151.641 116.673 152.858 116.673 154.359Z" fill="#22B5CB"/>
<path d="M124.987 150.522C124.987 152.023 123.77 153.24 122.269 153.24C120.768 153.24 119.551 152.023 119.551 150.522C119.551 149.021 120.768 147.804 122.269 147.804C123.77 147.804 124.987 149.021 124.987 150.522Z" fill="#22B5CB"/>
<path d="M132.662 145.086C132.662 146.587 131.445 147.804 129.944 147.804C128.443 147.804 127.226 146.587 127.226 145.086C127.226 143.584 128.443 142.367 129.944 142.367C131.445 142.367 132.662 143.584 132.662 145.086Z" fill="#22B5CB"/>
<path d="M139.697 139.649C139.697 141.15 138.48 142.367 136.979 142.367C135.478 142.367 134.261 141.15 134.261 139.649C134.261 138.148 135.478 136.931 136.979 136.931C138.48 136.931 139.697 138.148 139.697 139.649Z" fill="#22B5CB"/>
<path d="M146.093 132.614C146.093 134.115 144.876 135.332 143.374 135.332C141.873 135.332 140.656 134.115 140.656 132.614C140.656 131.113 141.873 129.896 143.374 129.896C144.876 129.896 146.093 131.113 146.093 132.614Z" fill="#22B5CB"/>
<path d="M151.529 125.259C151.529 126.761 150.312 127.977 148.811 127.977C147.309 127.977 146.093 126.761 146.093 125.259C146.093 123.758 147.309 122.541 148.811 122.541C150.312 122.541 151.529 123.758 151.529 125.259Z" fill="#22B5CB"/>
<path d="M156.006 117.265C156.006 118.766 154.789 119.983 153.288 119.983C151.786 119.983 150.569 118.766 150.569 117.265C150.569 115.764 151.786 114.547 153.288 114.547C154.789 114.547 156.006 115.764 156.006 117.265Z" fill="#22B5CB"/>
<path d="M159.843 108.951C159.843 110.452 158.626 111.669 157.125 111.669C155.624 111.669 154.407 110.452 154.407 108.951C154.407 107.45 155.624 106.233 157.125 106.233C158.626 106.233 159.843 107.45 159.843 108.951Z" fill="#22B5CB"/>
<path d="M162.401 100.317C162.401 101.818 161.184 103.035 159.683 103.035C158.182 103.035 156.965 101.818 156.965 100.317C156.965 98.8157 158.182 97.5987 159.683 97.5987C161.184 97.5987 162.401 98.8157 162.401 100.317Z" fill="#22B5CB"/>
<path d="M164 91.0433C164 92.5445 162.783 93.7614 161.282 93.7614C159.781 93.7614 158.564 92.5445 158.564 91.0433C158.564 89.5422 159.781 88.3252 161.282 88.3252C162.783 88.3252 164 89.5422 164 91.0433Z" fill="#22B5CB"/>
<path d="M164 81.7698C164 83.271 162.783 84.4879 161.282 84.4879C159.781 84.4879 158.564 83.271 158.564 81.7698C158.564 80.2686 159.781 79.0517 161.282 79.0517C162.783 79.0517 164 80.2686 164 81.7698Z" fill="#22B5CB"/>
<path d="M164 72.4963C164 73.9975 162.783 75.2144 161.282 75.2144C159.781 75.2144 158.564 73.9975 158.564 72.4963C158.564 70.9951 159.781 69.7782 161.282 69.7782C162.783 69.7782 164 70.9951 164 72.4963Z" fill="#22B5CB"/>
<path d="M162.401 63.8623C162.401 65.3635 161.184 66.5804 159.683 66.5804C158.182 66.5804 156.965 65.3635 156.965 63.8623C156.965 62.3612 158.182 61.1442 159.683 61.1442C161.184 61.1442 162.401 62.3612 162.401 63.8623Z" fill="#22B5CB"/>
<path d="M159.843 54.5888C159.843 56.09 158.626 57.3069 157.125 57.3069C155.624 57.3069 154.407 56.09 154.407 54.5888C154.407 53.0876 155.624 51.8707 157.125 51.8707C158.626 51.8707 159.843 53.0876 159.843 54.5888Z" fill="#22B5CB"/>
<path d="M156.006 46.5944C156.006 48.0956 154.789 49.3125 153.288 49.3125C151.786 49.3125 150.569 48.0956 150.569 46.5944C150.569 45.0932 151.786 43.8763 153.288 43.8763C154.789 43.8763 156.006 45.0932 156.006 46.5944Z" fill="#22B5CB"/>
<path d="M151.529 38.6C151.529 40.1012 150.312 41.3181 148.811 41.3181C147.309 41.3181 146.093 40.1012 146.093 38.6C146.093 37.0988 147.309 35.8819 148.811 35.8819C150.312 35.8819 151.529 37.0988 151.529 38.6Z" fill="#22B5CB"/>
<path d="M146.093 31.5649C146.093 33.0661 144.876 34.283 143.374 34.283C141.873 34.283 140.656 33.0661 140.656 31.5649C140.656 30.0637 141.873 28.8468 143.374 28.8468C144.876 28.8468 146.093 30.0637 146.093 31.5649Z" fill="#22B5CB"/>
<path d="M139.377 24.2101C139.377 25.7112 138.16 26.9282 136.659 26.9282C135.158 26.9282 133.941 25.7112 133.941 24.2101C133.941 22.7089 135.158 21.492 136.659 21.492C138.16 21.492 139.377 22.7089 139.377 24.2101Z" fill="#22B5CB"/>
<path d="M132.662 18.7739C132.662 20.275 131.445 21.492 129.944 21.492C128.443 21.492 127.226 20.275 127.226 18.7739C127.226 17.2727 128.443 16.0558 129.944 16.0558C131.445 16.0558 132.662 17.2727 132.662 18.7739Z" fill="#22B5CB"/>
<path d="M124.987 13.3377C124.987 14.8388 123.77 16.0558 122.269 16.0558C120.768 16.0558 119.551 14.8388 119.551 13.3377C119.551 11.8365 120.768 10.6196 122.269 10.6196C123.77 10.6196 124.987 11.8365 124.987 13.3377Z" fill="#22B5CB"/>
<path d="M116.993 9.50035C116.993 11.0015 115.776 12.2184 114.275 12.2184C112.774 12.2184 111.557 11.0015 111.557 9.50035C111.557 7.99918 112.774 6.78225 114.275 6.78225C115.776 6.78225 116.993 7.99918 116.993 9.50035Z" fill="#22B5CB"/>
<path d="M108.039 5.98281C108.039 7.48397 106.822 8.7009 105.321 8.7009C103.82 8.7009 102.603 7.48397 102.603 5.98281C102.603 4.48164 103.82 3.26471 105.321 3.26471C106.822 3.26471 108.039 4.48164 108.039 5.98281Z" fill="#22B5CB"/>
<path d="M99.4052 4.06415C99.4052 5.56531 98.1882 6.78225 96.6871 6.78225C95.1859 6.78225 93.969 5.56531 93.969 4.06415C93.969 2.56298 95.1859 1.34605 96.6871 1.34605C98.1882 1.34605 99.4052 2.56298 99.4052 4.06415Z" fill="#22B5CB"/>
<path d="M89.8119 3.10482C89.8119 4.60598 88.595 5.82292 87.0938 5.82292C85.5926 5.82292 84.3757 4.60598 84.3757 3.10482C84.3757 1.60365 85.5926 0.386719 87.0938 0.386719C88.595 0.386719 89.8119 1.60365 89.8119 3.10482Z" fill="#22B5CB"/>
<path d="M81.1779 3.10482C81.1779 4.60598 79.961 5.82292 78.4598 5.82292C76.9587 5.82292 75.7417 4.60598 75.7417 3.10482C75.7417 1.60365 76.9587 0.386719 78.4598 0.386719C79.961 0.386719 81.1779 1.60365 81.1779 3.10482Z" fill="#22B5CB"/>
<path d="M71.5846 4.06415C71.5846 5.56531 70.3677 6.78225 68.8665 6.78225C67.3654 6.78225 66.1484 5.56531 66.1484 4.06415C66.1484 2.56298 67.3654 1.34605 68.8665 1.34605C70.3677 1.34605 71.5846 2.56298 71.5846 4.06415Z" fill="#22B5CB"/>
<path d="M62.6309 5.98281C62.6309 7.48397 61.414 8.7009 59.9128 8.7009C58.4116 8.7009 57.1947 7.48397 57.1947 5.98281C57.1947 4.48164 58.4116 3.26471 59.9128 3.26471C61.414 3.26471 62.6309 4.48164 62.6309 5.98281Z" fill="#22B5CB"/>
<path d="M54.3167 9.50035C54.3167 11.0015 53.0998 12.2184 51.5986 12.2184C50.0975 12.2184 48.8805 11.0015 48.8805 9.50035C48.8805 7.99918 50.0975 6.78225 51.5986 6.78225C53.0998 6.78225 54.3167 7.99918 54.3167 9.50035Z" fill="#22B5CB"/>
<path d="M45.6828 13.6574C45.6828 15.1586 44.4658 16.3755 42.9647 16.3755C41.4635 16.3755 40.2466 15.1586 40.2466 13.6574C40.2466 12.1563 41.4635 10.9393 42.9647 10.9393C44.4658 10.9393 45.6828 12.1563 45.6828 13.6574Z" fill="#22B5CB"/>
<path d="M38.0081 18.4541C38.0081 19.9552 36.7912 21.1722 35.29 21.1722C33.7889 21.1722 32.5719 19.9552 32.5719 18.4541C32.5719 16.9529 33.7889 15.736 35.29 15.736C36.7912 15.736 38.0081 16.9529 38.0081 18.4541Z" fill="#22B5CB"/>
<path d="M30.973 24.5298C30.973 26.031 29.7561 27.2479 28.2549 27.2479C26.7538 27.2479 25.5368 26.031 25.5368 24.5298C25.5368 23.0287 26.7538 21.8117 28.2549 21.8117C29.7561 21.8117 30.973 23.0287 30.973 24.5298Z" fill="#22B5CB"/>
<path d="M24.8973 31.2451C24.8973 32.7463 23.6804 33.9632 22.1792 33.9632C20.678 33.9632 19.4611 32.7463 19.4611 31.2451C19.4611 29.744 20.678 28.527 22.1792 28.527C23.6804 28.527 24.8973 29.744 24.8973 31.2451Z" fill="#22B5CB"/>
<path d="M19.4611 38.6C19.4611 40.1012 18.2442 41.3181 16.743 41.3181C15.2418 41.3181 14.0249 40.1012 14.0249 38.6C14.0249 37.0988 15.2418 35.8819 16.743 35.8819C18.2442 35.8819 19.4611 37.0988 19.4611 38.6Z" fill="#22B5CB"/>
<path d="M14.6644 46.5944C14.6644 48.0956 13.4475 49.3125 11.9463 49.3125C10.4452 49.3125 9.22825 48.0956 9.22825 46.5944C9.22825 45.0932 10.4452 43.8763 11.9463 43.8763C13.4475 43.8763 14.6644 45.0932 14.6644 46.5944Z" fill="#22B5CB"/>
<path d="M10.8271 54.9086C10.8271 56.4098 9.61019 57.6267 8.10903 57.6267C6.60787 57.6267 5.39093 56.4098 5.39093 54.9086C5.39093 53.4074 6.60787 52.1905 8.10903 52.1905C9.61019 52.1905 10.8271 53.4074 10.8271 54.9086Z" fill="#22B5CB"/>
<path d="M8.26892 63.5425C8.26892 65.0437 7.05198 66.2606 5.55082 66.2606C4.04965 66.2606 2.83272 65.0437 2.83272 63.5425C2.83272 62.0414 4.04965 60.8245 5.55082 60.8245C7.05198 60.8245 8.26892 62.0414 8.26892 63.5425Z" fill="#22B5CB"/>
<path d="M6.98981 73.1358C6.98981 74.637 5.77288 75.8539 4.27171 75.8539C2.77055 75.8539 1.55362 74.637 1.55362 73.1358C1.55362 71.6347 2.77055 70.4177 4.27171 70.4177C5.77288 70.4177 6.98981 71.6347 6.98981 73.1358Z" fill="#22B5CB"/>
<path d="M6.35026 82.4094C6.35026 83.9105 5.13333 85.1275 3.63216 85.1275C2.131 85.1275 0.914062 83.9105 0.914062 82.4094C0.914062 80.9082 2.131 79.6913 3.63216 79.6913C5.13333 79.6913 6.35026 80.9082 6.35026 82.4094Z" fill="#22B5CB"/>
<path d="M6.98981 91.0433C6.98981 92.5445 5.77288 93.7614 4.27171 93.7614C2.77055 93.7614 1.55362 92.5445 1.55362 91.0433C1.55362 89.5422 2.77055 88.3252 4.27171 88.3252C5.77288 88.3252 6.98981 89.5422 6.98981 91.0433Z" fill="#22B5CB"/>
<path d="M8.26892 100.317C8.26892 101.818 7.05198 103.035 5.55082 103.035C4.04965 103.035 2.83272 101.818 2.83272 100.317C2.83272 98.8157 4.04965 97.5987 5.55082 97.5987C7.05198 97.5987 8.26892 98.8157 8.26892 100.317Z" fill="#22B5CB"/>
<path d="M11.1469 108.951C11.1469 110.452 9.92997 111.669 8.42881 111.669C6.92764 111.669 5.71071 110.452 5.71071 108.951C5.71071 107.45 6.92764 106.233 8.42881 106.233C9.92997 106.233 11.1469 107.45 11.1469 108.951Z" fill="#22B5CB"/>
<path d="M14.6644 117.265C14.6644 118.766 13.4475 119.983 11.9463 119.983C10.4452 119.983 9.22825 118.766 9.22825 117.265C9.22825 115.764 10.4452 114.547 11.9463 114.547C13.4475 114.547 14.6644 115.764 14.6644 117.265Z" fill="#22B5CB"/>
<path d="M19.4611 125.259C19.4611 126.761 18.2442 127.977 16.743 127.977C15.2418 127.977 14.0249 126.761 14.0249 125.259C14.0249 123.758 15.2418 122.541 16.743 122.541C18.2442 122.541 19.4611 123.758 19.4611 125.259Z" fill="#22B5CB"/>
<path d="M24.8973 132.614C24.8973 134.115 23.6804 135.332 22.1792 135.332C20.678 135.332 19.4611 134.115 19.4611 132.614C19.4611 131.113 20.678 129.896 22.1792 129.896C23.6804 129.896 24.8973 131.113 24.8973 132.614Z" fill="#22B5CB"/>
<path d="M31.2928 139.649C31.2928 141.15 30.0759 142.367 28.5747 142.367C27.0736 142.367 25.8566 141.15 25.8566 139.649C25.8566 138.148 27.0736 136.931 28.5747 136.931C30.0759 136.931 31.2928 138.148 31.2928 139.649Z" fill="#22B5CB"/>
<path d="M38.0081 145.086C38.0081 146.587 36.7912 147.804 35.29 147.804C33.7889 147.804 32.5719 146.587 32.5719 145.086C32.5719 143.584 33.7889 142.367 35.29 142.367C36.7912 142.367 38.0081 143.584 38.0081 145.086Z" fill="#22B5CB"/>
<path d="M45.6828 150.522C45.6828 152.023 44.4658 153.24 42.9647 153.24C41.4635 153.24 40.2466 152.023 40.2466 150.522C40.2466 149.021 41.4635 147.804 42.9647 147.804C44.4658 147.804 45.6828 149.021 45.6828 150.522Z" fill="#22B5CB"/>
<path d="M54.3167 154.359C54.3167 155.86 53.0998 157.077 51.5986 157.077C50.0975 157.077 48.8805 155.86 48.8805 154.359C48.8805 152.858 50.0975 151.641 51.5986 151.641C53.0998 151.641 54.3167 152.858 54.3167 154.359Z" fill="#22B5CB"/>
<path d="M46.6421 73.7754C46.6421 74.5701 45.9978 75.2144 45.2031 75.2144C44.4084 75.2144 43.7641 74.5701 43.7641 73.7754C43.7641 72.9807 44.4084 72.3364 45.2031 72.3364C45.9978 72.3364 46.6421 72.9807 46.6421 73.7754Z" fill="#22B5CB"/>
<path d="M48.5607 69.2985C48.5607 70.0933 47.9165 70.7375 47.1217 70.7375C46.327 70.7375 45.6828 70.0933 45.6828 69.2985C45.6828 68.5038 46.327 67.8595 47.1217 67.8595C47.9165 67.8595 48.5607 68.5038 48.5607 69.2985Z" fill="#22B5CB"/>
<path d="M51.4387 65.1414C51.4387 65.9362 50.7945 66.5804 49.9997 66.5804C49.205 66.5804 48.5607 65.9362 48.5607 65.1414C48.5607 64.3467 49.205 63.7024 49.9997 63.7024C50.7945 63.7024 51.4387 64.3467 51.4387 65.1414Z" fill="#22B5CB"/>
<path d="M54.3167 61.3041C54.3167 62.0988 53.6725 62.7431 52.8777 62.7431C52.083 62.7431 51.4387 62.0988 51.4387 61.3041C51.4387 60.5094 52.083 59.8651 52.8777 59.8651C53.6725 59.8651 54.3167 60.5094 54.3167 61.3041Z" fill="#22B5CB"/>
<path d="M57.8343 58.1064C57.8343 58.9011 57.19 59.5453 56.3953 59.5453C55.6005 59.5453 54.9563 58.9011 54.9563 58.1064C54.9563 57.3116 55.6005 56.6674 56.3953 56.6674C57.19 56.6674 57.8343 57.3116 57.8343 58.1064Z" fill="#22B5CB"/>
<path d="M61.6716 55.2284C61.6716 56.0231 61.0273 56.6674 60.2326 56.6674C59.4378 56.6674 58.7936 56.0231 58.7936 55.2284C58.7936 54.4336 59.4378 53.7894 60.2326 53.7894C61.0273 53.7894 61.6716 54.4336 61.6716 55.2284Z" fill="#22B5CB"/>
<path d="M66.1484 52.6702C66.1484 53.4649 65.5042 54.1091 64.7094 54.1091C63.9147 54.1091 63.2705 53.4649 63.2705 52.6702C63.2705 51.8754 63.9147 51.2312 64.7094 51.2312C65.5042 51.2312 66.1484 51.8754 66.1484 52.6702Z" fill="#22B5CB"/>
<path d="M70.6253 51.0713C70.6253 51.866 69.9811 52.5103 69.1863 52.5103C68.3916 52.5103 67.7473 51.866 67.7473 51.0713C67.7473 50.2765 68.3916 49.6323 69.1863 49.6323C69.9811 49.6323 70.6253 50.2765 70.6253 51.0713Z" fill="#22B5CB"/>
<path d="M75.1022 49.7922C75.1022 50.5869 74.4579 51.2312 73.6632 51.2312C72.8684 51.2312 72.2242 50.5869 72.2242 49.7922C72.2242 48.9974 72.8684 48.3532 73.6632 48.3532C74.4579 48.3532 75.1022 48.9974 75.1022 49.7922Z" fill="#22B5CB"/>
<path d="M80.2186 49.1526C80.2186 49.9473 79.5743 50.5916 78.7796 50.5916C77.9849 50.5916 77.3406 49.9473 77.3406 49.1526C77.3406 48.3579 77.9849 47.7136 78.7796 47.7136C79.5743 47.7136 80.2186 48.3579 80.2186 49.1526Z" fill="#22B5CB"/>
<path d="M85.0152 48.8328C85.0152 49.6276 84.371 50.2718 83.5763 50.2718C82.7815 50.2718 82.1373 49.6276 82.1373 48.8328C82.1373 48.0381 82.7815 47.3938 83.5763 47.3938C84.371 47.3938 85.0152 48.0381 85.0152 48.8328Z" fill="#22B5CB"/>
<path d="M89.8119 49.4724C89.8119 50.2671 89.1676 50.9114 88.3729 50.9114C87.5782 50.9114 86.9339 50.2671 86.9339 49.4724C86.9339 48.6777 87.5782 48.0334 88.3729 48.0334C89.1676 48.0334 89.8119 48.6777 89.8119 49.4724Z" fill="#22B5CB"/>
<path d="M94.6085 50.4317C94.6085 51.2265 93.9643 51.8707 93.1695 51.8707C92.3748 51.8707 91.7305 51.2265 91.7305 50.4317C91.7305 49.637 92.3748 48.9927 93.1695 48.9927C93.9643 48.9927 94.6085 49.637 94.6085 50.4317Z" fill="#22B5CB"/>
<path d="M99.4052 52.0306C99.4052 52.8253 98.7609 53.4696 97.9662 53.4696C97.1715 53.4696 96.5272 52.8253 96.5272 52.0306C96.5272 51.2359 97.1715 50.5916 97.9662 50.5916C98.7609 50.5916 99.4052 51.2359 99.4052 52.0306Z" fill="#22B5CB"/>
<path d="M103.882 54.5888C103.882 55.3835 103.238 56.0278 102.443 56.0278C101.648 56.0278 101.004 55.3835 101.004 54.5888C101.004 53.7941 101.648 53.1498 102.443 53.1498C103.238 53.1498 103.882 53.7941 103.882 54.5888Z" fill="#22B5CB"/>
<path d="M108.039 57.147C108.039 57.9418 107.395 58.586 106.6 58.586C105.805 58.586 105.161 57.9418 105.161 57.147C105.161 56.3523 105.805 55.708 106.6 55.708C107.395 55.708 108.039 56.3523 108.039 57.147Z" fill="#22B5CB"/>
<path d="M112.196 60.3448C112.196 61.1395 111.552 61.7838 110.757 61.7838C109.963 61.7838 109.318 61.1395 109.318 60.3448C109.318 59.5501 109.963 58.9058 110.757 58.9058C111.552 58.9058 112.196 59.5501 112.196 60.3448Z" fill="#22B5CB"/>
<path d="M115.714 63.8623C115.714 64.6571 115.07 65.3013 114.275 65.3013C113.48 65.3013 112.836 64.6571 112.836 63.8623C112.836 63.0676 113.48 62.4233 114.275 62.4233C115.07 62.4233 115.714 63.0676 115.714 63.8623Z" fill="#22B5CB"/>
<path d="M118.912 68.0194C118.912 68.8142 118.267 69.4584 117.473 69.4584C116.678 69.4584 116.034 68.8142 116.034 68.0194C116.034 67.2247 116.678 66.5804 117.473 66.5804C118.267 66.5804 118.912 67.2247 118.912 68.0194Z" fill="#22B5CB"/>
<path d="M121.79 72.4963C121.79 73.291 121.145 73.9353 120.351 73.9353C119.556 73.9353 118.912 73.291 118.912 72.4963C118.912 71.7016 119.556 71.0573 120.351 71.0573C121.145 71.0573 121.79 71.7016 121.79 72.4963Z" fill="#22B5CB"/>
<path d="M124.028 76.9732C124.028 77.7679 123.384 78.4121 122.589 78.4121C121.794 78.4121 121.15 77.7679 121.15 76.9732C121.15 76.1784 121.794 75.5342 122.589 75.5342C123.384 75.5342 124.028 76.1784 124.028 76.9732Z" fill="#22B5CB"/>
<path d="M125.627 81.7698C125.627 82.5645 124.983 83.2088 124.188 83.2088C123.393 83.2088 122.749 82.5645 122.749 81.7698C122.749 80.9751 123.393 80.3308 124.188 80.3308C124.983 80.3308 125.627 80.9751 125.627 81.7698Z" fill="#22B5CB"/>
<path d="M126.906 86.8862C126.906 87.681 126.262 88.3252 125.467 88.3252C124.672 88.3252 124.028 87.681 124.028 86.8862C124.028 86.0915 124.672 85.4472 125.467 85.4472C126.262 85.4472 126.906 86.0915 126.906 86.8862Z" fill="#22B5CB"/>
<path d="M127.546 92.0026C127.546 92.7974 126.901 93.4416 126.107 93.4416C125.312 93.4416 124.668 92.7974 124.668 92.0026C124.668 91.2079 125.312 90.5637 126.107 90.5637C126.901 90.5637 127.546 91.2079 127.546 92.0026Z" fill="#22B5CB"/>
<path d="M127.546 97.1191C127.546 97.9138 126.901 98.5581 126.107 98.5581C125.312 98.5581 124.668 97.9138 124.668 97.1191C124.668 96.3243 125.312 95.6801 126.107 95.6801C126.901 95.6801 127.546 96.3243 127.546 97.1191Z" fill="#22B5CB"/>
<path d="M127.226 102.235C127.226 103.03 126.581 103.674 125.787 103.674C124.992 103.674 124.348 103.03 124.348 102.235C124.348 101.441 124.992 100.796 125.787 100.796C126.581 100.796 127.226 101.441 127.226 102.235Z" fill="#22B5CB"/>
<path d="M125.947 107.032C125.947 107.827 125.302 108.471 124.508 108.471C123.713 108.471 123.069 107.827 123.069 107.032C123.069 106.237 123.713 105.593 124.508 105.593C125.302 105.593 125.947 106.237 125.947 107.032Z" fill="#22B5CB"/>
<path d="M124.348 111.829C124.348 112.624 123.703 113.268 122.909 113.268C122.114 113.268 121.47 112.624 121.47 111.829C121.47 111.034 122.114 110.39 122.909 110.39C123.703 110.39 124.348 111.034 124.348 111.829Z" fill="#22B5CB"/>
<path d="M122.109 116.306C122.109 117.1 121.465 117.745 120.67 117.745C119.876 117.745 119.231 117.1 119.231 116.306C119.231 115.511 119.876 114.867 120.67 114.867C121.465 114.867 122.109 115.511 122.109 116.306Z" fill="#22B5CB"/>
<path d="M119.551 120.463C119.551 121.257 118.907 121.902 118.112 121.902C117.317 121.902 116.673 121.257 116.673 120.463C116.673 119.668 117.317 119.024 118.112 119.024C118.907 119.024 119.551 119.668 119.551 120.463Z" fill="#22B5CB"/>
<path d="M116.673 124.3C116.673 125.095 116.029 125.739 115.234 125.739C114.439 125.739 113.795 125.095 113.795 124.3C113.795 123.505 114.439 122.861 115.234 122.861C116.029 122.861 116.673 123.505 116.673 124.3Z" fill="#22B5CB"/>
<path d="M113.156 127.498C113.156 128.293 112.511 128.937 111.717 128.937C110.922 128.937 110.278 128.293 110.278 127.498C110.278 126.703 110.922 126.059 111.717 126.059C112.511 126.059 113.156 126.703 113.156 127.498Z" fill="#22B5CB"/>
<path d="M109.318 130.376C109.318 131.171 108.674 131.815 107.879 131.815C107.085 131.815 106.44 131.171 106.44 130.376C106.44 129.581 107.085 128.937 107.879 128.937C108.674 128.937 109.318 129.581 109.318 130.376Z" fill="#22B5CB"/>
<path d="M104.841 132.934C104.841 133.729 104.197 134.373 103.402 134.373C102.608 134.373 101.963 133.729 101.963 132.934C101.963 132.139 102.608 131.495 103.402 131.495C104.197 131.495 104.841 132.139 104.841 132.934Z" fill="#22B5CB"/>
<path d="M100.365 134.533C100.365 135.328 99.7203 135.972 98.9255 135.972C98.1308 135.972 97.4865 135.328 97.4865 134.533C97.4865 133.738 98.1308 133.094 98.9255 133.094C99.7203 133.094 100.365 133.738 100.365 134.533Z" fill="#22B5CB"/>
<path d="M95.8876 135.812C95.8876 136.607 95.2434 137.251 94.4487 137.251C93.6539 137.251 93.0097 136.607 93.0097 135.812C93.0097 135.017 93.6539 134.373 94.4487 134.373C95.2434 134.373 95.8876 135.017 95.8876 135.812Z" fill="#22B5CB"/>
<path d="M85.9746 136.771C85.9746 137.566 85.3303 138.21 84.5356 138.21C83.7408 138.21 83.0966 137.566 83.0966 136.771C83.0966 135.977 83.7408 135.332 84.5356 135.332C85.3303 135.332 85.9746 135.977 85.9746 136.771Z" fill="#22B5CB"/>
<path d="M81.1779 136.132C81.1779 136.927 80.5337 137.571 79.7389 137.571C78.9442 137.571 78.2999 136.927 78.2999 136.132C78.2999 135.337 78.9442 134.693 79.7389 134.693C80.5337 134.693 81.1779 135.337 81.1779 136.132Z" fill="#22B5CB"/>
<path d="M76.3813 135.172C76.3813 135.967 75.737 136.611 74.9423 136.611C74.1476 136.611 73.5033 135.967 73.5033 135.172C73.5033 134.378 74.1476 133.733 74.9423 133.733C75.737 133.733 76.3813 134.378 76.3813 135.172Z" fill="#22B5CB"/>
<path d="M71.5846 133.254C71.5846 134.049 70.9404 134.693 70.1456 134.693C69.3509 134.693 68.7067 134.049 68.7067 133.254C68.7067 132.459 69.3509 131.815 70.1456 131.815C70.9404 131.815 71.5846 132.459 71.5846 133.254Z" fill="#22B5CB"/>
<path d="M67.1078 131.015C67.1078 131.81 66.4635 132.454 65.6688 132.454C64.874 132.454 64.2298 131.81 64.2298 131.015C64.2298 130.221 64.874 129.576 65.6688 129.576C66.4635 129.576 67.1078 130.221 67.1078 131.015Z" fill="#22B5CB"/>
<path d="M62.6309 128.457C62.6309 129.252 61.9866 129.896 61.1919 129.896C60.3972 129.896 59.7529 129.252 59.7529 128.457C59.7529 127.662 60.3972 127.018 61.1919 127.018C61.9866 127.018 62.6309 127.662 62.6309 128.457Z" fill="#22B5CB"/>
<path d="M58.7936 125.259C58.7936 126.054 58.1493 126.698 57.3546 126.698C56.5599 126.698 55.9156 126.054 55.9156 125.259C55.9156 124.465 56.5599 123.82 57.3546 123.82C58.1493 123.82 58.7936 124.465 58.7936 125.259Z" fill="#22B5CB"/>
<path d="M55.276 121.422C55.276 122.217 54.6318 122.861 53.8371 122.861C53.0423 122.861 52.3981 122.217 52.3981 121.422C52.3981 120.627 53.0423 119.983 53.8371 119.983C54.6318 119.983 55.276 120.627 55.276 121.422Z" fill="#22B5CB"/>
<path d="M52.0783 117.585C52.0783 118.379 51.434 119.024 50.6393 119.024C49.8446 119.024 49.2003 118.379 49.2003 117.585C49.2003 116.79 49.8446 116.146 50.6393 116.146C51.434 116.146 52.0783 116.79 52.0783 117.585Z" fill="#22B5CB"/>
<path d="M49.2003 113.108C49.2003 113.903 48.556 114.547 47.7613 114.547C46.9666 114.547 46.3223 113.903 46.3223 113.108C46.3223 112.313 46.9666 111.669 47.7613 111.669C48.556 111.669 49.2003 112.313 49.2003 113.108Z" fill="#22B5CB"/>
<path d="M46.9619 108.311C46.9619 109.106 46.3176 109.75 45.5229 109.75C44.7281 109.75 44.0839 109.106 44.0839 108.311C44.0839 107.517 44.7281 106.872 45.5229 106.872C46.3176 106.872 46.9619 107.517 46.9619 108.311Z" fill="#22B5CB"/>
<path d="M45.363 103.515C45.363 104.309 44.7187 104.954 43.924 104.954C43.1292 104.954 42.485 104.309 42.485 103.515C42.485 102.72 43.1292 102.076 43.924 102.076C44.7187 102.076 45.363 102.72 45.363 103.515Z" fill="#22B5CB"/>
<path d="M44.0839 98.3982C44.0839 99.1929 43.4396 99.8372 42.6449 99.8372C41.8501 99.8372 41.2059 99.1929 41.2059 98.3982C41.2059 97.6034 41.8501 96.9592 42.6449 96.9592C43.4396 96.9592 44.0839 97.6034 44.0839 98.3982Z" fill="#22B5CB"/>
<path d="M43.4443 93.6015C43.4443 94.3963 42.8001 95.0405 42.0053 95.0405C41.2106 95.0405 40.5663 94.3963 40.5663 93.6015C40.5663 92.8068 41.2106 92.1625 42.0053 92.1625C42.8001 92.1625 43.4443 92.8068 43.4443 93.6015Z" fill="#22B5CB"/>
<path d="M43.4443 88.4851C43.4443 89.2798 42.8001 89.9241 42.0053 89.9241C41.2106 89.9241 40.5663 89.2798 40.5663 88.4851C40.5663 87.6904 41.2106 87.0461 42.0053 87.0461C42.8001 87.0461 43.4443 87.6904 43.4443 88.4851Z" fill="#22B5CB"/>
<path d="M43.7641 83.3687C43.7641 84.1634 43.1198 84.8077 42.3251 84.8077C41.5304 84.8077 40.8861 84.1634 40.8861 83.3687C40.8861 82.574 41.5304 81.9297 42.3251 81.9297C43.1198 81.9297 43.7641 82.574 43.7641 83.3687Z" fill="#22B5CB"/>
<path d="M45.0432 78.2523C45.0432 79.047 44.3989 79.6913 43.6042 79.6913C42.8095 79.6913 42.1652 79.047 42.1652 78.2523C42.1652 77.4575 42.8095 76.8133 43.6042 76.8133C44.3989 76.8133 45.0432 77.4575 45.0432 78.2523Z" fill="#22B5CB"/>
<path d="M91.091 136.452C91.091 137.246 90.4467 137.891 89.652 137.891C88.8573 137.891 88.213 137.246 88.213 136.452C88.213 135.657 88.8573 135.013 89.652 135.013C90.4467 135.013 91.091 135.657 91.091 136.452Z" fill="#22B5CB"/>
</svg>
