<svg width="40" height="50" viewBox="0 0 40 50" fill="none" xmlns="http://www.w3.org/2000/svg">
<path d="M22.7738 18.8591C25.5514 20.2045 27.6671 22.1975 28.8531 24.3082C30.0398 26.4205 30.2758 28.6045 29.4041 30.4042C28.5324 32.2038 26.6724 33.3726 24.2792 33.7509C21.8879 34.1288 19.0124 33.7042 16.2348 32.3588C13.4572 31.0134 11.3414 29.0204 10.1555 26.9098C8.96875 24.7974 8.73281 22.6134 9.6045 20.8137C10.4762 19.0141 12.3362 17.8453 14.7294 17.467C17.1207 17.0891 19.9962 17.5137 22.7738 18.8591Z" fill="#282828" stroke="black"/>
<ellipse cx="16.3544" cy="24.0832" rx="7" ry="6" transform="rotate(25.8444 16.3544 24.0832)" fill="#B7B7B7"/>
<mask id="path-3-inside-1_4_344" fill="white">
<path fill-rule="evenodd" clip-rule="evenodd" d="M28.8135 19.1349L18.9137 14.3397L14.6634 23.1145L14.461 23.5323L14.5111 23.5566C14.1676 25.1403 15.7028 27.2292 18.1965 28.437C20.6902 29.6449 23.2809 29.5545 24.3106 28.3033L24.3608 28.3275L24.5632 27.9097L28.8135 19.1349Z"/>
</mask>
<path fill-rule="evenodd" clip-rule="evenodd" d="M28.8135 19.1349L18.9137 14.3397L14.6634 23.1145L14.461 23.5323L14.5111 23.5566C14.1676 25.1403 15.7028 27.2292 18.1965 28.437C20.6902 29.6449 23.2809 29.5545 24.3106 28.3033L24.3608 28.3275L24.5632 27.9097L28.8135 19.1349Z" fill="#282828"/>
<path d="M18.9137 14.3397L19.3496 13.4397L18.4496 13.0038L18.0137 13.9037L18.9137 14.3397ZM28.8135 19.1349L29.7134 19.5708L30.1494 18.6708L29.2494 18.2349L28.8135 19.1349ZM14.6634 23.1145L15.5633 23.5504L14.6634 23.1145ZM14.461 23.5323L13.561 23.0964L13.1251 23.9964L14.025 24.4323L14.461 23.5323ZM14.5111 23.5566L15.4884 23.7686L15.6551 22.9996L14.947 22.6566L14.5111 23.5566ZM24.3106 28.3033L24.7466 27.4033L24.0384 27.0603L23.5385 27.6678L24.3106 28.3033ZM24.3608 28.3275L23.9248 29.2275L24.8248 29.6634L25.2607 28.7635L24.3608 28.3275ZM24.5632 27.9097L25.4631 28.3456L24.5632 27.9097ZM18.4777 15.2396L28.3775 20.0349L29.2494 18.2349L19.3496 13.4397L18.4777 15.2396ZM15.5633 23.5504L19.8136 14.7756L18.0137 13.9037L13.7634 22.6786L15.5633 23.5504ZM15.3609 23.9683L15.5633 23.5504L13.7634 22.6786L13.561 23.0964L15.3609 23.9683ZM14.947 22.6566L14.8969 22.6323L14.025 24.4323L14.0752 24.4566L14.947 22.6566ZM18.6324 27.537C17.509 26.9929 16.6344 26.2646 16.0902 25.5382C15.5311 24.7919 15.4017 24.1681 15.4884 23.7686L13.5338 23.3447C13.277 24.5288 13.7435 25.7413 14.4895 26.7373C15.2505 27.7532 16.3903 28.6733 17.7606 29.337L18.6324 27.537ZM23.5385 27.6678C23.2787 27.9835 22.709 28.2686 21.7768 28.2926C20.8695 28.316 19.7558 28.0812 18.6324 27.537L17.7606 29.337C19.1308 30.0007 20.5594 30.3247 21.8283 30.292C23.0723 30.26 24.3129 29.8743 25.0828 28.9387L23.5385 27.6678ZM24.7967 27.4276L24.7466 27.4033L23.8747 29.2032L23.9248 29.2275L24.7967 27.4276ZM23.6632 27.4738L23.4608 27.8916L25.2607 28.7635L25.4631 28.3456L23.6632 27.4738ZM27.9135 18.6989L23.6632 27.4738L25.4631 28.3456L29.7134 19.5708L27.9135 18.6989Z" fill="black" mask="url(#path-3-inside-1_4_344)"/>
<rect x="19.3777" y="15.5474" width="2" height="7" transform="rotate(25.8444 19.3777 15.5474)" fill="#B7B7B7"/>
<path d="M29.3127 5.48749C33.891 7.70514 36.0011 12.3247 34.361 15.7107C32.7209 19.0967 27.788 20.3049 23.2097 18.0872C18.6313 15.8696 16.5212 11.25 18.1613 7.864C19.8014 4.47801 24.7343 3.26984 29.3127 5.48749Z" fill="#282828" stroke="black"/>
<ellipse cx="23.5472" cy="9.23349" rx="4" ry="3.5" transform="rotate(25.8444 23.5472 9.23349)" fill="#B7B7B7"/>
<rect x="14.6669" y="32.1549" width="2" height="13" transform="rotate(25.8444 14.6669 32.1549)" fill="#DDDADA"/>
</svg>
