<svg width="40" height="50" viewBox="0 0 40 50" fill="none" xmlns="http://www.w3.org/2000/svg">
<path d="M22.7737 18.9629C25.5513 20.3083 27.6671 22.3013 28.8531 24.4119C30.0398 26.5243 30.2758 28.7083 29.4041 30.5079C28.5324 32.3076 26.6724 33.4764 24.2792 33.8547C21.8879 34.2326 19.0124 33.808 16.2348 32.4626C13.4572 31.1172 11.3414 29.1241 10.1555 27.0135C8.96872 24.9011 8.73278 22.7171 9.60447 20.9175C10.4762 19.1179 12.3361 17.9491 14.7293 17.5707C17.1206 17.1929 19.9961 17.6175 22.7737 18.9629Z" fill="#FF7262" stroke="#F24E1E"/>
<ellipse cx="16.3543" cy="24.187" rx="7" ry="6" transform="rotate(25.8444 16.3543 24.187)" fill="#F3A38C"/>
<mask id="path-3-inside-1_4_324" fill="white">
<path d="M24.3609 28.3028L24.31 28.2781C23.2803 29.5295 20.6903 29.6206 18.1965 28.4127C15.7027 27.2048 14.1685 25.116 14.5121 23.5323L14.4612 23.5076L18.9137 14.3153L28.8135 19.1105L24.3609 28.3028Z"/>
</mask>
<path d="M24.3609 28.3028L24.31 28.2781C23.2803 29.5295 20.6903 29.6206 18.1965 28.4127C15.7027 27.2048 14.1685 25.116 14.5121 23.5323L14.4612 23.5076L18.9137 14.3153L28.8135 19.1105L24.3609 28.3028Z" fill="#FF7262"/>
<path d="M24.3609 28.3028L23.925 29.2028L24.825 29.6387L25.2609 28.7387L24.3609 28.3028ZM24.31 28.2781L24.7459 27.3781L24.0377 27.0351L23.5378 27.6428L24.31 28.2781ZM14.5121 23.5323L15.4894 23.7443L15.6562 22.9753L14.9481 22.6323L14.5121 23.5323ZM14.4612 23.5076L13.5612 23.0717L13.1252 23.9717L14.0252 24.4076L14.4612 23.5076ZM18.9137 14.3153L19.3496 13.4153L18.4496 12.9794L18.0137 13.8794L18.9137 14.3153ZM28.8135 19.1105L29.7134 19.5464L30.1494 18.6465L29.2494 18.2105L28.8135 19.1105ZM24.3609 28.3028L24.7969 27.4028L24.7459 27.3781L24.31 28.2781L23.874 29.1781L23.925 29.2028L24.3609 28.3028ZM24.31 28.2781L23.5378 27.6428C23.2779 27.9586 22.7083 28.2438 21.7764 28.268C20.8693 28.2915 19.7558 28.0568 18.6324 27.5127L18.1965 28.4127L17.7606 29.3127C19.1309 29.9764 20.5594 30.3002 21.8282 30.2673C23.0722 30.2351 24.3124 29.849 25.0822 28.9135L24.31 28.2781ZM18.1965 28.4127L18.6324 27.5127C17.509 26.9685 16.6346 26.2403 16.0907 25.514C15.532 24.7678 15.4027 24.1441 15.4894 23.7443L14.5121 23.5323L13.5349 23.3202C13.278 24.5042 13.744 25.7167 14.4898 26.7128C15.2506 27.7287 16.3902 28.6489 17.7606 29.3127L18.1965 28.4127ZM14.5121 23.5323L14.9481 22.6323L14.8971 22.6076L14.4612 23.5076L14.0252 24.4076L14.0762 24.4323L14.5121 23.5323ZM14.4612 23.5076L15.3611 23.9435L19.8136 14.7512L18.9137 14.3153L18.0137 13.8794L13.5612 23.0717L14.4612 23.5076ZM18.9137 14.3153L18.4777 15.2153L28.3775 20.0105L28.8135 19.1105L29.2494 18.2105L19.3496 13.4153L18.9137 14.3153ZM28.8135 19.1105L27.9135 18.6746L23.461 27.8669L24.3609 28.3028L25.2609 28.7387L29.7134 19.5464L28.8135 19.1105Z" fill="#F24E1E" mask="url(#path-3-inside-1_4_324)"/>
<rect x="19.3777" y="15.6512" width="2" height="7" transform="rotate(25.8444 19.3777 15.6512)" fill="#F3A38C"/>
<path d="M29.3127 5.4632C33.891 7.68084 36.0011 12.3004 34.361 15.6864C32.7209 19.0724 27.788 20.2806 23.2097 18.0629C18.6313 15.8453 16.5212 11.2257 18.1613 7.83971C19.8014 4.45372 24.7343 3.24555 29.3127 5.4632Z" fill="#FF7262" stroke="#F24E1E"/>
<ellipse cx="23.5472" cy="9.33731" rx="4" ry="3.5" transform="rotate(25.8444 23.5472 9.33731)" fill="#F3A38C"/>
<rect x="14.6669" y="32.2587" width="2" height="13" transform="rotate(25.8444 14.6669 32.2587)" fill="#DDDADA"/>
</svg>
