<svg width="18" height="18" viewBox="0 0 18 18" fill="none" xmlns="http://www.w3.org/2000/svg">
<rect width="18" height="18" rx="9" fill="#5C3C6E"/>
<path d="M13.5305 13.0581C13.5131 13.1706 13.419 13.2494 13.3203 13.2341C13.2216 13.2189 13.1557 13.1153 13.1731 13.0028C13.1906 12.8903 13.2847 12.8115 13.3834 12.8267C13.482 12.842 13.5479 12.9456 13.5305 13.0581Z" fill="white"/>
<path d="M13.9042 12.4041C13.8868 12.5166 13.7927 12.5954 13.694 12.5802C13.5953 12.5649 13.5294 12.4613 13.5468 12.3488C13.5643 12.2363 13.6584 12.1575 13.7571 12.1728C13.8558 12.188 13.9216 12.2916 13.9042 12.4041Z" fill="white"/>
<path d="M14.2156 11.7501C14.1982 11.8626 14.1041 11.9415 14.0054 11.9262C13.9067 11.9109 13.8408 11.8073 13.8583 11.6948C13.8757 11.5823 13.9698 11.5035 14.0685 11.5188C14.1672 11.5341 14.2331 11.6376 14.2156 11.7501Z" fill="white"/>
<path d="M14.4336 11.0339C14.4162 11.1464 14.3221 11.2252 14.2234 11.2099C14.1247 11.1947 14.0588 11.0911 14.0763 10.9786C14.0937 10.8661 14.1878 10.7872 14.2865 10.8025C14.3852 10.8178 14.4511 10.9214 14.4336 11.0339Z" fill="white"/>
<path d="M14.5893 10.3176C14.5719 10.4301 14.4778 10.5089 14.3791 10.4937C14.2804 10.4784 14.2145 10.3748 14.232 10.2623C14.2494 10.1498 14.3435 10.071 14.4422 10.0863C14.5409 10.1015 14.6068 10.2051 14.5893 10.3176Z" fill="white"/>
<path d="M14.6516 9.60135C14.6342 9.71386 14.5401 9.79268 14.4414 9.7774C14.3427 9.76213 14.2768 9.65854 14.2942 9.54604C14.3117 9.43353 14.4058 9.35471 14.5045 9.36999C14.6032 9.38526 14.669 9.48885 14.6516 9.60135Z" fill="white"/>
<path d="M14.6828 8.85395C14.6654 8.96645 14.5712 9.04527 14.4725 9.03C14.3739 9.01472 14.308 8.91113 14.3254 8.79863C14.3428 8.68613 14.4369 8.60731 14.5356 8.62258C14.6343 8.63786 14.7002 8.74145 14.6828 8.85395Z" fill="white"/>
<path d="M14.6205 8.13769C14.6031 8.25019 14.509 8.32901 14.4103 8.31373C14.3116 8.29846 14.2457 8.19487 14.2631 8.08237C14.2805 7.96986 14.3746 7.89105 14.4733 7.90632C14.572 7.9216 14.6379 8.02518 14.6205 8.13769Z" fill="white"/>
<path d="M14.4648 7.45257C14.4474 7.56507 14.3532 7.64389 14.2546 7.62861C14.1559 7.61334 14.09 7.50975 14.1074 7.39725C14.1248 7.28474 14.2189 7.20592 14.3176 7.2212C14.4163 7.23648 14.4822 7.34006 14.4648 7.45257Z" fill="white"/>
<path d="M14.2468 6.76744C14.2294 6.87995 14.1353 6.95877 14.0366 6.94349C13.9379 6.92821 13.872 6.82463 13.8894 6.71213C13.9068 6.59962 14.0009 6.5208 14.0996 6.53608C14.1983 6.55135 14.2642 6.65494 14.2468 6.76744Z" fill="white"/>
<path d="M13.9665 6.14461C13.9491 6.25711 13.855 6.33593 13.7563 6.32065C13.6576 6.30538 13.5917 6.20179 13.6091 6.08929C13.6265 5.97679 13.7207 5.89797 13.8193 5.91324C13.918 5.92852 13.9839 6.0321 13.9665 6.14461Z" fill="white"/>
<path d="M13.6239 5.55291C13.6065 5.66541 13.5124 5.74423 13.4137 5.72896C13.315 5.71368 13.2492 5.6101 13.2666 5.49759C13.284 5.38509 13.3781 5.30627 13.4768 5.32155C13.5755 5.33682 13.6414 5.44041 13.6239 5.55291Z" fill="white"/>
<path d="M13.2191 5.0235C13.2017 5.136 13.1076 5.21482 13.0089 5.19955C12.9102 5.18427 12.8443 5.08068 12.8617 4.96818C12.8791 4.85568 12.9733 4.77686 13.0719 4.79213C13.1706 4.80741 13.2365 4.911 13.2191 5.0235Z" fill="white"/>
<path d="M12.752 4.55637C12.7346 4.66887 12.6404 4.74769 12.5418 4.73242C12.4431 4.71714 12.3772 4.61356 12.3946 4.50105C12.412 4.38855 12.5061 4.30973 12.6048 4.32501C12.7035 4.34028 12.7694 4.44387 12.752 4.55637Z" fill="white"/>
<path d="M12.2226 4.15153C12.2051 4.26403 12.111 4.34285 12.0123 4.32757C11.9137 4.3123 11.8478 4.20871 11.8652 4.09621C11.8826 3.98371 11.9767 3.90489 12.0754 3.92016C12.1741 3.93544 12.24 4.03902 12.2226 4.15153Z" fill="white"/>
<path d="M11.662 3.80897C11.6446 3.92147 11.5505 4.00029 11.4518 3.98501C11.3531 3.96974 11.2872 3.86615 11.3046 3.75365C11.322 3.64114 11.4162 3.56233 11.5148 3.5776C11.6135 3.59288 11.6794 3.69646 11.662 3.80897Z" fill="white"/>
<path d="M11.0703 3.55983C11.0529 3.67233 10.9588 3.75115 10.8601 3.73588C10.7614 3.7206 10.6955 3.61702 10.7129 3.50451C10.7303 3.39201 10.8245 3.31319 10.9232 3.32847C11.0218 3.34374 11.0877 3.44733 11.0703 3.55983Z" fill="white"/>
<path d="M10.4475 3.40412C10.4301 3.51663 10.3359 3.59544 10.2373 3.58017C10.1386 3.56489 10.0727 3.46131 10.0901 3.3488C10.1075 3.2363 10.2016 3.15748 10.3003 3.17276C10.399 3.18803 10.4649 3.29162 10.4475 3.40412Z" fill="white"/>
<path d="M9.7935 3.3107C9.77608 3.4232 9.68196 3.50202 9.58328 3.48674C9.48459 3.47147 9.4187 3.36788 9.43611 3.25538C9.45353 3.14287 9.54765 3.06406 9.64634 3.07933C9.74503 3.09461 9.81091 3.19819 9.7935 3.3107Z" fill="white"/>
<path d="M9.13952 3.3107C9.1221 3.4232 9.02798 3.50202 8.9293 3.48674C8.83061 3.47147 8.76472 3.36788 8.78213 3.25538C8.79955 3.14287 8.89367 3.06406 8.99236 3.07933C9.09105 3.09461 9.15693 3.19819 9.13952 3.3107Z" fill="white"/>
<path d="M8.51668 3.37298C8.49927 3.48548 8.40515 3.5643 8.30646 3.54903C8.20777 3.53375 8.14188 3.43017 8.1593 3.31766C8.17671 3.20516 8.27083 3.12634 8.36952 3.14162C8.46821 3.15689 8.53409 3.26048 8.51668 3.37298Z" fill="white"/>
<path d="M7.8627 3.52869C7.84529 3.64119 7.75117 3.72001 7.65248 3.70474C7.55379 3.68946 7.4879 3.58588 7.50532 3.47337C7.52273 3.36087 7.61685 3.28205 7.71554 3.29732C7.81423 3.3126 7.88012 3.41619 7.8627 3.52869Z" fill="white"/>
<path d="M7.23986 3.77782C7.22245 3.89033 7.12833 3.96915 7.02964 3.95387C6.93095 3.9386 6.86507 3.83501 6.88248 3.72251C6.8999 3.61 6.99402 3.53118 7.0927 3.54646C7.19139 3.56174 7.25728 3.66532 7.23986 3.77782Z" fill="white"/>
<path d="M6.64817 4.08924C6.63076 4.20175 6.53664 4.28057 6.43795 4.26529C6.33926 4.25001 6.27337 4.14643 6.29079 4.03393C6.3082 3.92142 6.40232 3.8426 6.50101 3.85788C6.5997 3.87315 6.66558 3.97674 6.64817 4.08924Z" fill="white"/>
<path d="M6.05647 4.49409C6.03906 4.60659 5.94494 4.68541 5.84625 4.67013C5.74756 4.65486 5.68168 4.55127 5.69909 4.43877C5.7165 4.32627 5.81062 4.24745 5.90931 4.26272C6.008 4.278 6.07389 4.38158 6.05647 4.49409Z" fill="white"/>
<path d="M5.5582 4.96122C5.54079 5.07372 5.44667 5.15254 5.34798 5.13726C5.24929 5.12199 5.18341 5.0184 5.20082 4.9059C5.21823 4.79339 5.31235 4.71458 5.41104 4.72985C5.50973 4.74513 5.57562 4.84871 5.5582 4.96122Z" fill="white"/>
<path d="M5.05993 5.49063C5.04252 5.60313 4.9484 5.68195 4.84971 5.66667C4.75102 5.6514 4.68514 5.54781 4.70255 5.43531C4.71996 5.32281 4.81408 5.24399 4.91277 5.25926C5.01146 5.27454 5.07735 5.37812 5.05993 5.49063Z" fill="white"/>
<path d="M4.62395 6.08232C4.60653 6.19483 4.51241 6.27365 4.41372 6.25837C4.31504 6.24309 4.24915 6.13951 4.26656 6.02701C4.28398 5.9145 4.3781 5.83568 4.47679 5.85096C4.57548 5.86623 4.64136 5.96982 4.62395 6.08232Z" fill="white"/>
<path d="M4.28139 6.7363C4.26397 6.84881 4.16985 6.92762 4.07116 6.91235C3.97248 6.89707 3.90659 6.79349 3.924 6.68098C3.94142 6.56848 4.03554 6.48966 4.13423 6.50494C4.23291 6.52021 4.2988 6.6238 4.28139 6.7363Z" fill="white"/>
<path d="M4.00111 7.39028C3.9837 7.50279 3.88958 7.5816 3.79089 7.56633C3.6922 7.55105 3.62631 7.44747 3.64373 7.33496C3.66114 7.22246 3.75526 7.14364 3.85395 7.15892C3.95264 7.17419 4.01852 7.27778 4.00111 7.39028Z" fill="white"/>
<path d="M3.75197 8.0754C3.73456 8.18791 3.64044 8.26672 3.54175 8.25145C3.44306 8.23617 3.37718 8.13259 3.39459 8.02008C3.41201 7.90758 3.50613 7.82876 3.60481 7.84404C3.7035 7.85931 3.76939 7.9629 3.75197 8.0754Z" fill="white"/>
<path d="M3.59627 8.79167C3.57885 8.90417 3.48473 8.98299 3.38604 8.96771C3.28735 8.95244 3.22147 8.84885 3.23888 8.73635C3.2563 8.62384 3.35042 8.54503 3.44911 8.5603C3.54779 8.57558 3.61368 8.67916 3.59627 8.79167Z" fill="white"/>
<path d="M3.50284 9.53907C3.48543 9.65157 3.39131 9.73039 3.29262 9.71512C3.19393 9.69984 3.12804 9.59626 3.14546 9.48375C3.16287 9.37125 3.25699 9.29243 3.35568 9.30771C3.45437 9.32298 3.52025 9.42657 3.50284 9.53907Z" fill="white"/>
<path d="M3.50284 10.2865C3.48543 10.399 3.39131 10.4778 3.29262 10.4625C3.19393 10.4472 3.12804 10.3437 3.14546 10.2312C3.16287 10.1187 3.25699 10.0398 3.35568 10.0551C3.45437 10.0704 3.52025 10.174 3.50284 10.2865Z" fill="white"/>
<path d="M3.56512 11.0027C3.54771 11.1152 3.45359 11.1941 3.3549 11.1788C3.25621 11.1635 3.19033 11.0599 3.20774 10.9474C3.22515 10.8349 3.31927 10.7561 3.41796 10.7714C3.51665 10.7866 3.58254 10.8902 3.56512 11.0027Z" fill="white"/>
<path d="M3.72083 11.719C3.70342 11.8315 3.6093 11.9103 3.51061 11.895C3.41192 11.8798 3.34604 11.7762 3.36345 11.6637C3.38086 11.5512 3.47498 11.4724 3.57367 11.4876C3.67236 11.5029 3.73825 11.6065 3.72083 11.719Z" fill="white"/>
<path d="M3.93883 12.3418C3.92141 12.4543 3.82729 12.5332 3.7286 12.5179C3.62992 12.5026 3.56403 12.399 3.58144 12.2865C3.59886 12.174 3.69298 12.0952 3.79167 12.1105C3.89035 12.1257 3.95624 12.2293 3.93883 12.3418Z" fill="white"/>
<path d="M4.2191 12.9958C4.20169 13.1083 4.10757 13.1871 4.00888 13.1719C3.91019 13.1566 3.84431 13.053 3.86172 12.9405C3.87913 12.828 3.97325 12.7492 4.07194 12.7645C4.17063 12.7797 4.23652 12.8833 4.2191 12.9958Z" fill="white"/>
<path d="M4.56166 13.5875C4.54425 13.7 4.45013 13.7788 4.35144 13.7636C4.25275 13.7483 4.18687 13.6447 4.20428 13.5322C4.22169 13.4197 4.31581 13.3409 4.4145 13.3561C4.51319 13.3714 4.57908 13.475 4.56166 13.5875Z" fill="white"/>
<path d="M4.96651 14.1169C4.94909 14.2294 4.85497 14.3082 4.75629 14.293C4.6576 14.2777 4.59171 14.1741 4.60912 14.0616C4.62654 13.9491 4.72066 13.8703 4.81935 13.8856C4.91804 13.9008 4.98392 14.0044 4.96651 14.1169Z" fill="white"/>
<path d="M5.46478 14.5841C5.44736 14.6966 5.35324 14.7754 5.25456 14.7601C5.15587 14.7448 5.08998 14.6412 5.10739 14.5287C5.12481 14.4162 5.21893 14.3374 5.31762 14.3527C5.41631 14.368 5.48219 14.4715 5.46478 14.5841Z" fill="white"/>
<path d="M5.96305 14.9889C5.94563 15.1014 5.85151 15.1802 5.75283 15.1649C5.65414 15.1497 5.58825 15.0461 5.60566 14.9336C5.62308 14.8211 5.7172 14.7423 5.81589 14.7575C5.91458 14.7728 5.98046 14.8764 5.96305 14.9889Z" fill="white"/>
<path d="M6.5236 15.3315C6.50619 15.444 6.41207 15.5228 6.31338 15.5075C6.21469 15.4922 6.1488 15.3886 6.16622 15.2761C6.18363 15.1636 6.27775 15.0848 6.37644 15.1001C6.47513 15.1154 6.54102 15.219 6.5236 15.3315Z" fill="white"/>
<path d="M7.1153 15.5806C7.09788 15.6931 7.00376 15.7719 6.90507 15.7566C6.80639 15.7414 6.7405 15.6378 6.75791 15.5253C6.77533 15.4128 6.86945 15.334 6.96814 15.3492C7.06682 15.3645 7.13271 15.4681 7.1153 15.5806Z" fill="white"/>
<path d="M7.73813 15.7363C7.72072 15.8488 7.6266 15.9276 7.52791 15.9123C7.42922 15.8971 7.36334 15.7935 7.38075 15.681C7.39817 15.5685 7.49229 15.4897 7.59097 15.5049C7.68966 15.5202 7.75555 15.6238 7.73813 15.7363Z" fill="white"/>
<path d="M8.39211 15.8297C8.3747 15.9422 8.28058 16.0211 8.18189 16.0058C8.0832 15.9905 8.01732 15.8869 8.03473 15.7744C8.05214 15.6619 8.14626 15.5831 8.24495 15.5984C8.34364 15.6136 8.40953 15.7172 8.39211 15.8297Z" fill="white"/>
<path d="M9.01495 15.8297C8.99754 15.9422 8.90342 16.0211 8.80473 16.0058C8.70604 15.9905 8.64015 15.8869 8.65757 15.7744C8.67498 15.6619 8.7691 15.5831 8.86779 15.5984C8.96648 15.6136 9.03236 15.7172 9.01495 15.8297Z" fill="white"/>
<path d="M9.66893 15.7674C9.65152 15.8799 9.5574 15.9588 9.45871 15.9435C9.36002 15.9282 9.29413 15.8246 9.31155 15.7121C9.32896 15.5996 9.42308 15.5208 9.52177 15.5361C9.62046 15.5514 9.68634 15.6549 9.66893 15.7674Z" fill="white"/>
<path d="M10.3229 15.6117C10.3055 15.7242 10.2114 15.8031 10.1127 15.7878C10.014 15.7725 9.94811 15.6689 9.96553 15.5564C9.98294 15.4439 10.0771 15.3651 10.1757 15.3804C10.2744 15.3956 10.3403 15.4992 10.3229 15.6117Z" fill="white"/>
<path d="M10.9457 15.3626C10.9283 15.4751 10.8342 15.5539 10.7355 15.5386C10.6368 15.5234 10.5709 15.4198 10.5884 15.3073C10.6058 15.1948 10.6999 15.116 10.7986 15.1312C10.8973 15.1465 10.9632 15.2501 10.9457 15.3626Z" fill="white"/>
<path d="M11.5374 15.02C11.52 15.1325 11.4259 15.2114 11.3272 15.1961C11.2285 15.1808 11.1626 15.0772 11.1801 14.9647C11.1975 14.8522 11.2916 14.7734 11.3903 14.7887C11.489 14.8039 11.5549 14.9075 11.5374 15.02Z" fill="white"/>
<path d="M12.098 14.6152C12.0806 14.7277 11.9865 14.8065 11.8878 14.7912C11.7891 14.776 11.7232 14.6724 11.7406 14.5599C11.758 14.4474 11.8521 14.3686 11.9508 14.3838C12.0495 14.3991 12.1154 14.5027 12.098 14.6152Z" fill="white"/>
<path d="M12.6274 14.1481C12.61 14.2606 12.5159 14.3394 12.4172 14.3241C12.3185 14.3088 12.2526 14.2053 12.27 14.0927C12.2874 13.9802 12.3816 13.9014 12.4802 13.9167C12.5789 13.932 12.6448 14.0356 12.6274 14.1481Z" fill="white"/>
<path d="M13.1257 13.6498C13.1083 13.7623 13.0141 13.8411 12.9155 13.8258C12.8168 13.8106 12.7509 13.707 12.7683 13.5945C12.7857 13.482 12.8798 13.4032 12.9785 13.4184C13.0772 13.4337 13.1431 13.5373 13.1257 13.6498Z" fill="white"/>
<path d="M7.06897 16.396C7.06897 16.5422 6.95046 16.6607 6.80427 16.6607C6.65808 16.6607 6.53956 16.5422 6.53956 16.396C6.53956 16.2498 6.65808 16.1313 6.80427 16.1313C6.95046 16.1313 7.06897 16.2498 7.06897 16.396Z" fill="white"/>
<path d="M7.94095 16.5828C7.94095 16.729 7.82243 16.8475 7.67624 16.8475C7.53005 16.8475 7.41154 16.729 7.41154 16.5828C7.41154 16.4366 7.53005 16.3181 7.67624 16.3181C7.82243 16.3181 7.94095 16.4366 7.94095 16.5828Z" fill="white"/>
<path d="M8.81292 16.6762C8.81292 16.8224 8.69441 16.9409 8.54821 16.9409C8.40202 16.9409 8.28351 16.8224 8.28351 16.6762C8.28351 16.53 8.40202 16.4115 8.54821 16.4115C8.69441 16.4115 8.81292 16.53 8.81292 16.6762Z" fill="white"/>
<path d="M9.74718 16.6762C9.74718 16.8224 9.62866 16.9409 9.48247 16.9409C9.33628 16.9409 9.21776 16.8224 9.21776 16.6762C9.21776 16.53 9.33628 16.4115 9.48247 16.4115C9.62866 16.4115 9.74718 16.53 9.74718 16.6762Z" fill="white"/>
<path d="M10.6191 16.5828C10.6191 16.729 10.5006 16.8475 10.3544 16.8475C10.2082 16.8475 10.0897 16.729 10.0897 16.5828C10.0897 16.4366 10.2082 16.3181 10.3544 16.3181C10.5006 16.3181 10.6191 16.4366 10.6191 16.5828Z" fill="white"/>
<path d="M11.4911 16.396C11.4911 16.5422 11.3726 16.6607 11.2264 16.6607C11.0802 16.6607 10.9617 16.5422 10.9617 16.396C10.9617 16.2498 11.0802 16.1313 11.2264 16.1313C11.3726 16.1313 11.4911 16.2498 11.4911 16.396Z" fill="white"/>
<path d="M12.332 16.0534C12.332 16.1996 12.2134 16.3181 12.0672 16.3181C11.9211 16.3181 11.8025 16.1996 11.8025 16.0534C11.8025 15.9072 11.9211 15.7887 12.0672 15.7887C12.2134 15.7887 12.332 15.9072 12.332 16.0534Z" fill="white"/>
<path d="M13.1416 15.6797C13.1416 15.8259 13.0231 15.9444 12.8769 15.9444C12.7307 15.9444 12.6122 15.8259 12.6122 15.6797C12.6122 15.5335 12.7307 15.415 12.8769 15.415C13.0231 15.415 13.1416 15.5335 13.1416 15.6797Z" fill="white"/>
<path d="M13.889 15.1503C13.889 15.2965 13.7705 15.415 13.6243 15.415C13.4781 15.415 13.3596 15.2965 13.3596 15.1503C13.3596 15.0041 13.4781 14.8856 13.6243 14.8856C13.7705 14.8856 13.889 15.0041 13.889 15.1503Z" fill="white"/>
<path d="M14.5742 14.6209C14.5742 14.7671 14.4557 14.8856 14.3095 14.8856C14.1633 14.8856 14.0448 14.7671 14.0448 14.6209C14.0448 14.4747 14.1633 14.3562 14.3095 14.3562C14.4557 14.3562 14.5742 14.4747 14.5742 14.6209Z" fill="white"/>
<path d="M15.197 13.9358C15.197 14.082 15.0785 14.2005 14.9323 14.2005C14.7861 14.2005 14.6676 14.082 14.6676 13.9358C14.6676 13.7896 14.7861 13.6711 14.9323 13.6711C15.0785 13.6711 15.197 13.7896 15.197 13.9358Z" fill="white"/>
<path d="M15.7264 13.2195C15.7264 13.3657 15.6079 13.4842 15.4617 13.4842C15.3155 13.4842 15.197 13.3657 15.197 13.2195C15.197 13.0733 15.3155 12.9548 15.4617 12.9548C15.6079 12.9548 15.7264 13.0733 15.7264 13.2195Z" fill="white"/>
<path d="M16.1624 12.4409C16.1624 12.5871 16.0439 12.7057 15.8977 12.7057C15.7515 12.7057 15.633 12.5871 15.633 12.4409C15.633 12.2948 15.7515 12.1762 15.8977 12.1762C16.0439 12.1762 16.1624 12.2948 16.1624 12.4409Z" fill="white"/>
<path d="M16.5361 11.6313C16.5361 11.7775 16.4176 11.896 16.2714 11.896C16.1252 11.896 16.0067 11.7775 16.0067 11.6313C16.0067 11.4851 16.1252 11.3666 16.2714 11.3666C16.4176 11.3666 16.5361 11.4851 16.5361 11.6313Z" fill="white"/>
<path d="M16.7852 10.7904C16.7852 10.9366 16.6667 11.0551 16.5205 11.0551C16.3743 11.0551 16.2558 10.9366 16.2558 10.7904C16.2558 10.6442 16.3743 10.5257 16.5205 10.5257C16.6667 10.5257 16.7852 10.6442 16.7852 10.7904Z" fill="white"/>
<path d="M16.9409 9.88731C16.9409 10.0335 16.8224 10.152 16.6762 10.152C16.53 10.152 16.4115 10.0335 16.4115 9.88731C16.4115 9.74112 16.53 9.62261 16.6762 9.62261C16.8224 9.62261 16.9409 9.74112 16.9409 9.88731Z" fill="white"/>
<path d="M16.9409 8.9842C16.9409 9.13039 16.8224 9.24891 16.6762 9.24891C16.53 9.24891 16.4115 9.13039 16.4115 8.9842C16.4115 8.83801 16.53 8.71949 16.6762 8.71949C16.8224 8.71949 16.9409 8.83801 16.9409 8.9842Z" fill="white"/>
<path d="M16.9409 8.08109C16.9409 8.22728 16.8224 8.34579 16.6762 8.34579C16.53 8.34579 16.4115 8.22728 16.4115 8.08109C16.4115 7.93489 16.53 7.81638 16.6762 7.81638C16.8224 7.81638 16.9409 7.93489 16.9409 8.08109Z" fill="white"/>
<path d="M16.7852 7.24025C16.7852 7.38645 16.6667 7.50496 16.5205 7.50496C16.3743 7.50496 16.2558 7.38645 16.2558 7.24025C16.2558 7.09406 16.3743 6.97555 16.5205 6.97555C16.6667 6.97555 16.7852 7.09406 16.7852 7.24025Z" fill="white"/>
<path d="M16.5361 6.33714C16.5361 6.48333 16.4176 6.60185 16.2714 6.60185C16.1252 6.60185 16.0067 6.48333 16.0067 6.33714C16.0067 6.19095 16.1252 6.07243 16.2714 6.07243C16.4176 6.07243 16.5361 6.19095 16.5361 6.33714Z" fill="white"/>
<path d="M16.1624 5.55859C16.1624 5.70479 16.0439 5.8233 15.8977 5.8233C15.7515 5.8233 15.633 5.70479 15.633 5.55859C15.633 5.4124 15.7515 5.29389 15.8977 5.29389C16.0439 5.29389 16.1624 5.4124 16.1624 5.55859Z" fill="white"/>
<path d="M15.7264 4.78005C15.7264 4.92624 15.6079 5.04475 15.4617 5.04475C15.3155 5.04475 15.197 4.92624 15.197 4.78005C15.197 4.63385 15.3155 4.51534 15.4617 4.51534C15.6079 4.51534 15.7264 4.63385 15.7264 4.78005Z" fill="white"/>
<path d="M15.197 4.09493C15.197 4.24112 15.0785 4.35963 14.9323 4.35963C14.7861 4.35963 14.6676 4.24112 14.6676 4.09493C14.6676 3.94873 14.7861 3.83022 14.9323 3.83022C15.0785 3.83022 15.197 3.94873 15.197 4.09493Z" fill="white"/>
<path d="M14.543 3.37866C14.543 3.52486 14.4245 3.64337 14.2783 3.64337C14.1321 3.64337 14.0136 3.52486 14.0136 3.37866C14.0136 3.23247 14.1321 3.11396 14.2783 3.11396C14.4245 3.11396 14.543 3.23247 14.543 3.37866Z" fill="white"/>
<path d="M13.889 2.84925C13.889 2.99544 13.7705 3.11396 13.6243 3.11396C13.4781 3.11396 13.3596 2.99544 13.3596 2.84925C13.3596 2.70306 13.4781 2.58455 13.6243 2.58455C13.7705 2.58455 13.889 2.70306 13.889 2.84925Z" fill="white"/>
<path d="M13.1416 2.31984C13.1416 2.46603 13.0231 2.58455 12.8769 2.58455C12.7307 2.58455 12.6122 2.46603 12.6122 2.31984C12.6122 2.17365 12.7307 2.05513 12.8769 2.05513C13.0231 2.05513 13.1416 2.17365 13.1416 2.31984Z" fill="white"/>
<path d="M12.3631 1.94614C12.3631 2.09233 12.2446 2.21084 12.0984 2.21084C11.9522 2.21084 11.8337 2.09233 11.8337 1.94614C11.8337 1.79994 11.9522 1.68143 12.0984 1.68143C12.2446 1.68143 12.3631 1.79994 12.3631 1.94614Z" fill="white"/>
<path d="M11.4911 1.60358C11.4911 1.74977 11.3726 1.86828 11.2264 1.86828C11.0802 1.86828 10.9617 1.74977 10.9617 1.60358C10.9617 1.45738 11.0802 1.33887 11.2264 1.33887C11.3726 1.33887 11.4911 1.45738 11.4911 1.60358Z" fill="white"/>
<path d="M10.6503 1.41673C10.6503 1.56292 10.5318 1.68143 10.3856 1.68143C10.2394 1.68143 10.1209 1.56292 10.1209 1.41673C10.1209 1.27053 10.2394 1.15202 10.3856 1.15202C10.5318 1.15202 10.6503 1.27053 10.6503 1.41673Z" fill="white"/>
<path d="M9.71603 1.3233C9.71603 1.46949 9.59752 1.58801 9.45133 1.58801C9.30513 1.58801 9.18662 1.46949 9.18662 1.3233C9.18662 1.17711 9.30513 1.05859 9.45133 1.05859C9.59752 1.05859 9.71603 1.17711 9.71603 1.3233Z" fill="white"/>
<path d="M8.8752 1.3233C8.8752 1.46949 8.75669 1.58801 8.6105 1.58801C8.4643 1.58801 8.34579 1.46949 8.34579 1.3233C8.34579 1.17711 8.4643 1.05859 8.6105 1.05859C8.75669 1.05859 8.8752 1.17711 8.8752 1.3233Z" fill="white"/>
<path d="M7.94095 1.41673C7.94095 1.56292 7.82243 1.68143 7.67624 1.68143C7.53005 1.68143 7.41154 1.56292 7.41154 1.41673C7.41154 1.27053 7.53005 1.15202 7.67624 1.15202C7.82243 1.15202 7.94095 1.27053 7.94095 1.41673Z" fill="white"/>
<path d="M7.06897 1.60358C7.06897 1.74977 6.95046 1.86828 6.80427 1.86828C6.65808 1.86828 6.53956 1.74977 6.53956 1.60358C6.53956 1.45738 6.65808 1.33887 6.80427 1.33887C6.95046 1.33887 7.06897 1.45738 7.06897 1.60358Z" fill="white"/>
<path d="M6.25929 1.94614C6.25929 2.09233 6.14077 2.21084 5.99458 2.21084C5.84839 2.21084 5.72987 2.09233 5.72987 1.94614C5.72987 1.79994 5.84839 1.68143 5.99458 1.68143C6.14077 1.68143 6.25929 1.79994 6.25929 1.94614Z" fill="white"/>
<path d="M5.41846 2.35098C5.41846 2.49717 5.29994 2.61569 5.15375 2.61569C5.00756 2.61569 4.88904 2.49717 4.88904 2.35098C4.88904 2.20479 5.00756 2.08628 5.15375 2.08628C5.29994 2.08628 5.41846 2.20479 5.41846 2.35098Z" fill="white"/>
<path d="M4.67105 2.81811C4.67105 2.9643 4.55254 3.08282 4.40634 3.08282C4.26015 3.08282 4.14164 2.9643 4.14164 2.81811C4.14164 2.67192 4.26015 2.5534 4.40634 2.5534C4.55254 2.5534 4.67105 2.67192 4.67105 2.81811Z" fill="white"/>
<path d="M3.98593 3.4098C3.98593 3.556 3.86742 3.67451 3.72122 3.67451C3.57503 3.67451 3.45652 3.556 3.45652 3.4098C3.45652 3.26361 3.57503 3.1451 3.72122 3.1451C3.86742 3.1451 3.98593 3.26361 3.98593 3.4098Z" fill="white"/>
<path d="M3.39423 4.06378C3.39423 4.20998 3.27572 4.32849 3.12953 4.32849C2.98334 4.32849 2.86482 4.20998 2.86482 4.06378C2.86482 3.91759 2.98334 3.79908 3.12953 3.79908C3.27572 3.79908 3.39423 3.91759 3.39423 4.06378Z" fill="white"/>
<path d="M2.86482 4.78005C2.86482 4.92624 2.74631 5.04475 2.60012 5.04475C2.45392 5.04475 2.33541 4.92624 2.33541 4.78005C2.33541 4.63385 2.45392 4.51534 2.60012 4.51534C2.74631 4.51534 2.86482 4.63385 2.86482 4.78005Z" fill="white"/>
<path d="M2.39769 5.55859C2.39769 5.70479 2.27918 5.8233 2.13299 5.8233C1.9868 5.8233 1.86828 5.70479 1.86828 5.55859C1.86828 5.4124 1.9868 5.29389 2.13299 5.29389C2.27918 5.29389 2.39769 5.4124 2.39769 5.55859Z" fill="white"/>
<path d="M2.02399 6.36828C2.02399 6.51448 1.90548 6.63299 1.75929 6.63299C1.61309 6.63299 1.49458 6.51448 1.49458 6.36828C1.49458 6.22209 1.61309 6.10358 1.75929 6.10358C1.90548 6.10358 2.02399 6.22209 2.02399 6.36828Z" fill="white"/>
<path d="M1.77486 7.20911C1.77486 7.35531 1.65634 7.47382 1.51015 7.47382C1.36396 7.47382 1.24544 7.35531 1.24544 7.20911C1.24544 7.06292 1.36396 6.94441 1.51015 6.94441C1.65634 6.94441 1.77486 7.06292 1.77486 7.20911Z" fill="white"/>
<path d="M1.65029 8.14337C1.65029 8.28956 1.53178 8.40807 1.38558 8.40807C1.23939 8.40807 1.12088 8.28956 1.12088 8.14337C1.12088 7.99718 1.23939 7.87866 1.38558 7.87866C1.53178 7.87866 1.65029 7.99718 1.65029 8.14337Z" fill="white"/>
<path d="M1.58801 9.04648C1.58801 9.19268 1.46949 9.31119 1.3233 9.31119C1.17711 9.31119 1.05859 9.19268 1.05859 9.04648C1.05859 8.90029 1.17711 8.78178 1.3233 8.78178C1.46949 8.78178 1.58801 8.90029 1.58801 9.04648Z" fill="white"/>
<path d="M1.65029 9.88731C1.65029 10.0335 1.53178 10.152 1.38558 10.152C1.23939 10.152 1.12088 10.0335 1.12088 9.88731C1.12088 9.74112 1.23939 9.62261 1.38558 9.62261C1.53178 9.62261 1.65029 9.74112 1.65029 9.88731Z" fill="white"/>
<path d="M1.77486 10.7904C1.77486 10.9366 1.65634 11.0551 1.51015 11.0551C1.36396 11.0551 1.24544 10.9366 1.24544 10.7904C1.24544 10.6442 1.36396 10.5257 1.51015 10.5257C1.65634 10.5257 1.77486 10.6442 1.77486 10.7904Z" fill="white"/>
<path d="M2.05513 11.6313C2.05513 11.7775 1.93662 11.896 1.79043 11.896C1.64423 11.896 1.52572 11.7775 1.52572 11.6313C1.52572 11.4851 1.64423 11.3666 1.79043 11.3666C1.93662 11.3666 2.05513 11.4851 2.05513 11.6313Z" fill="white"/>
<path d="M2.39769 12.4409C2.39769 12.5871 2.27918 12.7057 2.13299 12.7057C1.9868 12.7057 1.86828 12.5871 1.86828 12.4409C1.86828 12.2948 1.9868 12.1762 2.13299 12.1762C2.27918 12.1762 2.39769 12.2948 2.39769 12.4409Z" fill="white"/>
<path d="M2.86482 13.2195C2.86482 13.3657 2.74631 13.4842 2.60012 13.4842C2.45392 13.4842 2.33541 13.3657 2.33541 13.2195C2.33541 13.0733 2.45392 12.9548 2.60012 12.9548C2.74631 12.9548 2.86482 13.0733 2.86482 13.2195Z" fill="white"/>
<path d="M3.39423 13.9358C3.39423 14.082 3.27572 14.2005 3.12953 14.2005C2.98334 14.2005 2.86482 14.082 2.86482 13.9358C2.86482 13.7896 2.98334 13.6711 3.12953 13.6711C3.27572 13.6711 3.39423 13.7896 3.39423 13.9358Z" fill="white"/>
<path d="M4.01707 14.6209C4.01707 14.7671 3.89856 14.8856 3.75237 14.8856C3.60617 14.8856 3.48766 14.7671 3.48766 14.6209C3.48766 14.4747 3.60617 14.3562 3.75237 14.3562C3.89856 14.3562 4.01707 14.4747 4.01707 14.6209Z" fill="white"/>
<path d="M4.67105 15.1503C4.67105 15.2965 4.55254 15.415 4.40634 15.415C4.26015 15.415 4.14164 15.2965 4.14164 15.1503C4.14164 15.0041 4.26015 14.8856 4.40634 14.8856C4.55254 14.8856 4.67105 15.0041 4.67105 15.1503Z" fill="white"/>
<path d="M5.41846 15.6797C5.41846 15.8259 5.29994 15.9444 5.15375 15.9444C5.00756 15.9444 4.88904 15.8259 4.88904 15.6797C4.88904 15.5335 5.00756 15.415 5.15375 15.415C5.29994 15.415 5.41846 15.5335 5.41846 15.6797Z" fill="white"/>
<path d="M6.25929 16.0534C6.25929 16.1996 6.14077 16.3181 5.99458 16.3181C5.84839 16.3181 5.72987 16.1996 5.72987 16.0534C5.72987 15.9072 5.84839 15.7887 5.99458 15.7887C6.14077 15.7887 6.25929 15.9072 6.25929 16.0534Z" fill="white"/>
<path d="M5.51188 8.20565C5.51188 8.28305 5.44914 8.34579 5.37174 8.34579C5.29435 8.34579 5.2316 8.28305 5.2316 8.20565C5.2316 8.12826 5.29435 8.06551 5.37174 8.06551C5.44914 8.06551 5.51188 8.12826 5.51188 8.20565Z" fill="white"/>
<path d="M5.69873 7.76967C5.69873 7.84706 5.63599 7.90981 5.55859 7.90981C5.4812 7.90981 5.41846 7.84706 5.41846 7.76967C5.41846 7.69227 5.4812 7.62953 5.55859 7.62953C5.63599 7.62953 5.69873 7.69227 5.69873 7.76967Z" fill="white"/>
<path d="M5.97901 7.36482C5.97901 7.44222 5.91627 7.50496 5.83887 7.50496C5.76147 7.50496 5.69873 7.44222 5.69873 7.36482C5.69873 7.28743 5.76147 7.22468 5.83887 7.22468C5.91627 7.22468 5.97901 7.28743 5.97901 7.36482Z" fill="white"/>
<path d="M6.25929 6.99112C6.25929 7.06852 6.19654 7.13126 6.11915 7.13126C6.04175 7.13126 5.97901 7.06852 5.97901 6.99112C5.97901 6.91372 6.04175 6.85098 6.11915 6.85098C6.19654 6.85098 6.25929 6.91372 6.25929 6.99112Z" fill="white"/>
<path d="M6.60185 6.6797C6.60185 6.7571 6.5391 6.81984 6.46171 6.81984C6.38431 6.81984 6.32157 6.7571 6.32157 6.6797C6.32157 6.60231 6.38431 6.53956 6.46171 6.53956C6.5391 6.53956 6.60185 6.60231 6.60185 6.6797Z" fill="white"/>
<path d="M6.97555 6.39942C6.97555 6.47682 6.91281 6.53956 6.83541 6.53956C6.75801 6.53956 6.69527 6.47682 6.69527 6.39942C6.69527 6.32203 6.75801 6.25929 6.83541 6.25929C6.91281 6.25929 6.97555 6.32203 6.97555 6.39942Z" fill="white"/>
<path d="M7.41154 6.15029C7.41154 6.22769 7.34879 6.29043 7.2714 6.29043C7.194 6.29043 7.13126 6.22769 7.13126 6.15029C7.13126 6.07289 7.194 6.01015 7.2714 6.01015C7.34879 6.01015 7.41154 6.07289 7.41154 6.15029Z" fill="white"/>
<path d="M7.84752 5.99458C7.84752 6.07198 7.78478 6.13472 7.70738 6.13472C7.62999 6.13472 7.56724 6.07198 7.56724 5.99458C7.56724 5.91718 7.62999 5.85444 7.70738 5.85444C7.78478 5.85444 7.84752 5.91718 7.84752 5.99458Z" fill="white"/>
<path d="M8.28351 5.87001C8.28351 5.94741 8.22077 6.01015 8.14337 6.01015C8.06597 6.01015 8.00323 5.94741 8.00323 5.87001C8.00323 5.79262 8.06597 5.72987 8.14337 5.72987C8.22077 5.72987 8.28351 5.79262 8.28351 5.87001Z" fill="white"/>
<path d="M8.78178 5.80773C8.78178 5.88513 8.71904 5.94787 8.64164 5.94787C8.56424 5.94787 8.5015 5.88513 8.5015 5.80773C8.5015 5.73033 8.56424 5.66759 8.64164 5.66759C8.71904 5.66759 8.78178 5.73033 8.78178 5.80773Z" fill="white"/>
<path d="M9.24891 5.77659C9.24891 5.85398 9.18616 5.91673 9.10877 5.91673C9.03137 5.91673 8.96863 5.85398 8.96863 5.77659C8.96863 5.69919 9.03137 5.63645 9.10877 5.63645C9.18616 5.63645 9.24891 5.69919 9.24891 5.77659Z" fill="white"/>
<path d="M9.71603 5.83887C9.71603 5.91627 9.65329 5.97901 9.5759 5.97901C9.4985 5.97901 9.43576 5.91627 9.43576 5.83887C9.43576 5.76147 9.4985 5.69873 9.5759 5.69873C9.65329 5.69873 9.71603 5.76147 9.71603 5.83887Z" fill="white"/>
<path d="M10.1832 5.9323C10.1832 6.00969 10.1204 6.07243 10.043 6.07243C9.96563 6.07243 9.90288 6.00969 9.90288 5.9323C9.90288 5.8549 9.96563 5.79216 10.043 5.79216C10.1204 5.79216 10.1832 5.8549 10.1832 5.9323Z" fill="white"/>
<path d="M10.6503 6.08801C10.6503 6.1654 10.5875 6.22814 10.5102 6.22814C10.4328 6.22814 10.37 6.1654 10.37 6.08801C10.37 6.01061 10.4328 5.94787 10.5102 5.94787C10.5875 5.94787 10.6503 6.01061 10.6503 6.08801Z" fill="white"/>
<path d="M11.0863 6.33714C11.0863 6.41454 11.0235 6.47728 10.9461 6.47728C10.8687 6.47728 10.806 6.41454 10.806 6.33714C10.806 6.25974 10.8687 6.197 10.9461 6.197C11.0235 6.197 11.0863 6.25974 11.0863 6.33714Z" fill="white"/>
<path d="M11.4911 6.58628C11.4911 6.66367 11.4284 6.72641 11.351 6.72641C11.2736 6.72641 11.2108 6.66367 11.2108 6.58628C11.2108 6.50888 11.2736 6.44614 11.351 6.44614C11.4284 6.44614 11.4911 6.50888 11.4911 6.58628Z" fill="white"/>
<path d="M11.896 6.89769C11.896 6.97509 11.8332 7.03783 11.7558 7.03783C11.6784 7.03783 11.6157 6.97509 11.6157 6.89769C11.6157 6.8203 11.6784 6.75756 11.7558 6.75756C11.8332 6.75756 11.896 6.8203 11.896 6.89769Z" fill="white"/>
<path d="M12.2385 7.24025C12.2385 7.31765 12.1758 7.38039 12.0984 7.38039C12.021 7.38039 11.9582 7.31765 11.9582 7.24025C11.9582 7.16286 12.021 7.10012 12.0984 7.10012C12.1758 7.10012 12.2385 7.16286 12.2385 7.24025Z" fill="white"/>
<path d="M12.5499 7.6451C12.5499 7.7225 12.4872 7.78524 12.4098 7.78524C12.3324 7.78524 12.2697 7.7225 12.2697 7.6451C12.2697 7.5677 12.3324 7.50496 12.4098 7.50496C12.4872 7.50496 12.5499 7.5677 12.5499 7.6451Z" fill="white"/>
<path d="M12.8302 8.08109C12.8302 8.15848 12.7675 8.22122 12.6901 8.22122C12.6127 8.22122 12.5499 8.15848 12.5499 8.08109C12.5499 8.00369 12.6127 7.94095 12.6901 7.94095C12.7675 7.94095 12.8302 8.00369 12.8302 8.08109Z" fill="white"/>
<path d="M13.0482 8.51707C13.0482 8.59447 12.9855 8.65721 12.9081 8.65721C12.8307 8.65721 12.7679 8.59447 12.7679 8.51707C12.7679 8.43968 12.8307 8.37693 12.9081 8.37693C12.9855 8.37693 13.0482 8.43968 13.0482 8.51707Z" fill="white"/>
<path d="M13.2039 8.9842C13.2039 9.0616 13.1412 9.12434 13.0638 9.12434C12.9864 9.12434 12.9236 9.0616 12.9236 8.9842C12.9236 8.9068 12.9864 8.84406 13.0638 8.84406C13.1412 8.84406 13.2039 8.9068 13.2039 8.9842Z" fill="white"/>
<path d="M13.3285 9.48247C13.3285 9.55987 13.2657 9.62261 13.1884 9.62261C13.111 9.62261 13.0482 9.55987 13.0482 9.48247C13.0482 9.40507 13.111 9.34233 13.1884 9.34233C13.2657 9.34233 13.3285 9.40507 13.3285 9.48247Z" fill="white"/>
<path d="M13.3908 9.98074C13.3908 10.0581 13.328 10.1209 13.2506 10.1209C13.1732 10.1209 13.1105 10.0581 13.1105 9.98074C13.1105 9.90334 13.1732 9.8406 13.2506 9.8406C13.328 9.8406 13.3908 9.90334 13.3908 9.98074Z" fill="white"/>
<path d="M13.3908 10.479C13.3908 10.5564 13.328 10.6191 13.2506 10.6191C13.1732 10.6191 13.1105 10.5564 13.1105 10.479C13.1105 10.4016 13.1732 10.3389 13.2506 10.3389C13.328 10.3389 13.3908 10.4016 13.3908 10.479Z" fill="white"/>
<path d="M13.3596 10.9773C13.3596 11.0547 13.2969 11.1174 13.2195 11.1174C13.1421 11.1174 13.0794 11.0547 13.0794 10.9773C13.0794 10.8999 13.1421 10.8371 13.2195 10.8371C13.2969 10.8371 13.3596 10.8999 13.3596 10.9773Z" fill="white"/>
<path d="M13.2351 11.4444C13.2351 11.5218 13.1723 11.5845 13.0949 11.5845C13.0175 11.5845 12.9548 11.5218 12.9548 11.4444C12.9548 11.367 13.0175 11.3043 13.0949 11.3043C13.1723 11.3043 13.2351 11.367 13.2351 11.4444Z" fill="white"/>
<path d="M13.0794 11.9115C13.0794 11.9889 13.0166 12.0517 12.9392 12.0517C12.8618 12.0517 12.7991 11.9889 12.7991 11.9115C12.7991 11.8341 12.8618 11.7714 12.9392 11.7714C13.0166 11.7714 13.0794 11.8341 13.0794 11.9115Z" fill="white"/>
<path d="M12.8614 12.3475C12.8614 12.4249 12.7986 12.4877 12.7212 12.4877C12.6438 12.4877 12.5811 12.4249 12.5811 12.3475C12.5811 12.2701 12.6438 12.2074 12.7212 12.2074C12.7986 12.2074 12.8614 12.2701 12.8614 12.3475Z" fill="white"/>
<path d="M12.6122 12.7524C12.6122 12.8298 12.5495 12.8925 12.4721 12.8925C12.3947 12.8925 12.332 12.8298 12.332 12.7524C12.332 12.675 12.3947 12.6122 12.4721 12.6122C12.5495 12.6122 12.6122 12.675 12.6122 12.7524Z" fill="white"/>
<path d="M12.332 13.1261C12.332 13.2035 12.2692 13.2662 12.1918 13.2662C12.1144 13.2662 12.0517 13.2035 12.0517 13.1261C12.0517 13.0487 12.1144 12.9859 12.1918 12.9859C12.2692 12.9859 12.332 13.0487 12.332 13.1261Z" fill="white"/>
<path d="M11.9894 13.4375C11.9894 13.5149 11.9266 13.5776 11.8493 13.5776C11.7719 13.5776 11.7091 13.5149 11.7091 13.4375C11.7091 13.3601 11.7719 13.2973 11.8493 13.2973C11.9266 13.2973 11.9894 13.3601 11.9894 13.4375Z" fill="white"/>
<path d="M11.6157 13.7178C11.6157 13.7952 11.5529 13.8579 11.4755 13.8579C11.3982 13.8579 11.3354 13.7952 11.3354 13.7178C11.3354 13.6404 11.3982 13.5776 11.4755 13.5776C11.5529 13.5776 11.6157 13.6404 11.6157 13.7178Z" fill="white"/>
<path d="M11.1797 13.9669C11.1797 14.0443 11.117 14.107 11.0396 14.107C10.9622 14.107 10.8994 14.0443 10.8994 13.9669C10.8994 13.8895 10.9622 13.8268 11.0396 13.8268C11.117 13.8268 11.1797 13.8895 11.1797 13.9669Z" fill="white"/>
<path d="M10.7437 14.1226C10.7437 14.2 10.681 14.2627 10.6036 14.2627C10.5262 14.2627 10.4634 14.2 10.4634 14.1226C10.4634 14.0452 10.5262 13.9825 10.6036 13.9825C10.681 13.9825 10.7437 14.0452 10.7437 14.1226Z" fill="white"/>
<path d="M10.3077 14.2472C10.3077 14.3246 10.245 14.3873 10.1676 14.3873C10.0902 14.3873 10.0275 14.3246 10.0275 14.2472C10.0275 14.1698 10.0902 14.107 10.1676 14.107C10.245 14.107 10.3077 14.1698 10.3077 14.2472Z" fill="white"/>
<path d="M9.34233 14.3406C9.34233 14.418 9.27959 14.4807 9.20219 14.4807C9.1248 14.4807 9.06205 14.418 9.06205 14.3406C9.06205 14.2632 9.1248 14.2005 9.20219 14.2005C9.27959 14.2005 9.34233 14.2632 9.34233 14.3406Z" fill="white"/>
<path d="M8.8752 14.2783C8.8752 14.3557 8.81246 14.4185 8.73506 14.4185C8.65767 14.4185 8.59493 14.3557 8.59493 14.2783C8.59493 14.2009 8.65767 14.1382 8.73506 14.1382C8.81246 14.1382 8.8752 14.2009 8.8752 14.2783Z" fill="white"/>
<path d="M8.40807 14.1849C8.40807 14.2623 8.34533 14.325 8.26794 14.325C8.19054 14.325 8.1278 14.2623 8.1278 14.1849C8.1278 14.1075 8.19054 14.0448 8.26794 14.0448C8.34533 14.0448 8.40807 14.1075 8.40807 14.1849Z" fill="white"/>
<path d="M7.94095 13.998C7.94095 14.0754 7.8782 14.1382 7.80081 14.1382C7.72341 14.1382 7.66067 14.0754 7.66067 13.998C7.66067 13.9206 7.72341 13.8579 7.80081 13.8579C7.8782 13.8579 7.94095 13.9206 7.94095 13.998Z" fill="white"/>
<path d="M7.50496 13.78C7.50496 13.8574 7.44222 13.9202 7.36482 13.9202C7.28743 13.9202 7.22468 13.8574 7.22468 13.78C7.22468 13.7027 7.28743 13.6399 7.36482 13.6399C7.44222 13.6399 7.50496 13.7027 7.50496 13.78Z" fill="white"/>
<path d="M7.06897 13.5309C7.06897 13.6083 7.00623 13.6711 6.92884 13.6711C6.85144 13.6711 6.7887 13.6083 6.7887 13.5309C6.7887 13.4535 6.85144 13.3908 6.92884 13.3908C7.00623 13.3908 7.06897 13.4535 7.06897 13.5309Z" fill="white"/>
<path d="M6.69527 13.2195C6.69527 13.2969 6.63253 13.3596 6.55513 13.3596C6.47774 13.3596 6.415 13.2969 6.415 13.2195C6.415 13.1421 6.47774 13.0794 6.55513 13.0794C6.63253 13.0794 6.69527 13.1421 6.69527 13.2195Z" fill="white"/>
<path d="M6.35271 12.8458C6.35271 12.9232 6.28997 12.9859 6.21257 12.9859C6.13518 12.9859 6.07243 12.9232 6.07243 12.8458C6.07243 12.7684 6.13518 12.7057 6.21257 12.7057C6.28997 12.7057 6.35271 12.7684 6.35271 12.8458Z" fill="white"/>
<path d="M6.04129 12.4721C6.04129 12.5495 5.97855 12.6122 5.90115 12.6122C5.82376 12.6122 5.76102 12.5495 5.76102 12.4721C5.76102 12.3947 5.82376 12.332 5.90115 12.332C5.97855 12.332 6.04129 12.3947 6.04129 12.4721Z" fill="white"/>
<path d="M5.76102 12.0361C5.76102 12.1135 5.69827 12.1762 5.62088 12.1762C5.54348 12.1762 5.48074 12.1135 5.48074 12.0361C5.48074 11.9587 5.54348 11.896 5.62088 11.896C5.69827 11.896 5.76102 11.9587 5.76102 12.0361Z" fill="white"/>
<path d="M5.54302 11.569C5.54302 11.6464 5.48028 11.7091 5.40288 11.7091C5.32549 11.7091 5.26275 11.6464 5.26275 11.569C5.26275 11.4916 5.32549 11.4288 5.40288 11.4288C5.48028 11.4288 5.54302 11.4916 5.54302 11.569Z" fill="white"/>
<path d="M5.38731 11.1018C5.38731 11.1792 5.32457 11.242 5.24718 11.242C5.16978 11.242 5.10704 11.1792 5.10704 11.1018C5.10704 11.0245 5.16978 10.9617 5.24718 10.9617C5.32457 10.9617 5.38731 11.0245 5.38731 11.1018Z" fill="white"/>
<path d="M5.26275 10.6036C5.26275 10.681 5.2 10.7437 5.12261 10.7437C5.04521 10.7437 4.98247 10.681 4.98247 10.6036C4.98247 10.5262 5.04521 10.4634 5.12261 10.4634C5.2 10.4634 5.26275 10.5262 5.26275 10.6036Z" fill="white"/>
<path d="M5.20046 10.1364C5.20046 10.2138 5.13772 10.2766 5.06032 10.2766C4.98293 10.2766 4.92019 10.2138 4.92019 10.1364C4.92019 10.0591 4.98293 9.99631 5.06032 9.99631C5.13772 9.99631 5.20046 10.0591 5.20046 10.1364Z" fill="white"/>
<path d="M5.20046 9.63818C5.20046 9.71558 5.13772 9.77832 5.06032 9.77832C4.98293 9.77832 4.92019 9.71558 4.92019 9.63818C4.92019 9.56078 4.98293 9.49804 5.06032 9.49804C5.13772 9.49804 5.20046 9.56078 5.20046 9.63818Z" fill="white"/>
<path d="M5.2316 9.13991C5.2316 9.21731 5.16886 9.28005 5.09147 9.28005C5.01407 9.28005 4.95133 9.21731 4.95133 9.13991C4.95133 9.06251 5.01407 8.99977 5.09147 8.99977C5.16886 8.99977 5.2316 9.06251 5.2316 9.13991Z" fill="white"/>
<path d="M5.35617 8.64164C5.35617 8.71904 5.29343 8.78178 5.21603 8.78178C5.13864 8.78178 5.07589 8.71904 5.07589 8.64164C5.07589 8.56424 5.13864 8.5015 5.21603 8.5015C5.29343 8.5015 5.35617 8.56424 5.35617 8.64164Z" fill="white"/>
<path d="M9.8406 14.3095C9.8406 14.3869 9.77786 14.4496 9.70046 14.4496C9.62307 14.4496 9.56032 14.3869 9.56032 14.3095C9.56032 14.2321 9.62307 14.1693 9.70046 14.1693C9.77786 14.1693 9.8406 14.2321 9.8406 14.3095Z" fill="white"/>
</svg>
