<svg width="24" height="24" viewBox="0 0 24 24" fill="none" xmlns="http://www.w3.org/2000/svg">
<path d="M18.375 5.25C18.8723 5.25 19.3492 5.44754 19.7008 5.79917C20.0525 6.15081 20.25 6.62772 20.25 7.125V16.5H18.375V7.125H9V5.25H18.375ZM7.125 10.875V18.375H14.625V10.875H7.125ZM7.125 9H14.625C15.1223 9 15.5992 9.19754 15.9508 9.54918C16.3025 9.90081 16.5 10.3777 16.5 10.875V18.375C16.5 18.8723 16.3025 19.3492 15.9508 19.7008C15.5992 20.0525 15.1223 20.25 14.625 20.25H7.125C6.62772 20.25 6.1508 20.0525 5.79917 19.7008C5.44754 19.3492 5.25 18.8723 5.25 18.375V10.875C5.25 10.3777 5.44754 9.90081 5.79917 9.54918C6.1508 9.19754 6.62772 9 7.125 9Z" fill="black"/>
</svg>
