<svg width="300" height="36" viewBox="0 0 300 36" fill="none" xmlns="http://www.w3.org/2000/svg">
<path d="M16 36.0009H0C0.275 36.0009 7 35.5009 8 28.0009V7.00089C8.5 1.00089 14.725 0.000892878 15 0.000892878C15.275 0.000892878 16 0 16 0V27.0009C16 31.9509 16 36.0009 16 36.0009Z" fill="white"/>
<rect width="228" height="36" transform="translate(16)" fill="white"/>
<rect x="20" y="9" width="18" height="18" rx="9" fill="#5C3C6E"/>
<path d="M33.5305 22.0581C33.5131 22.1706 33.419 22.2494 33.3203 22.2341C33.2216 22.2189 33.1557 22.1153 33.1731 22.0028C33.1906 21.8903 33.2847 21.8115 33.3834 21.8267C33.482 21.842 33.5479 21.9456 33.5305 22.0581Z" fill="white"/>
<path d="M33.9042 21.4041C33.8868 21.5166 33.7927 21.5954 33.694 21.5802C33.5953 21.5649 33.5294 21.4613 33.5468 21.3488C33.5643 21.2363 33.6584 21.1575 33.7571 21.1728C33.8558 21.188 33.9216 21.2916 33.9042 21.4041Z" fill="white"/>
<path d="M34.2156 20.7501C34.1982 20.8626 34.1041 20.9415 34.0054 20.9262C33.9067 20.9109 33.8408 20.8073 33.8583 20.6948C33.8757 20.5823 33.9698 20.5035 34.0685 20.5188C34.1672 20.5341 34.2331 20.6376 34.2156 20.7501Z" fill="white"/>
<path d="M34.4336 20.0339C34.4162 20.1464 34.3221 20.2252 34.2234 20.2099C34.1247 20.1947 34.0588 20.0911 34.0763 19.9786C34.0937 19.8661 34.1878 19.7872 34.2865 19.8025C34.3852 19.8178 34.4511 19.9214 34.4336 20.0339Z" fill="white"/>
<path d="M34.5893 19.3176C34.5719 19.4301 34.4778 19.5089 34.3791 19.4937C34.2804 19.4784 34.2145 19.3748 34.232 19.2623C34.2494 19.1498 34.3435 19.071 34.4422 19.0863C34.5409 19.1015 34.6068 19.2051 34.5893 19.3176Z" fill="white"/>
<path d="M34.6516 18.6014C34.6342 18.7139 34.5401 18.7927 34.4414 18.7774C34.3427 18.7621 34.2768 18.6585 34.2942 18.546C34.3117 18.4335 34.4058 18.3547 34.5045 18.37C34.6032 18.3853 34.669 18.4889 34.6516 18.6014Z" fill="white"/>
<path d="M34.6828 17.8539C34.6654 17.9665 34.5712 18.0453 34.4725 18.03C34.3739 18.0147 34.308 17.9111 34.3254 17.7986C34.3428 17.6861 34.4369 17.6073 34.5356 17.6226C34.6343 17.6379 34.7002 17.7414 34.6828 17.8539Z" fill="white"/>
<path d="M34.6205 17.1377C34.6031 17.2502 34.509 17.329 34.4103 17.3137C34.3116 17.2985 34.2457 17.1949 34.2631 17.0824C34.2805 16.9699 34.3746 16.891 34.4733 16.9063C34.572 16.9216 34.6379 17.0252 34.6205 17.1377Z" fill="white"/>
<path d="M34.4648 16.4526C34.4474 16.5651 34.3532 16.6439 34.2546 16.6286C34.1559 16.6133 34.09 16.5098 34.1074 16.3972C34.1248 16.2847 34.2189 16.2059 34.3176 16.2212C34.4163 16.2365 34.4822 16.3401 34.4648 16.4526Z" fill="white"/>
<path d="M34.2468 15.7674C34.2294 15.8799 34.1353 15.9588 34.0366 15.9435C33.9379 15.9282 33.872 15.8246 33.8894 15.7121C33.9068 15.5996 34.0009 15.5208 34.0996 15.5361C34.1983 15.5514 34.2642 15.6549 34.2468 15.7674Z" fill="white"/>
<path d="M33.9665 15.1446C33.9491 15.2571 33.855 15.3359 33.7563 15.3207C33.6576 15.3054 33.5917 15.2018 33.6091 15.0893C33.6265 14.9768 33.7207 14.898 33.8193 14.9132C33.918 14.9285 33.9839 15.0321 33.9665 15.1446Z" fill="white"/>
<path d="M33.6239 14.5529C33.6065 14.6654 33.5124 14.7442 33.4137 14.729C33.315 14.7137 33.2492 14.6101 33.2666 14.4976C33.284 14.3851 33.3781 14.3063 33.4768 14.3215C33.5755 14.3368 33.6414 14.4404 33.6239 14.5529Z" fill="white"/>
<path d="M33.2191 14.0235C33.2017 14.136 33.1076 14.2148 33.0089 14.1995C32.9102 14.1843 32.8443 14.0807 32.8617 13.9682C32.8791 13.8557 32.9733 13.7769 33.0719 13.7921C33.1706 13.8074 33.2365 13.911 33.2191 14.0235Z" fill="white"/>
<path d="M32.752 13.5564C32.7346 13.6689 32.6404 13.7477 32.5418 13.7324C32.4431 13.7171 32.3772 13.6136 32.3946 13.5011C32.412 13.3885 32.5061 13.3097 32.6048 13.325C32.7035 13.3403 32.7694 13.4439 32.752 13.5564Z" fill="white"/>
<path d="M32.2226 13.1515C32.2051 13.264 32.111 13.3428 32.0123 13.3276C31.9137 13.3123 31.8478 13.2087 31.8652 13.0962C31.8826 12.9837 31.9767 12.9049 32.0754 12.9202C32.1741 12.9354 32.24 13.039 32.2226 13.1515Z" fill="white"/>
<path d="M31.662 12.809C31.6446 12.9215 31.5505 13.0003 31.4518 12.985C31.3531 12.9697 31.2872 12.8662 31.3046 12.7536C31.322 12.6411 31.4162 12.5623 31.5148 12.5776C31.6135 12.5929 31.6794 12.6965 31.662 12.809Z" fill="white"/>
<path d="M31.0703 12.5598C31.0529 12.6723 30.9588 12.7512 30.8601 12.7359C30.7614 12.7206 30.6955 12.617 30.7129 12.5045C30.7303 12.392 30.8245 12.3132 30.9232 12.3285C31.0218 12.3437 31.0877 12.4473 31.0703 12.5598Z" fill="white"/>
<path d="M30.4475 12.4041C30.4301 12.5166 30.3359 12.5954 30.2373 12.5802C30.1386 12.5649 30.0727 12.4613 30.0901 12.3488C30.1075 12.2363 30.2016 12.1575 30.3003 12.1728C30.399 12.188 30.4649 12.2916 30.4475 12.4041Z" fill="white"/>
<path d="M29.7935 12.3107C29.7761 12.4232 29.682 12.502 29.5833 12.4867C29.4846 12.4715 29.4187 12.3679 29.4361 12.2554C29.4535 12.1429 29.5476 12.0641 29.6463 12.0793C29.745 12.0946 29.8109 12.1982 29.7935 12.3107Z" fill="white"/>
<path d="M29.1395 12.3107C29.1221 12.4232 29.028 12.502 28.9293 12.4867C28.8306 12.4715 28.7647 12.3679 28.7821 12.2554C28.7995 12.1429 28.8937 12.0641 28.9924 12.0793C29.091 12.0946 29.1569 12.1982 29.1395 12.3107Z" fill="white"/>
<path d="M28.5167 12.373C28.4993 12.4855 28.4051 12.5643 28.3065 12.549C28.2078 12.5338 28.1419 12.4302 28.1593 12.3177C28.1767 12.2052 28.2708 12.1263 28.3695 12.1416C28.4682 12.1569 28.5341 12.2605 28.5167 12.373Z" fill="white"/>
<path d="M27.8627 12.5287C27.8453 12.6412 27.7512 12.72 27.6525 12.7047C27.5538 12.6895 27.4879 12.5859 27.5053 12.4734C27.5227 12.3609 27.6169 12.282 27.7155 12.2973C27.8142 12.3126 27.8801 12.4162 27.8627 12.5287Z" fill="white"/>
<path d="M27.2399 12.7778C27.2224 12.8903 27.1283 12.9691 27.0296 12.9539C26.931 12.9386 26.8651 12.835 26.8825 12.7225C26.8999 12.61 26.994 12.5312 27.0927 12.5465C27.1914 12.5617 27.2573 12.6653 27.2399 12.7778Z" fill="white"/>
<path d="M26.6482 13.0892C26.6308 13.2017 26.5366 13.2806 26.4379 13.2653C26.3393 13.25 26.2734 13.1464 26.2908 13.0339C26.3082 12.9214 26.4023 12.8426 26.501 12.8579C26.5997 12.8732 26.6656 12.9767 26.6482 13.0892Z" fill="white"/>
<path d="M26.0565 13.4941C26.0391 13.6066 25.9449 13.6854 25.8463 13.6701C25.7476 13.6549 25.6817 13.5513 25.6991 13.4388C25.7165 13.3263 25.8106 13.2474 25.9093 13.2627C26.008 13.278 26.0739 13.3816 26.0565 13.4941Z" fill="white"/>
<path d="M25.5582 13.9612C25.5408 14.0737 25.4467 14.1525 25.348 14.1373C25.2493 14.122 25.1834 14.0184 25.2008 13.9059C25.2182 13.7934 25.3124 13.7146 25.411 13.7299C25.5097 13.7451 25.5756 13.8487 25.5582 13.9612Z" fill="white"/>
<path d="M25.0599 14.4906C25.0425 14.6031 24.9484 14.6819 24.8497 14.6667C24.751 14.6514 24.6851 14.5478 24.7026 14.4353C24.72 14.3228 24.8141 14.244 24.9128 14.2593C25.0115 14.2745 25.0773 14.3781 25.0599 14.4906Z" fill="white"/>
<path d="M24.6239 15.0823C24.6065 15.1948 24.5124 15.2736 24.4137 15.2584C24.315 15.2431 24.2492 15.1395 24.2666 15.027C24.284 14.9145 24.3781 14.8357 24.4768 14.851C24.5755 14.8662 24.6414 14.9698 24.6239 15.0823Z" fill="white"/>
<path d="M24.2814 15.7363C24.264 15.8488 24.1699 15.9276 24.0712 15.9123C23.9725 15.8971 23.9066 15.7935 23.924 15.681C23.9414 15.5685 24.0355 15.4897 24.1342 15.5049C24.2329 15.5202 24.2988 15.6238 24.2814 15.7363Z" fill="white"/>
<path d="M24.0011 16.3903C23.9837 16.5028 23.8896 16.5816 23.7909 16.5663C23.6922 16.5511 23.6263 16.4475 23.6437 16.335C23.6611 16.2225 23.7553 16.1436 23.8539 16.1589C23.9526 16.1742 24.0185 16.2778 24.0011 16.3903Z" fill="white"/>
<path d="M23.752 17.0754C23.7346 17.1879 23.6404 17.2667 23.5418 17.2514C23.4431 17.2362 23.3772 17.1326 23.3946 17.0201C23.412 16.9076 23.5061 16.8288 23.6048 16.844C23.7035 16.8593 23.7694 16.9629 23.752 17.0754Z" fill="white"/>
<path d="M23.5963 17.7917C23.5789 17.9042 23.4847 17.983 23.386 17.9677C23.2874 17.9524 23.2215 17.8489 23.2389 17.7363C23.2563 17.6238 23.3504 17.545 23.4491 17.5603C23.5478 17.5756 23.6137 17.6792 23.5963 17.7917Z" fill="white"/>
<path d="M23.5028 18.5391C23.4854 18.6516 23.3913 18.7304 23.2926 18.7151C23.1939 18.6998 23.128 18.5963 23.1455 18.4838C23.1629 18.3712 23.257 18.2924 23.3557 18.3077C23.4544 18.323 23.5203 18.4266 23.5028 18.5391Z" fill="white"/>
<path d="M23.5028 19.2865C23.4854 19.399 23.3913 19.4778 23.2926 19.4625C23.1939 19.4472 23.128 19.3437 23.1455 19.2312C23.1629 19.1187 23.257 19.0398 23.3557 19.0551C23.4544 19.0704 23.5203 19.174 23.5028 19.2865Z" fill="white"/>
<path d="M23.5651 20.0027C23.5477 20.1152 23.4536 20.1941 23.3549 20.1788C23.2562 20.1635 23.1903 20.0599 23.2077 19.9474C23.2252 19.8349 23.3193 19.7561 23.418 19.7714C23.5167 19.7866 23.5825 19.8902 23.5651 20.0027Z" fill="white"/>
<path d="M23.7208 20.719C23.7034 20.8315 23.6093 20.9103 23.5106 20.895C23.4119 20.8798 23.346 20.7762 23.3635 20.6637C23.3809 20.5512 23.475 20.4724 23.5737 20.4876C23.6724 20.5029 23.7382 20.6065 23.7208 20.719Z" fill="white"/>
<path d="M23.9388 21.3418C23.9214 21.4543 23.8273 21.5332 23.7286 21.5179C23.6299 21.5026 23.564 21.399 23.5814 21.2865C23.5989 21.174 23.693 21.0952 23.7917 21.1105C23.8904 21.1257 23.9562 21.2293 23.9388 21.3418Z" fill="white"/>
<path d="M24.2191 21.9958C24.2017 22.1083 24.1076 22.1871 24.0089 22.1719C23.9102 22.1566 23.8443 22.053 23.8617 21.9405C23.8791 21.828 23.9733 21.7492 24.0719 21.7645C24.1706 21.7797 24.2365 21.8833 24.2191 21.9958Z" fill="white"/>
<path d="M24.5617 22.5875C24.5442 22.7 24.4501 22.7788 24.3514 22.7636C24.2528 22.7483 24.1869 22.6447 24.2043 22.5322C24.2217 22.4197 24.3158 22.3409 24.4145 22.3561C24.5132 22.3714 24.5791 22.475 24.5617 22.5875Z" fill="white"/>
<path d="M24.9665 23.1169C24.9491 23.2294 24.855 23.3082 24.7563 23.293C24.6576 23.2777 24.5917 23.1741 24.6091 23.0616C24.6265 22.9491 24.7207 22.8703 24.8193 22.8856C24.918 22.9008 24.9839 23.0044 24.9665 23.1169Z" fill="white"/>
<path d="M25.4648 23.5841C25.4474 23.6966 25.3532 23.7754 25.2546 23.7601C25.1559 23.7448 25.09 23.6412 25.1074 23.5287C25.1248 23.4162 25.2189 23.3374 25.3176 23.3527C25.4163 23.368 25.4822 23.4715 25.4648 23.5841Z" fill="white"/>
<path d="M25.963 23.9889C25.9456 24.1014 25.8515 24.1802 25.7528 24.1649C25.6541 24.1497 25.5883 24.0461 25.6057 23.9336C25.6231 23.8211 25.7172 23.7423 25.8159 23.7575C25.9146 23.7728 25.9805 23.8764 25.963 23.9889Z" fill="white"/>
<path d="M26.5236 24.3315C26.5062 24.444 26.4121 24.5228 26.3134 24.5075C26.2147 24.4922 26.1488 24.3886 26.1662 24.2761C26.1836 24.1636 26.2778 24.0848 26.3764 24.1001C26.4751 24.1154 26.541 24.219 26.5236 24.3315Z" fill="white"/>
<path d="M27.1153 24.5806C27.0979 24.6931 27.0038 24.7719 26.9051 24.7566C26.8064 24.7414 26.7405 24.6378 26.7579 24.5253C26.7753 24.4128 26.8694 24.334 26.9681 24.3492C27.0668 24.3645 27.1327 24.4681 27.1153 24.5806Z" fill="white"/>
<path d="M27.7381 24.7363C27.7207 24.8488 27.6266 24.9276 27.5279 24.9123C27.4292 24.8971 27.3633 24.7935 27.3808 24.681C27.3982 24.5685 27.4923 24.4897 27.591 24.5049C27.6897 24.5202 27.7555 24.6238 27.7381 24.7363Z" fill="white"/>
<path d="M28.3921 24.8297C28.3747 24.9422 28.2806 25.0211 28.1819 25.0058C28.0832 24.9905 28.0173 24.8869 28.0347 24.7744C28.0521 24.6619 28.1463 24.5831 28.245 24.5984C28.3436 24.6136 28.4095 24.7172 28.3921 24.8297Z" fill="white"/>
<path d="M29.015 24.8297C28.9975 24.9422 28.9034 25.0211 28.8047 25.0058C28.706 24.9905 28.6402 24.8869 28.6576 24.7744C28.675 24.6619 28.7691 24.5831 28.8678 24.5984C28.9665 24.6136 29.0324 24.7172 29.015 24.8297Z" fill="white"/>
<path d="M29.6689 24.7674C29.6515 24.8799 29.5574 24.9588 29.4587 24.9435C29.36 24.9282 29.2941 24.8246 29.3115 24.7121C29.329 24.5996 29.4231 24.5208 29.5218 24.5361C29.6205 24.5514 29.6863 24.6549 29.6689 24.7674Z" fill="white"/>
<path d="M30.3229 24.6117C30.3055 24.7242 30.2114 24.8031 30.1127 24.7878C30.014 24.7725 29.9481 24.6689 29.9655 24.5564C29.9829 24.4439 30.0771 24.3651 30.1757 24.3804C30.2744 24.3956 30.3403 24.4992 30.3229 24.6117Z" fill="white"/>
<path d="M30.9457 24.3626C30.9283 24.4751 30.8342 24.5539 30.7355 24.5386C30.6368 24.5234 30.5709 24.4198 30.5884 24.3073C30.6058 24.1948 30.6999 24.116 30.7986 24.1312C30.8973 24.1465 30.9632 24.2501 30.9457 24.3626Z" fill="white"/>
<path d="M31.5374 24.02C31.52 24.1325 31.4259 24.2114 31.3272 24.1961C31.2285 24.1808 31.1626 24.0772 31.1801 23.9647C31.1975 23.8522 31.2916 23.7734 31.3903 23.7887C31.489 23.8039 31.5549 23.9075 31.5374 24.02Z" fill="white"/>
<path d="M32.098 23.6152C32.0806 23.7277 31.9865 23.8065 31.8878 23.7912C31.7891 23.776 31.7232 23.6724 31.7406 23.5599C31.758 23.4474 31.8521 23.3686 31.9508 23.3838C32.0495 23.3991 32.1154 23.5027 32.098 23.6152Z" fill="white"/>
<path d="M32.6274 23.1481C32.61 23.2606 32.5159 23.3394 32.4172 23.3241C32.3185 23.3088 32.2526 23.2053 32.27 23.0927C32.2874 22.9802 32.3816 22.9014 32.4802 22.9167C32.5789 22.932 32.6448 23.0356 32.6274 23.1481Z" fill="white"/>
<path d="M33.1257 22.6498C33.1083 22.7623 33.0141 22.8411 32.9155 22.8258C32.8168 22.8106 32.7509 22.707 32.7683 22.5945C32.7857 22.482 32.8798 22.4032 32.9785 22.4184C33.0772 22.4337 33.1431 22.5373 33.1257 22.6498Z" fill="white"/>
<path d="M27.069 25.396C27.069 25.5422 26.9505 25.6607 26.8043 25.6607C26.6581 25.6607 26.5396 25.5422 26.5396 25.396C26.5396 25.2498 26.6581 25.1313 26.8043 25.1313C26.9505 25.1313 27.069 25.2498 27.069 25.396Z" fill="white"/>
<path d="M27.9409 25.5828C27.9409 25.729 27.8224 25.8475 27.6762 25.8475C27.53 25.8475 27.4115 25.729 27.4115 25.5828C27.4115 25.4366 27.53 25.3181 27.6762 25.3181C27.8224 25.3181 27.9409 25.4366 27.9409 25.5828Z" fill="white"/>
<path d="M28.8129 25.6762C28.8129 25.8224 28.6944 25.9409 28.5482 25.9409C28.402 25.9409 28.2835 25.8224 28.2835 25.6762C28.2835 25.53 28.402 25.4115 28.5482 25.4115C28.6944 25.4115 28.8129 25.53 28.8129 25.6762Z" fill="white"/>
<path d="M29.7472 25.6762C29.7472 25.8224 29.6287 25.9409 29.4825 25.9409C29.3363 25.9409 29.2178 25.8224 29.2178 25.6762C29.2178 25.53 29.3363 25.4115 29.4825 25.4115C29.6287 25.4115 29.7472 25.53 29.7472 25.6762Z" fill="white"/>
<path d="M30.6191 25.5828C30.6191 25.729 30.5006 25.8475 30.3544 25.8475C30.2082 25.8475 30.0897 25.729 30.0897 25.5828C30.0897 25.4366 30.2082 25.3181 30.3544 25.3181C30.5006 25.3181 30.6191 25.4366 30.6191 25.5828Z" fill="white"/>
<path d="M31.4911 25.396C31.4911 25.5422 31.3726 25.6607 31.2264 25.6607C31.0802 25.6607 30.9617 25.5422 30.9617 25.396C30.9617 25.2498 31.0802 25.1313 31.2264 25.1313C31.3726 25.1313 31.4911 25.2498 31.4911 25.396Z" fill="white"/>
<path d="M32.332 25.0534C32.332 25.1996 32.2134 25.3181 32.0672 25.3181C31.9211 25.3181 31.8025 25.1996 31.8025 25.0534C31.8025 24.9072 31.9211 24.7887 32.0672 24.7887C32.2134 24.7887 32.332 24.9072 32.332 25.0534Z" fill="white"/>
<path d="M33.1416 24.6797C33.1416 24.8259 33.0231 24.9444 32.8769 24.9444C32.7307 24.9444 32.6122 24.8259 32.6122 24.6797C32.6122 24.5335 32.7307 24.415 32.8769 24.415C33.0231 24.415 33.1416 24.5335 33.1416 24.6797Z" fill="white"/>
<path d="M33.889 24.1503C33.889 24.2965 33.7705 24.415 33.6243 24.415C33.4781 24.415 33.3596 24.2965 33.3596 24.1503C33.3596 24.0041 33.4781 23.8856 33.6243 23.8856C33.7705 23.8856 33.889 24.0041 33.889 24.1503Z" fill="white"/>
<path d="M34.5742 23.6209C34.5742 23.7671 34.4557 23.8856 34.3095 23.8856C34.1633 23.8856 34.0448 23.7671 34.0448 23.6209C34.0448 23.4747 34.1633 23.3562 34.3095 23.3562C34.4557 23.3562 34.5742 23.4747 34.5742 23.6209Z" fill="white"/>
<path d="M35.197 22.9358C35.197 23.082 35.0785 23.2005 34.9323 23.2005C34.7861 23.2005 34.6676 23.082 34.6676 22.9358C34.6676 22.7896 34.7861 22.6711 34.9323 22.6711C35.0785 22.6711 35.197 22.7896 35.197 22.9358Z" fill="white"/>
<path d="M35.7264 22.2195C35.7264 22.3657 35.6079 22.4842 35.4617 22.4842C35.3155 22.4842 35.197 22.3657 35.197 22.2195C35.197 22.0733 35.3155 21.9548 35.4617 21.9548C35.6079 21.9548 35.7264 22.0733 35.7264 22.2195Z" fill="white"/>
<path d="M36.1624 21.4409C36.1624 21.5871 36.0439 21.7057 35.8977 21.7057C35.7515 21.7057 35.633 21.5871 35.633 21.4409C35.633 21.2948 35.7515 21.1762 35.8977 21.1762C36.0439 21.1762 36.1624 21.2948 36.1624 21.4409Z" fill="white"/>
<path d="M36.5361 20.6313C36.5361 20.7775 36.4176 20.896 36.2714 20.896C36.1252 20.896 36.0067 20.7775 36.0067 20.6313C36.0067 20.4851 36.1252 20.3666 36.2714 20.3666C36.4176 20.3666 36.5361 20.4851 36.5361 20.6313Z" fill="white"/>
<path d="M36.7852 19.7904C36.7852 19.9366 36.6667 20.0551 36.5205 20.0551C36.3743 20.0551 36.2558 19.9366 36.2558 19.7904C36.2558 19.6442 36.3743 19.5257 36.5205 19.5257C36.6667 19.5257 36.7852 19.6442 36.7852 19.7904Z" fill="white"/>
<path d="M36.9409 18.8873C36.9409 19.0335 36.8224 19.152 36.6762 19.152C36.53 19.152 36.4115 19.0335 36.4115 18.8873C36.4115 18.7411 36.53 18.6226 36.6762 18.6226C36.8224 18.6226 36.9409 18.7411 36.9409 18.8873Z" fill="white"/>
<path d="M36.9409 17.9842C36.9409 18.1304 36.8224 18.2489 36.6762 18.2489C36.53 18.2489 36.4115 18.1304 36.4115 17.9842C36.4115 17.838 36.53 17.7195 36.6762 17.7195C36.8224 17.7195 36.9409 17.838 36.9409 17.9842Z" fill="white"/>
<path d="M36.9409 17.0811C36.9409 17.2273 36.8224 17.3458 36.6762 17.3458C36.53 17.3458 36.4115 17.2273 36.4115 17.0811C36.4115 16.9349 36.53 16.8164 36.6762 16.8164C36.8224 16.8164 36.9409 16.9349 36.9409 17.0811Z" fill="white"/>
<path d="M36.7852 16.2403C36.7852 16.3864 36.6667 16.505 36.5205 16.505C36.3743 16.505 36.2558 16.3864 36.2558 16.2403C36.2558 16.0941 36.3743 15.9755 36.5205 15.9755C36.6667 15.9755 36.7852 16.0941 36.7852 16.2403Z" fill="white"/>
<path d="M36.5361 15.3371C36.5361 15.4833 36.4176 15.6018 36.2714 15.6018C36.1252 15.6018 36.0067 15.4833 36.0067 15.3371C36.0067 15.1909 36.1252 15.0724 36.2714 15.0724C36.4176 15.0724 36.5361 15.1909 36.5361 15.3371Z" fill="white"/>
<path d="M36.1624 14.5586C36.1624 14.7048 36.0439 14.8233 35.8977 14.8233C35.7515 14.8233 35.633 14.7048 35.633 14.5586C35.633 14.4124 35.7515 14.2939 35.8977 14.2939C36.0439 14.2939 36.1624 14.4124 36.1624 14.5586Z" fill="white"/>
<path d="M35.7264 13.78C35.7264 13.9262 35.6079 14.0448 35.4617 14.0448C35.3155 14.0448 35.197 13.9262 35.197 13.78C35.197 13.6339 35.3155 13.5153 35.4617 13.5153C35.6079 13.5153 35.7264 13.6339 35.7264 13.78Z" fill="white"/>
<path d="M35.197 13.0949C35.197 13.2411 35.0785 13.3596 34.9323 13.3596C34.7861 13.3596 34.6676 13.2411 34.6676 13.0949C34.6676 12.9487 34.7861 12.8302 34.9323 12.8302C35.0785 12.8302 35.197 12.9487 35.197 13.0949Z" fill="white"/>
<path d="M34.543 12.3787C34.543 12.5249 34.4245 12.6434 34.2783 12.6434C34.1321 12.6434 34.0136 12.5249 34.0136 12.3787C34.0136 12.2325 34.1321 12.114 34.2783 12.114C34.4245 12.114 34.543 12.2325 34.543 12.3787Z" fill="white"/>
<path d="M33.889 11.8493C33.889 11.9954 33.7705 12.114 33.6243 12.114C33.4781 12.114 33.3596 11.9954 33.3596 11.8493C33.3596 11.7031 33.4781 11.5845 33.6243 11.5845C33.7705 11.5845 33.889 11.7031 33.889 11.8493Z" fill="white"/>
<path d="M33.1416 11.3198C33.1416 11.466 33.0231 11.5845 32.8769 11.5845C32.7307 11.5845 32.6122 11.466 32.6122 11.3198C32.6122 11.1736 32.7307 11.0551 32.8769 11.0551C33.0231 11.0551 33.1416 11.1736 33.1416 11.3198Z" fill="white"/>
<path d="M32.3631 10.9461C32.3631 11.0923 32.2446 11.2108 32.0984 11.2108C31.9522 11.2108 31.8337 11.0923 31.8337 10.9461C31.8337 10.7999 31.9522 10.6814 32.0984 10.6814C32.2446 10.6814 32.3631 10.7999 32.3631 10.9461Z" fill="white"/>
<path d="M31.4911 10.6036C31.4911 10.7498 31.3726 10.8683 31.2264 10.8683C31.0802 10.8683 30.9617 10.7498 30.9617 10.6036C30.9617 10.4574 31.0802 10.3389 31.2264 10.3389C31.3726 10.3389 31.4911 10.4574 31.4911 10.6036Z" fill="white"/>
<path d="M30.6503 10.4167C30.6503 10.5629 30.5318 10.6814 30.3856 10.6814C30.2394 10.6814 30.1209 10.5629 30.1209 10.4167C30.1209 10.2705 30.2394 10.152 30.3856 10.152C30.5318 10.152 30.6503 10.2705 30.6503 10.4167Z" fill="white"/>
<path d="M29.716 10.3233C29.716 10.4695 29.5975 10.588 29.4513 10.588C29.3051 10.588 29.1866 10.4695 29.1866 10.3233C29.1866 10.1771 29.3051 10.0586 29.4513 10.0586C29.5975 10.0586 29.716 10.1771 29.716 10.3233Z" fill="white"/>
<path d="M28.8752 10.3233C28.8752 10.4695 28.7567 10.588 28.6105 10.588C28.4643 10.588 28.3458 10.4695 28.3458 10.3233C28.3458 10.1771 28.4643 10.0586 28.6105 10.0586C28.7567 10.0586 28.8752 10.1771 28.8752 10.3233Z" fill="white"/>
<path d="M27.9409 10.4167C27.9409 10.5629 27.8224 10.6814 27.6762 10.6814C27.53 10.6814 27.4115 10.5629 27.4115 10.4167C27.4115 10.2705 27.53 10.152 27.6762 10.152C27.8224 10.152 27.9409 10.2705 27.9409 10.4167Z" fill="white"/>
<path d="M27.069 10.6036C27.069 10.7498 26.9505 10.8683 26.8043 10.8683C26.6581 10.8683 26.5396 10.7498 26.5396 10.6036C26.5396 10.4574 26.6581 10.3389 26.8043 10.3389C26.9505 10.3389 27.069 10.4574 27.069 10.6036Z" fill="white"/>
<path d="M26.2593 10.9461C26.2593 11.0923 26.1408 11.2108 25.9946 11.2108C25.8484 11.2108 25.7299 11.0923 25.7299 10.9461C25.7299 10.7999 25.8484 10.6814 25.9946 10.6814C26.1408 10.6814 26.2593 10.7999 26.2593 10.9461Z" fill="white"/>
<path d="M25.4185 11.351C25.4185 11.4972 25.2999 11.6157 25.1537 11.6157C25.0076 11.6157 24.889 11.4972 24.889 11.351C24.889 11.2048 25.0076 11.0863 25.1537 11.0863C25.2999 11.0863 25.4185 11.2048 25.4185 11.351Z" fill="white"/>
<path d="M24.6711 11.8181C24.6711 11.9643 24.5525 12.0828 24.4063 12.0828C24.2602 12.0828 24.1416 11.9643 24.1416 11.8181C24.1416 11.6719 24.2602 11.5534 24.4063 11.5534C24.5525 11.5534 24.6711 11.6719 24.6711 11.8181Z" fill="white"/>
<path d="M23.9859 12.4098C23.9859 12.556 23.8674 12.6745 23.7212 12.6745C23.575 12.6745 23.4565 12.556 23.4565 12.4098C23.4565 12.2636 23.575 12.1451 23.7212 12.1451C23.8674 12.1451 23.9859 12.2636 23.9859 12.4098Z" fill="white"/>
<path d="M23.3942 13.0638C23.3942 13.21 23.2757 13.3285 23.1295 13.3285C22.9833 13.3285 22.8648 13.21 22.8648 13.0638C22.8648 12.9176 22.9833 12.7991 23.1295 12.7991C23.2757 12.7991 23.3942 12.9176 23.3942 13.0638Z" fill="white"/>
<path d="M22.8648 13.78C22.8648 13.9262 22.7463 14.0448 22.6001 14.0448C22.4539 14.0448 22.3354 13.9262 22.3354 13.78C22.3354 13.6339 22.4539 13.5153 22.6001 13.5153C22.7463 13.5153 22.8648 13.6339 22.8648 13.78Z" fill="white"/>
<path d="M22.3977 14.5586C22.3977 14.7048 22.2792 14.8233 22.133 14.8233C21.9868 14.8233 21.8683 14.7048 21.8683 14.5586C21.8683 14.4124 21.9868 14.2939 22.133 14.2939C22.2792 14.2939 22.3977 14.4124 22.3977 14.5586Z" fill="white"/>
<path d="M22.024 15.3683C22.024 15.5145 21.9055 15.633 21.7593 15.633C21.6131 15.633 21.4946 15.5145 21.4946 15.3683C21.4946 15.2221 21.6131 15.1036 21.7593 15.1036C21.9055 15.1036 22.024 15.2221 22.024 15.3683Z" fill="white"/>
<path d="M21.7749 16.2091C21.7749 16.3553 21.6563 16.4738 21.5102 16.4738C21.364 16.4738 21.2454 16.3553 21.2454 16.2091C21.2454 16.0629 21.364 15.9444 21.5102 15.9444C21.6563 15.9444 21.7749 16.0629 21.7749 16.2091Z" fill="white"/>
<path d="M21.6503 17.1434C21.6503 17.2896 21.5318 17.4081 21.3856 17.4081C21.2394 17.4081 21.1209 17.2896 21.1209 17.1434C21.1209 16.9972 21.2394 16.8787 21.3856 16.8787C21.5318 16.8787 21.6503 16.9972 21.6503 17.1434Z" fill="white"/>
<path d="M21.588 18.0465C21.588 18.1927 21.4695 18.3112 21.3233 18.3112C21.1771 18.3112 21.0586 18.1927 21.0586 18.0465C21.0586 17.9003 21.1771 17.7818 21.3233 17.7818C21.4695 17.7818 21.588 17.9003 21.588 18.0465Z" fill="white"/>
<path d="M21.6503 18.8873C21.6503 19.0335 21.5318 19.152 21.3856 19.152C21.2394 19.152 21.1209 19.0335 21.1209 18.8873C21.1209 18.7411 21.2394 18.6226 21.3856 18.6226C21.5318 18.6226 21.6503 18.7411 21.6503 18.8873Z" fill="white"/>
<path d="M21.7749 19.7904C21.7749 19.9366 21.6563 20.0551 21.5102 20.0551C21.364 20.0551 21.2454 19.9366 21.2454 19.7904C21.2454 19.6442 21.364 19.5257 21.5102 19.5257C21.6563 19.5257 21.7749 19.6442 21.7749 19.7904Z" fill="white"/>
<path d="M22.0551 20.6313C22.0551 20.7775 21.9366 20.896 21.7904 20.896C21.6442 20.896 21.5257 20.7775 21.5257 20.6313C21.5257 20.4851 21.6442 20.3666 21.7904 20.3666C21.9366 20.3666 22.0551 20.4851 22.0551 20.6313Z" fill="white"/>
<path d="M22.3977 21.4409C22.3977 21.5871 22.2792 21.7057 22.133 21.7057C21.9868 21.7057 21.8683 21.5871 21.8683 21.4409C21.8683 21.2948 21.9868 21.1762 22.133 21.1762C22.2792 21.1762 22.3977 21.2948 22.3977 21.4409Z" fill="white"/>
<path d="M22.8648 22.2195C22.8648 22.3657 22.7463 22.4842 22.6001 22.4842C22.4539 22.4842 22.3354 22.3657 22.3354 22.2195C22.3354 22.0733 22.4539 21.9548 22.6001 21.9548C22.7463 21.9548 22.8648 22.0733 22.8648 22.2195Z" fill="white"/>
<path d="M23.3942 22.9358C23.3942 23.082 23.2757 23.2005 23.1295 23.2005C22.9833 23.2005 22.8648 23.082 22.8648 22.9358C22.8648 22.7896 22.9833 22.6711 23.1295 22.6711C23.2757 22.6711 23.3942 22.7896 23.3942 22.9358Z" fill="white"/>
<path d="M24.0171 23.6209C24.0171 23.7671 23.8986 23.8856 23.7524 23.8856C23.6062 23.8856 23.4877 23.7671 23.4877 23.6209C23.4877 23.4747 23.6062 23.3562 23.7524 23.3562C23.8986 23.3562 24.0171 23.4747 24.0171 23.6209Z" fill="white"/>
<path d="M24.6711 24.1503C24.6711 24.2965 24.5525 24.415 24.4063 24.415C24.2602 24.415 24.1416 24.2965 24.1416 24.1503C24.1416 24.0041 24.2602 23.8856 24.4063 23.8856C24.5525 23.8856 24.6711 24.0041 24.6711 24.1503Z" fill="white"/>
<path d="M25.4185 24.6797C25.4185 24.8259 25.2999 24.9444 25.1537 24.9444C25.0076 24.9444 24.889 24.8259 24.889 24.6797C24.889 24.5335 25.0076 24.415 25.1537 24.415C25.2999 24.415 25.4185 24.5335 25.4185 24.6797Z" fill="white"/>
<path d="M26.2593 25.0534C26.2593 25.1996 26.1408 25.3181 25.9946 25.3181C25.8484 25.3181 25.7299 25.1996 25.7299 25.0534C25.7299 24.9072 25.8484 24.7887 25.9946 24.7887C26.1408 24.7887 26.2593 24.9072 26.2593 25.0534Z" fill="white"/>
<path d="M25.5119 17.2057C25.5119 17.283 25.4491 17.3458 25.3717 17.3458C25.2943 17.3458 25.2316 17.283 25.2316 17.2057C25.2316 17.1283 25.2943 17.0655 25.3717 17.0655C25.4491 17.0655 25.5119 17.1283 25.5119 17.2057Z" fill="white"/>
<path d="M25.6987 16.7697C25.6987 16.8471 25.636 16.9098 25.5586 16.9098C25.4812 16.9098 25.4185 16.8471 25.4185 16.7697C25.4185 16.6923 25.4812 16.6295 25.5586 16.6295C25.636 16.6295 25.6987 16.6923 25.6987 16.7697Z" fill="white"/>
<path d="M25.979 16.3648C25.979 16.4422 25.9163 16.505 25.8389 16.505C25.7615 16.505 25.6987 16.4422 25.6987 16.3648C25.6987 16.2874 25.7615 16.2247 25.8389 16.2247C25.9163 16.2247 25.979 16.2874 25.979 16.3648Z" fill="white"/>
<path d="M26.2593 15.9911C26.2593 16.0685 26.1965 16.1313 26.1191 16.1313C26.0418 16.1313 25.979 16.0685 25.979 15.9911C25.979 15.9137 26.0418 15.851 26.1191 15.851C26.1965 15.851 26.2593 15.9137 26.2593 15.9911Z" fill="white"/>
<path d="M26.6018 15.6797C26.6018 15.7571 26.5391 15.8198 26.4617 15.8198C26.3843 15.8198 26.3216 15.7571 26.3216 15.6797C26.3216 15.6023 26.3843 15.5396 26.4617 15.5396C26.5391 15.5396 26.6018 15.6023 26.6018 15.6797Z" fill="white"/>
<path d="M26.9755 15.3994C26.9755 15.4768 26.9128 15.5396 26.8354 15.5396C26.758 15.5396 26.6953 15.4768 26.6953 15.3994C26.6953 15.322 26.758 15.2593 26.8354 15.2593C26.9128 15.2593 26.9755 15.322 26.9755 15.3994Z" fill="white"/>
<path d="M27.4115 15.1503C27.4115 15.2277 27.3488 15.2904 27.2714 15.2904C27.194 15.2904 27.1313 15.2277 27.1313 15.1503C27.1313 15.0729 27.194 15.0102 27.2714 15.0102C27.3488 15.0102 27.4115 15.0729 27.4115 15.1503Z" fill="white"/>
<path d="M27.8475 14.9946C27.8475 15.072 27.7848 15.1347 27.7074 15.1347C27.63 15.1347 27.5672 15.072 27.5672 14.9946C27.5672 14.9172 27.63 14.8544 27.7074 14.8544C27.7848 14.8544 27.8475 14.9172 27.8475 14.9946Z" fill="white"/>
<path d="M28.2835 14.87C28.2835 14.9474 28.2208 15.0102 28.1434 15.0102C28.066 15.0102 28.0032 14.9474 28.0032 14.87C28.0032 14.7926 28.066 14.7299 28.1434 14.7299C28.2208 14.7299 28.2835 14.7926 28.2835 14.87Z" fill="white"/>
<path d="M28.7818 14.8077C28.7818 14.8851 28.719 14.9479 28.6416 14.9479C28.5642 14.9479 28.5015 14.8851 28.5015 14.8077C28.5015 14.7303 28.5642 14.6676 28.6416 14.6676C28.719 14.6676 28.7818 14.7303 28.7818 14.8077Z" fill="white"/>
<path d="M29.2489 14.7766C29.2489 14.854 29.1862 14.9167 29.1088 14.9167C29.0314 14.9167 28.9686 14.854 28.9686 14.7766C28.9686 14.6992 29.0314 14.6364 29.1088 14.6364C29.1862 14.6364 29.2489 14.6992 29.2489 14.7766Z" fill="white"/>
<path d="M29.716 14.8389C29.716 14.9163 29.6533 14.979 29.5759 14.979C29.4985 14.979 29.4358 14.9163 29.4358 14.8389C29.4358 14.7615 29.4985 14.6987 29.5759 14.6987C29.6533 14.6987 29.716 14.7615 29.716 14.8389Z" fill="white"/>
<path d="M30.1832 14.9323C30.1832 15.0097 30.1204 15.0724 30.043 15.0724C29.9656 15.0724 29.9029 15.0097 29.9029 14.9323C29.9029 14.8549 29.9656 14.7922 30.043 14.7922C30.1204 14.7922 30.1832 14.8549 30.1832 14.9323Z" fill="white"/>
<path d="M30.6503 15.088C30.6503 15.1654 30.5875 15.2281 30.5102 15.2281C30.4328 15.2281 30.37 15.1654 30.37 15.088C30.37 15.0106 30.4328 14.9479 30.5102 14.9479C30.5875 14.9479 30.6503 15.0106 30.6503 15.088Z" fill="white"/>
<path d="M31.0863 15.3371C31.0863 15.4145 31.0235 15.4773 30.9461 15.4773C30.8687 15.4773 30.806 15.4145 30.806 15.3371C30.806 15.2597 30.8687 15.197 30.9461 15.197C31.0235 15.197 31.0863 15.2597 31.0863 15.3371Z" fill="white"/>
<path d="M31.4911 15.5863C31.4911 15.6637 31.4284 15.7264 31.351 15.7264C31.2736 15.7264 31.2108 15.6637 31.2108 15.5863C31.2108 15.5089 31.2736 15.4461 31.351 15.4461C31.4284 15.4461 31.4911 15.5089 31.4911 15.5863Z" fill="white"/>
<path d="M31.896 15.8977C31.896 15.9751 31.8332 16.0378 31.7558 16.0378C31.6784 16.0378 31.6157 15.9751 31.6157 15.8977C31.6157 15.8203 31.6784 15.7576 31.7558 15.7576C31.8332 15.7576 31.896 15.8203 31.896 15.8977Z" fill="white"/>
<path d="M32.2385 16.2403C32.2385 16.3177 32.1758 16.3804 32.0984 16.3804C32.021 16.3804 31.9582 16.3177 31.9582 16.2403C31.9582 16.1629 32.021 16.1001 32.0984 16.1001C32.1758 16.1001 32.2385 16.1629 32.2385 16.2403Z" fill="white"/>
<path d="M32.5499 16.6451C32.5499 16.7225 32.4872 16.7852 32.4098 16.7852C32.3324 16.7852 32.2697 16.7225 32.2697 16.6451C32.2697 16.5677 32.3324 16.505 32.4098 16.505C32.4872 16.505 32.5499 16.5677 32.5499 16.6451Z" fill="white"/>
<path d="M32.8302 17.0811C32.8302 17.1585 32.7675 17.2212 32.6901 17.2212C32.6127 17.2212 32.5499 17.1585 32.5499 17.0811C32.5499 17.0037 32.6127 16.9409 32.6901 16.9409C32.7675 16.9409 32.8302 17.0037 32.8302 17.0811Z" fill="white"/>
<path d="M33.0482 17.5171C33.0482 17.5945 32.9855 17.6572 32.9081 17.6572C32.8307 17.6572 32.7679 17.5945 32.7679 17.5171C32.7679 17.4397 32.8307 17.3769 32.9081 17.3769C32.9855 17.3769 33.0482 17.4397 33.0482 17.5171Z" fill="white"/>
<path d="M33.2039 17.9842C33.2039 18.0616 33.1412 18.1243 33.0638 18.1243C32.9864 18.1243 32.9236 18.0616 32.9236 17.9842C32.9236 17.9068 32.9864 17.8441 33.0638 17.8441C33.1412 17.8441 33.2039 17.9068 33.2039 17.9842Z" fill="white"/>
<path d="M33.3285 18.4825C33.3285 18.5599 33.2657 18.6226 33.1884 18.6226C33.111 18.6226 33.0482 18.5599 33.0482 18.4825C33.0482 18.4051 33.111 18.3423 33.1884 18.3423C33.2657 18.3423 33.3285 18.4051 33.3285 18.4825Z" fill="white"/>
<path d="M33.3908 18.9807C33.3908 19.0581 33.328 19.1209 33.2506 19.1209C33.1732 19.1209 33.1105 19.0581 33.1105 18.9807C33.1105 18.9033 33.1732 18.8406 33.2506 18.8406C33.328 18.8406 33.3908 18.9033 33.3908 18.9807Z" fill="white"/>
<path d="M33.3908 19.479C33.3908 19.5564 33.328 19.6191 33.2506 19.6191C33.1732 19.6191 33.1105 19.5564 33.1105 19.479C33.1105 19.4016 33.1732 19.3389 33.2506 19.3389C33.328 19.3389 33.3908 19.4016 33.3908 19.479Z" fill="white"/>
<path d="M33.3596 19.9773C33.3596 20.0547 33.2969 20.1174 33.2195 20.1174C33.1421 20.1174 33.0794 20.0547 33.0794 19.9773C33.0794 19.8999 33.1421 19.8371 33.2195 19.8371C33.2969 19.8371 33.3596 19.8999 33.3596 19.9773Z" fill="white"/>
<path d="M33.2351 20.4444C33.2351 20.5218 33.1723 20.5845 33.0949 20.5845C33.0175 20.5845 32.9548 20.5218 32.9548 20.4444C32.9548 20.367 33.0175 20.3043 33.0949 20.3043C33.1723 20.3043 33.2351 20.367 33.2351 20.4444Z" fill="white"/>
<path d="M33.0794 20.9115C33.0794 20.9889 33.0166 21.0517 32.9392 21.0517C32.8618 21.0517 32.7991 20.9889 32.7991 20.9115C32.7991 20.8341 32.8618 20.7714 32.9392 20.7714C33.0166 20.7714 33.0794 20.8341 33.0794 20.9115Z" fill="white"/>
<path d="M32.8614 21.3475C32.8614 21.4249 32.7986 21.4877 32.7212 21.4877C32.6438 21.4877 32.5811 21.4249 32.5811 21.3475C32.5811 21.2701 32.6438 21.2074 32.7212 21.2074C32.7986 21.2074 32.8614 21.2701 32.8614 21.3475Z" fill="white"/>
<path d="M32.6122 21.7524C32.6122 21.8298 32.5495 21.8925 32.4721 21.8925C32.3947 21.8925 32.332 21.8298 32.332 21.7524C32.332 21.675 32.3947 21.6122 32.4721 21.6122C32.5495 21.6122 32.6122 21.675 32.6122 21.7524Z" fill="white"/>
<path d="M32.332 22.1261C32.332 22.2035 32.2692 22.2662 32.1918 22.2662C32.1144 22.2662 32.0517 22.2035 32.0517 22.1261C32.0517 22.0487 32.1144 21.9859 32.1918 21.9859C32.2692 21.9859 32.332 22.0487 32.332 22.1261Z" fill="white"/>
<path d="M31.9894 22.4375C31.9894 22.5149 31.9266 22.5776 31.8493 22.5776C31.7719 22.5776 31.7091 22.5149 31.7091 22.4375C31.7091 22.3601 31.7719 22.2973 31.8493 22.2973C31.9266 22.2973 31.9894 22.3601 31.9894 22.4375Z" fill="white"/>
<path d="M31.6157 22.7178C31.6157 22.7952 31.5529 22.8579 31.4755 22.8579C31.3982 22.8579 31.3354 22.7952 31.3354 22.7178C31.3354 22.6404 31.3982 22.5776 31.4755 22.5776C31.5529 22.5776 31.6157 22.6404 31.6157 22.7178Z" fill="white"/>
<path d="M31.1797 22.9669C31.1797 23.0443 31.117 23.107 31.0396 23.107C30.9622 23.107 30.8994 23.0443 30.8994 22.9669C30.8994 22.8895 30.9622 22.8268 31.0396 22.8268C31.117 22.8268 31.1797 22.8895 31.1797 22.9669Z" fill="white"/>
<path d="M30.7437 23.1226C30.7437 23.2 30.681 23.2627 30.6036 23.2627C30.5262 23.2627 30.4634 23.2 30.4634 23.1226C30.4634 23.0452 30.5262 22.9825 30.6036 22.9825C30.681 22.9825 30.7437 23.0452 30.7437 23.1226Z" fill="white"/>
<path d="M30.3077 23.2472C30.3077 23.3246 30.245 23.3873 30.1676 23.3873C30.0902 23.3873 30.0275 23.3246 30.0275 23.2472C30.0275 23.1698 30.0902 23.107 30.1676 23.107C30.245 23.107 30.3077 23.1698 30.3077 23.2472Z" fill="white"/>
<path d="M29.3423 23.3406C29.3423 23.418 29.2796 23.4807 29.2022 23.4807C29.1248 23.4807 29.0621 23.418 29.0621 23.3406C29.0621 23.2632 29.1248 23.2005 29.2022 23.2005C29.2796 23.2005 29.3423 23.2632 29.3423 23.3406Z" fill="white"/>
<path d="M28.8752 23.2783C28.8752 23.3557 28.8125 23.4185 28.7351 23.4185C28.6577 23.4185 28.5949 23.3557 28.5949 23.2783C28.5949 23.2009 28.6577 23.1382 28.7351 23.1382C28.8125 23.1382 28.8752 23.2009 28.8752 23.2783Z" fill="white"/>
<path d="M28.4081 23.1849C28.4081 23.2623 28.3453 23.325 28.2679 23.325C28.1905 23.325 28.1278 23.2623 28.1278 23.1849C28.1278 23.1075 28.1905 23.0448 28.2679 23.0448C28.3453 23.0448 28.4081 23.1075 28.4081 23.1849Z" fill="white"/>
<path d="M27.9409 22.998C27.9409 23.0754 27.8782 23.1382 27.8008 23.1382C27.7234 23.1382 27.6607 23.0754 27.6607 22.998C27.6607 22.9206 27.7234 22.8579 27.8008 22.8579C27.8782 22.8579 27.9409 22.9206 27.9409 22.998Z" fill="white"/>
<path d="M27.505 22.78C27.505 22.8574 27.4422 22.9202 27.3648 22.9202C27.2874 22.9202 27.2247 22.8574 27.2247 22.78C27.2247 22.7027 27.2874 22.6399 27.3648 22.6399C27.4422 22.6399 27.505 22.7027 27.505 22.78Z" fill="white"/>
<path d="M27.069 22.5309C27.069 22.6083 27.0062 22.6711 26.9288 22.6711C26.8514 22.6711 26.7887 22.6083 26.7887 22.5309C26.7887 22.4535 26.8514 22.3908 26.9288 22.3908C27.0062 22.3908 27.069 22.4535 27.069 22.5309Z" fill="white"/>
<path d="M26.6953 22.2195C26.6953 22.2969 26.6325 22.3596 26.5551 22.3596C26.4777 22.3596 26.415 22.2969 26.415 22.2195C26.415 22.1421 26.4777 22.0794 26.5551 22.0794C26.6325 22.0794 26.6953 22.1421 26.6953 22.2195Z" fill="white"/>
<path d="M26.3527 21.8458C26.3527 21.9232 26.29 21.9859 26.2126 21.9859C26.1352 21.9859 26.0724 21.9232 26.0724 21.8458C26.0724 21.7684 26.1352 21.7057 26.2126 21.7057C26.29 21.7057 26.3527 21.7684 26.3527 21.8458Z" fill="white"/>
<path d="M26.0413 21.4721C26.0413 21.5495 25.9786 21.6122 25.9012 21.6122C25.8238 21.6122 25.761 21.5495 25.761 21.4721C25.761 21.3947 25.8238 21.332 25.9012 21.332C25.9786 21.332 26.0413 21.3947 26.0413 21.4721Z" fill="white"/>
<path d="M25.761 21.0361C25.761 21.1135 25.6983 21.1762 25.6209 21.1762C25.5435 21.1762 25.4807 21.1135 25.4807 21.0361C25.4807 20.9587 25.5435 20.896 25.6209 20.896C25.6983 20.896 25.761 20.9587 25.761 21.0361Z" fill="white"/>
<path d="M25.543 20.569C25.543 20.6464 25.4803 20.7091 25.4029 20.7091C25.3255 20.7091 25.2627 20.6464 25.2627 20.569C25.2627 20.4916 25.3255 20.4288 25.4029 20.4288C25.4803 20.4288 25.543 20.4916 25.543 20.569Z" fill="white"/>
<path d="M25.3873 20.1018C25.3873 20.1792 25.3246 20.242 25.2472 20.242C25.1698 20.242 25.107 20.1792 25.107 20.1018C25.107 20.0245 25.1698 19.9617 25.2472 19.9617C25.3246 19.9617 25.3873 20.0245 25.3873 20.1018Z" fill="white"/>
<path d="M25.2627 19.6036C25.2627 19.681 25.2 19.7437 25.1226 19.7437C25.0452 19.7437 24.9825 19.681 24.9825 19.6036C24.9825 19.5262 25.0452 19.4634 25.1226 19.4634C25.2 19.4634 25.2627 19.5262 25.2627 19.6036Z" fill="white"/>
<path d="M25.2005 19.1364C25.2005 19.2138 25.1377 19.2766 25.0603 19.2766C24.9829 19.2766 24.9202 19.2138 24.9202 19.1364C24.9202 19.0591 24.9829 18.9963 25.0603 18.9963C25.1377 18.9963 25.2005 19.0591 25.2005 19.1364Z" fill="white"/>
<path d="M25.2005 18.6382C25.2005 18.7156 25.1377 18.7783 25.0603 18.7783C24.9829 18.7783 24.9202 18.7156 24.9202 18.6382C24.9202 18.5608 24.9829 18.498 25.0603 18.498C25.1377 18.498 25.2005 18.5608 25.2005 18.6382Z" fill="white"/>
<path d="M25.2316 18.1399C25.2316 18.2173 25.1689 18.28 25.0915 18.28C25.0141 18.28 24.9513 18.2173 24.9513 18.1399C24.9513 18.0625 25.0141 17.9998 25.0915 17.9998C25.1689 17.9998 25.2316 18.0625 25.2316 18.1399Z" fill="white"/>
<path d="M25.3562 17.6416C25.3562 17.719 25.2934 17.7818 25.216 17.7818C25.1386 17.7818 25.0759 17.719 25.0759 17.6416C25.0759 17.5642 25.1386 17.5015 25.216 17.5015C25.2934 17.5015 25.3562 17.5642 25.3562 17.6416Z" fill="white"/>
<path d="M29.8406 23.3095C29.8406 23.3869 29.7779 23.4496 29.7005 23.4496C29.6231 23.4496 29.5603 23.3869 29.5603 23.3095C29.5603 23.2321 29.6231 23.1693 29.7005 23.1693C29.7779 23.1693 29.8406 23.2321 29.8406 23.3095Z" fill="white"/>
<path d="M46.125 25L50.4219 13.7969H51.7812L56.0938 25H54.6406L53.5078 22.0078H48.6562L47.5859 25H46.125ZM49.0938 20.8203H53.0781L51.2656 15.9453C51.2292 15.8464 51.2005 15.763 51.1797 15.6953C51.1589 15.6276 51.1302 15.5339 51.0938 15.4141H51.0625C51.0208 15.5339 50.9896 15.6302 50.9688 15.7031C50.9479 15.7708 50.9193 15.8516 50.8828 15.9453L49.0938 20.8203ZM56.9531 23.4297L58.0469 22.9531C58.224 23.349 58.4688 23.6354 58.7812 23.8125C59.099 23.9896 59.487 24.0781 59.9453 24.0781C60.3828 24.0781 60.7448 23.9688 61.0312 23.75C61.3229 23.5312 61.4688 23.2161 61.4688 22.8047C61.4688 22.4922 61.3411 22.224 61.0859 22C60.8359 21.7708 60.4401 21.5964 59.8984 21.4766C58.888 21.2526 58.2005 20.9453 57.8359 20.5547C57.4766 20.1641 57.2969 19.7031 57.2969 19.1719C57.2969 18.4219 57.5573 17.8411 58.0781 17.4297C58.6042 17.0182 59.2318 16.8125 59.9609 16.8125C60.5495 16.8125 61.0807 16.9349 61.5547 17.1797C62.0339 17.4245 62.3906 17.8021 62.625 18.3125L61.5781 18.7969C61.4219 18.5 61.2135 18.2812 60.9531 18.1406C60.6927 17.9948 60.3516 17.9219 59.9297 17.9219C59.5234 17.9219 59.1823 18.0208 58.9062 18.2188C58.6302 18.4167 58.4922 18.6901 58.4922 19.0391C58.4922 19.3672 58.6042 19.6198 58.8281 19.7969C59.0521 19.9688 59.4974 20.1302 60.1641 20.2812C61.0339 20.474 61.6719 20.7708 62.0781 21.1719C62.4844 21.5677 62.6875 22.0859 62.6875 22.7266C62.6875 23.5078 62.4167 24.1146 61.875 24.5469C61.3385 24.974 60.6953 25.1875 59.9453 25.1875C59.1693 25.1875 58.5339 25.0286 58.0391 24.7109C57.5495 24.388 57.1875 23.9609 56.9531 23.4297ZM71.1797 25H69.4844L65.9531 21.1562H65.9219V25H64.6406V13.1562H65.9219V20.6641H65.9531L69.375 17H70.9531L67.2812 20.8594L71.1797 25ZM87.875 25H86.5703V17.4844C86.5703 17.1771 86.5729 16.8906 86.5781 16.625C86.5833 16.3542 86.5911 16.0417 86.6016 15.6875H86.5703C86.5286 15.8229 86.4896 15.9401 86.4531 16.0391C86.4167 16.138 86.3698 16.2552 86.3125 16.3906L82.4844 25H81.8438L78.0234 16.4531C77.9818 16.3646 77.9349 16.2578 77.8828 16.1328C77.8307 16.0078 77.776 15.8594 77.7188 15.6875H77.6875C77.6979 15.875 77.7057 16.1198 77.7109 16.4219C77.7161 16.7188 77.7188 17.0781 77.7188 17.5V25H76.4531V13.7969H78.1875L81.625 21.6094C81.7552 21.9062 81.8594 22.151 81.9375 22.3438C82.0156 22.5312 82.0833 22.7135 82.1406 22.8906H82.1875C82.276 22.6719 82.3672 22.4427 82.4609 22.2031C82.5599 21.9635 82.6484 21.7552 82.7266 21.5781L86.2344 13.7969H87.875V25ZM97.0547 21.2266H91.2812C91.2812 22.2161 91.5156 22.9401 91.9844 23.3984C92.4583 23.8516 93.0208 24.0781 93.6719 24.0781C94.1615 24.0781 94.5911 23.9661 94.9609 23.7422C95.3359 23.513 95.6458 23.1745 95.8906 22.7266L96.9375 23.2578C96.6562 23.8307 96.2318 24.2969 95.6641 24.6562C95.1016 25.0104 94.4089 25.1875 93.5859 25.1875C92.5234 25.1875 91.651 24.8359 90.9688 24.1328C90.2917 23.4297 89.9531 22.3958 89.9531 21.0312C89.9531 19.8177 90.2969 18.8125 90.9844 18.0156C91.6719 17.2135 92.5521 16.8125 93.625 16.8125C94.7135 16.8125 95.5573 17.1432 96.1562 17.8047C96.7552 18.4609 97.0547 19.3776 97.0547 20.5547V21.2266ZM95.7422 20.1562C95.7422 19.4635 95.5521 18.9193 95.1719 18.5234C94.7917 18.1224 94.2682 17.9219 93.6016 17.9219C92.9557 17.9219 92.4271 18.1354 92.0156 18.5625C91.6094 18.9896 91.3672 19.5208 91.2891 20.1562H95.7422ZM101.5 25L105.797 13.7969H107.156L111.469 25H110.016L108.883 22.0078H104.031L102.961 25H101.5ZM104.469 20.8203H108.453L106.641 15.9453C106.604 15.8464 106.576 15.763 106.555 15.6953C106.534 15.6276 106.505 15.5339 106.469 15.4141H106.438C106.396 15.5339 106.365 15.6302 106.344 15.7031C106.323 15.7708 106.294 15.8516 106.258 15.9453L104.469 20.8203ZM121.312 25.1875C119.719 25.1875 118.435 24.6667 117.461 23.625C116.487 22.5833 116 21.2188 116 19.5312C116 17.7344 116.508 16.2995 117.523 15.2266C118.544 14.1484 119.87 13.6094 121.5 13.6094C123.016 13.6094 124.25 14.1224 125.203 15.1484C126.161 16.1693 126.646 17.5391 126.656 19.2578C126.661 20.3464 126.469 21.3307 126.078 22.2109C125.688 23.0911 125.151 23.7708 124.469 24.25L126.742 25.8359L125.945 26.9297L123.227 24.9141C122.951 24.9974 122.643 25.0625 122.305 25.1094C121.971 25.1615 121.641 25.1875 121.312 25.1875ZM121.406 14.8281C120.208 14.8281 119.237 15.25 118.492 16.0938C117.747 16.9375 117.375 18.0443 117.375 19.4141C117.375 20.7682 117.737 21.8672 118.461 22.7109C119.185 23.5547 120.135 23.9766 121.312 23.9766C122.542 23.9766 123.51 23.5677 124.219 22.75C124.927 21.9323 125.281 20.8281 125.281 19.4375C125.281 18.0365 124.922 16.9193 124.203 16.0859C123.484 15.2474 122.552 14.8281 121.406 14.8281ZM134.938 25H133.656V23.8594H133.625C133.359 24.2708 133.008 24.5964 132.57 24.8359C132.138 25.0703 131.667 25.1875 131.156 25.1875C130.214 25.1875 129.5 24.9141 129.016 24.3672C128.536 23.8203 128.297 22.9948 128.297 21.8906V17H129.57V21.75C129.57 22.5729 129.716 23.1667 130.008 23.5312C130.299 23.8958 130.771 24.0781 131.422 24.0781C132.083 24.0781 132.62 23.8411 133.031 23.3672C133.448 22.888 133.656 22.2891 133.656 21.5703V17H134.938V25ZM143.93 21.2266H138.156C138.156 22.2161 138.391 22.9401 138.859 23.3984C139.333 23.8516 139.896 24.0781 140.547 24.0781C141.036 24.0781 141.466 23.9661 141.836 23.7422C142.211 23.513 142.521 23.1745 142.766 22.7266L143.812 23.2578C143.531 23.8307 143.107 24.2969 142.539 24.6562C141.977 25.0104 141.284 25.1875 140.461 25.1875C139.398 25.1875 138.526 24.8359 137.844 24.1328C137.167 23.4297 136.828 22.3958 136.828 21.0312C136.828 19.8177 137.172 18.8125 137.859 18.0156C138.547 17.2135 139.427 16.8125 140.5 16.8125C141.589 16.8125 142.432 17.1432 143.031 17.8047C143.63 18.4609 143.93 19.3776 143.93 20.5547V21.2266ZM142.617 20.1562C142.617 19.4635 142.427 18.9193 142.047 18.5234C141.667 18.1224 141.143 17.9219 140.477 17.9219C139.831 17.9219 139.302 18.1354 138.891 18.5625C138.484 18.9896 138.242 19.5208 138.164 20.1562H142.617ZM145.234 23.4297L146.328 22.9531C146.505 23.349 146.75 23.6354 147.062 23.8125C147.38 23.9896 147.768 24.0781 148.227 24.0781C148.664 24.0781 149.026 23.9688 149.312 23.75C149.604 23.5312 149.75 23.2161 149.75 22.8047C149.75 22.4922 149.622 22.224 149.367 22C149.117 21.7708 148.721 21.5964 148.18 21.4766C147.169 21.2526 146.482 20.9453 146.117 20.5547C145.758 20.1641 145.578 19.7031 145.578 19.1719C145.578 18.4219 145.839 17.8411 146.359 17.4297C146.885 17.0182 147.513 16.8125 148.242 16.8125C148.831 16.8125 149.362 16.9349 149.836 17.1797C150.315 17.4245 150.672 17.8021 150.906 18.3125L149.859 18.7969C149.703 18.5 149.495 18.2812 149.234 18.1406C148.974 17.9948 148.633 17.9219 148.211 17.9219C147.805 17.9219 147.464 18.0208 147.188 18.2188C146.911 18.4167 146.773 18.6901 146.773 19.0391C146.773 19.3672 146.885 19.6198 147.109 19.7969C147.333 19.9688 147.779 20.1302 148.445 20.2812C149.315 20.474 149.953 20.7708 150.359 21.1719C150.766 21.5677 150.969 22.0859 150.969 22.7266C150.969 23.5078 150.698 24.1146 150.156 24.5469C149.62 24.974 148.977 25.1875 148.227 25.1875C147.451 25.1875 146.815 25.0286 146.32 24.7109C145.831 24.388 145.469 23.9609 145.234 23.4297ZM157.078 24.4922C156.844 24.7266 156.586 24.8984 156.305 25.0078C156.023 25.1172 155.693 25.1719 155.312 25.1719C154.682 25.1719 154.195 24.9974 153.852 24.6484C153.508 24.2943 153.336 23.7891 153.336 23.1328V18.0938H151.961V17H153.336V15.1094L154.617 14.8828V17H156.758V18.0938H154.617V23.0234C154.617 23.4036 154.69 23.6797 154.836 23.8516C154.982 24.0234 155.211 24.1094 155.523 24.1094C155.68 24.1094 155.828 24.0781 155.969 24.0156C156.115 23.9531 156.266 23.8333 156.422 23.6562L157.078 24.4922ZM159.32 15.1953C159.044 15.1953 158.82 15.1042 158.648 14.9219C158.477 14.7344 158.391 14.5156 158.391 14.2656C158.391 14.0156 158.477 13.7995 158.648 13.6172C158.82 13.4297 159.044 13.3359 159.32 13.3359C159.596 13.3359 159.82 13.4297 159.992 13.6172C160.164 13.7995 160.25 14.0156 160.25 14.2656C160.25 14.5156 160.164 14.7344 159.992 14.9219C159.82 15.1042 159.596 15.1953 159.32 15.1953ZM159.945 25H158.664V17H159.945V25ZM165.789 25.1875C164.544 25.1875 163.57 24.8177 162.867 24.0781C162.164 23.3333 161.812 22.3385 161.812 21.0938C161.812 19.8073 162.203 18.7734 162.984 17.9922C163.766 17.2057 164.742 16.8125 165.914 16.8125C167.112 16.8125 168.06 17.1953 168.758 17.9609C169.461 18.7214 169.812 19.724 169.812 20.9688C169.812 22.1719 169.451 23.1771 168.727 23.9844C168.008 24.7865 167.029 25.1875 165.789 25.1875ZM165.859 24.0781C166.667 24.0781 167.307 23.8099 167.781 23.2734C168.26 22.7318 168.5 21.9792 168.5 21.0156C168.5 20.099 168.26 19.3568 167.781 18.7891C167.307 18.2161 166.667 17.9297 165.859 17.9297C165.052 17.9297 164.393 18.2188 163.883 18.7969C163.378 19.3698 163.125 20.1198 163.125 21.0469C163.125 22.0208 163.378 22.7708 163.883 23.2969C164.393 23.8177 165.052 24.0781 165.859 24.0781ZM178.344 25H177.062V20.25C177.062 19.4635 176.911 18.8802 176.609 18.5C176.312 18.1146 175.862 17.9219 175.258 17.9219C174.581 17.9219 174.031 18.1615 173.609 18.6406C173.193 19.1146 172.984 19.7135 172.984 20.4375V25H171.703V17H172.984V18.1406H173.016C173.318 17.6979 173.688 17.3672 174.125 17.1484C174.562 16.9245 175.068 16.8125 175.641 16.8125C176.516 16.8125 177.185 17.0964 177.648 17.6641C178.112 18.2266 178.344 19.0417 178.344 20.1094V25Z" fill="#36373A"/>
<path d="M228.458 13.5462C228.182 13.2701 227.736 13.2701 227.46 13.5462L223.999 17.0006L220.537 13.5391C220.261 13.263 219.815 13.263 219.539 13.5391C219.263 13.8152 219.263 14.2611 219.539 14.5372L223.001 17.9987L219.539 21.4602C219.263 21.7363 219.263 22.1822 219.539 22.4583C219.815 22.7344 220.261 22.7344 220.537 22.4583L223.999 18.9968L227.46 22.4583C227.736 22.7344 228.182 22.7344 228.458 22.4583C228.734 22.1822 228.734 21.7363 228.458 21.4602L224.997 17.9987L228.458 14.5372C228.727 14.2682 228.727 13.8152 228.458 13.5462V13.5462Z" fill="#535353"/>
<path d="M244 36.0009H260C259.725 36.0009 253 35.5009 252 28.0009V7.00089C251.5 1.00089 245.275 0.000892878 245 0.000892878C244.725 0.000892878 244 0 244 0V27.0009C244 31.9509 244 36.0009 244 36.0009Z" fill="white"/>
<path d="M281.717 16.955H276.955V21.7169C276.955 22.2407 276.526 22.6693 276.003 22.6693C275.479 22.6693 275.05 22.2407 275.05 21.7169V16.955H270.288C269.765 16.955 269.336 16.5264 269.336 16.0026C269.336 15.4788 269.765 15.0502 270.288 15.0502H275.05V10.2883C275.05 9.76451 275.479 9.33594 276.003 9.33594C276.526 9.33594 276.955 9.76451 276.955 10.2883V15.0502H281.717C282.241 15.0502 282.669 15.4788 282.669 16.0026C282.669 16.5264 282.241 16.955 281.717 16.955Z" fill="#535353"/>
</svg>
